  0
SECTION
   2
HEADER
   9
$ACADVER
   1
AC1009
   0
ENDSEC
   0
SECTION
   2
TABLES
   0
TABLE
   2
LAYER
  70
     2
  0
LAYER
  2
LAYER123
 70
 0
62
 1
6
CONTINUOUS
0
ENDTAB
0
TABLE
2
LTYPE
70
 3
0
LTYPE
 2
CONTINUOUS
 70
 64
3
Solid line
 72
65
 73
0
 40
0
0
LTYPE
 2
CENTER
 70
  64
3
-- - -- - -- - --
 72
65
 73
4
 40
1.250
 49
0.500
 49
-0.250
 49
0.250
 49
-0.250
0
LTYPE
 2
DOT
 70
  64
3
. . . . . . .
 72
65
 73
2
 40
0.500
 49
0.000
 49
-0.500
0
LTYPE
 2
DASHDOT
 70
  64
3
-.-.-.-.-.-.-.
 72
65
 73
2
 40
0.500
 49
0.000
 49
-0.500
0
LTYPE
 2
DASHED
 70
  64
3
- - - - - -
 72
65
 73
2
 40
1.000
 49
0.500
 49
-0.500
0
ENDTAB
0
ENDSEC
  0
SECTION
  2
BLOCKS
  0
ENDSEC
  0
SECTION
  2
ENTITIES
  0
LINE
   8
0
   6
CONTINUOUS
  62
7
  10
0.000000
 20
0.000000
 30
0.0000000000
 11
6.250000
 21
6.470000
 31
0.0000000000
  0
LINE
   8
0
   6
CONTINUOUS
  62
7
  10
6.250000
 20
6.470000
 30
0.0000000000
 11
0.630000
 21
17.970000
 31
0.0000000000
  0
LINE
   8
0
   6
CONTINUOUS
  62
7
  10
0.630000
 20
17.970000
 30
0.0000000000
 11
0.900000
 21
30.750000
 31
0.0000000000
  0
LINE
   8
0
   6
CONTINUOUS
  62
7
  10
0.900000
 20
30.750000
 30
0.0000000000
 11
7.000000
 21
42.000000
 31
0.0000000000
  0
LINE
   8
0
   6
CONTINUOUS
  62
7
  10
7.000000
 20
42.000000
 30
0.0000000000
 11
7.000000
 21
67.000000
 31
0.0000000000
  0
LINE
   8
0
   6
CONTINUOUS
  62
7
  10
7.000000
 20
67.000000
 30
0.0000000000
 11
-7.000000
 21
67.000000
 31
0.0000000000
  0
LINE
   8
0
   6
CONTINUOUS
  62
7
  10
-7.000000
 20
67.000000
 30
0.0000000000
 11
-7.000000
 21
97.000000
 31
0.0000000000
  0
LINE
   8
0
   6
CONTINUOUS
  62
7
  10
-7.000000
 20
97.000000
 30
0.0000000000
 11
-20.000000
 21
97.000000
 31
0.0000000000
  0
LINE
   8
0
   6
CONTINUOUS
  62
7
  10
-20.000000
 20
97.000000
 30
0.0000000000
 11
-20.000000
 21
22.150000
 31
0.0000000000
  0
LINE
   8
0
   6
CONTINUOUS
  62
7
  10
-20.000000
 20
22.150000
 30
0.0000000000
 11
-5.560000
 21
7.190000
 31
0.0000000000
  0
LINE
   8
0
   6
CONTINUOUS
  62
7
  10
-5.560000
 20
7.190000
 30
0.0000000000
 11
-6.250000
 21
6.470000
 31
0.0000000000
  0
LINE
   8
0
   6
CONTINUOUS
  62
7
  10
-6.250000
 20
6.470000
 30
0.0000000000
 11
0.000000
 21
0.000000
 31
0.0000000000
   0
ENDSEC
   0
EOF