  0
SECTION
   2
HEADER
   9
$ACADVER
   1
AC1009
   0
ENDSEC
   0
SECTION
   2
TABLES
   0
TABLE
   2
LAYER
  70
     2
  0
LAYER
  2
LAYER123
 70
 0
62
 1
6
CONTINUOUS
0
ENDTAB
0
TABLE
2
LTYPE
70
 3
0
LTYPE
 2
CONTINUOUS
 70
 64
3
Solid line
 72
65
 73
0
 40
0
0
LTYPE
 2
CENTER
 70
  64
3
-- - -- - -- - --
 72
65
 73
4
 40
1.250
 49
0.500
 49
-0.250
 49
0.250
 49
-0.250
0
LTYPE
 2
DOT
 70
  64
3
. . . . . . .
 72
65
 73
2
 40
0.500
 49
0.000
 49
-0.500
0
LTYPE
 2
DASHDOT
 70
  64
3
-.-.-.-.-.-.-.
 72
65
 73
2
 40
0.500
 49
0.000
 49
-0.500
0
LTYPE
 2
DASHED
 70
  64
3
- - - - - -
 72
65
 73
2
 40
1.000
 49
0.500
 49
-0.500
0
ENDTAB
0
ENDSEC
  0
SECTION
  2
BLOCKS
  0
ENDSEC
  0
SECTION
  2
ENTITIES
  0
LINE
   8
0
   6
CONTINUOUS
  62
7
  10
-30.000000
 20
-53.720000
 30
0.0000000000
 11
30.000000
 21
-53.720000
 31
0.0000000000
  0
LINE
   8
0
   6
CONTINUOUS
  62
7
  10
30.000000
 20
-53.720000
 30
0.0000000000
 11
30.000000
 21
-35.710000
 31
0.0000000000
  0
LINE
   8
0
   6
CONTINUOUS
  62
7
  10
30.000000
 20
-35.710000
 30
0.0000000000
 11
32.000000
 21
-33.730000
 31
0.0000000000
  0
LINE
   8
0
   6
CONTINUOUS
  62
7
  10
32.000000
 20
-33.730000
 30
0.0000000000
 11
47.500000
 21
-33.730000
 31
0.0000000000
  0
LINE
   8
0
   6
CONTINUOUS
  62
7
  10
47.500000
 20
-33.730000
 30
0.0000000000
 11
47.500000
 21
41.270000
 31
0.0000000000
  0
LINE
   8
0
   6
CONTINUOUS
  62
7
  10
47.500000
 20
41.270000
 30
0.0000000000
 11
42.650000
 21
41.270000
 31
0.0000000000
  0
LINE
   8
0
   6
CONTINUOUS
  62
7
  10
42.650000
 20
41.270000
 30
0.0000000000
 11
41.400000
 21
41.150000
 31
0.0000000000
  0
LINE
   8
0
   6
CONTINUOUS
  62
7
  10
41.400000
 20
41.150000
 30
0.0000000000
 11
40.230000
 21
40.770000
 31
0.0000000000
  0
LINE
   8
0
   6
CONTINUOUS
  62
7
  10
40.230000
 20
40.770000
 30
0.0000000000
 11
39.140000
 21
40.160000
 31
0.0000000000
  0
LINE
   8
0
   6
CONTINUOUS
  62
7
  10
39.140000
 20
40.160000
 30
0.0000000000
 11
38.230000
 21
39.340000
 31
0.0000000000
  0
LINE
   8
0
   6
CONTINUOUS
  62
7
  10
38.230000
 20
39.340000
 30
0.0000000000
 11
32.490000
 21
33.100000
 31
0.0000000000
  0
LINE
   8
0
   6
CONTINUOUS
  62
7
  10
32.490000
 20
33.100000
 30
0.0000000000
 11
32.490000
 21
31.620000
 31
0.0000000000
  0
LINE
   8
0
   6
CONTINUOUS
  62
7
  10
32.490000
 20
31.620000
 30
0.0000000000
 11
5.890000
 21
2.590000
 31
0.0000000000
  0
LINE
   8
0
   6
CONTINUOUS
  62
7
  10
5.890000
 20
2.590000
 30
0.0000000000
 11
3.230000
 21
0.660000
 31
0.0000000000
  0
LINE
   8
0
   6
CONTINUOUS
  62
7
  10
3.230000
 20
0.660000
 30
0.0000000000
 11
0.000000
 21
0.000000
 31
0.0000000000
  0
LINE
   8
0
   6
CONTINUOUS
  62
7
  10
0.000000
 20
0.000000
 30
0.0000000000
 11
-3.230000
 21
0.660000
 31
0.0000000000
  0
LINE
   8
0
   6
CONTINUOUS
  62
7
  10
-3.230000
 20
0.660000
 30
0.0000000000
 11
-5.890000
 21
2.590000
 31
0.0000000000
  0
LINE
   8
0
   6
CONTINUOUS
  62
7
  10
-5.890000
 20
2.590000
 30
0.0000000000
 11
-32.509000
 21
31.620000
 31
0.0000000000
  0
LINE
   8
0
   6
CONTINUOUS
  62
7
  10
-32.509000
 20
31.620000
 30
0.0000000000
 11
-32.509000
 21
33.100000
 31
0.0000000000
  0
LINE
   8
0
   6
CONTINUOUS
  62
7
  10
-32.509000
 20
33.100000
 30
0.0000000000
 11
-38.230000
 21
39.340000
 31
0.0000000000
  0
LINE
   8
0
   6
CONTINUOUS
  62
7
  10
-38.230000
 20
39.340000
 30
0.0000000000
 11
-39.140000
 21
40.160000
 31
0.0000000000
  0
LINE
   8
0
   6
CONTINUOUS
  62
7
  10
-39.140000
 20
40.160000
 30
0.0000000000
 11
-40.230000
 21
40.770000
 31
0.0000000000
  0
LINE
   8
0
   6
CONTINUOUS
  62
7
  10
-40.230000
 20
40.770000
 30
0.0000000000
 11
-41.400000
 21
41.150000
 31
0.0000000000
  0
LINE
   8
0
   6
CONTINUOUS
  62
7
  10
-41.400000
 20
41.150000
 30
0.0000000000
 11
-42.650000
 21
41.270000
 31
0.0000000000
  0
LINE
   8
0
   6
CONTINUOUS
  62
7
  10
-42.650000
 20
41.270000
 30
0.0000000000
 11
-47.500000
 21
41.270000
 31
0.0000000000
  0
LINE
   8
0
   6
CONTINUOUS
  62
7
  10
-47.500000
 20
41.270000
 30
0.0000000000
 11
-47.500000
 21
-33.730000
 31
0.0000000000
  0
LINE
   8
0
   6
CONTINUOUS
  62
7
  10
-47.500000
 20
-33.730000
 30
0.0000000000
 11
-32.000000
 21
-33.730000
 31
0.0000000000
  0
LINE
   8
0
   6
CONTINUOUS
  62
7
  10
-32.000000
 20
-33.730000
 30
0.0000000000
 11
-30.000000
 21
-35.710000
 31
0.0000000000
  0
LINE
   8
0
   6
CONTINUOUS
  62
7
  10
-30.000000
 20
-35.710000
 30
0.0000000000
 11
-30.000000
 21
-53.720000
 31
0.0000000000
   0
ENDSEC
   0
EOF