  0
SECTION
   2
HEADER
   9
$ACADVER
   1
AC1009
   0
ENDSEC
   0
SECTION
   2
TABLES
   0
TABLE
   2
LAYER
  70
     2
  0
LAYER
  2
LAYER123
 70
 0
62
 1
6
CONTINUOUS
0
ENDTAB
0
TABLE
2
LTYPE
70
 3
0
LTYPE
 2
CONTINUOUS
 70
 64
3
Solid line
 72
65
 73
0
 40
0
0
LTYPE
 2
CENTER
 70
  64
3
-- - -- - -- - --
 72
65
 73
4
 40
1.250
 49
0.500
 49
-0.250
 49
0.250
 49
-0.250
0
LTYPE
 2
DOT
 70
  64
3
. . . . . . .
 72
65
 73
2
 40
0.500
 49
0.000
 49
-0.500
0
LTYPE
 2
DASHDOT
 70
  64
3
-.-.-.-.-.-.-.
 72
65
 73
2
 40
0.500
 49
0.000
 49
-0.500
0
LTYPE
 2
DASHED
 70
  64
3
- - - - - -
 72
65
 73
2
 40
1.000
 49
0.500
 49
-0.500
0
ENDTAB
0
ENDSEC
  0
SECTION
  2
BLOCKS
  0
ENDSEC
  0
SECTION
  2
ENTITIES
  0
LINE
   8
0
   6
CONTINUOUS
  62
7
  10
-60.000000
 20
-41.500000
 30
0.0000000000
 11
60.000000
 21
-41.500000
 31
0.0000000000
  0
LINE
   8
0
   6
CONTINUOUS
  62
7
  10
60.000000
 20
-41.500000
 30
0.0000000000
 11
60.000000
 21
-21.500000
 31
0.0000000000
  0
LINE
   8
0
   6
CONTINUOUS
  62
7
  10
60.000000
 20
-21.500000
 30
0.0000000000
 11
87.500000
 21
-21.500000
 31
0.0000000000
  0
LINE
   8
0
   6
CONTINUOUS
  62
7
  10
87.500000
 20
-21.500000
 30
0.0000000000
 11
92.500000
 21
-16.500000
 31
0.0000000000
  0
LINE
   8
0
   6
CONTINUOUS
  62
7
  10
92.500000
 20
-16.500000
 30
0.0000000000
 11
92.500000
 21
98.500000
 31
0.0000000000
  0
LINE
   8
0
   6
CONTINUOUS
  62
7
  10
92.500000
 20
98.500000
 30
0.0000000000
 11
85.100000
 21
98.500000
 31
0.0000000000
  0
LINE
   8
0
   6
CONTINUOUS
  62
7
  10
85.100000
 20
98.500000
 30
0.0000000000
 11
83.200000
 21
98.300000
 31
0.0000000000
  0
LINE
   8
0
   6
CONTINUOUS
  62
7
  10
83.200000
 20
98.300000
 30
0.0000000000
 11
81.400000
 21
97.800000
 31
0.0000000000
  0
LINE
   8
0
   6
CONTINUOUS
  62
7
  10
81.400000
 20
97.800000
 30
0.0000000000
 11
79.600000
 21
97.000000
 31
0.0000000000
  0
LINE
   8
0
   6
CONTINUOUS
  62
7
  10
79.600000
 20
97.000000
 30
0.0000000000
 11
78.100000
 21
95.900000
 31
0.0000000000
  0
LINE
   8
0
   6
CONTINUOUS
  62
7
  10
78.100000
 20
95.900000
 30
0.0000000000
 11
76.700000
 21
94.500000
 31
0.0000000000
  0
LINE
   8
0
   6
CONTINUOUS
  62
7
  10
76.700000
 20
94.500000
 30
0.0000000000
 11
66.500000
 21
82.400000
 31
0.0000000000
  0
LINE
   8
0
   6
CONTINUOUS
  62
7
  10
66.500000
 20
82.400000
 30
0.0000000000
 11
66.500000
 21
79.300000
 31
0.0000000000
  0
LINE
   8
0
   6
CONTINUOUS
  62
7
  10
66.500000
 20
79.300000
 30
0.0000000000
 11
0.000000
 21
0.000000
 31
0.0000000000
  0
LINE
   8
0
   6
CONTINUOUS
  62
7
  10
0.000000
 20
0.000000
 30
0.0000000000
 11
-66.500000
 21
79.300000
 31
0.0000000000
  0
LINE
   8
0
   6
CONTINUOUS
  62
7
  10
-66.500000
 20
79.300000
 30
0.0000000000
 11
-66.500000
 21
82.400000
 31
0.0000000000
  0
LINE
   8
0
   6
CONTINUOUS
  62
7
  10
-66.500000
 20
82.400000
 30
0.0000000000
 11
-76.700000
 21
94.500000
 31
0.0000000000
  0
LINE
   8
0
   6
CONTINUOUS
  62
7
  10
-76.700000
 20
94.500000
 30
0.0000000000
 11
-78.100000
 21
95.900000
 31
0.0000000000
  0
LINE
   8
0
   6
CONTINUOUS
  62
7
  10
-78.100000
 20
95.900000
 30
0.0000000000
 11
-79.600000
 21
97.000000
 31
0.0000000000
  0
LINE
   8
0
   6
CONTINUOUS
  62
7
  10
-79.600000
 20
97.000000
 30
0.0000000000
 11
-81.400000
 21
97.800000
 31
0.0000000000
  0
LINE
   8
0
   6
CONTINUOUS
  62
7
  10
-81.400000
 20
97.800000
 30
0.0000000000
 11
-83.200000
 21
98.300000
 31
0.0000000000
  0
LINE
   8
0
   6
CONTINUOUS
  62
7
  10
-83.200000
 20
98.300000
 30
0.0000000000
 11
-85.100000
 21
98.500000
 31
0.0000000000
  0
LINE
   8
0
   6
CONTINUOUS
  62
7
  10
-85.100000
 20
98.500000
 30
0.0000000000
 11
-92.500000
 21
98.500000
 31
0.0000000000
  0
LINE
   8
0
   6
CONTINUOUS
  62
7
  10
-92.500000
 20
98.500000
 30
0.0000000000
 11
-92.500000
 21
-16.500000
 31
0.0000000000
  0
LINE
   8
0
   6
CONTINUOUS
  62
7
  10
-92.500000
 20
-16.500000
 30
0.0000000000
 11
-87.500000
 21
-21.500000
 31
0.0000000000
  0
LINE
   8
0
   6
CONTINUOUS
  62
7
  10
-87.500000
 20
-21.500000
 30
0.0000000000
 11
-60.000000
 21
-21.500000
 31
0.0000000000
  0
LINE
   8
0
   6
CONTINUOUS
  62
7
  10
-60.000000
 20
-21.500000
 30
0.0000000000
 11
-60.000000
 21
-41.500000
 31
0.0000000000
   0
ENDSEC
   0
EOF