  0
SECTION
   2
HEADER
   9
$ACADVER
   1
AC1009
   0
ENDSEC
   0
SECTION
   2
TABLES
   0
TABLE
   2
LAYER
  70
     2
  0
LAYER
  2
LAYER123
 70
 0
62
 1
6
CONTINUOUS
0
ENDTAB
0
TABLE
2
LTYPE
70
 3
0
LTYPE
 2
CONTINUOUS
 70
 64
3
Solid line
 72
65
 73
0
 40
0
0
LTYPE
 2
CENTER
 70
  64
3
-- - -- - -- - --
 72
65
 73
4
 40
1.250
 49
0.500
 49
-0.250
 49
0.250
 49
-0.250
0
LTYPE
 2
DOT
 70
  64
3
. . . . . . .
 72
65
 73
2
 40
0.500
 49
0.000
 49
-0.500
0
LTYPE
 2
DASHDOT
 70
  64
3
-.-.-.-.-.-.-.
 72
65
 73
2
 40
0.500
 49
0.000
 49
-0.500
0
LTYPE
 2
DASHED
 70
  64
3
- - - - - -
 72
65
 73
2
 40
1.000
 49
0.500
 49
-0.500
0
ENDTAB
0
ENDSEC
  0
SECTION
  2
BLOCKS
  0
ENDSEC
  0
SECTION
  2
ENTITIES
  0
LINE
   8
0
   6
CONTINUOUS
  62
7
  10
-30.000000
 20
-57.270000
 30
0.0000000000
 11
30.000000
 21
-57.270000
 31
0.0000000000
  0
LINE
   8
0
   6
CONTINUOUS
  62
7
  10
30.000000
 20
-57.270000
 30
0.0000000000
 11
30.000000
 21
-39.270000
 31
0.0000000000
  0
LINE
   8
0
   6
CONTINUOUS
  62
7
  10
30.000000
 20
-39.270000
 30
0.0000000000
 11
32.000000
 21
-37.290000
 31
0.0000000000
  0
LINE
   8
0
   6
CONTINUOUS
  62
7
  10
32.000000
 20
-37.290000
 30
0.0000000000
 11
59.990000
 21
-37.290000
 31
0.0000000000
  0
LINE
   8
0
   6
CONTINUOUS
  62
7
  10
59.990000
 20
-37.290000
 30
0.0000000000
 11
59.990000
 21
52.730000
 31
0.0000000000
  0
LINE
   8
0
   6
CONTINUOUS
  62
7
  10
59.990000
 20
52.730000
 30
0.0000000000
 11
53.090000
 21
52.730000
 31
0.0000000000
  0
LINE
   8
0
   6
CONTINUOUS
  62
7
  10
53.090000
 20
52.730000
 30
0.0000000000
 11
51.640000
 21
52.580000
 31
0.0000000000
  0
LINE
   8
0
   6
CONTINUOUS
  62
7
  10
51.640000
 20
52.580000
 30
0.0000000000
 11
50.270000
 21
52.120000
 31
0.0000000000
  0
LINE
   8
0
   6
CONTINUOUS
  62
7
  10
50.270000
 20
52.120000
 30
0.0000000000
 11
49.000000
 21
51.410000
 31
0.0000000000
  0
LINE
   8
0
   6
CONTINUOUS
  62
7
  10
49.000000
 20
51.410000
 30
0.0000000000
 11
47.900000
 21
50.440000
 31
0.0000000000
  0
LINE
   8
0
   6
CONTINUOUS
  62
7
  10
47.900000
 20
50.440000
 30
0.0000000000
 11
41.000000
 21
42.900000
 31
0.0000000000
  0
LINE
   8
0
   6
CONTINUOUS
  62
7
  10
41.000000
 20
42.900000
 30
0.0000000000
 11
41.000000
 21
39.930000
 31
0.0000000000
  0
LINE
   8
0
   6
CONTINUOUS
  62
7
  10
41.000000
 20
39.930000
 30
0.0000000000
 11
7.370000
 21
3.250000
 31
0.0000000000
  0
LINE
   8
0
   6
CONTINUOUS
  62
7
  10
7.370000
 20
3.250000
 30
0.0000000000
 11
4.010000
 21
0.840000
 31
0.0000000000
  0
LINE
   8
0
   6
CONTINUOUS
  62
7
  10
4.010000
 20
0.840000
 30
0.0000000000
 11
0.000000
 21
0.000000
 31
0.0000000000
  0
LINE
   8
0
   6
CONTINUOUS
  62
7
  10
0.000000
 20
0.000000
 30
0.0000000000
 11
-4.040000
 21
0.840000
 31
0.0000000000
  0
LINE
   8
0
   6
CONTINUOUS
  62
7
  10
-4.040000
 20
0.840000
 30
0.0000000000
 11
-7.370000
 21
3.250000
 31
0.0000000000
  0
LINE
   8
0
   6
CONTINUOUS
  62
7
  10
-7.370000
 20
3.250000
 30
0.0000000000
 11
-41.000000
 21
39.930000
 31
0.0000000000
  0
LINE
   8
0
   6
CONTINUOUS
  62
7
  10
-41.000000
 20
39.930000
 30
0.0000000000
 11
-41.000000
 21
42.900000
 31
0.0000000000
  0
LINE
   8
0
   6
CONTINUOUS
  62
7
  10
-41.000000
 20
42.900000
 30
0.0000000000
 11
-47.930000
 21
50.440000
 31
0.0000000000
  0
LINE
   8
0
   6
CONTINUOUS
  62
7
  10
-47.930000
 20
50.440000
 30
0.0000000000
 11
-49.000000
 21
51.410000
 31
0.0000000000
  0
LINE
   8
0
   6
CONTINUOUS
  62
7
  10
-49.000000
 20
51.410000
 30
0.0000000000
 11
-50.270000
 21
52.120000
 31
0.0000000000
  0
LINE
   8
0
   6
CONTINUOUS
  62
7
  10
-50.270000
 20
52.120000
 30
0.0000000000
 11
-51.640000
 21
52.580000
 31
0.0000000000
  0
LINE
   8
0
   6
CONTINUOUS
  62
7
  10
-51.640000
 20
52.580000
 30
0.0000000000
 11
-53.090000
 21
52.730000
 31
0.0000000000
  0
LINE
   8
0
   6
CONTINUOUS
  62
7
  10
-53.090000
 20
52.730000
 30
0.0000000000
 11
-59.990000
 21
52.730000
 31
0.0000000000
  0
LINE
   8
0
   6
CONTINUOUS
  62
7
  10
-59.990000
 20
52.730000
 30
0.0000000000
 11
-59.990000
 21
-37.290000
 31
0.0000000000
  0
LINE
   8
0
   6
CONTINUOUS
  62
7
  10
-59.990000
 20
-37.290000
 30
0.0000000000
 11
-32.000000
 21
-37.290000
 31
0.0000000000
  0
LINE
   8
0
   6
CONTINUOUS
  62
7
  10
-32.000000
 20
-37.290000
 30
0.0000000000
 11
-30.000000
 21
-39.270000
 31
0.0000000000
  0
LINE
   8
0
   6
CONTINUOUS
  62
7
  10
-30.000000
 20
-39.270000
 30
0.0000000000
 11
-30.000000
 21
-57.270000
 31
0.0000000000
   0
ENDSEC
   0
EOF