  0
SECTION
   2
HEADER
   9
$ACADVER
   1
AC1009
   0
ENDSEC
   0
SECTION
   2
TABLES
   0
TABLE
   2
LAYER
  70
     2
  0
LAYER
  2
LAYER123
 70
 0
62
 1
6
CONTINUOUS
0
ENDTAB
0
TABLE
2
LTYPE
70
 3
0
LTYPE
 2
CONTINUOUS
 70
 64
3
Solid line
 72
65
 73
0
 40
0
0
LTYPE
 2
CENTER
 70
  64
3
-- - -- - -- - --
 72
65
 73
4
 40
1.250
 49
0.500
 49
-0.250
 49
0.250
 49
-0.250
0
LTYPE
 2
DOT
 70
  64
3
. . . . . . .
 72
65
 73
2
 40
0.500
 49
0.000
 49
-0.500
0
LTYPE
 2
DASHDOT
 70
  64
3
-.-.-.-.-.-.-.
 72
65
 73
2
 40
0.500
 49
0.000
 49
-0.500
0
LTYPE
 2
DASHED
 70
  64
3
- - - - - -
 72
65
 73
2
 40
1.000
 49
0.500
 49
-0.500
0
ENDTAB
0
ENDSEC
  0
SECTION
  2
BLOCKS
  0
ENDSEC
  0
SECTION
  2
ENTITIES
  0
LINE
   8
0
   6
CONTINUOUS
  62
7
  10
-30.000000
 20
-42.490000
 30
0.0000000000
 11
30.000000
 21
-42.490000
 31
0.0000000000
  0
LINE
   8
0
   6
CONTINUOUS
  62
7
  10
30.000000
 20
-42.490000
 30
0.0000000000
 11
30.000000
 21
17.500000
 31
0.0000000000
  0
LINE
   8
0
   6
CONTINUOUS
  62
7
  10
30.000000
 20
17.500000
 30
0.0000000000
 11
17.750000
 21
17.500000
 31
0.0000000000
  0
LINE
   8
0
   6
CONTINUOUS
  62
7
  10
17.750000
 20
17.500000
 30
0.0000000000
 11
16.940000
 21
17.420000
 31
0.0000000000
  0
LINE
   8
0
   6
CONTINUOUS
  62
7
  10
16.940000
 20
17.420000
 30
0.0000000000
 11
16.149000
 21
17.170000
 31
0.0000000000
  0
LINE
   8
0
   6
CONTINUOUS
  62
7
  10
16.149000
 20
17.170000
 30
0.0000000000
 11
15.420000
 21
16.760000
 31
0.0000000000
  0
LINE
   8
0
   6
CONTINUOUS
  62
7
  10
15.420000
 20
16.760000
 30
0.0000000000
 11
14.810000
 21
16.200000
 31
0.0000000000
  0
LINE
   8
0
   6
CONTINUOUS
  62
7
  10
14.810000
 20
16.200000
 30
0.0000000000
 11
11.990000
 21
13.130000
 31
0.0000000000
  0
LINE
   8
0
   6
CONTINUOUS
  62
7
  10
11.990000
 20
13.130000
 30
0.0000000000
 11
11.990000
 21
11.660000
 31
0.0000000000
  0
LINE
   8
0
   6
CONTINUOUS
  62
7
  10
11.990000
 20
11.660000
 30
0.0000000000
 11
2.210000
 21
0.990000
 31
0.0000000000
  0
LINE
   8
0
   6
CONTINUOUS
  62
7
  10
2.210000
 20
0.990000
 30
0.0000000000
 11
1.190000
 21
0.250000
 31
0.0000000000
  0
LINE
   8
0
   6
CONTINUOUS
  62
7
  10
1.190000
 20
0.250000
 30
0.0000000000
 11
0.000000
 21
0.000000
 31
0.0000000000
  0
LINE
   8
0
   6
CONTINUOUS
  62
7
  10
0.000000
 20
0.000000
 30
0.0000000000
 11
-1.220000
 21
0.250000
 31
0.0000000000
  0
LINE
   8
0
   6
CONTINUOUS
  62
7
  10
-1.220000
 20
0.250000
 30
0.0000000000
 11
-2.210000
 21
0.990000
 31
0.0000000000
  0
LINE
   8
0
   6
CONTINUOUS
  62
7
  10
-2.210000
 20
0.990000
 30
0.0000000000
 11
-12.010000
 21
11.660000
 31
0.0000000000
  0
LINE
   8
0
   6
CONTINUOUS
  62
7
  10
-12.010000
 20
11.660000
 30
0.0000000000
 11
-12.010000
 21
13.130000
 31
0.0000000000
  0
LINE
   8
0
   6
CONTINUOUS
  62
7
  10
-12.010000
 20
13.130000
 30
0.0000000000
 11
-14.810000
 21
16.200000
 31
0.0000000000
  0
LINE
   8
0
   6
CONTINUOUS
  62
7
  10
-14.810000
 20
16.200000
 30
0.0000000000
 11
-15.440000
 21
16.760000
 31
0.0000000000
  0
LINE
   8
0
   6
CONTINUOUS
  62
7
  10
-15.440000
 20
16.760000
 30
0.0000000000
 11
-16.149000
 21
17.170000
 31
0.0000000000
  0
LINE
   8
0
   6
CONTINUOUS
  62
7
  10
-16.149000
 20
17.170000
 30
0.0000000000
 11
-16.940000
 21
17.420000
 31
0.0000000000
  0
LINE
   8
0
   6
CONTINUOUS
  62
7
  10
-16.940000
 20
17.420000
 30
0.0000000000
 11
-17.750000
 21
17.500000
 31
0.0000000000
  0
LINE
   8
0
   6
CONTINUOUS
  62
7
  10
-17.750000
 20
17.500000
 30
0.0000000000
 11
-30.000000
 21
17.500000
 31
0.0000000000
  0
LINE
   8
0
   6
CONTINUOUS
  62
7
  10
-30.000000
 20
17.500000
 30
0.0000000000
 11
-30.000000
 21
-42.490000
 31
0.0000000000
   0
ENDSEC
   0
EOF