  0
SECTION
   2
HEADER
   9
$ACADVER
   1
AC1009
   0
ENDSEC
   0
SECTION
   2
TABLES
   0
TABLE
   2
LAYER
  70
     2
  0
LAYER
  2
LAYER123
 70
 0
62
 1
6
CONTINUOUS
0
ENDTAB
0
TABLE
2
LTYPE
70
 3
0
LTYPE
 2
CONTINUOUS
 70
 64
3
Solid line
 72
65
 73
0
 40
0
0
LTYPE
 2
CENTER
 70
  64
3
-- - -- - -- - --
 72
65
 73
4
 40
1.250
 49
0.500
 49
-0.250
 49
0.250
 49
-0.250
0
LTYPE
 2
DOT
 70
  64
3
. . . . . . .
 72
65
 73
2
 40
0.500
 49
0.000
 49
-0.500
0
LTYPE
 2
DASHDOT
 70
  64
3
-.-.-.-.-.-.-.
 72
65
 73
2
 40
0.500
 49
0.000
 49
-0.500
0
LTYPE
 2
DASHED
 70
  64
3
- - - - - -
 72
65
 73
2
 40
1.000
 49
0.500
 49
-0.500
0
ENDTAB
0
ENDSEC
  0
SECTION
  2
BLOCKS
  0
ENDSEC
  0
SECTION
  2
ENTITIES
  0
LINE
   8
0
   6
CONTINUOUS
  62
7
  10
-30.020000
 20
-38.610000
 30
0.0000000000
 11
29.970000
 21
-38.610000
 31
0.0000000000
  0
LINE
   8
0
   6
CONTINUOUS
  62
7
  10
29.970000
 20
-38.610000
 30
0.0000000000
 11
29.970000
 21
21.390000
 31
0.0000000000
  0
LINE
   8
0
   6
CONTINUOUS
  62
7
  10
29.970000
 20
21.390000
 30
0.0000000000
 11
21.740000
 21
21.390000
 31
0.0000000000
  0
LINE
   8
0
   6
CONTINUOUS
  62
7
  10
21.740000
 20
21.390000
 30
0.0000000000
 11
20.900000
 21
21.310000
 31
0.0000000000
  0
LINE
   8
0
   6
CONTINUOUS
  62
7
  10
20.900000
 20
21.310000
 30
0.0000000000
 11
20.120000
 21
21.060000
 31
0.0000000000
  0
LINE
   8
0
   6
CONTINUOUS
  62
7
  10
20.120000
 20
21.060000
 30
0.0000000000
 11
19.410000
 21
20.650000
 31
0.0000000000
  0
LINE
   8
0
   6
CONTINUOUS
  62
7
  10
19.410000
 20
20.650000
 30
0.0000000000
 11
18.770000
 21
20.090000
 31
0.0000000000
  0
LINE
   8
0
   6
CONTINUOUS
  62
7
  10
18.770000
 20
20.090000
 30
0.0000000000
 11
15.980000
 21
17.020000
 31
0.0000000000
  0
LINE
   8
0
   6
CONTINUOUS
  62
7
  10
15.980000
 20
17.020000
 30
0.0000000000
 11
15.980000
 21
15.550000
 31
0.0000000000
  0
LINE
   8
0
   6
CONTINUOUS
  62
7
  10
15.980000
 20
15.550000
 30
0.0000000000
 11
2.920000
 21
1.290000
 31
0.0000000000
  0
LINE
   8
0
   6
CONTINUOUS
  62
7
  10
2.920000
 20
1.290000
 30
0.0000000000
 11
1.580000
 21
0.360000
 31
0.0000000000
  0
LINE
   8
0
   6
CONTINUOUS
  62
7
  10
1.580000
 20
0.360000
 30
0.0000000000
 11
-0.030000
 21
0.000000
 31
0.0000000000
  0
LINE
   8
0
   6
CONTINUOUS
  62
7
  10
-0.030000
 20
0.000000
 30
0.0000000000
 11
-1.650000
 21
0.360000
 31
0.0000000000
  0
LINE
   8
0
   6
CONTINUOUS
  62
7
  10
-1.650000
 20
0.360000
 30
0.0000000000
 11
-2.970000
 21
1.290000
 31
0.0000000000
  0
LINE
   8
0
   6
CONTINUOUS
  62
7
  10
-2.970000
 20
1.290000
 30
0.0000000000
 11
-16.030000
 21
15.550000
 31
0.0000000000
  0
LINE
   8
0
   6
CONTINUOUS
  62
7
  10
-16.030000
 20
15.550000
 30
0.0000000000
 11
-16.030000
 21
17.020000
 31
0.0000000000
  0
LINE
   8
0
   6
CONTINUOUS
  62
7
  10
-16.030000
 20
17.020000
 30
0.0000000000
 11
-18.850000
 21
20.090000
 31
0.0000000000
  0
LINE
   8
0
   6
CONTINUOUS
  62
7
  10
-18.850000
 20
20.090000
 30
0.0000000000
 11
-19.460000
 21
20.650000
 31
0.0000000000
  0
LINE
   8
0
   6
CONTINUOUS
  62
7
  10
-19.460000
 20
20.650000
 30
0.0000000000
 11
-20.170000
 21
21.060000
 31
0.0000000000
  0
LINE
   8
0
   6
CONTINUOUS
  62
7
  10
-20.170000
 20
21.060000
 30
0.0000000000
 11
-20.950000
 21
21.310000
 31
0.0000000000
  0
LINE
   8
0
   6
CONTINUOUS
  62
7
  10
-20.950000
 20
21.310000
 30
0.0000000000
 11
-21.770000
 21
21.390000
 31
0.0000000000
  0
LINE
   8
0
   6
CONTINUOUS
  62
7
  10
-21.770000
 20
21.390000
 30
0.0000000000
 11
-30.020000
 21
21.390000
 31
0.0000000000
  0
LINE
   8
0
   6
CONTINUOUS
  62
7
  10
-30.020000
 20
21.390000
 30
0.0000000000
 11
-30.020000
 21
-38.610000
 31
0.0000000000
   0
ENDSEC
   0
EOF