  0
SECTION
   2
HEADER
   9
$ACADVER
   1
AC1009
   0
ENDSEC
   0
SECTION
   2
TABLES
   0
TABLE
   2
LAYER
  70
     2
  0
LAYER
  2
LAYER123
 70
 0
62
 1
6
CONTINUOUS
0
ENDTAB
0
TABLE
2
LTYPE
70
 3
0
LTYPE
 2
CONTINUOUS
 70
 64
3
Solid line
 72
65
 73
0
 40
0
0
LTYPE
 2
CENTER
 70
  64
3
-- - -- - -- - --
 72
65
 73
4
 40
1.250
 49
0.500
 49
-0.250
 49
0.250
 49
-0.250
0
LTYPE
 2
DOT
 70
  64
3
. . . . . . .
 72
65
 73
2
 40
0.500
 49
0.000
 49
-0.500
0
LTYPE
 2
DASHDOT
 70
  64
3
-.-.-.-.-.-.-.
 72
65
 73
2
 40
0.500
 49
0.000
 49
-0.500
0
LTYPE
 2
DASHED
 70
  64
3
- - - - - -
 72
65
 73
2
 40
1.000
 49
0.500
 49
-0.500
0
ENDTAB
0
ENDSEC
  0
SECTION
  2
BLOCKS
  0
ENDSEC
  0
SECTION
  2
ENTITIES
  0
LINE
   8
0
   6
CONTINUOUS
  62
7
  10
-30.000000
 20
-33.630000
 30
0.0000000000
 11
30.000000
 21
-33.630000
 31
0.0000000000
  0
LINE
   8
0
   6
CONTINUOUS
  62
7
  10
30.000000
 20
-33.630000
 30
0.0000000000
 11
30.000000
 21
26.360000
 31
0.0000000000
  0
LINE
   8
0
   6
CONTINUOUS
  62
7
  10
30.000000
 20
26.360000
 30
0.0000000000
 11
26.750000
 21
26.360000
 31
0.0000000000
  0
LINE
   8
0
   6
CONTINUOUS
  62
7
  10
26.750000
 20
26.360000
 30
0.0000000000
 11
25.930000
 21
26.290000
 31
0.0000000000
  0
LINE
   8
0
   6
CONTINUOUS
  62
7
  10
25.930000
 20
26.290000
 30
0.0000000000
 11
25.150000
 21
26.040000
 31
0.0000000000
  0
LINE
   8
0
   6
CONTINUOUS
  62
7
  10
25.150000
 20
26.040000
 30
0.0000000000
 11
24.430000
 21
25.630000
 31
0.0000000000
  0
LINE
   8
0
   6
CONTINUOUS
  62
7
  10
24.430000
 20
25.630000
 30
0.0000000000
 11
23.800000
 21
25.070000
 31
0.0000000000
  0
LINE
   8
0
   6
CONTINUOUS
  62
7
  10
23.800000
 20
25.070000
 30
0.0000000000
 11
19.990000
 21
20.900000
 31
0.0000000000
  0
LINE
   8
0
   6
CONTINUOUS
  62
7
  10
19.990000
 20
20.900000
 30
0.0000000000
 11
19.990000
 21
19.430000
 31
0.0000000000
  0
LINE
   8
0
   6
CONTINUOUS
  62
7
  10
19.990000
 20
19.430000
 30
0.0000000000
 11
3.680000
 21
1.630000
 31
0.0000000000
  0
LINE
   8
0
   6
CONTINUOUS
  62
7
  10
3.680000
 20
1.630000
 30
0.0000000000
 11
2.009000
 21
0.430000
 31
0.0000000000
  0
LINE
   8
0
   6
CONTINUOUS
  62
7
  10
2.009000
 20
0.430000
 30
0.0000000000
 11
0.000000
 21
0.000000
 31
0.0000000000
  0
LINE
   8
0
   6
CONTINUOUS
  62
7
  10
0.000000
 20
0.000000
 30
0.0000000000
 11
-2.009000
 21
0.430000
 31
0.0000000000
  0
LINE
   8
0
   6
CONTINUOUS
  62
7
  10
-2.009000
 20
0.430000
 30
0.0000000000
 11
-3.680000
 21
1.630000
 31
0.0000000000
  0
LINE
   8
0
   6
CONTINUOUS
  62
7
  10
-3.680000
 20
1.630000
 30
0.0000000000
 11
-20.020000
 21
19.430000
 31
0.0000000000
  0
LINE
   8
0
   6
CONTINUOUS
  62
7
  10
-20.020000
 20
19.430000
 30
0.0000000000
 11
-20.020000
 21
20.900000
 31
0.0000000000
  0
LINE
   8
0
   6
CONTINUOUS
  62
7
  10
-20.020000
 20
20.900000
 30
0.0000000000
 11
-23.820000
 21
25.070000
 31
0.0000000000
  0
LINE
   8
0
   6
CONTINUOUS
  62
7
  10
-23.820000
 20
25.070000
 30
0.0000000000
 11
-24.430000
 21
25.630000
 31
0.0000000000
  0
LINE
   8
0
   6
CONTINUOUS
  62
7
  10
-24.430000
 20
25.630000
 30
0.0000000000
 11
-25.150000
 21
26.040000
 31
0.0000000000
  0
LINE
   8
0
   6
CONTINUOUS
  62
7
  10
-25.150000
 20
26.040000
 30
0.0000000000
 11
-25.930000
 21
26.290000
 31
0.0000000000
  0
LINE
   8
0
   6
CONTINUOUS
  62
7
  10
-25.930000
 20
26.290000
 30
0.0000000000
 11
-26.770000
 21
26.360000
 31
0.0000000000
  0
LINE
   8
0
   6
CONTINUOUS
  62
7
  10
-26.770000
 20
26.360000
 30
0.0000000000
 11
-30.000000
 21
26.360000
 31
0.0000000000
  0
LINE
   8
0
   6
CONTINUOUS
  62
7
  10
-30.000000
 20
26.360000
 30
0.0000000000
 11
-30.000000
 21
-33.630000
 31
0.0000000000
   0
ENDSEC
   0
EOF