  0
SECTION
   2
HEADER
   9
$ACADVER
   1
AC1009
   0
ENDSEC
   0
SECTION
   2
TABLES
   0
TABLE
   2
LAYER
  70
     2
  0
LAYER
  2
LAYER123
 70
 0
62
 1
6
CONTINUOUS
0
ENDTAB
0
TABLE
2
LTYPE
70
 3
0
LTYPE
 2
CONTINUOUS
 70
 64
3
Solid line
 72
65
 73
0
 40
0
0
LTYPE
 2
CENTER
 70
  64
3
-- - -- - -- - --
 72
65
 73
4
 40
1.250
 49
0.500
 49
-0.250
 49
0.250
 49
-0.250
0
LTYPE
 2
DOT
 70
  64
3
. . . . . . .
 72
65
 73
2
 40
0.500
 49
0.000
 49
-0.500
0
LTYPE
 2
DASHDOT
 70
  64
3
-.-.-.-.-.-.-.
 72
65
 73
2
 40
0.500
 49
0.000
 49
-0.500
0
LTYPE
 2
DASHED
 70
  64
3
- - - - - -
 72
65
 73
2
 40
1.000
 49
0.500
 49
-0.500
0
ENDTAB
0
ENDSEC
  0
SECTION
  2
BLOCKS
  0
ENDSEC
  0
SECTION
  2
ENTITIES
  0
LINE
   8
0
   6
CONTINUOUS
  62
7
  10
-30.000000
 20
-42.030000
 30
0.0000000000
 11
30.000000
 21
-42.030000
 31
0.0000000000
  0
LINE
   8
0
   6
CONTINUOUS
  62
7
  10
30.000000
 20
-42.030000
 30
0.0000000000
 11
30.000000
 21
-22.050000
 31
0.0000000000
  0
LINE
   8
0
   6
CONTINUOUS
  62
7
  10
30.000000
 20
-22.050000
 30
0.0000000000
 11
40.010000
 21
-22.050000
 31
0.0000000000
  0
LINE
   8
0
   6
CONTINUOUS
  62
7
  10
40.010000
 20
-22.050000
 30
0.0000000000
 11
40.010000
 21
32.970000
 31
0.0000000000
  0
LINE
   8
0
   6
CONTINUOUS
  62
7
  10
40.010000
 20
32.970000
 30
0.0000000000
 11
33.710000
 21
32.970000
 31
0.0000000000
  0
LINE
   8
0
   6
CONTINUOUS
  62
7
  10
33.710000
 20
32.970000
 30
0.0000000000
 11
32.659000
 21
32.870000
 31
0.0000000000
  0
LINE
   8
0
   6
CONTINUOUS
  62
7
  10
32.659000
 20
32.870000
 30
0.0000000000
 11
31.700000
 21
32.540000
 31
0.0000000000
  0
LINE
   8
0
   6
CONTINUOUS
  62
7
  10
31.700000
 20
32.540000
 30
0.0000000000
 11
30.790000
 21
32.030000
 31
0.0000000000
  0
LINE
   8
0
   6
CONTINUOUS
  62
7
  10
30.790000
 20
32.030000
 30
0.0000000000
 11
30.020000
 21
31.340000
 31
0.0000000000
  0
LINE
   8
0
   6
CONTINUOUS
  62
7
  10
30.020000
 20
31.340000
 30
0.0000000000
 11
26.520000
 21
27.510000
 31
0.0000000000
  0
LINE
   8
0
   6
CONTINUOUS
  62
7
  10
26.520000
 20
27.510000
 30
0.0000000000
 11
26.520000
 21
26.040000
 31
0.0000000000
  0
LINE
   8
0
   6
CONTINUOUS
  62
7
  10
26.520000
 20
26.040000
 30
0.0000000000
 11
4.420000
 21
1.930000
 31
0.0000000000
  0
LINE
   8
0
   6
CONTINUOUS
  62
7
  10
4.420000
 20
1.930000
 30
0.0000000000
 11
2.410000
 21
0.510000
 31
0.0000000000
  0
LINE
   8
0
   6
CONTINUOUS
  62
7
  10
2.410000
 20
0.510000
 30
0.0000000000
 11
0.000000
 21
0.000000
 31
0.0000000000
  0
LINE
   8
0
   6
CONTINUOUS
  62
7
  10
0.000000
 20
0.000000
 30
0.0000000000
 11
-2.410000
 21
0.510000
 31
0.0000000000
  0
LINE
   8
0
   6
CONTINUOUS
  62
7
  10
-2.410000
 20
0.510000
 30
0.0000000000
 11
-4.420000
 21
1.930000
 31
0.0000000000
  0
LINE
   8
0
   6
CONTINUOUS
  62
7
  10
-4.420000
 20
1.930000
 30
0.0000000000
 11
-26.490000
 21
26.040000
 31
0.0000000000
  0
LINE
   8
0
   6
CONTINUOUS
  62
7
  10
-26.490000
 20
26.040000
 30
0.0000000000
 11
-26.490000
 21
27.510000
 31
0.0000000000
  0
LINE
   8
0
   6
CONTINUOUS
  62
7
  10
-26.490000
 20
27.510000
 30
0.0000000000
 11
-30.000000
 21
31.340000
 31
0.0000000000
  0
LINE
   8
0
   6
CONTINUOUS
  62
7
  10
-30.000000
 20
31.340000
 30
0.0000000000
 11
-30.790000
 21
32.030000
 31
0.0000000000
  0
LINE
   8
0
   6
CONTINUOUS
  62
7
  10
-30.790000
 20
32.030000
 30
0.0000000000
 11
-31.670000
 21
32.540000
 31
0.0000000000
  0
LINE
   8
0
   6
CONTINUOUS
  62
7
  10
-31.670000
 20
32.540000
 30
0.0000000000
 11
-32.659000
 21
32.870000
 31
0.0000000000
  0
LINE
   8
0
   6
CONTINUOUS
  62
7
  10
-32.659000
 20
32.870000
 30
0.0000000000
 11
-33.710000
 21
32.970000
 31
0.0000000000
  0
LINE
   8
0
   6
CONTINUOUS
  62
7
  10
-33.710000
 20
32.970000
 30
0.0000000000
 11
-40.010000
 21
32.970000
 31
0.0000000000
  0
LINE
   8
0
   6
CONTINUOUS
  62
7
  10
-40.010000
 20
32.970000
 30
0.0000000000
 11
-40.010000
 21
-22.050000
 31
0.0000000000
  0
LINE
   8
0
   6
CONTINUOUS
  62
7
  10
-40.010000
 20
-22.050000
 30
0.0000000000
 11
-30.000000
 21
-22.050000
 31
0.0000000000
  0
LINE
   8
0
   6
CONTINUOUS
  62
7
  10
-30.000000
 20
-22.050000
 30
0.0000000000
 11
-30.000000
 21
-42.030000
 31
0.0000000000
   0
ENDSEC
   0
EOF