  0
SECTION
   2
HEADER
   9
$ACADVER
   1
AC1009
   0
ENDSEC
   0
SECTION
   2
TABLES
   0
TABLE
   2
LAYER
  70
     2
  0
LAYER
  2
LAYER123
 70
 0
62
 1
6
CONTINUOUS
0
ENDTAB
0
TABLE
2
LTYPE
70
 3
0
LTYPE
 2
CONTINUOUS
 70
 64
3
Solid line
 72
65
 73
0
 40
0
0
LTYPE
 2
CENTER
 70
  64
3
-- - -- - -- - --
 72
65
 73
4
 40
1.250
 49
0.500
 49
-0.250
 49
0.250
 49
-0.250
0
LTYPE
 2
DOT
 70
  64
3
. . . . . . .
 72
65
 73
2
 40
0.500
 49
0.000
 49
-0.500
0
LTYPE
 2
DASHDOT
 70
  64
3
-.-.-.-.-.-.-.
 72
65
 73
2
 40
0.500
 49
0.000
 49
-0.500
0
LTYPE
 2
DASHED
 70
  64
3
- - - - - -
 72
65
 73
2
 40
1.000
 49
0.500
 49
-0.500
0
ENDTAB
0
ENDSEC
  0
SECTION
  2
BLOCKS
  0
ENDSEC
  0
SECTION
  2
ENTITIES
  0
LINE
   8
0
   6
CONTINUOUS
  62
7
  10
-45.010000
 20
-63.200000
 30
0.0000000000
 11
44.980000
 21
-63.200000
 31
0.0000000000
  0
LINE
   8
0
   6
CONTINUOUS
  62
7
  10
44.980000
 20
-63.200000
 30
0.0000000000
 11
44.980000
 21
-45.190000
 31
0.0000000000
  0
LINE
   8
0
   6
CONTINUOUS
  62
7
  10
44.980000
 20
-45.190000
 30
0.0000000000
 11
46.990000
 21
-43.200000
 31
0.0000000000
  0
LINE
   8
0
   6
CONTINUOUS
  62
7
  10
46.990000
 20
-43.200000
 30
0.0000000000
 11
76.990000
 21
-43.200000
 31
0.0000000000
  0
LINE
   8
0
   6
CONTINUOUS
  62
7
  10
76.990000
 20
-43.200000
 30
0.0000000000
 11
76.990000
 21
59.800000
 31
0.0000000000
  0
LINE
   8
0
   6
CONTINUOUS
  62
7
  10
76.990000
 20
59.800000
 30
0.0000000000
 11
66.670000
 21
59.800000
 31
0.0000000000
  0
LINE
   8
0
   6
CONTINUOUS
  62
7
  10
66.670000
 20
59.800000
 30
0.0000000000
 11
64.750000
 21
59.590000
 31
0.0000000000
  0
LINE
   8
0
   6
CONTINUOUS
  62
7
  10
64.750000
 20
59.590000
 30
0.0000000000
 11
62.890000
 21
58.950000
 31
0.0000000000
  0
LINE
   8
0
   6
CONTINUOUS
  62
7
  10
62.890000
 20
58.950000
 30
0.0000000000
 11
61.210000
 21
57.940000
 31
0.0000000000
  0
LINE
   8
0
   6
CONTINUOUS
  62
7
  10
61.210000
 20
57.940000
 30
0.0000000000
 11
59.790000
 21
56.590000
 31
0.0000000000
  0
LINE
   8
0
   6
CONTINUOUS
  62
7
  10
59.790000
 20
56.590000
 30
0.0000000000
 11
51.990000
 21
47.300000
 31
0.0000000000
  0
LINE
   8
0
   6
CONTINUOUS
  62
7
  10
51.990000
 20
47.300000
 30
0.0000000000
 11
51.990000
 21
44.170000
 31
0.0000000000
  0
LINE
   8
0
   6
CONTINUOUS
  62
7
  10
51.990000
 20
44.170000
 30
0.0000000000
 11
24.510000
 21
11.430000
 31
0.0000000000
  0
LINE
   8
0
   6
CONTINUOUS
  62
7
  10
24.510000
 20
11.430000
 30
0.0000000000
 11
13.510000
 21
3.000000
 31
0.0000000000
  0
LINE
   8
0
   6
CONTINUOUS
  62
7
  10
13.510000
 20
3.000000
 30
0.0000000000
 11
0.000000
 21
0.000000
 31
0.0000000000
  0
LINE
   8
0
   6
CONTINUOUS
  62
7
  10
0.000000
 20
0.000000
 30
0.0000000000
 11
-13.540000
 21
3.000000
 31
0.0000000000
  0
LINE
   8
0
   6
CONTINUOUS
  62
7
  10
-13.540000
 20
3.000000
 30
0.0000000000
 11
-24.540000
 21
11.430000
 31
0.0000000000
  0
LINE
   8
0
   6
CONTINUOUS
  62
7
  10
-24.540000
 20
11.430000
 30
0.0000000000
 11
-52.020000
 21
44.170000
 31
0.0000000000
  0
LINE
   8
0
   6
CONTINUOUS
  62
7
  10
-52.020000
 20
44.170000
 30
0.0000000000
 11
-52.020000
 21
47.300000
 31
0.0000000000
  0
LINE
   8
0
   6
CONTINUOUS
  62
7
  10
-52.020000
 20
47.300000
 30
0.0000000000
 11
-59.820000
 21
56.590000
 31
0.0000000000
  0
LINE
   8
0
   6
CONTINUOUS
  62
7
  10
-59.820000
 20
56.590000
 30
0.0000000000
 11
-61.240000
 21
57.940000
 31
0.0000000000
  0
LINE
   8
0
   6
CONTINUOUS
  62
7
  10
-61.240000
 20
57.940000
 30
0.0000000000
 11
-62.920000
 21
58.950000
 31
0.0000000000
  0
LINE
   8
0
   6
CONTINUOUS
  62
7
  10
-62.920000
 20
58.950000
 30
0.0000000000
 11
-64.769000
 21
59.590000
 31
0.0000000000
  0
LINE
   8
0
   6
CONTINUOUS
  62
7
  10
-64.769000
 20
59.590000
 30
0.0000000000
 11
-66.700000
 21
59.800000
 31
0.0000000000
  0
LINE
   8
0
   6
CONTINUOUS
  62
7
  10
-66.700000
 20
59.800000
 30
0.0000000000
 11
-77.010000
 21
59.800000
 31
0.0000000000
  0
LINE
   8
0
   6
CONTINUOUS
  62
7
  10
-77.010000
 20
59.800000
 30
0.0000000000
 11
-77.010000
 21
-43.200000
 31
0.0000000000
  0
LINE
   8
0
   6
CONTINUOUS
  62
7
  10
-77.010000
 20
-43.200000
 30
0.0000000000
 11
-47.020000
 21
-43.200000
 31
0.0000000000
  0
LINE
   8
0
   6
CONTINUOUS
  62
7
  10
-47.020000
 20
-43.200000
 30
0.0000000000
 11
-45.010000
 21
-45.190000
 31
0.0000000000
  0
LINE
   8
0
   6
CONTINUOUS
  62
7
  10
-45.010000
 20
-45.190000
 30
0.0000000000
 11
-45.010000
 21
-63.200000
 31
0.0000000000
   0
ENDSEC
   0
EOF