  0
SECTION
   2
HEADER
   9
$ACADVER
   1
AC1009
   0
ENDSEC
   0
SECTION
   2
TABLES
   0
TABLE
   2
LAYER
  70
     2
  0
LAYER
  2
LAYER123
 70
 0
62
 1
6
CONTINUOUS
0
ENDTAB
0
TABLE
2
LTYPE
70
 3
0
LTYPE
 2
CONTINUOUS
 70
 64
3
Solid line
 72
65
 73
0
 40
0
0
LTYPE
 2
CENTER
 70
  64
3
-- - -- - -- - --
 72
65
 73
4
 40
1.250
 49
0.500
 49
-0.250
 49
0.250
 49
-0.250
0
LTYPE
 2
DOT
 70
  64
3
. . . . . . .
 72
65
 73
2
 40
0.500
 49
0.000
 49
-0.500
0
LTYPE
 2
DASHDOT
 70
  64
3
-.-.-.-.-.-.-.
 72
65
 73
2
 40
0.500
 49
0.000
 49
-0.500
0
LTYPE
 2
DASHED
 70
  64
3
- - - - - -
 72
65
 73
2
 40
1.000
 49
0.500
 49
-0.500
0
ENDTAB
0
ENDSEC
  0
SECTION
  2
BLOCKS
  0
ENDSEC
  0
SECTION
  2
ENTITIES
  0
LINE
   8
0
   6
CONTINUOUS
  62
7
  10
0.000000
 20
0.000000
 30
0.0000000000
 11
6.250000
 21
6.470000
 31
0.0000000000
  0
LINE
   8
0
   6
CONTINUOUS
  62
7
  10
6.250000
 20
6.470000
 30
0.0000000000
 11
-31.690000
 21
70.340000
 31
0.0000000000
  0
LINE
   8
0
   6
CONTINUOUS
  62
7
  10
-31.690000
 20
70.340000
 30
0.0000000000
 11
-33.700000
 21
77.840000
 31
0.0000000000
  0
LINE
   8
0
   6
CONTINUOUS
  62
7
  10
-33.700000
 20
77.840000
 30
0.0000000000
 11
-31.690000
 21
85.340000
 31
0.0000000000
  0
LINE
   8
0
   6
CONTINUOUS
  62
7
  10
-31.690000
 20
85.340000
 30
0.0000000000
 11
-26.200000
 21
90.830000
 31
0.0000000000
  0
LINE
   8
0
   6
CONTINUOUS
  62
7
  10
-26.200000
 20
90.830000
 30
0.0000000000
 11
7.000000
 21
110.000000
 31
0.0000000000
  0
LINE
   8
0
   6
CONTINUOUS
  62
7
  10
7.000000
 20
110.000000
 30
0.0000000000
 11
7.000000
 21
120.000000
 31
0.0000000000
  0
LINE
   8
0
   6
CONTINUOUS
  62
7
  10
7.000000
 20
120.000000
 30
0.0000000000
 11
-7.000000
 21
120.000000
 31
0.0000000000
  0
LINE
   8
0
   6
CONTINUOUS
  62
7
  10
-7.000000
 20
120.000000
 30
0.0000000000
 11
-7.000000
 21
150.000000
 31
0.0000000000
  0
LINE
   8
0
   6
CONTINUOUS
  62
7
  10
-7.000000
 20
150.000000
 30
0.0000000000
 11
-20.000000
 21
150.000000
 31
0.0000000000
  0
LINE
   8
0
   6
CONTINUOUS
  62
7
  10
-20.000000
 20
150.000000
 30
0.0000000000
 11
-20.000000
 21
120.000000
 31
0.0000000000
  0
LINE
   8
0
   6
CONTINUOUS
  62
7
  10
-20.000000
 20
120.000000
 30
0.0000000000
 11
-47.390000
 21
120.000000
 31
0.0000000000
  0
LINE
   8
0
   6
CONTINUOUS
  62
7
  10
-47.390000
 20
120.000000
 30
0.0000000000
 11
-57.390000
 21
110.000000
 31
0.0000000000
  0
LINE
   8
0
   6
CONTINUOUS
  62
7
  10
-57.390000
 20
110.000000
 30
0.0000000000
 11
-57.390000
 21
60.820000
 31
0.0000000000
  0
LINE
   8
0
   6
CONTINUOUS
  62
7
  10
-57.390000
 20
60.820000
 30
0.0000000000
 11
-5.530000
 21
7.170000
 31
0.0000000000
  0
LINE
   8
0
   6
CONTINUOUS
  62
7
  10
-5.530000
 20
7.170000
 30
0.0000000000
 11
-6.250000
 21
6.470000
 31
0.0000000000
  0
LINE
   8
0
   6
CONTINUOUS
  62
7
  10
-6.250000
 20
6.470000
 30
0.0000000000
 11
0.000000
 21
0.000000
 31
0.0000000000
   0
ENDSEC
   0
EOF