  0
SECTION
   2
HEADER
   9
$ACADVER
   1
AC1009
   0
ENDSEC
   0
SECTION
   2
TABLES
   0
TABLE
   2
LAYER
  70
     2
  0
LAYER
  2
LAYER123
 70
 0
62
 1
6
CONTINUOUS
0
ENDTAB
0
TABLE
2
LTYPE
70
 3
0
LTYPE
 2
CONTINUOUS
 70
 64
3
Solid line
 72
65
 73
0
 40
0
0
LTYPE
 2
CENTER
 70
  64
3
-- - -- - -- - --
 72
65
 73
4
 40
1.250
 49
0.500
 49
-0.250
 49
0.250
 49
-0.250
0
LTYPE
 2
DOT
 70
  64
3
. . . . . . .
 72
65
 73
2
 40
0.500
 49
0.000
 49
-0.500
0
LTYPE
 2
DASHDOT
 70
  64
3
-.-.-.-.-.-.-.
 72
65
 73
2
 40
0.500
 49
0.000
 49
-0.500
0
LTYPE
 2
DASHED
 70
  64
3
- - - - - -
 72
65
 73
2
 40
1.000
 49
0.500
 49
-0.500
0
ENDTAB
0
ENDSEC
  0
SECTION
  2
BLOCKS
  0
ENDSEC
  0
SECTION
  2
ENTITIES
  0
LINE
   8
0
   6
CONTINUOUS
  62
7
  10
-30.000000
 20
0.000000
 30
0.0000000000
 11
30.000000
 21
0.000000
 31
0.0000000000
  0
LINE
   8
0
   6
CONTINUOUS
  62
7
  10
30.000000
 20
0.000000
 30
0.0000000000
 11
30.000000
 21
20.000000
 31
0.0000000000
  0
LINE
   8
0
   6
CONTINUOUS
  62
7
  10
30.000000
 20
20.000000
 30
0.0000000000
 11
37.000000
 21
20.000000
 31
0.0000000000
  0
LINE
   8
0
   6
CONTINUOUS
  62
7
  10
37.000000
 20
20.000000
 30
0.0000000000
 11
47.000000
 21
37.000000
 31
0.0000000000
  0
LINE
   8
0
   6
CONTINUOUS
  62
7
  10
47.000000
 20
37.000000
 30
0.0000000000
 11
47.000000
 21
53.000000
 31
0.0000000000
  0
LINE
   8
0
   6
CONTINUOUS
  62
7
  10
47.000000
 20
53.000000
 30
0.0000000000
 11
37.000000
 21
70.000000
 31
0.0000000000
  0
LINE
   8
0
   6
CONTINUOUS
  62
7
  10
37.000000
 20
70.000000
 30
0.0000000000
 11
30.000000
 21
70.000000
 31
0.0000000000
  0
LINE
   8
0
   6
CONTINUOUS
  62
7
  10
30.000000
 20
70.000000
 30
0.0000000000
 11
30.000000
 21
55.000000
 31
0.0000000000
  0
LINE
   8
0
   6
CONTINUOUS
  62
7
  10
30.000000
 20
55.000000
 30
0.0000000000
 11
-30.000000
 21
55.000000
 31
0.0000000000
  0
LINE
   8
0
   6
CONTINUOUS
  62
7
  10
-30.000000
 20
55.000000
 30
0.0000000000
 11
-30.000000
 21
70.000000
 31
0.0000000000
  0
LINE
   8
0
   6
CONTINUOUS
  62
7
  10
-30.000000
 20
70.000000
 30
0.0000000000
 11
-37.000000
 21
70.000000
 31
0.0000000000
  0
LINE
   8
0
   6
CONTINUOUS
  62
7
  10
-37.000000
 20
70.000000
 30
0.0000000000
 11
-47.000000
 21
53.000000
 31
0.0000000000
  0
LINE
   8
0
   6
CONTINUOUS
  62
7
  10
-47.000000
 20
53.000000
 30
0.0000000000
 11
-47.000000
 21
37.000000
 31
0.0000000000
  0
LINE
   8
0
   6
CONTINUOUS
  62
7
  10
-47.000000
 20
37.000000
 30
0.0000000000
 11
-37.000000
 21
20.000000
 31
0.0000000000
  0
LINE
   8
0
   6
CONTINUOUS
  62
7
  10
-37.000000
 20
20.000000
 30
0.0000000000
 11
-30.000000
 21
20.000000
 31
0.0000000000
  0
LINE
   8
0
   6
CONTINUOUS
  62
7
  10
-30.000000
 20
20.000000
 30
0.0000000000
 11
-30.000000
 21
0.000000
 31
0.0000000000
   0
ENDSEC
   0
EOF