  0
SECTION
   2
HEADER
   9
$ACADVER
   1
AC1009
   0
ENDSEC
   0
SECTION
   2
TABLES
   0
TABLE
   2
LAYER
  70
     2
  0
LAYER
  2
LAYER123
 70
 0
62
 1
6
CONTINUOUS
0
ENDTAB
0
TABLE
2
LTYPE
70
 3
0
LTYPE
 2
CONTINUOUS
 70
 64
3
Solid line
 72
65
 73
0
 40
0
0
LTYPE
 2
CENTER
 70
  64
3
-- - -- - -- - --
 72
65
 73
4
 40
1.250
 49
0.500
 49
-0.250
 49
0.250
 49
-0.250
0
LTYPE
 2
DOT
 70
  64
3
. . . . . . .
 72
65
 73
2
 40
0.500
 49
0.000
 49
-0.500
0
LTYPE
 2
DASHDOT
 70
  64
3
-.-.-.-.-.-.-.
 72
65
 73
2
 40
0.500
 49
0.000
 49
-0.500
0
LTYPE
 2
DASHED
 70
  64
3
- - - - - -
 72
65
 73
2
 40
1.000
 49
0.500
 49
-0.500
0
ENDTAB
0
ENDSEC
  0
SECTION
  2
BLOCKS
  0
ENDSEC
  0
SECTION
  2
ENTITIES
  0
LINE
   8
0
   6
CONTINUOUS
  62
7
  10
-30.000000
 20
-38.270000
 30
0.0000000000
 11
30.000000
 21
-38.270000
 31
0.0000000000
  0
LINE
   8
0
   6
CONTINUOUS
  62
7
  10
30.000000
 20
-38.270000
 30
0.0000000000
 11
30.000000
 21
-18.290000
 31
0.0000000000
  0
LINE
   8
0
   6
CONTINUOUS
  62
7
  10
30.000000
 20
-18.290000
 30
0.0000000000
 11
40.010000
 21
-18.290000
 31
0.0000000000
  0
LINE
   8
0
   6
CONTINUOUS
  62
7
  10
40.010000
 20
-18.290000
 30
0.0000000000
 11
40.010000
 21
41.730000
 31
0.0000000000
  0
LINE
   8
0
   6
CONTINUOUS
  62
7
  10
40.010000
 20
41.730000
 30
0.0000000000
 11
23.340000
 21
41.730000
 31
0.0000000000
  0
LINE
   8
0
   6
CONTINUOUS
  62
7
  10
23.340000
 20
41.730000
 30
0.0000000000
 11
21.900000
 21
41.500000
 31
0.0000000000
  0
LINE
   8
0
   6
CONTINUOUS
  62
7
  10
21.900000
 20
41.500000
 30
0.0000000000
 11
20.570000
 21
40.870000
 31
0.0000000000
  0
LINE
   8
0
   6
CONTINUOUS
  62
7
  10
20.570000
 20
40.870000
 30
0.0000000000
 11
19.480000
 21
39.900000
 31
0.0000000000
  0
LINE
   8
0
   6
CONTINUOUS
  62
7
  10
19.480000
 20
39.900000
 30
0.0000000000
 11
18.720000
 21
38.630000
 31
0.0000000000
  0
LINE
   8
0
   6
CONTINUOUS
  62
7
  10
18.720000
 20
38.630000
 30
0.0000000000
 11
12.500000
 21
23.620000
 31
0.0000000000
  0
LINE
   8
0
   6
CONTINUOUS
  62
7
  10
12.500000
 20
23.620000
 30
0.0000000000
 11
12.500000
 21
19.680000
 31
0.0000000000
  0
LINE
   8
0
   6
CONTINUOUS
  62
7
  10
12.500000
 20
19.680000
 30
0.0000000000
 11
6.020000
 21
4.010000
 31
0.0000000000
  0
LINE
   8
0
   6
CONTINUOUS
  62
7
  10
6.020000
 20
4.010000
 30
0.0000000000
 11
3.610000
 21
1.090000
 31
0.0000000000
  0
LINE
   8
0
   6
CONTINUOUS
  62
7
  10
3.610000
 20
1.090000
 30
0.0000000000
 11
0.000000
 21
0.000000
 31
0.0000000000
  0
LINE
   8
0
   6
CONTINUOUS
  62
7
  10
0.000000
 20
0.000000
 30
0.0000000000
 11
-3.610000
 21
1.090000
 31
0.0000000000
  0
LINE
   8
0
   6
CONTINUOUS
  62
7
  10
-3.610000
 20
1.090000
 30
0.0000000000
 11
-5.990000
 21
4.010000
 31
0.0000000000
  0
LINE
   8
0
   6
CONTINUOUS
  62
7
  10
-5.990000
 20
4.010000
 30
0.0000000000
 11
-12.500000
 21
19.680000
 31
0.0000000000
  0
LINE
   8
0
   6
CONTINUOUS
  62
7
  10
-12.500000
 20
19.680000
 30
0.0000000000
 11
-12.500000
 21
23.620000
 31
0.0000000000
  0
LINE
   8
0
   6
CONTINUOUS
  62
7
  10
-12.500000
 20
23.620000
 30
0.0000000000
 11
-18.720000
 21
38.630000
 31
0.0000000000
  0
LINE
   8
0
   6
CONTINUOUS
  62
7
  10
-18.720000
 20
38.630000
 30
0.0000000000
 11
-19.480000
 21
39.900000
 31
0.0000000000
  0
LINE
   8
0
   6
CONTINUOUS
  62
7
  10
-19.480000
 20
39.900000
 30
0.0000000000
 11
-20.550000
 21
40.870000
 31
0.0000000000
  0
LINE
   8
0
   6
CONTINUOUS
  62
7
  10
-20.550000
 20
40.870000
 30
0.0000000000
 11
-21.900000
 21
41.500000
 31
0.0000000000
  0
LINE
   8
0
   6
CONTINUOUS
  62
7
  10
-21.900000
 20
41.500000
 30
0.0000000000
 11
-23.340000
 21
41.730000
 31
0.0000000000
  0
LINE
   8
0
   6
CONTINUOUS
  62
7
  10
-23.340000
 20
41.730000
 30
0.0000000000
 11
-40.010000
 21
41.730000
 31
0.0000000000
  0
LINE
   8
0
   6
CONTINUOUS
  62
7
  10
-40.010000
 20
41.730000
 30
0.0000000000
 11
-40.010000
 21
-18.290000
 31
0.0000000000
  0
LINE
   8
0
   6
CONTINUOUS
  62
7
  10
-40.010000
 20
-18.290000
 30
0.0000000000
 11
-30.000000
 21
-18.290000
 31
0.0000000000
  0
LINE
   8
0
   6
CONTINUOUS
  62
7
  10
-30.000000
 20
-18.290000
 30
0.0000000000
 11
-30.000000
 21
-38.270000
 31
0.0000000000
   0
ENDSEC
   0
EOF