  0
SECTION
   2
HEADER
   9
$ACADVER
   1
AC1009
   0
ENDSEC
   0
SECTION
   2
TABLES
   0
TABLE
   2
LAYER
  70
     2
  0
LAYER
  2
LAYER123
 70
 0
62
 1
6
CONTINUOUS
0
ENDTAB
0
TABLE
2
LTYPE
70
 3
0
LTYPE
 2
CONTINUOUS
 70
 64
3
Solid line
 72
65
 73
0
 40
0
0
LTYPE
 2
CENTER
 70
  64
3
-- - -- - -- - --
 72
65
 73
4
 40
1.250
 49
0.500
 49
-0.250
 49
0.250
 49
-0.250
0
LTYPE
 2
DOT
 70
  64
3
. . . . . . .
 72
65
 73
2
 40
0.500
 49
0.000
 49
-0.500
0
LTYPE
 2
DASHDOT
 70
  64
3
-.-.-.-.-.-.-.
 72
65
 73
2
 40
0.500
 49
0.000
 49
-0.500
0
LTYPE
 2
DASHED
 70
  64
3
- - - - - -
 72
65
 73
2
 40
1.000
 49
0.500
 49
-0.500
0
ENDTAB
0
ENDSEC
  0
SECTION
  2
BLOCKS
  0
ENDSEC
  0
SECTION
  2
ENTITIES
  0
LINE
   8
0
   6
CONTINUOUS
  62
7
  10
-7.000000
 20
0.000000
 30
0.0000000000
 11
0.000000
 21
0.000000
 31
0.0000000000
  0
LINE
   8
0
   6
CONTINUOUS
  62
7
  10
0.000000
 20
0.000000
 30
0.0000000000
 11
7.000000
 21
0.000000
 31
0.0000000000
  0
LINE
   8
0
   6
CONTINUOUS
  62
7
  10
7.000000
 20
0.000000
 30
0.0000000000
 11
7.000000
 21
32.000000
 31
0.0000000000
  0
LINE
   8
0
   6
CONTINUOUS
  62
7
  10
7.000000
 20
32.000000
 30
0.0000000000
 11
20.000000
 21
32.000000
 31
0.0000000000
  0
LINE
   8
0
   6
CONTINUOUS
  62
7
  10
20.000000
 20
32.000000
 30
0.0000000000
 11
20.000000
 21
5.900000
 31
0.0000000000
  0
LINE
   8
0
   6
CONTINUOUS
  62
7
  10
20.000000
 20
5.900000
 30
0.0000000000
 11
30.090000
 21
5.900000
 31
0.0000000000
  0
LINE
   8
0
   6
CONTINUOUS
  62
7
  10
30.090000
 20
5.900000
 30
0.0000000000
 11
35.790000
 21
27.170000
 31
0.0000000000
  0
LINE
   8
0
   6
CONTINUOUS
  62
7
  10
35.790000
 20
27.170000
 30
0.0000000000
 11
35.790000
 21
53.900000
 31
0.0000000000
  0
LINE
   8
0
   6
CONTINUOUS
  62
7
  10
35.790000
 20
53.900000
 30
0.0000000000
 11
40.290000
 21
53.900000
 31
0.0000000000
  0
LINE
   8
0
   6
CONTINUOUS
  62
7
  10
40.290000
 20
53.900000
 30
0.0000000000
 11
40.290000
 21
85.380000
 31
0.0000000000
  0
LINE
   8
0
   6
CONTINUOUS
  62
7
  10
40.290000
 20
85.380000
 30
0.0000000000
 11
35.790000
 21
85.380000
 31
0.0000000000
  0
LINE
   8
0
   6
CONTINUOUS
  62
7
  10
35.790000
 20
85.380000
 30
0.0000000000
 11
35.790000
 21
88.500000
 31
0.0000000000
  0
LINE
   8
0
   6
CONTINUOUS
  62
7
  10
35.790000
 20
88.500000
 30
0.0000000000
 11
44.200000
 21
88.500000
 31
0.0000000000
  0
LINE
   8
0
   6
CONTINUOUS
  62
7
  10
44.200000
 20
88.500000
 30
0.0000000000
 11
44.200000
 21
117.430000
 31
0.0000000000
  0
LINE
   8
0
   6
CONTINUOUS
  62
7
  10
44.200000
 20
117.430000
 30
0.0000000000
 11
30.700000
 21
117.430000
 31
0.0000000000
  0
LINE
   8
0
   6
CONTINUOUS
  62
7
  10
30.700000
 20
117.430000
 30
0.0000000000
 11
30.700000
 21
101.750000
 31
0.0000000000
  0
LINE
   8
0
   6
CONTINUOUS
  62
7
  10
30.700000
 20
101.750000
 30
0.0000000000
 11
22.000000
 21
101.750000
 31
0.0000000000
  0
LINE
   8
0
   6
CONTINUOUS
  62
7
  10
22.000000
 20
101.750000
 30
0.0000000000
 11
22.000000
 21
119.800000
 31
0.0000000000
  0
LINE
   8
0
   6
CONTINUOUS
  62
7
  10
22.000000
 20
119.800000
 30
0.0000000000
 11
-20.000000
 21
119.800000
 31
0.0000000000
  0
LINE
   8
0
   6
CONTINUOUS
  62
7
  10
-20.000000
 20
119.800000
 30
0.0000000000
 11
-20.000000
 21
150.700000
 31
0.0000000000
  0
LINE
   8
0
   6
CONTINUOUS
  62
7
  10
-20.000000
 20
150.700000
 30
0.0000000000
 11
-33.000000
 21
150.700000
 31
0.0000000000
  0
LINE
   8
0
   6
CONTINUOUS
  62
7
  10
-33.000000
 20
150.700000
 30
0.0000000000
 11
-33.000000
 21
85.380000
 31
0.0000000000
  0
LINE
   8
0
   6
CONTINUOUS
  62
7
  10
-33.000000
 20
85.380000
 30
0.0000000000
 11
-40.290000
 21
85.380000
 31
0.0000000000
  0
LINE
   8
0
   6
CONTINUOUS
  62
7
  10
-40.290000
 20
85.380000
 30
0.0000000000
 11
-40.290000
 21
53.900000
 31
0.0000000000
  0
LINE
   8
0
   6
CONTINUOUS
  62
7
  10
-40.290000
 20
53.900000
 30
0.0000000000
 11
-35.790000
 21
53.900000
 31
0.0000000000
  0
LINE
   8
0
   6
CONTINUOUS
  62
7
  10
-35.790000
 20
53.900000
 30
0.0000000000
 11
-35.790000
 21
27.170000
 31
0.0000000000
  0
LINE
   8
0
   6
CONTINUOUS
  62
7
  10
-35.790000
 20
27.170000
 30
0.0000000000
 11
-30.090000
 21
5.900000
 31
0.0000000000
  0
LINE
   8
0
   6
CONTINUOUS
  62
7
  10
-30.090000
 20
5.900000
 30
0.0000000000
 11
-20.000000
 21
5.900000
 31
0.0000000000
  0
LINE
   8
0
   6
CONTINUOUS
  62
7
  10
-20.000000
 20
5.900000
 30
0.0000000000
 11
-20.000000
 21
32.000000
 31
0.0000000000
  0
LINE
   8
0
   6
CONTINUOUS
  62
7
  10
-20.000000
 20
32.000000
 30
0.0000000000
 11
-7.000000
 21
32.000000
 31
0.0000000000
  0
LINE
   8
0
   6
CONTINUOUS
  62
7
  10
-7.000000
 20
32.000000
 30
0.0000000000
 11
-7.000000
 21
0.000000
 31
0.0000000000
   0
ENDSEC
   0
EOF