  0
SECTION
   2
HEADER
   9
$ACADVER
   1
AC1009
   0
ENDSEC
   0
SECTION
   2
TABLES
   0
TABLE
   2
LAYER
  70
     2
  0
LAYER
  2
LAYER123
 70
 0
62
 1
6
CONTINUOUS
0
ENDTAB
0
TABLE
2
LTYPE
70
 3
0
LTYPE
 2
CONTINUOUS
 70
 64
3
Solid line
 72
65
 73
0
 40
0
0
LTYPE
 2
CENTER
 70
  64
3
-- - -- - -- - --
 72
65
 73
4
 40
1.250
 49
0.500
 49
-0.250
 49
0.250
 49
-0.250
0
LTYPE
 2
DOT
 70
  64
3
. . . . . . .
 72
65
 73
2
 40
0.500
 49
0.000
 49
-0.500
0
LTYPE
 2
DASHDOT
 70
  64
3
-.-.-.-.-.-.-.
 72
65
 73
2
 40
0.500
 49
0.000
 49
-0.500
0
LTYPE
 2
DASHED
 70
  64
3
- - - - - -
 72
65
 73
2
 40
1.000
 49
0.500
 49
-0.500
0
ENDTAB
0
ENDSEC
  0
SECTION
  2
BLOCKS
  0
ENDSEC
  0
SECTION
  2
ENTITIES
  0
LINE
   8
0
   6
CONTINUOUS
  62
7
  10
0.000000
 20
0.000000
 30
0.0000000000
 11
2.830000
 21
2.830000
 31
0.0000000000
  0
LINE
   8
0
   6
CONTINUOUS
  62
7
  10
2.830000
 20
2.830000
 30
0.0000000000
 11
-2.860000
 21
11.360000
 31
0.0000000000
  0
LINE
   8
0
   6
CONTINUOUS
  62
7
  10
-2.860000
 20
11.360000
 30
0.0000000000
 11
-5.080000
 21
16.780000
 31
0.0000000000
  0
LINE
   8
0
   6
CONTINUOUS
  62
7
  10
-5.080000
 20
16.780000
 30
0.0000000000
 11
-5.050000
 21
22.630000
 31
0.0000000000
  0
LINE
   8
0
   6
CONTINUOUS
  62
7
  10
-5.050000
 20
22.630000
 30
0.0000000000
 11
-3.710000
 21
26.440000
 31
0.0000000000
  0
LINE
   8
0
   6
CONTINUOUS
  62
7
  10
-3.710000
 20
26.440000
 30
0.0000000000
 11
6.000000
 21
45.510000
 31
0.0000000000
  0
LINE
   8
0
   6
CONTINUOUS
  62
7
  10
6.000000
 20
45.510000
 30
0.0000000000
 11
6.000000
 21
67.000000
 31
0.0000000000
  0
LINE
   8
0
   6
CONTINUOUS
  62
7
  10
6.000000
 20
67.000000
 30
0.0000000000
 11
-7.000000
 21
67.000000
 31
0.0000000000
  0
LINE
   8
0
   6
CONTINUOUS
  62
7
  10
-7.000000
 20
67.000000
 30
0.0000000000
 11
-7.000000
 21
97.000000
 31
0.0000000000
  0
LINE
   8
0
   6
CONTINUOUS
  62
7
  10
-7.000000
 20
97.000000
 30
0.0000000000
 11
-20.000000
 21
97.000000
 31
0.0000000000
  0
LINE
   8
0
   6
CONTINUOUS
  62
7
  10
-20.000000
 20
97.000000
 30
0.0000000000
 11
-20.000000
 21
20.810000
 31
0.0000000000
  0
LINE
   8
0
   6
CONTINUOUS
  62
7
  10
-20.000000
 20
20.810000
 30
0.0000000000
 11
-2.430000
 21
3.230000
 31
0.0000000000
  0
LINE
   8
0
   6
CONTINUOUS
  62
7
  10
-2.430000
 20
3.230000
 30
0.0000000000
 11
-2.780000
 21
2.880000
 31
0.0000000000
  0
LINE
   8
0
   6
CONTINUOUS
  62
7
  10
-2.780000
 20
2.880000
 30
0.0000000000
 11
0.000000
 21
0.000000
 31
0.0000000000
   0
ENDSEC
   0
EOF