  0
SECTION
   2
HEADER
   9
$ACADVER
   1
AC1009
   0
ENDSEC
   0
SECTION
   2
TABLES
   0
TABLE
   2
LAYER
  70
     2
  0
LAYER
  2
LAYER123
 70
 0
62
 1
6
CONTINUOUS
0
ENDTAB
0
TABLE
2
LTYPE
70
 3
0
LTYPE
 2
CONTINUOUS
 70
 64
3
Solid line
 72
65
 73
0
 40
0
0
LTYPE
 2
CENTER
 70
  64
3
-- - -- - -- - --
 72
65
 73
4
 40
1.250
 49
0.500
 49
-0.250
 49
0.250
 49
-0.250
0
LTYPE
 2
DOT
 70
  64
3
. . . . . . .
 72
65
 73
2
 40
0.500
 49
0.000
 49
-0.500
0
LTYPE
 2
DASHDOT
 70
  64
3
-.-.-.-.-.-.-.
 72
65
 73
2
 40
0.500
 49
0.000
 49
-0.500
0
LTYPE
 2
DASHED
 70
  64
3
- - - - - -
 72
65
 73
2
 40
1.000
 49
0.500
 49
-0.500
0
ENDTAB
0
ENDSEC
  0
SECTION
  2
BLOCKS
  0
ENDSEC
  0
SECTION
  2
ENTITIES
  0
LINE
   8
0
   6
CONTINUOUS
  62
7
  10
0.000000
 20
0.000000
 30
0.0000000000
 11
5.660000
 21
5.660000
 31
0.0000000000
  0
LINE
   8
0
   6
CONTINUOUS
  62
7
  10
5.660000
 20
5.660000
 30
0.0000000000
 11
-0.320000
 21
11.840000
 31
0.0000000000
  0
LINE
   8
0
   6
CONTINUOUS
  62
7
  10
-0.320000
 20
11.840000
 30
0.0000000000
 11
-1.230000
 21
13.070000
 31
0.0000000000
  0
LINE
   8
0
   6
CONTINUOUS
  62
7
  10
-1.230000
 20
13.070000
 30
0.0000000000
 11
-1.800000
 21
14.490000
 31
0.0000000000
  0
LINE
   8
0
   6
CONTINUOUS
  62
7
  10
-1.800000
 20
14.490000
 30
0.0000000000
 11
-2.000000
 21
16.010000
 31
0.0000000000
  0
LINE
   8
0
   6
CONTINUOUS
  62
7
  10
-2.000000
 20
16.010000
 30
0.0000000000
 11
-2.000000
 21
81.030000
 31
0.0000000000
  0
LINE
   8
0
   6
CONTINUOUS
  62
7
  10
-2.000000
 20
81.030000
 30
0.0000000000
 11
-1.590000
 21
84.140000
 31
0.0000000000
  0
LINE
   8
0
   6
CONTINUOUS
  62
7
  10
-1.590000
 20
84.140000
 30
0.0000000000
 11
-0.390000
 21
87.030000
 31
0.0000000000
  0
LINE
   8
0
   6
CONTINUOUS
  62
7
  10
-0.390000
 20
87.030000
 30
0.0000000000
 11
1.510000
 21
89.520000
 31
0.0000000000
  0
LINE
   8
0
   6
CONTINUOUS
  62
7
  10
1.510000
 20
89.520000
 30
0.0000000000
 11
7.000000
 21
95.000000
 31
0.0000000000
  0
LINE
   8
0
   6
CONTINUOUS
  62
7
  10
7.000000
 20
95.000000
 30
0.0000000000
 11
7.000000
 21
100.000000
 31
0.0000000000
  0
LINE
   8
0
   6
CONTINUOUS
  62
7
  10
7.000000
 20
100.000000
 30
0.0000000000
 11
-7.000000
 21
100.000000
 31
0.0000000000
  0
LINE
   8
0
   6
CONTINUOUS
  62
7
  10
-7.000000
 20
100.000000
 30
0.0000000000
 11
-7.000000
 21
130.000000
 31
0.0000000000
  0
LINE
   8
0
   6
CONTINUOUS
  62
7
  10
-7.000000
 20
130.000000
 30
0.0000000000
 11
-20.000000
 21
130.000000
 31
0.0000000000
  0
LINE
   8
0
   6
CONTINUOUS
  62
7
  10
-20.000000
 20
130.000000
 30
0.0000000000
 11
-20.000000
 21
95.000000
 31
0.0000000000
  0
LINE
   8
0
   6
CONTINUOUS
  62
7
  10
-20.000000
 20
95.000000
 30
0.0000000000
 11
-15.510000
 21
90.520000
 31
0.0000000000
  0
LINE
   8
0
   6
CONTINUOUS
  62
7
  10
-15.510000
 20
90.520000
 30
0.0000000000
 11
-15.520000
 21
90.510000
 31
0.0000000000
  0
LINE
   8
0
   6
CONTINUOUS
  62
7
  10
-15.520000
 20
90.510000
 30
0.0000000000
 11
-13.610000
 21
88.030000
 31
0.0000000000
  0
LINE
   8
0
   6
CONTINUOUS
  62
7
  10
-13.610000
 20
88.030000
 30
0.0000000000
 11
-12.410000
 21
85.140000
 31
0.0000000000
  0
LINE
   8
0
   6
CONTINUOUS
  62
7
  10
-12.410000
 20
85.140000
 30
0.0000000000
 11
-12.000000
 21
82.030000
 31
0.0000000000
  0
LINE
   8
0
   6
CONTINUOUS
  62
7
  10
-12.000000
 20
82.030000
 30
0.0000000000
 11
-12.000000
 21
13.410000
 31
0.0000000000
  0
LINE
   8
0
   6
CONTINUOUS
  62
7
  10
-12.000000
 20
13.410000
 30
0.0000000000
 11
-4.950000
 21
6.360000
 31
0.0000000000
  0
LINE
   8
0
   6
CONTINUOUS
  62
7
  10
-4.950000
 20
6.360000
 30
0.0000000000
 11
-5.660000
 21
5.660000
 31
0.0000000000
  0
LINE
   8
0
   6
CONTINUOUS
  62
7
  10
-5.660000
 20
5.660000
 30
0.0000000000
 11
0.000000
 21
0.000000
 31
0.0000000000
   0
ENDSEC
   0
EOF