  0
SECTION
   2
HEADER
   9
$ACADVER
   1
AC1009
   0
ENDSEC
   0
SECTION
   2
TABLES
   0
TABLE
   2
LAYER
  70
     2
  0
LAYER
  2
LAYER123
 70
 0
62
 1
6
CONTINUOUS
0
ENDTAB
0
TABLE
2
LTYPE
70
 3
0
LTYPE
 2
CONTINUOUS
 70
 64
3
Solid line
 72
65
 73
0
 40
0
0
LTYPE
 2
CENTER
 70
  64
3
-- - -- - -- - --
 72
65
 73
4
 40
1.250
 49
0.500
 49
-0.250
 49
0.250
 49
-0.250
0
LTYPE
 2
DOT
 70
  64
3
. . . . . . .
 72
65
 73
2
 40
0.500
 49
0.000
 49
-0.500
0
LTYPE
 2
DASHDOT
 70
  64
3
-.-.-.-.-.-.-.
 72
65
 73
2
 40
0.500
 49
0.000
 49
-0.500
0
LTYPE
 2
DASHED
 70
  64
3
- - - - - -
 72
65
 73
2
 40
1.000
 49
0.500
 49
-0.500
0
ENDTAB
0
ENDSEC
  0
SECTION
  2
BLOCKS
  0
ENDSEC
  0
SECTION
  2
ENTITIES
  0
LINE
   8
0
   6
CONTINUOUS
  62
7
  10
0.000000
 20
0.000000
 30
0.0000000000
 11
6.147000
 21
6.592000
 31
0.0000000000
  0
LINE
   8
0
   6
CONTINUOUS
  62
7
  10
6.147000
 20
6.592000
 30
0.0000000000
 11
2.266000
 21
11.737000
 31
0.0000000000
  0
LINE
   8
0
   6
CONTINUOUS
  62
7
  10
2.266000
 20
11.737000
 30
0.0000000000
 11
-0.169000
 21
17.702000
 31
0.0000000000
  0
LINE
   8
0
   6
CONTINUOUS
  62
7
  10
-0.169000
 20
17.702000
 30
0.0000000000
 11
-1.000000
 21
24.093000
 31
0.0000000000
  0
LINE
   8
0
   6
CONTINUOUS
  62
7
  10
-1.000000
 20
24.093000
 30
0.0000000000
 11
-1.000000
 21
91.093000
 31
0.0000000000
  0
LINE
   8
0
   6
CONTINUOUS
  62
7
  10
-1.000000
 20
91.093000
 30
0.0000000000
 11
-0.065000
 21
97.866000
 31
0.0000000000
  0
LINE
   8
0
   6
CONTINUOUS
  62
7
  10
-0.065000
 20
97.866000
 30
0.0000000000
 11
2.669000
 21
104.132000
 31
0.0000000000
  0
LINE
   8
0
   6
CONTINUOUS
  62
7
  10
2.669000
 20
104.132000
 30
0.0000000000
 11
7.000000
 21
109.423000
 31
0.0000000000
  0
LINE
   8
0
   6
CONTINUOUS
  62
7
  10
7.000000
 20
109.423000
 30
0.0000000000
 11
7.000000
 21
120.093000
 31
0.0000000000
  0
LINE
   8
0
   6
CONTINUOUS
  62
7
  10
7.000000
 20
120.093000
 30
0.0000000000
 11
-7.000000
 21
120.093000
 31
0.0000000000
  0
LINE
   8
0
   6
CONTINUOUS
  62
7
  10
-7.000000
 20
120.093000
 30
0.0000000000
 11
-7.000000
 21
150.093000
 31
0.0000000000
  0
LINE
   8
0
   6
CONTINUOUS
  62
7
  10
-7.000000
 20
150.093000
 30
0.0000000000
 11
-17.386000
 21
150.093000
 31
0.0000000000
  0
LINE
   8
0
   6
CONTINUOUS
  62
7
  10
-17.386000
 20
150.093000
 30
0.0000000000
 11
-20.158000
 21
132.593000
 31
0.0000000000
  0
LINE
   8
0
   6
CONTINUOUS
  62
7
  10
-20.158000
 20
132.593000
 30
0.0000000000
 11
-17.000000
 21
132.593000
 31
0.0000000000
  0
LINE
   8
0
   6
CONTINUOUS
  62
7
  10
-17.000000
 20
132.593000
 30
0.0000000000
 11
-17.000000
 21
124.593000
 31
0.0000000000
  0
LINE
   8
0
   6
CONTINUOUS
  62
7
  10
-17.000000
 20
124.593000
 30
0.0000000000
 11
-20.000000
 21
124.593000
 31
0.0000000000
  0
LINE
   8
0
   6
CONTINUOUS
  62
7
  10
-20.000000
 20
124.593000
 30
0.0000000000
 11
-20.000000
 21
23.646000
 31
0.0000000000
  0
LINE
   8
0
   6
CONTINUOUS
  62
7
  10
-20.000000
 20
23.646000
 30
0.0000000000
 11
-5.040000
 21
7.605000
 31
0.0000000000
  0
LINE
   8
0
   6
CONTINUOUS
  62
7
  10
-5.040000
 20
7.605000
 30
0.0000000000
 11
-6.137000
 21
6.582000
 31
0.0000000000
  0
LINE
   8
0
   6
CONTINUOUS
  62
7
  10
-6.137000
 20
6.582000
 30
0.0000000000
 11
0.000000
 21
0.000000
 31
0.0000000000
   0
ENDSEC
   0
EOF