  0
SECTION
   2
HEADER
   9
$ACADVER
   1
AC1009
   0
ENDSEC
   0
SECTION
   2
TABLES
   0
TABLE
   2
LAYER
  70
     2
  0
LAYER
  2
LAYER123
 70
 0
62
 1
6
CONTINUOUS
0
ENDTAB
0
TABLE
2
LTYPE
70
 3
0
LTYPE
 2
CONTINUOUS
 70
 64
3
Solid line
 72
65
 73
0
 40
0
0
LTYPE
 2
CENTER
 70
  64
3
-- - -- - -- - --
 72
65
 73
4
 40
1.250
 49
0.500
 49
-0.250
 49
0.250
 49
-0.250
0
LTYPE
 2
DOT
 70
  64
3
. . . . . . .
 72
65
 73
2
 40
0.500
 49
0.000
 49
-0.500
0
LTYPE
 2
DASHDOT
 70
  64
3
-.-.-.-.-.-.-.
 72
65
 73
2
 40
0.500
 49
0.000
 49
-0.500
0
LTYPE
 2
DASHED
 70
  64
3
- - - - - -
 72
65
 73
2
 40
1.000
 49
0.500
 49
-0.500
0
ENDTAB
0
ENDSEC
  0
SECTION
  2
BLOCKS
  0
ENDSEC
  0
SECTION
  2
ENTITIES
  0
LINE
   8
0
   6
CONTINUOUS
  62
7
  10
-7.000000
 20
-56.782000
 30
0.0000000000
 11
7.000000
 21
-56.782000
 31
0.0000000000
  0
LINE
   8
0
   6
CONTINUOUS
  62
7
  10
7.000000
 20
-56.782000
 30
0.0000000000
 11
7.000000
 21
-41.782000
 31
0.0000000000
  0
LINE
   8
0
   6
CONTINUOUS
  62
7
  10
7.000000
 20
-41.782000
 30
0.0000000000
 11
4.500000
 21
-41.782000
 31
0.0000000000
  0
LINE
   8
0
   6
CONTINUOUS
  62
7
  10
4.500000
 20
-41.782000
 30
0.0000000000
 11
4.500000
 21
3.217000
 31
0.0000000000
  0
LINE
   8
0
   6
CONTINUOUS
  62
7
  10
4.500000
 20
3.217000
 30
0.0000000000
 11
3.000000
 21
3.217000
 31
0.0000000000
  0
LINE
   8
0
   6
CONTINUOUS
  62
7
  10
3.000000
 20
3.217000
 30
0.0000000000
 11
0.000000
 21
0.000000
 31
0.0000000000
  0
LINE
   8
0
   6
CONTINUOUS
  62
7
  10
0.000000
 20
0.000000
 30
0.0000000000
 11
-3.000000
 21
3.217000
 31
0.0000000000
  0
LINE
   8
0
   6
CONTINUOUS
  62
7
  10
-3.000000
 20
3.217000
 30
0.0000000000
 11
-5.000000
 21
3.217000
 31
0.0000000000
  0
LINE
   8
0
   6
CONTINUOUS
  62
7
  10
-5.000000
 20
3.217000
 30
0.0000000000
 11
-7.000000
 21
1.217000
 31
0.0000000000
  0
LINE
   8
0
   6
CONTINUOUS
  62
7
  10
-7.000000
 20
1.217000
 30
0.0000000000
 11
-7.000000
 21
-56.782000
 31
0.0000000000
   0
ENDSEC
   0
EOF