  0
SECTION
  2
HEADER
  9
$ACADVER
  1
AC1009
  9
$DWGCODEPAGE
  3
dos932
  9
$EXTMIN
 10
0.000000
 20
0.000000
  9
$EXTMAX
 10
4474.891330
 20
733.077238
  9
$LIMMIN
 10
0.000000
 20
0.000000
  9
$LIMMAX
 10
4474.891330
 20
733.077238
  9
$LTSCALE
 40
1.000000
  0
ENDSEC
  0
SECTION
  2
TABLES
  0
TABLE
  2
VPORT
 70
     1
  0
VPORT
  2
*ACTIVE
 70
     0
 10
0.000000
 20
0.000000
 11
1.000000
 21
1.000000
 12
2237.445665
 22
366.538619
 13
0.000000
 23
0.000000
 14
1.000000
 24
1.000000
 15
0.000000
 25
0.000000
 16
0.000000
 26
0.000000
 36
1.000000
 17
0.000000
 27
0.000000
 37
0.000000
 40
733.077238
 41
6.104256
 42
50.000000
 43
0.000000
 44
0.000000
 50
0.000000
 51
0.000000
 71
     0
 72
   100
 73
     1
 74
     1
 75
     0
 76
     0
 77
     0
 78
     0
  0
ENDTAB
  0
TABLE
  2
LTYPE
 70
     5
  0
LTYPE
  2
CONTINUOUS
 70
    64
  3
CONTINUOUS
 72
    65
 73
     0
 40
0.000000
  0
LTYPE
  2
DASHED
 70
    64
  3
DASHED
 72
    65
 73
     2
 40
0.750000
 49
0.500000
 49
-0.250000
  0
LTYPE
  2
HIDDEN
 70
    64
  3
HIDDEN
 72
    65
 73
     2
 40
0.375000
 49
0.250000
 49
-0.125000
  0
LTYPE
  2
CENTER
 70
    64
  3
CENTER
 72
    65
 73
     4
 40
2.000000
 49
1.250000
 49
-0.250000
 49
0.250000
 49
-0.250000
  0
LTYPE
  2
PHANTOM
 70
    64
  3
PHANTOM
 72
    65
 73
     6
 40
2.500000
 49
1.250000
 49
-0.250000
 49
0.250000
 49
-0.250000
 49
0.250000
 49
-0.250000
  0
ENDTAB
  0
TABLE
  2
LAYER
 70
     1
  0
LAYER
  2
0
 70
     0
 62
     7
  6
CONTINUOUS
  0
ENDTAB
  0
TABLE
  2
STYLE
 70
     6
  0
STYLE
  2
STANDARD
 70
     0
 40
0.000000
 41
1.000000
 50
0.000000
 71
     0
 42
0.200000
  3
TXT
  4
BIGFONT
  0
STYLE
  2
TATEGAKI
 70
     4
 40
0.000000
 41
1.000000
 50
0.000000
 71
     0
 42
0.200000
  3
TXT
  4
BIGFONT
  0
STYLE
  2
MINCHO
 70
     0
 40
0.000000
 41
1.000000
 50
0.000000
 71
     0
 42
0.200000
  3
‚l‚r –¾’©
  4

  0
STYLE
  2
MINCHOV
 70
     0
 40
0.000000
 41
1.000000
 50
0.000000
 71
     0
 42
0.200000
  3
@‚l‚r –¾’©
  4

  0
STYLE
  2
GOTHIC
 70
     0
 40
0.000000
 41
1.000000
 50
0.000000
 71
     0
 42
0.200000
  3
‚l‚r ƒSƒVƒbƒN
  4

  0
STYLE
  2
GOTHICV
 70
     0
 40
0.000000
 41
1.000000
 50
0.000000
 71
     0
 42
0.200000
  3
@‚l‚r ƒSƒVƒbƒN
  4

  0
ENDTAB
  0
ENDSEC
  0
SECTION
  2
BLOCKS
  0
ENDSEC
  0
SECTION
  2
ENTITIES
  0
LINE
  8
0
  6
CONTINUOUS
 62
     2
 10
428.277534
 20
498.951146
 11
433.527534
 21
502.021146
  0
LINE
  8
0
  6
CONTINUOUS
 62
     2
 10
433.527534
 20
502.021146
 11
435.487534
 21
505.421146
  0
LINE
  8
0
  6
CONTINUOUS
 62
     2
 10
435.487534
 20
505.421146
 11
435.487534
 21
562.951146
  0
LINE
  8
0
  6
CONTINUOUS
 62
     2
 10
435.487534
 20
562.951146
 11
434.487534
 21
563.951146
  0
LINE
  8
0
  6
CONTINUOUS
 62
     2
 10
434.487534
 20
563.951146
 11
421.287534
 21
563.951146
  0
LINE
  8
0
  6
CONTINUOUS
 62
     2
 10
421.287534
 20
563.951146
 11
421.287534
 21
592.951146
  0
LINE
  8
0
  6
CONTINUOUS
 62
     2
 10
421.287534
 20
592.951146
 11
420.287534
 21
593.951146
  0
LINE
  8
0
  6
CONTINUOUS
 62
     2
 10
420.287534
 20
593.951146
 11
409.287534
 21
593.951146
  0
LINE
  8
0
  6
CONTINUOUS
 62
     2
 10
409.287534
 20
593.951146
 11
408.287534
 21
592.951146
  0
LINE
  8
0
  6
CONTINUOUS
 62
     2
 10
408.287534
 20
592.951146
 11
408.287534
 21
529.591146
  0
LINE
  8
0
  6
CONTINUOUS
 62
     2
 10
408.287534
 20
529.591146
 11
421.087534
 21
507.421146
  0
LINE
  8
0
  6
CONTINUOUS
 62
     2
 10
421.087534
 20
507.421146
 11
421.087534
 21
505.421146
  0
LINE
  8
0
  6
CONTINUOUS
 62
     2
 10
421.087534
 20
505.421146
 11
423.047534
 21
502.021146
  0
LINE
  8
0
  6
CONTINUOUS
 62
     2
 10
423.047534
 20
502.021146
 11
428.277534
 21
498.951146
  0
LINE
  8
0
  6
CONTINUOUS
 62
     2
 10
555.487534
 20
496.951146
 11
561.737534
 21
503.421146
  0
LINE
  8
0
  6
CONTINUOUS
 62
     2
 10
561.737534
 20
503.421146
 11
556.117534
 21
514.921146
  0
LINE
  8
0
  6
CONTINUOUS
 62
     2
 10
556.117534
 20
514.921146
 11
556.387534
 21
527.701146
  0
LINE
  8
0
  6
CONTINUOUS
 62
     2
 10
556.387534
 20
527.701146
 11
562.487534
 21
538.951146
  0
LINE
  8
0
  6
CONTINUOUS
 62
     2
 10
562.487534
 20
538.951146
 11
562.487534
 21
563.951146
  0
LINE
  8
0
  6
CONTINUOUS
 62
     2
 10
562.487534
 20
563.951146
 11
548.487534
 21
563.951146
  0
LINE
  8
0
  6
CONTINUOUS
 62
     2
 10
548.487534
 20
563.951146
 11
548.487534
 21
593.951146
  0
LINE
  8
0
  6
CONTINUOUS
 62
     2
 10
548.487534
 20
593.951146
 11
535.487534
 21
593.951146
  0
LINE
  8
0
  6
CONTINUOUS
 62
     2
 10
535.487534
 20
593.951146
 11
535.487534
 21
519.101146
  0
LINE
  8
0
  6
CONTINUOUS
 62
     2
 10
535.487534
 20
519.101146
 11
549.927534
 21
504.141146
  0
LINE
  8
0
  6
CONTINUOUS
 62
     2
 10
549.927534
 20
504.141146
 11
549.237534
 21
503.421146
  0
LINE
  8
0
  6
CONTINUOUS
 62
     2
 10
549.237534
 20
503.421146
 11
555.487534
 21
496.951146
  0
LINE
  8
0
  6
CONTINUOUS
 62
     2
 10
682.487534
 20
478.951146
 11
688.047534
 21
484.701146
  0
LINE
  8
0
  6
CONTINUOUS
 62
     2
 10
688.047534
 20
484.701146
 11
682.167534
 21
490.791146
  0
LINE
  8
0
  6
CONTINUOUS
 62
     2
 10
682.167534
 20
490.791146
 11
680.487534
 21
494.961146
  0
LINE
  8
0
  6
CONTINUOUS
 62
     2
 10
680.487534
 20
494.961146
 11
680.487534
 21
547.881146
  0
LINE
  8
0
  6
CONTINUOUS
 62
     2
 10
680.487534
 20
547.881146
 11
681.947534
 21
551.421146
  0
LINE
  8
0
  6
CONTINUOUS
 62
     2
 10
681.947534
 20
551.421146
 11
689.487534
 21
558.951146
  0
LINE
  8
0
  6
CONTINUOUS
 62
     2
 10
689.487534
 20
558.951146
 11
689.487534
 21
563.951146
  0
LINE
  8
0
  6
CONTINUOUS
 62
     2
 10
689.487534
 20
563.951146
 11
675.487534
 21
563.951146
  0
LINE
  8
0
  6
CONTINUOUS
 62
     2
 10
675.487534
 20
563.951146
 11
675.487534
 21
593.951146
  0
LINE
  8
0
  6
CONTINUOUS
 62
     2
 10
675.487534
 20
593.951146
 11
662.487534
 21
593.951146
  0
LINE
  8
0
  6
CONTINUOUS
 62
     2
 10
662.487534
 20
593.951146
 11
662.487534
 21
558.951146
  0
LINE
  8
0
  6
CONTINUOUS
 62
     2
 10
662.487534
 20
558.951146
 11
669.017534
 21
552.421146
  0
LINE
  8
0
  6
CONTINUOUS
 62
     2
 10
669.017534
 20
552.421146
 11
670.487534
 21
548.881146
  0
LINE
  8
0
  6
CONTINUOUS
 62
     2
 10
670.487534
 20
548.881146
 11
670.487534
 21
492.811146
  0
LINE
  8
0
  6
CONTINUOUS
 62
     2
 10
670.487534
 20
492.811146
 11
677.647534
 21
485.401146
  0
LINE
  8
0
  6
CONTINUOUS
 62
     2
 10
677.647534
 20
485.401146
 11
676.927534
 21
484.701146
  0
LINE
  8
0
  6
CONTINUOUS
 62
     2
 10
676.927534
 20
484.701146
 11
682.487534
 21
478.951146
  0
LINE
  8
0
  6
CONTINUOUS
 62
     2
 10
61.500000
 20
45.010000
 11
121.500000
 21
45.010000
  0
LINE
  8
0
  6
CONTINUOUS
 62
     2
 10
121.500000
 20
45.010000
 11
121.500000
 21
63.020000
  0
LINE
  8
0
  6
CONTINUOUS
 62
     2
 10
121.500000
 20
63.020000
 11
123.500000
 21
65.000000
  0
LINE
  8
0
  6
CONTINUOUS
 62
     2
 10
123.500000
 20
65.000000
 11
139.000000
 21
65.000000
  0
LINE
  8
0
  6
CONTINUOUS
 62
     2
 10
139.000000
 20
65.000000
 11
139.000000
 21
140.000000
  0
LINE
  8
0
  6
CONTINUOUS
 62
     2
 10
139.000000
 20
140.000000
 11
134.150000
 21
140.000000
  0
LINE
  8
0
  6
CONTINUOUS
 62
     2
 10
134.150000
 20
140.000000
 11
132.900000
 21
139.880000
  0
LINE
  8
0
  6
CONTINUOUS
 62
     2
 10
132.900000
 20
139.880000
 11
131.730000
 21
139.500000
  0
LINE
  8
0
  6
CONTINUOUS
 62
     2
 10
131.730000
 20
139.500000
 11
130.640000
 21
138.890000
  0
LINE
  8
0
  6
CONTINUOUS
 62
     2
 10
130.640000
 20
138.890000
 11
129.730000
 21
138.070000
  0
LINE
  8
0
  6
CONTINUOUS
 62
     2
 10
129.730000
 20
138.070000
 11
123.990000
 21
131.830000
  0
LINE
  8
0
  6
CONTINUOUS
 62
     2
 10
123.990000
 20
131.830000
 11
123.990000
 21
130.350000
  0
LINE
  8
0
  6
CONTINUOUS
 62
     2
 10
123.990000
 20
130.350000
 11
97.390000
 21
101.320000
  0
LINE
  8
0
  6
CONTINUOUS
 62
     2
 10
97.390000
 20
101.320000
 11
94.730000
 21
99.390000
  0
LINE
  8
0
  6
CONTINUOUS
 62
     2
 10
94.730000
 20
99.390000
 11
91.500000
 21
98.730000
  0
LINE
  8
0
  6
CONTINUOUS
 62
     2
 10
91.500000
 20
98.730000
 11
88.270000
 21
99.390000
  0
LINE
  8
0
  6
CONTINUOUS
 62
     2
 10
88.270000
 20
99.390000
 11
85.610000
 21
101.320000
  0
LINE
  8
0
  6
CONTINUOUS
 62
     2
 10
85.610000
 20
101.320000
 11
58.991000
 21
130.350000
  0
LINE
  8
0
  6
CONTINUOUS
 62
     2
 10
58.991000
 20
130.350000
 11
58.991000
 21
131.830000
  0
LINE
  8
0
  6
CONTINUOUS
 62
     2
 10
58.991000
 20
131.830000
 11
53.270000
 21
138.070000
  0
LINE
  8
0
  6
CONTINUOUS
 62
     2
 10
53.270000
 20
138.070000
 11
52.360000
 21
138.890000
  0
LINE
  8
0
  6
CONTINUOUS
 62
     2
 10
52.360000
 20
138.890000
 11
51.270000
 21
139.500000
  0
LINE
  8
0
  6
CONTINUOUS
 62
     2
 10
51.270000
 20
139.500000
 11
50.100000
 21
139.880000
  0
LINE
  8
0
  6
CONTINUOUS
 62
     2
 10
50.100000
 20
139.880000
 11
48.850000
 21
140.000000
  0
LINE
  8
0
  6
CONTINUOUS
 62
     2
 10
48.850000
 20
140.000000
 11
44.000000
 21
140.000000
  0
LINE
  8
0
  6
CONTINUOUS
 62
     2
 10
44.000000
 20
140.000000
 11
44.000000
 21
65.000000
  0
LINE
  8
0
  6
CONTINUOUS
 62
     2
 10
44.000000
 20
65.000000
 11
59.500000
 21
65.000000
  0
LINE
  8
0
  6
CONTINUOUS
 62
     2
 10
59.500000
 20
65.000000
 11
61.500000
 21
63.020000
  0
LINE
  8
0
  6
CONTINUOUS
 62
     2
 10
61.500000
 20
63.020000
 11
61.500000
 21
45.010000
  0
LINE
  8
0
  6
CONTINUOUS
 62
     2
 10
271.500000
 20
0.000000
 11
391.500000
 21
0.000000
  0
LINE
  8
0
  6
CONTINUOUS
 62
     2
 10
391.500000
 20
0.000000
 11
391.500000
 21
20.000000
  0
LINE
  8
0
  6
CONTINUOUS
 62
     2
 10
391.500000
 20
20.000000
 11
419.000000
 21
20.000000
  0
LINE
  8
0
  6
CONTINUOUS
 62
     2
 10
419.000000
 20
20.000000
 11
424.000000
 21
25.000000
  0
LINE
  8
0
  6
CONTINUOUS
 62
     2
 10
424.000000
 20
25.000000
 11
424.000000
 21
140.000000
  0
LINE
  8
0
  6
CONTINUOUS
 62
     2
 10
424.000000
 20
140.000000
 11
416.600000
 21
140.000000
  0
LINE
  8
0
  6
CONTINUOUS
 62
     2
 10
416.600000
 20
140.000000
 11
414.700000
 21
139.800000
  0
LINE
  8
0
  6
CONTINUOUS
 62
     2
 10
414.700000
 20
139.800000
 11
412.900000
 21
139.300000
  0
LINE
  8
0
  6
CONTINUOUS
 62
     2
 10
412.900000
 20
139.300000
 11
411.100000
 21
138.500000
  0
LINE
  8
0
  6
CONTINUOUS
 62
     2
 10
411.100000
 20
138.500000
 11
409.600000
 21
137.400000
  0
LINE
  8
0
  6
CONTINUOUS
 62
     2
 10
409.600000
 20
137.400000
 11
408.200000
 21
136.000000
  0
LINE
  8
0
  6
CONTINUOUS
 62
     2
 10
408.200000
 20
136.000000
 11
398.000000
 21
123.900000
  0
LINE
  8
0
  6
CONTINUOUS
 62
     2
 10
398.000000
 20
123.900000
 11
398.000000
 21
120.800000
  0
LINE
  8
0
  6
CONTINUOUS
 62
     2
 10
398.000000
 20
120.800000
 11
331.500000
 21
41.500000
  0
LINE
  8
0
  6
CONTINUOUS
 62
     2
 10
331.500000
 20
41.500000
 11
265.000000
 21
120.800000
  0
LINE
  8
0
  6
CONTINUOUS
 62
     2
 10
265.000000
 20
120.800000
 11
265.000000
 21
123.900000
  0
LINE
  8
0
  6
CONTINUOUS
 62
     2
 10
265.000000
 20
123.900000
 11
254.800000
 21
136.000000
  0
LINE
  8
0
  6
CONTINUOUS
 62
     2
 10
254.800000
 20
136.000000
 11
253.400000
 21
137.400000
  0
LINE
  8
0
  6
CONTINUOUS
 62
     2
 10
253.400000
 20
137.400000
 11
251.900000
 21
138.500000
  0
LINE
  8
0
  6
CONTINUOUS
 62
     2
 10
251.900000
 20
138.500000
 11
250.100000
 21
139.300000
  0
LINE
  8
0
  6
CONTINUOUS
 62
     2
 10
250.100000
 20
139.300000
 11
248.300000
 21
139.800000
  0
LINE
  8
0
  6
CONTINUOUS
 62
     2
 10
248.300000
 20
139.800000
 11
246.400000
 21
140.000000
  0
LINE
  8
0
  6
CONTINUOUS
 62
     2
 10
246.400000
 20
140.000000
 11
239.000000
 21
140.000000
  0
LINE
  8
0
  6
CONTINUOUS
 62
     2
 10
239.000000
 20
140.000000
 11
239.000000
 21
25.000000
  0
LINE
  8
0
  6
CONTINUOUS
 62
     2
 10
239.000000
 20
25.000000
 11
244.000000
 21
20.000000
  0
LINE
  8
0
  6
CONTINUOUS
 62
     2
 10
244.000000
 20
20.000000
 11
271.500000
 21
20.000000
  0
LINE
  8
0
  6
CONTINUOUS
 62
     2
 10
271.500000
 20
20.000000
 11
271.500000
 21
0.000000
  0
LINE
  8
0
  6
CONTINUOUS
 62
     2
 10
553.990000
 20
30.000000
 11
613.990000
 21
30.000000
  0
LINE
  8
0
  6
CONTINUOUS
 62
     2
 10
613.990000
 20
30.000000
 11
613.990000
 21
48.000000
  0
LINE
  8
0
  6
CONTINUOUS
 62
     2
 10
613.990000
 20
48.000000
 11
615.990000
 21
49.980000
  0
LINE
  8
0
  6
CONTINUOUS
 62
     2
 10
615.990000
 20
49.980000
 11
643.980000
 21
49.980000
  0
LINE
  8
0
  6
CONTINUOUS
 62
     2
 10
643.980000
 20
49.980000
 11
643.980000
 21
140.000000
  0
LINE
  8
0
  6
CONTINUOUS
 62
     2
 10
643.980000
 20
140.000000
 11
637.080000
 21
140.000000
  0
LINE
  8
0
  6
CONTINUOUS
 62
     2
 10
637.080000
 20
140.000000
 11
635.630000
 21
139.850000
  0
LINE
  8
0
  6
CONTINUOUS
 62
     2
 10
635.630000
 20
139.850000
 11
634.260000
 21
139.390000
  0
LINE
  8
0
  6
CONTINUOUS
 62
     2
 10
634.260000
 20
139.390000
 11
632.990000
 21
138.680000
  0
LINE
  8
0
  6
CONTINUOUS
 62
     2
 10
632.990000
 20
138.680000
 11
631.890000
 21
137.710000
  0
LINE
  8
0
  6
CONTINUOUS
 62
     2
 10
631.890000
 20
137.710000
 11
624.990000
 21
130.170000
  0
LINE
  8
0
  6
CONTINUOUS
 62
     2
 10
624.990000
 20
130.170000
 11
624.990000
 21
127.200000
  0
LINE
  8
0
  6
CONTINUOUS
 62
     2
 10
624.990000
 20
127.200000
 11
591.360000
 21
90.520000
  0
LINE
  8
0
  6
CONTINUOUS
 62
     2
 10
591.360000
 20
90.520000
 11
588.000000
 21
88.110000
  0
LINE
  8
0
  6
CONTINUOUS
 62
     2
 10
588.000000
 20
88.110000
 11
583.990000
 21
87.270000
  0
LINE
  8
0
  6
CONTINUOUS
 62
     2
 10
583.990000
 20
87.270000
 11
579.950000
 21
88.110000
  0
LINE
  8
0
  6
CONTINUOUS
 62
     2
 10
579.950000
 20
88.110000
 11
576.620000
 21
90.520000
  0
LINE
  8
0
  6
CONTINUOUS
 62
     2
 10
576.620000
 20
90.520000
 11
542.990000
 21
127.200000
  0
LINE
  8
0
  6
CONTINUOUS
 62
     2
 10
542.990000
 20
127.200000
 11
542.990000
 21
130.170000
  0
LINE
  8
0
  6
CONTINUOUS
 62
     2
 10
542.990000
 20
130.170000
 11
536.060000
 21
137.710000
  0
LINE
  8
0
  6
CONTINUOUS
 62
     2
 10
536.060000
 20
137.710000
 11
534.990000
 21
138.680000
  0
LINE
  8
0
  6
CONTINUOUS
 62
     2
 10
534.990000
 20
138.680000
 11
533.720000
 21
139.390000
  0
LINE
  8
0
  6
CONTINUOUS
 62
     2
 10
533.720000
 20
139.390000
 11
532.350000
 21
139.850000
  0
LINE
  8
0
  6
CONTINUOUS
 62
     2
 10
532.350000
 20
139.850000
 11
530.900000
 21
140.000000
  0
LINE
  8
0
  6
CONTINUOUS
 62
     2
 10
530.900000
 20
140.000000
 11
524.000000
 21
140.000000
  0
LINE
  8
0
  6
CONTINUOUS
 62
     2
 10
524.000000
 20
140.000000
 11
524.000000
 21
49.980000
  0
LINE
  8
0
  6
CONTINUOUS
 62
     2
 10
524.000000
 20
49.980000
 11
551.990000
 21
49.980000
  0
LINE
  8
0
  6
CONTINUOUS
 62
     2
 10
551.990000
 20
49.980000
 11
553.990000
 21
48.000000
  0
LINE
  8
0
  6
CONTINUOUS
 62
     2
 10
553.990000
 20
48.000000
 11
553.990000
 21
30.000000
  0
LINE
  8
0
  6
CONTINUOUS
 62
     2
 10
1024.832578
 20
91.096286
 11
1084.832578
 21
91.096286
  0
LINE
  8
0
  6
CONTINUOUS
 62
     2
 10
1084.832578
 20
91.096286
 11
1084.832578
 21
151.086286
  0
LINE
  8
0
  6
CONTINUOUS
 62
     2
 10
1084.832578
 20
151.086286
 11
1072.582578
 21
151.086286
  0
LINE
  8
0
  6
CONTINUOUS
 62
     2
 10
1072.582578
 20
151.086286
 11
1071.772578
 21
151.006286
  0
LINE
  8
0
  6
CONTINUOUS
 62
     2
 10
1071.772578
 20
151.006286
 11
1070.981578
 21
150.756286
  0
LINE
  8
0
  6
CONTINUOUS
 62
     2
 10
1070.981578
 20
150.756286
 11
1070.252578
 21
150.346286
  0
LINE
  8
0
  6
CONTINUOUS
 62
     2
 10
1070.252578
 20
150.346286
 11
1069.642578
 21
149.786286
  0
LINE
  8
0
  6
CONTINUOUS
 62
     2
 10
1069.642578
 20
149.786286
 11
1066.822578
 21
146.716286
  0
LINE
  8
0
  6
CONTINUOUS
 62
     2
 10
1066.822578
 20
146.716286
 11
1066.822578
 21
145.246286
  0
LINE
  8
0
  6
CONTINUOUS
 62
     2
 10
1066.822578
 20
145.246286
 11
1057.042578
 21
134.576286
  0
LINE
  8
0
  6
CONTINUOUS
 62
     2
 10
1057.042578
 20
134.576286
 11
1056.022578
 21
133.836286
  0
LINE
  8
0
  6
CONTINUOUS
 62
     2
 10
1056.022578
 20
133.836286
 11
1054.832578
 21
133.586286
  0
LINE
  8
0
  6
CONTINUOUS
 62
     2
 10
1054.832578
 20
133.586286
 11
1053.612578
 21
133.836286
  0
LINE
  8
0
  6
CONTINUOUS
 62
     2
 10
1053.612578
 20
133.836286
 11
1052.622578
 21
134.576286
  0
LINE
  8
0
  6
CONTINUOUS
 62
     2
 10
1052.622578
 20
134.576286
 11
1042.822578
 21
145.246286
  0
LINE
  8
0
  6
CONTINUOUS
 62
     2
 10
1042.822578
 20
145.246286
 11
1042.822578
 21
146.716286
  0
LINE
  8
0
  6
CONTINUOUS
 62
     2
 10
1042.822578
 20
146.716286
 11
1040.022578
 21
149.786286
  0
LINE
  8
0
  6
CONTINUOUS
 62
     2
 10
1040.022578
 20
149.786286
 11
1039.392578
 21
150.346286
  0
LINE
  8
0
  6
CONTINUOUS
 62
     2
 10
1039.392578
 20
150.346286
 11
1038.683578
 21
150.756286
  0
LINE
  8
0
  6
CONTINUOUS
 62
     2
 10
1038.683578
 20
150.756286
 11
1037.892578
 21
151.006286
  0
LINE
  8
0
  6
CONTINUOUS
 62
     2
 10
1037.892578
 20
151.006286
 11
1037.082578
 21
151.086286
  0
LINE
  8
0
  6
CONTINUOUS
 62
     2
 10
1037.082578
 20
151.086286
 11
1024.832578
 21
151.086286
  0
LINE
  8
0
  6
CONTINUOUS
 62
     2
 10
1024.832578
 20
151.086286
 11
1024.832578
 21
91.096286
  0
LINE
  8
0
  6
CONTINUOUS
 62
     2
 10
1184.832578
 20
91.086286
 11
1244.822578
 21
91.086286
  0
LINE
  8
0
  6
CONTINUOUS
 62
     2
 10
1244.822578
 20
91.086286
 11
1244.822578
 21
151.086286
  0
LINE
  8
0
  6
CONTINUOUS
 62
     2
 10
1244.822578
 20
151.086286
 11
1236.592578
 21
151.086286
  0
LINE
  8
0
  6
CONTINUOUS
 62
     2
 10
1236.592578
 20
151.086286
 11
1235.752578
 21
151.006286
  0
LINE
  8
0
  6
CONTINUOUS
 62
     2
 10
1235.752578
 20
151.006286
 11
1234.972578
 21
150.756286
  0
LINE
  8
0
  6
CONTINUOUS
 62
     2
 10
1234.972578
 20
150.756286
 11
1234.262578
 21
150.346286
  0
LINE
  8
0
  6
CONTINUOUS
 62
     2
 10
1234.262578
 20
150.346286
 11
1233.622578
 21
149.786286
  0
LINE
  8
0
  6
CONTINUOUS
 62
     2
 10
1233.622578
 20
149.786286
 11
1230.832578
 21
146.716286
  0
LINE
  8
0
  6
CONTINUOUS
 62
     2
 10
1230.832578
 20
146.716286
 11
1230.832578
 21
145.246286
  0
LINE
  8
0
  6
CONTINUOUS
 62
     2
 10
1230.832578
 20
145.246286
 11
1217.772578
 21
130.986286
  0
LINE
  8
0
  6
CONTINUOUS
 62
     2
 10
1217.772578
 20
130.986286
 11
1216.432578
 21
130.056286
  0
LINE
  8
0
  6
CONTINUOUS
 62
     2
 10
1216.432578
 20
130.056286
 11
1214.822578
 21
129.696286
  0
LINE
  8
0
  6
CONTINUOUS
 62
     2
 10
1214.822578
 20
129.696286
 11
1213.202578
 21
130.056286
  0
LINE
  8
0
  6
CONTINUOUS
 62
     2
 10
1213.202578
 20
130.056286
 11
1211.882578
 21
130.986286
  0
LINE
  8
0
  6
CONTINUOUS
 62
     2
 10
1211.882578
 20
130.986286
 11
1198.822578
 21
145.246286
  0
LINE
  8
0
  6
CONTINUOUS
 62
     2
 10
1198.822578
 20
145.246286
 11
1198.822578
 21
146.716286
  0
LINE
  8
0
  6
CONTINUOUS
 62
     2
 10
1198.822578
 20
146.716286
 11
1196.002578
 21
149.786286
  0
LINE
  8
0
  6
CONTINUOUS
 62
     2
 10
1196.002578
 20
149.786286
 11
1195.392578
 21
150.346286
  0
LINE
  8
0
  6
CONTINUOUS
 62
     2
 10
1195.392578
 20
150.346286
 11
1194.682578
 21
150.756286
  0
LINE
  8
0
  6
CONTINUOUS
 62
     2
 10
1194.682578
 20
150.756286
 11
1193.902578
 21
151.006286
  0
LINE
  8
0
  6
CONTINUOUS
 62
     2
 10
1193.902578
 20
151.006286
 11
1193.082578
 21
151.086286
  0
LINE
  8
0
  6
CONTINUOUS
 62
     2
 10
1193.082578
 20
151.086286
 11
1184.832578
 21
151.086286
  0
LINE
  8
0
  6
CONTINUOUS
 62
     2
 10
1184.832578
 20
151.086286
 11
1184.832578
 21
91.086286
  0
LINE
  8
0
  6
CONTINUOUS
 62
     2
 10
1344.822578
 20
91.096286
 11
1404.822578
 21
91.096286
  0
LINE
  8
0
  6
CONTINUOUS
 62
     2
 10
1404.822578
 20
91.096286
 11
1404.822578
 21
151.086286
  0
LINE
  8
0
  6
CONTINUOUS
 62
     2
 10
1404.822578
 20
151.086286
 11
1401.572578
 21
151.086286
  0
LINE
  8
0
  6
CONTINUOUS
 62
     2
 10
1401.572578
 20
151.086286
 11
1400.752578
 21
151.016286
  0
LINE
  8
0
  6
CONTINUOUS
 62
     2
 10
1400.752578
 20
151.016286
 11
1399.972578
 21
150.766286
  0
LINE
  8
0
  6
CONTINUOUS
 62
     2
 10
1399.972578
 20
150.766286
 11
1399.252578
 21
150.356286
  0
LINE
  8
0
  6
CONTINUOUS
 62
     2
 10
1399.252578
 20
150.356286
 11
1398.622578
 21
149.796286
  0
LINE
  8
0
  6
CONTINUOUS
 62
     2
 10
1398.622578
 20
149.796286
 11
1394.812578
 21
145.626286
  0
LINE
  8
0
  6
CONTINUOUS
 62
     2
 10
1394.812578
 20
145.626286
 11
1394.812578
 21
144.156286
  0
LINE
  8
0
  6
CONTINUOUS
 62
     2
 10
1394.812578
 20
144.156286
 11
1378.502578
 21
126.356286
  0
LINE
  8
0
  6
CONTINUOUS
 62
     2
 10
1378.502578
 20
126.356286
 11
1376.831578
 21
125.156286
  0
LINE
  8
0
  6
CONTINUOUS
 62
     2
 10
1376.831578
 20
125.156286
 11
1374.822578
 21
124.726286
  0
LINE
  8
0
  6
CONTINUOUS
 62
     2
 10
1374.822578
 20
124.726286
 11
1372.813578
 21
125.156286
  0
LINE
  8
0
  6
CONTINUOUS
 62
     2
 10
1372.813578
 20
125.156286
 11
1371.142578
 21
126.356286
  0
LINE
  8
0
  6
CONTINUOUS
 62
     2
 10
1371.142578
 20
126.356286
 11
1354.802578
 21
144.156286
  0
LINE
  8
0
  6
CONTINUOUS
 62
     2
 10
1354.802578
 20
144.156286
 11
1354.802578
 21
145.626286
  0
LINE
  8
0
  6
CONTINUOUS
 62
     2
 10
1354.802578
 20
145.626286
 11
1351.002578
 21
149.796286
  0
LINE
  8
0
  6
CONTINUOUS
 62
     2
 10
1351.002578
 20
149.796286
 11
1350.392578
 21
150.356286
  0
LINE
  8
0
  6
CONTINUOUS
 62
     2
 10
1350.392578
 20
150.356286
 11
1349.672578
 21
150.766286
  0
LINE
  8
0
  6
CONTINUOUS
 62
     2
 10
1349.672578
 20
150.766286
 11
1348.892578
 21
151.016286
  0
LINE
  8
0
  6
CONTINUOUS
 62
     2
 10
1348.892578
 20
151.016286
 11
1348.052578
 21
151.086286
  0
LINE
  8
0
  6
CONTINUOUS
 62
     2
 10
1348.052578
 20
151.086286
 11
1344.822578
 21
151.086286
  0
LINE
  8
0
  6
CONTINUOUS
 62
     2
 10
1344.822578
 20
151.086286
 11
1344.822578
 21
91.096286
  0
LINE
  8
0
  6
CONTINUOUS
 62
     2
 10
1514.832578
 20
76.086286
 11
1574.832578
 21
76.086286
  0
LINE
  8
0
  6
CONTINUOUS
 62
     2
 10
1574.832578
 20
76.086286
 11
1574.832578
 21
96.066286
  0
LINE
  8
0
  6
CONTINUOUS
 62
     2
 10
1574.832578
 20
96.066286
 11
1584.842578
 21
96.066286
  0
LINE
  8
0
  6
CONTINUOUS
 62
     2
 10
1584.842578
 20
96.066286
 11
1584.842578
 21
151.086286
  0
LINE
  8
0
  6
CONTINUOUS
 62
     2
 10
1584.842578
 20
151.086286
 11
1578.542578
 21
151.086286
  0
LINE
  8
0
  6
CONTINUOUS
 62
     2
 10
1578.542578
 20
151.086286
 11
1577.491578
 21
150.986286
  0
LINE
  8
0
  6
CONTINUOUS
 62
     2
 10
1577.491578
 20
150.986286
 11
1576.532578
 21
150.656286
  0
LINE
  8
0
  6
CONTINUOUS
 62
     2
 10
1576.532578
 20
150.656286
 11
1575.622578
 21
150.146286
  0
LINE
  8
0
  6
CONTINUOUS
 62
     2
 10
1575.622578
 20
150.146286
 11
1574.852578
 21
149.456286
  0
LINE
  8
0
  6
CONTINUOUS
 62
     2
 10
1574.852578
 20
149.456286
 11
1571.352578
 21
145.626286
  0
LINE
  8
0
  6
CONTINUOUS
 62
     2
 10
1571.352578
 20
145.626286
 11
1571.352578
 21
144.156286
  0
LINE
  8
0
  6
CONTINUOUS
 62
     2
 10
1571.352578
 20
144.156286
 11
1549.252578
 21
120.046286
  0
LINE
  8
0
  6
CONTINUOUS
 62
     2
 10
1549.252578
 20
120.046286
 11
1547.242578
 21
118.626286
  0
LINE
  8
0
  6
CONTINUOUS
 62
     2
 10
1547.242578
 20
118.626286
 11
1544.832578
 21
118.116286
  0
LINE
  8
0
  6
CONTINUOUS
 62
     2
 10
1544.832578
 20
118.116286
 11
1542.422578
 21
118.626286
  0
LINE
  8
0
  6
CONTINUOUS
 62
     2
 10
1542.422578
 20
118.626286
 11
1540.412578
 21
120.046286
  0
LINE
  8
0
  6
CONTINUOUS
 62
     2
 10
1540.412578
 20
120.046286
 11
1518.342578
 21
144.156286
  0
LINE
  8
0
  6
CONTINUOUS
 62
     2
 10
1518.342578
 20
144.156286
 11
1518.342578
 21
145.626286
  0
LINE
  8
0
  6
CONTINUOUS
 62
     2
 10
1518.342578
 20
145.626286
 11
1514.832578
 21
149.456286
  0
LINE
  8
0
  6
CONTINUOUS
 62
     2
 10
1514.832578
 20
149.456286
 11
1514.042578
 21
150.146286
  0
LINE
  8
0
  6
CONTINUOUS
 62
     2
 10
1514.042578
 20
150.146286
 11
1513.162578
 21
150.656286
  0
LINE
  8
0
  6
CONTINUOUS
 62
     2
 10
1513.162578
 20
150.656286
 11
1512.173578
 21
150.986286
  0
LINE
  8
0
  6
CONTINUOUS
 62
     2
 10
1512.173578
 20
150.986286
 11
1511.122578
 21
151.086286
  0
LINE
  8
0
  6
CONTINUOUS
 62
     2
 10
1511.122578
 20
151.086286
 11
1504.822578
 21
151.086286
  0
LINE
  8
0
  6
CONTINUOUS
 62
     2
 10
1504.822578
 20
151.086286
 11
1504.822578
 21
96.066286
  0
LINE
  8
0
  6
CONTINUOUS
 62
     2
 10
1504.822578
 20
96.066286
 11
1514.832578
 21
96.066286
  0
LINE
  8
0
  6
CONTINUOUS
 62
     2
 10
1514.832578
 20
96.066286
 11
1514.832578
 21
76.086286
  0
LINE
  8
0
  6
CONTINUOUS
 62
     2
 10
1716.842578
 20
28.086286
 11
1806.832578
 21
28.086286
  0
LINE
  8
0
  6
CONTINUOUS
 62
     2
 10
1806.832578
 20
28.086286
 11
1806.832578
 21
46.096286
  0
LINE
  8
0
  6
CONTINUOUS
 62
     2
 10
1806.832578
 20
46.096286
 11
1808.842578
 21
48.086286
  0
LINE
  8
0
  6
CONTINUOUS
 62
     2
 10
1808.842578
 20
48.086286
 11
1838.842578
 21
48.086286
  0
LINE
  8
0
  6
CONTINUOUS
 62
     2
 10
1838.842578
 20
48.086286
 11
1838.842578
 21
151.086286
  0
LINE
  8
0
  6
CONTINUOUS
 62
     2
 10
1838.842578
 20
151.086286
 11
1828.522578
 21
151.086286
  0
LINE
  8
0
  6
CONTINUOUS
 62
     2
 10
1828.522578
 20
151.086286
 11
1826.602578
 21
150.876286
  0
LINE
  8
0
  6
CONTINUOUS
 62
     2
 10
1826.602578
 20
150.876286
 11
1824.742578
 21
150.236286
  0
LINE
  8
0
  6
CONTINUOUS
 62
     2
 10
1824.742578
 20
150.236286
 11
1823.062578
 21
149.226286
  0
LINE
  8
0
  6
CONTINUOUS
 62
     2
 10
1823.062578
 20
149.226286
 11
1821.642578
 21
147.876286
  0
LINE
  8
0
  6
CONTINUOUS
 62
     2
 10
1821.642578
 20
147.876286
 11
1813.842578
 21
138.586286
  0
LINE
  8
0
  6
CONTINUOUS
 62
     2
 10
1813.842578
 20
138.586286
 11
1813.842578
 21
135.456286
  0
LINE
  8
0
  6
CONTINUOUS
 62
     2
 10
1813.842578
 20
135.456286
 11
1786.362578
 21
102.716286
  0
LINE
  8
0
  6
CONTINUOUS
 62
     2
 10
1786.362578
 20
102.716286
 11
1775.362578
 21
94.286286
  0
LINE
  8
0
  6
CONTINUOUS
 62
     2
 10
1775.362578
 20
94.286286
 11
1761.852578
 21
91.286286
  0
LINE
  8
0
  6
CONTINUOUS
 62
     2
 10
1761.852578
 20
91.286286
 11
1748.312578
 21
94.286286
  0
LINE
  8
0
  6
CONTINUOUS
 62
     2
 10
1748.312578
 20
94.286286
 11
1737.312578
 21
102.716286
  0
LINE
  8
0
  6
CONTINUOUS
 62
     2
 10
1737.312578
 20
102.716286
 11
1709.832578
 21
135.456286
  0
LINE
  8
0
  6
CONTINUOUS
 62
     2
 10
1709.832578
 20
135.456286
 11
1709.832578
 21
138.586286
  0
LINE
  8
0
  6
CONTINUOUS
 62
     2
 10
1709.832578
 20
138.586286
 11
1702.032578
 21
147.876286
  0
LINE
  8
0
  6
CONTINUOUS
 62
     2
 10
1702.032578
 20
147.876286
 11
1700.612578
 21
149.226286
  0
LINE
  8
0
  6
CONTINUOUS
 62
     2
 10
1700.612578
 20
149.226286
 11
1698.932578
 21
150.236286
  0
LINE
  8
0
  6
CONTINUOUS
 62
     2
 10
1698.932578
 20
150.236286
 11
1697.083578
 21
150.876286
  0
LINE
  8
0
  6
CONTINUOUS
 62
     2
 10
1697.083578
 20
150.876286
 11
1695.152578
 21
151.086286
  0
LINE
  8
0
  6
CONTINUOUS
 62
     2
 10
1695.152578
 20
151.086286
 11
1684.842578
 21
151.086286
  0
LINE
  8
0
  6
CONTINUOUS
 62
     2
 10
1684.842578
 20
151.086286
 11
1684.842578
 21
48.086286
  0
LINE
  8
0
  6
CONTINUOUS
 62
     2
 10
1684.842578
 20
48.086286
 11
1714.832578
 21
48.086286
  0
LINE
  8
0
  6
CONTINUOUS
 62
     2
 10
1714.832578
 20
48.086286
 11
1716.842578
 21
46.096286
  0
LINE
  8
0
  6
CONTINUOUS
 62
     2
 10
1716.842578
 20
46.096286
 11
1716.842578
 21
28.086286
  0
LINE
  8
0
  6
CONTINUOUS
 62
     2
 10
887.694461
 20
466.649956
 11
893.974461
 21
473.149956
  0
LINE
  8
0
  6
CONTINUOUS
 62
     2
 10
893.974461
 20
473.149956
 11
869.524461
 21
515.509956
  0
LINE
  8
0
  6
CONTINUOUS
 62
     2
 10
869.524461
 20
515.509956
 11
866.914461
 21
523.769956
  0
LINE
  8
0
  6
CONTINUOUS
 62
     2
 10
866.914461
 20
523.769956
 11
868.044461
 21
532.349956
  0
LINE
  8
0
  6
CONTINUOUS
 62
     2
 10
868.044461
 20
532.349956
 11
872.704461
 21
539.659956
  0
LINE
  8
0
  6
CONTINUOUS
 62
     2
 10
872.704461
 20
539.659956
 11
894.694461
 21
561.649956
  0
LINE
  8
0
  6
CONTINUOUS
 62
     2
 10
894.694461
 20
561.649956
 11
894.694461
 21
571.649956
  0
LINE
  8
0
  6
CONTINUOUS
 62
     2
 10
894.694461
 20
571.649956
 11
880.694461
 21
571.649956
  0
LINE
  8
0
  6
CONTINUOUS
 62
     2
 10
880.694461
 20
571.649956
 11
880.694461
 21
601.649956
  0
LINE
  8
0
  6
CONTINUOUS
 62
     2
 10
880.694461
 20
601.649956
 11
867.694461
 21
601.649956
  0
LINE
  8
0
  6
CONTINUOUS
 62
     2
 10
867.694461
 20
601.649956
 11
867.694461
 21
571.649956
  0
LINE
  8
0
  6
CONTINUOUS
 62
     2
 10
867.694461
 20
571.649956
 11
850.694461
 21
571.649956
  0
LINE
  8
0
  6
CONTINUOUS
 62
     2
 10
850.694461
 20
571.649956
 11
838.694461
 21
559.649956
  0
LINE
  8
0
  6
CONTINUOUS
 62
     2
 10
838.694461
 20
559.649956
 11
838.694461
 21
518.789956
  0
LINE
  8
0
  6
CONTINUOUS
 62
     2
 10
838.694461
 20
518.789956
 11
882.164461
 21
473.819956
  0
LINE
  8
0
  6
CONTINUOUS
 62
     2
 10
882.164461
 20
473.819956
 11
881.444461
 21
473.119956
  0
LINE
  8
0
  6
CONTINUOUS
 62
     2
 10
881.444461
 20
473.119956
 11
887.694461
 21
466.649956
  0
LINE
  8
0
  6
CONTINUOUS
 62
     2
 10
1052.084461
 20
451.649956
 11
1058.334461
 21
458.119956
  0
LINE
  8
0
  6
CONTINUOUS
 62
     2
 10
1058.334461
 20
458.119956
 11
1020.394461
 21
521.989956
  0
LINE
  8
0
  6
CONTINUOUS
 62
     2
 10
1020.394461
 20
521.989956
 11
1018.384461
 21
529.489956
  0
LINE
  8
0
  6
CONTINUOUS
 62
     2
 10
1018.384461
 20
529.489956
 11
1020.394461
 21
536.989956
  0
LINE
  8
0
  6
CONTINUOUS
 62
     2
 10
1020.394461
 20
536.989956
 11
1025.884461
 21
542.479956
  0
LINE
  8
0
  6
CONTINUOUS
 62
     2
 10
1025.884461
 20
542.479956
 11
1059.084461
 21
561.649956
  0
LINE
  8
0
  6
CONTINUOUS
 62
     2
 10
1059.084461
 20
561.649956
 11
1059.084461
 21
571.649956
  0
LINE
  8
0
  6
CONTINUOUS
 62
     2
 10
1059.084461
 20
571.649956
 11
1045.084461
 21
571.649956
  0
LINE
  8
0
  6
CONTINUOUS
 62
     2
 10
1045.084461
 20
571.649956
 11
1045.084461
 21
601.649956
  0
LINE
  8
0
  6
CONTINUOUS
 62
     2
 10
1045.084461
 20
601.649956
 11
1032.084461
 21
601.649956
  0
LINE
  8
0
  6
CONTINUOUS
 62
     2
 10
1032.084461
 20
601.649956
 11
1032.084461
 21
571.649956
  0
LINE
  8
0
  6
CONTINUOUS
 62
     2
 10
1032.084461
 20
571.649956
 11
1004.694461
 21
571.649956
  0
LINE
  8
0
  6
CONTINUOUS
 62
     2
 10
1004.694461
 20
571.649956
 11
994.694461
 21
561.649956
  0
LINE
  8
0
  6
CONTINUOUS
 62
     2
 10
994.694461
 20
561.649956
 11
994.694461
 21
512.469956
  0
LINE
  8
0
  6
CONTINUOUS
 62
     2
 10
994.694461
 20
512.469956
 11
1046.554461
 21
458.819956
  0
LINE
  8
0
  6
CONTINUOUS
 62
     2
 10
1046.554461
 20
458.819956
 11
1045.834461
 21
458.119956
  0
LINE
  8
0
  6
CONTINUOUS
 62
     2
 10
1045.834461
 20
458.119956
 11
1052.084461
 21
451.649956
  0
LINE
  8
0
  6
CONTINUOUS
 62
     2
 10
3380.047911
 20
75.211861
 11
3440.047911
 21
75.211861
  0
LINE
  8
0
  6
CONTINUOUS
 62
     2
 10
3440.047911
 20
75.211861
 11
3440.047911
 21
90.211861
  0
LINE
  8
0
  6
CONTINUOUS
 62
     2
 10
3440.047911
 20
90.211861
 11
3422.547911
 21
90.211861
  0
LINE
  8
0
  6
CONTINUOUS
 62
     2
 10
3422.547911
 20
90.211861
 11
3422.547911
 21
136.711861
  0
LINE
  8
0
  6
CONTINUOUS
 62
     2
 10
3422.547911
 20
136.711861
 11
3417.047911
 21
136.711861
  0
LINE
  8
0
  6
CONTINUOUS
 62
     2
 10
3417.047911
 20
136.711861
 11
3417.047911
 21
126.711861
  0
LINE
  8
0
  6
CONTINUOUS
 62
     2
 10
3417.047911
 20
126.711861
 11
3403.047911
 21
126.711861
  0
LINE
  8
0
  6
CONTINUOUS
 62
     2
 10
3403.047911
 20
126.711861
 11
3403.047911
 21
136.711861
  0
LINE
  8
0
  6
CONTINUOUS
 62
     2
 10
3403.047911
 20
136.711861
 11
3395.547911
 21
136.711861
  0
LINE
  8
0
  6
CONTINUOUS
 62
     2
 10
3395.547911
 20
136.711861
 11
3395.547911
 21
124.211861
  0
LINE
  8
0
  6
CONTINUOUS
 62
     2
 10
3395.547911
 20
124.211861
 11
3391.547911
 21
124.211861
  0
LINE
  8
0
  6
CONTINUOUS
 62
     2
 10
3391.547911
 20
124.211861
 11
3391.547911
 21
114.211861
  0
LINE
  8
0
  6
CONTINUOUS
 62
     2
 10
3391.547911
 20
114.211861
 11
3395.547911
 21
114.211861
  0
LINE
  8
0
  6
CONTINUOUS
 62
     2
 10
3395.547911
 20
114.211861
 11
3395.547911
 21
109.211861
  0
LINE
  8
0
  6
CONTINUOUS
 62
     2
 10
3395.547911
 20
109.211861
 11
3397.547911
 21
109.211861
  0
LINE
  8
0
  6
CONTINUOUS
 62
     2
 10
3397.547911
 20
109.211861
 11
3397.547911
 21
90.211861
  0
LINE
  8
0
  6
CONTINUOUS
 62
     2
 10
3397.547911
 20
90.211861
 11
3380.047911
 21
90.211861
  0
LINE
  8
0
  6
CONTINUOUS
 62
     2
 10
3380.047911
 20
90.211861
 11
3380.047911
 21
75.211861
  0
LINE
  8
0
  6
CONTINUOUS
 62
     2
 10
1162.011838
 20
504.649956
 11
1169.011838
 21
530.779956
  0
LINE
  8
0
  6
CONTINUOUS
 62
     2
 10
1169.011838
 20
530.779956
 11
1169.011838
 21
570.649956
  0
LINE
  8
0
  6
CONTINUOUS
 62
     2
 10
1169.011838
 20
570.649956
 11
1168.011838
 21
571.649956
  0
LINE
  8
0
  6
CONTINUOUS
 62
     2
 10
1168.011838
 20
571.649956
 11
1155.011838
 21
571.649956
  0
LINE
  8
0
  6
CONTINUOUS
 62
     2
 10
1155.011838
 20
571.649956
 11
1155.011838
 21
600.649956
  0
LINE
  8
0
  6
CONTINUOUS
 62
     2
 10
1155.011838
 20
600.649956
 11
1154.011838
 21
601.649956
  0
LINE
  8
0
  6
CONTINUOUS
 62
     2
 10
1154.011838
 20
601.649956
 11
1143.011838
 21
601.649956
  0
LINE
  8
0
  6
CONTINUOUS
 62
     2
 10
1143.011838
 20
601.649956
 11
1142.011838
 21
600.649956
  0
LINE
  8
0
  6
CONTINUOUS
 62
     2
 10
1142.011838
 20
600.649956
 11
1142.011838
 21
584.149956
  0
LINE
  8
0
  6
CONTINUOUS
 62
     2
 10
1142.011838
 20
584.149956
 11
1145.011838
 21
584.149956
  0
LINE
  8
0
  6
CONTINUOUS
 62
     2
 10
1145.011838
 20
584.149956
 11
1145.011838
 21
576.149956
  0
LINE
  8
0
  6
CONTINUOUS
 62
     2
 10
1145.011838
 20
576.149956
 11
1143.881838
 21
576.149956
  0
LINE
  8
0
  6
CONTINUOUS
 62
     2
 10
1143.881838
 20
576.149956
 11
1155.991838
 21
530.989956
  0
LINE
  8
0
  6
CONTINUOUS
 62
     2
 10
1155.991838
 20
530.989956
 11
1155.021838
 21
530.729956
  0
LINE
  8
0
  6
CONTINUOUS
 62
     2
 10
1155.021838
 20
530.729956
 11
1162.011838
 21
504.649956
  0
LINE
  8
0
  6
CONTINUOUS
 62
     2
 10
1289.011838
 20
504.649956
 11
1296.011838
 21
530.779956
  0
LINE
  8
0
  6
CONTINUOUS
 62
     2
 10
1296.011838
 20
530.779956
 11
1296.011838
 21
570.649956
  0
LINE
  8
0
  6
CONTINUOUS
 62
     2
 10
1296.011838
 20
570.649956
 11
1295.011838
 21
571.649956
  0
LINE
  8
0
  6
CONTINUOUS
 62
     2
 10
1295.011838
 20
571.649956
 11
1282.011838
 21
571.649956
  0
LINE
  8
0
  6
CONTINUOUS
 62
     2
 10
1282.011838
 20
571.649956
 11
1282.011838
 21
600.649956
  0
LINE
  8
0
  6
CONTINUOUS
 62
     2
 10
1282.011838
 20
600.649956
 11
1281.011838
 21
601.649956
  0
LINE
  8
0
  6
CONTINUOUS
 62
     2
 10
1281.011838
 20
601.649956
 11
1270.011838
 21
601.649956
  0
LINE
  8
0
  6
CONTINUOUS
 62
     2
 10
1270.011838
 20
601.649956
 11
1269.011838
 21
600.649956
  0
LINE
  8
0
  6
CONTINUOUS
 62
     2
 10
1269.011838
 20
600.649956
 11
1269.011838
 21
584.149956
  0
LINE
  8
0
  6
CONTINUOUS
 62
     2
 10
1269.011838
 20
584.149956
 11
1272.011838
 21
584.149956
  0
LINE
  8
0
  6
CONTINUOUS
 62
     2
 10
1272.011838
 20
584.149956
 11
1272.011838
 21
576.149956
  0
LINE
  8
0
  6
CONTINUOUS
 62
     2
 10
1272.011838
 20
576.149956
 11
1270.881838
 21
576.149956
  0
LINE
  8
0
  6
CONTINUOUS
 62
     2
 10
1270.881838
 20
576.149956
 11
1282.991838
 21
530.989956
  0
LINE
  8
0
  6
CONTINUOUS
 62
     2
 10
1282.991838
 20
530.989956
 11
1282.021838
 21
530.729956
  0
LINE
  8
0
  6
CONTINUOUS
 62
     2
 10
1282.021838
 20
530.729956
 11
1289.011838
 21
504.649956
  0
LINE
  8
0
  6
CONTINUOUS
 62
     2
 10
1416.011838
 20
476.649956
 11
1419.011838
 21
479.649956
  0
LINE
  8
0
  6
CONTINUOUS
 62
     2
 10
1419.011838
 20
479.649956
 11
1419.011838
 21
542.649956
  0
LINE
  8
0
  6
CONTINUOUS
 62
     2
 10
1419.011838
 20
542.649956
 11
1423.011838
 21
546.649956
  0
LINE
  8
0
  6
CONTINUOUS
 62
     2
 10
1423.011838
 20
546.649956
 11
1423.011838
 21
571.649956
  0
LINE
  8
0
  6
CONTINUOUS
 62
     2
 10
1423.011838
 20
571.649956
 11
1409.011838
 21
571.649956
  0
LINE
  8
0
  6
CONTINUOUS
 62
     2
 10
1409.011838
 20
571.649956
 11
1409.011838
 21
601.649956
  0
LINE
  8
0
  6
CONTINUOUS
 62
     2
 10
1409.011838
 20
601.649956
 11
1396.011838
 21
601.649956
  0
LINE
  8
0
  6
CONTINUOUS
 62
     2
 10
1396.011838
 20
601.649956
 11
1396.011838
 21
559.649956
  0
LINE
  8
0
  6
CONTINUOUS
 62
     2
 10
1396.011838
 20
559.649956
 11
1413.011838
 21
542.649956
  0
LINE
  8
0
  6
CONTINUOUS
 62
     2
 10
1413.011838
 20
542.649956
 11
1413.011838
 21
479.649956
  0
LINE
  8
0
  6
CONTINUOUS
 62
     2
 10
1413.011838
 20
479.649956
 11
1416.011838
 21
476.649956
  0
LINE
  8
0
  6
CONTINUOUS
 62
     2
 10
3900.422021
 20
108.949861
 11
3920.422021
 21
108.949861
  0
LINE
  8
0
  6
CONTINUOUS
 62
     2
 10
3920.422021
 20
108.949861
 11
3920.422021
 21
118.949861
  0
LINE
  8
0
  6
CONTINUOUS
 62
     2
 10
3920.422021
 20
118.949861
 11
3915.922021
 21
118.949861
  0
LINE
  8
0
  6
CONTINUOUS
 62
     2
 10
3915.922021
 20
118.949861
 11
3915.922021
 21
123.949861
  0
LINE
  8
0
  6
CONTINUOUS
 62
     2
 10
3915.922021
 20
123.949861
 11
3904.922021
 21
123.949861
  0
LINE
  8
0
  6
CONTINUOUS
 62
     2
 10
3904.922021
 20
123.949861
 11
3904.922021
 21
118.949861
  0
LINE
  8
0
  6
CONTINUOUS
 62
     2
 10
3904.922021
 20
118.949861
 11
3900.422021
 21
118.949861
  0
LINE
  8
0
  6
CONTINUOUS
 62
     2
 10
3900.422021
 20
118.949861
 11
3900.422021
 21
108.949861
  0
LINE
  8
0
  6
CONTINUOUS
 62
     2
 10
1948.667672
 20
70.310833
 11
1966.167672
 21
70.310833
  0
LINE
  8
0
  6
CONTINUOUS
 62
     2
 10
1966.167672
 20
70.310833
 11
1966.167672
 21
76.310833
  0
LINE
  8
0
  6
CONTINUOUS
 62
     2
 10
1966.167672
 20
76.310833
 11
1981.167672
 21
76.310833
  0
LINE
  8
0
  6
CONTINUOUS
 62
     2
 10
1981.167672
 20
76.310833
 11
1981.167672
 21
70.310833
  0
LINE
  8
0
  6
CONTINUOUS
 62
     2
 10
1981.167672
 20
70.310833
 11
1998.667672
 21
70.310833
  0
LINE
  8
0
  6
CONTINUOUS
 62
     2
 10
1998.667672
 20
70.310833
 11
1998.667672
 21
116.310833
  0
LINE
  8
0
  6
CONTINUOUS
 62
     2
 10
1998.667672
 20
116.310833
 11
1997.167672
 21
116.310833
  0
LINE
  8
0
  6
CONTINUOUS
 62
     2
 10
1997.167672
 20
116.310833
 11
1991.167672
 21
110.100833
  0
LINE
  8
0
  6
CONTINUOUS
 62
     2
 10
1991.167672
 20
110.100833
 11
1985.167672
 21
116.310833
  0
LINE
  8
0
  6
CONTINUOUS
 62
     2
 10
1985.167672
 20
116.310833
 11
1970.667672
 21
116.310833
  0
LINE
  8
0
  6
CONTINUOUS
 62
     2
 10
1970.667672
 20
116.310833
 11
1960.667672
 21
105.960833
  0
LINE
  8
0
  6
CONTINUOUS
 62
     2
 10
1960.667672
 20
105.960833
 11
1950.667672
 21
116.310833
  0
LINE
  8
0
  6
CONTINUOUS
 62
     2
 10
1950.667672
 20
116.310833
 11
1948.667672
 21
116.310833
  0
LINE
  8
0
  6
CONTINUOUS
 62
     2
 10
1948.667672
 20
116.310833
 11
1948.667672
 21
70.310833
  0
LINE
  8
0
  6
CONTINUOUS
 62
     2
 10
2098.667672
 20
70.310833
 11
2116.167672
 21
70.310833
  0
LINE
  8
0
  6
CONTINUOUS
 62
     2
 10
2116.167672
 20
70.310833
 11
2116.167672
 21
76.310833
  0
LINE
  8
0
  6
CONTINUOUS
 62
     2
 10
2116.167672
 20
76.310833
 11
2131.167672
 21
76.310833
  0
LINE
  8
0
  6
CONTINUOUS
 62
     2
 10
2131.167672
 20
76.310833
 11
2131.167672
 21
70.310833
  0
LINE
  8
0
  6
CONTINUOUS
 62
     2
 10
2131.167672
 20
70.310833
 11
2148.667672
 21
70.310833
  0
LINE
  8
0
  6
CONTINUOUS
 62
     2
 10
2148.667672
 20
70.310833
 11
2148.667672
 21
116.310833
  0
LINE
  8
0
  6
CONTINUOUS
 62
     2
 10
2148.667672
 20
116.310833
 11
2147.167672
 21
116.310833
  0
LINE
  8
0
  6
CONTINUOUS
 62
     2
 10
2147.167672
 20
116.310833
 11
2139.167672
 21
108.030833
  0
LINE
  8
0
  6
CONTINUOUS
 62
     2
 10
2139.167672
 20
108.030833
 11
2131.167672
 21
116.310833
  0
LINE
  8
0
  6
CONTINUOUS
 62
     2
 10
2131.167672
 20
116.310833
 11
2125.667672
 21
116.310833
  0
LINE
  8
0
  6
CONTINUOUS
 62
     2
 10
2125.667672
 20
116.310833
 11
2113.167672
 21
103.370833
  0
LINE
  8
0
  6
CONTINUOUS
 62
     2
 10
2113.167672
 20
103.370833
 11
2100.667672
 21
116.310833
  0
LINE
  8
0
  6
CONTINUOUS
 62
     2
 10
2100.667672
 20
116.310833
 11
2098.667672
 21
116.310833
  0
LINE
  8
0
  6
CONTINUOUS
 62
     2
 10
2098.667672
 20
116.310833
 11
2098.667672
 21
70.310833
  0
LINE
  8
0
  6
CONTINUOUS
 62
     2
 10
3509.719613
 20
61.834320
 11
3569.719613
 21
61.834320
  0
LINE
  8
0
  6
CONTINUOUS
 62
     2
 10
3569.719613
 20
61.834320
 11
3569.719613
 21
81.334320
  0
LINE
  8
0
  6
CONTINUOUS
 62
     2
 10
3569.719613
 20
81.334320
 11
3552.719613
 21
81.334320
  0
LINE
  8
0
  6
CONTINUOUS
 62
     2
 10
3552.719613
 20
81.334320
 11
3552.719613
 21
136.834320
  0
LINE
  8
0
  6
CONTINUOUS
 62
     2
 10
3552.719613
 20
136.834320
 11
3510.719613
 21
136.834320
  0
LINE
  8
0
  6
CONTINUOUS
 62
     2
 10
3510.719613
 20
136.834320
 11
3510.719613
 21
81.334320
  0
LINE
  8
0
  6
CONTINUOUS
 62
     2
 10
3510.719613
 20
81.334320
 11
3509.719613
 21
81.334320
  0
LINE
  8
0
  6
CONTINUOUS
 62
     2
 10
3509.719613
 20
81.334320
 11
3509.719613
 21
61.834320
  0
LINE
  8
0
  6
CONTINUOUS
 62
     2
 10
2240.065286
 20
54.787976
 11
2300.065286
 21
54.787976
  0
LINE
  8
0
  6
CONTINUOUS
 62
     2
 10
2300.065286
 20
54.787976
 11
2300.065286
 21
74.767976
  0
LINE
  8
0
  6
CONTINUOUS
 62
     2
 10
2300.065286
 20
74.767976
 11
2310.075286
 21
74.767976
  0
LINE
  8
0
  6
CONTINUOUS
 62
     2
 10
2310.075286
 20
74.767976
 11
2310.075286
 21
134.787976
  0
LINE
  8
0
  6
CONTINUOUS
 62
     2
 10
2310.075286
 20
134.787976
 11
2293.405286
 21
134.787976
  0
LINE
  8
0
  6
CONTINUOUS
 62
     2
 10
2293.405286
 20
134.787976
 11
2291.965286
 21
134.557976
  0
LINE
  8
0
  6
CONTINUOUS
 62
     2
 10
2291.965286
 20
134.557976
 11
2290.635286
 21
133.927976
  0
LINE
  8
0
  6
CONTINUOUS
 62
     2
 10
2290.635286
 20
133.927976
 11
2289.545286
 21
132.957976
  0
LINE
  8
0
  6
CONTINUOUS
 62
     2
 10
2289.545286
 20
132.957976
 11
2288.785286
 21
131.687976
  0
LINE
  8
0
  6
CONTINUOUS
 62
     2
 10
2288.785286
 20
131.687976
 11
2282.565286
 21
116.677976
  0
LINE
  8
0
  6
CONTINUOUS
 62
     2
 10
2282.565286
 20
116.677976
 11
2282.565286
 21
112.737976
  0
LINE
  8
0
  6
CONTINUOUS
 62
     2
 10
2282.565286
 20
112.737976
 11
2276.085286
 21
97.067976
  0
LINE
  8
0
  6
CONTINUOUS
 62
     2
 10
2276.085286
 20
97.067976
 11
2273.675286
 21
94.147976
  0
LINE
  8
0
  6
CONTINUOUS
 62
     2
 10
2273.675286
 20
94.147976
 11
2270.065286
 21
93.057976
  0
LINE
  8
0
  6
CONTINUOUS
 62
     2
 10
2270.065286
 20
93.057976
 11
2266.455286
 21
94.147976
  0
LINE
  8
0
  6
CONTINUOUS
 62
     2
 10
2266.455286
 20
94.147976
 11
2264.075286
 21
97.067976
  0
LINE
  8
0
  6
CONTINUOUS
 62
     2
 10
2264.075286
 20
97.067976
 11
2257.565286
 21
112.737976
  0
LINE
  8
0
  6
CONTINUOUS
 62
     2
 10
2257.565286
 20
112.737976
 11
2257.565286
 21
116.677976
  0
LINE
  8
0
  6
CONTINUOUS
 62
     2
 10
2257.565286
 20
116.677976
 11
2251.345286
 21
131.687976
  0
LINE
  8
0
  6
CONTINUOUS
 62
     2
 10
2251.345286
 20
131.687976
 11
2250.585286
 21
132.957976
  0
LINE
  8
0
  6
CONTINUOUS
 62
     2
 10
2250.585286
 20
132.957976
 11
2249.515286
 21
133.927976
  0
LINE
  8
0
  6
CONTINUOUS
 62
     2
 10
2249.515286
 20
133.927976
 11
2248.165286
 21
134.557976
  0
LINE
  8
0
  6
CONTINUOUS
 62
     2
 10
2248.165286
 20
134.557976
 11
2246.725286
 21
134.787976
  0
LINE
  8
0
  6
CONTINUOUS
 62
     2
 10
2246.725286
 20
134.787976
 11
2230.055286
 21
134.787976
  0
LINE
  8
0
  6
CONTINUOUS
 62
     2
 10
2230.055286
 20
134.787976
 11
2230.055286
 21
74.767976
  0
LINE
  8
0
  6
CONTINUOUS
 62
     2
 10
2230.055286
 20
74.767976
 11
2240.065286
 21
74.767976
  0
LINE
  8
0
  6
CONTINUOUS
 62
     2
 10
2240.065286
 20
74.767976
 11
2240.065286
 21
54.787976
  0
LINE
  8
0
  6
CONTINUOUS
 62
     2
 10
1595.120271
 20
504.060516
 11
1597.950271
 21
506.890516
  0
LINE
  8
0
  6
CONTINUOUS
 62
     2
 10
1597.950271
 20
506.890516
 11
1592.260271
 21
515.420516
  0
LINE
  8
0
  6
CONTINUOUS
 62
     2
 10
1592.260271
 20
515.420516
 11
1590.040271
 21
520.840516
  0
LINE
  8
0
  6
CONTINUOUS
 62
     2
 10
1590.040271
 20
520.840516
 11
1590.070271
 21
526.690516
  0
LINE
  8
0
  6
CONTINUOUS
 62
     2
 10
1590.070271
 20
526.690516
 11
1591.410271
 21
530.500516
  0
LINE
  8
0
  6
CONTINUOUS
 62
     2
 10
1591.410271
 20
530.500516
 11
1601.120271
 21
549.570516
  0
LINE
  8
0
  6
CONTINUOUS
 62
     2
 10
1601.120271
 20
549.570516
 11
1601.120271
 21
571.060516
  0
LINE
  8
0
  6
CONTINUOUS
 62
     2
 10
1601.120271
 20
571.060516
 11
1588.120271
 21
571.060516
  0
LINE
  8
0
  6
CONTINUOUS
 62
     2
 10
1588.120271
 20
571.060516
 11
1588.120271
 21
601.060516
  0
LINE
  8
0
  6
CONTINUOUS
 62
     2
 10
1588.120271
 20
601.060516
 11
1575.120271
 21
601.060516
  0
LINE
  8
0
  6
CONTINUOUS
 62
     2
 10
1575.120271
 20
601.060516
 11
1575.120271
 21
524.870516
  0
LINE
  8
0
  6
CONTINUOUS
 62
     2
 10
1575.120271
 20
524.870516
 11
1592.690271
 21
507.290516
  0
LINE
  8
0
  6
CONTINUOUS
 62
     2
 10
1592.690271
 20
507.290516
 11
1592.340271
 21
506.940516
  0
LINE
  8
0
  6
CONTINUOUS
 62
     2
 10
1592.340271
 20
506.940516
 11
1595.120271
 21
504.060516
  0
LINE
  8
0
  6
CONTINUOUS
 62
     2
 10
1721.120271
 20
471.060516
 11
1726.780271
 21
476.720516
  0
LINE
  8
0
  6
CONTINUOUS
 62
     2
 10
1726.780271
 20
476.720516
 11
1720.800271
 21
482.900516
  0
LINE
  8
0
  6
CONTINUOUS
 62
     2
 10
1720.800271
 20
482.900516
 11
1719.890271
 21
484.130516
  0
LINE
  8
0
  6
CONTINUOUS
 62
     2
 10
1719.890271
 20
484.130516
 11
1719.320271
 21
485.550516
  0
LINE
  8
0
  6
CONTINUOUS
 62
     2
 10
1719.320271
 20
485.550516
 11
1719.120271
 21
487.070516
  0
LINE
  8
0
  6
CONTINUOUS
 62
     2
 10
1719.120271
 20
487.070516
 11
1719.120271
 21
552.090516
  0
LINE
  8
0
  6
CONTINUOUS
 62
     2
 10
1719.120271
 20
552.090516
 11
1719.530271
 21
555.200516
  0
LINE
  8
0
  6
CONTINUOUS
 62
     2
 10
1719.530271
 20
555.200516
 11
1720.730271
 21
558.090516
  0
LINE
  8
0
  6
CONTINUOUS
 62
     2
 10
1720.730271
 20
558.090516
 11
1722.630271
 21
560.580516
  0
LINE
  8
0
  6
CONTINUOUS
 62
     2
 10
1722.630271
 20
560.580516
 11
1728.120271
 21
566.060516
  0
LINE
  8
0
  6
CONTINUOUS
 62
     2
 10
1728.120271
 20
566.060516
 11
1728.120271
 21
571.060516
  0
LINE
  8
0
  6
CONTINUOUS
 62
     2
 10
1728.120271
 20
571.060516
 11
1714.120271
 21
571.060516
  0
LINE
  8
0
  6
CONTINUOUS
 62
     2
 10
1714.120271
 20
571.060516
 11
1714.120271
 21
601.060516
  0
LINE
  8
0
  6
CONTINUOUS
 62
     2
 10
1714.120271
 20
601.060516
 11
1701.120271
 21
601.060516
  0
LINE
  8
0
  6
CONTINUOUS
 62
     2
 10
1701.120271
 20
601.060516
 11
1701.120271
 21
566.060516
  0
LINE
  8
0
  6
CONTINUOUS
 62
     2
 10
1701.120271
 20
566.060516
 11
1705.610271
 21
561.580516
  0
LINE
  8
0
  6
CONTINUOUS
 62
     2
 10
1705.610271
 20
561.580516
 11
1705.600271
 21
561.570516
  0
LINE
  8
0
  6
CONTINUOUS
 62
     2
 10
1705.600271
 20
561.570516
 11
1707.510271
 21
559.090516
  0
LINE
  8
0
  6
CONTINUOUS
 62
     2
 10
1707.510271
 20
559.090516
 11
1708.710271
 21
556.200516
  0
LINE
  8
0
  6
CONTINUOUS
 62
     2
 10
1708.710271
 20
556.200516
 11
1709.120271
 21
553.090516
  0
LINE
  8
0
  6
CONTINUOUS
 62
     2
 10
1709.120271
 20
553.090516
 11
1709.120271
 21
484.470516
  0
LINE
  8
0
  6
CONTINUOUS
 62
     2
 10
1709.120271
 20
484.470516
 11
1716.170271
 21
477.420516
  0
LINE
  8
0
  6
CONTINUOUS
 62
     2
 10
1716.170271
 20
477.420516
 11
1715.460271
 21
476.720516
  0
LINE
  8
0
  6
CONTINUOUS
 62
     2
 10
1715.460271
 20
476.720516
 11
1721.120271
 21
471.060516
  0
LINE
  8
0
  6
CONTINUOUS
 62
     2
 10
1848.278271
 20
450.967516
 11
1854.425271
 21
457.559516
  0
LINE
  8
0
  6
CONTINUOUS
 62
     2
 10
1854.425271
 20
457.559516
 11
1850.544271
 21
462.704516
  0
LINE
  8
0
  6
CONTINUOUS
 62
     2
 10
1850.544271
 20
462.704516
 11
1848.109271
 21
468.669516
  0
LINE
  8
0
  6
CONTINUOUS
 62
     2
 10
1848.109271
 20
468.669516
 11
1847.278271
 21
475.060516
  0
LINE
  8
0
  6
CONTINUOUS
 62
     2
 10
1847.278271
 20
475.060516
 11
1847.278271
 21
542.060516
  0
LINE
  8
0
  6
CONTINUOUS
 62
     2
 10
1847.278271
 20
542.060516
 11
1848.213271
 21
548.833516
  0
LINE
  8
0
  6
CONTINUOUS
 62
     2
 10
1848.213271
 20
548.833516
 11
1850.947271
 21
555.099516
  0
LINE
  8
0
  6
CONTINUOUS
 62
     2
 10
1850.947271
 20
555.099516
 11
1855.278271
 21
560.390516
  0
LINE
  8
0
  6
CONTINUOUS
 62
     2
 10
1855.278271
 20
560.390516
 11
1855.278271
 21
571.060516
  0
LINE
  8
0
  6
CONTINUOUS
 62
     2
 10
1855.278271
 20
571.060516
 11
1841.278271
 21
571.060516
  0
LINE
  8
0
  6
CONTINUOUS
 62
     2
 10
1841.278271
 20
571.060516
 11
1841.278271
 21
601.060516
  0
LINE
  8
0
  6
CONTINUOUS
 62
     2
 10
1841.278271
 20
601.060516
 11
1830.892271
 21
601.060516
  0
LINE
  8
0
  6
CONTINUOUS
 62
     2
 10
1830.892271
 20
601.060516
 11
1828.120271
 21
583.560516
  0
LINE
  8
0
  6
CONTINUOUS
 62
     2
 10
1828.120271
 20
583.560516
 11
1831.278271
 21
583.560516
  0
LINE
  8
0
  6
CONTINUOUS
 62
     2
 10
1831.278271
 20
583.560516
 11
1831.278271
 21
575.560516
  0
LINE
  8
0
  6
CONTINUOUS
 62
     2
 10
1831.278271
 20
575.560516
 11
1828.278271
 21
575.560516
  0
LINE
  8
0
  6
CONTINUOUS
 62
     2
 10
1828.278271
 20
575.560516
 11
1828.278271
 21
474.613516
  0
LINE
  8
0
  6
CONTINUOUS
 62
     2
 10
1828.278271
 20
474.613516
 11
1843.238271
 21
458.572516
  0
LINE
  8
0
  6
CONTINUOUS
 62
     2
 10
1843.238271
 20
458.572516
 11
1842.141271
 21
457.549516
  0
LINE
  8
0
  6
CONTINUOUS
 62
     2
 10
1842.141271
 20
457.549516
 11
1848.278271
 21
450.967516
  0
LINE
  8
0
  6
CONTINUOUS
 62
     2
 10
2489.818033
 20
60.185104
 11
2503.818033
 21
60.185104
  0
LINE
  8
0
  6
CONTINUOUS
 62
     2
 10
2503.818033
 20
60.185104
 11
2503.818033
 21
75.185104
  0
LINE
  8
0
  6
CONTINUOUS
 62
     2
 10
2503.818033
 20
75.185104
 11
2501.318033
 21
75.185104
  0
LINE
  8
0
  6
CONTINUOUS
 62
     2
 10
2501.318033
 20
75.185104
 11
2501.318033
 21
120.184104
  0
LINE
  8
0
  6
CONTINUOUS
 62
     2
 10
2501.318033
 20
120.184104
 11
2499.818033
 21
120.184104
  0
LINE
  8
0
  6
CONTINUOUS
 62
     2
 10
2499.818033
 20
120.184104
 11
2496.818033
 21
116.967104
  0
LINE
  8
0
  6
CONTINUOUS
 62
     2
 10
2496.818033
 20
116.967104
 11
2493.818033
 21
120.184104
  0
LINE
  8
0
  6
CONTINUOUS
 62
     2
 10
2493.818033
 20
120.184104
 11
2491.818033
 21
120.184104
  0
LINE
  8
0
  6
CONTINUOUS
 62
     2
 10
2491.818033
 20
120.184104
 11
2489.818033
 21
118.184104
  0
LINE
  8
0
  6
CONTINUOUS
 62
     2
 10
2489.818033
 20
118.184104
 11
2489.818033
 21
60.185104
  0
LINE
  8
0
  6
CONTINUOUS
 62
     2
 10
2604.818033
 20
60.185104
 11
2618.818033
 21
60.185104
  0
LINE
  8
0
  6
CONTINUOUS
 62
     2
 10
2618.818033
 20
60.185104
 11
2618.818033
 21
75.185104
  0
LINE
  8
0
  6
CONTINUOUS
 62
     2
 10
2618.818033
 20
75.185104
 11
2619.818033
 21
75.185104
  0
LINE
  8
0
  6
CONTINUOUS
 62
     2
 10
2619.818033
 20
75.185104
 11
2619.818033
 21
120.184104
  0
LINE
  8
0
  6
CONTINUOUS
 62
     2
 10
2619.818033
 20
120.184104
 11
2617.818033
 21
120.184104
  0
LINE
  8
0
  6
CONTINUOUS
 62
     2
 10
2617.818033
 20
120.184104
 11
2611.818033
 21
113.750104
  0
LINE
  8
0
  6
CONTINUOUS
 62
     2
 10
2611.818033
 20
113.750104
 11
2605.818033
 21
120.184104
  0
LINE
  8
0
  6
CONTINUOUS
 62
     2
 10
2605.818033
 20
120.184104
 11
2603.818033
 21
120.184104
  0
LINE
  8
0
  6
CONTINUOUS
 62
     2
 10
2603.818033
 20
120.184104
 11
2603.818033
 21
75.185104
  0
LINE
  8
0
  6
CONTINUOUS
 62
     2
 10
2603.818033
 20
75.185104
 11
2604.818033
 21
75.185104
  0
LINE
  8
0
  6
CONTINUOUS
 62
     2
 10
2604.818033
 20
75.185104
 11
2604.818033
 21
60.185104
  0
LINE
  8
0
  6
CONTINUOUS
 62
     2
 10
2722.818033
 20
60.184104
 11
2736.818033
 21
60.184104
  0
LINE
  8
0
  6
CONTINUOUS
 62
     2
 10
2736.818033
 20
60.184104
 11
2736.818033
 21
75.184104
  0
LINE
  8
0
  6
CONTINUOUS
 62
     2
 10
2736.818033
 20
75.184104
 11
2739.818033
 21
75.184104
  0
LINE
  8
0
  6
CONTINUOUS
 62
     2
 10
2739.818033
 20
75.184104
 11
2739.818033
 21
120.184104
  0
LINE
  8
0
  6
CONTINUOUS
 62
     2
 10
2739.818033
 20
120.184104
 11
2737.818033
 21
120.184104
  0
LINE
  8
0
  6
CONTINUOUS
 62
     2
 10
2737.818033
 20
120.184104
 11
2729.818033
 21
111.605104
  0
LINE
  8
0
  6
CONTINUOUS
 62
     2
 10
2729.818033
 20
111.605104
 11
2721.818033
 21
120.184104
  0
LINE
  8
0
  6
CONTINUOUS
 62
     2
 10
2721.818033
 20
120.184104
 11
2719.818033
 21
120.184104
  0
LINE
  8
0
  6
CONTINUOUS
 62
     2
 10
2719.818033
 20
120.184104
 11
2719.818033
 21
75.184104
  0
LINE
  8
0
  6
CONTINUOUS
 62
     2
 10
2719.818033
 20
75.184104
 11
2722.818033
 21
75.184104
  0
LINE
  8
0
  6
CONTINUOUS
 62
     2
 10
2722.818033
 20
75.184104
 11
2722.818033
 21
60.184104
  0
LINE
  8
0
  6
CONTINUOUS
 62
     2
 10
2845.018033
 20
60.184104
 11
2859.018033
 21
60.184104
  0
LINE
  8
0
  6
CONTINUOUS
 62
     2
 10
2859.018033
 20
60.184104
 11
2859.018033
 21
75.184104
  0
LINE
  8
0
  6
CONTINUOUS
 62
     2
 10
2859.018033
 20
75.184104
 11
2864.218033
 21
75.184104
  0
LINE
  8
0
  6
CONTINUOUS
 62
     2
 10
2864.218033
 20
75.184104
 11
2864.218033
 21
120.184104
  0
LINE
  8
0
  6
CONTINUOUS
 62
     2
 10
2864.218033
 20
120.184104
 11
2862.018033
 21
120.184104
  0
LINE
  8
0
  6
CONTINUOUS
 62
     2
 10
2862.018033
 20
120.184104
 11
2852.018033
 21
109.460104
  0
LINE
  8
0
  6
CONTINUOUS
 62
     2
 10
2852.018033
 20
109.460104
 11
2842.018033
 21
120.184104
  0
LINE
  8
0
  6
CONTINUOUS
 62
     2
 10
2842.018033
 20
120.184104
 11
2839.818033
 21
120.184104
  0
LINE
  8
0
  6
CONTINUOUS
 62
     2
 10
2839.818033
 20
120.184104
 11
2839.818033
 21
75.184104
  0
LINE
  8
0
  6
CONTINUOUS
 62
     2
 10
2839.818033
 20
75.184104
 11
2845.018033
 21
75.184104
  0
LINE
  8
0
  6
CONTINUOUS
 62
     2
 10
2845.018033
 20
75.184104
 11
2845.018033
 21
60.184104
  0
LINE
  8
0
  6
CONTINUOUS
 62
     2
 10
2971.968033
 20
60.184104
 11
2985.968033
 21
60.184104
  0
LINE
  8
0
  6
CONTINUOUS
 62
     2
 10
2985.968033
 20
60.184104
 11
2985.968033
 21
75.184104
  0
LINE
  8
0
  6
CONTINUOUS
 62
     2
 10
2985.968033
 20
75.184104
 11
2993.718033
 21
75.184104
  0
LINE
  8
0
  6
CONTINUOUS
 62
     2
 10
2993.718033
 20
75.184104
 11
2993.718033
 21
120.184104
  0
LINE
  8
0
  6
CONTINUOUS
 62
     2
 10
2993.718033
 20
120.184104
 11
2991.468033
 21
120.184104
  0
LINE
  8
0
  6
CONTINUOUS
 62
     2
 10
2991.468033
 20
120.184104
 11
2978.968033
 21
106.779104
  0
LINE
  8
0
  6
CONTINUOUS
 62
     2
 10
2978.968033
 20
106.779104
 11
2966.468033
 21
120.184104
  0
LINE
  8
0
  6
CONTINUOUS
 62
     2
 10
2966.468033
 20
120.184104
 11
2964.218033
 21
120.184104
  0
LINE
  8
0
  6
CONTINUOUS
 62
     2
 10
2964.218033
 20
120.184104
 11
2964.218033
 21
75.184104
  0
LINE
  8
0
  6
CONTINUOUS
 62
     2
 10
2964.218033
 20
75.184104
 11
2971.968033
 21
75.184104
  0
LINE
  8
0
  6
CONTINUOUS
 62
     2
 10
2971.968033
 20
75.184104
 11
2971.968033
 21
60.184104
  0
LINE
  8
0
  6
CONTINUOUS
 62
     2
 10
4166.391330
 20
32.530541
 11
4226.391330
 21
32.530541
  0
LINE
  8
0
  6
CONTINUOUS
 62
     2
 10
4226.391330
 20
32.530541
 11
4226.391330
 21
52.530541
  0
LINE
  8
0
  6
CONTINUOUS
 62
     2
 10
4226.391330
 20
52.530541
 11
4233.391330
 21
52.530541
  0
LINE
  8
0
  6
CONTINUOUS
 62
     2
 10
4233.391330
 20
52.530541
 11
4243.391330
 21
69.530541
  0
LINE
  8
0
  6
CONTINUOUS
 62
     2
 10
4243.391330
 20
69.530541
 11
4243.391330
 21
85.530541
  0
LINE
  8
0
  6
CONTINUOUS
 62
     2
 10
4243.391330
 20
85.530541
 11
4233.391330
 21
102.530541
  0
LINE
  8
0
  6
CONTINUOUS
 62
     2
 10
4233.391330
 20
102.530541
 11
4226.391330
 21
102.530541
  0
LINE
  8
0
  6
CONTINUOUS
 62
     2
 10
4226.391330
 20
102.530541
 11
4226.391330
 21
87.530541
  0
LINE
  8
0
  6
CONTINUOUS
 62
     2
 10
4226.391330
 20
87.530541
 11
4166.391330
 21
87.530541
  0
LINE
  8
0
  6
CONTINUOUS
 62
     2
 10
4166.391330
 20
87.530541
 11
4166.391330
 21
102.530541
  0
LINE
  8
0
  6
CONTINUOUS
 62
     2
 10
4166.391330
 20
102.530541
 11
4159.391330
 21
102.530541
  0
LINE
  8
0
  6
CONTINUOUS
 62
     2
 10
4159.391330
 20
102.530541
 11
4149.391330
 21
85.530541
  0
LINE
  8
0
  6
CONTINUOUS
 62
     2
 10
4149.391330
 20
85.530541
 11
4149.391330
 21
69.530541
  0
LINE
  8
0
  6
CONTINUOUS
 62
     2
 10
4149.391330
 20
69.530541
 11
4159.391330
 21
52.530541
  0
LINE
  8
0
  6
CONTINUOUS
 62
     2
 10
4159.391330
 20
52.530541
 11
4166.391330
 21
52.530541
  0
LINE
  8
0
  6
CONTINUOUS
 62
     2
 10
4166.391330
 20
52.530541
 11
4166.391330
 21
32.530541
  0
LINE
  8
0
  6
CONTINUOUS
 62
     2
 10
4343.391330
 20
87.530541
 11
4474.891330
 21
87.530541
  0
LINE
  8
0
  6
CONTINUOUS
 62
     2
 10
4474.891330
 20
87.530541
 11
4474.891330
 21
102.530541
  0
LINE
  8
0
  6
CONTINUOUS
 62
     2
 10
4474.891330
 20
102.530541
 11
4343.391330
 21
102.530541
  0
LINE
  8
0
  6
CONTINUOUS
 62
     2
 10
4343.391330
 20
102.530541
 11
4343.391330
 21
87.530541
  0
LINE
  8
0
  6
CONTINUOUS
 62
     2
 10
3777.496596
 20
116.083309
 11
3827.496596
 21
116.083309
  0
LINE
  8
0
  6
CONTINUOUS
 62
     2
 10
3827.496596
 20
116.083309
 11
3827.496596
 21
126.083309
  0
LINE
  8
0
  6
CONTINUOUS
 62
     2
 10
3827.496596
 20
126.083309
 11
3809.996596
 21
126.083309
  0
LINE
  8
0
  6
CONTINUOUS
 62
     2
 10
3809.996596
 20
126.083309
 11
3809.996596
 21
131.083309
  0
LINE
  8
0
  6
CONTINUOUS
 62
     2
 10
3809.996596
 20
131.083309
 11
3794.996596
 21
131.083309
  0
LINE
  8
0
  6
CONTINUOUS
 62
     2
 10
3794.996596
 20
131.083309
 11
3794.996596
 21
126.083309
  0
LINE
  8
0
  6
CONTINUOUS
 62
     2
 10
3794.996596
 20
126.083309
 11
3777.496596
 21
126.083309
  0
LINE
  8
0
  6
CONTINUOUS
 62
     2
 10
3777.496596
 20
126.083309
 11
3777.496596
 21
116.083309
  0
LINE
  8
0
  6
CONTINUOUS
 62
     2
 10
3263.984090
 20
74.279757
 11
3323.984090
 21
74.279757
  0
LINE
  8
0
  6
CONTINUOUS
 62
     2
 10
3323.984090
 20
74.279757
 11
3323.984090
 21
94.279757
  0
LINE
  8
0
  6
CONTINUOUS
 62
     2
 10
3323.984090
 20
94.279757
 11
3306.484090
 21
94.279757
  0
LINE
  8
0
  6
CONTINUOUS
 62
     2
 10
3306.484090
 20
94.279757
 11
3306.484090
 21
135.779757
  0
LINE
  8
0
  6
CONTINUOUS
 62
     2
 10
3306.484090
 20
135.779757
 11
3300.984090
 21
135.779757
  0
LINE
  8
0
  6
CONTINUOUS
 62
     2
 10
3300.984090
 20
135.779757
 11
3300.984090
 21
125.779757
  0
LINE
  8
0
  6
CONTINUOUS
 62
     2
 10
3300.984090
 20
125.779757
 11
3286.984090
 21
125.779757
  0
LINE
  8
0
  6
CONTINUOUS
 62
     2
 10
3286.984090
 20
125.779757
 11
3286.984090
 21
135.779757
  0
LINE
  8
0
  6
CONTINUOUS
 62
     2
 10
3286.984090
 20
135.779757
 11
3281.484090
 21
135.779757
  0
LINE
  8
0
  6
CONTINUOUS
 62
     2
 10
3281.484090
 20
135.779757
 11
3281.484090
 21
94.279757
  0
LINE
  8
0
  6
CONTINUOUS
 62
     2
 10
3281.484090
 20
94.279757
 11
3263.984090
 21
94.279757
  0
LINE
  8
0
  6
CONTINUOUS
 62
     2
 10
3263.984090
 20
94.279757
 11
3263.984090
 21
74.279757
  0
TEXT
  8
0
 62
     1
 10
395.362074
 20
694.579502
 40
30.000000
  1
00300
 41
0.800000
  7
GOTHIC
 11
395.362074
 21
724.579502
 73
     3
  0
TEXT
  8
0
 62
     1
 10
510.666111
 20
687.264326
 40
30.000000
  1
00402
 41
0.800000
  7
GOTHIC
 11
510.666111
 21
717.264326
 73
     3
  0
TEXT
  8
0
 62
     1
 10
646.536050
 20
686.650194
 40
30.000000
  1
01002
 41
0.800000
  7
GOTHIC
 11
646.536050
 21
716.650194
 73
     3
  0
TEXT
  8
0
 62
     1
 10
60.398365
 20
211.052626
 40
30.000000
  1
01360
 41
0.800000
  7
GOTHIC
 11
60.398365
 21
241.052626
 73
     3
  0
TEXT
  8
0
 62
     1
 10
332.771671
 20
206.356301
 40
30.000000
  1
01400
 41
0.800000
  7
GOTHIC
 11
332.771671
 21
236.356301
 73
     3
  0
TEXT
  8
0
 62
     1
 10
560.084195
 20
208.281664
 40
30.000000
  1
01860
 41
0.800000
  7
GOTHIC
 11
560.084195
 21
238.281664
 73
     3
  0
TEXT
  8
0
 62
     1
 10
1038.853583
 20
226.275736
 40
30.000000
  1
03500
 41
0.800000
  7
GOTHIC
 11
1038.853583
 21
256.275736
 73
     3
  0
TEXT
  8
0
 62
     1
 10
1187.530040
 20
225.731769
 40
30.000000
  1
03600
 41
0.800000
  7
GOTHIC
 11
1187.530040
 21
255.731769
 73
     3
  0
TEXT
  8
0
 62
     1
 10
1352.296885
 20
228.096843
 40
30.000000
  1
03700
 41
0.800000
  7
GOTHIC
 11
1352.296885
 21
258.096843
 73
     3
  0
TEXT
  8
0
 62
     1
 10
1503.661643
 20
228.096843
 40
30.000000
  1
03800
 41
0.800000
  7
GOTHIC
 11
1503.661643
 21
258.096843
 73
     3
  0
TEXT
  8
0
 62
     1
 10
1740.169077
 20
212.329681
 40
30.000000
  1
03900
 41
0.800000
  7
GOTHIC
 11
1740.169077
 21
242.329681
 73
     3
  0
TEXT
  8
0
 62
     1
 10
841.840638
 20
696.139687
 40
30.000000
  1
04502
 41
0.800000
  7
GOTHIC
 11
841.840638
 21
726.139687
 73
     3
  0
TEXT
  8
0
 62
     1
 10
1013.702707
 20
696.928045
 40
30.000000
  1
04702
 41
0.800000
  7
GOTHIC
 11
1013.702707
 21
726.928045
 73
     3
  0
TEXT
  8
0
 62
     1
 10
3382.078717
 20
242.353086
 40
30.000000
  1
08150
 41
0.800000
  7
GOTHIC
 11
3382.078717
 21
272.353086
 73
     3
  0
TEXT
  8
0
 62
     1
 10
1125.642168
 20
703.077238
 40
30.000000
  1
10300
 41
0.800000
  7
GOTHIC
 11
1125.642168
 21
733.077238
 73
     3
  0
TEXT
  8
0
 62
     1
 10
1249.256720
 20
691.724881
 40
30.000000
  1
10400
 41
0.800000
  7
GOTHIC
 11
1249.256720
 21
721.724881
 73
     3
  0
TEXT
  8
0
 62
     1
 10
1384.980453
 20
692.229430
 40
30.000000
  1
10600
 41
0.800000
  7
GOTHIC
 11
1384.980453
 21
722.229430
 73
     3
  0
TEXT
  8
0
 62
     1
 10
3875.840728
 20
240.060482
 40
30.000000
  1
3009
 41
0.800000
  7
GOTHIC
 11
3875.840728
 21
270.060482
 73
     3
  0
TEXT
  8
0
 62
     1
 10
1948.460924
 20
208.835028
 40
30.000000
  1
30540
 41
0.800000
  7
GOTHIC
 11
1948.460924
 21
238.835028
 73
     3
  0
TEXT
  8
0
 62
     1
 10
2109.916666
 20
201.266790
 40
30.000000
  1
30640
 41
0.800000
  7
GOTHIC
 11
2109.916666
 21
231.266790
 73
     3
  0
TEXT
  8
0
 62
     1
 10
3494.509683
 20
244.872154
 40
30.000000
  1
33075
 41
0.800000
  7
GOTHIC
 11
3494.509683
 21
274.872154
 73
     3
  0
TEXT
  8
0
 62
     1
 10
2242.913862
 20
216.111180
 40
30.000000
  1
34300
 41
0.800000
  7
GOTHIC
 11
2242.913862
 21
246.111180
 73
     3
  0
TEXT
  8
0
 62
     1
 10
1549.878444
 20
687.603597
 40
30.000000
  1
71606
 41
0.800000
  7
GOTHIC
 11
1549.878444
 21
717.603597
 73
     3
  0
TEXT
  8
0
 62
     1
 10
1676.298289
 20
689.056698
 40
30.000000
  1
80306
 41
0.800000
  7
GOTHIC
 11
1676.298289
 21
719.056698
 73
     3
  0
TEXT
  8
0
 62
     1
 10
1811.012924
 20
687.038502
 40
30.000000
  1
904061
 41
0.800000
  7
GOTHIC
 11
1811.012924
 21
717.038502
 73
     3
  0
TEXT
  8
0
 62
     1
 10
2461.424614
 20
228.060482
 40
30.000000
  1
970061
 41
0.800000
  7
GOTHIC
 11
2461.424614
 21
258.060482
 73
     3
  0
TEXT
  8
0
 62
     1
 10
2580.498224
 20
224.427728
 40
30.000000
  1
974061
 41
0.800000
  7
GOTHIC
 11
2580.498224
 21
254.427728
 73
     3
  0
TEXT
  8
0
 62
     1
 10
2701.590030
 20
227.656843
 40
30.000000
  1
977061
 41
0.800000
  7
GOTHIC
 11
2701.590030
 21
257.656843
 73
     3
  0
TEXT
  8
0
 62
     1
 10
2816.627246
 20
229.271400
 40
30.000000
  1
979061
 41
0.800000
  7
GOTHIC
 11
2816.627246
 21
259.271400
 73
     3
  0
TEXT
  8
0
 62
     1
 10
2946.706334
 20
228.483042
 40
30.000000
  1
982061
 41
0.800000
  7
GOTHIC
 11
2946.706334
 21
258.483042
 73
     3
  0
TEXT
  8
0
 62
     1
 10
4165.623968
 20
206.036455
 40
30.000000
  1
05500
 41
0.800000
  7
GOTHIC
 11
4165.623968
 21
236.036455
 73
     3
  0
TEXT
  8
0
 62
     1
 10
4388.499197
 20
198.525574
 40
30.000000
  1
825
 41
0.800000
  7
GOTHIC
 11
4388.499197
 21
228.525574
 73
     3
  0
TEXT
  8
0
 62
     1
 10
3768.798997
 20
235.078922
 40
30.000000
  1
30000
 41
0.800000
  7
GOTHIC
 11
3768.798997
 21
265.078922
 73
     3
  0
TEXT
  8
0
 62
     1
 10
3266.670002
 20
245.922387
 40
30.000000
  1
08100
 41
0.800000
  7
GOTHIC
 11
3266.670002
 21
275.922387
 73
     3
  0
LINE
  8
0
  6
CONTINUOUS
 62
   134
 10
411.668274
 20
614.857013
 11
408.287534
 21
613.951146
  0
LINE
  8
0
  6
CONTINUOUS
 62
   134
 10
408.287534
 20
613.951146
 11
411.668274
 21
613.045279
  0
LINE
  8
0
  6
CONTINUOUS
 62
   134
 10
432.106793
 20
613.045279
 11
435.487534
 21
613.951146
  0
LINE
  8
0
  6
CONTINUOUS
 62
   134
 10
435.487534
 20
613.951146
 11
432.106793
 21
614.857013
  0
LINE
  8
0
  6
CONTINUOUS
 62
   134
 10
408.287534
 20
613.951146
 11
435.487534
 21
613.951146
  0
TEXT
  8
0
 62
   134
 10
405.887534
 20
615.951146
 40
20.000000
  1
27.2
 41
0.800000
  7
GOTHIC
 72
     1
 11
421.887534
 21
615.951146
  0
LINE
  8
0
  6
CONTINUOUS
 62
   134
 10
408.287534
 20
597.951146
 11
408.287534
 21
618.951146
  0
LINE
  8
0
  6
CONTINUOUS
 62
   134
 10
435.487534
 20
567.951146
 11
435.487534
 21
618.951146
  0
LINE
  8
0
  6
CONTINUOUS
 62
   134
 10
454.581667
 20
502.331886
 11
455.487534
 21
498.951146
  0
LINE
  8
0
  6
CONTINUOUS
 62
   134
 10
455.487534
 20
498.951146
 11
456.393400
 21
502.331886
  0
LINE
  8
0
  6
CONTINUOUS
 62
   134
 10
456.393400
 20
590.570406
 11
455.487534
 21
593.951146
  0
LINE
  8
0
  6
CONTINUOUS
 62
   134
 10
455.487534
 20
593.951146
 11
454.581667
 21
590.570406
  0
LINE
  8
0
  6
CONTINUOUS
 62
   134
 10
455.487534
 20
498.951146
 11
455.487534
 21
593.951146
  0
TEXT
  8
0
 62
   134
 10
453.487534
 20
538.451146
 40
20.000000
  1
95
 50
90.000000
 41
0.800000
  7
GOTHIC
 72
     1
 11
453.487534
 21
546.451146
  0
LINE
  8
0
  6
CONTINUOUS
 62
   134
 10
433.277534
 20
498.951146
 11
460.487534
 21
498.951146
  0
LINE
  8
0
  6
CONTINUOUS
 62
   134
 10
425.287534
 20
593.951146
 11
460.487534
 21
593.951146
  0
LINE
  8
0
  6
CONTINUOUS
 62
   134
 10
538.868274
 20
614.857013
 11
535.487534
 21
613.951146
  0
LINE
  8
0
  6
CONTINUOUS
 62
   134
 10
535.487534
 20
613.951146
 11
538.868274
 21
613.045279
  0
LINE
  8
0
  6
CONTINUOUS
 62
   134
 10
559.106793
 20
613.045279
 11
562.487534
 21
613.951146
  0
LINE
  8
0
  6
CONTINUOUS
 62
   134
 10
562.487534
 20
613.951146
 11
559.106793
 21
614.857013
  0
LINE
  8
0
  6
CONTINUOUS
 62
   134
 10
535.487534
 20
613.951146
 11
562.487534
 21
613.951146
  0
TEXT
  8
0
 62
   134
 10
540.987534
 20
615.951146
 40
20.000000
  1
27
 41
0.800000
  7
GOTHIC
 72
     1
 11
548.987534
 21
615.951146
  0
LINE
  8
0
  6
CONTINUOUS
 62
   134
 10
535.487534
 20
598.951146
 11
535.487534
 21
618.951146
  0
LINE
  8
0
  6
CONTINUOUS
 62
   134
 10
562.487534
 20
568.951146
 11
562.487534
 21
618.951146
  0
LINE
  8
0
  6
CONTINUOUS
 62
   134
 10
581.581667
 20
500.331886
 11
582.487534
 21
496.951146
  0
LINE
  8
0
  6
CONTINUOUS
 62
   134
 10
582.487534
 20
496.951146
 11
583.393400
 21
500.331886
  0
LINE
  8
0
  6
CONTINUOUS
 62
   134
 10
583.393400
 20
590.570406
 11
582.487534
 21
593.951146
  0
LINE
  8
0
  6
CONTINUOUS
 62
   134
 10
582.487534
 20
593.951146
 11
581.581667
 21
590.570406
  0
LINE
  8
0
  6
CONTINUOUS
 62
   134
 10
582.487534
 20
496.951146
 11
582.487534
 21
593.951146
  0
TEXT
  8
0
 62
   134
 10
580.487534
 20
537.451146
 40
20.000000
  1
97
 50
90.000000
 41
0.800000
  7
GOTHIC
 72
     1
 11
580.487534
 21
545.451146
  0
LINE
  8
0
  6
CONTINUOUS
 62
   134
 10
560.487534
 20
496.951146
 11
587.487534
 21
496.951146
  0
LINE
  8
0
  6
CONTINUOUS
 62
   134
 10
553.487534
 20
593.951146
 11
587.487534
 21
593.951146
  0
LINE
  8
0
  6
CONTINUOUS
 62
   134
 10
665.868274
 20
614.857013
 11
662.487534
 21
613.951146
  0
LINE
  8
0
  6
CONTINUOUS
 62
   134
 10
662.487534
 20
613.951146
 11
665.868274
 21
613.045279
  0
LINE
  8
0
  6
CONTINUOUS
 62
   134
 10
686.106793
 20
613.045279
 11
689.487534
 21
613.951146
  0
LINE
  8
0
  6
CONTINUOUS
 62
   134
 10
689.487534
 20
613.951146
 11
686.106793
 21
614.857013
  0
LINE
  8
0
  6
CONTINUOUS
 62
   134
 10
662.487534
 20
613.951146
 11
689.487534
 21
613.951146
  0
TEXT
  8
0
 62
   134
 10
667.987534
 20
615.951146
 40
20.000000
  1
27
 41
0.800000
  7
GOTHIC
 72
     1
 11
675.987534
 21
615.951146
  0
LINE
  8
0
  6
CONTINUOUS
 62
   134
 10
662.487534
 20
598.951146
 11
662.487534
 21
618.951146
  0
LINE
  8
0
  6
CONTINUOUS
 62
   134
 10
689.487534
 20
568.951146
 11
689.487534
 21
618.951146
  0
LINE
  8
0
  6
CONTINUOUS
 62
   134
 10
708.581667
 20
482.331886
 11
709.487534
 21
478.951146
  0
LINE
  8
0
  6
CONTINUOUS
 62
   134
 10
709.487534
 20
478.951146
 11
710.393400
 21
482.331886
  0
LINE
  8
0
  6
CONTINUOUS
 62
   134
 10
710.393400
 20
590.570406
 11
709.487534
 21
593.951146
  0
LINE
  8
0
  6
CONTINUOUS
 62
   134
 10
709.487534
 20
593.951146
 11
708.581667
 21
590.570406
  0
LINE
  8
0
  6
CONTINUOUS
 62
   134
 10
709.487534
 20
478.951146
 11
709.487534
 21
593.951146
  0
TEXT
  8
0
 62
   134
 10
707.487534
 20
524.451146
 40
20.000000
  1
115
 50
90.000000
 41
0.800000
  7
GOTHIC
 72
     1
 11
707.487534
 21
536.451146
  0
LINE
  8
0
  6
CONTINUOUS
 62
   134
 10
687.487534
 20
478.951146
 11
714.487534
 21
478.951146
  0
LINE
  8
0
  6
CONTINUOUS
 62
   134
 10
680.487534
 20
593.951146
 11
714.487534
 21
593.951146
  0
LINE
  8
0
  6
CONTINUOUS
 62
   134
 10
23.094133
 20
48.390740
 11
24.000000
 21
45.010000
  0
LINE
  8
0
  6
CONTINUOUS
 62
   134
 10
24.000000
 20
45.010000
 11
24.905867
 21
48.390740
  0
LINE
  8
0
  6
CONTINUOUS
 62
   134
 10
24.905867
 20
136.619260
 11
24.000000
 21
140.000000
  0
LINE
  8
0
  6
CONTINUOUS
 62
   134
 10
24.000000
 20
140.000000
 11
23.094133
 21
136.619260
  0
LINE
  8
0
  6
CONTINUOUS
 62
   134
 10
24.000000
 20
45.010000
 11
24.000000
 21
140.000000
  0
TEXT
  8
0
 62
   134
 10
22.000000
 20
84.505000
 40
20.000000
  1
95
 50
90.000000
 41
0.800000
  7
GOTHIC
 72
     1
 11
22.000000
 21
92.505000
  0
LINE
  8
0
  6
CONTINUOUS
 62
   134
 10
56.500000
 20
45.010000
 11
19.000000
 21
45.010000
  0
LINE
  8
0
  6
CONTINUOUS
 62
   134
 10
39.000000
 20
140.000000
 11
19.000000
 21
140.000000
  0
LINE
  8
0
  6
CONTINUOUS
 62
   134
 10
135.619260
 20
159.094133
 11
139.000000
 21
160.000000
  0
LINE
  8
0
  6
CONTINUOUS
 62
   134
 10
139.000000
 20
160.000000
 11
135.619260
 21
160.905867
  0
LINE
  8
0
  6
CONTINUOUS
 62
   134
 10
47.380740
 20
160.905867
 11
44.000000
 21
160.000000
  0
LINE
  8
0
  6
CONTINUOUS
 62
   134
 10
44.000000
 20
160.000000
 11
47.380740
 21
159.094133
  0
LINE
  8
0
  6
CONTINUOUS
 62
   134
 10
139.000000
 20
160.000000
 11
44.000000
 21
160.000000
  0
TEXT
  8
0
 62
   134
 10
83.500000
 20
162.000000
 40
20.000000
  1
95
 41
0.800000
  7
GOTHIC
 72
     1
 11
91.500000
 21
162.000000
  0
LINE
  8
0
  6
CONTINUOUS
 62
   134
 10
139.000000
 20
145.000000
 11
139.000000
 21
165.000000
  0
LINE
  8
0
  6
CONTINUOUS
 62
   134
 10
44.000000
 20
145.000000
 11
44.000000
 21
165.000000
  0
LINE
  8
0
  6
CONTINUOUS
 62
   134
 10
218.094133
 20
3.380740
 11
219.000000
 21
0.000000
  0
LINE
  8
0
  6
CONTINUOUS
 62
   134
 10
219.000000
 20
0.000000
 11
219.905867
 21
3.380740
  0
LINE
  8
0
  6
CONTINUOUS
 62
   134
 10
219.905867
 20
136.619260
 11
219.000000
 21
140.000000
  0
LINE
  8
0
  6
CONTINUOUS
 62
   134
 10
219.000000
 20
140.000000
 11
218.094133
 21
136.619260
  0
LINE
  8
0
  6
CONTINUOUS
 62
   134
 10
219.000000
 20
0.000000
 11
219.000000
 21
140.000000
  0
TEXT
  8
0
 62
   134
 10
217.000000
 20
58.000000
 40
20.000000
  1
140
 50
90.000000
 41
0.800000
  7
GOTHIC
 72
     1
 11
217.000000
 21
70.000000
  0
LINE
  8
0
  6
CONTINUOUS
 62
   134
 10
266.500000
 20
0.000000
 11
214.000000
 21
0.000000
  0
LINE
  8
0
  6
CONTINUOUS
 62
   134
 10
234.000000
 20
140.000000
 11
214.000000
 21
140.000000
  0
LINE
  8
0
  6
CONTINUOUS
 62
   134
 10
420.619260
 20
159.094133
 11
424.000000
 21
160.000000
  0
LINE
  8
0
  6
CONTINUOUS
 62
   134
 10
424.000000
 20
160.000000
 11
420.619260
 21
160.905867
  0
LINE
  8
0
  6
CONTINUOUS
 62
   134
 10
242.380740
 20
160.905867
 11
239.000000
 21
160.000000
  0
LINE
  8
0
  6
CONTINUOUS
 62
   134
 10
239.000000
 20
160.000000
 11
242.380740
 21
159.094133
  0
LINE
  8
0
  6
CONTINUOUS
 62
   134
 10
424.000000
 20
160.000000
 11
239.000000
 21
160.000000
  0
TEXT
  8
0
 62
   134
 10
319.500000
 20
162.000000
 40
20.000000
  1
185
 41
0.800000
  7
GOTHIC
 72
     1
 11
331.500000
 21
162.000000
  0
LINE
  8
0
  6
CONTINUOUS
 62
   134
 10
424.000000
 20
145.000000
 11
424.000000
 21
165.000000
  0
LINE
  8
0
  6
CONTINUOUS
 62
   134
 10
239.000000
 20
145.000000
 11
239.000000
 21
165.000000
  0
LINE
  8
0
  6
CONTINUOUS
 62
   134
 10
503.094133
 20
33.380740
 11
504.000000
 21
30.000000
  0
LINE
  8
0
  6
CONTINUOUS
 62
   134
 10
504.000000
 20
30.000000
 11
504.905867
 21
33.380740
  0
LINE
  8
0
  6
CONTINUOUS
 62
   134
 10
504.905867
 20
136.619260
 11
504.000000
 21
140.000000
  0
LINE
  8
0
  6
CONTINUOUS
 62
   134
 10
504.000000
 20
140.000000
 11
503.094133
 21
136.619260
  0
LINE
  8
0
  6
CONTINUOUS
 62
   134
 10
504.000000
 20
30.000000
 11
504.000000
 21
140.000000
  0
TEXT
  8
0
 62
   134
 10
502.000000
 20
73.000000
 40
20.000000
  1
110
 50
90.000000
 41
0.800000
  7
GOTHIC
 72
     1
 11
502.000000
 21
85.000000
  0
LINE
  8
0
  6
CONTINUOUS
 62
   134
 10
548.990000
 20
30.000000
 11
499.000000
 21
30.000000
  0
LINE
  8
0
  6
CONTINUOUS
 62
   134
 10
519.000000
 20
140.000000
 11
499.000000
 21
140.000000
  0
LINE
  8
0
  6
CONTINUOUS
 62
   134
 10
640.599260
 20
159.094133
 11
643.980000
 21
160.000000
  0
LINE
  8
0
  6
CONTINUOUS
 62
   134
 10
643.980000
 20
160.000000
 11
640.599260
 21
160.905867
  0
LINE
  8
0
  6
CONTINUOUS
 62
   134
 10
527.380740
 20
160.905867
 11
524.000000
 21
160.000000
  0
LINE
  8
0
  6
CONTINUOUS
 62
   134
 10
524.000000
 20
160.000000
 11
527.380740
 21
159.094133
  0
LINE
  8
0
  6
CONTINUOUS
 62
   134
 10
643.980000
 20
160.000000
 11
524.000000
 21
160.000000
  0
TEXT
  8
0
 62
   134
 10
571.990000
 20
162.000000
 40
20.000000
  1
120
 41
0.800000
  7
GOTHIC
 72
     1
 11
583.990000
 21
162.000000
  0
LINE
  8
0
  6
CONTINUOUS
 62
   134
 10
643.980000
 20
145.000000
 11
643.980000
 21
165.000000
  0
LINE
  8
0
  6
CONTINUOUS
 62
   134
 10
524.000000
 20
145.000000
 11
524.000000
 21
165.000000
  0
LINE
  8
0
  6
CONTINUOUS
 62
   134
 10
1003.926711
 20
94.477026
 11
1004.832578
 21
91.096286
  0
LINE
  8
0
  6
CONTINUOUS
 62
   134
 10
1004.832578
 20
91.096286
 11
1005.738445
 21
94.477026
  0
LINE
  8
0
  6
CONTINUOUS
 62
   134
 10
1005.738445
 20
147.705546
 11
1004.832578
 21
151.086286
  0
LINE
  8
0
  6
CONTINUOUS
 62
   134
 10
1004.832578
 20
151.086286
 11
1003.926711
 21
147.705546
  0
LINE
  8
0
  6
CONTINUOUS
 62
   134
 10
1004.832578
 20
91.096286
 11
1004.832578
 21
151.086286
  0
TEXT
  8
0
 62
   134
 10
1002.832578
 20
113.091286
 40
20.000000
  1
60
 50
90.000000
 41
0.800000
  7
GOTHIC
 72
     1
 11
1002.832578
 21
121.091286
  0
LINE
  8
0
  6
CONTINUOUS
 62
   134
 10
1019.832578
 20
91.096286
 11
999.832578
 21
91.096286
  0
LINE
  8
0
  6
CONTINUOUS
 62
   134
 10
1019.832578
 20
151.086286
 11
999.832578
 21
151.086286
  0
LINE
  8
0
  6
CONTINUOUS
 62
   134
 10
1081.451838
 20
170.180419
 11
1084.832578
 21
171.086286
  0
LINE
  8
0
  6
CONTINUOUS
 62
   134
 10
1084.832578
 20
171.086286
 11
1081.451838
 21
171.992153
  0
LINE
  8
0
  6
CONTINUOUS
 62
   134
 10
1028.213318
 20
171.992153
 11
1024.832578
 21
171.086286
  0
LINE
  8
0
  6
CONTINUOUS
 62
   134
 10
1024.832578
 20
171.086286
 11
1028.213318
 21
170.180419
  0
LINE
  8
0
  6
CONTINUOUS
 62
   134
 10
1084.832578
 20
171.086286
 11
1024.832578
 21
171.086286
  0
TEXT
  8
0
 62
   134
 10
1046.832578
 20
173.086286
 40
20.000000
  1
60
 41
0.800000
  7
GOTHIC
 72
     1
 11
1054.832578
 21
173.086286
  0
LINE
  8
0
  6
CONTINUOUS
 62
   134
 10
1084.832578
 20
156.086286
 11
1084.832578
 21
176.086286
  0
LINE
  8
0
  6
CONTINUOUS
 62
   134
 10
1024.832578
 20
156.086286
 11
1024.832578
 21
176.086286
  0
LINE
  8
0
  6
CONTINUOUS
 62
   134
 10
1188.213318
 20
171.992153
 11
1184.832578
 21
171.086286
  0
LINE
  8
0
  6
CONTINUOUS
 62
   134
 10
1184.832578
 20
171.086286
 11
1188.213318
 21
170.180419
  0
LINE
  8
0
  6
CONTINUOUS
 62
   134
 10
1241.441838
 20
170.180419
 11
1244.822578
 21
171.086286
  0
LINE
  8
0
  6
CONTINUOUS
 62
   134
 10
1244.822578
 20
171.086286
 11
1241.441838
 21
171.992153
  0
LINE
  8
0
  6
CONTINUOUS
 62
   134
 10
1184.832578
 20
171.086286
 11
1244.822578
 21
171.086286
  0
TEXT
  8
0
 62
   134
 10
1206.827578
 20
173.086286
 40
20.000000
  1
60
 41
0.800000
  7
GOTHIC
 72
     1
 11
1214.827578
 21
173.086286
  0
LINE
  8
0
  6
CONTINUOUS
 62
   134
 10
1184.832578
 20
156.086286
 11
1184.832578
 21
176.086286
  0
LINE
  8
0
  6
CONTINUOUS
 62
   134
 10
1244.822578
 20
156.086286
 11
1244.822578
 21
176.086286
  0
LINE
  8
0
  6
CONTINUOUS
 62
   134
 10
1263.916711
 20
94.467026
 11
1264.822578
 21
91.086286
  0
LINE
  8
0
  6
CONTINUOUS
 62
   134
 10
1264.822578
 20
91.086286
 11
1265.728445
 21
94.467026
  0
LINE
  8
0
  6
CONTINUOUS
 62
   134
 10
1265.728445
 20
147.705546
 11
1264.822578
 21
151.086286
  0
LINE
  8
0
  6
CONTINUOUS
 62
   134
 10
1264.822578
 20
151.086286
 11
1263.916711
 21
147.705546
  0
LINE
  8
0
  6
CONTINUOUS
 62
   134
 10
1264.822578
 20
91.086286
 11
1264.822578
 21
151.086286
  0
TEXT
  8
0
 62
   134
 10
1262.822578
 20
113.086286
 40
20.000000
  1
60
 50
90.000000
 41
0.800000
  7
GOTHIC
 72
     1
 11
1262.822578
 21
121.086286
  0
LINE
  8
0
  6
CONTINUOUS
 62
   134
 10
1249.822578
 20
91.086286
 11
1269.822578
 21
91.086286
  0
LINE
  8
0
  6
CONTINUOUS
 62
   134
 10
1249.822578
 20
151.086286
 11
1269.822578
 21
151.086286
  0
LINE
  8
0
  6
CONTINUOUS
 62
   134
 10
1323.916711
 20
94.477026
 11
1324.822578
 21
91.096286
  0
LINE
  8
0
  6
CONTINUOUS
 62
   134
 10
1324.822578
 20
91.096286
 11
1325.728445
 21
94.477026
  0
LINE
  8
0
  6
CONTINUOUS
 62
   134
 10
1325.728445
 20
147.705546
 11
1324.822578
 21
151.086286
  0
LINE
  8
0
  6
CONTINUOUS
 62
   134
 10
1324.822578
 20
151.086286
 11
1323.916711
 21
147.705546
  0
LINE
  8
0
  6
CONTINUOUS
 62
   134
 10
1324.822578
 20
91.096286
 11
1324.822578
 21
151.086286
  0
TEXT
  8
0
 62
   134
 10
1322.822578
 20
113.091286
 40
20.000000
  1
60
 50
90.000000
 41
0.800000
  7
GOTHIC
 72
     1
 11
1322.822578
 21
121.091286
  0
LINE
  8
0
  6
CONTINUOUS
 62
   134
 10
1339.822578
 20
91.096286
 11
1319.822578
 21
91.096286
  0
LINE
  8
0
  6
CONTINUOUS
 62
   134
 10
1339.822578
 20
151.086286
 11
1319.822578
 21
151.086286
  0
LINE
  8
0
  6
CONTINUOUS
 62
   134
 10
1401.441838
 20
170.180419
 11
1404.822578
 21
171.086286
  0
LINE
  8
0
  6
CONTINUOUS
 62
   134
 10
1404.822578
 20
171.086286
 11
1401.441838
 21
171.992153
  0
LINE
  8
0
  6
CONTINUOUS
 62
   134
 10
1348.203318
 20
171.992153
 11
1344.822578
 21
171.086286
  0
LINE
  8
0
  6
CONTINUOUS
 62
   134
 10
1344.822578
 20
171.086286
 11
1348.203318
 21
170.180419
  0
LINE
  8
0
  6
CONTINUOUS
 62
   134
 10
1404.822578
 20
171.086286
 11
1344.822578
 21
171.086286
  0
TEXT
  8
0
 62
   134
 10
1366.822578
 20
173.086286
 40
20.000000
  1
60
 41
0.800000
  7
GOTHIC
 72
     1
 11
1374.822578
 21
173.086286
  0
LINE
  8
0
  6
CONTINUOUS
 62
   134
 10
1404.822578
 20
156.086286
 11
1404.822578
 21
176.086286
  0
LINE
  8
0
  6
CONTINUOUS
 62
   134
 10
1344.822578
 20
156.086286
 11
1344.822578
 21
176.086286
  0
LINE
  8
0
  6
CONTINUOUS
 62
   134
 10
1483.916711
 20
79.467026
 11
1484.822578
 21
76.086286
  0
LINE
  8
0
  6
CONTINUOUS
 62
   134
 10
1484.822578
 20
76.086286
 11
1485.728445
 21
79.467026
  0
LINE
  8
0
  6
CONTINUOUS
 62
   134
 10
1485.728445
 20
147.705546
 11
1484.822578
 21
151.086286
  0
LINE
  8
0
  6
CONTINUOUS
 62
   134
 10
1484.822578
 20
151.086286
 11
1483.916711
 21
147.705546
  0
LINE
  8
0
  6
CONTINUOUS
 62
   134
 10
1484.822578
 20
76.086286
 11
1484.822578
 21
151.086286
  0
TEXT
  8
0
 62
   134
 10
1482.822578
 20
105.586286
 40
20.000000
  1
75
 50
90.000000
 41
0.800000
  7
GOTHIC
 72
     1
 11
1482.822578
 21
113.586286
  0
LINE
  8
0
  6
CONTINUOUS
 62
   134
 10
1509.832578
 20
76.086286
 11
1479.822578
 21
76.086286
  0
LINE
  8
0
  6
CONTINUOUS
 62
   134
 10
1499.822578
 20
151.086286
 11
1479.822578
 21
151.086286
  0
LINE
  8
0
  6
CONTINUOUS
 62
   134
 10
1581.461838
 20
170.180419
 11
1584.842578
 21
171.086286
  0
LINE
  8
0
  6
CONTINUOUS
 62
   134
 10
1584.842578
 20
171.086286
 11
1581.461838
 21
171.992153
  0
LINE
  8
0
  6
CONTINUOUS
 62
   134
 10
1508.203318
 20
171.992153
 11
1504.822578
 21
171.086286
  0
LINE
  8
0
  6
CONTINUOUS
 62
   134
 10
1504.822578
 20
171.086286
 11
1508.203318
 21
170.180419
  0
LINE
  8
0
  6
CONTINUOUS
 62
   134
 10
1584.842578
 20
171.086286
 11
1504.822578
 21
171.086286
  0
TEXT
  8
0
 62
   134
 10
1536.832578
 20
173.086286
 40
20.000000
  1
80
 41
0.800000
  7
GOTHIC
 72
     1
 11
1544.832578
 21
173.086286
  0
LINE
  8
0
  6
CONTINUOUS
 62
   134
 10
1584.842578
 20
156.086286
 11
1584.842578
 21
176.086286
  0
LINE
  8
0
  6
CONTINUOUS
 62
   134
 10
1504.822578
 20
156.086286
 11
1504.822578
 21
176.086286
  0
LINE
  8
0
  6
CONTINUOUS
 62
   134
 10
1663.936711
 20
31.467026
 11
1664.842578
 21
28.086286
  0
LINE
  8
0
  6
CONTINUOUS
 62
   134
 10
1664.842578
 20
28.086286
 11
1665.748445
 21
31.467026
  0
LINE
  8
0
  6
CONTINUOUS
 62
   134
 10
1665.748445
 20
147.705546
 11
1664.842578
 21
151.086286
  0
LINE
  8
0
  6
CONTINUOUS
 62
   134
 10
1664.842578
 20
151.086286
 11
1663.936711
 21
147.705546
  0
LINE
  8
0
  6
CONTINUOUS
 62
   134
 10
1664.842578
 20
28.086286
 11
1664.842578
 21
151.086286
  0
TEXT
  8
0
 62
   134
 10
1662.842578
 20
77.586286
 40
20.000000
  1
123
 50
90.000000
 41
0.800000
  7
GOTHIC
 72
     1
 11
1662.842578
 21
89.586286
  0
LINE
  8
0
  6
CONTINUOUS
 62
   134
 10
1711.842578
 20
28.086286
 11
1659.842578
 21
28.086286
  0
LINE
  8
0
  6
CONTINUOUS
 62
   134
 10
1679.842578
 20
151.086286
 11
1659.842578
 21
151.086286
  0
LINE
  8
0
  6
CONTINUOUS
 62
   134
 10
1835.461838
 20
170.180419
 11
1838.842578
 21
171.086286
  0
LINE
  8
0
  6
CONTINUOUS
 62
   134
 10
1838.842578
 20
171.086286
 11
1835.461838
 21
171.992153
  0
LINE
  8
0
  6
CONTINUOUS
 62
   134
 10
1688.223318
 20
171.992153
 11
1684.842578
 21
171.086286
  0
LINE
  8
0
  6
CONTINUOUS
 62
   134
 10
1684.842578
 20
171.086286
 11
1688.223318
 21
170.180419
  0
LINE
  8
0
  6
CONTINUOUS
 62
   134
 10
1838.842578
 20
171.086286
 11
1684.842578
 21
171.086286
  0
TEXT
  8
0
 62
   134
 10
1749.842578
 20
173.086286
 40
20.000000
  1
154
 41
0.800000
  7
GOTHIC
 72
     1
 11
1761.842578
 21
173.086286
  0
LINE
  8
0
  6
CONTINUOUS
 62
   134
 10
1838.842578
 20
156.086286
 11
1838.842578
 21
176.086286
  0
LINE
  8
0
  6
CONTINUOUS
 62
   134
 10
1684.842578
 20
156.086286
 11
1684.842578
 21
176.086286
  0
LINE
  8
0
  6
CONTINUOUS
 62
   134
 10
842.589618
 20
622.866520
 11
839.201620
 21
621.988186
  0
LINE
  8
0
  6
CONTINUOUS
 62
   134
 10
839.201620
 20
621.988186
 11
842.574879
 21
621.054846
  0
LINE
  8
0
  6
CONTINUOUS
 62
   134
 10
891.793646
 20
620.654422
 11
895.181644
 21
621.532756
  0
LINE
  8
0
  6
CONTINUOUS
 62
   134
 10
895.181644
 20
621.532756
 11
891.808385
 21
622.466096
  0
LINE
  8
0
  6
CONTINUOUS
 62
   134
 10
839.201620
 20
621.988186
 11
895.181644
 21
621.532756
  0
TEXT
  8
0
 62
   134
 10
859.208167
 20
623.825488
 40
20.000000
  1
56
 50
359.533875
 41
0.800000
  7
GOTHIC
 72
     1
 11
867.207902
 21
623.760405
  0
LINE
  8
0
  6
CONTINUOUS
 62
   134
 10
838.735138
 20
564.649790
 11
839.242297
 21
626.988021
  0
LINE
  8
0
  6
CONTINUOUS
 62
   134
 10
894.735138
 20
566.649790
 11
895.222320
 21
626.532590
  0
LINE
  8
0
  6
CONTINUOUS
 62
   134
 10
913.042173
 20
469.824589
 11
913.920506
 21
466.436591
  0
LINE
  8
0
  6
CONTINUOUS
 62
   134
 10
913.920506
 20
466.436591
 11
914.853846
 21
469.809850
  0
LINE
  8
0
  6
CONTINUOUS
 62
   134
 10
915.896609
 20
597.982713
 11
915.018275
 21
601.370711
  0
LINE
  8
0
  6
CONTINUOUS
 62
   134
 10
915.018275
 20
601.370711
 11
914.084935
 21
597.997452
  0
LINE
  8
0
  6
CONTINUOUS
 62
   134
 10
913.920506
 20
466.436591
 11
915.018275
 21
601.370711
  0
TEXT
  8
0
 62
   134
 10
912.306750
 20
513.920584
 40
20.000000
  1
134.9
 50
89.533875
 41
0.800000
  7
GOTHIC
 72
     1
 11
912.469457
 21
533.919922
  0
LINE
  8
0
  6
CONTINUOUS
 62
   134
 10
892.694296
 20
466.609279
 11
918.920341
 21
466.395915
  0
LINE
  8
0
  6
CONTINUOUS
 62
   134
 10
885.694296
 20
601.609279
 11
920.018110
 21
601.330034
  0
LINE
  8
0
  6
CONTINUOUS
 62
   134
 10
998.518957
 20
622.893704
 11
995.131743
 21
622.012352
  0
LINE
  8
0
  6
CONTINUOUS
 62
   134
 10
995.131743
 20
622.012352
 11
998.505833
 21
621.082019
  0
LINE
  8
0
  6
CONTINUOUS
 62
   134
 10
1056.131151
 20
620.664565
 11
1059.518364
 21
621.545917
  0
LINE
  8
0
  6
CONTINUOUS
 62
   134
 10
1059.518364
 20
621.545917
 11
1056.144275
 21
622.476251
  0
LINE
  8
0
  6
CONTINUOUS
 62
   134
 10
995.131743
 20
622.012352
 11
1059.518364
 21
621.545917
  0
TEXT
  8
0
 62
   134
 10
1011.339962
 20
623.894987
 40
20.000000
  1
64.4
 50
359.584941
 41
0.800000
  7
GOTHIC
 72
     1
 11
1027.339542
 21
623.779082
  0
LINE
  8
0
  6
CONTINUOUS
 62
   134
 10
994.730682
 20
566.649825
 11
995.167964
 21
627.012221
  0
LINE
  8
0
  6
CONTINUOUS
 62
   134
 10
1059.120682
 20
566.649825
 11
1059.554585
 21
626.545786
  0
LINE
  8
0
  6
CONTINUOUS
 62
   134
 10
1077.405388
 20
454.847353
 11
1078.286741
 21
451.460139
  0
LINE
  8
0
  6
CONTINUOUS
 62
   134
 10
1078.286741
 20
451.460139
 11
1079.217074
 21
454.834229
  0
LINE
  8
0
  6
CONTINUOUS
 62
   134
 10
1080.254310
 20
598.014346
 11
1079.372958
 21
601.401560
  0
LINE
  8
0
  6
CONTINUOUS
 62
   134
 10
1079.372958
 20
601.401560
 11
1078.442625
 21
598.027471
  0
LINE
  8
0
  6
CONTINUOUS
 62
   134
 10
1078.286741
 20
451.460139
 11
1079.372958
 21
601.401560
  0
TEXT
  8
0
 62
   134
 10
1076.685020
 20
506.445863
 40
20.000000
  1
149.9
 50
89.584941
 41
0.800000
  7
GOTHIC
 72
     1
 11
1076.829902
 21
526.445338
  0
LINE
  8
0
  6
CONTINUOUS
 62
   134
 10
1057.084330
 20
451.613735
 11
1083.286610
 21
451.423919
  0
LINE
  8
0
  6
CONTINUOUS
 62
   134
 10
1050.084330
 20
601.613735
 11
1084.372827
 21
601.365340
  0
LINE
  8
0
  6
CONTINUOUS
 62
   134
 10
3383.428652
 20
157.617727
 11
3380.047911
 21
156.711861
  0
LINE
  8
0
  6
CONTINUOUS
 62
   134
 10
3380.047911
 20
156.711861
 11
3383.428652
 21
155.805994
  0
LINE
  8
0
  6
CONTINUOUS
 62
   134
 10
3436.667171
 20
155.805994
 11
3440.047911
 21
156.711861
  0
LINE
  8
0
  6
CONTINUOUS
 62
   134
 10
3440.047911
 20
156.711861
 11
3436.667171
 21
157.617727
  0
LINE
  8
0
  6
CONTINUOUS
 62
   134
 10
3380.047911
 20
156.711861
 11
3440.047911
 21
156.711861
  0
TEXT
  8
0
 62
   134
 10
3402.047911
 20
158.711861
 40
20.000000
  1
60
 41
0.800000
  7
GOTHIC
 72
     1
 11
3410.047911
 21
158.711861
  0
LINE
  8
0
  6
CONTINUOUS
 62
   134
 10
3380.047911
 20
95.211861
 11
3380.047911
 21
161.711861
  0
LINE
  8
0
  6
CONTINUOUS
 62
   134
 10
3440.047911
 20
95.211861
 11
3440.047911
 21
161.711861
  0
LINE
  8
0
  6
CONTINUOUS
 62
   134
 10
3459.142045
 20
78.592601
 11
3460.047911
 21
75.211861
  0
LINE
  8
0
  6
CONTINUOUS
 62
   134
 10
3460.047911
 20
75.211861
 11
3460.953778
 21
78.592601
  0
LINE
  8
0
  6
CONTINUOUS
 62
   134
 10
3460.953778
 20
133.331120
 11
3460.047911
 21
136.711861
  0
LINE
  8
0
  6
CONTINUOUS
 62
   134
 10
3460.047911
 20
136.711861
 11
3459.142045
 21
133.331120
  0
LINE
  8
0
  6
CONTINUOUS
 62
   134
 10
3460.047911
 20
75.211861
 11
3460.047911
 21
136.711861
  0
TEXT
  8
0
 62
   134
 10
3458.047911
 20
89.961861
 40
20.000000
  1
61.5
 50
90.000000
 41
0.800000
  7
GOTHIC
 72
     1
 11
3458.047911
 21
105.961861
  0
LINE
  8
0
  6
CONTINUOUS
 62
   134
 10
3445.047911
 20
75.211861
 11
3465.047911
 21
75.211861
  0
LINE
  8
0
  6
CONTINUOUS
 62
   134
 10
3427.547911
 20
136.711861
 11
3465.047911
 21
136.711861
  0
LINE
  8
0
  6
CONTINUOUS
 62
   134
 10
1136.236577
 20
621.513699
 11
1133.168936
 21
619.828594
  0
LINE
  8
0
  6
CONTINUOUS
 62
   134
 10
1133.168936
 20
619.828594
 11
1136.668143
 21
619.754117
  0
LINE
  8
0
  6
CONTINUOUS
 62
   134
 10
1152.532940
 20
623.645218
 11
1155.600581
 21
625.330323
  0
LINE
  8
0
  6
CONTINUOUS
 62
   134
 10
1155.600581
 20
625.330323
 11
1152.101374
 21
625.404800
  0
LINE
  8
0
  6
CONTINUOUS
 62
   134
 10
1133.168936
 20
619.828594
 11
1155.600581
 21
625.330323
  0
TEXT
  8
0
 62
   134
 10
1128.368913
 20
620.710587
 40
20.000000
  1
23.1
 50
13.780699
 41
0.800000
  7
GOTHIC
 72
     1
 11
1143.908346
 21
624.521888
  0
LINE
  8
0
  6
CONTINUOUS
 62
   134
 10
1142.690807
 20
581.006029
 11
1131.977904
 21
624.684667
  0
LINE
  8
0
  6
CONTINUOUS
 62
   134
 10
1167.820807
 20
575.506029
 11
1154.409550
 21
630.186396
  0
LINE
  8
0
  6
CONTINUOUS
 62
   134
 10
1201.622892
 20
517.846157
 11
1203.307997
 21
514.778516
  0
LINE
  8
0
  6
CONTINUOUS
 62
   134
 10
1203.307997
 20
514.778516
 11
1203.382474
 21
518.277723
  0
LINE
  8
0
  6
CONTINUOUS
 62
   134
 10
1181.474104
 20
607.602516
 11
1179.788999
 21
610.670158
  0
LINE
  8
0
  6
CONTINUOUS
 62
   134
 10
1179.788999
 20
610.670158
 11
1179.714522
 21
607.170950
  0
LINE
  8
0
  6
CONTINUOUS
 62
   134
 10
1203.307997
 20
514.778516
 11
1179.788999
 21
610.670158
  0
TEXT
  8
0
 62
   134
 10
1189.679626
 20
578.740183
 40
20.000000
  1
98.7
 50
283.780699
 41
0.800000
  7
GOTHIC
 72
     1
 11
1193.490927
 21
563.200749
  0
LINE
  8
0
  6
CONTINUOUS
 62
   134
 10
1166.867911
 20
505.840987
 11
1208.164070
 21
515.969547
  0
LINE
  8
0
  6
CONTINUOUS
 62
   134
 10
1147.867911
 20
602.840987
 11
1184.645072
 21
611.861189
  0
LINE
  8
0
  6
CONTINUOUS
 62
   134
 10
1263.236577
 20
621.513699
 11
1260.168936
 21
619.828594
  0
LINE
  8
0
  6
CONTINUOUS
 62
   134
 10
1260.168936
 20
619.828594
 11
1263.668143
 21
619.754117
  0
LINE
  8
0
  6
CONTINUOUS
 62
   134
 10
1279.532940
 20
623.645218
 11
1282.600581
 21
625.330323
  0
LINE
  8
0
  6
CONTINUOUS
 62
   134
 10
1282.600581
 20
625.330323
 11
1279.101374
 21
625.404800
  0
LINE
  8
0
  6
CONTINUOUS
 62
   134
 10
1260.168936
 20
619.828594
 11
1282.600581
 21
625.330323
  0
TEXT
  8
0
 62
   134
 10
1255.368913
 20
620.710587
 40
20.000000
  1
23.1
 50
13.780699
 41
0.800000
  7
GOTHIC
 72
     1
 11
1270.908346
 21
624.521888
  0
LINE
  8
0
  6
CONTINUOUS
 62
   134
 10
1269.690807
 20
581.006029
 11
1258.977904
 21
624.684667
  0
LINE
  8
0
  6
CONTINUOUS
 62
   134
 10
1294.820807
 20
575.506029
 11
1281.409550
 21
630.186396
  0
LINE
  8
0
  6
CONTINUOUS
 62
   134
 10
1328.622892
 20
517.846157
 11
1330.307997
 21
514.778516
  0
LINE
  8
0
  6
CONTINUOUS
 62
   134
 10
1330.307997
 20
514.778516
 11
1330.382474
 21
518.277723
  0
LINE
  8
0
  6
CONTINUOUS
 62
   134
 10
1308.474104
 20
607.602516
 11
1306.788999
 21
610.670158
  0
LINE
  8
0
  6
CONTINUOUS
 62
   134
 10
1306.788999
 20
610.670158
 11
1306.714522
 21
607.170950
  0
LINE
  8
0
  6
CONTINUOUS
 62
   134
 10
1330.307997
 20
514.778516
 11
1306.788999
 21
610.670158
  0
TEXT
  8
0
 62
   134
 10
1316.679626
 20
578.740183
 40
20.000000
  1
98.7
 50
283.780699
 41
0.800000
  7
GOTHIC
 72
     1
 11
1320.490927
 21
563.200749
  0
LINE
  8
0
  6
CONTINUOUS
 62
   134
 10
1293.867911
 20
505.840987
 11
1335.164070
 21
515.969547
  0
LINE
  8
0
  6
CONTINUOUS
 62
   134
 10
1274.867911
 20
602.840987
 11
1311.645072
 21
611.861189
  0
LINE
  8
0
  6
CONTINUOUS
 62
   134
 10
1399.392579
 20
622.555822
 11
1396.011838
 21
621.649956
  0
LINE
  8
0
  6
CONTINUOUS
 62
   134
 10
1396.011838
 20
621.649956
 11
1399.392579
 21
620.744089
  0
LINE
  8
0
  6
CONTINUOUS
 62
   134
 10
1419.631098
 20
620.744089
 11
1423.011838
 21
621.649956
  0
LINE
  8
0
  6
CONTINUOUS
 62
   134
 10
1423.011838
 20
621.649956
 11
1419.631098
 21
622.555822
  0
LINE
  8
0
  6
CONTINUOUS
 62
   134
 10
1396.011838
 20
621.649956
 11
1423.011838
 21
621.649956
  0
TEXT
  8
0
 62
   134
 10
1401.511838
 20
623.649956
 40
20.000000
  1
27
 41
0.800000
  7
GOTHIC
 72
     1
 11
1409.511838
 21
623.649956
  0
LINE
  8
0
  6
CONTINUOUS
 62
   134
 10
1396.011838
 20
606.649956
 11
1396.011838
 21
626.649956
  0
LINE
  8
0
  6
CONTINUOUS
 62
   134
 10
1423.011838
 20
576.649956
 11
1423.011838
 21
626.649956
  0
LINE
  8
0
  6
CONTINUOUS
 62
   134
 10
1442.105972
 20
480.030696
 11
1443.011838
 21
476.649956
  0
LINE
  8
0
  6
CONTINUOUS
 62
   134
 10
1443.011838
 20
476.649956
 11
1443.917705
 21
480.030696
  0
LINE
  8
0
  6
CONTINUOUS
 62
   134
 10
1443.917705
 20
598.269215
 11
1443.011838
 21
601.649956
  0
LINE
  8
0
  6
CONTINUOUS
 62
   134
 10
1443.011838
 20
601.649956
 11
1442.105972
 21
598.269215
  0
LINE
  8
0
  6
CONTINUOUS
 62
   134
 10
1443.011838
 20
476.649956
 11
1443.011838
 21
601.649956
  0
TEXT
  8
0
 62
   134
 10
1441.011838
 20
527.149956
 40
20.000000
  1
125
 50
90.000000
 41
0.800000
  7
GOTHIC
 72
     1
 11
1441.011838
 21
539.149956
  0
LINE
  8
0
  6
CONTINUOUS
 62
   134
 10
1421.011838
 20
476.649956
 11
1448.011838
 21
476.649956
  0
LINE
  8
0
  6
CONTINUOUS
 62
   134
 10
1414.011838
 20
601.649956
 11
1448.011838
 21
601.649956
  0
LINE
  8
0
  6
CONTINUOUS
 62
   134
 10
3879.516154
 20
112.330602
 11
3880.422021
 21
108.949861
  0
LINE
  8
0
  6
CONTINUOUS
 62
   134
 10
3880.422021
 20
108.949861
 11
3881.327887
 21
112.330602
  0
LINE
  8
0
  6
CONTINUOUS
 62
   134
 10
3881.327887
 20
120.569121
 11
3880.422021
 21
123.949861
  0
LINE
  8
0
  6
CONTINUOUS
 62
   134
 10
3880.422021
 20
123.949861
 11
3879.516154
 21
120.569121
  0
LINE
  8
0
  6
CONTINUOUS
 62
   134
 10
3880.422021
 20
108.949861
 11
3880.422021
 21
123.949861
  0
TEXT
  8
0
 62
   134
 10
3878.422021
 20
108.449861
 40
20.000000
  1
15
 50
90.000000
 41
0.800000
  7
GOTHIC
 72
     1
 11
3878.422021
 21
116.449861
  0
LINE
  8
0
  6
CONTINUOUS
 62
   134
 10
3895.422021
 20
108.949861
 11
3875.422021
 21
108.949861
  0
LINE
  8
0
  6
CONTINUOUS
 62
   134
 10
3899.922021
 20
123.949861
 11
3875.422021
 21
123.949861
  0
LINE
  8
0
  6
CONTINUOUS
 62
   134
 10
3917.041280
 20
143.043995
 11
3920.422021
 21
143.949861
  0
LINE
  8
0
  6
CONTINUOUS
 62
   134
 10
3920.422021
 20
143.949861
 11
3917.041280
 21
144.855728
  0
LINE
  8
0
  6
CONTINUOUS
 62
   134
 10
3903.802761
 20
144.855728
 11
3900.422021
 21
143.949861
  0
LINE
  8
0
  6
CONTINUOUS
 62
   134
 10
3900.422021
 20
143.949861
 11
3903.802761
 21
143.043995
  0
LINE
  8
0
  6
CONTINUOUS
 62
   134
 10
3920.422021
 20
143.949861
 11
3900.422021
 21
143.949861
  0
TEXT
  8
0
 62
   134
 10
3902.422021
 20
145.949861
 40
20.000000
  1
20
 41
0.800000
  7
GOTHIC
 72
     1
 11
3910.422021
 21
145.949861
  0
LINE
  8
0
  6
CONTINUOUS
 62
   134
 10
3920.422021
 20
123.949861
 11
3920.422021
 21
148.949861
  0
LINE
  8
0
  6
CONTINUOUS
 62
   134
 10
3900.422021
 20
123.949861
 11
3900.422021
 21
148.949861
  0
LINE
  8
0
  6
CONTINUOUS
 62
   134
 10
1927.761805
 20
73.691573
 11
1928.667672
 21
70.310833
  0
LINE
  8
0
  6
CONTINUOUS
 62
   134
 10
1928.667672
 20
70.310833
 11
1929.573538
 21
73.691573
  0
LINE
  8
0
  6
CONTINUOUS
 62
   134
 10
1929.573538
 20
112.930093
 11
1928.667672
 21
116.310833
  0
LINE
  8
0
  6
CONTINUOUS
 62
   134
 10
1928.667672
 20
116.310833
 11
1927.761805
 21
112.930093
  0
LINE
  8
0
  6
CONTINUOUS
 62
   134
 10
1928.667672
 20
70.310833
 11
1928.667672
 21
116.310833
  0
TEXT
  8
0
 62
   134
 10
1926.667672
 20
85.310833
 40
20.000000
  1
46
 50
90.000000
 41
0.800000
  7
GOTHIC
 72
     1
 11
1926.667672
 21
93.310833
  0
LINE
  8
0
  6
CONTINUOUS
 62
   134
 10
1943.667672
 20
70.310833
 11
1923.667672
 21
70.310833
  0
LINE
  8
0
  6
CONTINUOUS
 62
   134
 10
1943.667672
 20
116.310833
 11
1923.667672
 21
116.310833
  0
LINE
  8
0
  6
CONTINUOUS
 62
   134
 10
1995.286931
 20
135.404966
 11
1998.667672
 21
136.310833
  0
LINE
  8
0
  6
CONTINUOUS
 62
   134
 10
1998.667672
 20
136.310833
 11
1995.286931
 21
137.216700
  0
LINE
  8
0
  6
CONTINUOUS
 62
   134
 10
1952.048412
 20
137.216700
 11
1948.667672
 21
136.310833
  0
LINE
  8
0
  6
CONTINUOUS
 62
   134
 10
1948.667672
 20
136.310833
 11
1952.048412
 21
135.404966
  0
LINE
  8
0
  6
CONTINUOUS
 62
   134
 10
1998.667672
 20
136.310833
 11
1948.667672
 21
136.310833
  0
TEXT
  8
0
 62
   134
 10
1965.667672
 20
138.310833
 40
20.000000
  1
50
 41
0.800000
  7
GOTHIC
 72
     1
 11
1973.667672
 21
138.310833
  0
LINE
  8
0
  6
CONTINUOUS
 62
   134
 10
1998.667672
 20
121.310833
 11
1998.667672
 21
141.310833
  0
LINE
  8
0
  6
CONTINUOUS
 62
   134
 10
1948.667672
 20
121.310833
 11
1948.667672
 21
141.310833
  0
LINE
  8
0
  6
CONTINUOUS
 62
   134
 10
2077.761805
 20
73.691573
 11
2078.667672
 21
70.310833
  0
LINE
  8
0
  6
CONTINUOUS
 62
   134
 10
2078.667672
 20
70.310833
 11
2079.573538
 21
73.691573
  0
LINE
  8
0
  6
CONTINUOUS
 62
   134
 10
2079.573538
 20
112.930093
 11
2078.667672
 21
116.310833
  0
LINE
  8
0
  6
CONTINUOUS
 62
   134
 10
2078.667672
 20
116.310833
 11
2077.761805
 21
112.930093
  0
LINE
  8
0
  6
CONTINUOUS
 62
   134
 10
2078.667672
 20
70.310833
 11
2078.667672
 21
116.310833
  0
TEXT
  8
0
 62
   134
 10
2076.667672
 20
85.310833
 40
20.000000
  1
46
 50
90.000000
 41
0.800000
  7
GOTHIC
 72
     1
 11
2076.667672
 21
93.310833
  0
LINE
  8
0
  6
CONTINUOUS
 62
   134
 10
2093.667672
 20
70.310833
 11
2073.667672
 21
70.310833
  0
LINE
  8
0
  6
CONTINUOUS
 62
   134
 10
2093.667672
 20
116.310833
 11
2073.667672
 21
116.310833
  0
LINE
  8
0
  6
CONTINUOUS
 62
   134
 10
2145.286931
 20
135.404966
 11
2148.667672
 21
136.310833
  0
LINE
  8
0
  6
CONTINUOUS
 62
   134
 10
2148.667672
 20
136.310833
 11
2145.286931
 21
137.216700
  0
LINE
  8
0
  6
CONTINUOUS
 62
   134
 10
2102.048412
 20
137.216700
 11
2098.667672
 21
136.310833
  0
LINE
  8
0
  6
CONTINUOUS
 62
   134
 10
2098.667672
 20
136.310833
 11
2102.048412
 21
135.404966
  0
LINE
  8
0
  6
CONTINUOUS
 62
   134
 10
2148.667672
 20
136.310833
 11
2098.667672
 21
136.310833
  0
TEXT
  8
0
 62
   134
 10
2115.667672
 20
138.310833
 40
20.000000
  1
50
 41
0.800000
  7
GOTHIC
 72
     1
 11
2123.667672
 21
138.310833
  0
LINE
  8
0
  6
CONTINUOUS
 62
   134
 10
2148.667672
 20
121.310833
 11
2148.667672
 21
141.310833
  0
LINE
  8
0
  6
CONTINUOUS
 62
   134
 10
2098.667672
 20
121.310833
 11
2098.667672
 21
141.310833
  0
LINE
  8
0
  6
CONTINUOUS
 62
   134
 10
3513.100353
 20
157.740186
 11
3509.719613
 21
156.834320
  0
LINE
  8
0
  6
CONTINUOUS
 62
   134
 10
3509.719613
 20
156.834320
 11
3513.100353
 21
155.928453
  0
LINE
  8
0
  6
CONTINUOUS
 62
   134
 10
3566.338873
 20
155.928453
 11
3569.719613
 21
156.834320
  0
LINE
  8
0
  6
CONTINUOUS
 62
   134
 10
3569.719613
 20
156.834320
 11
3566.338873
 21
157.740186
  0
LINE
  8
0
  6
CONTINUOUS
 62
   134
 10
3509.719613
 20
156.834320
 11
3569.719613
 21
156.834320
  0
TEXT
  8
0
 62
   134
 10
3531.719613
 20
158.834320
 40
20.000000
  1
60
 41
0.800000
  7
GOTHIC
 72
     1
 11
3539.719613
 21
158.834320
  0
LINE
  8
0
  6
CONTINUOUS
 62
   134
 10
3509.719613
 20
86.334320
 11
3509.719613
 21
161.834320
  0
LINE
  8
0
  6
CONTINUOUS
 62
   134
 10
3569.719613
 20
86.334320
 11
3569.719613
 21
161.834320
  0
LINE
  8
0
  6
CONTINUOUS
 62
   134
 10
3588.813746
 20
65.215060
 11
3589.719613
 21
61.834320
  0
LINE
  8
0
  6
CONTINUOUS
 62
   134
 10
3589.719613
 20
61.834320
 11
3590.625480
 21
65.215060
  0
LINE
  8
0
  6
CONTINUOUS
 62
   134
 10
3590.625480
 20
133.453579
 11
3589.719613
 21
136.834320
  0
LINE
  8
0
  6
CONTINUOUS
 62
   134
 10
3589.719613
 20
136.834320
 11
3588.813746
 21
133.453579
  0
LINE
  8
0
  6
CONTINUOUS
 62
   134
 10
3589.719613
 20
61.834320
 11
3589.719613
 21
136.834320
  0
TEXT
  8
0
 62
   134
 10
3587.719613
 20
91.334320
 40
20.000000
  1
75
 50
90.000000
 41
0.800000
  7
GOTHIC
 72
     1
 11
3587.719613
 21
99.334320
  0
LINE
  8
0
  6
CONTINUOUS
 62
   134
 10
3574.719613
 20
61.834320
 11
3594.719613
 21
61.834320
  0
LINE
  8
0
  6
CONTINUOUS
 62
   134
 10
3557.719613
 20
136.834320
 11
3594.719613
 21
136.834320
  0
LINE
  8
0
  6
CONTINUOUS
 62
   134
 10
2209.149420
 20
58.168717
 11
2210.055286
 21
54.787976
  0
LINE
  8
0
  6
CONTINUOUS
 62
   134
 10
2210.055286
 20
54.787976
 11
2210.961153
 21
58.168717
  0
LINE
  8
0
  6
CONTINUOUS
 62
   134
 10
2210.961153
 20
131.407236
 11
2210.055286
 21
134.787976
  0
LINE
  8
0
  6
CONTINUOUS
 62
   134
 10
2210.055286
 20
134.787976
 11
2209.149420
 21
131.407236
  0
LINE
  8
0
  6
CONTINUOUS
 62
   134
 10
2210.055286
 20
54.787976
 11
2210.055286
 21
134.787976
  0
TEXT
  8
0
 62
   134
 10
2208.055286
 20
86.787976
 40
20.000000
  1
80
 50
90.000000
 41
0.800000
  7
GOTHIC
 72
     1
 11
2208.055286
 21
94.787976
  0
LINE
  8
0
  6
CONTINUOUS
 62
   134
 10
2235.065286
 20
54.787976
 11
2205.055286
 21
54.787976
  0
LINE
  8
0
  6
CONTINUOUS
 62
   134
 10
2225.055286
 20
134.787976
 11
2205.055286
 21
134.787976
  0
LINE
  8
0
  6
CONTINUOUS
 62
   134
 10
2306.694546
 20
153.882110
 11
2310.075286
 21
154.787976
  0
LINE
  8
0
  6
CONTINUOUS
 62
   134
 10
2310.075286
 20
154.787976
 11
2306.694546
 21
155.693843
  0
LINE
  8
0
  6
CONTINUOUS
 62
   134
 10
2233.436027
 20
155.693843
 11
2230.055286
 21
154.787976
  0
LINE
  8
0
  6
CONTINUOUS
 62
   134
 10
2230.055286
 20
154.787976
 11
2233.436027
 21
153.882110
  0
LINE
  8
0
  6
CONTINUOUS
 62
   134
 10
2310.075286
 20
154.787976
 11
2230.055286
 21
154.787976
  0
TEXT
  8
0
 62
   134
 10
2262.065286
 20
156.787976
 40
20.000000
  1
80
 41
0.800000
  7
GOTHIC
 72
     1
 11
2270.065286
 21
156.787976
  0
LINE
  8
0
  6
CONTINUOUS
 62
   134
 10
2310.075286
 20
139.787976
 11
2310.075286
 21
159.787976
  0
LINE
  8
0
  6
CONTINUOUS
 62
   134
 10
2230.055286
 20
139.787976
 11
2230.055286
 21
159.787976
  0
LINE
  8
0
  6
CONTINUOUS
 62
   134
 10
1578.501012
 20
621.966382
 11
1575.120271
 21
621.060516
  0
LINE
  8
0
  6
CONTINUOUS
 62
   134
 10
1575.120271
 20
621.060516
 11
1578.501012
 21
620.154649
  0
LINE
  8
0
  6
CONTINUOUS
 62
   134
 10
1597.739531
 20
620.154649
 11
1601.120271
 21
621.060516
  0
LINE
  8
0
  6
CONTINUOUS
 62
   134
 10
1601.120271
 20
621.060516
 11
1597.739531
 21
621.966382
  0
LINE
  8
0
  6
CONTINUOUS
 62
   134
 10
1575.120271
 20
621.060516
 11
1601.120271
 21
621.060516
  0
TEXT
  8
0
 62
   134
 10
1580.120271
 20
623.060516
 40
20.000000
  1
26
 41
0.800000
  7
GOTHIC
 72
     1
 11
1588.120271
 21
623.060516
  0
LINE
  8
0
  6
CONTINUOUS
 62
   134
 10
1575.120271
 20
606.060516
 11
1575.120271
 21
626.060516
  0
LINE
  8
0
  6
CONTINUOUS
 62
   134
 10
1601.120271
 20
576.060516
 11
1601.120271
 21
626.060516
  0
LINE
  8
0
  6
CONTINUOUS
 62
   134
 10
1620.214405
 20
507.441256
 11
1621.120271
 21
504.060516
  0
LINE
  8
0
  6
CONTINUOUS
 62
   134
 10
1621.120271
 20
504.060516
 11
1622.026138
 21
507.441256
  0
LINE
  8
0
  6
CONTINUOUS
 62
   134
 10
1622.026138
 20
597.679775
 11
1621.120271
 21
601.060516
  0
LINE
  8
0
  6
CONTINUOUS
 62
   134
 10
1621.120271
 20
601.060516
 11
1620.214405
 21
597.679775
  0
LINE
  8
0
  6
CONTINUOUS
 62
   134
 10
1621.120271
 20
504.060516
 11
1621.120271
 21
601.060516
  0
TEXT
  8
0
 62
   134
 10
1619.120271
 20
544.560516
 40
20.000000
  1
97
 50
90.000000
 41
0.800000
  7
GOTHIC
 72
     1
 11
1619.120271
 21
552.560516
  0
LINE
  8
0
  6
CONTINUOUS
 62
   134
 10
1600.120271
 20
504.060516
 11
1626.120271
 21
504.060516
  0
LINE
  8
0
  6
CONTINUOUS
 62
   134
 10
1593.120271
 20
601.060516
 11
1626.120271
 21
601.060516
  0
LINE
  8
0
  6
CONTINUOUS
 62
   134
 10
1704.501012
 20
621.966382
 11
1701.120271
 21
621.060516
  0
LINE
  8
0
  6
CONTINUOUS
 62
   134
 10
1701.120271
 20
621.060516
 11
1704.501012
 21
620.154649
  0
LINE
  8
0
  6
CONTINUOUS
 62
   134
 10
1724.739531
 20
620.154649
 11
1728.120271
 21
621.060516
  0
LINE
  8
0
  6
CONTINUOUS
 62
   134
 10
1728.120271
 20
621.060516
 11
1724.739531
 21
621.966382
  0
LINE
  8
0
  6
CONTINUOUS
 62
   134
 10
1701.120271
 20
621.060516
 11
1728.120271
 21
621.060516
  0
TEXT
  8
0
 62
   134
 10
1706.620271
 20
623.060516
 40
20.000000
  1
27
 41
0.800000
  7
GOTHIC
 72
     1
 11
1714.620271
 21
623.060516
  0
LINE
  8
0
  6
CONTINUOUS
 62
   134
 10
1701.120271
 20
606.060516
 11
1701.120271
 21
626.060516
  0
LINE
  8
0
  6
CONTINUOUS
 62
   134
 10
1728.120271
 20
576.060516
 11
1728.120271
 21
626.060516
  0
LINE
  8
0
  6
CONTINUOUS
 62
   134
 10
1747.214405
 20
474.441256
 11
1748.120271
 21
471.060516
  0
LINE
  8
0
  6
CONTINUOUS
 62
   134
 10
1748.120271
 20
471.060516
 11
1749.026138
 21
474.441256
  0
LINE
  8
0
  6
CONTINUOUS
 62
   134
 10
1749.026138
 20
597.679775
 11
1748.120271
 21
601.060516
  0
LINE
  8
0
  6
CONTINUOUS
 62
   134
 10
1748.120271
 20
601.060516
 11
1747.214405
 21
597.679775
  0
LINE
  8
0
  6
CONTINUOUS
 62
   134
 10
1748.120271
 20
471.060516
 11
1748.120271
 21
601.060516
  0
TEXT
  8
0
 62
   134
 10
1746.120271
 20
524.060516
 40
20.000000
  1
130
 50
90.000000
 41
0.800000
  7
GOTHIC
 72
     1
 11
1746.120271
 21
536.060516
  0
LINE
  8
0
  6
CONTINUOUS
 62
   134
 10
1726.120271
 20
471.060516
 11
1753.120271
 21
471.060516
  0
LINE
  8
0
  6
CONTINUOUS
 62
   134
 10
1719.120271
 20
601.060516
 11
1753.120271
 21
601.060516
  0
LINE
  8
0
  6
CONTINUOUS
 62
   134
 10
1831.445316
 20
621.967206
 11
1828.065893
 21
621.056438
  0
LINE
  8
0
  6
CONTINUOUS
 62
   134
 10
1828.065893
 20
621.056438
 11
1831.447944
 21
620.155475
  0
LINE
  8
0
  6
CONTINUOUS
 62
   134
 10
1851.826285
 20
620.185028
 11
1855.205708
 21
621.095797
  0
LINE
  8
0
  6
CONTINUOUS
 62
   134
 10
1855.205708
 20
621.095797
 11
1851.823657
 21
621.996760
  0
LINE
  8
0
  6
CONTINUOUS
 62
   134
 10
1828.065893
 20
621.056438
 11
1855.205708
 21
621.095797
  0
TEXT
  8
0
 62
   134
 10
1825.632917
 20
623.052911
 40
20.000000
  1
27.1
 50
0.083093
 41
0.800000
  7
GOTHIC
 72
     1
 11
1841.632900
 21
623.076115
  0
LINE
  8
0
  6
CONTINUOUS
 62
   134
 10
1828.113020
 20
588.560510
 11
1828.058642
 21
626.056432
  0
LINE
  8
0
  6
CONTINUOUS
 62
   134
 10
1855.271020
 20
576.060510
 11
1855.198457
 21
626.095792
  0
LINE
  8
0
  6
CONTINUOUS
 62
   134
 10
1874.541631
 20
454.386348
 11
1875.452400
 21
451.006925
  0
LINE
  8
0
  6
CONTINUOUS
 62
   134
 10
1875.452400
 20
451.006925
 11
1876.353362
 21
454.388975
  0
LINE
  8
0
  6
CONTINUOUS
 62
   134
 10
1876.145460
 20
597.745400
 11
1875.234692
 21
601.124823
  0
LINE
  8
0
  6
CONTINUOUS
 62
   134
 10
1875.234692
 20
601.124823
 11
1874.333729
 21
597.742772
  0
LINE
  8
0
  6
CONTINUOUS
 62
   134
 10
1875.452400
 20
451.006925
 11
1875.234692
 21
601.124823
  0
TEXT
  8
0
 62
   134
 10
1877.314539
 20
546.068753
 40
20.000000
  1
150.1
 50
270.083093
 41
0.800000
  7
GOTHIC
 72
     1
 11
1877.343544
 21
526.068774
  0
LINE
  8
0
  6
CONTINUOUS
 62
   134
 10
1853.278266
 20
450.974767
 11
1880.452394
 21
451.014176
  0
LINE
  8
0
  6
CONTINUOUS
 62
   134
 10
1835.892266
 20
601.067767
 11
1880.234686
 21
601.132074
  0
LINE
  8
0
  6
CONTINUOUS
 62
   134
 10
2493.198773
 20
141.089971
 11
2489.818033
 21
140.184104
  0
LINE
  8
0
  6
CONTINUOUS
 62
   134
 10
2489.818033
 20
140.184104
 11
2493.198773
 21
139.278237
  0
LINE
  8
0
  6
CONTINUOUS
 62
   134
 10
2500.437293
 20
139.278237
 11
2503.818033
 21
140.184104
  0
LINE
  8
0
  6
CONTINUOUS
 62
   134
 10
2503.818033
 20
140.184104
 11
2500.437293
 21
141.089971
  0
LINE
  8
0
  6
CONTINUOUS
 62
   134
 10
2489.818033
 20
140.184104
 11
2503.818033
 21
140.184104
  0
TEXT
  8
0
 62
   134
 10
2488.818033
 20
142.184104
 40
20.000000
  1
14
 41
0.800000
  7
GOTHIC
 72
     1
 11
2496.818033
 21
142.184104
  0
LINE
  8
0
  6
CONTINUOUS
 62
   134
 10
2489.818033
 20
123.184104
 11
2489.818033
 21
145.184104
  0
LINE
  8
0
  6
CONTINUOUS
 62
   134
 10
2503.818033
 20
80.185104
 11
2503.818033
 21
145.184104
  0
LINE
  8
0
  6
CONTINUOUS
 62
   134
 10
2522.912166
 20
63.565844
 11
2523.818033
 21
60.185104
  0
LINE
  8
0
  6
CONTINUOUS
 62
   134
 10
2523.818033
 20
60.185104
 11
2524.723900
 21
63.565844
  0
LINE
  8
0
  6
CONTINUOUS
 62
   134
 10
2524.723900
 20
116.803364
 11
2523.818033
 21
120.184104
  0
LINE
  8
0
  6
CONTINUOUS
 62
   134
 10
2523.818033
 20
120.184104
 11
2522.912166
 21
116.803364
  0
LINE
  8
0
  6
CONTINUOUS
 62
   134
 10
2523.818033
 20
60.185104
 11
2523.818033
 21
120.184104
  0
TEXT
  8
0
 62
   134
 10
2521.818033
 20
82.184604
 40
20.000000
  1
60
 50
90.000000
 41
0.800000
  7
GOTHIC
 72
     1
 11
2521.818033
 21
90.184604
  0
LINE
  8
0
  6
CONTINUOUS
 62
   134
 10
2508.818033
 20
60.185104
 11
2528.818033
 21
60.185104
  0
LINE
  8
0
  6
CONTINUOUS
 62
   134
 10
2506.318033
 20
120.184104
 11
2528.818033
 21
120.184104
  0
LINE
  8
0
  6
CONTINUOUS
 62
   134
 10
2607.198773
 20
141.089971
 11
2603.818033
 21
140.184104
  0
LINE
  8
0
  6
CONTINUOUS
 62
   134
 10
2603.818033
 20
140.184104
 11
2607.198773
 21
139.278237
  0
LINE
  8
0
  6
CONTINUOUS
 62
   134
 10
2616.437293
 20
139.278237
 11
2619.818033
 21
140.184104
  0
LINE
  8
0
  6
CONTINUOUS
 62
   134
 10
2619.818033
 20
140.184104
 11
2616.437293
 21
141.089971
  0
LINE
  8
0
  6
CONTINUOUS
 62
   134
 10
2603.818033
 20
140.184104
 11
2619.818033
 21
140.184104
  0
TEXT
  8
0
 62
   134
 10
2603.818033
 20
142.184104
 40
20.000000
  1
16
 41
0.800000
  7
GOTHIC
 72
     1
 11
2611.818033
 21
142.184104
  0
LINE
  8
0
  6
CONTINUOUS
 62
   134
 10
2603.818033
 20
125.184104
 11
2603.818033
 21
145.184104
  0
LINE
  8
0
  6
CONTINUOUS
 62
   134
 10
2619.818033
 20
125.184104
 11
2619.818033
 21
145.184104
  0
LINE
  8
0
  6
CONTINUOUS
 62
   134
 10
2638.912166
 20
63.565844
 11
2639.818033
 21
60.185104
  0
LINE
  8
0
  6
CONTINUOUS
 62
   134
 10
2639.818033
 20
60.185104
 11
2640.723900
 21
63.565844
  0
LINE
  8
0
  6
CONTINUOUS
 62
   134
 10
2640.723900
 20
116.803364
 11
2639.818033
 21
120.184104
  0
LINE
  8
0
  6
CONTINUOUS
 62
   134
 10
2639.818033
 20
120.184104
 11
2638.912166
 21
116.803364
  0
LINE
  8
0
  6
CONTINUOUS
 62
   134
 10
2639.818033
 20
60.185104
 11
2639.818033
 21
120.184104
  0
TEXT
  8
0
 62
   134
 10
2637.818033
 20
82.184604
 40
20.000000
  1
60
 50
90.000000
 41
0.800000
  7
GOTHIC
 72
     1
 11
2637.818033
 21
90.184604
  0
LINE
  8
0
  6
CONTINUOUS
 62
   134
 10
2623.818033
 20
60.185104
 11
2644.818033
 21
60.185104
  0
LINE
  8
0
  6
CONTINUOUS
 62
   134
 10
2624.818033
 20
120.184104
 11
2644.818033
 21
120.184104
  0
LINE
  8
0
  6
CONTINUOUS
 62
   134
 10
2723.198773
 20
141.089971
 11
2719.818033
 21
140.184104
  0
LINE
  8
0
  6
CONTINUOUS
 62
   134
 10
2719.818033
 20
140.184104
 11
2723.198773
 21
139.278237
  0
LINE
  8
0
  6
CONTINUOUS
 62
   134
 10
2736.437293
 20
139.278237
 11
2739.818033
 21
140.184104
  0
LINE
  8
0
  6
CONTINUOUS
 62
   134
 10
2739.818033
 20
140.184104
 11
2736.437293
 21
141.089971
  0
LINE
  8
0
  6
CONTINUOUS
 62
   134
 10
2719.818033
 20
140.184104
 11
2739.818033
 21
140.184104
  0
TEXT
  8
0
 62
   134
 10
2721.818033
 20
142.184104
 40
20.000000
  1
20
 41
0.800000
  7
GOTHIC
 72
     1
 11
2729.818033
 21
142.184104
  0
LINE
  8
0
  6
CONTINUOUS
 62
   134
 10
2719.818033
 20
125.184104
 11
2719.818033
 21
145.184104
  0
LINE
  8
0
  6
CONTINUOUS
 62
   134
 10
2739.818033
 20
125.184104
 11
2739.818033
 21
145.184104
  0
LINE
  8
0
  6
CONTINUOUS
 62
   134
 10
2758.912166
 20
63.564844
 11
2759.818033
 21
60.184104
  0
LINE
  8
0
  6
CONTINUOUS
 62
   134
 10
2759.818033
 20
60.184104
 11
2760.723900
 21
63.564844
  0
LINE
  8
0
  6
CONTINUOUS
 62
   134
 10
2760.723900
 20
116.803364
 11
2759.818033
 21
120.184104
  0
LINE
  8
0
  6
CONTINUOUS
 62
   134
 10
2759.818033
 20
120.184104
 11
2758.912166
 21
116.803364
  0
LINE
  8
0
  6
CONTINUOUS
 62
   134
 10
2759.818033
 20
60.184104
 11
2759.818033
 21
120.184104
  0
TEXT
  8
0
 62
   134
 10
2757.818033
 20
82.184104
 40
20.000000
  1
60
 50
90.000000
 41
0.800000
  7
GOTHIC
 72
     1
 11
2757.818033
 21
90.184104
  0
LINE
  8
0
  6
CONTINUOUS
 62
   134
 10
2741.818033
 20
60.184104
 11
2764.818033
 21
60.184104
  0
LINE
  8
0
  6
CONTINUOUS
 62
   134
 10
2744.818033
 20
120.184104
 11
2764.818033
 21
120.184104
  0
LINE
  8
0
  6
CONTINUOUS
 62
   134
 10
2843.198773
 20
141.089971
 11
2839.818033
 21
140.184104
  0
LINE
  8
0
  6
CONTINUOUS
 62
   134
 10
2839.818033
 20
140.184104
 11
2843.198773
 21
139.278237
  0
LINE
  8
0
  6
CONTINUOUS
 62
   134
 10
2860.837293
 20
139.278237
 11
2864.218033
 21
140.184104
  0
LINE
  8
0
  6
CONTINUOUS
 62
   134
 10
2864.218033
 20
140.184104
 11
2860.837293
 21
141.089971
  0
LINE
  8
0
  6
CONTINUOUS
 62
   134
 10
2839.818033
 20
140.184104
 11
2864.218033
 21
140.184104
  0
TEXT
  8
0
 62
   134
 10
2836.018033
 20
142.184104
 40
20.000000
  1
24.4
 41
0.800000
  7
GOTHIC
 72
     1
 11
2852.018033
 21
142.184104
  0
LINE
  8
0
  6
CONTINUOUS
 62
   134
 10
2839.818033
 20
125.184104
 11
2839.818033
 21
145.184104
  0
LINE
  8
0
  6
CONTINUOUS
 62
   134
 10
2864.218033
 20
125.184104
 11
2864.218033
 21
145.184104
  0
LINE
  8
0
  6
CONTINUOUS
 62
   134
 10
2883.312166
 20
63.564844
 11
2884.218033
 21
60.184104
  0
LINE
  8
0
  6
CONTINUOUS
 62
   134
 10
2884.218033
 20
60.184104
 11
2885.123900
 21
63.564844
  0
LINE
  8
0
  6
CONTINUOUS
 62
   134
 10
2885.123900
 20
116.803364
 11
2884.218033
 21
120.184104
  0
LINE
  8
0
  6
CONTINUOUS
 62
   134
 10
2884.218033
 20
120.184104
 11
2883.312166
 21
116.803364
  0
LINE
  8
0
  6
CONTINUOUS
 62
   134
 10
2884.218033
 20
60.184104
 11
2884.218033
 21
120.184104
  0
TEXT
  8
0
 62
   134
 10
2882.218033
 20
82.184104
 40
20.000000
  1
60
 50
90.000000
 41
0.800000
  7
GOTHIC
 72
     1
 11
2882.218033
 21
90.184104
  0
LINE
  8
0
  6
CONTINUOUS
 62
   134
 10
2864.018033
 20
60.184104
 11
2889.218033
 21
60.184104
  0
LINE
  8
0
  6
CONTINUOUS
 62
   134
 10
2869.218033
 20
120.184104
 11
2889.218033
 21
120.184104
  0
LINE
  8
0
  6
CONTINUOUS
 62
   134
 10
2967.598773
 20
141.089971
 11
2964.218033
 21
140.184104
  0
LINE
  8
0
  6
CONTINUOUS
 62
   134
 10
2964.218033
 20
140.184104
 11
2967.598773
 21
139.278237
  0
LINE
  8
0
  6
CONTINUOUS
 62
   134
 10
2990.337293
 20
139.278237
 11
2993.718033
 21
140.184104
  0
LINE
  8
0
  6
CONTINUOUS
 62
   134
 10
2993.718033
 20
140.184104
 11
2990.337293
 21
141.089971
  0
LINE
  8
0
  6
CONTINUOUS
 62
   134
 10
2964.218033
 20
140.184104
 11
2993.718033
 21
140.184104
  0
TEXT
  8
0
 62
   134
 10
2962.968033
 20
142.184104
 40
20.000000
  1
29.5
 41
0.800000
  7
GOTHIC
 72
     1
 11
2978.968033
 21
142.184104
  0
LINE
  8
0
  6
CONTINUOUS
 62
   134
 10
2964.218033
 20
125.184104
 11
2964.218033
 21
145.184104
  0
LINE
  8
0
  6
CONTINUOUS
 62
   134
 10
2993.718033
 20
125.184104
 11
2993.718033
 21
145.184104
  0
LINE
  8
0
  6
CONTINUOUS
 62
   134
 10
3012.812166
 20
63.564844
 11
3013.718033
 21
60.184104
  0
LINE
  8
0
  6
CONTINUOUS
 62
   134
 10
3013.718033
 20
60.184104
 11
3014.623900
 21
63.564844
  0
LINE
  8
0
  6
CONTINUOUS
 62
   134
 10
3014.623900
 20
116.803364
 11
3013.718033
 21
120.184104
  0
LINE
  8
0
  6
CONTINUOUS
 62
   134
 10
3013.718033
 20
120.184104
 11
3012.812166
 21
116.803364
  0
LINE
  8
0
  6
CONTINUOUS
 62
   134
 10
3013.718033
 20
60.184104
 11
3013.718033
 21
120.184104
  0
TEXT
  8
0
 62
   134
 10
3011.718033
 20
82.184104
 40
20.000000
  1
60
 50
90.000000
 41
0.800000
  7
GOTHIC
 72
     1
 11
3011.718033
 21
90.184104
  0
LINE
  8
0
  6
CONTINUOUS
 62
   134
 10
2990.968033
 20
60.184104
 11
3018.718033
 21
60.184104
  0
LINE
  8
0
  6
CONTINUOUS
 62
   134
 10
2998.718033
 20
120.184104
 11
3018.718033
 21
120.184104
  0
LINE
  8
0
  6
CONTINUOUS
 62
   134
 10
4128.485463
 20
35.911281
 11
4129.391330
 21
32.530541
  0
LINE
  8
0
  6
CONTINUOUS
 62
   134
 10
4129.391330
 20
32.530541
 11
4130.297197
 21
35.911281
  0
LINE
  8
0
  6
CONTINUOUS
 62
   134
 10
4130.297197
 20
99.149801
 11
4129.391330
 21
102.530541
  0
LINE
  8
0
  6
CONTINUOUS
 62
   134
 10
4129.391330
 20
102.530541
 11
4128.485463
 21
99.149801
  0
LINE
  8
0
  6
CONTINUOUS
 62
   134
 10
4129.391330
 20
32.530541
 11
4129.391330
 21
102.530541
  0
TEXT
  8
0
 62
   134
 10
4127.391330
 20
59.530541
 40
20.000000
  1
70
 50
90.000000
 41
0.800000
  7
GOTHIC
 72
     1
 11
4127.391330
 21
67.530541
  0
LINE
  8
0
  6
CONTINUOUS
 62
   134
 10
4161.391330
 20
32.530541
 11
4124.391330
 21
32.530541
  0
LINE
  8
0
  6
CONTINUOUS
 62
   134
 10
4154.391330
 20
102.530541
 11
4124.391330
 21
102.530541
  0
LINE
  8
0
  6
CONTINUOUS
 62
   134
 10
4240.010590
 20
121.624674
 11
4243.391330
 21
122.530541
  0
LINE
  8
0
  6
CONTINUOUS
 62
   134
 10
4243.391330
 20
122.530541
 11
4240.010590
 21
123.436408
  0
LINE
  8
0
  6
CONTINUOUS
 62
   134
 10
4152.772070
 20
123.436408
 11
4149.391330
 21
122.530541
  0
LINE
  8
0
  6
CONTINUOUS
 62
   134
 10
4149.391330
 20
122.530541
 11
4152.772070
 21
121.624674
  0
LINE
  8
0
  6
CONTINUOUS
 62
   134
 10
4243.391330
 20
122.530541
 11
4149.391330
 21
122.530541
  0
TEXT
  8
0
 62
   134
 10
4188.391330
 20
124.530541
 40
20.000000
  1
94
 41
0.800000
  7
GOTHIC
 72
     1
 11
4196.391330
 21
124.530541
  0
LINE
  8
0
  6
CONTINUOUS
 62
   134
 10
4243.391330
 20
90.530541
 11
4243.391330
 21
127.530541
  0
LINE
  8
0
  6
CONTINUOUS
 62
   134
 10
4149.391330
 20
90.530541
 11
4149.391330
 21
127.530541
  0
LINE
  8
0
  6
CONTINUOUS
 62
   134
 10
4322.485463
 20
90.911281
 11
4323.391330
 21
87.530541
  0
LINE
  8
0
  6
CONTINUOUS
 62
   134
 10
4323.391330
 20
87.530541
 11
4324.297197
 21
90.911281
  0
LINE
  8
0
  6
CONTINUOUS
 62
   134
 10
4324.297197
 20
99.149801
 11
4323.391330
 21
102.530541
  0
LINE
  8
0
  6
CONTINUOUS
 62
   134
 10
4323.391330
 20
102.530541
 11
4322.485463
 21
99.149801
  0
LINE
  8
0
  6
CONTINUOUS
 62
   134
 10
4323.391330
 20
87.530541
 11
4323.391330
 21
102.530541
  0
TEXT
  8
0
 62
   134
 10
4321.391330
 20
87.030541
 40
20.000000
  1
15
 50
90.000000
 41
0.800000
  7
GOTHIC
 72
     1
 11
4321.391330
 21
95.030541
  0
LINE
  8
0
  6
CONTINUOUS
 62
   134
 10
4338.391330
 20
87.530541
 11
4318.391330
 21
87.530541
  0
LINE
  8
0
  6
CONTINUOUS
 62
   134
 10
4338.391330
 20
102.530541
 11
4318.391330
 21
102.530541
  0
LINE
  8
0
  6
CONTINUOUS
 62
   134
 10
4471.510590
 20
121.624674
 11
4474.891330
 21
122.530541
  0
LINE
  8
0
  6
CONTINUOUS
 62
   134
 10
4474.891330
 20
122.530541
 11
4471.510590
 21
123.436408
  0
LINE
  8
0
  6
CONTINUOUS
 62
   134
 10
4346.772070
 20
123.436408
 11
4343.391330
 21
122.530541
  0
LINE
  8
0
  6
CONTINUOUS
 62
   134
 10
4343.391330
 20
122.530541
 11
4346.772070
 21
121.624674
  0
LINE
  8
0
  6
CONTINUOUS
 62
   134
 10
4474.891330
 20
122.530541
 11
4343.391330
 21
122.530541
  0
TEXT
  8
0
 62
   134
 10
4389.141330
 20
124.530541
 40
20.000000
  1
131.5
 41
0.800000
  7
GOTHIC
 72
     1
 11
4409.141330
 21
124.530541
  0
LINE
  8
0
  6
CONTINUOUS
 62
   134
 10
4474.891330
 20
107.530541
 11
4474.891330
 21
127.530541
  0
LINE
  8
0
  6
CONTINUOUS
 62
   134
 10
4343.391330
 20
107.530541
 11
4343.391330
 21
127.530541
  0
LINE
  8
0
  6
CONTINUOUS
 62
   134
 10
3756.590730
 20
119.464049
 11
3757.496596
 21
116.083309
  0
LINE
  8
0
  6
CONTINUOUS
 62
   134
 10
3757.496596
 20
116.083309
 11
3758.402463
 21
119.464049
  0
LINE
  8
0
  6
CONTINUOUS
 62
   134
 10
3758.402463
 20
127.702569
 11
3757.496596
 21
131.083309
  0
LINE
  8
0
  6
CONTINUOUS
 62
   134
 10
3757.496596
 20
131.083309
 11
3756.590730
 21
127.702569
  0
LINE
  8
0
  6
CONTINUOUS
 62
   134
 10
3757.496596
 20
116.083309
 11
3757.496596
 21
131.083309
  0
TEXT
  8
0
 62
   134
 10
3755.496596
 20
115.583309
 40
20.000000
  1
15
 50
90.000000
 41
0.800000
  7
GOTHIC
 72
     1
 11
3755.496596
 21
123.583309
  0
LINE
  8
0
  6
CONTINUOUS
 62
   134
 10
3772.496596
 20
116.083309
 11
3752.496596
 21
116.083309
  0
LINE
  8
0
  6
CONTINUOUS
 62
   134
 10
3789.996596
 20
131.083309
 11
3752.496596
 21
131.083309
  0
LINE
  8
0
  6
CONTINUOUS
 62
   134
 10
3824.115856
 20
150.177442
 11
3827.496596
 21
151.083309
  0
LINE
  8
0
  6
CONTINUOUS
 62
   134
 10
3827.496596
 20
151.083309
 11
3824.115856
 21
151.989176
  0
LINE
  8
0
  6
CONTINUOUS
 62
   134
 10
3780.877337
 20
151.989176
 11
3777.496596
 21
151.083309
  0
LINE
  8
0
  6
CONTINUOUS
 62
   134
 10
3777.496596
 20
151.083309
 11
3780.877337
 21
150.177442
  0
LINE
  8
0
  6
CONTINUOUS
 62
   134
 10
3827.496596
 20
151.083309
 11
3777.496596
 21
151.083309
  0
TEXT
  8
0
 62
   134
 10
3794.496596
 20
153.083309
 40
20.000000
  1
50
 41
0.800000
  7
GOTHIC
 72
     1
 11
3802.496596
 21
153.083309
  0
LINE
  8
0
  6
CONTINUOUS
 62
   134
 10
3827.496596
 20
131.083309
 11
3827.496596
 21
156.083309
  0
LINE
  8
0
  6
CONTINUOUS
 62
   134
 10
3777.496596
 20
131.083309
 11
3777.496596
 21
156.083309
  0
LINE
  8
0
  6
CONTINUOUS
 62
   134
 10
3267.364831
 20
156.685624
 11
3263.984090
 21
155.779757
  0
LINE
  8
0
  6
CONTINUOUS
 62
   134
 10
3263.984090
 20
155.779757
 11
3267.364831
 21
154.873891
  0
LINE
  8
0
  6
CONTINUOUS
 62
   134
 10
3320.603350
 20
154.873891
 11
3323.984090
 21
155.779757
  0
LINE
  8
0
  6
CONTINUOUS
 62
   134
 10
3323.984090
 20
155.779757
 11
3320.603350
 21
156.685624
  0
LINE
  8
0
  6
CONTINUOUS
 62
   134
 10
3263.984090
 20
155.779757
 11
3323.984090
 21
155.779757
  0
TEXT
  8
0
 62
   134
 10
3285.984090
 20
157.779757
 40
20.000000
  1
60
 41
0.800000
  7
GOTHIC
 72
     1
 11
3293.984090
 21
157.779757
  0
LINE
  8
0
  6
CONTINUOUS
 62
   134
 10
3263.984090
 20
99.279757
 11
3263.984090
 21
160.779757
  0
LINE
  8
0
  6
CONTINUOUS
 62
   134
 10
3323.984090
 20
99.279757
 11
3323.984090
 21
160.779757
  0
LINE
  8
0
  6
CONTINUOUS
 62
   134
 10
3343.078224
 20
77.660498
 11
3343.984090
 21
74.279757
  0
LINE
  8
0
  6
CONTINUOUS
 62
   134
 10
3343.984090
 20
74.279757
 11
3344.889957
 21
77.660498
  0
LINE
  8
0
  6
CONTINUOUS
 62
   134
 10
3344.889957
 20
132.399017
 11
3343.984090
 21
135.779757
  0
LINE
  8
0
  6
CONTINUOUS
 62
   134
 10
3343.984090
 20
135.779757
 11
3343.078224
 21
132.399017
  0
LINE
  8
0
  6
CONTINUOUS
 62
   134
 10
3343.984090
 20
74.279757
 11
3343.984090
 21
135.779757
  0
TEXT
  8
0
 62
   134
 10
3341.984090
 20
89.029757
 40
20.000000
  1
61.5
 50
90.000000
 41
0.800000
  7
GOTHIC
 72
     1
 11
3341.984090
 21
105.029757
  0
LINE
  8
0
  6
CONTINUOUS
 62
   134
 10
3328.984090
 20
74.279757
 11
3348.984090
 21
74.279757
  0
LINE
  8
0
  6
CONTINUOUS
 62
   134
 10
3311.484090
 20
135.779757
 11
3348.984090
 21
135.779757
  0
ENDSEC
  0
EOF
