  0
SECTION
  2
HEADER
  9
$ACADVER
  1
AC1009
  9
$DWGCODEPAGE
  3
dos932
  9
$EXTMIN
 10
0.000000
 20
0.000000
  9
$EXTMAX
 10
598.804697
 20
834.380562
  9
$LIMMIN
 10
0.000000
 20
0.000000
  9
$LIMMAX
 10
598.804697
 20
834.380562
  9
$LTSCALE
 40
1.000000
  0
ENDSEC
  0
SECTION
  2
TABLES
  0
TABLE
  2
VPORT
 70
     1
  0
VPORT
  2
*ACTIVE
 70
     0
 10
0.000000
 20
0.000000
 11
1.000000
 21
1.000000
 12
299.402349
 22
417.190281
 13
0.000000
 23
0.000000
 14
1.000000
 24
1.000000
 15
0.000000
 25
0.000000
 16
0.000000
 26
0.000000
 36
1.000000
 17
0.000000
 27
0.000000
 37
0.000000
 40
834.380562
 41
0.717664
 42
50.000000
 43
0.000000
 44
0.000000
 50
0.000000
 51
0.000000
 71
     0
 72
   100
 73
     1
 74
     1
 75
     0
 76
     0
 77
     0
 78
     0
  0
ENDTAB
  0
TABLE
  2
LTYPE
 70
     5
  0
LTYPE
  2
CONTINUOUS
 70
    64
  3
CONTINUOUS
 72
    65
 73
     0
 40
0.000000
  0
LTYPE
  2
DASHED
 70
    64
  3
DASHED
 72
    65
 73
     2
 40
0.750000
 49
0.500000
 49
-0.250000
  0
LTYPE
  2
HIDDEN
 70
    64
  3
HIDDEN
 72
    65
 73
     2
 40
0.375000
 49
0.250000
 49
-0.125000
  0
LTYPE
  2
CENTER
 70
    64
  3
CENTER
 72
    65
 73
     4
 40
2.000000
 49
1.250000
 49
-0.250000
 49
0.250000
 49
-0.250000
  0
LTYPE
  2
PHANTOM
 70
    64
  3
PHANTOM
 72
    65
 73
     6
 40
2.500000
 49
1.250000
 49
-0.250000
 49
0.250000
 49
-0.250000
 49
0.250000
 49
-0.250000
  0
ENDTAB
  0
TABLE
  2
LAYER
 70
     1
  0
LAYER
  2
0
 70
     0
 62
     7
  6
CONTINUOUS
  0
ENDTAB
  0
TABLE
  2
STYLE
 70
     6
  0
STYLE
  2
STANDARD
 70
     0
 40
0.000000
 41
1.000000
 50
0.000000
 71
     0
 42
0.200000
  3
TXT
  4
BIGFONT
  0
STYLE
  2
TATEGAKI
 70
     4
 40
0.000000
 41
1.000000
 50
0.000000
 71
     0
 42
0.200000
  3
TXT
  4
BIGFONT
  0
STYLE
  2
MINCHO
 70
     0
 40
0.000000
 41
1.000000
 50
0.000000
 71
     0
 42
0.200000
  3
‚l‚r –¾’©
  4

  0
STYLE
  2
MINCHOV
 70
     0
 40
0.000000
 41
1.000000
 50
0.000000
 71
     0
 42
0.200000
  3
@‚l‚r –¾’©
  4

  0
STYLE
  2
GOTHIC
 70
     0
 40
0.000000
 41
1.000000
 50
0.000000
 71
     0
 42
0.200000
  3
‚l‚r ƒSƒVƒbƒN
  4

  0
STYLE
  2
GOTHICV
 70
     0
 40
0.000000
 41
1.000000
 50
0.000000
 71
     0
 42
0.200000
  3
@‚l‚r ƒSƒVƒbƒN
  4

  0
ENDTAB
  0
ENDSEC
  0
SECTION
  2
BLOCKS
  0
ENDSEC
  0
SECTION
  2
ENTITIES
  0
LINE
  8
0
  6
CONTINUOUS
 62
     2
 10
343.598816
 20
306.923110
 11
343.598816
 21
356.923110
  0
LINE
  8
0
  6
CONTINUOUS
 62
     2
 10
343.598816
 20
356.923110
 11
342.098816
 21
356.923110
  0
LINE
  8
0
  6
CONTINUOUS
 62
     2
 10
330.098816
 20
356.923110
 11
328.598816
 21
356.923110
  0
LINE
  8
0
  6
CONTINUOUS
 62
     2
 10
328.598816
 20
356.923110
 11
328.598816
 21
301.923110
  0
LINE
  8
0
  6
CONTINUOUS
 62
     2
 10
403.598816
 20
261.923110
 11
350.098816
 21
261.923110
  0
LINE
  8
0
  6
CONTINUOUS
 62
     2
 10
343.598816
 20
306.923110
 11
350.098816
 21
306.923110
  0
LINE
  8
0
  6
CONTINUOUS
 62
     2
 10
328.598816
 20
306.923110
 11
322.098816
 21
306.923110
  0
LINE
  8
0
  6
CONTINUOUS
 62
     2
 10
328.598816
 20
301.923110
 11
343.598816
 21
301.923110
  0
LINE
  8
0
  6
CONTINUOUS
 62
     2
 10
343.598816
 20
301.923110
 11
343.598816
 21
306.923110
  0
LINE
  8
0
  6
CONTINUOUS
 62
     2
 10
353.598816
 20
284.423110
 11
353.598816
 21
289.423110
  0
LINE
  8
0
  6
CONTINUOUS
 62
     2
 10
463.598816
 20
171.923110
 11
403.598816
 21
171.923110
  0
LINE
  8
0
  6
CONTINUOUS
 62
     2
 10
463.598816
 20
171.923110
 11
463.598816
 21
121.923110
  0
LINE
  8
0
  6
CONTINUOUS
 62
     2
 10
403.598816
 20
261.923110
 11
403.598816
 21
171.923110
  0
LINE
  8
0
  6
CONTINUOUS
 62
     2
 10
543.598816
 20
0.000000
 11
543.598816
 21
121.923110
  0
LINE
  8
0
  6
CONTINUOUS
 62
     2
 10
463.598816
 20
121.923110
 11
543.598816
 21
121.923110
  0
LINE
  8
0
  6
CONTINUOUS
 62
   134
 10
347.655705
 20
423.723182
 11
343.598816
 21
422.636142
  0
LINE
  8
0
  6
CONTINUOUS
 62
   134
 10
343.598816
 20
422.636142
 11
347.655705
 21
421.549102
  0
LINE
  8
0
  6
CONTINUOUS
 62
   134
 10
459.541928
 20
421.549102
 11
463.598816
 21
422.636142
  0
LINE
  8
0
  6
CONTINUOUS
 62
   134
 10
463.598816
 20
422.636142
 11
459.541928
 21
423.723182
  0
LINE
  8
0
  6
CONTINUOUS
 62
   134
 10
343.598816
 20
422.636142
 11
463.598816
 21
422.636142
  0
TEXT
  8
0
 62
   134
 10
391.598816
 20
424.636142
 40
20.000000
  1
120
 41
0.800000
  7
GOTHIC
 72
     1
 11
403.598816
 21
424.636142
  0
LINE
  8
0
  6
CONTINUOUS
 62
   134
 10
343.598816
 20
387.555400
 11
343.598816
 21
427.636142
  0
LINE
  8
0
  6
CONTINUOUS
 62
   134
 10
463.598816
 20
171.923110
 11
463.598816
 21
427.636142
  0
LINE
  8
0
  6
CONTINUOUS
 62
   134
 10
347.655705
 20
462.363822
 11
343.598816
 21
461.276782
  0
LINE
  8
0
  6
CONTINUOUS
 62
   134
 10
343.598816
 20
461.276782
 11
347.655705
 21
460.189742
  0
LINE
  8
0
  6
CONTINUOUS
 62
   134
 10
539.541928
 20
460.189742
 11
543.598816
 21
461.276782
  0
LINE
  8
0
  6
CONTINUOUS
 62
   134
 10
543.598816
 20
461.276782
 11
539.541928
 21
462.363822
  0
LINE
  8
0
  6
CONTINUOUS
 62
   134
 10
343.598816
 20
461.276782
 11
543.598816
 21
461.276782
  0
TEXT
  8
0
 62
   134
 10
431.598816
 20
463.276782
 40
20.000000
  1
200
 41
0.800000
  7
GOTHIC
 72
     1
 11
443.598816
 21
463.276782
  0
LINE
  8
0
  6
CONTINUOUS
 62
   134
 10
343.598816
 20
428.360944
 11
343.598816
 21
466.276782
  0
LINE
  8
0
  6
CONTINUOUS
 62
   134
 10
543.598816
 20
126.923110
 11
543.598816
 21
466.276782
  0
LINE
  8
0
  6
CONTINUOUS
 62
   134
 10
393.674093
 20
352.866221
 11
392.587053
 21
356.923110
  0
LINE
  8
0
  6
CONTINUOUS
 62
   134
 10
392.587053
 20
356.923110
 11
391.500013
 21
352.866221
  0
LINE
  8
0
  6
CONTINUOUS
 62
   134
 10
391.500013
 20
310.979998
 11
392.587053
 21
306.923110
  0
LINE
  8
0
  6
CONTINUOUS
 62
   134
 10
392.587053
 20
306.923110
 11
393.674093
 21
310.979998
  0
LINE
  8
0
  6
CONTINUOUS
 62
   134
 10
392.587053
 20
356.923110
 11
392.587053
 21
306.923110
  0
TEXT
  8
0
 62
   134
 10
390.587053
 20
323.923110
 40
20.000000
  1
50
 50
90.000000
 41
0.800000
  7
GOTHIC
 72
     1
 11
390.587053
 21
331.923110
  0
LINE
  8
0
  6
CONTINUOUS
 62
   134
 10
348.598816
 20
356.923110
 11
397.587053
 21
356.923110
  0
LINE
  8
0
  6
CONTINUOUS
 62
   134
 10
355.098816
 20
306.923110
 11
397.587053
 21
306.923110
  0
LINE
  8
0
  6
CONTINUOUS
 62
   134
 10
443.372162
 20
352.866221
 11
442.285122
 21
356.923110
  0
LINE
  8
0
  6
CONTINUOUS
 62
   134
 10
442.285122
 20
356.923110
 11
441.198082
 21
352.866221
  0
LINE
  8
0
  6
CONTINUOUS
 62
   134
 10
441.198082
 20
265.979998
 11
442.285122
 21
261.923110
  0
LINE
  8
0
  6
CONTINUOUS
 62
   134
 10
442.285122
 20
261.923110
 11
443.372162
 21
265.979998
  0
LINE
  8
0
  6
CONTINUOUS
 62
   134
 10
442.285122
 20
356.923110
 11
442.285122
 21
261.923110
  0
TEXT
  8
0
 62
   134
 10
440.285122
 20
301.423110
 40
20.000000
  1
95
 50
90.000000
 41
0.800000
  7
GOTHIC
 72
     1
 11
440.285122
 21
309.423110
  0
LINE
  8
0
  6
CONTINUOUS
 62
   134
 10
393.283037
 20
356.923110
 11
447.285122
 21
356.923110
  0
LINE
  8
0
  6
CONTINUOUS
 62
   134
 10
408.598816
 20
261.923110
 11
447.285122
 21
261.923110
  0
LINE
  8
0
  6
CONTINUOUS
 62
   134
 10
512.810778
 20
352.866221
 11
511.723738
 21
356.923110
  0
LINE
  8
0
  6
CONTINUOUS
 62
   134
 10
511.723738
 20
356.923110
 11
510.636698
 21
352.866221
  0
LINE
  8
0
  6
CONTINUOUS
 62
   134
 10
510.636698
 20
175.979998
 11
511.723738
 21
171.923110
  0
LINE
  8
0
  6
CONTINUOUS
 62
   134
 10
511.723738
 20
171.923110
 11
512.810778
 21
175.979998
  0
LINE
  8
0
  6
CONTINUOUS
 62
   134
 10
511.723738
 20
356.923110
 11
511.723738
 21
171.923110
  0
TEXT
  8
0
 62
   134
 10
509.723738
 20
252.423110
 40
20.000000
  1
185
 50
90.000000
 41
0.800000
  7
GOTHIC
 72
     1
 11
509.723738
 21
264.423110
  0
LINE
  8
0
  6
CONTINUOUS
 62
   134
 10
448.721670
 20
356.923110
 11
516.723738
 21
356.923110
  0
LINE
  8
0
  6
CONTINUOUS
 62
   134
 10
468.598816
 20
171.923110
 11
516.723738
 21
171.923110
  0
LINE
  8
0
  6
CONTINUOUS
 62
   134
 10
594.891737
 20
352.866221
 11
593.804697
 21
356.923110
  0
LINE
  8
0
  6
CONTINUOUS
 62
   134
 10
593.804697
 20
356.923110
 11
592.717657
 21
352.866221
  0
LINE
  8
0
  6
CONTINUOUS
 62
   134
 10
592.717657
 20
125.979998
 11
593.804697
 21
121.923110
  0
LINE
  8
0
  6
CONTINUOUS
 62
   134
 10
593.804697
 20
121.923110
 11
594.891737
 21
125.979998
  0
LINE
  8
0
  6
CONTINUOUS
 62
   134
 10
593.804697
 20
356.923110
 11
593.804697
 21
121.923110
  0
TEXT
  8
0
 62
   134
 10
591.804697
 20
227.423110
 40
20.000000
  1
235
 50
90.000000
 41
0.800000
  7
GOTHIC
 72
     1
 11
591.804697
 21
239.423110
  0
LINE
  8
0
  6
CONTINUOUS
 62
   134
 10
348.598816
 20
356.923110
 11
598.804697
 21
356.923110
  0
LINE
  8
0
  6
CONTINUOUS
 62
   134
 10
548.598816
 20
121.923110
 11
598.804697
 21
121.923110
  0
LINE
  8
0
  6
CONTINUOUS
 62
     2
 10
268.598816
 20
261.923110
 11
322.098816
 21
261.923110
  0
LINE
  8
0
  6
CONTINUOUS
 62
     2
 10
318.598816
 20
284.423110
 11
318.598816
 21
289.423110
  0
LINE
  8
0
  6
CONTINUOUS
 62
     2
 10
208.598816
 20
171.923110
 11
268.598816
 21
171.923110
  0
LINE
  8
0
  6
CONTINUOUS
 62
     2
 10
208.598816
 20
171.923110
 11
208.598816
 21
121.923110
  0
LINE
  8
0
  6
CONTINUOUS
 62
     2
 10
268.598816
 20
261.923110
 11
268.598816
 21
171.923110
  0
LINE
  8
0
  6
CONTINUOUS
 62
     2
 10
128.598816
 20
0.000000
 11
128.598816
 21
121.923110
  0
LINE
  8
0
  6
CONTINUOUS
 62
     2
 10
208.598816
 20
121.923110
 11
128.598816
 21
121.923110
  0
LINE
  8
0
  6
CONTINUOUS
 62
     2
 10
330.098816
 20
356.923110
 11
336.098816
 21
350.923110
  0
LINE
  8
0
  6
CONTINUOUS
 62
     2
 10
342.098816
 20
356.923110
 11
336.098816
 21
350.923110
  0
LINE
  8
0
  6
CONTINUOUS
 62
   134
 10
347.655705
 20
328.507426
 11
343.598816
 21
327.420386
  0
LINE
  8
0
  6
CONTINUOUS
 62
   134
 10
343.598816
 20
327.420386
 11
347.655705
 21
326.333346
  0
LINE
  8
0
  6
CONTINUOUS
 62
   134
 10
349.541928
 20
326.333346
 11
353.598816
 21
327.420386
  0
LINE
  8
0
  6
CONTINUOUS
 62
   134
 10
353.598816
 20
327.420386
 11
349.541928
 21
328.507426
  0
LINE
  8
0
  6
CONTINUOUS
 62
   134
 10
343.598816
 20
327.420386
 11
353.598816
 21
327.420386
  0
TEXT
  8
0
 62
   134
 10
340.598816
 20
329.420386
 40
20.000000
  1
10
 41
0.800000
  7
GOTHIC
 72
     1
 11
348.598816
 21
329.420386
  0
LINE
  8
0
  6
CONTINUOUS
 62
   134
 10
353.598816
 20
294.423110
 11
353.598816
 21
332.420386
  0
LINE
  8
0
  6
CONTINUOUS
 62
   134
 10
347.655705
 20
383.642440
 11
343.598816
 21
382.555400
  0
LINE
  8
0
  6
CONTINUOUS
 62
   134
 10
343.598816
 20
382.555400
 11
347.655705
 21
381.468360
  0
LINE
  8
0
  6
CONTINUOUS
 62
   134
 10
399.541928
 20
381.468360
 11
403.598816
 21
382.555400
  0
LINE
  8
0
  6
CONTINUOUS
 62
   134
 10
403.598816
 20
382.555400
 11
399.541928
 21
383.642440
  0
LINE
  8
0
  6
CONTINUOUS
 62
   134
 10
343.598816
 20
382.555400
 11
403.598816
 21
382.555400
  0
TEXT
  8
0
 62
   134
 10
365.598816
 20
384.555400
 40
20.000000
  1
60
 41
0.800000
  7
GOTHIC
 72
     1
 11
373.598816
 21
384.555400
  0
LINE
  8
0
  6
CONTINUOUS
 62
   134
 10
343.598816
 20
361.923110
 11
343.598816
 21
387.555400
  0
LINE
  8
0
  6
CONTINUOUS
 62
   134
 10
403.598816
 20
261.923110
 11
403.598816
 21
387.555400
  0
LINE
  8
0
  6
CONTINUOUS
 62
     1
 10
326.098816
 20
327.223110
 11
326.098816
 21
359.223110
  0
LINE
  8
0
  6
CONTINUOUS
 62
     1
 10
326.098816
 20
359.223110
 11
336.098816
 21
359.223110
  0
LINE
  8
0
  6
CONTINUOUS
 62
     1
 10
336.098816
 20
359.223110
 11
336.098816
 21
398.923110
  0
LINE
  8
0
  6
CONTINUOUS
 62
     1
 10
328.398816
 20
327.223110
 11
328.398816
 21
356.923110
  0
LINE
  8
0
  6
CONTINUOUS
 62
     1
 10
328.398816
 20
356.923110
 11
338.398816
 21
356.923110
  0
LINE
  8
0
  6
CONTINUOUS
 62
     1
 10
338.398816
 20
356.923110
 11
338.398816
 21
398.923110
  0
LINE
  8
0
  6
CONTINUOUS
 62
   134
 10
330.427261
 20
310.306811
 11
328.398816
 21
309.763291
  0
LINE
  8
0
  6
CONTINUOUS
 62
   134
 10
328.398816
 20
309.763291
 11
330.427261
 21
309.219771
  0
LINE
  8
0
  6
CONTINUOUS
 62
   134
 10
336.370372
 20
309.219771
 11
338.398816
 21
309.763291
  0
LINE
  8
0
  6
CONTINUOUS
 62
   134
 10
338.398816
 20
309.763291
 11
336.370372
 21
310.306811
  0
LINE
  8
0
  6
CONTINUOUS
 62
   134
 10
328.398816
 20
309.763291
 11
338.398816
 21
309.763291
  0
TEXT
  8
0
 62
   134
 10
329.398816
 20
310.763291
 40
10.000000
  1
10
 41
0.800000
  7
GOTHIC
 72
     1
 11
333.398816
 21
310.763291
  0
LINE
  8
0
  6
CONTINUOUS
 62
   134
 10
328.398816
 20
324.723110
 11
328.398816
 21
307.263291
  0
LINE
  8
0
  6
CONTINUOUS
 62
   134
 10
338.398816
 20
354.423110
 11
338.398816
 21
307.263291
  0
LINE
  8
0
  6
CONTINUOUS
 62
   134
 10
359.218710
 20
358.951554
 11
359.762230
 21
356.923110
  0
LINE
  8
0
  6
CONTINUOUS
 62
   134
 10
359.762230
 20
356.923110
 11
360.305750
 21
358.951554
  0
LINE
  8
0
  6
CONTINUOUS
 62
   134
 10
360.305750
 20
396.894666
 11
359.762230
 21
398.923110
  0
LINE
  8
0
  6
CONTINUOUS
 62
   134
 10
359.762230
 20
398.923110
 11
359.218710
 21
396.894666
  0
LINE
  8
0
  6
CONTINUOUS
 62
   134
 10
359.762230
 20
356.923110
 11
359.762230
 21
398.923110
  0
TEXT
  8
0
 62
   134
 10
358.762230
 20
373.923110
 40
10.000000
  1
42
 50
90.000000
 41
0.800000
  7
GOTHIC
 72
     1
 11
358.762230
 21
377.923110
  0
LINE
  8
0
  6
CONTINUOUS
 62
   134
 10
340.898816
 20
356.923110
 11
362.262230
 21
356.923110
  0
LINE
  8
0
  6
CONTINUOUS
 62
   134
 10
340.898816
 20
398.923110
 11
362.262230
 21
398.923110
  0
LINE
  8
0
  6
CONTINUOUS
 62
     2
 10
350.098816
 20
306.923110
 11
350.098816
 21
261.923110
  0
LINE
  8
0
  6
CONTINUOUS
 62
     2
 10
322.098816
 20
306.923110
 11
322.098816
 21
261.923110
  0
LINE
  8
0
  6
CONTINUOUS
 62
     2
 10
353.598816
 20
289.423110
 11
350.098816
 21
289.423110
  0
LINE
  8
0
  6
CONTINUOUS
 62
     2
 10
322.098816
 20
289.423110
 11
318.598816
 21
289.423110
  0
LINE
  8
0
  6
CONTINUOUS
 62
     2
 10
353.598816
 20
284.423110
 11
350.098816
 21
284.423110
  0
LINE
  8
0
  6
CONTINUOUS
 62
     2
 10
322.098816
 20
284.423110
 11
318.598816
 21
284.423110
  0
LINE
  8
0
  6
CONTINUOUS
 62
   134
 10
349.541928
 20
229.078123
 11
353.598816
 21
230.165163
  0
LINE
  8
0
  6
CONTINUOUS
 62
   134
 10
353.598816
 20
230.165163
 11
349.541928
 21
231.252203
  0
LINE
  8
0
  6
CONTINUOUS
 62
   134
 10
322.655705
 20
231.252203
 11
318.598816
 21
230.165163
  0
LINE
  8
0
  6
CONTINUOUS
 62
   134
 10
318.598816
 20
230.165163
 11
322.655705
 21
229.078123
  0
LINE
  8
0
  6
CONTINUOUS
 62
   134
 10
353.598816
 20
230.165163
 11
318.598816
 21
230.165163
  0
TEXT
  8
0
 62
   134
 10
328.098816
 20
232.165163
 40
20.000000
  1
35
 41
0.800000
  7
GOTHIC
 72
     1
 11
336.098816
 21
232.165163
  0
LINE
  8
0
  6
CONTINUOUS
 62
   134
 10
353.598816
 20
279.423110
 11
353.598816
 21
225.165163
  0
LINE
  8
0
  6
CONTINUOUS
 62
   134
 10
318.598816
 20
279.423110
 11
318.598816
 21
225.165163
  0
TEXT
  8
0
 62
     7
 10
266.542503
 20
292.402452
 40
27.633736
  1
V12
 41
0.800000
  7
GOTHIC
 11
266.542503
 21
320.036188
 73
     3
  0
LINE
  8
0
  6
CONTINUOUS
 62
     1
 10
338.398816
 20
398.923110
 11
336.098816
 21
398.923110
  0
LINE
  8
0
  6
CONTINUOUS
 62
     1
 10
328.398816
 20
327.223110
 11
326.098816
 21
327.223110
  0
LINE
  8
0
  6
CONTINUOUS
 62
   214
 10
334.341928
 20
404.149914
 11
338.398816
 21
405.236954
  0
LINE
  8
0
  6
CONTINUOUS
 62
   214
 10
338.398816
 20
405.236954
 11
334.341928
 21
406.323994
  0
LINE
  8
0
  6
CONTINUOUS
 62
   214
 10
340.155705
 20
406.323994
 11
336.098816
 21
405.236954
  0
LINE
  8
0
  6
CONTINUOUS
 62
   214
 10
336.098816
 20
405.236954
 11
340.155705
 21
404.149914
  0
LINE
  8
0
  6
CONTINUOUS
 62
   214
 10
338.398816
 20
405.236954
 11
336.098816
 21
405.236954
  0
TEXT
  8
0
 62
   214
 10
325.248816
 20
407.236954
 40
20.000000
  1
2.3
 41
0.800000
  7
GOTHIC
 72
     1
 11
337.248816
 21
407.236954
  0
LINE
  8
0
  6
CONTINUOUS
 62
   214
 10
338.398816
 20
403.923110
 11
338.398816
 21
410.236954
  0
LINE
  8
0
  6
CONTINUOUS
 62
   214
 10
336.098816
 20
403.923110
 11
336.098816
 21
410.236954
  0
LINE
  8
0
  6
CONTINUOUS
 62
   214
 10
303.156148
 20
394.866221
 11
302.069108
 21
398.923110
  0
LINE
  8
0
  6
CONTINUOUS
 62
   214
 10
302.069108
 20
398.923110
 11
300.982068
 21
394.866221
  0
LINE
  8
0
  6
CONTINUOUS
 62
   214
 10
300.982068
 20
363.279998
 11
302.069108
 21
359.223110
  0
LINE
  8
0
  6
CONTINUOUS
 62
   214
 10
302.069108
 20
359.223110
 11
303.156148
 21
363.279998
  0
LINE
  8
0
  6
CONTINUOUS
 62
   214
 10
302.069108
 20
398.923110
 11
302.069108
 21
359.223110
  0
TEXT
  8
0
 62
   214
 10
300.069108
 20
363.073110
 40
20.000000
  1
39.7
 50
90.000000
 41
0.800000
  7
GOTHIC
 72
     1
 11
300.069108
 21
379.073110
  0
LINE
  8
0
  6
CONTINUOUS
 62
   214
 10
331.098816
 20
398.923110
 11
297.069108
 21
398.923110
  0
LINE
  8
0
  6
CONTINUOUS
 62
   214
 10
321.098816
 20
359.223110
 11
297.069108
 21
359.223110
  0
LINE
  8
0
  6
CONTINUOUS
 62
   214
 10
303.156148
 20
355.166221
 11
302.069108
 21
359.223110
  0
LINE
  8
0
  6
CONTINUOUS
 62
   214
 10
302.069108
 20
359.223110
 11
300.982068
 21
355.166221
  0
LINE
  8
0
  6
CONTINUOUS
 62
   214
 10
300.982068
 20
331.279998
 11
302.069108
 21
327.223110
  0
LINE
  8
0
  6
CONTINUOUS
 62
   214
 10
302.069108
 20
327.223110
 11
303.156148
 21
331.279998
  0
LINE
  8
0
  6
CONTINUOUS
 62
   214
 10
302.069108
 20
359.223110
 11
302.069108
 21
327.223110
  0
TEXT
  8
0
 62
   214
 10
300.069108
 20
335.223110
 40
20.000000
  1
32
 50
90.000000
 41
0.800000
  7
GOTHIC
 72
     1
 11
300.069108
 21
343.223110
  0
LINE
  8
0
  6
CONTINUOUS
 62
   214
 10
321.098816
 20
327.223110
 11
297.069108
 21
327.223110
  0
LINE
  8
0
  6
CONTINUOUS
 62
   214
 10
340.155705
 20
371.040027
 11
336.098816
 21
369.952987
  0
LINE
  8
0
  6
CONTINUOUS
 62
   214
 10
336.098816
 20
369.952987
 11
340.155705
 21
368.865947
  0
LINE
  8
0
  6
CONTINUOUS
 62
   214
 10
322.041928
 20
368.865947
 11
326.098816
 21
369.952987
  0
LINE
  8
0
  6
CONTINUOUS
 62
   214
 10
326.098816
 20
369.952987
 11
322.041928
 21
371.040027
  0
LINE
  8
0
  6
CONTINUOUS
 62
   214
 10
344.498816
 20
369.952987
 11
317.698816
 21
369.952987
  0
TEXT
  8
0
 62
   214
 10
306.473602
 20
371.952987
 40
20.000000
  1
10
 41
0.800000
  7
GOTHIC
 72
     2
 11
322.473602
 21
371.952987
  0
LINE
  8
0
  6
CONTINUOUS
 62
   214
 10
304.873602
 20
369.952987
 11
326.098816
 21
369.952987
  0
LINE
  8
0
  6
CONTINUOUS
 62
   214
 10
326.098816
 20
364.223110
 11
326.098816
 21
374.952987
  0
LINE
  8
0
  6
CONTINUOUS
 62
     1
 10
61.743920
 20
405.374979
 11
93.743920
 21
405.374979
  0
LINE
  8
0
  6
CONTINUOUS
 62
     1
 10
93.743920
 20
405.374979
 11
93.743920
 21
395.374979
  0
LINE
  8
0
  6
CONTINUOUS
 62
     1
 10
93.743920
 20
395.374979
 11
133.443920
 21
395.374979
  0
LINE
  8
0
  6
CONTINUOUS
 62
     1
 10
61.743920
 20
403.074979
 11
91.443920
 21
403.074979
  0
LINE
  8
0
  6
CONTINUOUS
 62
     1
 10
91.443920
 20
403.074979
 11
91.443920
 21
393.074979
  0
LINE
  8
0
  6
CONTINUOUS
 62
     1
 10
91.443920
 20
393.074979
 11
133.443920
 21
393.074979
  0
LINE
  8
0
  6
CONTINUOUS
 62
     1
 10
133.443920
 20
393.074979
 11
133.443920
 21
395.374979
  0
LINE
  8
0
  6
CONTINUOUS
 62
     1
 10
61.743920
 20
403.074979
 11
61.743920
 21
405.374979
  0
LINE
  8
0
  6
CONTINUOUS
 62
   134
 10
65.800808
 20
437.795707
 11
61.743920
 21
436.708667
  0
LINE
  8
0
  6
CONTINUOUS
 62
   134
 10
61.743920
 20
436.708667
 11
65.800808
 21
435.621627
  0
LINE
  8
0
  6
CONTINUOUS
 62
   134
 10
89.687031
 20
435.621627
 11
93.743920
 21
436.708667
  0
LINE
  8
0
  6
CONTINUOUS
 62
   134
 10
93.743920
 20
436.708667
 11
89.687031
 21
437.795707
  0
LINE
  8
0
  6
CONTINUOUS
 62
   134
 10
61.743920
 20
436.708667
 11
93.743920
 21
436.708667
  0
TEXT
  8
0
 62
   134
 10
69.743920
 20
438.708667
 40
20.000000
  1
32
 41
0.800000
  7
GOTHIC
 72
     1
 11
77.743920
 21
438.708667
  0
LINE
  8
0
  6
CONTINUOUS
 62
   134
 10
61.743920
 20
410.374979
 11
61.743920
 21
441.708667
  0
LINE
  8
0
  6
CONTINUOUS
 62
   134
 10
93.743920
 20
410.374979
 11
93.743920
 21
441.708667
  0
LINE
  8
0
  6
CONTINUOUS
 62
   134
 10
34.714700
 20
401.318090
 11
33.627660
 21
405.374979
  0
LINE
  8
0
  6
CONTINUOUS
 62
   134
 10
33.627660
 20
405.374979
 11
32.540620
 21
401.318090
  0
LINE
  8
0
  6
CONTINUOUS
 62
   134
 10
32.540620
 20
397.131867
 11
33.627660
 21
393.074979
  0
LINE
  8
0
  6
CONTINUOUS
 62
   134
 10
33.627660
 20
393.074979
 11
34.714700
 21
397.131867
  0
LINE
  8
0
  6
CONTINUOUS
 62
   134
 10
33.627660
 20
405.374979
 11
33.627660
 21
393.074979
  0
TEXT
  8
0
 62
   134
 10
31.627660
 20
383.224979
 40
20.000000
  1
12.3
 50
90.000000
 41
0.800000
  7
GOTHIC
 72
     1
 11
31.627660
 21
399.224979
  0
LINE
  8
0
  6
CONTINUOUS
 62
   134
 10
56.743920
 20
405.374979
 11
28.627660
 21
405.374979
  0
LINE
  8
0
  6
CONTINUOUS
 62
   134
 10
86.443920
 20
393.074979
 11
28.627660
 21
393.074979
  0
LINE
  8
0
  6
CONTINUOUS
 62
   134
 10
95.500808
 20
360.806716
 11
91.443920
 21
359.719676
  0
LINE
  8
0
  6
CONTINUOUS
 62
   134
 10
91.443920
 20
359.719676
 11
95.500808
 21
358.632636
  0
LINE
  8
0
  6
CONTINUOUS
 62
   134
 10
129.387031
 20
358.632636
 11
133.443920
 21
359.719676
  0
LINE
  8
0
  6
CONTINUOUS
 62
   134
 10
133.443920
 20
359.719676
 11
129.387031
 21
360.806716
  0
LINE
  8
0
  6
CONTINUOUS
 62
   134
 10
91.443920
 20
359.719676
 11
133.443920
 21
359.719676
  0
TEXT
  8
0
 62
   134
 10
104.443920
 20
361.719676
 40
20.000000
  1
42
 41
0.800000
  7
GOTHIC
 72
     1
 11
112.443920
 21
361.719676
  0
LINE
  8
0
  6
CONTINUOUS
 62
   134
 10
91.443920
 20
388.074979
 11
91.443920
 21
354.719676
  0
LINE
  8
0
  6
CONTINUOUS
 62
   134
 10
133.443920
 20
388.074979
 11
133.443920
 21
354.719676
  0
LINE
  8
0
  6
CONTINUOUS
 62
     1
 10
51.164412
 20
223.470168
 11
137.464412
 21
223.470168
  0
LINE
  8
0
  6
CONTINUOUS
 62
     1
 10
137.464412
 20
223.470168
 11
137.464412
 21
323.470168
  0
LINE
  8
0
  6
CONTINUOUS
 62
     1
 10
137.464412
 20
323.470168
 11
51.164412
 21
323.470168
  0
LINE
  8
0
  6
CONTINUOUS
 62
     1
 10
51.164412
 20
323.470168
 11
51.164412
 21
223.470168
  0
LINE
  8
0
  6
HIDDEN
 62
     7
 10
81.164412
 20
323.470168
 11
81.164412
 21
223.470168
  0
LINE
  8
0
  6
HIDDEN
 62
     7
 10
97.464412
 20
223.470168
 11
97.464412
 21
323.470168
  0
LINE
  8
0
  6
CONTINUOUS
 62
   134
 10
47.107524
 20
330.176197
 11
51.164412
 21
331.263237
  0
LINE
  8
0
  6
CONTINUOUS
 62
   134
 10
51.164412
 20
331.263237
 11
47.107524
 21
332.350277
  0
LINE
  8
0
  6
CONTINUOUS
 62
   134
 10
85.221301
 20
332.350277
 11
81.164412
 21
331.263237
  0
LINE
  8
0
  6
CONTINUOUS
 62
   134
 10
81.164412
 20
331.263237
 11
85.221301
 21
330.176197
  0
LINE
  8
0
  6
CONTINUOUS
 62
   134
 10
42.764412
 20
331.263237
 11
89.564412
 21
331.263237
  0
TEXT
  8
0
 62
   134
 10
31.742197
 20
333.856995
 40
20.000000
  1
30
 41
0.800000
  7
GOTHIC
 72
     2
 11
47.742197
 21
333.856995
  0
LINE
  8
0
  6
CONTINUOUS
 62
   134
 10
30.142197
 20
331.263237
 11
51.164412
 21
331.263237
  0
LINE
  8
0
  6
CONTINUOUS
 62
   134
 10
51.164412
 20
328.470168
 11
51.164412
 21
336.263237
  0
LINE
  8
0
  6
CONTINUOUS
 62
   134
 10
81.164412
 20
328.470168
 11
81.164412
 21
336.263237
  0
LINE
  8
0
  6
CONTINUOUS
 62
   134
 10
85.221301
 20
332.350277
 11
81.164412
 21
331.263237
  0
LINE
  8
0
  6
CONTINUOUS
 62
   134
 10
81.164412
 20
331.263237
 11
85.221301
 21
330.176197
  0
LINE
  8
0
  6
CONTINUOUS
 62
   134
 10
93.407524
 20
330.176197
 11
97.464412
 21
331.263237
  0
LINE
  8
0
  6
CONTINUOUS
 62
   134
 10
97.464412
 20
331.263237
 11
93.407524
 21
332.350277
  0
LINE
  8
0
  6
CONTINUOUS
 62
   134
 10
81.164412
 20
331.263237
 11
97.464412
 21
331.263237
  0
TEXT
  8
0
 62
   134
 10
73.314412
 20
333.263237
 40
20.000000
  1
16.3
 41
0.800000
  7
GOTHIC
 72
     1
 11
89.314412
 21
333.263237
  0
LINE
  8
0
  6
CONTINUOUS
 62
   134
 10
81.164412
 20
328.470168
 11
81.164412
 21
336.263237
  0
LINE
  8
0
  6
CONTINUOUS
 62
   134
 10
97.464412
 20
328.470168
 11
97.464412
 21
336.263237
  0
LINE
  8
0
  6
CONTINUOUS
 62
   134
 10
101.521301
 20
332.350277
 11
97.464412
 21
331.263237
  0
LINE
  8
0
  6
CONTINUOUS
 62
   134
 10
97.464412
 20
331.263237
 11
101.521301
 21
330.176197
  0
LINE
  8
0
  6
CONTINUOUS
 62
   134
 10
133.407524
 20
330.176197
 11
137.464412
 21
331.263237
  0
LINE
  8
0
  6
CONTINUOUS
 62
   134
 10
137.464412
 20
331.263237
 11
133.407524
 21
332.350277
  0
LINE
  8
0
  6
CONTINUOUS
 62
   134
 10
97.464412
 20
331.263237
 11
137.464412
 21
331.263237
  0
TEXT
  8
0
 62
   134
 10
109.464412
 20
333.263237
 40
20.000000
  1
40
 41
0.800000
  7
GOTHIC
 72
     1
 11
117.464412
 21
333.263237
  0
LINE
  8
0
  6
CONTINUOUS
 62
   134
 10
97.464412
 20
328.470168
 11
97.464412
 21
336.263237
  0
LINE
  8
0
  6
CONTINUOUS
 62
   134
 10
137.464412
 20
328.470168
 11
137.464412
 21
336.263237
  0
LINE
  8
0
  6
CONTINUOUS
 62
   134
 10
25.087040
 20
319.413280
 11
24.000000
 21
323.470168
  0
LINE
  8
0
  6
CONTINUOUS
 62
   134
 10
24.000000
 20
323.470168
 11
22.912960
 21
319.413280
  0
LINE
  8
0
  6
CONTINUOUS
 62
   134
 10
22.912960
 20
227.527057
 11
24.000000
 21
223.470168
  0
LINE
  8
0
  6
CONTINUOUS
 62
   134
 10
24.000000
 20
223.470168
 11
25.087040
 21
227.527057
  0
LINE
  8
0
  6
CONTINUOUS
 62
   134
 10
24.000000
 20
323.470168
 11
24.000000
 21
223.470168
  0
TEXT
  8
0
 62
   134
 10
22.000000
 20
261.470168
 40
20.000000
  1
100
 50
90.000000
 41
0.800000
  7
GOTHIC
 72
     1
 11
22.000000
 21
273.470168
  0
LINE
  8
0
  6
CONTINUOUS
 62
   134
 10
46.164412
 20
323.470168
 11
19.000000
 21
323.470168
  0
LINE
  8
0
  6
CONTINUOUS
 62
   134
 10
46.164412
 20
223.470168
 11
19.000000
 21
223.470168
  0
LINE
  8
0
  6
CONTINUOUS
 62
   134
 10
166.568354
 20
391.318090
 11
165.481314
 21
395.374979
  0
LINE
  8
0
  6
CONTINUOUS
 62
   134
 10
165.481314
 20
395.374979
 11
164.394274
 21
391.318090
  0
LINE
  8
0
  6
CONTINUOUS
 62
   134
 10
164.394274
 20
397.131867
 11
165.481314
 21
393.074979
  0
LINE
  8
0
  6
CONTINUOUS
 62
   134
 10
165.481314
 20
393.074979
 11
166.568354
 21
397.131867
  0
LINE
  8
0
  6
CONTINUOUS
 62
   134
 10
165.481314
 20
395.374979
 11
165.481314
 21
393.074979
  0
TEXT
  8
0
 62
   134
 10
163.481314
 20
382.224979
 40
20.000000
  1
2.3
 50
90.000000
 41
0.800000
  7
GOTHIC
 72
     1
 11
163.481314
 21
394.224979
  0
LINE
  8
0
  6
CONTINUOUS
 62
   134
 10
138.443920
 20
395.374979
 11
170.481314
 21
395.374979
  0
LINE
  8
0
  6
CONTINUOUS
 62
   134
 10
138.443920
 20
393.074979
 11
170.481314
 21
393.074979
  0
LINE
  8
0
  6
CONTINUOUS
 62
   134
 10
55.221301
 20
194.269154
 11
51.164412
 21
193.182114
  0
LINE
  8
0
  6
CONTINUOUS
 62
   134
 10
51.164412
 20
193.182114
 11
55.221301
 21
192.095074
  0
LINE
  8
0
  6
CONTINUOUS
 62
   134
 10
133.407524
 20
192.095074
 11
137.464412
 21
193.182114
  0
LINE
  8
0
  6
CONTINUOUS
 62
   134
 10
137.464412
 20
193.182114
 11
133.407524
 21
194.269154
  0
LINE
  8
0
  6
CONTINUOUS
 62
   134
 10
51.164412
 20
193.182114
 11
137.464412
 21
193.182114
  0
TEXT
  8
0
 62
   134
 10
78.314412
 20
195.182114
 40
20.000000
  1
86.3
 41
0.800000
  7
GOTHIC
 72
     1
 11
94.314412
 21
195.182114
  0
LINE
  8
0
  6
CONTINUOUS
 62
   134
 10
51.164412
 20
218.470168
 11
51.164412
 21
188.182114
  0
LINE
  8
0
  6
CONTINUOUS
 62
   134
 10
137.464412
 20
218.470168
 11
137.464412
 21
188.182114
  0
LINE
  8
0
  6
CONTINUOUS
 62
     3
 10
336.098816
 20
550.923110
 11
342.245816
 21
557.515110
  0
LINE
  8
0
  6
CONTINUOUS
 62
     3
 10
342.245816
 20
557.515110
 11
338.364816
 21
562.660110
  0
LINE
  8
0
  6
CONTINUOUS
 62
     3
 10
338.364816
 20
562.660110
 11
335.929816
 21
568.625110
  0
LINE
  8
0
  6
CONTINUOUS
 62
     3
 10
335.929816
 20
568.625110
 11
335.098816
 21
575.016110
  0
LINE
  8
0
  6
CONTINUOUS
 62
     3
 10
335.098816
 20
575.016110
 11
335.098816
 21
642.016110
  0
LINE
  8
0
  6
CONTINUOUS
 62
     3
 10
335.098816
 20
642.016110
 11
336.033816
 21
648.789110
  0
LINE
  8
0
  6
CONTINUOUS
 62
     3
 10
336.033816
 20
648.789110
 11
338.767816
 21
655.055110
  0
LINE
  8
0
  6
CONTINUOUS
 62
     3
 10
338.767816
 20
655.055110
 11
343.098816
 21
660.346110
  0
LINE
  8
0
  6
CONTINUOUS
 62
     3
 10
343.098816
 20
660.346110
 11
343.098816
 21
671.016110
  0
LINE
  8
0
  6
CONTINUOUS
 62
     3
 10
343.098816
 20
671.016110
 11
329.098816
 21
671.016110
  0
LINE
  8
0
  6
CONTINUOUS
 62
     3
 10
329.098816
 20
671.016110
 11
329.098816
 21
701.016110
  0
LINE
  8
0
  6
CONTINUOUS
 62
     3
 10
329.098816
 20
701.016110
 11
318.712816
 21
701.016110
  0
LINE
  8
0
  6
CONTINUOUS
 62
     3
 10
318.712816
 20
701.016110
 11
315.940816
 21
683.516110
  0
LINE
  8
0
  6
CONTINUOUS
 62
     3
 10
315.940816
 20
683.516110
 11
319.098816
 21
683.516110
  0
LINE
  8
0
  6
CONTINUOUS
 62
     3
 10
319.098816
 20
683.516110
 11
319.098816
 21
675.516110
  0
LINE
  8
0
  6
CONTINUOUS
 62
     3
 10
319.098816
 20
675.516110
 11
316.098816
 21
675.516110
  0
LINE
  8
0
  6
CONTINUOUS
 62
     3
 10
316.098816
 20
675.516110
 11
316.098816
 21
574.569110
  0
LINE
  8
0
  6
CONTINUOUS
 62
     3
 10
316.098816
 20
574.569110
 11
331.058816
 21
558.528110
  0
LINE
  8
0
  6
CONTINUOUS
 62
     3
 10
331.058816
 20
558.528110
 11
329.961816
 21
557.505110
  0
LINE
  8
0
  6
CONTINUOUS
 62
     3
 10
329.961816
 20
557.505110
 11
336.098816
 21
550.923110
  0
LINE
  8
0
  6
CONTINUOUS
 62
     2
 10
362.115597
 20
743.230089
 11
362.115597
 21
695.734746
  0
LINE
  8
0
  6
CONTINUOUS
 62
     2
 10
362.115597
 20
695.734746
 11
357.894573
 21
679.773718
  0
LINE
  8
0
  6
CONTINUOUS
 62
     2
 10
349.552674
 20
679.773718
 11
349.552674
 21
701.016110
  0
LINE
  8
0
  6
CONTINUOUS
 62
     2
 10
349.552674
 20
701.016110
 11
338.920173
 21
701.016110
  0
LINE
  8
0
  6
CONTINUOUS
 62
     2
 10
338.920173
 20
701.016110
 11
338.920173
 21
675.904527
  0
LINE
  8
0
  6
CONTINUOUS
 62
     2
 10
338.920173
 20
675.904527
 11
329.098816
 21
675.904527
  0
LINE
  8
0
  6
CONTINUOUS
 62
     2
 10
329.098816
 20
675.904527
 11
329.098816
 21
701.016110
  0
LINE
  8
0
  6
CONTINUOUS
 62
     2
 10
329.098816
 20
701.016110
 11
316.097884
 21
701.016110
  0
LINE
  8
0
  6
CONTINUOUS
 62
     2
 10
316.097884
 20
701.016110
 11
316.097884
 21
680.355933
  0
LINE
  8
0
  6
CONTINUOUS
 62
     2
 10
316.097884
 20
680.355933
 11
309.102818
 21
680.355933
  0
LINE
  8
0
  6
CONTINUOUS
 62
     2
 10
309.102818
 20
680.355933
 11
303.732868
 21
693.922123
  0
LINE
  8
0
  6
CONTINUOUS
 62
     2
 10
303.732868
 20
693.922123
 11
303.732868
 21
723.259009
  0
LINE
  8
0
  6
CONTINUOUS
 62
     2
 10
303.732868
 20
723.259009
 11
294.543894
 21
723.259009
  0
LINE
  8
0
  6
CONTINUOUS
 62
     2
 10
294.543894
 20
723.259009
 11
294.543894
 21
748.416518
  0
LINE
  8
0
  6
CONTINUOUS
 62
     2
 10
294.543894
 20
748.416518
 11
283.818125
 21
755.595294
  0
LINE
  8
0
  6
CONTINUOUS
 62
     2
 10
283.818125
 20
755.595294
 11
283.818125
 21
771.139886
  0
LINE
  8
0
  6
CONTINUOUS
 62
     2
 10
283.818125
 20
771.139886
 11
287.797541
 21
771.139886
  0
LINE
  8
0
  6
CONTINUOUS
 62
     2
 10
287.797541
 20
771.139886
 11
287.797541
 21
768.980601
  0
LINE
  8
0
  6
CONTINUOUS
 62
     2
 10
287.797541
 20
768.980601
 11
296.898193
 21
763.328022
  0
LINE
  8
0
  6
CONTINUOUS
 62
     2
 10
296.898193
 20
763.328022
 11
301.194153
 21
755.957059
  0
LINE
  8
0
  6
CONTINUOUS
 62
     2
 10
301.194153
 20
755.957059
 11
306.801512
 21
755.957059
  0
LINE
  8
0
  6
CONTINUOUS
 62
     2
 10
306.801512
 20
755.957059
 11
306.801512
 21
798.645513
  0
LINE
  8
0
  6
CONTINUOUS
 62
     2
 10
306.801512
 20
798.645513
 11
315.907817
 21
798.645513
  0
LINE
  8
0
  6
CONTINUOUS
 62
     2
 10
315.907817
 20
798.645513
 11
315.907817
 21
772.572992
  0
LINE
  8
0
  6
CONTINUOUS
 62
     2
 10
315.907817
 20
772.572992
 11
348.718168
 21
772.572992
  0
LINE
  8
0
  6
CONTINUOUS
 62
     2
 10
348.718168
 20
772.572992
 11
348.718168
 21
743.230089
  0
LINE
  8
0
  6
CONTINUOUS
 62
     2
 10
348.718168
 20
743.230089
 11
362.115597
 21
743.230089
  0
LINE
  8
0
  6
CONTINUOUS
 62
   134
 10
349.363237
 20
541.327637
 11
348.377368
 21
539.473435
  0
LINE
  8
0
  6
CONTINUOUS
 62
   134
 10
348.377368
 20
539.473435
 11
350.158256
 21
540.586286
  0
LINE
  8
0
  6
CONTINUOUS
 62
   134
 10
353.538498
 20
544.211234
 11
354.524368
 21
546.065435
  0
LINE
  8
0
  6
CONTINUOUS
 62
   134
 10
354.524368
 20
546.065435
 11
352.743479
 21
544.952585
  0
LINE
  8
0
  6
CONTINUOUS
 62
   134
 10
348.377368
 20
539.473435
 11
354.524368
 21
546.065435
  0
TEXT
  8
0
 62
   134
 10
349.355526
 20
541.988703
 40
10.000000
  1
9
 50
47.000648
 41
0.800000
  7
GOTHIC
 72
     1
 11
350.719506
 21
543.451425
  0
LINE
  8
0
  6
CONTINUOUS
 62
   134
 10
337.927220
 20
549.218135
 11
350.205771
 21
537.768460
  0
LINE
  8
0
  6
CONTINUOUS
 62
   134
 10
344.074220
 20
555.810135
 11
356.352771
 21
544.360460
  0
LINE
  8
0
  6
CONTINUOUS
 62
   134
 10
314.754955
 20
540.552988
 11
312.974128
 21
541.665936
  0
LINE
  8
0
  6
CONTINUOUS
 62
   134
 10
312.974128
 20
541.665936
 11
313.959896
 21
539.811681
  0
LINE
  8
0
  6
CONTINUOUS
 62
   134
 10
317.330301
 20
536.196884
 11
319.111128
 21
535.083936
  0
LINE
  8
0
  6
CONTINUOUS
 62
   134
 10
319.111128
 20
535.083936
 11
318.125360
 21
536.938191
  0
LINE
  8
0
  6
CONTINUOUS
 62
   134
 10
312.974128
 20
541.665936
 11
319.111128
 21
535.083936
  0
TEXT
  8
0
 62
   134
 10
315.410127
 20
540.519684
 40
10.000000
  1
9
 50
312.996208
 41
0.800000
  7
GOTHIC
 72
     1
 11
316.774027
 21
539.056886
  0
LINE
  8
0
  6
CONTINUOUS
 62
   134
 10
328.133319
 20
555.800235
 11
311.145631
 21
539.961061
  0
LINE
  8
0
  6
CONTINUOUS
 62
   134
 10
334.270319
 20
549.218235
 11
317.282631
 21
533.379061
  0
LINE
  8
0
  6
CONTINUOUS
 62
   134
 10
309.776243
 20
584.322651
 11
308.663504
 21
582.541694
  0
LINE
  8
0
  6
CONTINUOUS
 62
   134
 10
308.663504
 20
582.541694
 11
310.517643
 21
583.527678
  0
LINE
  8
0
  6
CONTINUOUS
 62
   134
 10
306.453800
 20
579.737697
 11
307.566540
 21
581.518654
  0
LINE
  8
0
  6
CONTINUOUS
 62
   134
 10
307.566540
 20
581.518654
 11
305.712400
 21
580.532670
  0
LINE
  8
0
  6
CONTINUOUS
 62
   134
 10
311.735043
 20
585.406243
 11
304.495000
 21
578.654105
  0
TEXT
  8
0
 62
   134
 10
293.997916
 20
571.470467
 40
10.000000
  1
1.5
 50
43.002914
 41
0.800000
  7
GOTHIC
 72
     2
 11
302.773744
 21
579.654894
  0
LINE
  8
0
  6
CONTINUOUS
 62
   134
 10
294.712721
 20
569.531051
 11
307.566540
 21
581.518654
  0
LINE
  8
0
  6
CONTINUOUS
 62
   134
 10
314.393727
 20
576.397407
 11
306.958415
 21
584.369991
  0
LINE
  8
0
  6
CONTINUOUS
 62
   134
 10
328.256727
 20
559.333407
 11
305.861451
 21
583.346952
  0
LINE
  8
0
  6
CONTINUOUS
 62
   134
 10
270.047742
 20
673.487666
 11
269.504222
 21
675.516110
  0
LINE
  8
0
  6
CONTINUOUS
 62
   134
 10
269.504222
 20
675.516110
 11
268.960702
 21
673.487666
  0
LINE
  8
0
  6
CONTINUOUS
 62
   134
 10
268.960702
 20
576.597554
 11
269.504222
 21
574.569110
  0
LINE
  8
0
  6
CONTINUOUS
 62
   134
 10
269.504222
 20
574.569110
 11
270.047742
 21
576.597554
  0
LINE
  8
0
  6
CONTINUOUS
 62
   134
 10
269.504222
 20
675.516110
 11
269.504222
 21
574.569110
  0
TEXT
  8
0
 62
   134
 10
268.504222
 20
615.042610
 40
10.000000
  1
100.9
 50
90.000000
 41
0.800000
  7
GOTHIC
 72
     1
 11
268.504222
 21
625.042610
  0
LINE
  8
0
  6
CONTINUOUS
 62
   134
 10
313.598816
 20
675.516110
 11
267.004222
 21
675.516110
  0
LINE
  8
0
  6
CONTINUOUS
 62
   134
 10
313.598816
 20
574.569110
 11
267.004222
 21
574.569110
  0
LINE
  8
0
  6
CONTINUOUS
 62
   134
 10
333.070372
 20
588.116156
 11
335.098816
 21
588.659676
  0
LINE
  8
0
  6
CONTINUOUS
 62
   134
 10
335.098816
 20
588.659676
 11
333.070372
 21
589.203196
  0
LINE
  8
0
  6
CONTINUOUS
 62
   134
 10
344.274261
 20
589.203196
 11
342.245816
 21
588.659676
  0
LINE
  8
0
  6
CONTINUOUS
 62
   134
 10
342.245816
 20
588.659676
 11
344.274261
 21
588.116156
  0
LINE
  8
0
  6
CONTINUOUS
 62
   134
 10
330.898816
 20
588.659676
 11
346.445816
 21
588.659676
  0
TEXT
  8
0
 62
   134
 10
349.392532
 20
589.279671
 40
10.000000
  1
7.1
 41
0.800000
  7
GOTHIC
  0
LINE
  8
0
  6
CONTINUOUS
 62
   134
 10
362.192532
 20
588.659676
 11
342.245816
 21
588.659676
  0
LINE
  8
0
  6
CONTINUOUS
 62
   134
 10
342.245816
 20
560.015110
 11
342.245816
 21
591.159676
  0
LINE
  8
0
  6
CONTINUOUS
 62
   134
 10
367.194437
 20
559.543554
 11
367.737957
 21
557.515110
  0
LINE
  8
0
  6
CONTINUOUS
 62
   134
 10
367.737957
 20
557.515110
 11
368.281477
 21
559.543554
  0
LINE
  8
0
  6
CONTINUOUS
 62
   134
 10
368.281477
 20
572.987666
 11
367.737957
 21
575.016110
  0
LINE
  8
0
  6
CONTINUOUS
 62
   134
 10
367.737957
 20
575.016110
 11
367.194437
 21
572.987666
  0
LINE
  8
0
  6
CONTINUOUS
 62
   134
 10
367.737957
 20
557.515110
 11
367.737957
 21
575.016110
  0
TEXT
  8
0
 62
   134
 10
366.737957
 20
558.265610
 40
10.000000
  1
17.5
 50
90.000000
 41
0.800000
  7
GOTHIC
 72
     1
 11
366.737957
 21
566.265610
  0
LINE
  8
0
  6
CONTINUOUS
 62
   134
 10
344.745816
 20
557.515110
 11
370.237957
 21
557.515110
  0
LINE
  8
0
  6
CONTINUOUS
 62
   134
 10
337.598816
 20
575.016110
 11
370.237957
 21
575.016110
  0
LINE
  8
0
  6
CONTINUOUS
 62
   134
 10
337.127261
 20
623.476597
 11
335.098816
 21
622.933077
  0
LINE
  8
0
  6
CONTINUOUS
 62
   134
 10
335.098816
 20
622.933077
 11
337.127261
 21
622.389557
  0
LINE
  8
0
  6
CONTINUOUS
 62
   134
 10
341.070372
 20
622.389557
 11
343.098816
 21
622.933077
  0
LINE
  8
0
  6
CONTINUOUS
 62
   134
 10
343.098816
 20
622.933077
 11
341.070372
 21
623.476597
  0
LINE
  8
0
  6
CONTINUOUS
 62
   134
 10
335.098816
 20
622.933077
 11
343.098816
 21
622.933077
  0
TEXT
  8
0
 62
   134
 10
337.098816
 20
623.933077
 40
10.000000
  1
8
 41
0.800000
  7
GOTHIC
 72
     1
 11
339.098816
 21
623.933077
  0
LINE
  8
0
  6
CONTINUOUS
 62
   134
 10
343.098816
 20
657.846110
 11
343.098816
 21
620.433077
  0
LINE
  8
0
  6
CONTINUOUS
 62
   134
 10
365.401040
 20
668.987666
 11
364.857520
 21
671.016110
  0
LINE
  8
0
  6
CONTINUOUS
 62
   134
 10
364.857520
 20
671.016110
 11
364.314000
 21
668.987666
  0
LINE
  8
0
  6
CONTINUOUS
 62
   134
 10
364.314000
 20
662.374554
 11
364.857520
 21
660.346110
  0
LINE
  8
0
  6
CONTINUOUS
 62
   134
 10
364.857520
 20
660.346110
 11
365.401040
 21
662.374554
  0
LINE
  8
0
  6
CONTINUOUS
 62
   134
 10
364.857520
 20
671.016110
 11
364.857520
 21
660.346110
  0
TEXT
  8
0
 62
   134
 10
363.857520
 20
657.681110
 40
10.000000
  1
10.7
 50
90.000000
 41
0.800000
  7
GOTHIC
 72
     1
 11
363.857520
 21
665.681110
  0
LINE
  8
0
  6
CONTINUOUS
 62
   134
 10
345.598816
 20
671.016110
 11
367.357520
 21
671.016110
  0
LINE
  8
0
  6
CONTINUOUS
 62
   134
 10
345.598816
 20
660.346110
 11
367.357520
 21
660.346110
  0
LINE
  8
0
  6
CONTINUOUS
 62
   134
 10
364.314000
 20
662.374554
 11
364.857520
 21
660.346110
  0
LINE
  8
0
  6
CONTINUOUS
 62
   134
 10
364.857520
 20
660.346110
 11
365.401040
 21
662.374554
  0
LINE
  8
0
  6
CONTINUOUS
 62
   134
 10
365.401040
 20
639.987666
 11
364.857520
 21
642.016110
  0
LINE
  8
0
  6
CONTINUOUS
 62
   134
 10
364.857520
 20
642.016110
 11
364.314000
 21
639.987666
  0
LINE
  8
0
  6
CONTINUOUS
 62
   134
 10
364.857520
 20
664.546110
 11
364.857520
 21
637.816110
  0
TEXT
  8
0
 62
   134
 10
364.100723
 20
622.752047
 40
10.000000
  1
18.3
 50
90.000000
 41
0.800000
  7
GOTHIC
 72
     2
 11
364.100723
 21
638.752047
  0
LINE
  8
0
  6
CONTINUOUS
 62
   134
 10
364.857520
 20
621.952047
 11
364.857520
 21
642.016110
  0
LINE
  8
0
  6
CONTINUOUS
 62
   134
 10
345.598816
 20
660.346110
 11
367.357520
 21
660.346110
  0
LINE
  8
0
  6
CONTINUOUS
 62
   134
 10
337.598816
 20
642.016110
 11
367.357520
 21
642.016110
  0
LINE
  8
0
  6
CONTINUOUS
 62
   134
 10
327.070372
 20
705.615871
 11
329.098816
 21
706.159391
  0
LINE
  8
0
  6
CONTINUOUS
 62
   134
 10
329.098816
 20
706.159391
 11
327.070372
 21
706.702911
  0
LINE
  8
0
  6
CONTINUOUS
 62
   134
 10
318.126329
 20
706.702911
 11
316.097884
 21
706.159391
  0
LINE
  8
0
  6
CONTINUOUS
 62
   134
 10
316.097884
 20
706.159391
 11
318.126329
 21
705.615871
  0
LINE
  8
0
  6
CONTINUOUS
 62
   134
 10
329.098816
 20
706.159391
 11
316.097884
 21
706.159391
  0
TEXT
  8
0
 62
   134
 10
312.898277
 20
707.349393
 40
10.000000
  1
13
 41
0.800000
  7
GOTHIC
 72
     1
 11
316.898277
 21
707.349393
  0
LINE
  8
0
  6
CONTINUOUS
 62
   134
 10
329.098816
 20
703.516110
 11
329.098816
 21
708.659391
  0
LINE
  8
0
  6
CONTINUOUS
 62
   134
 10
316.097884
 20
703.516110
 11
316.097884
 21
708.659391
  0
LINE
  8
0
  6
CONTINUOUS
 62
   134
 10
318.126329
 20
660.281513
 11
316.097884
 21
659.737993
  0
LINE
  8
0
  6
CONTINUOUS
 62
   134
 10
316.097884
 20
659.737993
 11
318.126329
 21
659.194473
  0
LINE
  8
0
  6
CONTINUOUS
 62
   134
 10
307.074374
 20
659.194473
 11
309.102818
 21
659.737993
  0
LINE
  8
0
  6
CONTINUOUS
 62
   134
 10
309.102818
 20
659.737993
 11
307.074374
 21
660.281513
  0
LINE
  8
0
  6
CONTINUOUS
 62
   134
 10
320.297884
 20
659.737993
 11
304.902818
 21
659.737993
  0
TEXT
  8
0
 62
   134
 10
317.947031
 20
659.990873
 40
10.000000
  1
7
 41
0.800000
  7
GOTHIC
  0
LINE
  8
0
  6
CONTINUOUS
 62
   134
 10
322.747031
 20
659.737993
 11
316.097884
 21
659.737993
  0
LINE
  8
0
  6
CONTINUOUS
 62
   134
 10
316.097884
 20
677.855933
 11
316.097884
 21
657.237993
  0
LINE
  8
0
  6
CONTINUOUS
 62
   134
 10
309.102818
 20
677.855933
 11
309.102818
 21
657.237993
  0
LINE
  8
0
  6
CONTINUOUS
 62
   134
 10
311.131262
 20
660.281513
 11
309.102818
 21
659.737993
  0
LINE
  8
0
  6
CONTINUOUS
 62
   134
 10
309.102818
 20
659.737993
 11
311.131262
 21
659.194473
  0
LINE
  8
0
  6
CONTINUOUS
 62
   134
 10
301.704424
 20
659.194473
 11
303.732868
 21
659.737993
  0
LINE
  8
0
  6
CONTINUOUS
 62
   134
 10
303.732868
 20
659.737993
 11
301.704424
 21
660.281513
  0
LINE
  8
0
  6
CONTINUOUS
 62
   134
 10
313.302818
 20
659.737993
 11
299.532868
 21
659.737993
  0
TEXT
  8
0
 62
   134
 10
289.489267
 20
660.800253
 40
10.000000
  1
5.4
 41
0.800000
  7
GOTHIC
 72
     2
 11
301.489267
 21
660.800253
  0
LINE
  8
0
  6
CONTINUOUS
 62
   134
 10
288.689267
 20
659.737993
 11
303.732868
 21
659.737993
  0
LINE
  8
0
  6
CONTINUOUS
 62
   134
 10
303.732868
 20
691.422123
 11
303.732868
 21
657.237993
  0
LINE
  8
0
  6
CONTINUOUS
 62
   134
 10
261.786595
 20
682.384378
 11
262.330115
 21
680.355933
  0
LINE
  8
0
  6
CONTINUOUS
 62
   134
 10
262.330115
 20
680.355933
 11
262.873635
 21
682.384378
  0
LINE
  8
0
  6
CONTINUOUS
 62
   134
 10
262.873635
 20
691.893679
 11
262.330115
 21
693.922123
  0
LINE
  8
0
  6
CONTINUOUS
 62
   134
 10
262.330115
 20
693.922123
 11
261.786595
 21
691.893679
  0
LINE
  8
0
  6
CONTINUOUS
 62
   134
 10
262.330115
 20
680.355933
 11
262.330115
 21
693.922123
  0
TEXT
  8
0
 62
   134
 10
261.330115
 20
679.139028
 40
10.000000
  1
13.6
 50
90.000000
 41
0.800000
  7
GOTHIC
 72
     1
 11
261.330115
 21
687.139028
  0
LINE
  8
0
  6
CONTINUOUS
 62
   134
 10
306.602818
 20
680.355933
 11
259.830115
 21
680.355933
  0
LINE
  8
0
  6
CONTINUOUS
 62
   134
 10
301.232868
 20
693.922123
 11
259.830115
 21
693.922123
  0
LINE
  8
0
  6
CONTINUOUS
 62
   134
 10
261.786595
 20
695.950567
 11
262.330115
 21
693.922123
  0
LINE
  8
0
  6
CONTINUOUS
 62
   134
 10
262.330115
 20
693.922123
 11
262.873635
 21
695.950567
  0
LINE
  8
0
  6
CONTINUOUS
 62
   134
 10
262.873635
 20
721.230564
 11
262.330115
 21
723.259009
  0
LINE
  8
0
  6
CONTINUOUS
 62
   134
 10
262.330115
 20
723.259009
 11
261.786595
 21
721.230564
  0
LINE
  8
0
  6
CONTINUOUS
 62
   134
 10
262.330115
 20
693.922123
 11
262.330115
 21
723.259009
  0
TEXT
  8
0
 62
   134
 10
261.330115
 20
700.590566
 40
10.000000
  1
29.3
 50
90.000000
 41
0.800000
  7
GOTHIC
 72
     1
 11
261.330115
 21
708.590566
  0
LINE
  8
0
  6
CONTINUOUS
 62
   134
 10
292.043894
 20
723.259009
 11
259.830115
 21
723.259009
  0
LINE
  8
0
  6
CONTINUOUS
 62
   134
 10
261.786595
 20
725.287453
 11
262.330115
 21
723.259009
  0
LINE
  8
0
  6
CONTINUOUS
 62
   134
 10
262.330115
 20
723.259009
 11
262.873635
 21
725.287453
  0
LINE
  8
0
  6
CONTINUOUS
 62
   134
 10
262.873635
 20
753.566849
 11
262.330115
 21
755.595294
  0
LINE
  8
0
  6
CONTINUOUS
 62
   134
 10
262.330115
 20
755.595294
 11
261.786595
 21
753.566849
  0
LINE
  8
0
  6
CONTINUOUS
 62
   134
 10
262.330115
 20
723.259009
 11
262.330115
 21
755.595294
  0
TEXT
  8
0
 62
   134
 10
261.330115
 20
731.427151
 40
10.000000
  1
32.3
 50
90.000000
 41
0.800000
  7
GOTHIC
 72
     1
 11
261.330115
 21
739.427151
  0
LINE
  8
0
  6
CONTINUOUS
 62
   134
 10
281.318125
 20
755.595294
 11
259.830115
 21
755.595294
  0
LINE
  8
0
  6
CONTINUOUS
 62
   134
 10
261.786595
 20
757.623738
 11
262.330115
 21
755.595294
  0
LINE
  8
0
  6
CONTINUOUS
 62
   134
 10
262.330115
 20
755.595294
 11
262.873635
 21
757.623738
  0
LINE
  8
0
  6
CONTINUOUS
 62
   134
 10
262.873635
 20
769.111442
 11
262.330115
 21
771.139886
  0
LINE
  8
0
  6
CONTINUOUS
 62
   134
 10
262.330115
 20
771.139886
 11
261.786595
 21
769.111442
  0
LINE
  8
0
  6
CONTINUOUS
 62
   134
 10
262.330115
 20
755.595294
 11
262.330115
 21
771.139886
  0
TEXT
  8
0
 62
   134
 10
261.330115
 20
755.367590
 40
10.000000
  1
15.5
 50
90.000000
 41
0.800000
  7
GOTHIC
 72
     1
 11
261.330115
 21
763.367590
  0
LINE
  8
0
  6
CONTINUOUS
 62
   134
 10
281.318125
 20
771.139886
 11
259.830115
 21
771.139886
  0
LINE
  8
0
  6
CONTINUOUS
 62
   134
 10
261.786595
 20
773.168330
 11
262.330115
 21
771.139886
  0
LINE
  8
0
  6
CONTINUOUS
 62
   134
 10
262.330115
 20
771.139886
 11
262.873635
 21
773.168330
  0
LINE
  8
0
  6
CONTINUOUS
 62
   134
 10
262.873635
 20
796.617068
 11
262.330115
 21
798.645513
  0
LINE
  8
0
  6
CONTINUOUS
 62
   134
 10
262.330115
 20
798.645513
 11
261.786595
 21
796.617068
  0
LINE
  8
0
  6
CONTINUOUS
 62
   134
 10
262.330115
 20
771.139886
 11
262.330115
 21
798.645513
  0
TEXT
  8
0
 62
   134
 10
261.330115
 20
776.892699
 40
10.000000
  1
27.5
 50
90.000000
 41
0.800000
  7
GOTHIC
 72
     1
 11
261.330115
 21
784.892699
  0
LINE
  8
0
  6
CONTINUOUS
 62
   134
 10
304.301512
 20
798.645513
 11
259.830115
 21
798.645513
  0
LINE
  8
0
  6
CONTINUOUS
 62
   134
 10
281.789681
 20
810.041690
 11
283.818125
 21
810.585210
  0
LINE
  8
0
  6
CONTINUOUS
 62
   134
 10
283.818125
 20
810.585210
 11
281.789681
 21
811.128730
  0
LINE
  8
0
  6
CONTINUOUS
 62
   134
 10
289.825985
 20
811.128730
 11
287.797541
 21
810.585210
  0
LINE
  8
0
  6
CONTINUOUS
 62
   134
 10
287.797541
 20
810.585210
 11
289.825985
 21
810.041690
  0
LINE
  8
0
  6
CONTINUOUS
 62
   134
 10
279.618125
 20
810.585210
 11
291.997541
 21
810.585210
  0
TEXT
  8
0
 62
   134
 10
273.775704
 20
811.889214
 40
10.000000
  1
4
 41
0.800000
  7
GOTHIC
 72
     2
 11
277.775704
 21
811.889214
  0
LINE
  8
0
  6
CONTINUOUS
 62
   134
 10
272.975704
 20
810.585210
 11
283.818125
 21
810.585210
  0
LINE
  8
0
  6
CONTINUOUS
 62
   134
 10
283.818125
 20
773.639886
 11
283.818125
 21
813.085210
  0
LINE
  8
0
  6
CONTINUOUS
 62
   134
 10
287.797541
 20
773.639886
 11
287.797541
 21
824.880562
  0
LINE
  8
0
  6
CONTINUOUS
 62
   134
 10
289.825985
 20
822.924082
 11
287.797541
 21
822.380562
  0
LINE
  8
0
  6
CONTINUOUS
 62
   134
 10
287.797541
 20
822.380562
 11
289.825985
 21
821.837042
  0
LINE
  8
0
  6
CONTINUOUS
 62
   134
 10
294.869749
 20
821.837042
 11
296.898193
 21
822.380562
  0
LINE
  8
0
  6
CONTINUOUS
 62
   134
 10
296.898193
 20
822.380562
 11
294.869749
 21
822.924082
  0
LINE
  8
0
  6
CONTINUOUS
 62
   134
 10
287.797541
 20
822.380562
 11
296.898193
 21
822.380562
  0
TEXT
  8
0
 62
   134
 10
286.347867
 20
823.380562
 40
10.000000
  1
9.1
 41
0.800000
  7
GOTHIC
 72
     1
 11
292.347867
 21
823.380562
  0
LINE
  8
0
  6
CONTINUOUS
 62
   134
 10
296.898193
 20
765.828022
 11
296.898193
 21
824.880562
  0
LINE
  8
0
  6
CONTINUOUS
 62
   134
 10
298.926637
 20
811.128730
 11
296.898193
 21
810.585210
  0
LINE
  8
0
  6
CONTINUOUS
 62
   134
 10
296.898193
 20
810.585210
 11
298.926637
 21
810.041690
  0
LINE
  8
0
  6
CONTINUOUS
 62
   134
 10
304.773067
 20
810.041690
 11
306.801512
 21
810.585210
  0
LINE
  8
0
  6
CONTINUOUS
 62
   134
 10
306.801512
 20
810.585210
 11
304.773067
 21
811.128730
  0
LINE
  8
0
  6
CONTINUOUS
 62
   134
 10
296.898193
 20
810.585210
 11
306.801512
 21
810.585210
  0
TEXT
  8
0
 62
   134
 10
295.849852
 20
811.585210
 40
10.000000
  1
9.9
 41
0.800000
  7
GOTHIC
 72
     1
 11
301.849852
 21
811.585210
  0
LINE
  8
0
  6
CONTINUOUS
 62
   134
 10
306.801512
 20
801.145513
 11
306.801512
 21
813.085210
  0
LINE
  8
0
  6
CONTINUOUS
 62
   134
 10
308.829956
 20
822.924082
 11
306.801512
 21
822.380562
  0
LINE
  8
0
  6
CONTINUOUS
 62
   134
 10
306.801512
 20
822.380562
 11
308.829956
 21
821.837042
  0
LINE
  8
0
  6
CONTINUOUS
 62
   134
 10
313.879372
 20
821.837042
 11
315.907817
 21
822.380562
  0
LINE
  8
0
  6
CONTINUOUS
 62
   134
 10
315.907817
 20
822.380562
 11
313.879372
 21
822.924082
  0
LINE
  8
0
  6
CONTINUOUS
 62
   134
 10
306.801512
 20
822.380562
 11
315.907817
 21
822.380562
  0
TEXT
  8
0
 62
   134
 10
305.354664
 20
823.380562
 40
10.000000
  1
9.1
 41
0.800000
  7
GOTHIC
 72
     1
 11
311.354664
 21
823.380562
  0
LINE
  8
0
  6
CONTINUOUS
 62
   134
 10
306.801512
 20
801.145513
 11
306.801512
 21
824.880562
  0
LINE
  8
0
  6
CONTINUOUS
 62
   134
 10
315.907817
 20
801.145513
 11
315.907817
 21
824.880562
  0
LINE
  8
0
  6
CONTINUOUS
 62
   134
 10
317.936261
 20
811.128730
 11
315.907817
 21
810.585210
  0
LINE
  8
0
  6
CONTINUOUS
 62
   134
 10
315.907817
 20
810.585210
 11
317.936261
 21
810.041690
  0
LINE
  8
0
  6
CONTINUOUS
 62
   134
 10
346.689723
 20
810.041690
 11
348.718168
 21
810.585210
  0
LINE
  8
0
  6
CONTINUOUS
 62
   134
 10
348.718168
 20
810.585210
 11
346.689723
 21
811.128730
  0
LINE
  8
0
  6
CONTINUOUS
 62
   134
 10
315.907817
 20
810.585210
 11
348.718168
 21
810.585210
  0
TEXT
  8
0
 62
   134
 10
324.312992
 20
811.585210
 40
10.000000
  1
32.8
 41
0.800000
  7
GOTHIC
 72
     1
 11
332.312992
 21
811.585210
  0
LINE
  8
0
  6
CONTINUOUS
 62
   134
 10
315.907817
 20
801.145513
 11
315.907817
 21
813.085210
  0
LINE
  8
0
  6
CONTINUOUS
 62
   134
 10
348.718168
 20
775.072992
 11
348.718168
 21
813.085210
  0
LINE
  8
0
  6
CONTINUOUS
 62
   134
 10
350.746612
 20
811.128730
 11
348.718168
 21
810.585210
  0
LINE
  8
0
  6
CONTINUOUS
 62
   134
 10
348.718168
 20
810.585210
 11
350.746612
 21
810.041690
  0
LINE
  8
0
  6
CONTINUOUS
 62
   134
 10
360.087153
 20
810.041690
 11
362.115597
 21
810.585210
  0
LINE
  8
0
  6
CONTINUOUS
 62
   134
 10
362.115597
 20
810.585210
 11
360.087153
 21
811.128730
  0
LINE
  8
0
  6
CONTINUOUS
 62
   134
 10
348.718168
 20
810.585210
 11
362.115597
 21
810.585210
  0
TEXT
  8
0
 62
   134
 10
347.416882
 20
811.585210
 40
10.000000
  1
13.4
 41
0.800000
  7
GOTHIC
 72
     1
 11
355.416882
 21
811.585210
  0
LINE
  8
0
  6
CONTINUOUS
 62
   134
 10
348.718168
 20
775.072992
 11
348.718168
 21
813.085210
  0
LINE
  8
0
  6
CONTINUOUS
 62
   134
 10
362.115597
 20
745.893054
 11
362.115597
 21
813.085210
  0
LINE
  8
0
  6
CONTINUOUS
 62
   134
 10
409.208104
 20
796.617068
 11
408.664584
 21
798.645513
  0
LINE
  8
0
  6
CONTINUOUS
 62
   134
 10
408.664584
 20
798.645513
 11
408.121064
 21
796.617068
  0
LINE
  8
0
  6
CONTINUOUS
 62
   134
 10
408.121064
 20
757.985503
 11
408.664584
 21
755.957059
  0
LINE
  8
0
  6
CONTINUOUS
 62
   134
 10
408.664584
 20
755.957059
 11
409.208104
 21
757.985503
  0
LINE
  8
0
  6
CONTINUOUS
 62
   134
 10
408.664584
 20
798.645513
 11
408.664584
 21
755.957059
  0
TEXT
  8
0
 62
   134
 10
407.664584
 20
769.301286
 40
10.000000
  1
42.7
 50
90.000000
 41
0.800000
  7
GOTHIC
 72
     1
 11
407.664584
 21
777.301286
  0
LINE
  8
0
  6
CONTINUOUS
 62
   134
 10
318.407817
 20
798.645513
 11
411.164584
 21
798.645513
  0
LINE
  8
0
  6
CONTINUOUS
 62
   134
 10
309.301512
 20
755.957059
 11
411.164584
 21
755.957059
  0
LINE
  8
0
  6
CONTINUOUS
 62
   134
 10
394.245411
 20
796.617068
 11
393.701891
 21
798.645513
  0
LINE
  8
0
  6
CONTINUOUS
 62
   134
 10
393.701891
 20
798.645513
 11
393.158371
 21
796.617068
  0
LINE
  8
0
  6
CONTINUOUS
 62
   134
 10
393.158371
 20
774.601436
 11
393.701891
 21
772.572992
  0
LINE
  8
0
  6
CONTINUOUS
 62
   134
 10
393.701891
 20
772.572992
 11
394.245411
 21
774.601436
  0
LINE
  8
0
  6
CONTINUOUS
 62
   134
 10
393.701891
 20
798.645513
 11
393.701891
 21
772.572992
  0
TEXT
  8
0
 62
   134
 10
392.701891
 20
777.609252
 40
10.000000
  1
26.1
 50
90.000000
 41
0.800000
  7
GOTHIC
 72
     1
 11
392.701891
 21
785.609252
  0
LINE
  8
0
  6
CONTINUOUS
 62
   134
 10
351.218168
 20
772.572992
 11
396.201891
 21
772.572992
  0
LINE
  8
0
  6
CONTINUOUS
 62
   134
 10
394.245411
 20
770.544547
 11
393.701891
 21
772.572992
  0
LINE
  8
0
  6
CONTINUOUS
 62
   134
 10
393.701891
 20
772.572992
 11
393.158371
 21
770.544547
  0
LINE
  8
0
  6
CONTINUOUS
 62
   134
 10
393.158371
 20
745.258533
 11
393.701891
 21
743.230089
  0
LINE
  8
0
  6
CONTINUOUS
 62
   134
 10
393.701891
 20
743.230089
 11
394.245411
 21
745.258533
  0
LINE
  8
0
  6
CONTINUOUS
 62
   134
 10
393.701891
 20
772.572992
 11
393.701891
 21
743.230089
  0
TEXT
  8
0
 62
   134
 10
392.701891
 20
749.901540
 40
10.000000
  1
29.3
 50
90.000000
 41
0.800000
  7
GOTHIC
 72
     1
 11
392.701891
 21
757.901540
  0
LINE
  8
0
  6
CONTINUOUS
 62
   134
 10
364.615597
 20
743.230089
 11
396.201891
 21
743.230089
  0
LINE
  8
0
  6
CONTINUOUS
 62
   134
 10
394.245411
 20
741.201645
 11
393.701891
 21
743.230089
  0
LINE
  8
0
  6
CONTINUOUS
 62
   134
 10
393.701891
 20
743.230089
 11
393.158371
 21
741.201645
  0
LINE
  8
0
  6
CONTINUOUS
 62
   134
 10
393.158371
 20
697.763190
 11
393.701891
 21
695.734746
  0
LINE
  8
0
  6
CONTINUOUS
 62
   134
 10
393.701891
 20
695.734746
 11
394.245411
 21
697.763190
  0
LINE
  8
0
  6
CONTINUOUS
 62
   134
 10
393.701891
 20
743.230089
 11
393.701891
 21
695.734746
  0
TEXT
  8
0
 62
   134
 10
392.701891
 20
711.482418
 40
10.000000
  1
47.5
 50
90.000000
 41
0.800000
  7
GOTHIC
 72
     1
 11
392.701891
 21
719.482418
  0
LINE
  8
0
  6
CONTINUOUS
 62
   134
 10
364.615597
 20
743.230089
 11
396.201891
 21
743.230089
  0
LINE
  8
0
  6
CONTINUOUS
 62
   134
 10
364.615597
 20
695.734746
 11
396.201891
 21
695.734746
  0
LINE
  8
0
  6
CONTINUOUS
 62
     2
 10
349.552674
 20
679.773718
 11
357.894573
 21
679.773718
  0
LINE
  8
0
  6
CONTINUOUS
 62
   134
 10
394.245411
 20
693.706302
 11
393.701891
 21
695.734746
  0
LINE
  8
0
  6
CONTINUOUS
 62
   134
 10
393.701891
 20
695.734746
 11
393.158371
 21
693.706302
  0
LINE
  8
0
  6
CONTINUOUS
 62
   134
 10
393.158371
 20
681.802162
 11
393.701891
 21
679.773718
  0
LINE
  8
0
  6
CONTINUOUS
 62
   134
 10
393.701891
 20
679.773718
 11
394.245411
 21
681.802162
  0
LINE
  8
0
  6
CONTINUOUS
 62
   134
 10
393.701891
 20
695.734746
 11
393.701891
 21
679.773718
  0
TEXT
  8
0
 62
   134
 10
392.701891
 20
683.754232
 40
10.000000
  1
16
 50
90.000000
 41
0.800000
  7
GOTHIC
 72
     1
 11
392.701891
 21
687.754232
  0
LINE
  8
0
  6
CONTINUOUS
 62
   134
 10
360.394573
 20
679.773718
 11
396.201891
 21
679.773718
  0
LINE
  8
0
  6
CONTINUOUS
 62
   134
 10
360.087153
 20
718.479562
 11
362.115597
 21
719.023082
  0
LINE
  8
0
  6
CONTINUOUS
 62
   134
 10
362.115597
 20
719.023082
 11
360.087153
 21
719.566602
  0
LINE
  8
0
  6
CONTINUOUS
 62
   134
 10
359.923017
 20
719.566602
 11
357.894573
 21
719.023082
  0
LINE
  8
0
  6
CONTINUOUS
 62
   134
 10
357.894573
 20
719.023082
 11
359.923017
 21
718.479562
  0
LINE
  8
0
  6
CONTINUOUS
 62
   134
 10
362.115597
 20
719.023082
 11
357.894573
 21
719.023082
  0
TEXT
  8
0
 62
   134
 10
354.005085
 20
720.023082
 40
10.000000
  1
4.2
 41
0.800000
  7
GOTHIC
 72
     1
 11
360.005085
 21
720.023082
  0
LINE
  8
0
  6
CONTINUOUS
 62
   134
 10
357.894573
 20
682.273718
 11
357.894573
 21
721.523082
  0
LINE
  8
0
  6
CONTINUOUS
 62
   134
 10
355.866129
 20
707.225337
 11
357.894573
 21
707.768857
  0
LINE
  8
0
  6
CONTINUOUS
 62
   134
 10
357.894573
 20
707.768857
 11
355.866129
 21
708.312377
  0
LINE
  8
0
  6
CONTINUOUS
 62
   134
 10
351.581118
 20
708.312377
 11
349.552674
 21
707.768857
  0
LINE
  8
0
  6
CONTINUOUS
 62
   134
 10
349.552674
 20
707.768857
 11
351.581118
 21
707.225337
  0
LINE
  8
0
  6
CONTINUOUS
 62
   134
 10
357.894573
 20
707.768857
 11
349.552674
 21
707.768857
  0
TEXT
  8
0
 62
   134
 10
347.723623
 20
708.768857
 40
10.000000
  1
8.3
 41
0.800000
  7
GOTHIC
 72
     1
 11
353.723623
 21
708.768857
  0
LINE
  8
0
  6
CONTINUOUS
 62
   134
 10
349.552674
 20
703.516110
 11
349.552674
 21
710.268857
  0
LINE
  8
0
  6
CONTINUOUS
 62
   134
 10
336.891728
 20
705.615871
 11
338.920173
 21
706.159391
  0
LINE
  8
0
  6
CONTINUOUS
 62
   134
 10
338.920173
 20
706.159391
 11
336.891728
 21
706.702911
  0
LINE
  8
0
  6
CONTINUOUS
 62
   134
 10
331.127261
 20
706.702911
 11
329.098816
 21
706.159391
  0
LINE
  8
0
  6
CONTINUOUS
 62
   134
 10
329.098816
 20
706.159391
 11
331.127261
 21
705.615871
  0
LINE
  8
0
  6
CONTINUOUS
 62
   134
 10
338.920173
 20
706.159391
 11
329.098816
 21
706.159391
  0
TEXT
  8
0
 62
   134
 10
328.009494
 20
707.159391
 40
10.000000
  1
9.8
 41
0.800000
  7
GOTHIC
 72
     1
 11
334.009494
 21
707.159391
  0
LINE
  8
0
  6
CONTINUOUS
 62
   134
 10
338.920173
 20
703.516110
 11
338.920173
 21
708.659391
  0
LINE
  8
0
  6
CONTINUOUS
 62
   134
 10
329.098816
 20
703.516110
 11
329.098816
 21
708.659391
  0
LINE
  8
0
  6
CONTINUOUS
 62
   134
 10
347.524230
 20
722.565374
 11
349.552674
 21
723.108894
  0
LINE
  8
0
  6
CONTINUOUS
 62
   134
 10
349.552674
 20
723.108894
 11
347.524230
 21
723.652414
  0
LINE
  8
0
  6
CONTINUOUS
 62
   134
 10
340.948617
 20
723.652414
 11
338.920173
 21
723.108894
  0
LINE
  8
0
  6
CONTINUOUS
 62
   134
 10
338.920173
 20
723.108894
 11
340.948617
 21
722.565374
  0
LINE
  8
0
  6
CONTINUOUS
 62
   134
 10
349.552674
 20
723.108894
 11
338.920173
 21
723.108894
  0
TEXT
  8
0
 62
   134
 10
336.236423
 20
724.108894
 40
10.000000
  1
10.6
 41
0.800000
  7
GOTHIC
 72
     1
 11
344.236423
 21
724.108894
  0
LINE
  8
0
  6
CONTINUOUS
 62
   134
 10
349.552674
 20
703.516110
 11
349.552674
 21
725.608894
  0
LINE
  8
0
  6
CONTINUOUS
 62
   134
 10
338.920173
 20
703.516110
 11
338.920173
 21
725.608894
  0
LINE
  8
0
  6
CONTINUOUS
 62
   134
 10
296.572338
 20
705.491695
 11
294.543894
 21
704.948175
  0
LINE
  8
0
  6
CONTINUOUS
 62
   134
 10
294.543894
 20
704.948175
 11
296.572338
 21
704.404655
  0
LINE
  8
0
  6
CONTINUOUS
 62
   134
 10
301.704424
 20
704.404655
 11
303.732868
 21
704.948175
  0
LINE
  8
0
  6
CONTINUOUS
 62
   134
 10
303.732868
 20
704.948175
 11
301.704424
 21
705.491695
  0
LINE
  8
0
  6
CONTINUOUS
 62
   134
 10
294.543894
 20
704.948175
 11
303.732868
 21
704.948175
  0
TEXT
  8
0
 62
   134
 10
293.138381
 20
705.948175
 40
10.000000
  1
9.2
 41
0.800000
  7
GOTHIC
 72
     1
 11
299.138381
 21
705.948175
  0
LINE
  8
0
  6
CONTINUOUS
 62
   134
 10
294.543894
 20
720.759009
 11
294.543894
 21
702.448175
  0
LINE
  8
0
  6
CONTINUOUS
 62
   134
 10
292.515450
 20
727.774956
 11
294.543894
 21
728.318476
  0
LINE
  8
0
  6
CONTINUOUS
 62
   134
 10
294.543894
 20
728.318476
 11
292.515450
 21
728.861996
  0
LINE
  8
0
  6
CONTINUOUS
 62
   134
 10
285.846569
 20
728.861996
 11
283.818125
 21
728.318476
  0
LINE
  8
0
  6
CONTINUOUS
 62
   134
 10
283.818125
 20
728.318476
 11
285.846569
 21
727.774956
  0
LINE
  8
0
  6
CONTINUOUS
 62
   134
 10
294.543894
 20
728.318476
 11
283.818125
 21
728.318476
  0
TEXT
  8
0
 62
   134
 10
281.181010
 20
729.318476
 40
10.000000
  1
10.7
 41
0.800000
  7
GOTHIC
 72
     1
 11
289.181010
 21
729.318476
  0
LINE
  8
0
  6
CONTINUOUS
 62
   134
 10
283.818125
 20
753.095294
 11
283.818125
 21
725.818476
  0
LINE
  8
0
  6
CONTINUOUS
 62
   134
 10
278.258771
 20
769.111442
 11
277.715251
 21
771.139886
  0
LINE
  8
0
  6
CONTINUOUS
 62
   134
 10
277.715251
 20
771.139886
 11
277.171731
 21
769.111442
  0
LINE
  8
0
  6
CONTINUOUS
 62
   134
 10
277.171731
 20
771.009045
 11
277.715251
 21
768.980601
  0
LINE
  8
0
  6
CONTINUOUS
 62
   134
 10
277.715251
 20
768.980601
 11
278.258771
 21
771.009045
  0
LINE
  8
0
  6
CONTINUOUS
 62
   134
 10
277.715251
 20
771.139886
 11
277.715251
 21
768.980601
  0
TEXT
  8
0
 62
   134
 10
276.715251
 20
764.060244
 40
10.000000
  1
2.2
 50
90.000000
 41
0.800000
  7
GOTHIC
 72
     1
 11
276.715251
 21
770.060244
  0
LINE
  8
0
  6
CONTINUOUS
 62
   134
 10
281.318125
 20
771.139886
 11
275.215251
 21
771.139886
  0
LINE
  8
0
  6
CONTINUOUS
 62
   134
 10
285.297541
 20
768.980601
 11
275.215251
 21
768.980601
  0
LINE
  8
0
  6
CONTINUOUS
 62
   134
 10
334.925101
 20
769.111442
 11
334.381581
 21
771.139886
  0
LINE
  8
0
  6
CONTINUOUS
 62
   134
 10
334.381581
 20
771.139886
 11
333.838061
 21
769.111442
  0
LINE
  8
0
  6
CONTINUOUS
 62
   134
 10
333.838061
 20
765.356466
 11
334.381581
 21
763.328022
  0
LINE
  8
0
  6
CONTINUOUS
 62
   134
 10
334.381581
 20
763.328022
 11
334.925101
 21
765.356466
  0
LINE
  8
0
  6
CONTINUOUS
 62
   134
 10
334.381581
 20
771.139886
 11
334.381581
 21
763.328022
  0
TEXT
  8
0
 62
   134
 10
333.381581
 20
761.233954
 40
10.000000
  1
7.8
 50
90.000000
 41
0.800000
  7
GOTHIC
 72
     1
 11
333.381581
 21
767.233954
  0
LINE
  8
0
  6
CONTINUOUS
 62
   134
 10
290.297541
 20
771.139886
 11
336.881581
 21
771.139886
  0
LINE
  8
0
  6
CONTINUOUS
 62
   134
 10
299.398193
 20
763.328022
 11
336.881581
 21
763.328022
  0
LINE
  8
0
  6
CONTINUOUS
 62
   134
 10
311.194498
 20
542.777359
 11
312.975415
 21
541.664555
  0
LINE
  8
0
  6
CONTINUOUS
 62
   134
 10
312.975415
 20
541.664555
 11
311.989497
 21
543.518731
  0
LINE
  8
0
  6
CONTINUOUS
 62
   134
 10
299.796907
 20
556.593287
 11
298.015989
 21
557.706091
  0
LINE
  8
0
  6
CONTINUOUS
 62
   134
 10
298.015989
 20
557.706091
 11
299.001908
 21
555.851916
  0
LINE
  8
0
  6
CONTINUOUS
 62
   134
 10
312.975415
 20
541.664555
 11
298.015989
 21
557.706091
  0
TEXT
  8
0
 62
   134
 10
300.770971
 20
556.218080
 40
10.000000
  1
21.9
 50
313.000865
 41
0.800000
  7
GOTHIC
 72
     1
 11
306.227046
 21
550.367332
  0
LINE
  8
0
  6
CONTINUOUS
 62
   134
 10
328.133458
 20
555.800086
 11
311.147057
 21
539.959532
  0
LINE
  8
0
  6
CONTINUOUS
 62
   134
 10
314.270458
 20
572.864086
 11
296.187631
 21
556.001067
  0
LINE
  8
0
  6
CONTINUOUS
 62
   134
 10
299.796907
 20
556.593287
 11
298.015989
 21
557.706091
  0
LINE
  8
0
  6
CONTINUOUS
 62
   134
 10
298.015989
 20
557.706091
 11
299.001908
 21
555.851916
  0
LINE
  8
0
  6
CONTINUOUS
 62
   134
 10
311.194498
 20
542.777359
 11
312.975415
 21
541.664555
  0
LINE
  8
0
  6
CONTINUOUS
 62
   134
 10
312.975415
 20
541.664555
 11
311.989497
 21
543.518731
  0
LINE
  8
0
  6
CONTINUOUS
 62
   134
 10
298.015989
 20
557.706091
 11
312.975415
 21
541.664555
  0
TEXT
  8
0
 62
   134
 10
300.770971
 20
556.218080
 40
10.000000
  1
21.9
 50
313.000865
 41
0.800000
  7
GOTHIC
 72
     1
 11
306.227046
 21
550.367332
  0
LINE
  8
0
  6
CONTINUOUS
 62
   134
 10
282.901208
 20
605.003653
 11
284.014156
 21
606.784481
  0
LINE
  8
0
  6
CONTINUOUS
 62
   134
 10
284.014156
 20
606.784481
 11
282.159901
 21
605.798713
  0
LINE
  8
0
  6
CONTINUOUS
 62
   134
 10
259.179223
 20
552.951554
 11
259.722743
 21
550.923110
  0
LINE
  8
0
  6
CONTINUOUS
 62
   134
 10
259.722743
 20
550.923110
 11
260.266263
 21
552.951554
  0
ARC
  8
0
  6
CONTINUOUS
 62
   134
 10
336.098816
 20
550.923110
 40
76.376073
 50
132.996208
 51
180.000000
  0
TEXT
  8
0
 62
   134
 10
262.748653
 20
576.276814
 40
10.000000
  1
47ß
 50
66.498104
 41
0.800000
  7
GOTHIC
 72
     1
 11
265.141330
 21
581.779095
  0
LINE
  8
0
  6
CONTINUOUS
 62
   134
 10
328.256941
 20
559.333607
 11
282.309281
 21
608.612978
  0
LINE
  8
0
  6
CONTINUOUS
 62
   134
 10
333.598816
 20
550.923110
 11
257.222743
 21
550.923110
  0
ENDSEC
  0
EOF
