  0
SECTION
  2
HEADER
  9
$ACADVER
  1
AC1009
  9
$DWGCODEPAGE
  3
dos932
  9
$EXTMIN
 10
0.000000
 20
0.000000
  9
$EXTMAX
 10
900.192000
 20
1625.395819
  9
$LIMMIN
 10
0.000000
 20
0.000000
  9
$LIMMAX
 10
900.192000
 20
1625.395819
  9
$LTSCALE
 40
1.000000
  0
ENDSEC
  0
SECTION
  2
TABLES
  0
TABLE
  2
VPORT
 70
     1
  0
VPORT
  2
*ACTIVE
 70
     0
 10
0.000000
 20
0.000000
 11
1.000000
 21
1.000000
 12
450.096000
 22
812.697909
 13
0.000000
 23
0.000000
 14
1.000000
 24
1.000000
 15
0.000000
 25
0.000000
 16
0.000000
 26
0.000000
 36
1.000000
 17
0.000000
 27
0.000000
 37
0.000000
 40
1625.395819
 41
0.553829
 42
50.000000
 43
0.000000
 44
0.000000
 50
0.000000
 51
0.000000
 71
     0
 72
   100
 73
     1
 74
     1
 75
     0
 76
     0
 77
     0
 78
     0
  0
ENDTAB
  0
TABLE
  2
LTYPE
 70
     5
  0
LTYPE
  2
CONTINUOUS
 70
    64
  3
CONTINUOUS
 72
    65
 73
     0
 40
0.000000
  0
LTYPE
  2
DASHED
 70
    64
  3
DASHED
 72
    65
 73
     2
 40
0.750000
 49
0.500000
 49
-0.250000
  0
LTYPE
  2
HIDDEN
 70
    64
  3
HIDDEN
 72
    65
 73
     2
 40
0.375000
 49
0.250000
 49
-0.125000
  0
LTYPE
  2
CENTER
 70
    64
  3
CENTER
 72
    65
 73
     4
 40
2.000000
 49
1.250000
 49
-0.250000
 49
0.250000
 49
-0.250000
  0
LTYPE
  2
PHANTOM
 70
    64
  3
PHANTOM
 72
    65
 73
     6
 40
2.500000
 49
1.250000
 49
-0.250000
 49
0.250000
 49
-0.250000
 49
0.250000
 49
-0.250000
  0
ENDTAB
  0
TABLE
  2
LAYER
 70
     1
  0
LAYER
  2
0
 70
     0
 62
     7
  6
CONTINUOUS
  0
ENDTAB
  0
TABLE
  2
STYLE
 70
     6
  0
STYLE
  2
STANDARD
 70
     0
 40
0.000000
 41
1.000000
 50
0.000000
 71
     0
 42
0.200000
  3
TXT
  4
BIGFONT
  0
STYLE
  2
TATEGAKI
 70
     4
 40
0.000000
 41
1.000000
 50
0.000000
 71
     0
 42
0.200000
  3
TXT
  4
BIGFONT
  0
STYLE
  2
MINCHO
 70
     0
 40
0.000000
 41
1.000000
 50
0.000000
 71
     0
 42
0.200000
  3
‚l‚r –¾’©
  4

  0
STYLE
  2
MINCHOV
 70
     0
 40
0.000000
 41
1.000000
 50
0.000000
 71
     0
 42
0.200000
  3
@‚l‚r –¾’©
  4

  0
STYLE
  2
GOTHIC
 70
     0
 40
0.000000
 41
1.000000
 50
0.000000
 71
     0
 42
0.200000
  3
‚l‚r ƒSƒVƒbƒN
  4

  0
STYLE
  2
GOTHICV
 70
     0
 40
0.000000
 41
1.000000
 50
0.000000
 71
     0
 42
0.200000
  3
@‚l‚r ƒSƒVƒbƒN
  4

  0
ENDTAB
  0
ENDSEC
  0
SECTION
  2
BLOCKS
  0
ENDSEC
  0
SECTION
  2
ENTITIES
  0
LINE
  8
0
  6
CONTINUOUS
 62
     2
 10
760.192000
 20
1111.173416
 11
705.692000
 21
1111.173416
  0
LINE
  8
0
  6
CONTINUOUS
 62
     2
 10
820.192000
 20
1021.173416
 11
760.192000
 21
1021.173416
  0
LINE
  8
0
  6
CONTINUOUS
 62
     2
 10
820.192000
 20
1021.173416
 11
820.192000
 21
971.173416
  0
LINE
  8
0
  6
CONTINUOUS
 62
     2
 10
760.192000
 20
1111.173416
 11
760.192000
 21
1021.173416
  0
LINE
  8
0
  6
CONTINUOUS
 62
     2
 10
900.192000
 20
146.173416
 11
900.192000
 21
971.173416
  0
LINE
  8
0
  6
CONTINUOUS
 62
     2
 10
820.192000
 20
971.173416
 11
900.192000
 21
971.173416
  0
LINE
  8
0
  6
CONTINUOUS
 62
     2
 10
625.192000
 20
1111.173416
 11
680.692000
 21
1111.173416
  0
LINE
  8
0
  6
CONTINUOUS
 62
     2
 10
565.192000
 20
1021.173416
 11
625.192000
 21
1021.173416
  0
LINE
  8
0
  6
CONTINUOUS
 62
     2
 10
565.192000
 20
1021.173416
 11
565.192000
 21
971.173416
  0
LINE
  8
0
  6
CONTINUOUS
 62
     2
 10
625.192000
 20
1111.173416
 11
625.192000
 21
1021.173416
  0
LINE
  8
0
  6
CONTINUOUS
 62
     2
 10
485.192000
 20
146.173416
 11
485.192000
 21
971.173416
  0
LINE
  8
0
  6
CONTINUOUS
 62
     2
 10
565.192000
 20
971.173416
 11
485.192000
 21
971.173416
  0
LINE
  8
0
  6
CONTINUOUS
 62
     3
 10
663.192000
 20
1096.173416
 11
723.192000
 21
1096.173416
  0
LINE
  8
0
  6
CONTINUOUS
 62
     3
 10
723.192000
 20
1096.173416
 11
723.192000
 21
1111.173416
  0
LINE
  8
0
  6
CONTINUOUS
 62
     3
 10
723.192000
 20
1111.173416
 11
705.692000
 21
1111.173416
  0
LINE
  8
0
  6
CONTINUOUS
 62
     3
 10
705.692000
 20
1111.173416
 11
705.692000
 21
1157.673416
  0
LINE
  8
0
  6
CONTINUOUS
 62
     3
 10
705.692000
 20
1157.673416
 11
700.192000
 21
1157.673416
  0
LINE
  8
0
  6
CONTINUOUS
 62
     3
 10
700.192000
 20
1157.673416
 11
700.192000
 21
1147.673416
  0
LINE
  8
0
  6
CONTINUOUS
 62
     3
 10
700.192000
 20
1147.673416
 11
686.192000
 21
1147.673416
  0
LINE
  8
0
  6
CONTINUOUS
 62
     3
 10
686.192000
 20
1147.673416
 11
686.192000
 21
1157.673416
  0
LINE
  8
0
  6
CONTINUOUS
 62
     3
 10
686.192000
 20
1157.673416
 11
678.692000
 21
1157.673416
  0
LINE
  8
0
  6
CONTINUOUS
 62
     3
 10
678.692000
 20
1157.673416
 11
678.692000
 21
1145.173416
  0
LINE
  8
0
  6
CONTINUOUS
 62
     3
 10
678.692000
 20
1145.173416
 11
674.692000
 21
1145.173416
  0
LINE
  8
0
  6
CONTINUOUS
 62
     3
 10
674.692000
 20
1145.173416
 11
674.692000
 21
1135.173416
  0
LINE
  8
0
  6
CONTINUOUS
 62
     3
 10
674.692000
 20
1135.173416
 11
678.692000
 21
1135.173416
  0
LINE
  8
0
  6
CONTINUOUS
 62
     3
 10
678.692000
 20
1135.173416
 11
678.692000
 21
1130.173416
  0
LINE
  8
0
  6
CONTINUOUS
 62
     3
 10
678.692000
 20
1130.173416
 11
680.692000
 21
1130.173416
  0
LINE
  8
0
  6
CONTINUOUS
 62
     3
 10
680.692000
 20
1130.173416
 11
680.692000
 21
1111.173416
  0
LINE
  8
0
  6
CONTINUOUS
 62
     3
 10
680.692000
 20
1111.173416
 11
663.192000
 21
1111.173416
  0
LINE
  8
0
  6
CONTINUOUS
 62
     3
 10
663.192000
 20
1111.173416
 11
663.192000
 21
1096.173416
  0
LINE
  8
0
  6
CONTINUOUS
 62
     2
 10
686.192000
 20
1147.673416
 11
700.192000
 21
1147.673416
  0
LINE
  8
0
  6
CONTINUOUS
 62
     2
 10
700.192000
 20
1147.673416
 11
700.192000
 21
1162.673416
  0
LINE
  8
0
  6
CONTINUOUS
 62
     2
 10
700.192000
 20
1162.673416
 11
701.192000
 21
1162.673416
  0
LINE
  8
0
  6
CONTINUOUS
 62
     2
 10
701.192000
 20
1162.673416
 11
701.192000
 21
1207.672416
  0
LINE
  8
0
  6
CONTINUOUS
 62
     2
 10
701.192000
 20
1207.672416
 11
699.192000
 21
1207.672416
  0
LINE
  8
0
  6
CONTINUOUS
 62
     2
 10
699.192000
 20
1207.672416
 11
693.192000
 21
1201.238416
  0
LINE
  8
0
  6
CONTINUOUS
 62
     2
 10
693.192000
 20
1201.238416
 11
687.192000
 21
1207.672416
  0
LINE
  8
0
  6
CONTINUOUS
 62
     2
 10
687.192000
 20
1207.672416
 11
685.192000
 21
1207.672416
  0
LINE
  8
0
  6
CONTINUOUS
 62
     2
 10
685.192000
 20
1207.672416
 11
685.192000
 21
1162.673416
  0
LINE
  8
0
  6
CONTINUOUS
 62
     2
 10
685.192000
 20
1162.673416
 11
686.192000
 21
1162.673416
  0
LINE
  8
0
  6
CONTINUOUS
 62
     2
 10
686.192000
 20
1162.673416
 11
686.192000
 21
1147.673416
  0
LINE
  8
0
  6
CONTINUOUS
 62
     4
 10
689.135112
 20
1215.474962
 11
693.192000
 21
1216.562002
  0
LINE
  8
0
  6
CONTINUOUS
 62
     4
 10
693.192000
 20
1216.562002
 11
689.135112
 21
1217.649042
  0
LINE
  8
0
  6
CONTINUOUS
 62
     4
 10
689.248889
 20
1217.649042
 11
685.192000
 21
1216.562002
  0
LINE
  8
0
  6
CONTINUOUS
 62
     4
 10
685.192000
 20
1216.562002
 11
689.248889
 21
1215.474962
  0
LINE
  8
0
  6
CONTINUOUS
 62
     4
 10
693.192000
 20
1216.562002
 11
685.192000
 21
1216.562002
  0
TEXT
  8
0
 62
     4
 10
686.792000
 20
1217.762002
 40
12.000000
  1
8
 41
0.800000
  7
GOTHIC
 72
     1
 11
689.192000
 21
1217.762002
  0
LINE
  8
0
  6
CONTINUOUS
 62
     4
 10
693.192000
 20
1204.238416
 11
693.192000
 21
1219.562002
  0
LINE
  8
0
  6
CONTINUOUS
 62
     4
 10
685.192000
 20
1210.672416
 11
685.192000
 21
1219.562002
  0
LINE
  8
0
  6
CONTINUOUS
 62
     4
 10
689.135112
 20
1231.161564
 11
693.192000
 21
1232.248604
  0
LINE
  8
0
  6
CONTINUOUS
 62
     4
 10
693.192000
 20
1232.248604
 11
689.135112
 21
1233.335644
  0
LINE
  8
0
  6
CONTINUOUS
 62
     4
 10
682.748889
 20
1233.335644
 11
678.692000
 21
1232.248604
  0
LINE
  8
0
  6
CONTINUOUS
 62
     4
 10
678.692000
 20
1232.248604
 11
682.748889
 21
1231.161564
  0
LINE
  8
0
  6
CONTINUOUS
 62
     4
 10
693.192000
 20
1232.248604
 11
678.692000
 21
1232.248604
  0
TEXT
  8
0
 62
     4
 10
676.342000
 20
1233.448604
 40
12.000000
  1
14.5
 41
0.800000
  7
GOTHIC
 72
     1
 11
685.942000
 21
1233.448604
  0
LINE
  8
0
  6
CONTINUOUS
 62
     4
 10
693.192000
 20
1219.562002
 11
693.192000
 21
1235.248604
  0
LINE
  8
0
  6
CONTINUOUS
 62
     4
 10
678.692000
 20
1160.673416
 11
678.692000
 21
1235.248604
  0
LINE
  8
0
  6
CONTINUOUS
 62
     4
 10
689.135112
 20
1253.893219
 11
693.192000
 21
1254.980259
  0
LINE
  8
0
  6
CONTINUOUS
 62
     4
 10
693.192000
 20
1254.980259
 11
689.135112
 21
1256.067299
  0
LINE
  8
0
  6
CONTINUOUS
 62
     4
 10
678.748889
 20
1256.067299
 11
674.692000
 21
1254.980259
  0
LINE
  8
0
  6
CONTINUOUS
 62
     4
 10
674.692000
 20
1254.980259
 11
678.748889
 21
1253.893219
  0
LINE
  8
0
  6
CONTINUOUS
 62
     4
 10
693.192000
 20
1254.980259
 11
674.692000
 21
1254.980259
  0
TEXT
  8
0
 62
     4
 10
674.342000
 20
1256.180259
 40
12.000000
  1
18.5
 41
0.800000
  7
GOTHIC
 72
     1
 11
683.942000
 21
1256.180259
  0
LINE
  8
0
  6
CONTINUOUS
 62
     4
 10
693.192000
 20
1235.248604
 11
693.192000
 21
1257.980259
  0
LINE
  8
0
  6
CONTINUOUS
 62
     4
 10
674.692000
 20
1148.173416
 11
674.692000
 21
1257.980259
  0
LINE
  8
0
  6
CONTINUOUS
 62
     4
 10
653.983051
 20
1203.615528
 11
652.896011
 21
1207.672416
  0
LINE
  8
0
  6
CONTINUOUS
 62
     4
 10
652.896011
 20
1207.672416
 11
651.808971
 21
1203.615528
  0
LINE
  8
0
  6
CONTINUOUS
 62
     4
 10
651.808971
 20
1161.730305
 11
652.896011
 21
1157.673416
  0
LINE
  8
0
  6
CONTINUOUS
 62
     4
 10
652.896011
 20
1157.673416
 11
653.983051
 21
1161.730305
  0
LINE
  8
0
  6
CONTINUOUS
 62
     4
 10
652.896011
 20
1207.672416
 11
652.896011
 21
1157.673416
  0
TEXT
  8
0
 62
     4
 10
651.696011
 20
1177.872916
 40
12.000000
  1
50
 50
90.000000
 41
0.800000
  7
GOTHIC
 72
     1
 11
651.696011
 21
1182.672916
  0
LINE
  8
0
  6
CONTINUOUS
 62
     4
 10
682.192000
 20
1207.672416
 11
649.896011
 21
1207.672416
  0
LINE
  8
0
  6
CONTINUOUS
 62
     4
 10
675.692000
 20
1157.673416
 11
649.896011
 21
1157.673416
  0
LINE
  8
0
  6
CONTINUOUS
 62
     4
 10
689.135112
 20
1278.789477
 11
693.192000
 21
1279.876517
  0
LINE
  8
0
  6
CONTINUOUS
 62
     4
 10
693.192000
 20
1279.876517
 11
689.135112
 21
1280.963557
  0
LINE
  8
0
  6
CONTINUOUS
 62
     4
 10
629.248889
 20
1280.963557
 11
625.192000
 21
1279.876517
  0
LINE
  8
0
  6
CONTINUOUS
 62
     4
 10
625.192000
 20
1279.876517
 11
629.248889
 21
1278.789477
  0
LINE
  8
0
  6
CONTINUOUS
 62
     4
 10
693.192000
 20
1279.876517
 11
625.192000
 21
1279.876517
  0
TEXT
  8
0
 62
     4
 10
654.392000
 20
1281.076517
 40
12.000000
  1
68
 41
0.800000
  7
GOTHIC
 72
     1
 11
659.192000
 21
1281.076517
  0
LINE
  8
0
  6
CONTINUOUS
 62
     4
 10
693.192000
 20
1219.562002
 11
693.192000
 21
1282.876517
  0
LINE
  8
0
  6
CONTINUOUS
 62
     4
 10
625.192000
 20
1114.173416
 11
625.192000
 21
1282.876517
  0
LINE
  8
0
  6
CONTINUOUS
 62
     4
 10
689.135112
 20
1304.975117
 11
693.192000
 21
1306.062157
  0
LINE
  8
0
  6
CONTINUOUS
 62
     4
 10
693.192000
 20
1306.062157
 11
689.135112
 21
1307.149197
  0
LINE
  8
0
  6
CONTINUOUS
 62
     4
 10
569.248889
 20
1307.149197
 11
565.192000
 21
1306.062157
  0
LINE
  8
0
  6
CONTINUOUS
 62
     4
 10
565.192000
 20
1306.062157
 11
569.248889
 21
1304.975117
  0
LINE
  8
0
  6
CONTINUOUS
 62
     4
 10
693.192000
 20
1306.062157
 11
565.192000
 21
1306.062157
  0
TEXT
  8
0
 62
     4
 10
621.992000
 20
1307.262157
 40
12.000000
  1
128
 41
0.800000
  7
GOTHIC
 72
     1
 11
629.192000
 21
1307.262157
  0
LINE
  8
0
  6
CONTINUOUS
 62
     4
 10
693.192000
 20
1282.876517
 11
693.192000
 21
1309.062157
  0
LINE
  8
0
  6
CONTINUOUS
 62
     4
 10
565.192000
 20
1024.173416
 11
565.192000
 21
1309.062157
  0
LINE
  8
0
  6
CONTINUOUS
 62
     4
 10
689.135112
 20
1333.967189
 11
693.192000
 21
1335.054229
  0
LINE
  8
0
  6
CONTINUOUS
 62
     4
 10
693.192000
 20
1335.054229
 11
689.135112
 21
1336.141269
  0
LINE
  8
0
  6
CONTINUOUS
 62
     4
 10
489.248889
 20
1336.141269
 11
485.192000
 21
1335.054229
  0
LINE
  8
0
  6
CONTINUOUS
 62
     4
 10
485.192000
 20
1335.054229
 11
489.248889
 21
1333.967189
  0
LINE
  8
0
  6
CONTINUOUS
 62
     4
 10
693.192000
 20
1335.054229
 11
485.192000
 21
1335.054229
  0
TEXT
  8
0
 62
     4
 10
581.992000
 20
1336.254229
 40
12.000000
  1
208
 41
0.800000
  7
GOTHIC
 72
     1
 11
589.192000
 21
1336.254229
  0
LINE
  8
0
  6
CONTINUOUS
 62
     4
 10
693.192000
 20
1309.062157
 11
693.192000
 21
1338.054229
  0
LINE
  8
0
  6
CONTINUOUS
 62
     4
 10
485.192000
 20
974.173416
 11
485.192000
 21
1338.054229
  0
TEXT
  8
0
 62
     7
 10
730.906598
 20
1183.975401
 40
51.402177
  1
V12
 41
0.800000
  7
GOTHIC
 11
730.906598
 21
1235.377579
 73
     3
  0
LINE
  8
0
  6
CONTINUOUS
 62
     4
 10
600.643519
 20
1203.615528
 11
599.556479
 21
1207.672416
  0
LINE
  8
0
  6
CONTINUOUS
 62
     4
 10
599.556479
 20
1207.672416
 11
598.469439
 21
1203.615528
  0
LINE
  8
0
  6
CONTINUOUS
 62
     4
 10
598.469439
 20
1115.230305
 11
599.556479
 21
1111.173416
  0
LINE
  8
0
  6
CONTINUOUS
 62
     4
 10
599.556479
 20
1111.173416
 11
600.643519
 21
1115.230305
  0
LINE
  8
0
  6
CONTINUOUS
 62
     4
 10
599.556479
 20
1207.672416
 11
599.556479
 21
1111.173416
  0
TEXT
  8
0
 62
     4
 10
598.356479
 20
1149.822916
 40
12.000000
  1
96.5
 50
90.000000
 41
0.800000
  7
GOTHIC
 72
     1
 11
598.356479
 21
1159.422916
  0
LINE
  8
0
  6
CONTINUOUS
 62
     4
 10
649.896011
 20
1207.672416
 11
596.556479
 21
1207.672416
  0
LINE
  8
0
  6
CONTINUOUS
 62
     4
 10
622.192000
 20
1111.173416
 11
596.556479
 21
1111.173416
  0
LINE
  8
0
  6
CONTINUOUS
 62
     4
 10
529.392602
 20
1203.615528
 11
528.305562
 21
1207.672416
  0
LINE
  8
0
  6
CONTINUOUS
 62
     4
 10
528.305562
 20
1207.672416
 11
527.218522
 21
1203.615528
  0
LINE
  8
0
  6
CONTINUOUS
 62
     4
 10
527.218522
 20
1025.230305
 11
528.305562
 21
1021.173416
  0
LINE
  8
0
  6
CONTINUOUS
 62
     4
 10
528.305562
 20
1021.173416
 11
529.392602
 21
1025.230305
  0
LINE
  8
0
  6
CONTINUOUS
 62
     4
 10
528.305562
 20
1207.672416
 11
528.305562
 21
1021.173416
  0
TEXT
  8
0
 62
     4
 10
527.105562
 20
1102.422916
 40
12.000000
  1
186.5
 50
90.000000
 41
0.800000
  7
GOTHIC
 72
     1
 11
527.105562
 21
1114.422916
  0
LINE
  8
0
  6
CONTINUOUS
 62
     4
 10
596.556479
 20
1207.672416
 11
525.305562
 21
1207.672416
  0
LINE
  8
0
  6
CONTINUOUS
 62
     4
 10
562.192000
 20
1021.173416
 11
525.305562
 21
1021.173416
  0
LINE
  8
0
  6
CONTINUOUS
 62
     4
 10
434.205829
 20
1203.615528
 11
433.118789
 21
1207.672416
  0
LINE
  8
0
  6
CONTINUOUS
 62
     4
 10
433.118789
 20
1207.672416
 11
432.031749
 21
1203.615528
  0
LINE
  8
0
  6
CONTINUOUS
 62
     4
 10
432.031749
 20
975.230305
 11
433.118789
 21
971.173416
  0
LINE
  8
0
  6
CONTINUOUS
 62
     4
 10
433.118789
 20
971.173416
 11
434.205829
 21
975.230305
  0
LINE
  8
0
  6
CONTINUOUS
 62
     4
 10
433.118789
 20
1207.672416
 11
433.118789
 21
971.173416
  0
TEXT
  8
0
 62
     4
 10
431.918789
 20
1077.422916
 40
12.000000
  1
236.5
 50
90.000000
 41
0.800000
  7
GOTHIC
 72
     1
 11
431.918789
 21
1089.422916
  0
LINE
  8
0
  6
CONTINUOUS
 62
     4
 10
525.305562
 20
1207.672416
 11
430.118789
 21
1207.672416
  0
LINE
  8
0
  6
CONTINUOUS
 62
     4
 10
482.192000
 20
971.173416
 11
430.118789
 21
971.173416
  0
LINE
  8
0
  6
CONTINUOUS
 62
     2
 10
900.192000
 20
146.173416
 11
485.192000
 21
146.173416
  0
LINE
  8
0
  6
CONTINUOUS
 62
     1
 10
294.440682
 20
163.077118
 11
298.970015
 21
146.173416
  0
LINE
  8
0
  6
CONTINUOUS
 62
     1
 10
298.970015
 20
146.173416
 11
303.499348
 21
163.077118
  0
LINE
  8
0
  6
CONTINUOUS
 62
     1
 10
303.499348
 20
954.269714
 11
298.970015
 21
971.173416
  0
LINE
  8
0
  6
CONTINUOUS
 62
     1
 10
298.970015
 20
971.173416
 11
294.440682
 21
954.269714
  0
LINE
  8
0
  6
CONTINUOUS
 62
     1
 10
298.970015
 20
146.173416
 11
298.970015
 21
971.173416
  0
TEXT
  8
0
 62
     1
 10
293.970015
 20
528.673416
 40
50.000000
  1
825
 50
90.000000
 41
0.800000
  7
GOTHIC
 72
     1
 11
293.970015
 21
558.673416
  0
LINE
  8
0
  6
CONTINUOUS
 62
     1
 10
472.692000
 20
146.173416
 11
286.470015
 21
146.173416
  0
LINE
  8
0
  6
CONTINUOUS
 62
     1
 10
472.692000
 20
971.173416
 11
286.470015
 21
971.173416
  0
TEXT
  8
0
 62
     7
 10
418.718794
 20
0.000000
 40
130.000000
  1
’n–Ê
 41
0.800000
  7
GOTHIC
 11
418.718794
 21
130.000000
 73
     3
  0
LINE
  8
0
  6
CONTINUOUS
 62
   134
 10
129.058667
 20
1173.865012
 11
120.000000
 21
1207.672416
  0
LINE
  8
0
  6
CONTINUOUS
 62
   134
 10
120.000000
 20
1207.672416
 11
110.941333
 21
1173.865012
  0
LINE
  8
0
  6
CONTINUOUS
 62
   134
 10
110.941333
 20
179.980820
 11
120.000000
 21
146.173416
  0
LINE
  8
0
  6
CONTINUOUS
 62
   134
 10
120.000000
 20
146.173416
 11
129.058667
 21
179.980820
  0
LINE
  8
0
  6
CONTINUOUS
 62
   134
 10
120.000000
 20
1207.672416
 11
120.000000
 21
146.173416
  0
TEXT
  8
0
 62
   134
 10
110.000000
 20
556.922916
 40
100.000000
  1
1061.5
 50
90.000000
 41
0.800000
  7
GOTHIC
 72
     1
 11
110.000000
 21
676.922916
  0
LINE
  8
0
  6
CONTINUOUS
 62
   134
 10
627.896011
 20
1207.672416
 11
95.000000
 21
1207.672416
  0
LINE
  8
0
  6
CONTINUOUS
 62
   134
 10
460.192000
 20
146.173416
 11
95.000000
 21
146.173416
  0
LINE
  8
0
  6
CONTINUOUS
 62
     3
 10
692.692000
 20
1377.673416
 11
698.839000
 21
1384.265416
  0
LINE
  8
0
  6
CONTINUOUS
 62
     3
 10
698.839000
 20
1384.265416
 11
694.958000
 21
1389.410416
  0
LINE
  8
0
  6
CONTINUOUS
 62
     3
 10
694.958000
 20
1389.410416
 11
692.523000
 21
1395.375416
  0
LINE
  8
0
  6
CONTINUOUS
 62
     3
 10
692.523000
 20
1395.375416
 11
691.692000
 21
1401.766416
  0
LINE
  8
0
  6
CONTINUOUS
 62
     3
 10
691.692000
 20
1401.766416
 11
691.692000
 21
1468.766416
  0
LINE
  8
0
  6
CONTINUOUS
 62
     3
 10
691.692000
 20
1468.766416
 11
692.627000
 21
1475.539416
  0
LINE
  8
0
  6
CONTINUOUS
 62
     3
 10
692.627000
 20
1475.539416
 11
695.361000
 21
1481.805416
  0
LINE
  8
0
  6
CONTINUOUS
 62
     3
 10
695.361000
 20
1481.805416
 11
699.692000
 21
1487.096416
  0
LINE
  8
0
  6
CONTINUOUS
 62
     3
 10
699.692000
 20
1487.096416
 11
699.692000
 21
1497.766416
  0
LINE
  8
0
  6
CONTINUOUS
 62
     3
 10
699.692000
 20
1497.766416
 11
685.692000
 21
1497.766416
  0
LINE
  8
0
  6
CONTINUOUS
 62
     3
 10
685.692000
 20
1497.766416
 11
685.692000
 21
1527.766416
  0
LINE
  8
0
  6
CONTINUOUS
 62
     3
 10
685.692000
 20
1527.766416
 11
675.306000
 21
1527.766416
  0
LINE
  8
0
  6
CONTINUOUS
 62
     3
 10
675.306000
 20
1527.766416
 11
672.534000
 21
1510.266416
  0
LINE
  8
0
  6
CONTINUOUS
 62
     3
 10
672.534000
 20
1510.266416
 11
675.692000
 21
1510.266416
  0
LINE
  8
0
  6
CONTINUOUS
 62
     3
 10
675.692000
 20
1510.266416
 11
675.692000
 21
1502.266416
  0
LINE
  8
0
  6
CONTINUOUS
 62
     3
 10
675.692000
 20
1502.266416
 11
672.692000
 21
1502.266416
  0
LINE
  8
0
  6
CONTINUOUS
 62
     3
 10
672.692000
 20
1502.266416
 11
672.692000
 21
1401.319416
  0
LINE
  8
0
  6
CONTINUOUS
 62
     3
 10
672.692000
 20
1401.319416
 11
687.652000
 21
1385.278416
  0
LINE
  8
0
  6
CONTINUOUS
 62
     3
 10
687.652000
 20
1385.278416
 11
686.555000
 21
1384.255416
  0
LINE
  8
0
  6
CONTINUOUS
 62
     3
 10
686.555000
 20
1384.255416
 11
692.692000
 21
1377.673416
  0
LINE
  8
0
  6
CONTINUOUS
 62
     2
 10
718.708781
 20
1569.980396
 11
718.708781
 21
1522.485053
  0
LINE
  8
0
  6
CONTINUOUS
 62
     2
 10
718.708781
 20
1522.485053
 11
714.487757
 21
1506.524024
  0
LINE
  8
0
  6
CONTINUOUS
 62
     2
 10
706.145858
 20
1506.524024
 11
706.145858
 21
1527.766416
  0
LINE
  8
0
  6
CONTINUOUS
 62
     2
 10
706.145858
 20
1527.766416
 11
695.513357
 21
1527.766416
  0
LINE
  8
0
  6
CONTINUOUS
 62
     2
 10
695.513357
 20
1527.766416
 11
695.513357
 21
1502.654834
  0
LINE
  8
0
  6
CONTINUOUS
 62
     2
 10
695.513357
 20
1502.654834
 11
685.692000
 21
1502.654834
  0
LINE
  8
0
  6
CONTINUOUS
 62
     2
 10
685.692000
 20
1502.654834
 11
685.692000
 21
1527.766416
  0
LINE
  8
0
  6
CONTINUOUS
 62
     2
 10
685.692000
 20
1527.766416
 11
672.691069
 21
1527.766416
  0
LINE
  8
0
  6
CONTINUOUS
 62
     2
 10
672.691069
 20
1527.766416
 11
672.691069
 21
1507.106240
  0
LINE
  8
0
  6
CONTINUOUS
 62
     2
 10
672.691069
 20
1507.106240
 11
665.696002
 21
1507.106240
  0
LINE
  8
0
  6
CONTINUOUS
 62
     2
 10
665.696002
 20
1507.106240
 11
660.326052
 21
1520.672430
  0
LINE
  8
0
  6
CONTINUOUS
 62
     2
 10
660.326052
 20
1520.672430
 11
660.326052
 21
1550.009315
  0
LINE
  8
0
  6
CONTINUOUS
 62
     2
 10
660.326052
 20
1550.009315
 11
651.137078
 21
1550.009315
  0
LINE
  8
0
  6
CONTINUOUS
 62
     2
 10
651.137078
 20
1550.009315
 11
651.137078
 21
1575.166825
  0
LINE
  8
0
  6
CONTINUOUS
 62
     2
 10
651.137078
 20
1575.166825
 11
640.411309
 21
1582.345600
  0
LINE
  8
0
  6
CONTINUOUS
 62
     2
 10
640.411309
 20
1582.345600
 11
640.411309
 21
1597.890193
  0
LINE
  8
0
  6
CONTINUOUS
 62
     2
 10
640.411309
 20
1597.890193
 11
644.390725
 21
1597.890193
  0
LINE
  8
0
  6
CONTINUOUS
 62
     2
 10
644.390725
 20
1597.890193
 11
644.390725
 21
1595.730907
  0
LINE
  8
0
  6
CONTINUOUS
 62
     2
 10
644.390725
 20
1595.730907
 11
653.491377
 21
1590.078328
  0
LINE
  8
0
  6
CONTINUOUS
 62
     2
 10
653.491377
 20
1590.078328
 11
657.787337
 21
1582.707365
  0
LINE
  8
0
  6
CONTINUOUS
 62
     2
 10
657.787337
 20
1582.707365
 11
663.394696
 21
1582.707365
  0
LINE
  8
0
  6
CONTINUOUS
 62
     2
 10
663.394696
 20
1582.707365
 11
663.394696
 21
1625.395819
  0
LINE
  8
0
  6
CONTINUOUS
 62
     2
 10
663.394696
 20
1625.395819
 11
672.501001
 21
1625.395819
  0
LINE
  8
0
  6
CONTINUOUS
 62
     2
 10
672.501001
 20
1625.395819
 11
672.501001
 21
1599.323298
  0
LINE
  8
0
  6
CONTINUOUS
 62
     2
 10
672.501001
 20
1599.323298
 11
705.311352
 21
1599.323298
  0
LINE
  8
0
  6
CONTINUOUS
 62
     2
 10
705.311352
 20
1599.323298
 11
705.311352
 21
1569.980396
  0
LINE
  8
0
  6
CONTINUOUS
 62
     2
 10
705.311352
 20
1569.980396
 11
718.708781
 21
1569.980396
  0
LINE
  8
0
  6
CONTINUOUS
 62
     2
 10
706.145858
 20
1506.524024
 11
714.487757
 21
1506.524024
  0
LINE
  8
0
  6
CONTINUOUS
 62
     1
 10
842.749001
 20
1214.433897
 11
844.560734
 21
1207.672416
  0
LINE
  8
0
  6
CONTINUOUS
 62
     1
 10
844.560734
 20
1207.672416
 11
846.372467
 21
1214.433897
  0
LINE
  8
0
  6
CONTINUOUS
 62
     1
 10
846.372467
 20
1370.911936
 11
844.560734
 21
1377.673416
  0
LINE
  8
0
  6
CONTINUOUS
 62
     1
 10
844.560734
 20
1377.673416
 11
842.749001
 21
1370.911936
  0
LINE
  8
0
  6
CONTINUOUS
 62
     1
 10
844.560734
 20
1207.672416
 11
844.560734
 21
1377.673416
  0
TEXT
  8
0
 62
     1
 10
842.560734
 20
1280.672916
 40
20.000000
  1
170
 50
90.000000
 41
0.800000
  7
GOTHIC
 72
     1
 11
842.560734
 21
1292.672916
  0
LINE
  8
0
  6
CONTINUOUS
 62
     1
 10
706.192000
 20
1207.672416
 11
849.560734
 21
1207.672416
  0
LINE
  8
0
  6
CONTINUOUS
 62
     1
 10
697.692000
 20
1377.673416
 11
849.560734
 21
1377.673416
  0
ENDSEC
  0
EOF
