  0
SECTION
  2
HEADER
  9
$ACADVER
  1
AC1009
  9
$DWGCODEPAGE
  3
dos932
  9
$EXTMIN
 10
0.000000
 20
0.000000
  9
$EXTMAX
 10
311.679312
 20
1479.197661
  9
$LIMMIN
 10
0.000000
 20
0.000000
  9
$LIMMAX
 10
311.679312
 20
1479.197661
  9
$LTSCALE
 40
1.000000
  0
ENDSEC
  0
SECTION
  2
TABLES
  0
TABLE
  2
VPORT
 70
     1
  0
VPORT
  2
*ACTIVE
 70
     0
 10
0.000000
 20
0.000000
 11
1.000000
 21
1.000000
 12
155.839656
 22
739.598831
 13
0.000000
 23
0.000000
 14
1.000000
 24
1.000000
 15
0.000000
 25
0.000000
 16
0.000000
 26
0.000000
 36
1.000000
 17
0.000000
 27
0.000000
 37
0.000000
 40
1479.197661
 41
0.210708
 42
50.000000
 43
0.000000
 44
0.000000
 50
0.000000
 51
0.000000
 71
     0
 72
   100
 73
     1
 74
     1
 75
     0
 76
     0
 77
     0
 78
     0
  0
ENDTAB
  0
TABLE
  2
LTYPE
 70
     5
  0
LTYPE
  2
CONTINUOUS
 70
    64
  3
CONTINUOUS
 72
    65
 73
     0
 40
0.000000
  0
LTYPE
  2
DASHED
 70
    64
  3
DASHED
 72
    65
 73
     2
 40
0.750000
 49
0.500000
 49
-0.250000
  0
LTYPE
  2
HIDDEN
 70
    64
  3
HIDDEN
 72
    65
 73
     2
 40
0.375000
 49
0.250000
 49
-0.125000
  0
LTYPE
  2
CENTER
 70
    64
  3
CENTER
 72
    65
 73
     4
 40
2.000000
 49
1.250000
 49
-0.250000
 49
0.250000
 49
-0.250000
  0
LTYPE
  2
PHANTOM
 70
    64
  3
PHANTOM
 72
    65
 73
     6
 40
2.500000
 49
1.250000
 49
-0.250000
 49
0.250000
 49
-0.250000
 49
0.250000
 49
-0.250000
  0
ENDTAB
  0
TABLE
  2
LAYER
 70
     1
  0
LAYER
  2
0
 70
     0
 62
     7
  6
CONTINUOUS
  0
ENDTAB
  0
TABLE
  2
STYLE
 70
     6
  0
STYLE
  2
STANDARD
 70
     0
 40
0.000000
 41
1.000000
 50
0.000000
 71
     0
 42
0.200000
  3
TXT
  4
BIGFONT
  0
STYLE
  2
TATEGAKI
 70
     4
 40
0.000000
 41
1.000000
 50
0.000000
 71
     0
 42
0.200000
  3
TXT
  4
BIGFONT
  0
STYLE
  2
MINCHO
 70
     0
 40
0.000000
 41
1.000000
 50
0.000000
 71
     0
 42
0.200000
  3
‚l‚r –¾’©
  4

  0
STYLE
  2
MINCHOV
 70
     0
 40
0.000000
 41
1.000000
 50
0.000000
 71
     0
 42
0.200000
  3
@‚l‚r –¾’©
  4

  0
STYLE
  2
GOTHIC
 70
     0
 40
0.000000
 41
1.000000
 50
0.000000
 71
     0
 42
0.200000
  3
‚l‚r ƒSƒVƒbƒN
  4

  0
STYLE
  2
GOTHICV
 70
     0
 40
0.000000
 41
1.000000
 50
0.000000
 71
     0
 42
0.200000
  3
@‚l‚r ƒSƒVƒbƒN
  4

  0
ENDTAB
  0
ENDSEC
  0
SECTION
  2
BLOCKS
  0
ENDSEC
  0
SECTION
  2
ENTITIES
  0
LINE
  8
0
  6
CONTINUOUS
 62
     2
 10
157.679312
 20
1139.227992
 11
217.679312
 21
1139.227992
  0
LINE
  8
0
  6
CONTINUOUS
 62
     2
 10
217.679312
 20
1139.227992
 11
217.679312
 21
1159.207992
  0
LINE
  8
0
  6
CONTINUOUS
 62
     2
 10
217.679312
 20
1159.207992
 11
227.689312
 21
1159.207992
  0
LINE
  8
0
  6
CONTINUOUS
 62
     2
 10
227.689312
 20
1159.207992
 11
227.689312
 21
1214.227992
  0
LINE
  8
0
  6
CONTINUOUS
 62
     2
 10
227.689312
 20
1214.227992
 11
221.389312
 21
1214.227992
  0
LINE
  8
0
  6
CONTINUOUS
 62
     2
 10
221.389312
 20
1214.227992
 11
220.338312
 21
1214.127992
  0
LINE
  8
0
  6
CONTINUOUS
 62
     2
 10
220.338312
 20
1214.127992
 11
219.379312
 21
1213.797992
  0
LINE
  8
0
  6
CONTINUOUS
 62
     2
 10
219.379312
 20
1213.797992
 11
218.469312
 21
1213.287992
  0
LINE
  8
0
  6
CONTINUOUS
 62
     2
 10
218.469312
 20
1213.287992
 11
217.699312
 21
1212.597992
  0
LINE
  8
0
  6
CONTINUOUS
 62
     2
 10
217.699312
 20
1212.597992
 11
214.199312
 21
1208.767992
  0
LINE
  8
0
  6
CONTINUOUS
 62
     2
 10
214.199312
 20
1208.767992
 11
214.199312
 21
1207.297992
  0
LINE
  8
0
  6
CONTINUOUS
 62
     2
 10
214.199312
 20
1207.297992
 11
192.099312
 21
1183.187992
  0
LINE
  8
0
  6
CONTINUOUS
 62
     2
 10
192.099312
 20
1183.187992
 11
190.089312
 21
1181.767992
  0
LINE
  8
0
  6
CONTINUOUS
 62
     2
 10
190.089312
 20
1181.767992
 11
187.679312
 21
1181.257992
  0
LINE
  8
0
  6
CONTINUOUS
 62
     2
 10
187.679312
 20
1181.257992
 11
185.269312
 21
1181.767992
  0
LINE
  8
0
  6
CONTINUOUS
 62
     2
 10
185.269312
 20
1181.767992
 11
183.259312
 21
1183.187992
  0
LINE
  8
0
  6
CONTINUOUS
 62
     2
 10
183.259312
 20
1183.187992
 11
161.189312
 21
1207.297992
  0
LINE
  8
0
  6
CONTINUOUS
 62
     2
 10
161.189312
 20
1207.297992
 11
161.189312
 21
1208.767992
  0
LINE
  8
0
  6
CONTINUOUS
 62
     2
 10
161.189312
 20
1208.767992
 11
157.679312
 21
1212.597992
  0
LINE
  8
0
  6
CONTINUOUS
 62
     2
 10
157.679312
 20
1212.597992
 11
156.889312
 21
1213.287992
  0
LINE
  8
0
  6
CONTINUOUS
 62
     2
 10
156.889312
 20
1213.287992
 11
156.009312
 21
1213.797992
  0
LINE
  8
0
  6
CONTINUOUS
 62
     2
 10
156.009312
 20
1213.797992
 11
155.020312
 21
1214.127992
  0
LINE
  8
0
  6
CONTINUOUS
 62
     2
 10
155.020312
 20
1214.127992
 11
153.969312
 21
1214.227992
  0
LINE
  8
0
  6
CONTINUOUS
 62
     2
 10
153.969312
 20
1214.227992
 11
147.669312
 21
1214.227992
  0
LINE
  8
0
  6
CONTINUOUS
 62
     2
 10
147.669312
 20
1214.227992
 11
147.669312
 21
1159.207992
  0
LINE
  8
0
  6
CONTINUOUS
 62
     2
 10
147.669312
 20
1159.207992
 11
157.679312
 21
1159.207992
  0
LINE
  8
0
  6
CONTINUOUS
 62
     2
 10
157.679312
 20
1159.207992
 11
157.679312
 21
1139.227992
  0
LINE
  8
0
  6
CONTINUOUS
 62
   134
 10
126.763446
 20
1142.608733
 11
127.669312
 21
1139.227992
  0
LINE
  8
0
  6
CONTINUOUS
 62
   134
 10
127.669312
 20
1139.227992
 11
128.575179
 21
1142.608733
  0
LINE
  8
0
  6
CONTINUOUS
 62
   134
 10
128.575179
 20
1210.847252
 11
127.669312
 21
1214.227992
  0
LINE
  8
0
  6
CONTINUOUS
 62
   134
 10
127.669312
 20
1214.227992
 11
126.763446
 21
1210.847252
  0
LINE
  8
0
  6
CONTINUOUS
 62
   134
 10
127.669312
 20
1139.227992
 11
127.669312
 21
1214.227992
  0
TEXT
  8
0
 62
   134
 10
125.669312
 20
1168.727992
 40
20.000000
  1
75
 50
90.000000
 41
0.800000
  7
GOTHIC
 72
     1
 11
125.669312
 21
1176.727992
  0
LINE
  8
0
  6
CONTINUOUS
 62
   134
 10
152.679312
 20
1139.227992
 11
122.669312
 21
1139.227992
  0
LINE
  8
0
  6
CONTINUOUS
 62
   134
 10
142.669312
 20
1214.227992
 11
122.669312
 21
1214.227992
  0
LINE
  8
0
  6
CONTINUOUS
 62
   134
 10
224.308572
 20
1252.950630
 11
227.689312
 21
1253.856496
  0
LINE
  8
0
  6
CONTINUOUS
 62
   134
 10
227.689312
 20
1253.856496
 11
224.308572
 21
1254.762363
  0
LINE
  8
0
  6
CONTINUOUS
 62
   134
 10
151.050053
 20
1254.762363
 11
147.669312
 21
1253.856496
  0
LINE
  8
0
  6
CONTINUOUS
 62
   134
 10
147.669312
 20
1253.856496
 11
151.050053
 21
1252.950630
  0
LINE
  8
0
  6
CONTINUOUS
 62
   134
 10
227.689312
 20
1253.856496
 11
147.669312
 21
1253.856496
  0
TEXT
  8
0
 62
   134
 10
179.679312
 20
1255.856496
 40
20.000000
  1
80
 41
0.800000
  7
GOTHIC
 72
     1
 11
187.679312
 21
1255.856496
  0
LINE
  8
0
  6
CONTINUOUS
 62
   134
 10
227.689312
 20
1219.227992
 11
227.689312
 21
1258.856496
  0
LINE
  8
0
  6
CONTINUOUS
 62
   134
 10
147.669312
 20
1219.227992
 11
147.669312
 21
1258.856496
  0
POINT
  8
0
 62
     5
 10
156.185500
 20
1214.227992
  0
POINT
  8
0
 62
     5
 10
219.188869
 20
1214.227992
  0
LINE
  8
0
  6
CONTINUOUS
 62
     4
 10
160.242389
 20
1226.899587
 11
156.185500
 21
1225.812547
  0
LINE
  8
0
  6
CONTINUOUS
 62
     4
 10
156.185500
 20
1225.812547
 11
160.242389
 21
1224.725507
  0
LINE
  8
0
  6
CONTINUOUS
 62
     4
 10
215.131980
 20
1224.725507
 11
219.188869
 21
1225.812547
  0
LINE
  8
0
  6
CONTINUOUS
 62
     4
 10
219.188869
 20
1225.812547
 11
215.131980
 21
1226.899587
  0
LINE
  8
0
  6
CONTINUOUS
 62
     4
 10
156.185500
 20
1225.812547
 11
219.188869
 21
1225.812547
  0
TEXT
  8
0
 62
     4
 10
179.687184
 20
1227.812547
 40
20.000000
  1
63
 41
0.800000
  7
GOTHIC
 72
     1
 11
187.687184
 21
1227.812547
  0
LINE
  8
0
  6
CONTINUOUS
 62
     4
 10
156.185500
 20
1219.227992
 11
156.185500
 21
1230.812547
  0
LINE
  8
0
  6
CONTINUOUS
 62
     4
 10
219.188869
 20
1219.227992
 11
219.188869
 21
1230.812547
  0
LINE
  8
0
  6
CONTINUOUS
 62
     2
 10
157.679312
 20
1084.227992
 11
217.679312
 21
1084.227992
  0
LINE
  8
0
  6
CONTINUOUS
 62
     2
 10
217.679312
 20
1084.227992
 11
217.679312
 21
1104.227992
  0
LINE
  8
0
  6
CONTINUOUS
 62
     2
 10
217.679312
 20
1104.227992
 11
224.679312
 21
1104.227992
  0
LINE
  8
0
  6
CONTINUOUS
 62
     2
 10
224.679312
 20
1104.227992
 11
234.679312
 21
1121.227992
  0
LINE
  8
0
  6
CONTINUOUS
 62
     2
 10
234.679312
 20
1121.227992
 11
234.679312
 21
1137.227992
  0
LINE
  8
0
  6
CONTINUOUS
 62
     2
 10
234.679312
 20
1137.227992
 11
224.679312
 21
1154.227992
  0
LINE
  8
0
  6
CONTINUOUS
 62
     2
 10
224.679312
 20
1154.227992
 11
217.679312
 21
1154.227992
  0
LINE
  8
0
  6
CONTINUOUS
 62
     2
 10
217.679312
 20
1154.227992
 11
217.679312
 21
1139.227992
  0
LINE
  8
0
  6
CONTINUOUS
 62
     2
 10
217.679312
 20
1139.227992
 11
157.679312
 21
1139.227992
  0
LINE
  8
0
  6
CONTINUOUS
 62
     2
 10
157.679312
 20
1139.227992
 11
157.679312
 21
1154.227992
  0
LINE
  8
0
  6
CONTINUOUS
 62
     2
 10
157.679312
 20
1154.227992
 11
150.679312
 21
1154.227992
  0
LINE
  8
0
  6
CONTINUOUS
 62
     2
 10
150.679312
 20
1154.227992
 11
140.679312
 21
1137.227992
  0
LINE
  8
0
  6
CONTINUOUS
 62
     2
 10
140.679312
 20
1137.227992
 11
140.679312
 21
1121.227992
  0
LINE
  8
0
  6
CONTINUOUS
 62
     2
 10
140.679312
 20
1121.227992
 11
150.679312
 21
1104.227992
  0
LINE
  8
0
  6
CONTINUOUS
 62
     2
 10
150.679312
 20
1104.227992
 11
157.679312
 21
1104.227992
  0
LINE
  8
0
  6
CONTINUOUS
 62
     2
 10
157.679312
 20
1104.227992
 11
157.679312
 21
1084.227992
  0
LINE
  8
0
  6
CONTINUOUS
 62
     2
 10
274.679312
 20
1084.227992
 11
217.679312
 21
1084.227992
  0
LINE
  8
0
  6
CONTINUOUS
 62
     2
 10
100.689312
 20
1084.227992
 11
157.689312
 21
1084.227992
  0
LINE
  8
0
  6
CONTINUOUS
 62
   134
 10
267.910963
 20
1194.156882
 11
266.552163
 21
1199.227992
  0
LINE
  8
0
  6
CONTINUOUS
 62
   134
 10
266.552163
 20
1199.227992
 11
265.193363
 21
1194.156882
  0
LINE
  8
0
  6
CONTINUOUS
 62
   134
 10
265.193363
 20
1144.299103
 11
266.552163
 21
1139.227992
  0
LINE
  8
0
  6
CONTINUOUS
 62
   134
 10
266.552163
 20
1139.227992
 11
267.910963
 21
1144.299103
  0
LINE
  8
0
  6
CONTINUOUS
 62
   134
 10
266.552163
 20
1199.227992
 11
266.552163
 21
1139.227992
  0
TEXT
  8
0
 62
   134
 10
265.052163
 20
1163.227992
 40
15.000000
  1
60
 50
90.000000
 41
0.800000
  7
GOTHIC
 72
     1
 11
265.052163
 21
1169.227992
  0
LINE
  8
0
  6
CONTINUOUS
 62
   134
 10
221.429312
 20
1199.227992
 11
270.302163
 21
1199.227992
  0
LINE
  8
0
  6
CONTINUOUS
 62
   134
 10
221.429312
 20
1139.227992
 11
270.302163
 21
1139.227992
  0
LINE
  8
0
  6
CONTINUOUS
 62
     2
 10
294.679312
 20
1046.227992
 11
100.689312
 21
1046.227992
  0
LINE
  8
0
  6
CONTINUOUS
 62
   134
 10
85.760423
 20
992.715495
 11
80.689312
 21
991.356695
  0
LINE
  8
0
  6
CONTINUOUS
 62
   134
 10
80.689312
 20
991.356695
 11
85.760423
 21
989.997895
  0
LINE
  8
0
  6
CONTINUOUS
 62
   134
 10
152.608202
 20
989.997895
 11
157.679312
 21
991.356695
  0
LINE
  8
0
  6
CONTINUOUS
 62
   134
 10
157.679312
 20
991.356695
 11
152.608202
 21
992.715495
  0
LINE
  8
0
  6
CONTINUOUS
 62
   134
 10
80.689312
 20
991.356695
 11
157.679312
 21
991.356695
  0
TEXT
  8
0
 62
   134
 10
113.184312
 20
992.856695
 40
15.000000
  1
77
 41
0.800000
  7
GOTHIC
 72
     1
 11
119.184312
 21
992.856695
  0
LINE
  8
0
  6
CONTINUOUS
 62
   134
 10
80.689312
 20
1042.477992
 11
80.689312
 21
987.606695
  0
LINE
  8
0
  6
CONTINUOUS
 62
   134
 10
157.679312
 20
1065.477992
 11
157.679312
 21
987.606695
  0
LINE
  8
0
  6
CONTINUOUS
 62
   134
 10
162.750423
 20
992.715495
 11
157.679312
 21
991.356695
  0
LINE
  8
0
  6
CONTINUOUS
 62
   134
 10
157.679312
 20
991.356695
 11
162.750423
 21
989.997895
  0
LINE
  8
0
  6
CONTINUOUS
 62
   134
 10
212.608202
 20
989.997895
 11
217.679312
 21
991.356695
  0
LINE
  8
0
  6
CONTINUOUS
 62
   134
 10
217.679312
 20
991.356695
 11
212.608202
 21
992.715495
  0
LINE
  8
0
  6
CONTINUOUS
 62
   134
 10
157.679312
 20
991.356695
 11
217.679312
 21
991.356695
  0
TEXT
  8
0
 62
   134
 10
181.679312
 20
992.856695
 40
15.000000
  1
60
 41
0.800000
  7
GOTHIC
 72
     1
 11
187.679312
 21
992.856695
  0
LINE
  8
0
  6
CONTINUOUS
 62
   134
 10
157.679312
 20
1065.477992
 11
157.679312
 21
987.606695
  0
LINE
  8
0
  6
CONTINUOUS
 62
   134
 10
217.679312
 20
1065.477992
 11
217.679312
 21
987.606695
  0
LINE
  8
0
  6
CONTINUOUS
 62
   134
 10
222.750423
 20
992.715495
 11
217.679312
 21
991.356695
  0
LINE
  8
0
  6
CONTINUOUS
 62
   134
 10
217.679312
 20
991.356695
 11
222.750423
 21
989.997895
  0
LINE
  8
0
  6
CONTINUOUS
 62
   134
 10
289.608202
 20
989.997895
 11
294.679312
 21
991.356695
  0
LINE
  8
0
  6
CONTINUOUS
 62
   134
 10
294.679312
 20
991.356695
 11
289.608202
 21
992.715495
  0
LINE
  8
0
  6
CONTINUOUS
 62
   134
 10
217.679312
 20
991.356695
 11
294.679312
 21
991.356695
  0
TEXT
  8
0
 62
   134
 10
250.179312
 20
992.856695
 40
15.000000
  1
77
 41
0.800000
  7
GOTHIC
 72
     1
 11
256.179312
 21
992.856695
  0
LINE
  8
0
  6
CONTINUOUS
 62
   134
 10
217.679312
 20
1065.477992
 11
217.679312
 21
987.606695
  0
LINE
  8
0
  6
CONTINUOUS
 62
   134
 10
294.679312
 20
1042.477992
 11
294.679312
 21
987.606695
  0
LINE
  8
0
  6
CONTINUOUS
 62
     2
 10
63.689312
 20
1051.227992
 11
63.689312
 21
1071.227992
  0
LINE
  8
0
  6
CONTINUOUS
 62
     2
 10
63.689312
 20
1071.227992
 11
80.689312
 21
1071.227992
  0
LINE
  8
0
  6
CONTINUOUS
 62
     2
 10
63.689312
 20
1051.227992
 11
80.689312
 21
1051.227992
  0
LINE
  8
0
  6
CONTINUOUS
 62
   134
 10
185.833770
 20
1149.156882
 11
184.474970
 21
1154.227992
  0
LINE
  8
0
  6
CONTINUOUS
 62
   134
 10
184.474970
 20
1154.227992
 11
183.116171
 21
1149.156882
  0
LINE
  8
0
  6
CONTINUOUS
 62
   134
 10
183.116171
 20
1109.299103
 11
184.474970
 21
1104.227992
  0
LINE
  8
0
  6
CONTINUOUS
 62
   134
 10
184.474970
 20
1104.227992
 11
185.833770
 21
1109.299103
  0
LINE
  8
0
  6
CONTINUOUS
 62
   134
 10
184.474970
 20
1154.227992
 11
184.474970
 21
1104.227992
  0
TEXT
  8
0
 62
   134
 10
182.974970
 20
1123.227992
 40
15.000000
  1
50
 50
90.000000
 41
0.800000
  7
GOTHIC
 72
     1
 11
182.974970
 21
1129.227992
  0
LINE
  8
0
  6
CONTINUOUS
 62
   134
 10
154.429312
 20
1154.227992
 11
188.224970
 21
1154.227992
  0
LINE
  8
0
  6
CONTINUOUS
 62
   134
 10
161.429312
 20
1104.227992
 11
188.224970
 21
1104.227992
  0
LINE
  8
0
  6
CONTINUOUS
 62
   134
 10
185.833770
 20
1099.156882
 11
184.474970
 21
1104.227992
  0
LINE
  8
0
  6
CONTINUOUS
 62
   134
 10
184.474970
 20
1104.227992
 11
183.116171
 21
1099.156882
  0
LINE
  8
0
  6
CONTINUOUS
 62
   134
 10
183.116171
 20
1089.299103
 11
184.474970
 21
1084.227992
  0
LINE
  8
0
  6
CONTINUOUS
 62
   134
 10
184.474970
 20
1084.227992
 11
185.833770
 21
1089.299103
  0
LINE
  8
0
  6
CONTINUOUS
 62
   134
 10
184.474970
 20
1104.227992
 11
184.474970
 21
1084.227992
  0
TEXT
  8
0
 62
   134
 10
182.974970
 20
1088.227992
 40
15.000000
  1
20
 50
90.000000
 41
0.800000
  7
GOTHIC
 72
     1
 11
182.974970
 21
1094.227992
  0
LINE
  8
0
  6
CONTINUOUS
 62
   134
 10
75.618202
 20
989.997895
 11
80.689312
 21
991.356695
  0
LINE
  8
0
  6
CONTINUOUS
 62
   134
 10
80.689312
 20
991.356695
 11
75.618202
 21
992.715495
  0
LINE
  8
0
  6
CONTINUOUS
 62
   134
 10
68.760423
 20
992.715495
 11
63.689312
 21
991.356695
  0
LINE
  8
0
  6
CONTINUOUS
 62
   134
 10
63.689312
 20
991.356695
 11
68.760423
 21
989.997895
  0
LINE
  8
0
  6
CONTINUOUS
 62
   134
 10
80.689312
 20
991.356695
 11
63.689312
 21
991.356695
  0
TEXT
  8
0
 62
   134
 10
66.189312
 20
992.856695
 40
15.000000
  1
17
 41
0.800000
  7
GOTHIC
 72
     1
 11
72.189312
 21
992.856695
  0
LINE
  8
0
  6
CONTINUOUS
 62
   134
 10
80.689312
 20
1042.477992
 11
80.689312
 21
987.606695
  0
LINE
  8
0
  6
CONTINUOUS
 62
   134
 10
63.689312
 20
1051.477992
 11
63.689312
 21
987.606695
  0
LINE
  8
0
  6
CONTINUOUS
 62
   134
 10
306.608202
 20
989.997895
 11
311.679312
 21
991.356695
  0
LINE
  8
0
  6
CONTINUOUS
 62
   134
 10
311.679312
 20
991.356695
 11
306.608202
 21
992.715495
  0
LINE
  8
0
  6
CONTINUOUS
 62
   134
 10
299.750423
 20
992.715495
 11
294.679312
 21
991.356695
  0
LINE
  8
0
  6
CONTINUOUS
 62
   134
 10
294.679312
 20
991.356695
 11
299.750423
 21
989.997895
  0
LINE
  8
0
  6
CONTINUOUS
 62
   134
 10
311.679312
 20
991.356695
 11
294.679312
 21
991.356695
  0
TEXT
  8
0
 62
   134
 10
297.179312
 20
992.856695
 40
15.000000
  1
17
 41
0.800000
  7
GOTHIC
 72
     1
 11
303.179312
 21
992.856695
  0
LINE
  8
0
  6
CONTINUOUS
 62
   134
 10
311.679312
 20
1051.477992
 11
311.679312
 21
987.606695
  0
LINE
  8
0
  6
CONTINUOUS
 62
   134
 10
294.679312
 20
1042.477992
 11
294.679312
 21
987.606695
  0
LINE
  8
0
  6
CONTINUOUS
 62
   134
 10
267.910963
 20
1134.156882
 11
266.552163
 21
1139.227992
  0
LINE
  8
0
  6
CONTINUOUS
 62
   134
 10
266.552163
 20
1139.227992
 11
265.193363
 21
1134.156882
  0
LINE
  8
0
  6
CONTINUOUS
 62
   134
 10
265.193363
 20
1089.299103
 11
266.552163
 21
1084.227992
  0
LINE
  8
0
  6
CONTINUOUS
 62
   134
 10
266.552163
 20
1084.227992
 11
267.910963
 21
1089.299103
  0
LINE
  8
0
  6
CONTINUOUS
 62
   134
 10
266.552163
 20
1139.227992
 11
266.552163
 21
1084.227992
  0
TEXT
  8
0
 62
   134
 10
265.052163
 20
1105.727992
 40
15.000000
  1
55
 50
90.000000
 41
0.800000
  7
GOTHIC
 72
     1
 11
265.052163
 21
1111.727992
  0
LINE
  8
0
  6
CONTINUOUS
 62
   134
 10
265.193363
 20
1051.299103
 11
266.552163
 21
1046.227992
  0
LINE
  8
0
  6
CONTINUOUS
 62
   134
 10
266.552163
 20
1046.227992
 11
267.910963
 21
1051.299103
  0
LINE
  8
0
  6
CONTINUOUS
 62
   134
 10
267.910963
 20
1079.156882
 11
266.552163
 21
1084.227992
  0
LINE
  8
0
  6
CONTINUOUS
 62
   134
 10
266.552163
 20
1084.227992
 11
265.193363
 21
1079.156882
  0
LINE
  8
0
  6
CONTINUOUS
 62
   134
 10
266.552163
 20
1046.227992
 11
266.552163
 21
1084.227992
  0
TEXT
  8
0
 62
   134
 10
265.052163
 20
1059.227992
 40
15.000000
  1
38
 50
90.000000
 41
0.800000
  7
GOTHIC
 72
     1
 11
265.052163
 21
1065.227992
  0
LINE
  8
0
  6
CONTINUOUS
 62
   134
 10
44.560380
 20
1056.299103
 11
45.919180
 21
1051.227992
  0
LINE
  8
0
  6
CONTINUOUS
 62
   134
 10
45.919180
 20
1051.227992
 11
47.277980
 21
1056.299103
  0
LINE
  8
0
  6
CONTINUOUS
 62
   134
 10
47.277980
 20
1066.156882
 11
45.919180
 21
1071.227992
  0
LINE
  8
0
  6
CONTINUOUS
 62
   134
 10
45.919180
 20
1071.227992
 11
44.560380
 21
1066.156882
  0
LINE
  8
0
  6
CONTINUOUS
 62
   134
 10
45.919180
 20
1051.227992
 11
45.919180
 21
1071.227992
  0
TEXT
  8
0
 62
   134
 10
44.419180
 20
1055.227992
 40
15.000000
  1
20
 50
90.000000
 41
0.800000
  7
GOTHIC
 72
     1
 11
44.419180
 21
1061.227992
  0
LINE
  8
0
  6
CONTINUOUS
 62
   134
 10
59.939312
 20
1051.227992
 11
42.169180
 21
1051.227992
  0
LINE
  8
0
  6
CONTINUOUS
 62
   134
 10
59.939312
 20
1071.227992
 11
42.169180
 21
1071.227992
  0
LINE
  8
0
  6
CONTINUOUS
 62
     2
 10
157.689312
 20
1099.227992
 11
80.689312
 21
1099.227992
  0
LINE
  8
0
  6
CONTINUOUS
 62
     2
 10
100.689312
 20
1084.227992
 11
100.689312
 21
1046.227992
  0
LINE
  8
0
  6
CONTINUOUS
 62
     2
 10
80.689312
 20
1046.227992
 11
80.689312
 21
1099.227992
  0
LINE
  8
0
  6
CONTINUOUS
 62
     2
 10
100.689312
 20
1046.227992
 11
80.689312
 21
1046.227992
  0
LINE
  8
0
  6
CONTINUOUS
 62
     2
 10
311.679312
 20
1051.227992
 11
311.679312
 21
1071.227992
  0
LINE
  8
0
  6
CONTINUOUS
 62
     2
 10
311.679312
 20
1071.227992
 11
294.679312
 21
1071.227992
  0
LINE
  8
0
  6
CONTINUOUS
 62
     2
 10
311.679312
 20
1051.227992
 11
294.679312
 21
1051.227992
  0
LINE
  8
0
  6
CONTINUOUS
 62
     2
 10
217.679312
 20
1099.227992
 11
294.679312
 21
1099.227992
  0
LINE
  8
0
  6
CONTINUOUS
 62
     2
 10
274.679312
 20
1084.227992
 11
274.679312
 21
1046.227992
  0
LINE
  8
0
  6
CONTINUOUS
 62
     2
 10
294.679312
 20
1046.227992
 11
294.679312
 21
1099.227992
  0
LINE
  8
0
  6
CONTINUOUS
 62
     2
 10
274.679312
 20
1046.227992
 11
294.679312
 21
1046.227992
  0
LINE
  8
0
  6
CONTINUOUS
 62
   134
 10
152.608202
 20
1021.420798
 11
157.679312
 21
1022.779598
  0
LINE
  8
0
  6
CONTINUOUS
 62
   134
 10
157.679312
 20
1022.779598
 11
152.608202
 21
1024.138398
  0
LINE
  8
0
  6
CONTINUOUS
 62
   134
 10
105.760423
 20
1024.138398
 11
100.689312
 21
1022.779598
  0
LINE
  8
0
  6
CONTINUOUS
 62
   134
 10
100.689312
 20
1022.779598
 11
105.760423
 21
1021.420798
  0
LINE
  8
0
  6
CONTINUOUS
 62
   134
 10
157.679312
 20
1022.779598
 11
100.689312
 21
1022.779598
  0
TEXT
  8
0
 62
   134
 10
123.184312
 20
1024.279598
 40
15.000000
  1
57
 41
0.800000
  7
GOTHIC
 72
     1
 11
129.184312
 21
1024.279598
  0
LINE
  8
0
  6
CONTINUOUS
 62
   134
 10
100.689312
 20
1042.477992
 11
100.689312
 21
1019.029598
  0
LINE
  8
0
  6
CONTINUOUS
 62
   134
 10
95.618202
 20
1021.420798
 11
100.689312
 21
1022.779598
  0
LINE
  8
0
  6
CONTINUOUS
 62
   134
 10
100.689312
 20
1022.779598
 11
95.618202
 21
1024.138398
  0
LINE
  8
0
  6
CONTINUOUS
 62
   134
 10
85.760423
 20
1024.138398
 11
80.689312
 21
1022.779598
  0
LINE
  8
0
  6
CONTINUOUS
 62
   134
 10
80.689312
 20
1022.779598
 11
85.760423
 21
1021.420798
  0
LINE
  8
0
  6
CONTINUOUS
 62
   134
 10
100.689312
 20
1022.779598
 11
80.689312
 21
1022.779598
  0
TEXT
  8
0
 62
   134
 10
84.689312
 20
1024.279598
 40
15.000000
  1
20
 41
0.800000
  7
GOTHIC
 72
     1
 11
90.689312
 21
1024.279598
  0
LINE
  8
0
  6
CONTINUOUS
 62
   134
 10
100.689312
 20
1042.477992
 11
100.689312
 21
1019.029598
  0
LINE
  8
0
  6
CONTINUOUS
 62
   134
 10
80.689312
 20
1042.477992
 11
80.689312
 21
1019.029598
  0
LINE
  8
0
  6
CONTINUOUS
 62
   134
 10
192.750423
 20
1257.109175
 11
187.679312
 21
1255.750375
  0
LINE
  8
0
  6
CONTINUOUS
 62
   134
 10
187.679312
 20
1255.750375
 11
192.750423
 21
1254.391575
  0
LINE
  8
0
  6
CONTINUOUS
 62
   134
 10
229.608202
 20
1254.391575
 11
234.679312
 21
1255.750375
  0
LINE
  8
0
  6
CONTINUOUS
 62
   134
 10
234.679312
 20
1255.750375
 11
229.608202
 21
1257.109175
  0
LINE
  8
0
  6
CONTINUOUS
 62
   134
 10
187.679312
 20
1255.750375
 11
234.679312
 21
1255.750375
  0
TEXT
  8
0
 62
   134
 10
205.179312
 20
1257.250375
 40
15.000000
  1
47
 41
0.800000
  7
GOTHIC
 72
     1
 11
211.179312
 21
1257.250375
  0
LINE
  8
0
  6
CONTINUOUS
 62
   134
 10
187.679312
 20
1181.587992
 11
187.679312
 21
1259.500375
  0
LINE
  8
0
  6
CONTINUOUS
 62
   134
 10
234.679312
 20
1140.977992
 11
234.679312
 21
1259.500375
  0
LINE
  8
0
  6
CONTINUOUS
 62
   134
 10
192.750423
 20
1286.148034
 11
187.679312
 21
1284.789234
  0
LINE
  8
0
  6
CONTINUOUS
 62
   134
 10
187.679312
 20
1284.789234
 11
192.750423
 21
1283.430434
  0
LINE
  8
0
  6
CONTINUOUS
 62
   134
 10
306.608202
 20
1283.430434
 11
311.679312
 21
1284.789234
  0
LINE
  8
0
  6
CONTINUOUS
 62
   134
 10
311.679312
 20
1284.789234
 11
306.608202
 21
1286.148034
  0
LINE
  8
0
  6
CONTINUOUS
 62
   134
 10
187.679312
 20
1284.789234
 11
311.679312
 21
1284.789234
  0
TEXT
  8
0
 62
   134
 10
240.679312
 20
1286.289234
 40
15.000000
  1
124
 41
0.800000
  7
GOTHIC
 72
     1
 11
249.679312
 21
1286.289234
  0
LINE
  8
0
  6
CONTINUOUS
 62
   134
 10
187.679312
 20
1259.500375
 11
187.679312
 21
1288.539234
  0
LINE
  8
0
  6
CONTINUOUS
 62
   134
 10
311.679312
 20
1074.977992
 11
311.679312
 21
1288.539234
  0
TEXT
  8
0
 62
     7
 10
0.000000
 20
1349.197661
 40
130.000000
  1
V63
 41
0.800000
  7
GOTHIC
 11
0.000000
 21
1479.197661
 73
     3
  0
LINE
  8
0
  6
CONTINUOUS
 62
     2
 10
80.689312
 20
151.227992
 11
294.679312
 21
151.227992
  0
LINE
  8
0
  6
CONTINUOUS
 62
     2
 10
80.689312
 20
1046.227992
 11
80.689312
 21
151.227992
  0
LINE
  8
0
  6
CONTINUOUS
 62
     2
 10
294.679312
 20
1046.227992
 11
294.679312
 21
151.227992
  0
TEXT
  8
0
 62
     7
 10
12.137467
 20
0.000000
 40
130.000000
  1
’n–Ê
 41
0.800000
  7
GOTHIC
 11
12.137467
 21
130.000000
 73
     3
  0
ENDSEC
  0
EOF
