  0
SECTION
  2
HEADER
  9
$ACADVER
  1
AC1009
  9
$DWGCODEPAGE
  3
dos932
  9
$EXTMIN
 10
0.000000
 20
0.000000
  9
$EXTMAX
 10
95.215769
 20
150.700000
  9
$LIMMIN
 10
0.000000
 20
0.000000
  9
$LIMMAX
 10
95.215769
 20
150.700000
  9
$LTSCALE
 40
1.000000
  0
ENDSEC
  0
SECTION
  2
TABLES
  0
TABLE
  2
VPORT
 70
     1
  0
VPORT
  2
*ACTIVE
 70
     0
 10
0.000000
 20
0.000000
 11
1.000000
 21
1.000000
 12
47.607884
 22
75.350000
 13
0.000000
 23
0.000000
 14
1.000000
 24
1.000000
 15
0.000000
 25
0.000000
 16
0.000000
 26
0.000000
 36
1.000000
 17
0.000000
 27
0.000000
 37
0.000000
 40
150.700000
 41
0.631823
 42
50.000000
 43
0.000000
 44
0.000000
 50
0.000000
 51
0.000000
 71
     0
 72
   100
 73
     1
 74
     1
 75
     0
 76
     0
 77
     0
 78
     0
  0
ENDTAB
  0
TABLE
  2
LTYPE
 70
     5
  0
LTYPE
  2
CONTINUOUS
 70
    64
  3
CONTINUOUS
 72
    65
 73
     0
 40
0.000000
  0
LTYPE
  2
DASHED
 70
    64
  3
DASHED
 72
    65
 73
     2
 40
0.750000
 49
0.500000
 49
-0.250000
  0
LTYPE
  2
HIDDEN
 70
    64
  3
HIDDEN
 72
    65
 73
     2
 40
0.375000
 49
0.250000
 49
-0.125000
  0
LTYPE
  2
CENTER
 70
    64
  3
CENTER
 72
    65
 73
     4
 40
2.000000
 49
1.250000
 49
-0.250000
 49
0.250000
 49
-0.250000
  0
LTYPE
  2
PHANTOM
 70
    64
  3
PHANTOM
 72
    65
 73
     6
 40
2.500000
 49
1.250000
 49
-0.250000
 49
0.250000
 49
-0.250000
 49
0.250000
 49
-0.250000
  0
ENDTAB
  0
TABLE
  2
LAYER
 70
     1
  0
LAYER
  2
0
 70
     0
 62
     7
  6
CONTINUOUS
  0
ENDTAB
  0
TABLE
  2
STYLE
 70
     6
  0
STYLE
  2
STANDARD
 70
     0
 40
0.000000
 41
1.000000
 50
0.000000
 71
     0
 42
0.200000
  3
TXT
  4
BIGFONT
  0
STYLE
  2
TATEGAKI
 70
     4
 40
0.000000
 41
1.000000
 50
0.000000
 71
     0
 42
0.200000
  3
TXT
  4
BIGFONT
  0
STYLE
  2
MINCHO
 70
     0
 40
0.000000
 41
1.000000
 50
0.000000
 71
     0
 42
0.200000
  3
‚l‚r –¾’©
  4

  0
STYLE
  2
MINCHOV
 70
     0
 40
0.000000
 41
1.000000
 50
0.000000
 71
     0
 42
0.200000
  3
@‚l‚r –¾’©
  4

  0
STYLE
  2
GOTHIC
 70
     0
 40
0.000000
 41
1.000000
 50
0.000000
 71
     0
 42
0.200000
  3
‚l‚r ƒSƒVƒbƒN
  4

  0
STYLE
  2
GOTHICV
 70
     0
 40
0.000000
 41
1.000000
 50
0.000000
 71
     0
 42
0.200000
  3
@‚l‚r ƒSƒVƒbƒN
  4

  0
ENDTAB
  0
ENDSEC
  0
SECTION
  2
BLOCKS
  0
ENDSEC
  0
SECTION
  2
ENTITIES
  0
LINE
  8
0
  6
CONTINUOUS
 62
     2
 10
44.015769
 20
0.000000
 11
58.015769
 21
0.000000
  0
LINE
  8
0
  6
CONTINUOUS
 62
     2
 10
58.015769
 20
0.000000
 11
58.015769
 21
32.000000
  0
LINE
  8
0
  6
CONTINUOUS
 62
     2
 10
58.015769
 20
32.000000
 11
71.015769
 21
32.000000
  0
LINE
  8
0
  6
CONTINUOUS
 62
     2
 10
71.015769
 20
32.000000
 11
71.015769
 21
5.900000
  0
LINE
  8
0
  6
CONTINUOUS
 62
     2
 10
71.015769
 20
5.900000
 11
81.105769
 21
5.900000
  0
LINE
  8
0
  6
CONTINUOUS
 62
     2
 10
81.105769
 20
5.900000
 11
86.805769
 21
27.170000
  0
LINE
  8
0
  6
CONTINUOUS
 62
     2
 10
86.805769
 20
27.170000
 11
86.805769
 21
53.900000
  0
LINE
  8
0
  6
CONTINUOUS
 62
     2
 10
86.805769
 20
53.900000
 11
91.305769
 21
53.900000
  0
LINE
  8
0
  6
CONTINUOUS
 62
     2
 10
91.305769
 20
53.900000
 11
91.305769
 21
85.380000
  0
LINE
  8
0
  6
CONTINUOUS
 62
     2
 10
91.305769
 20
85.380000
 11
86.805769
 21
85.380000
  0
LINE
  8
0
  6
CONTINUOUS
 62
     2
 10
86.805769
 20
85.380000
 11
86.805769
 21
88.500000
  0
LINE
  8
0
  6
CONTINUOUS
 62
     2
 10
86.805769
 20
88.500000
 11
95.215769
 21
88.500000
  0
LINE
  8
0
  6
CONTINUOUS
 62
     2
 10
95.215769
 20
88.500000
 11
95.215769
 21
117.430000
  0
LINE
  8
0
  6
CONTINUOUS
 62
     2
 10
95.215769
 20
117.430000
 11
81.715769
 21
117.430000
  0
LINE
  8
0
  6
CONTINUOUS
 62
     2
 10
81.715769
 20
117.430000
 11
81.715769
 21
101.750000
  0
LINE
  8
0
  6
CONTINUOUS
 62
     2
 10
81.715769
 20
101.750000
 11
73.015769
 21
101.750000
  0
LINE
  8
0
  6
CONTINUOUS
 62
     2
 10
73.015769
 20
101.750000
 11
73.015769
 21
119.800000
  0
LINE
  8
0
  6
CONTINUOUS
 62
     2
 10
73.015769
 20
119.800000
 11
31.015769
 21
119.800000
  0
LINE
  8
0
  6
CONTINUOUS
 62
     2
 10
31.015769
 20
119.800000
 11
31.015769
 21
150.700000
  0
LINE
  8
0
  6
CONTINUOUS
 62
     2
 10
31.015769
 20
150.700000
 11
18.015769
 21
150.700000
  0
LINE
  8
0
  6
CONTINUOUS
 62
     2
 10
18.015769
 20
150.700000
 11
18.015769
 21
86.598050
  0
LINE
  8
0
  6
CONTINUOUS
 62
     2
 10
10.725769
 20
53.900000
 11
15.225769
 21
53.900000
  0
LINE
  8
0
  6
CONTINUOUS
 62
     2
 10
15.225769
 20
53.900000
 11
15.225769
 21
27.170000
  0
LINE
  8
0
  6
CONTINUOUS
 62
     2
 10
15.225769
 20
27.170000
 11
20.925769
 21
5.900000
  0
LINE
  8
0
  6
CONTINUOUS
 62
     2
 10
20.925769
 20
5.900000
 11
31.015769
 21
5.900000
  0
LINE
  8
0
  6
CONTINUOUS
 62
     2
 10
31.015769
 20
5.900000
 11
31.015769
 21
32.000000
  0
LINE
  8
0
  6
CONTINUOUS
 62
     2
 10
31.015769
 20
32.000000
 11
44.015769
 21
32.000000
  0
LINE
  8
0
  6
CONTINUOUS
 62
     2
 10
44.015769
 20
32.000000
 11
44.015769
 21
0.000000
  0
LINE
  8
0
  6
CONTINUOUS
 62
     2
 10
10.725769
 20
53.900000
 11
10.725769
 21
79.057510
  0
LINE
  8
0
  6
CONTINUOUS
 62
     2
 10
10.725769
 20
79.057510
 11
0.000000
 21
86.236285
  0
LINE
  8
0
  6
CONTINUOUS
 62
     2
 10
0.000000
 20
86.236285
 11
0.000000
 21
101.780878
  0
LINE
  8
0
  6
CONTINUOUS
 62
     2
 10
0.000000
 20
101.780878
 11
3.979416
 21
101.780878
  0
LINE
  8
0
  6
CONTINUOUS
 62
     2
 10
3.979416
 20
101.780878
 11
3.979416
 21
99.621592
  0
LINE
  8
0
  6
CONTINUOUS
 62
     2
 10
3.979416
 20
99.621592
 11
13.080068
 21
93.969013
  0
LINE
  8
0
  6
CONTINUOUS
 62
     2
 10
13.080068
 20
93.969013
 11
17.376028
 21
86.598050
  0
LINE
  8
0
  6
CONTINUOUS
 62
     2
 10
17.376028
 20
86.598050
 11
18.015769
 21
86.598050
  0
ENDSEC
  0
EOF
