  0
SECTION
  2
HEADER
  9
$ACADVER
  1
AC1009
  9
$DWGCODEPAGE
  3
dos932
  9
$EXTMIN
 10
0.000000
 20
0.000000
  9
$EXTMAX
 10
969.043617
 20
612.703277
  9
$LIMMIN
 10
0.000000
 20
0.000000
  9
$LIMMAX
 10
969.043617
 20
612.703277
  9
$LTSCALE
 40
1.000000
  0
ENDSEC
  0
SECTION
  2
TABLES
  0
TABLE
  2
VPORT
 70
     1
  0
VPORT
  2
*ACTIVE
 70
     0
 10
0.000000
 20
0.000000
 11
1.000000
 21
1.000000
 12
484.521808
 22
306.351638
 13
0.000000
 23
0.000000
 14
1.000000
 24
1.000000
 15
0.000000
 25
0.000000
 16
0.000000
 26
0.000000
 36
1.000000
 17
0.000000
 27
0.000000
 37
0.000000
 40
612.703277
 41
1.581587
 42
50.000000
 43
0.000000
 44
0.000000
 50
0.000000
 51
0.000000
 71
     0
 72
   100
 73
     1
 74
     1
 75
     0
 76
     0
 77
     0
 78
     0
  0
ENDTAB
  0
TABLE
  2
LTYPE
 70
     5
  0
LTYPE
  2
CONTINUOUS
 70
    64
  3
CONTINUOUS
 72
    65
 73
     0
 40
0.000000
  0
LTYPE
  2
DASHED
 70
    64
  3
DASHED
 72
    65
 73
     2
 40
0.750000
 49
0.500000
 49
-0.250000
  0
LTYPE
  2
HIDDEN
 70
    64
  3
HIDDEN
 72
    65
 73
     2
 40
0.375000
 49
0.250000
 49
-0.125000
  0
LTYPE
  2
CENTER
 70
    64
  3
CENTER
 72
    65
 73
     4
 40
2.000000
 49
1.250000
 49
-0.250000
 49
0.250000
 49
-0.250000
  0
LTYPE
  2
PHANTOM
 70
    64
  3
PHANTOM
 72
    65
 73
     6
 40
2.500000
 49
1.250000
 49
-0.250000
 49
0.250000
 49
-0.250000
 49
0.250000
 49
-0.250000
  0
ENDTAB
  0
TABLE
  2
LAYER
 70
     1
  0
LAYER
  2
0
 70
     0
 62
     7
  6
CONTINUOUS
  0
ENDTAB
  0
TABLE
  2
STYLE
 70
     6
  0
STYLE
  2
STANDARD
 70
     0
 40
0.000000
 41
1.000000
 50
0.000000
 71
     0
 42
0.200000
  3
TXT
  4
BIGFONT
  0
STYLE
  2
TATEGAKI
 70
     4
 40
0.000000
 41
1.000000
 50
0.000000
 71
     0
 42
0.200000
  3
TXT
  4
BIGFONT
  0
STYLE
  2
MINCHO
 70
     0
 40
0.000000
 41
1.000000
 50
0.000000
 71
     0
 42
0.200000
  3
ÇlÇr ñæí©
  4

  0
STYLE
  2
MINCHOV
 70
     0
 40
0.000000
 41
1.000000
 50
0.000000
 71
     0
 42
0.200000
  3
@ÇlÇr ñæí©
  4

  0
STYLE
  2
GOTHIC
 70
     0
 40
0.000000
 41
1.000000
 50
0.000000
 71
     0
 42
0.200000
  3
ÇlÇr ÉSÉVÉbÉN
  4

  0
STYLE
  2
GOTHICV
 70
     0
 40
0.000000
 41
1.000000
 50
0.000000
 71
     0
 42
0.200000
  3
@ÇlÇr ÉSÉVÉbÉN
  4

  0
ENDTAB
  0
ENDSEC
  0
SECTION
  2
BLOCKS
  0
ENDSEC
  0
SECTION
  2
ENTITIES
  0
LINE
  8
0
  6
CONTINUOUS
 62
   134
 10
300.699493
 20
123.309630
 11
300.246560
 21
125.000000
  0
LINE
  8
0
  6
CONTINUOUS
 62
   134
 10
300.246560
 20
125.000000
 11
299.793626
 21
123.309630
  0
LINE
  8
0
  6
CONTINUOUS
 62
   134
 10
299.793626
 20
1.690370
 11
300.246560
 21
0.000000
  0
LINE
  8
0
  6
CONTINUOUS
 62
   134
 10
300.246560
 20
0.000000
 11
300.699493
 21
1.690370
  0
LINE
  8
0
  6
CONTINUOUS
 62
   134
 10
300.246560
 20
125.000000
 11
300.246560
 21
0.000000
  0
TEXT
  8
0
 62
   134
 10
299.746560
 20
59.687500
 40
5.000000
  1
125
 50
90.000000
 41
0.750000
  7
GOTHIC
 72
     1
 11
299.746560
 21
62.500000
  0
LINE
  8
0
  6
CONTINUOUS
 62
   134
 10
313.639976
 20
125.000000
 11
298.996560
 21
125.000000
  0
LINE
  8
0
  6
CONTINUOUS
 62
   134
 10
333.639976
 20
0.000000
 11
298.996560
 21
0.000000
  0
LINE
  8
0
  6
CONTINUOUS
 62
   134
 10
364.691295
 20
93.309630
 11
364.238361
 21
95.000000
  0
LINE
  8
0
  6
CONTINUOUS
 62
   134
 10
364.238361
 20
95.000000
 11
363.785428
 21
93.309630
  0
LINE
  8
0
  6
CONTINUOUS
 62
   134
 10
363.785428
 20
1.690370
 11
364.238361
 21
0.000000
  0
LINE
  8
0
  6
CONTINUOUS
 62
   134
 10
364.238361
 20
0.000000
 11
364.691295
 21
1.690370
  0
LINE
  8
0
  6
CONTINUOUS
 62
   134
 10
364.238361
 20
95.000000
 11
364.238361
 21
0.000000
  0
TEXT
  8
0
 62
   134
 10
363.738361
 20
45.625000
 40
5.000000
  1
95
 50
90.000000
 41
0.750000
  7
GOTHIC
 72
     1
 11
363.738361
 21
47.500000
  0
LINE
  8
0
  6
CONTINUOUS
 62
   134
 10
343.139976
 20
95.000000
 11
365.488361
 21
95.000000
  0
LINE
  8
0
  6
CONTINUOUS
 62
   134
 10
336.139976
 20
0.000000
 11
365.488361
 21
0.000000
  0
LINE
  8
0
  6
CONTINUOUS
 62
   134
 10
330.199606
 20
17.323283
 11
331.889976
 21
17.776216
  0
LINE
  8
0
  6
CONTINUOUS
 62
   134
 10
331.889976
 20
17.776216
 11
330.199606
 21
18.229149
  0
LINE
  8
0
  6
CONTINUOUS
 62
   134
 10
339.580347
 20
18.229149
 11
337.889976
 21
17.776216
  0
LINE
  8
0
  6
CONTINUOUS
 62
   134
 10
337.889976
 20
17.776216
 11
339.580347
 21
17.323283
  0
LINE
  8
0
  6
CONTINUOUS
 62
   134
 10
328.389976
 20
17.776216
 11
341.389976
 21
17.776216
  0
TEXT
  8
0
 62
   134
 10
322.431975
 20
19.010172
 40
5.000000
  1
6
 41
0.750000
  7
GOTHIC
 72
     2
 11
324.306975
 21
19.010172
  0
LINE
  8
0
  6
CONTINUOUS
 62
   134
 10
322.056975
 20
17.776216
 11
331.889976
 21
17.776216
  0
TEXT
  8
0
 62
     7
 10
12.911058
 20
449.215977
 40
20.000000
  1
00300
 41
0.900000
  7
GOTHIC
 72
     1
 11
35.411058
 21
449.215977
  0
TEXT
  8
0
 62
     7
 10
314.763767
 20
589.203277
 40
15.000000
  1
00402
 41
0.900000
  7
GOTHIC
 72
     1
 11
331.638767
 21
589.203277
  0
LINE
  8
0
  6
CONTINUOUS
 62
   134
 10
45.026600
 20
486.025786
 11
43.953281
 21
487.407989
  0
LINE
  8
0
  6
CONTINUOUS
 62
   134
 10
43.953281
 20
487.407989
 11
44.191700
 21
485.674306
  0
LINE
  8
0
  6
CONTINUOUS
 62
   134
 10
41.622578
 20
492.944309
 11
45.311293
 21
484.182186
  0
TEXT
  8
0
 62
   134
 10
45.859113
 20
484.169550
 40
5.000000
  1
R6
 50
292.830321
 41
0.750000
  7
GOTHIC
  0
LINE
  8
0
  6
CONTINUOUS
 62
   134
 10
46.998798
 20
480.173709
 11
43.953281
 21
487.407989
  0
LINE
  8
0
  6
CONTINUOUS
 62
   134
 10
67.771568
 20
550.247033
 11
67.318635
 21
551.937403
  0
LINE
  8
0
  6
CONTINUOUS
 62
   134
 10
67.318635
 20
551.937403
 11
66.865702
 21
550.247033
  0
LINE
  8
0
  6
CONTINUOUS
 62
   134
 10
66.865702
 20
488.627765
 11
67.318635
 21
486.937395
  0
LINE
  8
0
  6
CONTINUOUS
 62
   134
 10
67.318635
 20
486.937395
 11
67.771568
 21
488.627765
  0
LINE
  8
0
  6
CONTINUOUS
 62
   134
 10
67.318635
 20
551.937403
 11
67.318635
 21
486.937395
  0
TEXT
  8
0
 62
   134
 10
66.818635
 20
517.562399
 40
5.000000
  1
65
 50
90.000000
 41
0.750000
  7
GOTHIC
 72
     1
 11
66.818635
 21
519.437399
  0
LINE
  8
0
  6
CONTINUOUS
 62
   134
 10
49.072578
 20
551.937403
 11
68.568635
 21
551.937403
  0
LINE
  8
0
  6
CONTINUOUS
 62
   134
 10
42.872578
 20
486.937395
 11
68.568635
 21
486.937395
  0
LINE
  8
0
  6
CONTINUOUS
 62
   134
 10
6.452933
 20
580.247033
 11
6.000000
 21
581.937403
  0
LINE
  8
0
  6
CONTINUOUS
 62
   134
 10
6.000000
 20
581.937403
 11
5.547067
 21
580.247033
  0
LINE
  8
0
  6
CONTINUOUS
 62
   134
 10
5.547067
 20
488.627765
 11
6.000000
 21
486.937395
  0
LINE
  8
0
  6
CONTINUOUS
 62
   134
 10
6.000000
 20
486.937395
 11
6.452933
 21
488.627765
  0
LINE
  8
0
  6
CONTINUOUS
 62
   134
 10
6.000000
 20
581.937403
 11
6.000000
 21
486.937395
  0
TEXT
  8
0
 62
   134
 10
5.500000
 20
532.562399
 40
5.000000
  1
95
 50
90.000000
 41
0.750000
  7
GOTHIC
 72
     1
 11
5.500000
 21
534.437399
  0
LINE
  8
0
  6
CONTINUOUS
 62
   134
 10
21.372578
 20
581.937403
 11
4.750000
 21
581.937403
  0
LINE
  8
0
  6
CONTINUOUS
 62
   134
 10
40.372578
 20
486.937395
 11
4.750000
 21
486.937395
  0
LINE
  8
0
  6
CONTINUOUS
 62
   134
 10
328.174747
 20
501.291580
 11
327.273670
 21
499.791393
  0
LINE
  8
0
  6
CONTINUOUS
 62
   134
 10
327.273670
 20
499.791393
 11
328.804119
 21
500.640054
  0
LINE
  8
0
  6
CONTINUOUS
 62
   134
 10
354.441037
 20
500.640054
 11
355.971486
 21
499.791393
  0
LINE
  8
0
  6
CONTINUOUS
 62
   134
 10
355.971486
 20
499.791393
 11
355.070408
 21
501.291580
  0
ARC
  8
0
  6
CONTINUOUS
 62
   134
 10
341.622578
 20
484.937403
 40
20.652655
 50
45.990866
 51
134.009134
  0
TEXT
  8
0
 62
   134
 10
338.810078
 20
506.090059
 40
5.000000
  1
88ﬂ
 41
0.750000
  7
GOTHIC
 72
     1
 11
341.622578
 21
506.090059
  0
LINE
  8
0
  6
CONTINUOUS
 62
   134
 10
334.504111
 20
492.306440
 11
326.405203
 21
500.690429
  0
LINE
  8
0
  6
CONTINUOUS
 62
   134
 10
348.741044
 20
492.306440
 11
356.839952
 21
500.690429
  0
LINE
  8
0
  6
CONTINUOUS
 62
   134
 10
350.144470
 20
479.055535
 11
349.295809
 21
477.525086
  0
LINE
  8
0
  6
CONTINUOUS
 62
   134
 10
349.295809
 20
477.525086
 11
350.795996
 21
478.426163
  0
LINE
  8
0
  6
CONTINUOUS
 62
   134
 10
354.697148
 20
482.464636
 11
355.545809
 21
483.995086
  0
LINE
  8
0
  6
CONTINUOUS
 62
   134
 10
355.545809
 20
483.995086
 11
354.045623
 21
483.094008
  0
LINE
  8
0
  6
CONTINUOUS
 62
   134
 10
349.295809
 20
477.525086
 11
355.545809
 21
483.995086
  0
TEXT
  8
0
 62
   134
 10
351.409845
 20
480.433195
 40
5.000000
  1
9
 50
45.990866
 41
0.750000
  7
GOTHIC
 72
     1
 11
352.061195
 21
481.107472
  0
LINE
  8
0
  6
CONTINUOUS
 62
   134
 10
342.521614
 20
484.068937
 11
350.194846
 21
476.656619
  0
LINE
  8
0
  6
CONTINUOUS
 62
   134
 10
348.771614
 20
490.538937
 11
356.444846
 21
483.126619
  0
LINE
  8
0
  6
CONTINUOUS
 62
   134
 10
363.870379
 20
550.247033
 11
363.417446
 21
551.937403
  0
LINE
  8
0
  6
CONTINUOUS
 62
   134
 10
363.417446
 20
551.937403
 11
362.964513
 21
550.247033
  0
LINE
  8
0
  6
CONTINUOUS
 62
   134
 10
362.964513
 20
486.627774
 11
363.417446
 21
484.937403
  0
LINE
  8
0
  6
CONTINUOUS
 62
   134
 10
363.417446
 20
484.937403
 11
363.870379
 21
486.627774
  0
LINE
  8
0
  6
CONTINUOUS
 62
   134
 10
363.417446
 20
551.937403
 11
363.417446
 21
484.937403
  0
TEXT
  8
0
 62
   134
 10
362.917446
 20
516.562403
 40
5.000000
  1
67
 50
90.000000
 41
0.750000
  7
GOTHIC
 72
     1
 11
362.917446
 21
518.437403
  0
LINE
  8
0
  6
CONTINUOUS
 62
   134
 10
349.872578
 20
551.937403
 11
364.667446
 21
551.937403
  0
LINE
  8
0
  6
CONTINUOUS
 62
   134
 10
342.872578
 20
484.937403
 11
364.667446
 21
484.937403
  0
LINE
  8
0
  6
CONTINUOUS
 62
   134
 10
312.998501
 20
580.247033
 11
312.545568
 21
581.937403
  0
LINE
  8
0
  6
CONTINUOUS
 62
   134
 10
312.545568
 20
581.937403
 11
312.092634
 21
580.247033
  0
LINE
  8
0
  6
CONTINUOUS
 62
   134
 10
312.092634
 20
486.627774
 11
312.545568
 21
484.937403
  0
LINE
  8
0
  6
CONTINUOUS
 62
   134
 10
312.545568
 20
484.937403
 11
312.998501
 21
486.627774
  0
LINE
  8
0
  6
CONTINUOUS
 62
   134
 10
312.545568
 20
581.937403
 11
312.545568
 21
484.937403
  0
TEXT
  8
0
 62
   134
 10
312.045568
 20
531.562403
 40
5.000000
  1
97
 50
90.000000
 41
0.750000
  7
GOTHIC
 72
     1
 11
312.045568
 21
533.437403
  0
LINE
  8
0
  6
CONTINUOUS
 62
   134
 10
320.372578
 20
581.937403
 11
311.295568
 21
581.937403
  0
LINE
  8
0
  6
CONTINUOUS
 62
   134
 10
340.372578
 20
484.937403
 11
311.295568
 21
484.937403
  0
LINE
  8
0
  6
CONTINUOUS
 62
   134
 10
925.566861
 20
465.991263
 11
924.665783
 21
464.491077
  0
LINE
  8
0
  6
CONTINUOUS
 62
   134
 10
924.665783
 20
464.491077
 11
926.196233
 21
465.339738
  0
LINE
  8
0
  6
CONTINUOUS
 62
   134
 10
957.050417
 20
465.338485
 11
958.580797
 21
464.489700
  0
LINE
  8
0
  6
CONTINUOUS
 62
   134
 10
958.580797
 20
464.489700
 11
957.679841
 21
465.989960
  0
ARC
  8
0
  6
CONTINUOUS
 62
   134
 10
941.622578
 20
446.937403
 40
24.406235
 50
45.986215
 51
134.009134
  0
TEXT
  8
0
 62
   134
 10
938.811089
 20
471.843753
 40
5.000000
  1
88ﬂ
 50
359.997674
 41
0.750000
  7
GOTHIC
 72
     1
 11
941.623589
 21
471.843639
  0
LINE
  8
0
  6
CONTINUOUS
 62
   134
 10
934.504111
 20
454.306440
 11
923.797317
 21
465.390113
  0
LINE
  8
0
  6
CONTINUOUS
 62
   134
 10
948.771117
 20
454.336369
 11
959.449336
 21
465.388666
  0
LINE
  8
0
  6
CONTINUOUS
 62
   134
 10
953.408471
 20
437.169629
 11
952.507393
 21
435.669442
  0
LINE
  8
0
  6
CONTINUOUS
 62
   134
 10
952.507393
 20
435.669442
 11
954.037843
 21
436.518103
  0
LINE
  8
0
  6
CONTINUOUS
 62
   134
 10
958.102956
 20
440.444990
 11
959.004034
 21
441.945176
  0
LINE
  8
0
  6
CONTINUOUS
 62
   134
 10
959.004034
 20
441.945176
 11
957.473584
 21
441.096516
  0
LINE
  8
0
  6
CONTINUOUS
 62
   134
 10
952.507393
 20
435.669442
 11
959.004034
 21
441.945176
  0
TEXT
  8
0
 62
   134
 10
954.734050
 20
438.515574
 40
5.000000
  1
9
 50
44.009134
 41
0.750000
  7
GOTHIC
 72
     1
 11
955.408327
 21
439.166924
  0
LINE
  8
0
  6
CONTINUOUS
 62
   134
 10
942.491044
 20
446.038367
 11
953.375860
 21
434.770406
  0
LINE
  8
0
  6
CONTINUOUS
 62
   134
 10
948.771044
 20
452.538367
 11
959.872500
 21
441.046140
  0
LINE
  8
0
  6
CONTINUOUS
 62
   134
 10
968.246550
 20
550.247033
 11
967.793617
 21
551.937403
  0
LINE
  8
0
  6
CONTINUOUS
 62
   134
 10
967.793617
 20
551.937403
 11
967.340683
 21
550.247033
  0
LINE
  8
0
  6
CONTINUOUS
 62
   134
 10
967.340683
 20
448.627774
 11
967.793617
 21
446.937403
  0
LINE
  8
0
  6
CONTINUOUS
 62
   134
 10
967.793617
 20
446.937403
 11
968.246550
 21
448.627774
  0
LINE
  8
0
  6
CONTINUOUS
 62
   134
 10
967.793617
 20
551.937403
 11
967.793617
 21
446.937403
  0
TEXT
  8
0
 62
   134
 10
967.293617
 20
496.624903
 40
5.000000
  1
105
 50
90.000000
 41
0.750000
  7
GOTHIC
 72
     1
 11
967.293617
 21
499.437403
  0
LINE
  8
0
  6
CONTINUOUS
 62
   134
 10
949.872578
 20
551.937403
 11
969.043617
 21
551.937403
  0
LINE
  8
0
  6
CONTINUOUS
 62
   134
 10
942.872578
 20
446.937403
 11
969.043617
 21
446.937403
  0
LINE
  8
0
  6
CONTINUOUS
 62
   134
 10
883.200520
 20
580.247033
 11
882.747587
 21
581.937403
  0
LINE
  8
0
  6
CONTINUOUS
 62
   134
 10
882.747587
 20
581.937403
 11
882.294654
 21
580.247033
  0
LINE
  8
0
  6
CONTINUOUS
 62
   134
 10
882.294654
 20
448.627774
 11
882.747587
 21
446.937403
  0
LINE
  8
0
  6
CONTINUOUS
 62
   134
 10
882.747587
 20
446.937403
 11
883.200520
 21
448.627774
  0
LINE
  8
0
  6
CONTINUOUS
 62
   134
 10
882.747587
 20
581.937403
 11
882.747587
 21
446.937403
  0
TEXT
  8
0
 62
   134
 10
882.247587
 20
511.624903
 40
5.000000
  1
135
 50
90.000000
 41
0.750000
  7
GOTHIC
 72
     1
 11
882.247587
 21
514.437403
  0
LINE
  8
0
  6
CONTINUOUS
 62
   134
 10
920.372578
 20
581.937403
 11
881.497587
 21
581.937403
  0
LINE
  8
0
  6
CONTINUOUS
 62
   134
 10
940.372578
 20
446.937403
 11
881.497587
 21
446.937403
  0
LINE
  8
0
  6
CONTINUOUS
 62
   134
 10
263.373184
 20
353.349400
 11
262.920250
 21
355.039770
  0
LINE
  8
0
  6
CONTINUOUS
 62
   134
 10
262.920250
 20
355.039770
 11
262.467317
 21
353.349400
  0
LINE
  8
0
  6
CONTINUOUS
 62
   134
 10
262.467317
 20
206.730141
 11
262.920250
 21
205.039770
  0
LINE
  8
0
  6
CONTINUOUS
 62
   134
 10
262.920250
 20
205.039770
 11
263.373184
 21
206.730141
  0
LINE
  8
0
  6
CONTINUOUS
 62
   134
 10
262.920250
 20
355.039770
 11
262.920250
 21
205.039770
  0
TEXT
  8
0
 62
   134
 10
262.420250
 20
277.227270
 40
5.000000
  1
150
 50
90.000000
 41
0.750000
  7
GOTHIC
 72
     1
 11
262.420250
 21
280.039770
  0
LINE
  8
0
  6
CONTINUOUS
 62
   134
 10
313.679759
 20
355.039770
 11
261.670250
 21
355.039770
  0
LINE
  8
0
  6
CONTINUOUS
 62
   134
 10
333.679759
 20
205.039770
 11
261.670250
 21
205.039770
  0
LINE
  8
0
  6
CONTINUOUS
 62
   134
 10
369.762767
 20
323.349400
 11
369.309834
 21
325.039770
  0
LINE
  8
0
  6
CONTINUOUS
 62
   134
 10
369.309834
 20
325.039770
 11
368.856901
 21
323.349400
  0
LINE
  8
0
  6
CONTINUOUS
 62
   134
 10
368.856901
 20
206.730141
 11
369.309834
 21
205.039770
  0
LINE
  8
0
  6
CONTINUOUS
 62
   134
 10
369.309834
 20
205.039770
 11
369.762767
 21
206.730141
  0
LINE
  8
0
  6
CONTINUOUS
 62
   134
 10
369.309834
 20
325.039770
 11
369.309834
 21
205.039770
  0
TEXT
  8
0
 62
   134
 10
368.809834
 20
262.227270
 40
5.000000
  1
120
 50
90.000000
 41
0.750000
  7
GOTHIC
 72
     1
 11
368.809834
 21
265.039770
  0
LINE
  8
0
  6
CONTINUOUS
 62
   134
 10
343.179759
 20
325.039770
 11
370.559834
 21
325.039770
  0
LINE
  8
0
  6
CONTINUOUS
 62
   134
 10
336.179759
 20
205.039770
 11
370.559834
 21
205.039770
  0
LINE
  8
0
  6
CONTINUOUS
 62
   134
 10
605.134620
 20
350.207263
 11
604.681686
 21
351.897633
  0
LINE
  8
0
  6
CONTINUOUS
 62
   134
 10
604.681686
 20
351.897633
 11
604.228753
 21
350.207263
  0
LINE
  8
0
  6
CONTINUOUS
 62
   134
 10
604.228753
 20
256.588003
 11
604.681686
 21
254.897633
  0
LINE
  8
0
  6
CONTINUOUS
 62
   134
 10
604.681686
 20
254.897633
 11
605.134620
 21
256.588003
  0
LINE
  8
0
  6
CONTINUOUS
 62
   134
 10
604.681686
 20
351.897633
 11
604.681686
 21
254.897633
  0
TEXT
  8
0
 62
   134
 10
604.181686
 20
301.522633
 40
5.000000
  1
97
 50
90.000000
 41
0.750000
  7
GOTHIC
 72
     1
 11
604.181686
 21
303.397633
  0
LINE
  8
0
  6
CONTINUOUS
 62
   134
 10
621.332795
 20
351.897633
 11
603.431686
 21
351.897633
  0
LINE
  8
0
  6
CONTINUOUS
 62
   134
 10
640.332795
 20
254.897633
 11
603.431686
 21
254.897633
  0
LINE
  8
0
  6
CONTINUOUS
 62
   134
 10
669.777186
 20
320.207263
 11
669.324253
 21
321.897633
  0
LINE
  8
0
  6
CONTINUOUS
 62
   134
 10
669.324253
 20
321.897633
 11
668.871320
 21
320.207263
  0
LINE
  8
0
  6
CONTINUOUS
 62
   134
 10
668.871320
 20
256.588003
 11
669.324253
 21
254.897633
  0
LINE
  8
0
  6
CONTINUOUS
 62
   134
 10
669.324253
 20
254.897633
 11
669.777186
 21
256.588003
  0
LINE
  8
0
  6
CONTINUOUS
 62
   134
 10
669.324253
 20
321.897633
 11
669.324253
 21
254.897633
  0
TEXT
  8
0
 62
   134
 10
668.824253
 20
286.522633
 40
5.000000
  1
67
 50
90.000000
 41
0.750000
  7
GOTHIC
 72
     1
 11
668.824253
 21
288.397633
  0
LINE
  8
0
  6
CONTINUOUS
 62
   134
 10
648.832795
 20
321.897633
 11
670.574253
 21
321.897633
  0
LINE
  8
0
  6
CONTINUOUS
 62
   134
 10
642.832795
 20
254.897633
 11
670.574253
 21
254.897633
  0
LINE
  8
0
  6
CONTINUOUS
 62
   134
 10
887.004608
 20
350.885268
 11
886.551675
 21
352.575639
  0
LINE
  8
0
  6
CONTINUOUS
 62
   134
 10
886.551675
 20
352.575639
 11
886.098742
 21
350.885268
  0
LINE
  8
0
  6
CONTINUOUS
 62
   134
 10
886.098742
 20
204.173009
 11
886.551675
 21
202.482639
  0
LINE
  8
0
  6
CONTINUOUS
 62
   134
 10
886.551675
 20
202.482639
 11
887.004608
 21
204.173009
  0
LINE
  8
0
  6
CONTINUOUS
 62
   134
 10
886.551675
 20
352.575639
 11
886.551675
 21
202.482639
  0
TEXT
  8
0
 62
   134
 10
886.051675
 20
272.841639
 40
5.000000
  1
150.1
 50
90.000000
 41
0.750000
  7
GOTHIC
 72
     1
 11
886.051675
 21
277.529139
  0
LINE
  8
0
  6
CONTINUOUS
 62
   134
 10
912.511353
 20
352.575639
 11
885.301675
 21
352.575639
  0
LINE
  8
0
  6
CONTINUOUS
 62
   134
 10
929.897353
 20
202.482639
 11
885.301675
 21
202.482639
  0
LINE
  8
0
  6
CONTINUOUS
 62
   134
 10
967.109563
 20
320.885268
 11
966.656630
 21
322.575639
  0
LINE
  8
0
  6
CONTINUOUS
 62
   134
 10
966.656630
 20
322.575639
 11
966.203696
 21
320.885268
  0
LINE
  8
0
  6
CONTINUOUS
 62
   134
 10
966.203696
 20
204.173009
 11
966.656630
 21
202.482639
  0
LINE
  8
0
  6
CONTINUOUS
 62
   134
 10
966.656630
 20
202.482639
 11
967.109563
 21
204.173009
  0
LINE
  8
0
  6
CONTINUOUS
 62
   134
 10
966.656630
 20
322.575639
 11
966.656630
 21
202.482639
  0
TEXT
  8
0
 62
   134
 10
966.156630
 20
257.841639
 40
5.000000
  1
120.1
 50
90.000000
 41
0.750000
  7
GOTHIC
 72
     1
 11
966.156630
 21
262.529139
  0
LINE
  8
0
  6
CONTINUOUS
 62
   134
 10
939.397353
 20
322.575639
 11
967.906630
 21
322.575639
  0
LINE
  8
0
  6
CONTINUOUS
 62
   134
 10
932.397353
 20
202.482639
 11
967.906630
 21
202.482639
  0
LINE
  8
0
  6
CONTINUOUS
 62
   134
 10
946.103112
 20
190.847749
 11
945.281554
 21
189.302582
  0
LINE
  8
0
  6
CONTINUOUS
 62
   134
 10
945.281554
 20
189.302582
 11
946.765628
 21
190.229957
  0
LINE
  8
0
  6
CONTINUOUS
 62
   134
 10
950.606996
 20
194.349414
 11
951.428554
 21
195.894582
  0
LINE
  8
0
  6
CONTINUOUS
 62
   134
 10
951.428554
 20
195.894582
 11
949.944480
 21
194.967206
  0
LINE
  8
0
  6
CONTINUOUS
 62
   134
 10
945.281554
 20
189.302582
 11
951.428554
 21
195.894582
  0
TEXT
  8
0
 62
   134
 10
947.350008
 20
192.253925
 40
5.000000
  1
9
 50
47.000648
 41
0.750000
  7
GOTHIC
 72
     1
 11
947.989373
 21
192.939577
  0
LINE
  8
0
  6
CONTINUOUS
 62
   134
 10
932.061555
 20
201.630151
 11
946.195756
 21
188.450094
  0
LINE
  8
0
  6
CONTINUOUS
 62
   134
 10
938.208555
 20
208.222151
 11
952.342756
 21
195.042094
  0
LINE
  8
0
  6
CONTINUOUS
 62
     3
 10
46.862578
 20
490.007403
 11
48.822578
 21
493.407403
  0
LINE
  8
0
  6
CONTINUOUS
 62
     3
 10
48.822578
 20
493.407403
 11
48.822578
 21
550.937403
  0
LINE
  8
0
  6
CONTINUOUS
 62
     3
 10
48.822578
 20
550.937403
 11
47.822578
 21
551.937403
  0
LINE
  8
0
  6
CONTINUOUS
 62
     3
 10
47.822578
 20
551.937403
 11
34.622578
 21
551.937403
  0
LINE
  8
0
  6
CONTINUOUS
 62
     3
 10
34.622578
 20
551.937403
 11
34.622578
 21
580.937403
  0
LINE
  8
0
  6
CONTINUOUS
 62
     3
 10
34.622578
 20
580.937403
 11
33.622578
 21
581.937403
  0
LINE
  8
0
  6
CONTINUOUS
 62
     3
 10
33.622578
 20
581.937403
 11
22.622578
 21
581.937403
  0
LINE
  8
0
  6
CONTINUOUS
 62
     3
 10
22.622578
 20
581.937403
 11
21.622578
 21
580.937403
  0
LINE
  8
0
  6
CONTINUOUS
 62
     3
 10
21.622578
 20
580.937403
 11
21.622578
 21
517.577403
  0
LINE
  8
0
  6
CONTINUOUS
 62
     3
 10
21.622578
 20
517.577403
 11
34.422578
 21
495.407403
  0
LINE
  8
0
  6
CONTINUOUS
 62
     3
 10
34.422578
 20
495.407403
 11
34.422578
 21
493.407403
  0
LINE
  8
0
  6
CONTINUOUS
 62
     3
 10
34.422578
 20
493.407403
 11
36.382578
 21
490.007403
  0
ARC
  8
0
  6
CONTINUOUS
 62
     3
 10
41.622578
 20
492.944309
 40
6.006914
 50
209.269678
 51
330.730322
  0
LINE
  8
0
  6
CONTINUOUS
 62
     3
 10
341.622578
 20
484.937403
 11
347.872578
 21
491.407403
  0
LINE
  8
0
  6
CONTINUOUS
 62
     3
 10
347.872578
 20
491.407403
 11
342.252578
 21
502.907403
  0
LINE
  8
0
  6
CONTINUOUS
 62
     3
 10
342.252578
 20
502.907403
 11
342.522578
 21
515.687403
  0
LINE
  8
0
  6
CONTINUOUS
 62
     3
 10
342.522578
 20
515.687403
 11
348.622578
 21
526.937403
  0
LINE
  8
0
  6
CONTINUOUS
 62
     3
 10
348.622578
 20
526.937403
 11
348.622578
 21
551.937403
  0
LINE
  8
0
  6
CONTINUOUS
 62
     3
 10
348.622578
 20
551.937403
 11
334.622578
 21
551.937403
  0
LINE
  8
0
  6
CONTINUOUS
 62
     3
 10
334.622578
 20
551.937403
 11
334.622578
 21
581.937403
  0
LINE
  8
0
  6
CONTINUOUS
 62
     3
 10
334.622578
 20
581.937403
 11
321.622578
 21
581.937403
  0
LINE
  8
0
  6
CONTINUOUS
 62
     3
 10
321.622578
 20
581.937403
 11
321.622578
 21
507.087403
  0
LINE
  8
0
  6
CONTINUOUS
 62
     3
 10
321.622578
 20
507.087403
 11
336.062578
 21
492.127403
  0
LINE
  8
0
  6
CONTINUOUS
 62
     3
 10
336.062578
 20
492.127403
 11
335.372578
 21
491.407403
  0
LINE
  8
0
  6
CONTINUOUS
 62
     3
 10
335.372578
 20
491.407403
 11
341.622578
 21
484.937403
  0
LINE
  8
0
  6
CONTINUOUS
 62
     3
 10
941.622578
 20
446.937403
 11
947.902578
 21
453.437403
  0
LINE
  8
0
  6
CONTINUOUS
 62
     3
 10
947.902578
 20
453.437403
 11
923.452578
 21
495.797403
  0
LINE
  8
0
  6
CONTINUOUS
 62
     3
 10
923.452578
 20
495.797403
 11
920.842578
 21
504.057403
  0
LINE
  8
0
  6
CONTINUOUS
 62
     3
 10
920.842578
 20
504.057403
 11
921.972578
 21
512.637403
  0
LINE
  8
0
  6
CONTINUOUS
 62
     3
 10
921.972578
 20
512.637403
 11
926.632578
 21
519.947403
  0
LINE
  8
0
  6
CONTINUOUS
 62
     3
 10
926.632578
 20
519.947403
 11
948.622578
 21
541.937403
  0
LINE
  8
0
  6
CONTINUOUS
 62
     3
 10
948.622578
 20
541.937403
 11
948.622578
 21
551.937403
  0
LINE
  8
0
  6
CONTINUOUS
 62
     3
 10
948.622578
 20
551.937403
 11
934.622578
 21
551.937403
  0
LINE
  8
0
  6
CONTINUOUS
 62
     3
 10
934.622578
 20
551.937403
 11
934.622578
 21
581.937403
  0
LINE
  8
0
  6
CONTINUOUS
 62
     3
 10
934.622578
 20
581.937403
 11
921.622578
 21
581.937403
  0
LINE
  8
0
  6
CONTINUOUS
 62
     3
 10
921.622578
 20
581.937403
 11
921.622578
 21
551.937403
  0
LINE
  8
0
  6
CONTINUOUS
 62
     3
 10
921.622578
 20
551.937403
 11
904.622578
 21
551.937403
  0
LINE
  8
0
  6
CONTINUOUS
 62
     3
 10
904.622578
 20
551.937403
 11
892.622578
 21
539.937403
  0
LINE
  8
0
  6
CONTINUOUS
 62
     3
 10
892.622578
 20
539.937403
 11
892.622578
 21
499.077403
  0
LINE
  8
0
  6
CONTINUOUS
 62
     3
 10
892.622578
 20
499.077403
 11
936.092578
 21
454.107403
  0
LINE
  8
0
  6
CONTINUOUS
 62
     3
 10
936.092578
 20
454.107403
 11
935.372578
 21
453.407403
  0
LINE
  8
0
  6
CONTINUOUS
 62
     3
 10
935.372578
 20
453.407403
 11
941.622578
 21
446.937403
  0
LINE
  8
0
  6
CONTINUOUS
 62
     3
 10
334.929759
 20
205.039770
 11
341.179759
 21
211.509770
  0
LINE
  8
0
  6
CONTINUOUS
 62
     3
 10
341.179759
 20
211.509770
 11
303.239759
 21
275.379770
  0
LINE
  8
0
  6
CONTINUOUS
 62
     3
 10
303.239759
 20
275.379770
 11
301.229759
 21
282.879770
  0
LINE
  8
0
  6
CONTINUOUS
 62
     3
 10
301.229759
 20
282.879770
 11
303.239759
 21
290.379770
  0
LINE
  8
0
  6
CONTINUOUS
 62
     3
 10
303.239759
 20
290.379770
 11
308.729759
 21
295.869770
  0
LINE
  8
0
  6
CONTINUOUS
 62
     3
 10
308.729759
 20
295.869770
 11
341.929759
 21
315.039770
  0
LINE
  8
0
  6
CONTINUOUS
 62
     3
 10
341.929759
 20
315.039770
 11
341.929759
 21
325.039770
  0
LINE
  8
0
  6
CONTINUOUS
 62
     3
 10
341.929759
 20
325.039770
 11
327.929759
 21
325.039770
  0
LINE
  8
0
  6
CONTINUOUS
 62
     3
 10
327.929759
 20
325.039770
 11
327.929759
 21
355.039770
  0
LINE
  8
0
  6
CONTINUOUS
 62
     3
 10
327.929759
 20
355.039770
 11
314.929759
 21
355.039770
  0
LINE
  8
0
  6
CONTINUOUS
 62
     3
 10
314.929759
 20
355.039770
 11
314.929759
 21
325.039770
  0
LINE
  8
0
  6
CONTINUOUS
 62
     3
 10
314.929759
 20
325.039770
 11
287.539759
 21
325.039770
  0
LINE
  8
0
  6
CONTINUOUS
 62
     3
 10
287.539759
 20
325.039770
 11
277.539759
 21
315.039770
  0
LINE
  8
0
  6
CONTINUOUS
 62
     3
 10
277.539759
 20
315.039770
 11
277.539759
 21
265.859770
  0
LINE
  8
0
  6
CONTINUOUS
 62
     3
 10
277.539759
 20
265.859770
 11
329.399759
 21
212.209770
  0
LINE
  8
0
  6
CONTINUOUS
 62
     3
 10
329.399759
 20
212.209770
 11
328.679759
 21
211.509770
  0
LINE
  8
0
  6
CONTINUOUS
 62
     3
 10
328.679759
 20
211.509770
 11
334.929759
 21
205.039770
  0
LINE
  8
0
  6
CONTINUOUS
 62
     3
 10
641.582795
 20
254.897633
 11
648.582795
 21
281.027633
  0
LINE
  8
0
  6
CONTINUOUS
 62
     3
 10
648.582795
 20
281.027633
 11
648.582795
 21
320.897633
  0
LINE
  8
0
  6
CONTINUOUS
 62
     3
 10
648.582795
 20
320.897633
 11
647.582795
 21
321.897633
  0
LINE
  8
0
  6
CONTINUOUS
 62
     3
 10
647.582795
 20
321.897633
 11
634.582795
 21
321.897633
  0
LINE
  8
0
  6
CONTINUOUS
 62
     3
 10
634.582795
 20
321.897633
 11
634.582795
 21
350.897633
  0
LINE
  8
0
  6
CONTINUOUS
 62
     3
 10
634.582795
 20
350.897633
 11
633.582795
 21
351.897633
  0
LINE
  8
0
  6
CONTINUOUS
 62
     3
 10
633.582795
 20
351.897633
 11
622.582795
 21
351.897633
  0
LINE
  8
0
  6
CONTINUOUS
 62
     3
 10
622.582795
 20
351.897633
 11
621.582795
 21
350.897633
  0
LINE
  8
0
  6
CONTINUOUS
 62
     3
 10
621.582795
 20
350.897633
 11
621.582795
 21
334.397633
  0
LINE
  8
0
  6
CONTINUOUS
 62
     3
 10
621.582795
 20
334.397633
 11
624.582795
 21
334.397633
  0
LINE
  8
0
  6
CONTINUOUS
 62
     3
 10
624.582795
 20
334.397633
 11
624.582795
 21
326.397633
  0
LINE
  8
0
  6
CONTINUOUS
 62
     3
 10
624.582795
 20
326.397633
 11
623.452795
 21
326.397633
  0
LINE
  8
0
  6
CONTINUOUS
 62
     3
 10
623.452795
 20
326.397633
 11
635.562795
 21
281.237633
  0
LINE
  8
0
  6
CONTINUOUS
 62
     3
 10
635.562795
 20
281.237633
 11
634.592795
 21
280.977633
  0
LINE
  8
0
  6
CONTINUOUS
 62
     3
 10
634.592795
 20
280.977633
 11
641.582795
 21
254.897633
  0
LINE
  8
0
  6
CONTINUOUS
 62
     3
 10
931.147353
 20
202.482639
 11
937.294353
 21
209.074639
  0
LINE
  8
0
  6
CONTINUOUS
 62
     3
 10
937.294353
 20
209.074639
 11
933.413353
 21
214.219639
  0
LINE
  8
0
  6
CONTINUOUS
 62
     3
 10
933.413353
 20
214.219639
 11
930.978353
 21
220.184639
  0
LINE
  8
0
  6
CONTINUOUS
 62
     3
 10
930.978353
 20
220.184639
 11
930.147353
 21
226.575639
  0
LINE
  8
0
  6
CONTINUOUS
 62
     3
 10
930.147353
 20
226.575639
 11
930.147353
 21
293.575639
  0
LINE
  8
0
  6
CONTINUOUS
 62
     3
 10
930.147353
 20
293.575639
 11
931.082353
 21
300.348639
  0
LINE
  8
0
  6
CONTINUOUS
 62
     3
 10
931.082353
 20
300.348639
 11
933.816353
 21
306.614639
  0
LINE
  8
0
  6
CONTINUOUS
 62
     3
 10
933.816353
 20
306.614639
 11
938.147353
 21
311.905639
  0
LINE
  8
0
  6
CONTINUOUS
 62
     3
 10
938.147353
 20
311.905639
 11
938.147353
 21
322.575639
  0
LINE
  8
0
  6
CONTINUOUS
 62
     3
 10
938.147353
 20
322.575639
 11
924.147353
 21
322.575639
  0
LINE
  8
0
  6
CONTINUOUS
 62
     3
 10
924.147353
 20
322.575639
 11
924.147353
 21
352.575639
  0
LINE
  8
0
  6
CONTINUOUS
 62
     3
 10
924.147353
 20
352.575639
 11
913.761353
 21
352.575639
  0
LINE
  8
0
  6
CONTINUOUS
 62
     3
 10
913.761353
 20
352.575639
 11
910.989353
 21
335.075639
  0
LINE
  8
0
  6
CONTINUOUS
 62
     3
 10
910.989353
 20
335.075639
 11
914.147353
 21
335.075639
  0
LINE
  8
0
  6
CONTINUOUS
 62
     3
 10
914.147353
 20
335.075639
 11
914.147353
 21
327.075639
  0
LINE
  8
0
  6
CONTINUOUS
 62
     3
 10
914.147353
 20
327.075639
 11
911.147353
 21
327.075639
  0
LINE
  8
0
  6
CONTINUOUS
 62
     3
 10
911.147353
 20
327.075639
 11
911.147353
 21
226.128639
  0
LINE
  8
0
  6
CONTINUOUS
 62
     3
 10
911.147353
 20
226.128639
 11
926.107353
 21
210.087639
  0
LINE
  8
0
  6
CONTINUOUS
 62
     3
 10
926.107353
 20
210.087639
 11
925.010353
 21
209.064639
  0
LINE
  8
0
  6
CONTINUOUS
 62
     3
 10
925.010353
 20
209.064639
 11
931.147353
 21
202.482639
  0
LINE
  8
0
  6
CONTINUOUS
 62
     3
 10
334.889976
 20
0.000000
 11
337.889976
 21
3.000000
  0
LINE
  8
0
  6
CONTINUOUS
 62
     3
 10
337.889976
 20
3.000000
 11
337.889976
 21
66.000000
  0
LINE
  8
0
  6
CONTINUOUS
 62
     3
 10
337.889976
 20
66.000000
 11
341.889976
 21
70.000000
  0
LINE
  8
0
  6
CONTINUOUS
 62
     3
 10
341.889976
 20
70.000000
 11
341.889976
 21
95.000000
  0
LINE
  8
0
  6
CONTINUOUS
 62
     3
 10
341.889976
 20
95.000000
 11
327.889976
 21
95.000000
  0
LINE
  8
0
  6
CONTINUOUS
 62
     3
 10
327.889976
 20
95.000000
 11
327.889976
 21
125.000000
  0
LINE
  8
0
  6
CONTINUOUS
 62
     3
 10
327.889976
 20
125.000000
 11
314.889976
 21
125.000000
  0
LINE
  8
0
  6
CONTINUOUS
 62
     3
 10
314.889976
 20
125.000000
 11
314.889976
 21
83.000000
  0
LINE
  8
0
  6
CONTINUOUS
 62
     3
 10
314.889976
 20
83.000000
 11
331.889976
 21
66.000000
  0
LINE
  8
0
  6
CONTINUOUS
 62
     3
 10
331.889976
 20
66.000000
 11
331.889976
 21
3.000000
  0
LINE
  8
0
  6
CONTINUOUS
 62
     3
 10
331.889976
 20
3.000000
 11
334.889976
 21
0.000000
  0
TEXT
  8
0
 62
     7
 10
314.763767
 20
605.203277
 40
7.500000
  1
ã‡å^ID
 41
0.900000
  7
GOTHIC
 72
     1
 11
324.888767
 21
605.203277
  0
TEXT
  8
0
 62
     7
 10
614.763767
 20
589.203277
 40
15.000000
  1
01002
 41
0.900000
  7
GOTHIC
 72
     1
 11
631.638767
 21
589.203277
  0
TEXT
  8
0
 62
     7
 10
614.763767
 20
605.203277
 40
7.500000
  1
ã‡å^ID
 41
0.900000
  7
GOTHIC
 72
     1
 11
624.888767
 21
605.203277
  0
POINT
  8
0
 62
     5
 10
621.622578
 20
581.937403
  0
LINE
  8
0
  6
CONTINUOUS
 62
   134
 10
652.716480
 20
458.561463
 11
651.867060
 21
457.031435
  0
LINE
  8
0
  6
CONTINUOUS
 62
   134
 10
651.867060
 20
457.031435
 11
653.367693
 21
457.931768
  0
LINE
  8
0
  6
CONTINUOUS
 62
   134
 10
656.577639
 20
461.251407
 11
657.427060
 21
462.781435
  0
LINE
  8
0
  6
CONTINUOUS
 62
   134
 10
657.427060
 20
462.781435
 11
655.926426
 21
461.881102
  0
LINE
  8
0
  6
CONTINUOUS
 62
   134
 10
651.867060
 20
457.031435
 11
657.427060
 21
462.781435
  0
TEXT
  8
0
 62
   134
 10
653.635933
 20
459.580046
 40
5.000000
  1
8
 50
45.962438
 41
0.750000
  7
GOTHIC
 72
     1
 11
654.287617
 21
460.254000
  0
LINE
  8
0
  6
CONTINUOUS
 62
   134
 10
642.521183
 20
466.068491
 11
652.765665
 21
456.162523
  0
LINE
  8
0
  6
CONTINUOUS
 62
   134
 10
648.081183
 20
471.818491
 11
658.325665
 21
461.912523
  0
LINE
  8
0
  6
CONTINUOUS
 62
   134
 10
622.201691
 20
489.453686
 11
621.301358
 21
487.953053
  0
LINE
  8
0
  6
CONTINUOUS
 62
   134
 10
621.301358
 20
487.953053
 11
622.831386
 21
488.802473
  0
LINE
  8
0
  6
CONTINUOUS
 62
   134
 10
660.413769
 20
488.802473
 11
661.943797
 21
487.953053
  0
LINE
  8
0
  6
CONTINUOUS
 62
   134
 10
661.943797
 20
487.953053
 11
661.043464
 21
489.453686
  0
ARC
  8
0
  6
CONTINUOUS
 62
   134
 10
641.622578
 20
466.937403
 40
29.233705
 50
45.962438
 51
134.037562
  0
TEXT
  8
0
 62
   134
 10
636.935078
 20
496.671108
 40
5.000000
  1
88.1ﬂ
 41
0.750000
  7
GOTHIC
 72
     1
 11
641.622578
 21
496.671108
  0
LINE
  8
0
  6
CONTINUOUS
 62
   134
 10
635.193666
 20
473.586009
 11
620.432446
 21
488.851658
  0
LINE
  8
0
  6
CONTINUOUS
 62
   134
 10
648.051490
 20
473.586009
 11
662.812710
 21
488.851658
  0
LINE
  8
0
  6
CONTINUOUS
 62
   134
 10
674.289198
 20
550.247033
 11
673.836264
 21
551.937403
  0
LINE
  8
0
  6
CONTINUOUS
 62
   134
 10
673.836264
 20
551.937403
 11
673.383331
 21
550.247033
  0
LINE
  8
0
  6
CONTINUOUS
 62
   134
 10
673.383331
 20
468.627774
 11
673.836264
 21
466.937403
  0
LINE
  8
0
  6
CONTINUOUS
 62
   134
 10
673.836264
 20
466.937403
 11
674.289198
 21
468.627774
  0
LINE
  8
0
  6
CONTINUOUS
 62
   134
 10
673.836264
 20
551.937403
 11
673.836264
 21
466.937403
  0
TEXT
  8
0
 62
   134
 10
673.336264
 20
507.562403
 40
5.000000
  1
85
 50
90.000000
 41
0.750000
  7
GOTHIC
 72
     1
 11
673.336264
 21
509.437403
  0
LINE
  8
0
  6
CONTINUOUS
 62
   134
 10
649.872578
 20
551.937403
 11
675.086264
 21
551.937403
  0
LINE
  8
0
  6
CONTINUOUS
 62
   134
 10
642.872578
 20
466.937403
 11
675.086264
 21
466.937403
  0
LINE
  8
0
  6
CONTINUOUS
 62
   134
 10
600.642338
 20
580.247033
 11
600.189405
 21
581.937403
  0
LINE
  8
0
  6
CONTINUOUS
 62
   134
 10
600.189405
 20
581.937403
 11
599.736471
 21
580.247033
  0
LINE
  8
0
  6
CONTINUOUS
 62
   134
 10
599.736471
 20
468.627774
 11
600.189405
 21
466.937403
  0
LINE
  8
0
  6
CONTINUOUS
 62
   134
 10
600.189405
 20
466.937403
 11
600.642338
 21
468.627774
  0
LINE
  8
0
  6
CONTINUOUS
 62
   134
 10
600.189405
 20
581.937403
 11
600.189405
 21
466.937403
  0
TEXT
  8
0
 62
   134
 10
599.689405
 20
521.624903
 40
5.000000
  1
115
 50
90.000000
 41
0.750000
  7
GOTHIC
 72
     1
 11
599.689405
 21
524.437403
  0
LINE
  8
0
  6
CONTINUOUS
 62
   134
 10
620.372578
 20
581.937403
 11
598.939405
 21
581.937403
  0
LINE
  8
0
  6
CONTINUOUS
 62
   134
 10
640.372578
 20
466.937403
 11
598.939405
 21
466.937403
  0
LINE
  8
0
  6
CONTINUOUS
 62
     3
 10
641.622578
 20
466.937403
 11
647.182578
 21
472.687403
  0
LINE
  8
0
  6
CONTINUOUS
 62
     3
 10
647.182578
 20
472.687403
 11
641.302578
 21
478.777403
  0
LINE
  8
0
  6
CONTINUOUS
 62
     3
 10
641.302578
 20
478.777403
 11
639.622578
 21
482.947403
  0
LINE
  8
0
  6
CONTINUOUS
 62
     3
 10
639.622578
 20
482.947403
 11
639.622578
 21
535.867403
  0
LINE
  8
0
  6
CONTINUOUS
 62
     3
 10
639.622578
 20
535.867403
 11
641.082578
 21
539.407403
  0
LINE
  8
0
  6
CONTINUOUS
 62
     3
 10
641.082578
 20
539.407403
 11
648.622578
 21
546.937403
  0
LINE
  8
0
  6
CONTINUOUS
 62
     3
 10
648.622578
 20
546.937403
 11
648.622578
 21
551.937403
  0
LINE
  8
0
  6
CONTINUOUS
 62
     3
 10
648.622578
 20
551.937403
 11
634.622578
 21
551.937403
  0
LINE
  8
0
  6
CONTINUOUS
 62
     3
 10
634.622578
 20
551.937403
 11
634.622578
 21
581.937403
  0
LINE
  8
0
  6
CONTINUOUS
 62
     3
 10
634.622578
 20
581.937403
 11
621.622578
 21
581.937403
  0
LINE
  8
0
  6
CONTINUOUS
 62
     3
 10
621.622578
 20
581.937403
 11
621.622578
 21
546.937403
  0
LINE
  8
0
  6
CONTINUOUS
 62
     3
 10
621.622578
 20
546.937403
 11
628.152578
 21
540.407403
  0
LINE
  8
0
  6
CONTINUOUS
 62
     3
 10
628.152578
 20
540.407403
 11
629.622578
 21
536.867403
  0
LINE
  8
0
  6
CONTINUOUS
 62
     3
 10
629.622578
 20
536.867403
 11
629.622578
 21
480.797403
  0
LINE
  8
0
  6
CONTINUOUS
 62
     3
 10
629.622578
 20
480.797403
 11
636.782578
 21
473.387403
  0
LINE
  8
0
  6
CONTINUOUS
 62
     3
 10
636.782578
 20
473.387403
 11
636.062578
 21
472.687403
  0
LINE
  8
0
  6
CONTINUOUS
 62
     3
 10
636.062578
 20
472.687403
 11
641.622578
 21
466.937403
  0
TEXT
  8
0
 62
     7
 10
914.763767
 20
589.203277
 40
15.000000
  1
04502
 41
0.900000
  7
GOTHIC
 72
     1
 11
931.638767
 21
589.203277
  0
TEXT
  8
0
 62
     7
 10
914.763767
 20
605.203277
 40
7.500000
  1
ã‡å^ID
 41
0.900000
  7
GOTHIC
 72
     1
 11
924.888767
 21
605.203277
  0
POINT
  8
0
 62
     5
 10
921.622578
 20
581.937403
  0
TEXT
  8
0
 62
     7
 10
314.723984
 20
359.163507
 40
15.000000
  1
04702
 41
0.900000
  7
GOTHIC
 72
     1
 11
331.598984
 21
359.163507
  0
TEXT
  8
0
 62
     7
 10
314.723984
 20
375.163507
 40
7.500000
  1
ã‡å^ID
 41
0.900000
  7
GOTHIC
 72
     1
 11
324.848984
 21
375.163507
  0
TEXT
  8
0
 62
     7
 10
614.723984
 20
359.163507
 40
15.000000
  1
01003
 41
0.900000
  7
GOTHIC
 72
     1
 11
631.598984
 21
359.163507
  0
TEXT
  8
0
 62
     7
 10
614.723984
 20
375.163507
 40
7.500000
  1
ã‡å^ID
 41
0.900000
  7
GOTHIC
 72
     1
 11
624.848984
 21
375.163507
  0
POINT
  8
0
 62
     5
 10
621.582795
 20
351.897633
  0
TEXT
  8
0
 62
     7
 10
911.348984
 20
359.163507
 40
15.000000
  1
904061
 41
0.900000
  7
GOTHIC
 72
     1
 11
931.598984
 21
359.163507
  0
TEXT
  8
0
 62
     7
 10
914.723984
 20
375.163507
 40
7.500000
  1
ã‡å^ID
 41
0.900000
  7
GOTHIC
 72
     1
 11
924.848984
 21
375.163507
  0
TEXT
  8
0
 62
     7
 10
14.763767
 20
589.203277
 40
15.000000
  1
00402
 41
0.900000
  7
GOTHIC
 72
     1
 11
31.638767
 21
589.203277
  0
TEXT
  8
0
 62
     7
 10
14.763767
 20
605.203277
 40
7.500000
  1
ã‡å^ID
 41
0.900000
  7
GOTHIC
 72
     1
 11
24.888767
 21
605.203277
  0
POINT
  8
0
 62
     5
 10
21.622578
 20
581.937403
  0
TEXT
  8
0
 62
     7
 10
314.684202
 20
129.123736
 40
15.000000
  1
10600
 41
0.900000
  7
GOTHIC
 72
     1
 11
331.559202
 21
129.123736
  0
TEXT
  8
0
 62
     7
 10
314.684202
 20
145.123736
 40
7.500000
  1
ã‡å^ID
 41
0.900000
  7
GOTHIC
 72
     1
 11
324.809202
 21
145.123736
  0
TEXT
  8
0
 62
     7
 10
914.684202
 20
129.123736
 40
15.000000
  1
71606
 41
0.900000
  7
GOTHIC
 72
     1
 11
931.559202
 21
129.123736
  0
TEXT
  8
0
 62
     7
 10
914.684202
 20
145.123736
 40
7.500000
  1
ã‡å^ID
 41
0.900000
  7
GOTHIC
 72
     1
 11
924.809202
 21
145.123736
  0
POINT
  8
0
 62
     5
 10
314.889976
 20
125.000000
  0
POINT
  8
0
 62
     5
 10
913.721570
 20
122.535868
  0
LINE
  8
0
  6
CONTINUOUS
 62
   134
 10
896.320400
 20
120.845498
 11
895.867466
 21
122.535868
  0
LINE
  8
0
  6
CONTINUOUS
 62
   134
 10
895.867466
 20
122.535868
 11
895.414533
 21
120.845498
  0
LINE
  8
0
  6
CONTINUOUS
 62
   134
 10
895.414533
 20
27.226238
 11
895.867466
 21
25.535868
  0
LINE
  8
0
  6
CONTINUOUS
 62
   134
 10
895.867466
 20
25.535868
 11
896.320400
 21
27.226238
  0
LINE
  8
0
  6
CONTINUOUS
 62
   134
 10
895.867466
 20
122.535868
 11
895.867466
 21
25.535868
  0
TEXT
  8
0
 62
   134
 10
895.367466
 20
72.160868
 40
5.000000
  1
97
 50
90.000000
 41
0.750000
  7
GOTHIC
 72
     1
 11
895.367466
 21
74.035868
  0
LINE
  8
0
  6
CONTINUOUS
 62
   134
 10
912.471570
 20
122.535868
 11
894.617466
 21
122.535868
  0
LINE
  8
0
  6
CONTINUOUS
 62
   134
 10
932.471570
 20
25.535868
 11
894.617466
 21
25.535868
  0
LINE
  8
0
  6
CONTINUOUS
 62
   134
 10
946.528529
 20
15.119454
 11
945.653529
 21
13.603910
  0
LINE
  8
0
  6
CONTINUOUS
 62
   134
 10
945.653529
 20
13.603910
 11
947.169073
 21
14.478910
  0
LINE
  8
0
  6
CONTINUOUS
 62
   134
 10
947.608529
 20
14.918365
 11
948.483529
 21
16.433910
  0
LINE
  8
0
  6
CONTINUOUS
 62
   134
 10
948.483529
 20
16.433910
 11
946.967984
 21
15.558910
  0
LINE
  8
0
  6
CONTINUOUS
 62
   134
 10
945.653529
 20
13.603910
 11
948.483529
 21
16.433910
  0
TEXT
  8
0
 62
   134
 10
946.052063
 20
14.709551
 40
5.000000
  1
4
 50
45.000000
 41
0.750000
  7
GOTHIC
 72
     1
 11
946.714975
 21
15.372463
  0
LINE
  8
0
  6
CONTINUOUS
 62
   134
 10
934.605454
 20
24.651985
 11
946.537412
 21
12.720026
  0
LINE
  8
0
  6
CONTINUOUS
 62
   134
 10
937.435454
 20
27.481985
 11
949.367412
 21
15.550026
  0
LINE
  8
0
  6
CONTINUOUS
 62
   134
 10
919.933019
 20
42.254330
 11
919.031384
 21
40.754479
  0
LINE
  8
0
  6
CONTINUOUS
 62
   134
 10
919.031384
 20
40.754479
 11
920.562149
 21
41.602570
  0
LINE
  8
0
  6
CONTINUOUS
 62
   134
 10
947.162759
 20
41.367601
 11
948.678303
 21
40.492601
  0
LINE
  8
0
  6
CONTINUOUS
 62
   134
 10
948.678303
 20
40.492601
 11
947.803303
 21
42.008145
  0
ARC
  8
0
  6
CONTINUOUS
 62
   134
 10
933.721570
 20
25.535868
 40
21.152014
 50
45.000000
 51
133.987812
  0
TEXT
  8
0
 62
   134
 10
931.100430
 20
47.211880
 40
5.000000
  1
89ﬂ
 50
359.493906
 41
0.750000
  7
GOTHIC
 72
     1
 11
933.912820
 21
47.187038
  0
LINE
  8
0
  6
CONTINUOUS
 62
   134
 10
930.073439
 20
29.315228
 11
918.163252
 21
41.653838
  0
LINE
  8
0
  6
CONTINUOUS
 62
   134
 10
937.435454
 20
29.249752
 11
949.562186
 21
41.376484
  0
LINE
  8
0
  6
CONTINUOUS
 62
   134
 10
960.141523
 20
90.845498
 11
959.688590
 21
92.535868
  0
LINE
  8
0
  6
CONTINUOUS
 62
   134
 10
959.688590
 20
92.535868
 11
959.235657
 21
90.845498
  0
LINE
  8
0
  6
CONTINUOUS
 62
   134
 10
959.235657
 20
27.226238
 11
959.688590
 21
25.535868
  0
LINE
  8
0
  6
CONTINUOUS
 62
   134
 10
959.688590
 20
25.535868
 11
960.141523
 21
27.226238
  0
LINE
  8
0
  6
CONTINUOUS
 62
   134
 10
959.688590
 20
92.535868
 11
959.688590
 21
25.535868
  0
TEXT
  8
0
 62
   134
 10
959.188590
 20
57.160868
 40
5.000000
  1
67
 50
90.000000
 41
0.750000
  7
GOTHIC
 72
     1
 11
959.188590
 21
59.035868
  0
LINE
  8
0
  6
CONTINUOUS
 62
   134
 10
940.971570
 20
92.535868
 11
960.938590
 21
92.535868
  0
LINE
  8
0
  6
CONTINUOUS
 62
   134
 10
934.971570
 20
25.535868
 11
960.938590
 21
25.535868
  0
LINE
  8
0
  6
CONTINUOUS
 62
     3
 10
933.721570
 20
25.535868
 11
936.551570
 21
28.365868
  0
LINE
  8
0
  6
CONTINUOUS
 62
     3
 10
936.551570
 20
28.365868
 11
930.861570
 21
36.895868
  0
LINE
  8
0
  6
CONTINUOUS
 62
     3
 10
930.861570
 20
36.895868
 11
928.641570
 21
42.315868
  0
LINE
  8
0
  6
CONTINUOUS
 62
     3
 10
928.641570
 20
42.315868
 11
928.671570
 21
48.165868
  0
LINE
  8
0
  6
CONTINUOUS
 62
     3
 10
928.671570
 20
48.165868
 11
930.011570
 21
51.975868
  0
LINE
  8
0
  6
CONTINUOUS
 62
     3
 10
930.011570
 20
51.975868
 11
939.721570
 21
71.045868
  0
LINE
  8
0
  6
CONTINUOUS
 62
     3
 10
939.721570
 20
71.045868
 11
939.721570
 21
92.535868
  0
LINE
  8
0
  6
CONTINUOUS
 62
     3
 10
939.721570
 20
92.535868
 11
926.721570
 21
92.535868
  0
LINE
  8
0
  6
CONTINUOUS
 62
     3
 10
926.721570
 20
92.535868
 11
926.721570
 21
122.535868
  0
LINE
  8
0
  6
CONTINUOUS
 62
     3
 10
926.721570
 20
122.535868
 11
913.721570
 21
122.535868
  0
LINE
  8
0
  6
CONTINUOUS
 62
     3
 10
913.721570
 20
122.535868
 11
913.721570
 21
46.345868
  0
LINE
  8
0
  6
CONTINUOUS
 62
     3
 10
913.721570
 20
46.345868
 11
931.291570
 21
28.765868
  0
LINE
  8
0
  6
CONTINUOUS
 62
     3
 10
931.291570
 20
28.765868
 11
930.941570
 21
28.415868
  0
LINE
  8
0
  6
CONTINUOUS
 62
     3
 10
930.941570
 20
28.415868
 11
933.721570
 21
25.535868
  0
ENDSEC
  0
EOF
