  0
SECTION
  2
HEADER
  9
$ACADVER
  1
AC1009
  9
$DWGCODEPAGE
  3
dos932
  9
$EXTMIN
 10
0.000000
 20
0.000000
  9
$EXTMAX
 10
2588.577148
 20
1659.286532
  9
$LIMMIN
 10
0.000000
 20
0.000000
  9
$LIMMAX
 10
2588.577148
 20
1659.286532
  9
$LTSCALE
 40
1.000000
  0
ENDSEC
  0
SECTION
  2
TABLES
  0
TABLE
  2
VPORT
 70
     1
  0
VPORT
  2
*ACTIVE
 70
     0
 10
0.000000
 20
0.000000
 11
1.000000
 21
1.000000
 12
1294.288574
 22
829.643266
 13
0.000000
 23
0.000000
 14
1.000000
 24
1.000000
 15
0.000000
 25
0.000000
 16
0.000000
 26
0.000000
 36
1.000000
 17
0.000000
 27
0.000000
 37
0.000000
 40
1659.286532
 41
1.560054
 42
50.000000
 43
0.000000
 44
0.000000
 50
0.000000
 51
0.000000
 71
     0
 72
   100
 73
     1
 74
     1
 75
     0
 76
     0
 77
     0
 78
     0
  0
ENDTAB
  0
TABLE
  2
LTYPE
 70
     5
  0
LTYPE
  2
CONTINUOUS
 70
    64
  3
CONTINUOUS
 72
    65
 73
     0
 40
0.000000
  0
LTYPE
  2
DASHED
 70
    64
  3
DASHED
 72
    65
 73
     2
 40
0.750000
 49
0.500000
 49
-0.250000
  0
LTYPE
  2
HIDDEN
 70
    64
  3
HIDDEN
 72
    65
 73
     2
 40
0.375000
 49
0.250000
 49
-0.125000
  0
LTYPE
  2
CENTER
 70
    64
  3
CENTER
 72
    65
 73
     4
 40
2.000000
 49
1.250000
 49
-0.250000
 49
0.250000
 49
-0.250000
  0
LTYPE
  2
PHANTOM
 70
    64
  3
PHANTOM
 72
    65
 73
     6
 40
2.500000
 49
1.250000
 49
-0.250000
 49
0.250000
 49
-0.250000
 49
0.250000
 49
-0.250000
  0
ENDTAB
  0
TABLE
  2
LAYER
 70
     1
  0
LAYER
  2
0
 70
     0
 62
     7
  6
CONTINUOUS
  0
ENDTAB
  0
TABLE
  2
STYLE
 70
     6
  0
STYLE
  2
STANDARD
 70
     0
 40
0.000000
 41
1.000000
 50
0.000000
 71
     0
 42
0.200000
  3
TXT
  4
BIGFONT
  0
STYLE
  2
TATEGAKI
 70
     4
 40
0.000000
 41
1.000000
 50
0.000000
 71
     0
 42
0.200000
  3
TXT
  4
BIGFONT
  0
STYLE
  2
MINCHO
 70
     0
 40
0.000000
 41
1.000000
 50
0.000000
 71
     0
 42
0.200000
  3
‚l‚r –¾’©
  4

  0
STYLE
  2
MINCHOV
 70
     0
 40
0.000000
 41
1.000000
 50
0.000000
 71
     0
 42
0.200000
  3
@‚l‚r –¾’©
  4

  0
STYLE
  2
GOTHIC
 70
     0
 40
0.000000
 41
1.000000
 50
0.000000
 71
     0
 42
0.200000
  3
‚l‚r ƒSƒVƒbƒN
  4

  0
STYLE
  2
GOTHICV
 70
     0
 40
0.000000
 41
1.000000
 50
0.000000
 71
     0
 42
0.200000
  3
@‚l‚r ƒSƒVƒbƒN
  4

  0
ENDTAB
  0
ENDSEC
  0
SECTION
  2
BLOCKS
  0
ENDSEC
  0
SECTION
  2
ENTITIES
  0
LINE
  8
0
  6
CONTINUOUS
 62
     2
 10
521.221985
 20
1146.564130
 11
466.721985
 21
1146.564130
  0
LINE
  8
0
  6
CONTINUOUS
 62
     2
 10
581.221985
 20
1056.564130
 11
521.221985
 21
1056.564130
  0
LINE
  8
0
  6
CONTINUOUS
 62
     2
 10
581.221985
 20
1056.564130
 11
581.221985
 21
1006.564130
  0
LINE
  8
0
  6
CONTINUOUS
 62
     2
 10
521.221985
 20
1146.564130
 11
521.221985
 21
1056.564130
  0
LINE
  8
0
  6
CONTINUOUS
 62
     2
 10
661.221985
 20
181.564130
 11
661.221985
 21
1006.564130
  0
LINE
  8
0
  6
CONTINUOUS
 62
     2
 10
581.221985
 20
1006.564130
 11
661.221985
 21
1006.564130
  0
LINE
  8
0
  6
CONTINUOUS
 62
     2
 10
386.221985
 20
1146.564130
 11
441.721985
 21
1146.564130
  0
LINE
  8
0
  6
CONTINUOUS
 62
     2
 10
326.221985
 20
1056.564130
 11
386.221985
 21
1056.564130
  0
LINE
  8
0
  6
CONTINUOUS
 62
     2
 10
326.221985
 20
1056.564130
 11
326.221985
 21
1006.564130
  0
LINE
  8
0
  6
CONTINUOUS
 62
     2
 10
386.221985
 20
1146.564130
 11
386.221985
 21
1056.564130
  0
LINE
  8
0
  6
CONTINUOUS
 62
     2
 10
246.221985
 20
181.564130
 11
246.221985
 21
1006.564130
  0
LINE
  8
0
  6
CONTINUOUS
 62
     2
 10
326.221985
 20
1006.564130
 11
246.221985
 21
1006.564130
  0
LINE
  8
0
  6
CONTINUOUS
 62
     3
 10
453.721985
 20
1411.564130
 11
459.868985
 21
1418.156130
  0
LINE
  8
0
  6
CONTINUOUS
 62
     3
 10
459.868985
 20
1418.156130
 11
455.987985
 21
1423.301130
  0
LINE
  8
0
  6
CONTINUOUS
 62
     3
 10
455.987985
 20
1423.301130
 11
453.552985
 21
1429.266130
  0
LINE
  8
0
  6
CONTINUOUS
 62
     3
 10
453.552985
 20
1429.266130
 11
452.721985
 21
1435.657130
  0
LINE
  8
0
  6
CONTINUOUS
 62
     3
 10
452.721985
 20
1435.657130
 11
452.721985
 21
1502.657130
  0
LINE
  8
0
  6
CONTINUOUS
 62
     3
 10
452.721985
 20
1502.657130
 11
453.656985
 21
1509.430130
  0
LINE
  8
0
  6
CONTINUOUS
 62
     3
 10
453.656985
 20
1509.430130
 11
456.390985
 21
1515.696130
  0
LINE
  8
0
  6
CONTINUOUS
 62
     3
 10
456.390985
 20
1515.696130
 11
460.721985
 21
1520.987130
  0
LINE
  8
0
  6
CONTINUOUS
 62
     3
 10
460.721985
 20
1520.987130
 11
460.721985
 21
1531.657130
  0
LINE
  8
0
  6
CONTINUOUS
 62
     3
 10
460.721985
 20
1531.657130
 11
446.721985
 21
1531.657130
  0
LINE
  8
0
  6
CONTINUOUS
 62
     3
 10
446.721985
 20
1531.657130
 11
446.721985
 21
1561.657130
  0
LINE
  8
0
  6
CONTINUOUS
 62
     3
 10
446.721985
 20
1561.657130
 11
436.335985
 21
1561.657130
  0
LINE
  8
0
  6
CONTINUOUS
 62
     3
 10
436.335985
 20
1561.657130
 11
433.563985
 21
1544.157130
  0
LINE
  8
0
  6
CONTINUOUS
 62
     3
 10
433.563985
 20
1544.157130
 11
436.721985
 21
1544.157130
  0
LINE
  8
0
  6
CONTINUOUS
 62
     3
 10
436.721985
 20
1544.157130
 11
436.721985
 21
1536.157130
  0
LINE
  8
0
  6
CONTINUOUS
 62
     3
 10
436.721985
 20
1536.157130
 11
433.721985
 21
1536.157130
  0
LINE
  8
0
  6
CONTINUOUS
 62
     3
 10
433.721985
 20
1536.157130
 11
433.721985
 21
1435.210130
  0
LINE
  8
0
  6
CONTINUOUS
 62
     3
 10
433.721985
 20
1435.210130
 11
448.681985
 21
1419.169130
  0
LINE
  8
0
  6
CONTINUOUS
 62
     3
 10
448.681985
 20
1419.169130
 11
447.584985
 21
1418.146130
  0
LINE
  8
0
  6
CONTINUOUS
 62
     3
 10
447.584985
 20
1418.146130
 11
453.721985
 21
1411.564130
  0
LINE
  8
0
  6
CONTINUOUS
 62
     2
 10
479.738766
 20
1603.871109
 11
479.738766
 21
1556.375766
  0
LINE
  8
0
  6
CONTINUOUS
 62
     2
 10
479.738766
 20
1556.375766
 11
475.517742
 21
1540.414738
  0
LINE
  8
0
  6
CONTINUOUS
 62
     2
 10
467.175843
 20
1540.414738
 11
467.175843
 21
1561.657130
  0
LINE
  8
0
  6
CONTINUOUS
 62
     2
 10
467.175843
 20
1561.657130
 11
456.543341
 21
1561.657130
  0
LINE
  8
0
  6
CONTINUOUS
 62
     2
 10
456.543341
 20
1561.657130
 11
456.543341
 21
1536.545547
  0
LINE
  8
0
  6
CONTINUOUS
 62
     2
 10
456.543341
 20
1536.545547
 11
446.721985
 21
1536.545547
  0
LINE
  8
0
  6
CONTINUOUS
 62
     2
 10
446.721985
 20
1536.545547
 11
446.721985
 21
1561.657130
  0
LINE
  8
0
  6
CONTINUOUS
 62
     2
 10
446.721985
 20
1561.657130
 11
433.721053
 21
1561.657130
  0
LINE
  8
0
  6
CONTINUOUS
 62
     2
 10
433.721053
 20
1561.657130
 11
433.721053
 21
1540.996953
  0
LINE
  8
0
  6
CONTINUOUS
 62
     2
 10
433.721053
 20
1540.996953
 11
426.725987
 21
1540.996953
  0
LINE
  8
0
  6
CONTINUOUS
 62
     2
 10
426.725987
 20
1540.996953
 11
421.356037
 21
1554.563143
  0
LINE
  8
0
  6
CONTINUOUS
 62
     2
 10
421.356037
 20
1554.563143
 11
421.356037
 21
1583.900028
  0
LINE
  8
0
  6
CONTINUOUS
 62
     2
 10
421.356037
 20
1583.900028
 11
412.167063
 21
1583.900028
  0
LINE
  8
0
  6
CONTINUOUS
 62
     2
 10
412.167063
 20
1583.900028
 11
412.167063
 21
1609.057538
  0
LINE
  8
0
  6
CONTINUOUS
 62
     2
 10
412.167063
 20
1609.057538
 11
401.441294
 21
1616.236314
  0
LINE
  8
0
  6
CONTINUOUS
 62
     2
 10
401.441294
 20
1616.236314
 11
401.441294
 21
1631.780906
  0
LINE
  8
0
  6
CONTINUOUS
 62
     2
 10
401.441294
 20
1631.780906
 11
405.420710
 21
1631.780906
  0
LINE
  8
0
  6
CONTINUOUS
 62
     2
 10
405.420710
 20
1631.780906
 11
405.420710
 21
1629.621621
  0
LINE
  8
0
  6
CONTINUOUS
 62
     2
 10
405.420710
 20
1629.621621
 11
414.521362
 21
1623.969042
  0
LINE
  8
0
  6
CONTINUOUS
 62
     2
 10
414.521362
 20
1623.969042
 11
418.817322
 21
1616.598079
  0
LINE
  8
0
  6
CONTINUOUS
 62
     2
 10
418.817322
 20
1616.598079
 11
424.424681
 21
1616.598079
  0
LINE
  8
0
  6
CONTINUOUS
 62
     2
 10
424.424681
 20
1616.598079
 11
424.424681
 21
1659.286532
  0
LINE
  8
0
  6
CONTINUOUS
 62
     2
 10
424.424681
 20
1659.286532
 11
433.530985
 21
1659.286532
  0
LINE
  8
0
  6
CONTINUOUS
 62
     2
 10
433.530985
 20
1659.286532
 11
433.530985
 21
1633.214011
  0
LINE
  8
0
  6
CONTINUOUS
 62
     2
 10
433.530985
 20
1633.214011
 11
466.341337
 21
1633.214011
  0
LINE
  8
0
  6
CONTINUOUS
 62
     2
 10
466.341337
 20
1633.214011
 11
466.341337
 21
1603.871109
  0
LINE
  8
0
  6
CONTINUOUS
 62
     2
 10
466.341337
 20
1603.871109
 11
479.738766
 21
1603.871109
  0
LINE
  8
0
  6
CONTINUOUS
 62
     2
 10
467.175843
 20
1540.414738
 11
475.517742
 21
1540.414738
  0
LINE
  8
0
  6
CONTINUOUS
 62
     3
 10
424.221985
 20
1131.564130
 11
484.221985
 21
1131.564130
  0
LINE
  8
0
  6
CONTINUOUS
 62
     3
 10
484.221985
 20
1131.564130
 11
484.221985
 21
1146.564130
  0
LINE
  8
0
  6
CONTINUOUS
 62
     3
 10
484.221985
 20
1146.564130
 11
466.721985
 21
1146.564130
  0
LINE
  8
0
  6
CONTINUOUS
 62
     3
 10
466.721985
 20
1146.564130
 11
466.721985
 21
1193.064130
  0
LINE
  8
0
  6
CONTINUOUS
 62
     3
 10
466.721985
 20
1193.064130
 11
461.221985
 21
1193.064130
  0
LINE
  8
0
  6
CONTINUOUS
 62
     3
 10
461.221985
 20
1193.064130
 11
461.221985
 21
1183.064130
  0
LINE
  8
0
  6
CONTINUOUS
 62
     3
 10
461.221985
 20
1183.064130
 11
447.221985
 21
1183.064130
  0
LINE
  8
0
  6
CONTINUOUS
 62
     3
 10
447.221985
 20
1183.064130
 11
447.221985
 21
1193.064130
  0
LINE
  8
0
  6
CONTINUOUS
 62
     3
 10
447.221985
 20
1193.064130
 11
439.721985
 21
1193.064130
  0
LINE
  8
0
  6
CONTINUOUS
 62
     3
 10
439.721985
 20
1193.064130
 11
439.721985
 21
1180.564130
  0
LINE
  8
0
  6
CONTINUOUS
 62
     3
 10
439.721985
 20
1180.564130
 11
435.721985
 21
1180.564130
  0
LINE
  8
0
  6
CONTINUOUS
 62
     3
 10
435.721985
 20
1180.564130
 11
435.721985
 21
1170.564130
  0
LINE
  8
0
  6
CONTINUOUS
 62
     3
 10
435.721985
 20
1170.564130
 11
439.721985
 21
1170.564130
  0
LINE
  8
0
  6
CONTINUOUS
 62
     3
 10
439.721985
 20
1170.564130
 11
439.721985
 21
1165.564130
  0
LINE
  8
0
  6
CONTINUOUS
 62
     3
 10
439.721985
 20
1165.564130
 11
441.721985
 21
1165.564130
  0
LINE
  8
0
  6
CONTINUOUS
 62
     3
 10
441.721985
 20
1165.564130
 11
441.721985
 21
1146.564130
  0
LINE
  8
0
  6
CONTINUOUS
 62
     3
 10
441.721985
 20
1146.564130
 11
424.221985
 21
1146.564130
  0
LINE
  8
0
  6
CONTINUOUS
 62
     3
 10
424.221985
 20
1146.564130
 11
424.221985
 21
1131.564130
  0
LINE
  8
0
  6
CONTINUOUS
 62
     2
 10
447.221985
 20
1183.064130
 11
461.221985
 21
1183.064130
  0
LINE
  8
0
  6
CONTINUOUS
 62
     2
 10
461.221985
 20
1183.064130
 11
461.221985
 21
1198.064130
  0
LINE
  8
0
  6
CONTINUOUS
 62
     2
 10
461.221985
 20
1198.064130
 11
462.221985
 21
1198.064130
  0
LINE
  8
0
  6
CONTINUOUS
 62
     2
 10
462.221985
 20
1198.064130
 11
462.221985
 21
1243.063130
  0
LINE
  8
0
  6
CONTINUOUS
 62
     2
 10
462.221985
 20
1243.063130
 11
460.221985
 21
1243.063130
  0
LINE
  8
0
  6
CONTINUOUS
 62
     2
 10
460.221985
 20
1243.063130
 11
454.221985
 21
1236.629130
  0
LINE
  8
0
  6
CONTINUOUS
 62
     2
 10
454.221985
 20
1236.629130
 11
448.221985
 21
1243.063130
  0
LINE
  8
0
  6
CONTINUOUS
 62
     2
 10
448.221985
 20
1243.063130
 11
446.221985
 21
1243.063130
  0
LINE
  8
0
  6
CONTINUOUS
 62
     2
 10
446.221985
 20
1243.063130
 11
446.221985
 21
1198.064130
  0
LINE
  8
0
  6
CONTINUOUS
 62
     2
 10
446.221985
 20
1198.064130
 11
447.221985
 21
1198.064130
  0
LINE
  8
0
  6
CONTINUOUS
 62
     2
 10
447.221985
 20
1198.064130
 11
447.221985
 21
1183.064130
  0
LINE
  8
0
  6
CONTINUOUS
 62
     4
 10
450.165097
 20
1250.865675
 11
454.221985
 21
1251.952715
  0
LINE
  8
0
  6
CONTINUOUS
 62
     4
 10
454.221985
 20
1251.952715
 11
450.165097
 21
1253.039755
  0
LINE
  8
0
  6
CONTINUOUS
 62
     4
 10
450.278874
 20
1253.039755
 11
446.221985
 21
1251.952715
  0
LINE
  8
0
  6
CONTINUOUS
 62
     4
 10
446.221985
 20
1251.952715
 11
450.278874
 21
1250.865675
  0
LINE
  8
0
  6
CONTINUOUS
 62
     4
 10
454.221985
 20
1251.952715
 11
446.221985
 21
1251.952715
  0
TEXT
  8
0
 62
     4
 10
447.821985
 20
1253.152715
 40
12.000000
  1
8
 41
0.800000
  7
GOTHIC
 72
     1
 11
450.221985
 21
1253.152715
  0
LINE
  8
0
  6
CONTINUOUS
 62
     4
 10
454.221985
 20
1239.629130
 11
454.221985
 21
1254.952715
  0
LINE
  8
0
  6
CONTINUOUS
 62
     4
 10
446.221985
 20
1246.063130
 11
446.221985
 21
1254.952715
  0
LINE
  8
0
  6
CONTINUOUS
 62
     4
 10
450.165097
 20
1266.552277
 11
454.221985
 21
1267.639317
  0
LINE
  8
0
  6
CONTINUOUS
 62
     4
 10
454.221985
 20
1267.639317
 11
450.165097
 21
1268.726357
  0
LINE
  8
0
  6
CONTINUOUS
 62
     4
 10
443.778874
 20
1268.726357
 11
439.721985
 21
1267.639317
  0
LINE
  8
0
  6
CONTINUOUS
 62
     4
 10
439.721985
 20
1267.639317
 11
443.778874
 21
1266.552277
  0
LINE
  8
0
  6
CONTINUOUS
 62
     4
 10
454.221985
 20
1267.639317
 11
439.721985
 21
1267.639317
  0
TEXT
  8
0
 62
     4
 10
437.371985
 20
1268.839317
 40
12.000000
  1
14.5
 41
0.800000
  7
GOTHIC
 72
     1
 11
446.971985
 21
1268.839317
  0
LINE
  8
0
  6
CONTINUOUS
 62
     4
 10
454.221985
 20
1254.952715
 11
454.221985
 21
1270.639317
  0
LINE
  8
0
  6
CONTINUOUS
 62
     4
 10
439.721985
 20
1196.064130
 11
439.721985
 21
1270.639317
  0
LINE
  8
0
  6
CONTINUOUS
 62
     4
 10
450.165097
 20
1289.283932
 11
454.221985
 21
1290.370972
  0
LINE
  8
0
  6
CONTINUOUS
 62
     4
 10
454.221985
 20
1290.370972
 11
450.165097
 21
1291.458012
  0
LINE
  8
0
  6
CONTINUOUS
 62
     4
 10
439.778874
 20
1291.458012
 11
435.721985
 21
1290.370972
  0
LINE
  8
0
  6
CONTINUOUS
 62
     4
 10
435.721985
 20
1290.370972
 11
439.778874
 21
1289.283932
  0
LINE
  8
0
  6
CONTINUOUS
 62
     4
 10
454.221985
 20
1290.370972
 11
435.721985
 21
1290.370972
  0
TEXT
  8
0
 62
     4
 10
435.371985
 20
1291.570972
 40
12.000000
  1
18.5
 41
0.800000
  7
GOTHIC
 72
     1
 11
444.971985
 21
1291.570972
  0
LINE
  8
0
  6
CONTINUOUS
 62
     4
 10
454.221985
 20
1270.639317
 11
454.221985
 21
1293.370972
  0
LINE
  8
0
  6
CONTINUOUS
 62
     4
 10
435.721985
 20
1183.564130
 11
435.721985
 21
1293.370972
  0
LINE
  8
0
  6
CONTINUOUS
 62
     4
 10
415.013036
 20
1239.006241
 11
413.925996
 21
1243.063130
  0
LINE
  8
0
  6
CONTINUOUS
 62
     4
 10
413.925996
 20
1243.063130
 11
412.838956
 21
1239.006241
  0
LINE
  8
0
  6
CONTINUOUS
 62
     4
 10
412.838956
 20
1197.121018
 11
413.925996
 21
1193.064130
  0
LINE
  8
0
  6
CONTINUOUS
 62
     4
 10
413.925996
 20
1193.064130
 11
415.013036
 21
1197.121018
  0
LINE
  8
0
  6
CONTINUOUS
 62
     4
 10
413.925996
 20
1243.063130
 11
413.925996
 21
1193.064130
  0
TEXT
  8
0
 62
     4
 10
412.725996
 20
1213.263630
 40
12.000000
  1
50
 50
90.000000
 41
0.800000
  7
GOTHIC
 72
     1
 11
412.725996
 21
1218.063630
  0
LINE
  8
0
  6
CONTINUOUS
 62
     4
 10
443.221985
 20
1243.063130
 11
410.925996
 21
1243.063130
  0
LINE
  8
0
  6
CONTINUOUS
 62
     4
 10
436.721985
 20
1193.064130
 11
410.925996
 21
1193.064130
  0
LINE
  8
0
  6
CONTINUOUS
 62
     4
 10
450.165097
 20
1314.180190
 11
454.221985
 21
1315.267230
  0
LINE
  8
0
  6
CONTINUOUS
 62
     4
 10
454.221985
 20
1315.267230
 11
450.165097
 21
1316.354270
  0
LINE
  8
0
  6
CONTINUOUS
 62
     4
 10
390.278874
 20
1316.354270
 11
386.221985
 21
1315.267230
  0
LINE
  8
0
  6
CONTINUOUS
 62
     4
 10
386.221985
 20
1315.267230
 11
390.278874
 21
1314.180190
  0
LINE
  8
0
  6
CONTINUOUS
 62
     4
 10
454.221985
 20
1315.267230
 11
386.221985
 21
1315.267230
  0
TEXT
  8
0
 62
     4
 10
415.421985
 20
1316.467230
 40
12.000000
  1
68
 41
0.800000
  7
GOTHIC
 72
     1
 11
420.221985
 21
1316.467230
  0
LINE
  8
0
  6
CONTINUOUS
 62
     4
 10
454.221985
 20
1254.952715
 11
454.221985
 21
1318.267230
  0
LINE
  8
0
  6
CONTINUOUS
 62
     4
 10
386.221985
 20
1149.564130
 11
386.221985
 21
1318.267230
  0
LINE
  8
0
  6
CONTINUOUS
 62
     4
 10
450.165097
 20
1340.365830
 11
454.221985
 21
1341.452870
  0
LINE
  8
0
  6
CONTINUOUS
 62
     4
 10
454.221985
 20
1341.452870
 11
450.165097
 21
1342.539910
  0
LINE
  8
0
  6
CONTINUOUS
 62
     4
 10
330.278874
 20
1342.539910
 11
326.221985
 21
1341.452870
  0
LINE
  8
0
  6
CONTINUOUS
 62
     4
 10
326.221985
 20
1341.452870
 11
330.278874
 21
1340.365830
  0
LINE
  8
0
  6
CONTINUOUS
 62
     4
 10
454.221985
 20
1341.452870
 11
326.221985
 21
1341.452870
  0
TEXT
  8
0
 62
     4
 10
383.021985
 20
1342.652870
 40
12.000000
  1
128
 41
0.800000
  7
GOTHIC
 72
     1
 11
390.221985
 21
1342.652870
  0
LINE
  8
0
  6
CONTINUOUS
 62
     4
 10
454.221985
 20
1318.267230
 11
454.221985
 21
1344.452870
  0
LINE
  8
0
  6
CONTINUOUS
 62
     4
 10
326.221985
 20
1059.564130
 11
326.221985
 21
1344.452870
  0
LINE
  8
0
  6
CONTINUOUS
 62
     4
 10
450.165097
 20
1369.357903
 11
454.221985
 21
1370.444943
  0
LINE
  8
0
  6
CONTINUOUS
 62
     4
 10
454.221985
 20
1370.444943
 11
450.165097
 21
1371.531983
  0
LINE
  8
0
  6
CONTINUOUS
 62
     4
 10
250.278874
 20
1371.531983
 11
246.221985
 21
1370.444943
  0
LINE
  8
0
  6
CONTINUOUS
 62
     4
 10
246.221985
 20
1370.444943
 11
250.278874
 21
1369.357903
  0
LINE
  8
0
  6
CONTINUOUS
 62
     4
 10
454.221985
 20
1370.444943
 11
246.221985
 21
1370.444943
  0
TEXT
  8
0
 62
     4
 10
343.021985
 20
1371.644943
 40
12.000000
  1
208
 41
0.800000
  7
GOTHIC
 72
     1
 11
350.221985
 21
1371.644943
  0
LINE
  8
0
  6
CONTINUOUS
 62
     4
 10
454.221985
 20
1344.452870
 11
454.221985
 21
1373.444943
  0
LINE
  8
0
  6
CONTINUOUS
 62
     4
 10
246.221985
 20
1009.564130
 11
246.221985
 21
1373.444943
  0
TEXT
  8
0
 62
     7
 10
491.936582
 20
1219.366115
 40
51.402177
  1
V12
 41
0.800000
  7
GOTHIC
 11
491.936582
 21
1270.768292
 73
     3
  0
LINE
  8
0
  6
CONTINUOUS
 62
     2
 10
1236.221985
 20
1146.564130
 11
1181.721985
 21
1146.564130
  0
LINE
  8
0
  6
CONTINUOUS
 62
     2
 10
1296.221985
 20
1056.564130
 11
1236.221985
 21
1056.564130
  0
LINE
  8
0
  6
CONTINUOUS
 62
     2
 10
1296.221985
 20
1056.564130
 11
1296.221985
 21
1006.564130
  0
LINE
  8
0
  6
CONTINUOUS
 62
     2
 10
1236.221985
 20
1146.564130
 11
1236.221985
 21
1056.564130
  0
LINE
  8
0
  6
CONTINUOUS
 62
     2
 10
1376.221985
 20
181.564130
 11
1376.221985
 21
1006.564130
  0
LINE
  8
0
  6
CONTINUOUS
 62
     2
 10
1296.221985
 20
1006.564130
 11
1376.221985
 21
1006.564130
  0
LINE
  8
0
  6
CONTINUOUS
 62
     2
 10
1101.221985
 20
1146.564130
 11
1156.721985
 21
1146.564130
  0
LINE
  8
0
  6
CONTINUOUS
 62
     2
 10
1041.221985
 20
1056.564130
 11
1101.221985
 21
1056.564130
  0
LINE
  8
0
  6
CONTINUOUS
 62
     2
 10
1041.221985
 20
1056.564130
 11
1041.221985
 21
1006.564130
  0
LINE
  8
0
  6
CONTINUOUS
 62
     2
 10
1101.221985
 20
1146.564130
 11
1101.221985
 21
1056.564130
  0
LINE
  8
0
  6
CONTINUOUS
 62
     2
 10
961.221985
 20
181.564130
 11
961.221985
 21
1006.564130
  0
LINE
  8
0
  6
CONTINUOUS
 62
     2
 10
1041.221985
 20
1006.564130
 11
961.221985
 21
1006.564130
  0
LINE
  8
0
  6
CONTINUOUS
 62
     3
 10
1168.721985
 20
1411.564130
 11
1174.868985
 21
1418.156130
  0
LINE
  8
0
  6
CONTINUOUS
 62
     3
 10
1174.868985
 20
1418.156130
 11
1170.987985
 21
1423.301130
  0
LINE
  8
0
  6
CONTINUOUS
 62
     3
 10
1170.987985
 20
1423.301130
 11
1168.552985
 21
1429.266130
  0
LINE
  8
0
  6
CONTINUOUS
 62
     3
 10
1168.552985
 20
1429.266130
 11
1167.721985
 21
1435.657130
  0
LINE
  8
0
  6
CONTINUOUS
 62
     3
 10
1167.721985
 20
1435.657130
 11
1167.721985
 21
1502.657130
  0
LINE
  8
0
  6
CONTINUOUS
 62
     3
 10
1167.721985
 20
1502.657130
 11
1168.656985
 21
1509.430130
  0
LINE
  8
0
  6
CONTINUOUS
 62
     3
 10
1168.656985
 20
1509.430130
 11
1171.390985
 21
1515.696130
  0
LINE
  8
0
  6
CONTINUOUS
 62
     3
 10
1171.390985
 20
1515.696130
 11
1175.721985
 21
1520.987130
  0
LINE
  8
0
  6
CONTINUOUS
 62
     3
 10
1175.721985
 20
1520.987130
 11
1175.721985
 21
1531.657130
  0
LINE
  8
0
  6
CONTINUOUS
 62
     3
 10
1175.721985
 20
1531.657130
 11
1161.721985
 21
1531.657130
  0
LINE
  8
0
  6
CONTINUOUS
 62
     3
 10
1161.721985
 20
1531.657130
 11
1161.721985
 21
1561.657130
  0
LINE
  8
0
  6
CONTINUOUS
 62
     3
 10
1161.721985
 20
1561.657130
 11
1151.335985
 21
1561.657130
  0
LINE
  8
0
  6
CONTINUOUS
 62
     3
 10
1151.335985
 20
1561.657130
 11
1148.563985
 21
1544.157130
  0
LINE
  8
0
  6
CONTINUOUS
 62
     3
 10
1148.563985
 20
1544.157130
 11
1151.721985
 21
1544.157130
  0
LINE
  8
0
  6
CONTINUOUS
 62
     3
 10
1151.721985
 20
1544.157130
 11
1151.721985
 21
1536.157130
  0
LINE
  8
0
  6
CONTINUOUS
 62
     3
 10
1151.721985
 20
1536.157130
 11
1148.721985
 21
1536.157130
  0
LINE
  8
0
  6
CONTINUOUS
 62
     3
 10
1148.721985
 20
1536.157130
 11
1148.721985
 21
1435.210130
  0
LINE
  8
0
  6
CONTINUOUS
 62
     3
 10
1148.721985
 20
1435.210130
 11
1163.681985
 21
1419.169130
  0
LINE
  8
0
  6
CONTINUOUS
 62
     3
 10
1163.681985
 20
1419.169130
 11
1162.584985
 21
1418.146130
  0
LINE
  8
0
  6
CONTINUOUS
 62
     3
 10
1162.584985
 20
1418.146130
 11
1168.721985
 21
1411.564130
  0
LINE
  8
0
  6
CONTINUOUS
 62
     2
 10
1194.738766
 20
1603.871109
 11
1194.738766
 21
1556.375766
  0
LINE
  8
0
  6
CONTINUOUS
 62
     2
 10
1194.738766
 20
1556.375766
 11
1190.517742
 21
1540.414738
  0
LINE
  8
0
  6
CONTINUOUS
 62
     2
 10
1182.175843
 20
1540.414738
 11
1182.175843
 21
1561.657130
  0
LINE
  8
0
  6
CONTINUOUS
 62
     2
 10
1182.175843
 20
1561.657130
 11
1171.543341
 21
1561.657130
  0
LINE
  8
0
  6
CONTINUOUS
 62
     2
 10
1171.543341
 20
1561.657130
 11
1171.543341
 21
1536.545547
  0
LINE
  8
0
  6
CONTINUOUS
 62
     2
 10
1171.543341
 20
1536.545547
 11
1161.721985
 21
1536.545547
  0
LINE
  8
0
  6
CONTINUOUS
 62
     2
 10
1161.721985
 20
1536.545547
 11
1161.721985
 21
1561.657130
  0
LINE
  8
0
  6
CONTINUOUS
 62
     2
 10
1161.721985
 20
1561.657130
 11
1148.721053
 21
1561.657130
  0
LINE
  8
0
  6
CONTINUOUS
 62
     2
 10
1148.721053
 20
1561.657130
 11
1148.721053
 21
1540.996953
  0
LINE
  8
0
  6
CONTINUOUS
 62
     2
 10
1148.721053
 20
1540.996953
 11
1141.725987
 21
1540.996953
  0
LINE
  8
0
  6
CONTINUOUS
 62
     2
 10
1141.725987
 20
1540.996953
 11
1136.356037
 21
1554.563143
  0
LINE
  8
0
  6
CONTINUOUS
 62
     2
 10
1136.356037
 20
1554.563143
 11
1136.356037
 21
1583.900028
  0
LINE
  8
0
  6
CONTINUOUS
 62
     2
 10
1136.356037
 20
1583.900028
 11
1127.167063
 21
1583.900028
  0
LINE
  8
0
  6
CONTINUOUS
 62
     2
 10
1127.167063
 20
1583.900028
 11
1127.167063
 21
1609.057538
  0
LINE
  8
0
  6
CONTINUOUS
 62
     2
 10
1127.167063
 20
1609.057538
 11
1116.441294
 21
1616.236314
  0
LINE
  8
0
  6
CONTINUOUS
 62
     2
 10
1116.441294
 20
1616.236314
 11
1116.441294
 21
1631.780906
  0
LINE
  8
0
  6
CONTINUOUS
 62
     2
 10
1116.441294
 20
1631.780906
 11
1120.420710
 21
1631.780906
  0
LINE
  8
0
  6
CONTINUOUS
 62
     2
 10
1120.420710
 20
1631.780906
 11
1120.420710
 21
1629.621621
  0
LINE
  8
0
  6
CONTINUOUS
 62
     2
 10
1120.420710
 20
1629.621621
 11
1129.521362
 21
1623.969042
  0
LINE
  8
0
  6
CONTINUOUS
 62
     2
 10
1129.521362
 20
1623.969042
 11
1133.817322
 21
1616.598079
  0
LINE
  8
0
  6
CONTINUOUS
 62
     2
 10
1133.817322
 20
1616.598079
 11
1139.424681
 21
1616.598079
  0
LINE
  8
0
  6
CONTINUOUS
 62
     2
 10
1139.424681
 20
1616.598079
 11
1139.424681
 21
1659.286532
  0
LINE
  8
0
  6
CONTINUOUS
 62
     2
 10
1139.424681
 20
1659.286532
 11
1148.530985
 21
1659.286532
  0
LINE
  8
0
  6
CONTINUOUS
 62
     2
 10
1148.530985
 20
1659.286532
 11
1148.530985
 21
1633.214011
  0
LINE
  8
0
  6
CONTINUOUS
 62
     2
 10
1148.530985
 20
1633.214011
 11
1181.341337
 21
1633.214011
  0
LINE
  8
0
  6
CONTINUOUS
 62
     2
 10
1181.341337
 20
1633.214011
 11
1181.341337
 21
1603.871109
  0
LINE
  8
0
  6
CONTINUOUS
 62
     2
 10
1181.341337
 20
1603.871109
 11
1194.738766
 21
1603.871109
  0
LINE
  8
0
  6
CONTINUOUS
 62
     2
 10
1182.175843
 20
1540.414738
 11
1190.517742
 21
1540.414738
  0
LINE
  8
0
  6
CONTINUOUS
 62
     3
 10
1139.221985
 20
1131.564130
 11
1199.221985
 21
1131.564130
  0
LINE
  8
0
  6
CONTINUOUS
 62
     3
 10
1199.221985
 20
1131.564130
 11
1199.221985
 21
1146.564130
  0
LINE
  8
0
  6
CONTINUOUS
 62
     3
 10
1199.221985
 20
1146.564130
 11
1181.721985
 21
1146.564130
  0
LINE
  8
0
  6
CONTINUOUS
 62
     3
 10
1181.721985
 20
1146.564130
 11
1181.721985
 21
1193.064130
  0
LINE
  8
0
  6
CONTINUOUS
 62
     3
 10
1181.721985
 20
1193.064130
 11
1176.221985
 21
1193.064130
  0
LINE
  8
0
  6
CONTINUOUS
 62
     3
 10
1176.221985
 20
1193.064130
 11
1176.221985
 21
1183.064130
  0
LINE
  8
0
  6
CONTINUOUS
 62
     3
 10
1176.221985
 20
1183.064130
 11
1162.221985
 21
1183.064130
  0
LINE
  8
0
  6
CONTINUOUS
 62
     3
 10
1162.221985
 20
1183.064130
 11
1162.221985
 21
1193.064130
  0
LINE
  8
0
  6
CONTINUOUS
 62
     3
 10
1162.221985
 20
1193.064130
 11
1154.721985
 21
1193.064130
  0
LINE
  8
0
  6
CONTINUOUS
 62
     3
 10
1154.721985
 20
1193.064130
 11
1154.721985
 21
1180.564130
  0
LINE
  8
0
  6
CONTINUOUS
 62
     3
 10
1154.721985
 20
1180.564130
 11
1150.721985
 21
1180.564130
  0
LINE
  8
0
  6
CONTINUOUS
 62
     3
 10
1150.721985
 20
1180.564130
 11
1150.721985
 21
1170.564130
  0
LINE
  8
0
  6
CONTINUOUS
 62
     3
 10
1150.721985
 20
1170.564130
 11
1154.721985
 21
1170.564130
  0
LINE
  8
0
  6
CONTINUOUS
 62
     3
 10
1154.721985
 20
1170.564130
 11
1154.721985
 21
1165.564130
  0
LINE
  8
0
  6
CONTINUOUS
 62
     3
 10
1154.721985
 20
1165.564130
 11
1156.721985
 21
1165.564130
  0
LINE
  8
0
  6
CONTINUOUS
 62
     3
 10
1156.721985
 20
1165.564130
 11
1156.721985
 21
1146.564130
  0
LINE
  8
0
  6
CONTINUOUS
 62
     3
 10
1156.721985
 20
1146.564130
 11
1139.221985
 21
1146.564130
  0
LINE
  8
0
  6
CONTINUOUS
 62
     3
 10
1139.221985
 20
1146.564130
 11
1139.221985
 21
1131.564130
  0
LINE
  8
0
  6
CONTINUOUS
 62
     4
 10
1165.165097
 20
1314.180190
 11
1169.221985
 21
1315.267230
  0
LINE
  8
0
  6
CONTINUOUS
 62
     4
 10
1169.221985
 20
1315.267230
 11
1165.165097
 21
1316.354270
  0
LINE
  8
0
  6
CONTINUOUS
 62
     4
 10
1105.278874
 20
1316.354270
 11
1101.221985
 21
1315.267230
  0
LINE
  8
0
  6
CONTINUOUS
 62
     4
 10
1101.221985
 20
1315.267230
 11
1105.278874
 21
1314.180190
  0
LINE
  8
0
  6
CONTINUOUS
 62
     4
 10
1169.221985
 20
1315.267230
 11
1101.221985
 21
1315.267230
  0
TEXT
  8
0
 62
     4
 10
1130.421985
 20
1316.467230
 40
12.000000
  1
68
 41
0.800000
  7
GOTHIC
 72
     1
 11
1135.221985
 21
1316.467230
  0
LINE
  8
0
  6
CONTINUOUS
 62
     4
 10
1101.221985
 20
1149.564130
 11
1101.221985
 21
1318.267230
  0
LINE
  8
0
  6
CONTINUOUS
 62
     4
 10
1165.165097
 20
1340.365830
 11
1169.221985
 21
1341.452870
  0
LINE
  8
0
  6
CONTINUOUS
 62
     4
 10
1169.221985
 20
1341.452870
 11
1165.165097
 21
1342.539910
  0
LINE
  8
0
  6
CONTINUOUS
 62
     4
 10
1045.278874
 20
1342.539910
 11
1041.221985
 21
1341.452870
  0
LINE
  8
0
  6
CONTINUOUS
 62
     4
 10
1041.221985
 20
1341.452870
 11
1045.278874
 21
1340.365830
  0
LINE
  8
0
  6
CONTINUOUS
 62
     4
 10
1169.221985
 20
1341.452870
 11
1041.221985
 21
1341.452870
  0
TEXT
  8
0
 62
     4
 10
1098.021985
 20
1342.652870
 40
12.000000
  1
128
 41
0.800000
  7
GOTHIC
 72
     1
 11
1105.221985
 21
1342.652870
  0
LINE
  8
0
  6
CONTINUOUS
 62
     4
 10
1169.221985
 20
1232.659130
 11
1169.221985
 21
1344.452870
  0
LINE
  8
0
  6
CONTINUOUS
 62
     4
 10
1041.221985
 20
1059.564130
 11
1041.221985
 21
1344.452870
  0
LINE
  8
0
  6
CONTINUOUS
 62
     4
 10
1165.165097
 20
1369.357903
 11
1169.221985
 21
1370.444943
  0
LINE
  8
0
  6
CONTINUOUS
 62
     4
 10
1169.221985
 20
1370.444943
 11
1165.165097
 21
1371.531983
  0
LINE
  8
0
  6
CONTINUOUS
 62
     4
 10
965.278874
 20
1371.531983
 11
961.221985
 21
1370.444943
  0
LINE
  8
0
  6
CONTINUOUS
 62
     4
 10
961.221985
 20
1370.444943
 11
965.278874
 21
1369.357903
  0
LINE
  8
0
  6
CONTINUOUS
 62
     4
 10
1169.221985
 20
1370.444943
 11
961.221985
 21
1370.444943
  0
TEXT
  8
0
 62
     4
 10
1058.021985
 20
1371.644943
 40
12.000000
  1
208
 41
0.800000
  7
GOTHIC
 72
     1
 11
1065.221985
 21
1371.644943
  0
LINE
  8
0
  6
CONTINUOUS
 62
     4
 10
1169.221985
 20
1344.452870
 11
1169.221985
 21
1373.444943
  0
LINE
  8
0
  6
CONTINUOUS
 62
     4
 10
961.221985
 20
1009.564130
 11
961.221985
 21
1373.444943
  0
LINE
  8
0
  6
CONTINUOUS
 62
     2
 10
1162.221985
 20
1183.064130
 11
1176.221985
 21
1183.064130
  0
LINE
  8
0
  6
CONTINUOUS
 62
     2
 10
1176.221985
 20
1183.064130
 11
1176.221985
 21
1198.064130
  0
LINE
  8
0
  6
CONTINUOUS
 62
     2
 10
1176.221985
 20
1198.064130
 11
1183.971985
 21
1198.064130
  0
LINE
  8
0
  6
CONTINUOUS
 62
     2
 10
1183.971985
 20
1198.064130
 11
1183.971985
 21
1243.064130
  0
LINE
  8
0
  6
CONTINUOUS
 62
     2
 10
1183.971985
 20
1243.064130
 11
1181.721985
 21
1243.064130
  0
LINE
  8
0
  6
CONTINUOUS
 62
     2
 10
1181.721985
 20
1243.064130
 11
1169.221985
 21
1229.659130
  0
LINE
  8
0
  6
CONTINUOUS
 62
     2
 10
1169.221985
 20
1229.659130
 11
1156.721985
 21
1243.064130
  0
LINE
  8
0
  6
CONTINUOUS
 62
     2
 10
1156.721985
 20
1243.064130
 11
1154.471985
 21
1243.064130
  0
LINE
  8
0
  6
CONTINUOUS
 62
     2
 10
1154.471985
 20
1243.064130
 11
1154.471985
 21
1198.064130
  0
LINE
  8
0
  6
CONTINUOUS
 62
     2
 10
1154.471985
 20
1198.064130
 11
1162.221985
 21
1198.064130
  0
LINE
  8
0
  6
CONTINUOUS
 62
     2
 10
1162.221985
 20
1198.064130
 11
1162.221985
 21
1183.064130
  0
LINE
  8
0
  6
CONTINUOUS
 62
     4
 10
1165.165097
 20
1254.172118
 11
1169.221985
 21
1255.259158
  0
LINE
  8
0
  6
CONTINUOUS
 62
     4
 10
1169.221985
 20
1255.259158
 11
1165.165097
 21
1256.346198
  0
LINE
  8
0
  6
CONTINUOUS
 62
     4
 10
1158.528874
 20
1256.346198
 11
1154.471985
 21
1255.259158
  0
LINE
  8
0
  6
CONTINUOUS
 62
     4
 10
1154.471985
 20
1255.259158
 11
1158.528874
 21
1254.172118
  0
LINE
  8
0
  6
CONTINUOUS
 62
     4
 10
1169.221985
 20
1255.259158
 11
1154.471985
 21
1255.259158
  0
TEXT
  8
0
 62
     4
 10
1152.246985
 20
1256.459158
 40
12.000000
  1
14.8
 41
0.800000
  7
GOTHIC
 72
     1
 11
1161.846985
 21
1256.459158
  0
LINE
  8
0
  6
CONTINUOUS
 62
     4
 10
1169.221985
 20
1232.659130
 11
1169.221985
 21
1258.259158
  0
LINE
  8
0
  6
CONTINUOUS
 62
     4
 10
1154.471985
 20
1246.064130
 11
1154.471985
 21
1258.259158
  0
LINE
  8
0
  6
CONTINUOUS
 62
     4
 10
1165.165097
 20
1274.597381
 11
1169.221985
 21
1275.684421
  0
LINE
  8
0
  6
CONTINUOUS
 62
     4
 10
1169.221985
 20
1275.684421
 11
1165.165097
 21
1276.771461
  0
LINE
  8
0
  6
CONTINUOUS
 62
     4
 10
1154.778874
 20
1276.771461
 11
1150.721985
 21
1275.684421
  0
LINE
  8
0
  6
CONTINUOUS
 62
     4
 10
1150.721985
 20
1275.684421
 11
1154.778874
 21
1274.597381
  0
LINE
  8
0
  6
CONTINUOUS
 62
     4
 10
1169.221985
 20
1275.684421
 11
1150.721985
 21
1275.684421
  0
TEXT
  8
0
 62
     4
 10
1150.371985
 20
1276.884421
 40
12.000000
  1
18.5
 41
0.800000
  7
GOTHIC
 72
     1
 11
1159.971985
 21
1276.884421
  0
LINE
  8
0
  6
CONTINUOUS
 62
     4
 10
1169.221985
 20
1258.259158
 11
1169.221985
 21
1278.684421
  0
LINE
  8
0
  6
CONTINUOUS
 62
     4
 10
1150.721985
 20
1183.564130
 11
1150.721985
 21
1278.684421
  0
TEXT
  8
0
 62
     7
 10
1241.545869
 20
1196.716058
 40
51.402177
  1
V25
 41
0.800000
  7
GOTHIC
 11
1241.545869
 21
1248.118236
 73
     3
  0
LINE
  8
0
  6
CONTINUOUS
 62
     2
 10
2434.587148
 20
1139.227992
 11
2494.577148
 21
1139.227992
  0
LINE
  8
0
  6
CONTINUOUS
 62
     2
 10
2494.577148
 20
1139.227992
 11
2494.577148
 21
1199.227992
  0
LINE
  8
0
  6
CONTINUOUS
 62
     2
 10
2494.577148
 20
1199.227992
 11
2486.347148
 21
1199.227992
  0
LINE
  8
0
  6
CONTINUOUS
 62
     2
 10
2486.347148
 20
1199.227992
 11
2485.507148
 21
1199.147992
  0
LINE
  8
0
  6
CONTINUOUS
 62
     2
 10
2485.507148
 20
1199.147992
 11
2484.727148
 21
1198.897992
  0
LINE
  8
0
  6
CONTINUOUS
 62
     2
 10
2484.727148
 20
1198.897992
 11
2484.017148
 21
1198.487992
  0
LINE
  8
0
  6
CONTINUOUS
 62
     2
 10
2484.017148
 20
1198.487992
 11
2483.377148
 21
1197.927992
  0
LINE
  8
0
  6
CONTINUOUS
 62
     2
 10
2483.377148
 20
1197.927992
 11
2480.587148
 21
1194.857992
  0
LINE
  8
0
  6
CONTINUOUS
 62
     2
 10
2480.587148
 20
1194.857992
 11
2480.587148
 21
1193.387992
  0
LINE
  8
0
  6
CONTINUOUS
 62
     2
 10
2480.587148
 20
1193.387992
 11
2467.527148
 21
1179.127992
  0
LINE
  8
0
  6
CONTINUOUS
 62
     2
 10
2467.527148
 20
1179.127992
 11
2466.187148
 21
1178.197992
  0
LINE
  8
0
  6
CONTINUOUS
 62
     2
 10
2466.187148
 20
1178.197992
 11
2464.577148
 21
1177.837992
  0
LINE
  8
0
  6
CONTINUOUS
 62
     2
 10
2464.577148
 20
1177.837992
 11
2462.957148
 21
1178.197992
  0
LINE
  8
0
  6
CONTINUOUS
 62
     2
 10
2462.957148
 20
1178.197992
 11
2461.637148
 21
1179.127992
  0
LINE
  8
0
  6
CONTINUOUS
 62
     2
 10
2461.637148
 20
1179.127992
 11
2448.577148
 21
1193.387992
  0
LINE
  8
0
  6
CONTINUOUS
 62
     2
 10
2448.577148
 20
1193.387992
 11
2448.577148
 21
1194.857992
  0
LINE
  8
0
  6
CONTINUOUS
 62
     2
 10
2448.577148
 20
1194.857992
 11
2445.757148
 21
1197.927992
  0
LINE
  8
0
  6
CONTINUOUS
 62
     2
 10
2445.757148
 20
1197.927992
 11
2445.147148
 21
1198.487992
  0
LINE
  8
0
  6
CONTINUOUS
 62
     2
 10
2445.147148
 20
1198.487992
 11
2444.437148
 21
1198.897992
  0
LINE
  8
0
  6
CONTINUOUS
 62
     2
 10
2444.437148
 20
1198.897992
 11
2443.657148
 21
1199.147992
  0
LINE
  8
0
  6
CONTINUOUS
 62
     2
 10
2443.657148
 20
1199.147992
 11
2442.837148
 21
1199.227992
  0
LINE
  8
0
  6
CONTINUOUS
 62
     2
 10
2442.837148
 20
1199.227992
 11
2434.587148
 21
1199.227992
  0
LINE
  8
0
  6
CONTINUOUS
 62
     2
 10
2434.587148
 20
1199.227992
 11
2434.587148
 21
1139.227992
  0
LINE
  8
0
  6
CONTINUOUS
 62
     2
 10
2434.577148
 20
1084.227992
 11
2494.577148
 21
1084.227992
  0
LINE
  8
0
  6
CONTINUOUS
 62
     2
 10
2494.577148
 20
1084.227992
 11
2494.577148
 21
1104.227992
  0
LINE
  8
0
  6
CONTINUOUS
 62
     2
 10
2494.577148
 20
1104.227992
 11
2501.577148
 21
1104.227992
  0
LINE
  8
0
  6
CONTINUOUS
 62
     2
 10
2501.577148
 20
1104.227992
 11
2511.577148
 21
1121.227992
  0
LINE
  8
0
  6
CONTINUOUS
 62
     2
 10
2511.577148
 20
1121.227992
 11
2511.577148
 21
1137.227992
  0
LINE
  8
0
  6
CONTINUOUS
 62
     2
 10
2511.577148
 20
1137.227992
 11
2501.577148
 21
1154.227992
  0
LINE
  8
0
  6
CONTINUOUS
 62
     2
 10
2501.577148
 20
1154.227992
 11
2494.577148
 21
1154.227992
  0
LINE
  8
0
  6
CONTINUOUS
 62
     2
 10
2494.577148
 20
1154.227992
 11
2494.577148
 21
1139.227992
  0
LINE
  8
0
  6
CONTINUOUS
 62
     2
 10
2494.577148
 20
1139.227992
 11
2434.577148
 21
1139.227992
  0
LINE
  8
0
  6
CONTINUOUS
 62
     2
 10
2434.577148
 20
1139.227992
 11
2434.577148
 21
1154.227992
  0
LINE
  8
0
  6
CONTINUOUS
 62
     2
 10
2434.577148
 20
1154.227992
 11
2427.577148
 21
1154.227992
  0
LINE
  8
0
  6
CONTINUOUS
 62
     2
 10
2427.577148
 20
1154.227992
 11
2417.577148
 21
1137.227992
  0
LINE
  8
0
  6
CONTINUOUS
 62
     2
 10
2417.577148
 20
1137.227992
 11
2417.577148
 21
1121.227992
  0
LINE
  8
0
  6
CONTINUOUS
 62
     2
 10
2417.577148
 20
1121.227992
 11
2427.577148
 21
1104.227992
  0
LINE
  8
0
  6
CONTINUOUS
 62
     2
 10
2427.577148
 20
1104.227992
 11
2434.577148
 21
1104.227992
  0
LINE
  8
0
  6
CONTINUOUS
 62
     2
 10
2434.577148
 20
1104.227992
 11
2434.577148
 21
1084.227992
  0
LINE
  8
0
  6
CONTINUOUS
 62
   134
 10
2439.658258
 20
1219.788192
 11
2434.587148
 21
1218.429392
  0
LINE
  8
0
  6
CONTINUOUS
 62
   134
 10
2434.587148
 20
1218.429392
 11
2439.658258
 21
1217.070592
  0
LINE
  8
0
  6
CONTINUOUS
 62
   134
 10
2489.506037
 20
1217.070592
 11
2494.577148
 21
1218.429392
  0
LINE
  8
0
  6
CONTINUOUS
 62
   134
 10
2494.577148
 20
1218.429392
 11
2489.506037
 21
1219.788192
  0
LINE
  8
0
  6
CONTINUOUS
 62
   134
 10
2434.587148
 20
1218.429392
 11
2494.577148
 21
1218.429392
  0
TEXT
  8
0
 62
   134
 10
2458.582148
 20
1219.929392
 40
15.000000
  1
60
 41
0.800000
  7
GOTHIC
 72
     1
 11
2464.582148
 21
1219.929392
  0
LINE
  8
0
  6
CONTINUOUS
 62
   134
 10
2434.587148
 20
1202.977992
 11
2434.587148
 21
1222.179392
  0
LINE
  8
0
  6
CONTINUOUS
 62
   134
 10
2494.577148
 20
1202.977992
 11
2494.577148
 21
1222.179392
  0
LINE
  8
0
  6
CONTINUOUS
 62
   134
 10
2429.516037
 20
1217.070592
 11
2434.587148
 21
1218.429392
  0
LINE
  8
0
  6
CONTINUOUS
 62
   134
 10
2434.587148
 20
1218.429392
 11
2429.516037
 21
1219.788192
  0
LINE
  8
0
  6
CONTINUOUS
 62
   134
 10
2422.648258
 20
1219.788192
 11
2417.577148
 21
1218.429392
  0
LINE
  8
0
  6
CONTINUOUS
 62
   134
 10
2417.577148
 20
1218.429392
 11
2422.648258
 21
1217.070592
  0
LINE
  8
0
  6
CONTINUOUS
 62
   134
 10
2434.587148
 20
1218.429392
 11
2417.577148
 21
1218.429392
  0
TEXT
  8
0
 62
   134
 10
2420.082148
 20
1219.929392
 40
15.000000
  1
17
 41
0.800000
  7
GOTHIC
 72
     1
 11
2426.082148
 21
1219.929392
  0
LINE
  8
0
  6
CONTINUOUS
 62
   134
 10
2434.587148
 20
1202.977992
 11
2434.587148
 21
1222.179392
  0
LINE
  8
0
  6
CONTINUOUS
 62
   134
 10
2417.577148
 20
1140.977992
 11
2417.577148
 21
1222.179392
  0
LINE
  8
0
  6
CONTINUOUS
 62
   134
 10
2499.648258
 20
1219.788192
 11
2494.577148
 21
1218.429392
  0
LINE
  8
0
  6
CONTINUOUS
 62
   134
 10
2494.577148
 20
1218.429392
 11
2499.648258
 21
1217.070592
  0
LINE
  8
0
  6
CONTINUOUS
 62
   134
 10
2506.506037
 20
1217.070592
 11
2511.577148
 21
1218.429392
  0
LINE
  8
0
  6
CONTINUOUS
 62
   134
 10
2511.577148
 20
1218.429392
 11
2506.506037
 21
1219.788192
  0
LINE
  8
0
  6
CONTINUOUS
 62
   134
 10
2494.577148
 20
1218.429392
 11
2511.577148
 21
1218.429392
  0
TEXT
  8
0
 62
   134
 10
2497.077148
 20
1219.929392
 40
15.000000
  1
17
 41
0.800000
  7
GOTHIC
 72
     1
 11
2503.077148
 21
1219.929392
  0
LINE
  8
0
  6
CONTINUOUS
 62
   134
 10
2494.577148
 20
1202.977992
 11
2494.577148
 21
1222.179392
  0
LINE
  8
0
  6
CONTINUOUS
 62
   134
 10
2511.577148
 20
1140.977992
 11
2511.577148
 21
1222.179392
  0
LINE
  8
0
  6
CONTINUOUS
 62
     2
 10
2551.577148
 20
1084.227992
 11
2494.577148
 21
1084.227992
  0
LINE
  8
0
  6
CONTINUOUS
 62
     2
 10
2377.587148
 20
1084.227992
 11
2434.587148
 21
1084.227992
  0
LINE
  8
0
  6
CONTINUOUS
 62
   134
 10
2544.808798
 20
1194.156882
 11
2543.449998
 21
1199.227992
  0
LINE
  8
0
  6
CONTINUOUS
 62
   134
 10
2543.449998
 20
1199.227992
 11
2542.091198
 21
1194.156882
  0
LINE
  8
0
  6
CONTINUOUS
 62
   134
 10
2542.091198
 20
1144.299103
 11
2543.449998
 21
1139.227992
  0
LINE
  8
0
  6
CONTINUOUS
 62
   134
 10
2543.449998
 20
1139.227992
 11
2544.808798
 21
1144.299103
  0
LINE
  8
0
  6
CONTINUOUS
 62
   134
 10
2543.449998
 20
1199.227992
 11
2543.449998
 21
1139.227992
  0
TEXT
  8
0
 62
   134
 10
2541.949998
 20
1163.227992
 40
15.000000
  1
60
 50
90.000000
 41
0.800000
  7
GOTHIC
 72
     1
 11
2541.949998
 21
1169.227992
  0
LINE
  8
0
  6
CONTINUOUS
 62
   134
 10
2498.327148
 20
1199.227992
 11
2547.199998
 21
1199.227992
  0
LINE
  8
0
  6
CONTINUOUS
 62
   134
 10
2498.327148
 20
1139.227992
 11
2547.199998
 21
1139.227992
  0
LINE
  8
0
  6
CONTINUOUS
 62
     2
 10
2571.577148
 20
1046.227992
 11
2377.587148
 21
1046.227992
  0
LINE
  8
0
  6
CONTINUOUS
 62
   134
 10
2362.658258
 20
992.715495
 11
2357.587148
 21
991.356695
  0
LINE
  8
0
  6
CONTINUOUS
 62
   134
 10
2357.587148
 20
991.356695
 11
2362.658258
 21
989.997895
  0
LINE
  8
0
  6
CONTINUOUS
 62
   134
 10
2429.506037
 20
989.997895
 11
2434.577148
 21
991.356695
  0
LINE
  8
0
  6
CONTINUOUS
 62
   134
 10
2434.577148
 20
991.356695
 11
2429.506037
 21
992.715495
  0
LINE
  8
0
  6
CONTINUOUS
 62
   134
 10
2357.587148
 20
991.356695
 11
2434.577148
 21
991.356695
  0
TEXT
  8
0
 62
   134
 10
2390.082148
 20
992.856695
 40
15.000000
  1
77
 41
0.800000
  7
GOTHIC
 72
     1
 11
2396.082148
 21
992.856695
  0
LINE
  8
0
  6
CONTINUOUS
 62
   134
 10
2357.587148
 20
1042.477992
 11
2357.587148
 21
987.606695
  0
LINE
  8
0
  6
CONTINUOUS
 62
   134
 10
2434.577148
 20
1065.477992
 11
2434.577148
 21
987.606695
  0
LINE
  8
0
  6
CONTINUOUS
 62
   134
 10
2439.648258
 20
992.715495
 11
2434.577148
 21
991.356695
  0
LINE
  8
0
  6
CONTINUOUS
 62
   134
 10
2434.577148
 20
991.356695
 11
2439.648258
 21
989.997895
  0
LINE
  8
0
  6
CONTINUOUS
 62
   134
 10
2489.506037
 20
989.997895
 11
2494.577148
 21
991.356695
  0
LINE
  8
0
  6
CONTINUOUS
 62
   134
 10
2494.577148
 20
991.356695
 11
2489.506037
 21
992.715495
  0
LINE
  8
0
  6
CONTINUOUS
 62
   134
 10
2434.577148
 20
991.356695
 11
2494.577148
 21
991.356695
  0
TEXT
  8
0
 62
   134
 10
2458.577148
 20
992.856695
 40
15.000000
  1
60
 41
0.800000
  7
GOTHIC
 72
     1
 11
2464.577148
 21
992.856695
  0
LINE
  8
0
  6
CONTINUOUS
 62
   134
 10
2434.577148
 20
1065.477992
 11
2434.577148
 21
987.606695
  0
LINE
  8
0
  6
CONTINUOUS
 62
   134
 10
2494.577148
 20
1065.477992
 11
2494.577148
 21
987.606695
  0
LINE
  8
0
  6
CONTINUOUS
 62
   134
 10
2499.648258
 20
992.715495
 11
2494.577148
 21
991.356695
  0
LINE
  8
0
  6
CONTINUOUS
 62
   134
 10
2494.577148
 20
991.356695
 11
2499.648258
 21
989.997895
  0
LINE
  8
0
  6
CONTINUOUS
 62
   134
 10
2566.506037
 20
989.997895
 11
2571.577148
 21
991.356695
  0
LINE
  8
0
  6
CONTINUOUS
 62
   134
 10
2571.577148
 20
991.356695
 11
2566.506037
 21
992.715495
  0
LINE
  8
0
  6
CONTINUOUS
 62
   134
 10
2494.577148
 20
991.356695
 11
2571.577148
 21
991.356695
  0
TEXT
  8
0
 62
   134
 10
2527.077148
 20
992.856695
 40
15.000000
  1
77
 41
0.800000
  7
GOTHIC
 72
     1
 11
2533.077148
 21
992.856695
  0
LINE
  8
0
  6
CONTINUOUS
 62
   134
 10
2494.577148
 20
1065.477992
 11
2494.577148
 21
987.606695
  0
LINE
  8
0
  6
CONTINUOUS
 62
   134
 10
2571.577148
 20
1042.477992
 11
2571.577148
 21
987.606695
  0
LINE
  8
0
  6
CONTINUOUS
 62
     2
 10
2340.587148
 20
1051.227992
 11
2340.587148
 21
1071.227992
  0
LINE
  8
0
  6
CONTINUOUS
 62
     2
 10
2340.587148
 20
1071.227992
 11
2357.587148
 21
1071.227992
  0
LINE
  8
0
  6
CONTINUOUS
 62
     2
 10
2340.587148
 20
1051.227992
 11
2357.587148
 21
1051.227992
  0
LINE
  8
0
  6
CONTINUOUS
 62
   134
 10
2462.731606
 20
1149.156882
 11
2461.372806
 21
1154.227992
  0
LINE
  8
0
  6
CONTINUOUS
 62
   134
 10
2461.372806
 20
1154.227992
 11
2460.014006
 21
1149.156882
  0
LINE
  8
0
  6
CONTINUOUS
 62
   134
 10
2460.014006
 20
1109.299103
 11
2461.372806
 21
1104.227992
  0
LINE
  8
0
  6
CONTINUOUS
 62
   134
 10
2461.372806
 20
1104.227992
 11
2462.731606
 21
1109.299103
  0
LINE
  8
0
  6
CONTINUOUS
 62
   134
 10
2461.372806
 20
1154.227992
 11
2461.372806
 21
1104.227992
  0
TEXT
  8
0
 62
   134
 10
2459.872806
 20
1123.227992
 40
15.000000
  1
50
 50
90.000000
 41
0.800000
  7
GOTHIC
 72
     1
 11
2459.872806
 21
1129.227992
  0
LINE
  8
0
  6
CONTINUOUS
 62
   134
 10
2431.327148
 20
1154.227992
 11
2465.122806
 21
1154.227992
  0
LINE
  8
0
  6
CONTINUOUS
 62
   134
 10
2438.327148
 20
1104.227992
 11
2465.122806
 21
1104.227992
  0
LINE
  8
0
  6
CONTINUOUS
 62
   134
 10
2462.731606
 20
1099.156882
 11
2461.372806
 21
1104.227992
  0
LINE
  8
0
  6
CONTINUOUS
 62
   134
 10
2461.372806
 20
1104.227992
 11
2460.014006
 21
1099.156882
  0
LINE
  8
0
  6
CONTINUOUS
 62
   134
 10
2460.014006
 20
1089.299103
 11
2461.372806
 21
1084.227992
  0
LINE
  8
0
  6
CONTINUOUS
 62
   134
 10
2461.372806
 20
1084.227992
 11
2462.731606
 21
1089.299103
  0
LINE
  8
0
  6
CONTINUOUS
 62
   134
 10
2461.372806
 20
1104.227992
 11
2461.372806
 21
1084.227992
  0
TEXT
  8
0
 62
   134
 10
2459.872806
 20
1088.227992
 40
15.000000
  1
20
 50
90.000000
 41
0.800000
  7
GOTHIC
 72
     1
 11
2459.872806
 21
1094.227992
  0
LINE
  8
0
  6
CONTINUOUS
 62
   134
 10
2352.516037
 20
989.997895
 11
2357.587148
 21
991.356695
  0
LINE
  8
0
  6
CONTINUOUS
 62
   134
 10
2357.587148
 20
991.356695
 11
2352.516037
 21
992.715495
  0
LINE
  8
0
  6
CONTINUOUS
 62
   134
 10
2345.658258
 20
992.715495
 11
2340.587148
 21
991.356695
  0
LINE
  8
0
  6
CONTINUOUS
 62
   134
 10
2340.587148
 20
991.356695
 11
2345.658258
 21
989.997895
  0
LINE
  8
0
  6
CONTINUOUS
 62
   134
 10
2357.587148
 20
991.356695
 11
2340.587148
 21
991.356695
  0
TEXT
  8
0
 62
   134
 10
2343.087148
 20
992.856695
 40
15.000000
  1
17
 41
0.800000
  7
GOTHIC
 72
     1
 11
2349.087148
 21
992.856695
  0
LINE
  8
0
  6
CONTINUOUS
 62
   134
 10
2357.587148
 20
1042.477992
 11
2357.587148
 21
987.606695
  0
LINE
  8
0
  6
CONTINUOUS
 62
   134
 10
2340.587148
 20
1051.477992
 11
2340.587148
 21
987.606695
  0
LINE
  8
0
  6
CONTINUOUS
 62
   134
 10
2583.506037
 20
989.997895
 11
2588.577148
 21
991.356695
  0
LINE
  8
0
  6
CONTINUOUS
 62
   134
 10
2588.577148
 20
991.356695
 11
2583.506037
 21
992.715495
  0
LINE
  8
0
  6
CONTINUOUS
 62
   134
 10
2576.648258
 20
992.715495
 11
2571.577148
 21
991.356695
  0
LINE
  8
0
  6
CONTINUOUS
 62
   134
 10
2571.577148
 20
991.356695
 11
2576.648258
 21
989.997895
  0
LINE
  8
0
  6
CONTINUOUS
 62
   134
 10
2588.577148
 20
991.356695
 11
2571.577148
 21
991.356695
  0
TEXT
  8
0
 62
   134
 10
2574.077148
 20
992.856695
 40
15.000000
  1
17
 41
0.800000
  7
GOTHIC
 72
     1
 11
2580.077148
 21
992.856695
  0
LINE
  8
0
  6
CONTINUOUS
 62
   134
 10
2588.577148
 20
1051.477992
 11
2588.577148
 21
987.606695
  0
LINE
  8
0
  6
CONTINUOUS
 62
   134
 10
2571.577148
 20
1042.477992
 11
2571.577148
 21
987.606695
  0
LINE
  8
0
  6
CONTINUOUS
 62
   134
 10
2544.808798
 20
1134.156882
 11
2543.449998
 21
1139.227992
  0
LINE
  8
0
  6
CONTINUOUS
 62
   134
 10
2543.449998
 20
1139.227992
 11
2542.091198
 21
1134.156882
  0
LINE
  8
0
  6
CONTINUOUS
 62
   134
 10
2542.091198
 20
1089.299103
 11
2543.449998
 21
1084.227992
  0
LINE
  8
0
  6
CONTINUOUS
 62
   134
 10
2543.449998
 20
1084.227992
 11
2544.808798
 21
1089.299103
  0
LINE
  8
0
  6
CONTINUOUS
 62
   134
 10
2543.449998
 20
1139.227992
 11
2543.449998
 21
1084.227992
  0
TEXT
  8
0
 62
   134
 10
2541.949998
 20
1105.727992
 40
15.000000
  1
55
 50
90.000000
 41
0.800000
  7
GOTHIC
 72
     1
 11
2541.949998
 21
1111.727992
  0
LINE
  8
0
  6
CONTINUOUS
 62
   134
 10
2542.091198
 20
1051.299103
 11
2543.449998
 21
1046.227992
  0
LINE
  8
0
  6
CONTINUOUS
 62
   134
 10
2543.449998
 20
1046.227992
 11
2544.808798
 21
1051.299103
  0
LINE
  8
0
  6
CONTINUOUS
 62
   134
 10
2544.808798
 20
1079.156882
 11
2543.449998
 21
1084.227992
  0
LINE
  8
0
  6
CONTINUOUS
 62
   134
 10
2543.449998
 20
1084.227992
 11
2542.091198
 21
1079.156882
  0
LINE
  8
0
  6
CONTINUOUS
 62
   134
 10
2543.449998
 20
1046.227992
 11
2543.449998
 21
1084.227992
  0
TEXT
  8
0
 62
   134
 10
2541.949998
 20
1059.227992
 40
15.000000
  1
38
 50
90.000000
 41
0.800000
  7
GOTHIC
 72
     1
 11
2541.949998
 21
1065.227992
  0
LINE
  8
0
  6
CONTINUOUS
 62
   134
 10
2321.458216
 20
1056.299103
 11
2322.817016
 21
1051.227992
  0
LINE
  8
0
  6
CONTINUOUS
 62
   134
 10
2322.817016
 20
1051.227992
 11
2324.175816
 21
1056.299103
  0
LINE
  8
0
  6
CONTINUOUS
 62
   134
 10
2324.175816
 20
1066.156882
 11
2322.817016
 21
1071.227992
  0
LINE
  8
0
  6
CONTINUOUS
 62
   134
 10
2322.817016
 20
1071.227992
 11
2321.458216
 21
1066.156882
  0
LINE
  8
0
  6
CONTINUOUS
 62
   134
 10
2322.817016
 20
1051.227992
 11
2322.817016
 21
1071.227992
  0
TEXT
  8
0
 62
   134
 10
2321.317016
 20
1055.227992
 40
15.000000
  1
20
 50
90.000000
 41
0.800000
  7
GOTHIC
 72
     1
 11
2321.317016
 21
1061.227992
  0
LINE
  8
0
  6
CONTINUOUS
 62
   134
 10
2336.837148
 20
1051.227992
 11
2319.067016
 21
1051.227992
  0
LINE
  8
0
  6
CONTINUOUS
 62
   134
 10
2336.837148
 20
1071.227992
 11
2319.067016
 21
1071.227992
  0
LINE
  8
0
  6
CONTINUOUS
 62
     2
 10
2434.587148
 20
1099.227992
 11
2357.587148
 21
1099.227992
  0
LINE
  8
0
  6
CONTINUOUS
 62
     2
 10
2377.587148
 20
1084.227992
 11
2377.587148
 21
1046.227992
  0
LINE
  8
0
  6
CONTINUOUS
 62
     2
 10
2357.587148
 20
1046.227992
 11
2357.587148
 21
1099.227992
  0
LINE
  8
0
  6
CONTINUOUS
 62
     2
 10
2377.587148
 20
1046.227992
 11
2357.587148
 21
1046.227992
  0
LINE
  8
0
  6
CONTINUOUS
 62
     2
 10
2588.577148
 20
1051.227992
 11
2588.577148
 21
1071.227992
  0
LINE
  8
0
  6
CONTINUOUS
 62
     2
 10
2588.577148
 20
1071.227992
 11
2571.577148
 21
1071.227992
  0
LINE
  8
0
  6
CONTINUOUS
 62
     2
 10
2588.577148
 20
1051.227992
 11
2571.577148
 21
1051.227992
  0
LINE
  8
0
  6
CONTINUOUS
 62
     2
 10
2494.577148
 20
1099.227992
 11
2571.577148
 21
1099.227992
  0
LINE
  8
0
  6
CONTINUOUS
 62
     2
 10
2551.577148
 20
1084.227992
 11
2551.577148
 21
1046.227992
  0
LINE
  8
0
  6
CONTINUOUS
 62
     2
 10
2571.577148
 20
1046.227992
 11
2571.577148
 21
1099.227992
  0
LINE
  8
0
  6
CONTINUOUS
 62
     2
 10
2551.577148
 20
1046.227992
 11
2571.577148
 21
1046.227992
  0
LINE
  8
0
  6
CONTINUOUS
 62
   134
 10
2429.506037
 20
1021.420798
 11
2434.577148
 21
1022.779598
  0
LINE
  8
0
  6
CONTINUOUS
 62
   134
 10
2434.577148
 20
1022.779598
 11
2429.506037
 21
1024.138398
  0
LINE
  8
0
  6
CONTINUOUS
 62
   134
 10
2382.658258
 20
1024.138398
 11
2377.587148
 21
1022.779598
  0
LINE
  8
0
  6
CONTINUOUS
 62
   134
 10
2377.587148
 20
1022.779598
 11
2382.658258
 21
1021.420798
  0
LINE
  8
0
  6
CONTINUOUS
 62
   134
 10
2434.577148
 20
1022.779598
 11
2377.587148
 21
1022.779598
  0
TEXT
  8
0
 62
   134
 10
2400.082148
 20
1024.279598
 40
15.000000
  1
57
 41
0.800000
  7
GOTHIC
 72
     1
 11
2406.082148
 21
1024.279598
  0
LINE
  8
0
  6
CONTINUOUS
 62
   134
 10
2377.587148
 20
1042.477992
 11
2377.587148
 21
1019.029598
  0
LINE
  8
0
  6
CONTINUOUS
 62
   134
 10
2372.516037
 20
1021.420798
 11
2377.587148
 21
1022.779598
  0
LINE
  8
0
  6
CONTINUOUS
 62
   134
 10
2377.587148
 20
1022.779598
 11
2372.516037
 21
1024.138398
  0
LINE
  8
0
  6
CONTINUOUS
 62
   134
 10
2362.658258
 20
1024.138398
 11
2357.587148
 21
1022.779598
  0
LINE
  8
0
  6
CONTINUOUS
 62
   134
 10
2357.587148
 20
1022.779598
 11
2362.658258
 21
1021.420798
  0
LINE
  8
0
  6
CONTINUOUS
 62
   134
 10
2377.587148
 20
1022.779598
 11
2357.587148
 21
1022.779598
  0
TEXT
  8
0
 62
   134
 10
2361.587148
 20
1024.279598
 40
15.000000
  1
20
 41
0.800000
  7
GOTHIC
 72
     1
 11
2367.587148
 21
1024.279598
  0
LINE
  8
0
  6
CONTINUOUS
 62
   134
 10
2377.587148
 20
1042.477992
 11
2377.587148
 21
1019.029598
  0
LINE
  8
0
  6
CONTINUOUS
 62
   134
 10
2357.587148
 20
1042.477992
 11
2357.587148
 21
1019.029598
  0
LINE
  8
0
  6
CONTINUOUS
 62
   134
 10
2469.648258
 20
1257.109175
 11
2464.577148
 21
1255.750375
  0
LINE
  8
0
  6
CONTINUOUS
 62
   134
 10
2464.577148
 20
1255.750375
 11
2469.648258
 21
1254.391575
  0
LINE
  8
0
  6
CONTINUOUS
 62
   134
 10
2506.506037
 20
1254.391575
 11
2511.577148
 21
1255.750375
  0
LINE
  8
0
  6
CONTINUOUS
 62
   134
 10
2511.577148
 20
1255.750375
 11
2506.506037
 21
1257.109175
  0
LINE
  8
0
  6
CONTINUOUS
 62
   134
 10
2464.577148
 20
1255.750375
 11
2511.577148
 21
1255.750375
  0
TEXT
  8
0
 62
   134
 10
2482.077148
 20
1257.250375
 40
15.000000
  1
47
 41
0.800000
  7
GOTHIC
 72
     1
 11
2488.077148
 21
1257.250375
  0
LINE
  8
0
  6
CONTINUOUS
 62
   134
 10
2464.577148
 20
1181.587992
 11
2464.577148
 21
1259.500375
  0
LINE
  8
0
  6
CONTINUOUS
 62
   134
 10
2511.577148
 20
1140.977992
 11
2511.577148
 21
1259.500375
  0
LINE
  8
0
  6
CONTINUOUS
 62
   134
 10
2469.648258
 20
1286.148034
 11
2464.577148
 21
1284.789234
  0
LINE
  8
0
  6
CONTINUOUS
 62
   134
 10
2464.577148
 20
1284.789234
 11
2469.648258
 21
1283.430434
  0
LINE
  8
0
  6
CONTINUOUS
 62
   134
 10
2583.506037
 20
1283.430434
 11
2588.577148
 21
1284.789234
  0
LINE
  8
0
  6
CONTINUOUS
 62
   134
 10
2588.577148
 20
1284.789234
 11
2583.506037
 21
1286.148034
  0
LINE
  8
0
  6
CONTINUOUS
 62
   134
 10
2464.577148
 20
1284.789234
 11
2588.577148
 21
1284.789234
  0
TEXT
  8
0
 62
   134
 10
2517.577148
 20
1286.289234
 40
15.000000
  1
124
 41
0.800000
  7
GOTHIC
 72
     1
 11
2526.577148
 21
1286.289234
  0
LINE
  8
0
  6
CONTINUOUS
 62
   134
 10
2464.577148
 20
1259.500375
 11
2464.577148
 21
1288.539234
  0
LINE
  8
0
  6
CONTINUOUS
 62
   134
 10
2588.577148
 20
1074.977992
 11
2588.577148
 21
1288.539234
  0
LINE
  8
0
  6
CONTINUOUS
 62
     2
 10
1953.924634
 20
1140.572840
 11
2013.914634
 21
1140.572840
  0
LINE
  8
0
  6
CONTINUOUS
 62
     2
 10
2013.914634
 20
1140.572840
 11
2013.914634
 21
1200.572840
  0
LINE
  8
0
  6
CONTINUOUS
 62
     2
 10
1953.924634
 20
1200.572840
 11
1953.924634
 21
1140.572840
  0
LINE
  8
0
  6
CONTINUOUS
 62
     2
 10
1953.914634
 20
1085.572840
 11
2013.914634
 21
1085.572840
  0
LINE
  8
0
  6
CONTINUOUS
 62
     2
 10
2013.914634
 20
1085.572840
 11
2013.914634
 21
1105.572840
  0
LINE
  8
0
  6
CONTINUOUS
 62
     2
 10
2013.914634
 20
1105.572840
 11
2020.914634
 21
1105.572840
  0
LINE
  8
0
  6
CONTINUOUS
 62
     2
 10
2020.914634
 20
1105.572840
 11
2030.914634
 21
1122.572840
  0
LINE
  8
0
  6
CONTINUOUS
 62
     2
 10
2030.914634
 20
1122.572840
 11
2030.914634
 21
1138.572840
  0
LINE
  8
0
  6
CONTINUOUS
 62
     2
 10
2030.914634
 20
1138.572840
 11
2020.914634
 21
1155.572840
  0
LINE
  8
0
  6
CONTINUOUS
 62
     2
 10
2020.914634
 20
1155.572840
 11
2013.914634
 21
1155.572840
  0
LINE
  8
0
  6
CONTINUOUS
 62
     2
 10
2013.914634
 20
1155.572840
 11
2013.914634
 21
1140.572840
  0
LINE
  8
0
  6
CONTINUOUS
 62
     2
 10
2013.914634
 20
1140.572840
 11
1953.914634
 21
1140.572840
  0
LINE
  8
0
  6
CONTINUOUS
 62
     2
 10
1953.914634
 20
1140.572840
 11
1953.914634
 21
1155.572840
  0
LINE
  8
0
  6
CONTINUOUS
 62
     2
 10
1953.914634
 20
1155.572840
 11
1946.914634
 21
1155.572840
  0
LINE
  8
0
  6
CONTINUOUS
 62
     2
 10
1946.914634
 20
1155.572840
 11
1936.914634
 21
1138.572840
  0
LINE
  8
0
  6
CONTINUOUS
 62
     2
 10
1936.914634
 20
1138.572840
 11
1936.914634
 21
1122.572840
  0
LINE
  8
0
  6
CONTINUOUS
 62
     2
 10
1936.914634
 20
1122.572840
 11
1946.914634
 21
1105.572840
  0
LINE
  8
0
  6
CONTINUOUS
 62
     2
 10
1946.914634
 20
1105.572840
 11
1953.914634
 21
1105.572840
  0
LINE
  8
0
  6
CONTINUOUS
 62
     2
 10
1953.914634
 20
1105.572840
 11
1953.914634
 21
1085.572840
  0
LINE
  8
0
  6
CONTINUOUS
 62
   134
 10
1958.995744
 20
1221.133039
 11
1953.924634
 21
1219.774239
  0
LINE
  8
0
  6
CONTINUOUS
 62
   134
 10
1953.924634
 20
1219.774239
 11
1958.995744
 21
1218.415439
  0
LINE
  8
0
  6
CONTINUOUS
 62
   134
 10
2008.843523
 20
1218.415439
 11
2013.914634
 21
1219.774239
  0
LINE
  8
0
  6
CONTINUOUS
 62
   134
 10
2013.914634
 20
1219.774239
 11
2008.843523
 21
1221.133039
  0
LINE
  8
0
  6
CONTINUOUS
 62
   134
 10
1953.924634
 20
1219.774239
 11
2013.914634
 21
1219.774239
  0
TEXT
  8
0
 62
   134
 10
1977.919634
 20
1221.274239
 40
15.000000
  1
60
 41
0.800000
  7
GOTHIC
 72
     1
 11
1983.919634
 21
1221.274239
  0
LINE
  8
0
  6
CONTINUOUS
 62
   134
 10
1953.924634
 20
1204.322840
 11
1953.924634
 21
1223.524239
  0
LINE
  8
0
  6
CONTINUOUS
 62
   134
 10
2013.914634
 20
1204.322840
 11
2013.914634
 21
1223.524239
  0
LINE
  8
0
  6
CONTINUOUS
 62
   134
 10
1948.853523
 20
1218.415439
 11
1953.924634
 21
1219.774239
  0
LINE
  8
0
  6
CONTINUOUS
 62
   134
 10
1953.924634
 20
1219.774239
 11
1948.853523
 21
1221.133039
  0
LINE
  8
0
  6
CONTINUOUS
 62
   134
 10
1941.985744
 20
1221.133039
 11
1936.914634
 21
1219.774239
  0
LINE
  8
0
  6
CONTINUOUS
 62
   134
 10
1936.914634
 20
1219.774239
 11
1941.985744
 21
1218.415439
  0
LINE
  8
0
  6
CONTINUOUS
 62
   134
 10
1953.924634
 20
1219.774239
 11
1936.914634
 21
1219.774239
  0
TEXT
  8
0
 62
   134
 10
1939.419634
 20
1221.274239
 40
15.000000
  1
17
 41
0.800000
  7
GOTHIC
 72
     1
 11
1945.419634
 21
1221.274239
  0
LINE
  8
0
  6
CONTINUOUS
 62
   134
 10
1953.924634
 20
1204.322840
 11
1953.924634
 21
1223.524239
  0
LINE
  8
0
  6
CONTINUOUS
 62
   134
 10
1936.914634
 20
1142.322840
 11
1936.914634
 21
1223.524239
  0
LINE
  8
0
  6
CONTINUOUS
 62
   134
 10
2018.985744
 20
1221.133039
 11
2013.914634
 21
1219.774239
  0
LINE
  8
0
  6
CONTINUOUS
 62
   134
 10
2013.914634
 20
1219.774239
 11
2018.985744
 21
1218.415439
  0
LINE
  8
0
  6
CONTINUOUS
 62
   134
 10
2025.843523
 20
1218.415439
 11
2030.914634
 21
1219.774239
  0
LINE
  8
0
  6
CONTINUOUS
 62
   134
 10
2030.914634
 20
1219.774239
 11
2025.843523
 21
1221.133039
  0
LINE
  8
0
  6
CONTINUOUS
 62
   134
 10
2013.914634
 20
1219.774239
 11
2030.914634
 21
1219.774239
  0
TEXT
  8
0
 62
   134
 10
2016.414634
 20
1221.274239
 40
15.000000
  1
17
 41
0.800000
  7
GOTHIC
 72
     1
 11
2022.414634
 21
1221.274239
  0
LINE
  8
0
  6
CONTINUOUS
 62
   134
 10
2013.914634
 20
1204.322840
 11
2013.914634
 21
1223.524239
  0
LINE
  8
0
  6
CONTINUOUS
 62
   134
 10
2030.914634
 20
1142.322840
 11
2030.914634
 21
1223.524239
  0
LINE
  8
0
  6
CONTINUOUS
 62
     2
 10
2070.914634
 20
1085.572840
 11
2013.914634
 21
1085.572840
  0
LINE
  8
0
  6
CONTINUOUS
 62
     2
 10
1896.924634
 20
1085.572840
 11
1953.924634
 21
1085.572840
  0
LINE
  8
0
  6
CONTINUOUS
 62
   134
 10
2064.146284
 20
1195.501729
 11
2062.787484
 21
1200.572840
  0
LINE
  8
0
  6
CONTINUOUS
 62
   134
 10
2062.787484
 20
1200.572840
 11
2061.428684
 21
1195.501729
  0
LINE
  8
0
  6
CONTINUOUS
 62
   134
 10
2061.428684
 20
1145.643950
 11
2062.787484
 21
1140.572840
  0
LINE
  8
0
  6
CONTINUOUS
 62
   134
 10
2062.787484
 20
1140.572840
 11
2064.146284
 21
1145.643950
  0
LINE
  8
0
  6
CONTINUOUS
 62
   134
 10
2062.787484
 20
1200.572840
 11
2062.787484
 21
1140.572840
  0
TEXT
  8
0
 62
   134
 10
2061.287484
 20
1164.572840
 40
15.000000
  1
60
 50
90.000000
 41
0.800000
  7
GOTHIC
 72
     1
 11
2061.287484
 21
1170.572840
  0
LINE
  8
0
  6
CONTINUOUS
 62
   134
 10
2017.664634
 20
1200.572840
 11
2066.537484
 21
1200.572840
  0
LINE
  8
0
  6
CONTINUOUS
 62
   134
 10
2017.664634
 20
1140.572840
 11
2066.537484
 21
1140.572840
  0
LINE
  8
0
  6
CONTINUOUS
 62
     2
 10
2090.914634
 20
1047.572840
 11
1896.924634
 21
1047.572840
  0
LINE
  8
0
  6
CONTINUOUS
 62
   134
 10
1881.995744
 20
994.060342
 11
1876.924634
 21
992.701542
  0
LINE
  8
0
  6
CONTINUOUS
 62
   134
 10
1876.924634
 20
992.701542
 11
1881.995744
 21
991.342742
  0
LINE
  8
0
  6
CONTINUOUS
 62
   134
 10
1948.843523
 20
991.342742
 11
1953.914634
 21
992.701542
  0
LINE
  8
0
  6
CONTINUOUS
 62
   134
 10
1953.914634
 20
992.701542
 11
1948.843523
 21
994.060342
  0
LINE
  8
0
  6
CONTINUOUS
 62
   134
 10
1876.924634
 20
992.701542
 11
1953.914634
 21
992.701542
  0
TEXT
  8
0
 62
   134
 10
1909.419634
 20
994.201542
 40
15.000000
  1
77
 41
0.800000
  7
GOTHIC
 72
     1
 11
1915.419634
 21
994.201542
  0
LINE
  8
0
  6
CONTINUOUS
 62
   134
 10
1876.924634
 20
1043.822840
 11
1876.924634
 21
988.951542
  0
LINE
  8
0
  6
CONTINUOUS
 62
   134
 10
1953.914634
 20
1066.822840
 11
1953.914634
 21
988.951542
  0
LINE
  8
0
  6
CONTINUOUS
 62
   134
 10
1958.985744
 20
994.060342
 11
1953.914634
 21
992.701542
  0
LINE
  8
0
  6
CONTINUOUS
 62
   134
 10
1953.914634
 20
992.701542
 11
1958.985744
 21
991.342742
  0
LINE
  8
0
  6
CONTINUOUS
 62
   134
 10
2008.843523
 20
991.342742
 11
2013.914634
 21
992.701542
  0
LINE
  8
0
  6
CONTINUOUS
 62
   134
 10
2013.914634
 20
992.701542
 11
2008.843523
 21
994.060342
  0
LINE
  8
0
  6
CONTINUOUS
 62
   134
 10
1953.914634
 20
992.701542
 11
2013.914634
 21
992.701542
  0
TEXT
  8
0
 62
   134
 10
1977.914634
 20
994.201542
 40
15.000000
  1
60
 41
0.800000
  7
GOTHIC
 72
     1
 11
1983.914634
 21
994.201542
  0
LINE
  8
0
  6
CONTINUOUS
 62
   134
 10
1953.914634
 20
1066.822840
 11
1953.914634
 21
988.951542
  0
LINE
  8
0
  6
CONTINUOUS
 62
   134
 10
2013.914634
 20
1066.822840
 11
2013.914634
 21
988.951542
  0
LINE
  8
0
  6
CONTINUOUS
 62
   134
 10
2018.985744
 20
994.060342
 11
2013.914634
 21
992.701542
  0
LINE
  8
0
  6
CONTINUOUS
 62
   134
 10
2013.914634
 20
992.701542
 11
2018.985744
 21
991.342742
  0
LINE
  8
0
  6
CONTINUOUS
 62
   134
 10
2085.843523
 20
991.342742
 11
2090.914634
 21
992.701542
  0
LINE
  8
0
  6
CONTINUOUS
 62
   134
 10
2090.914634
 20
992.701542
 11
2085.843523
 21
994.060342
  0
LINE
  8
0
  6
CONTINUOUS
 62
   134
 10
2013.914634
 20
992.701542
 11
2090.914634
 21
992.701542
  0
TEXT
  8
0
 62
   134
 10
2046.414634
 20
994.201542
 40
15.000000
  1
77
 41
0.800000
  7
GOTHIC
 72
     1
 11
2052.414634
 21
994.201542
  0
LINE
  8
0
  6
CONTINUOUS
 62
   134
 10
2013.914634
 20
1066.822840
 11
2013.914634
 21
988.951542
  0
LINE
  8
0
  6
CONTINUOUS
 62
   134
 10
2090.914634
 20
1043.822840
 11
2090.914634
 21
988.951542
  0
LINE
  8
0
  6
CONTINUOUS
 62
     2
 10
1859.924634
 20
1052.572840
 11
1859.924634
 21
1072.572840
  0
LINE
  8
0
  6
CONTINUOUS
 62
     2
 10
1859.924634
 20
1072.572840
 11
1876.924634
 21
1072.572840
  0
LINE
  8
0
  6
CONTINUOUS
 62
     2
 10
1859.924634
 20
1052.572840
 11
1876.924634
 21
1052.572840
  0
LINE
  8
0
  6
CONTINUOUS
 62
   134
 10
1982.069092
 20
1150.501729
 11
1980.710292
 21
1155.572840
  0
LINE
  8
0
  6
CONTINUOUS
 62
   134
 10
1980.710292
 20
1155.572840
 11
1979.351492
 21
1150.501729
  0
LINE
  8
0
  6
CONTINUOUS
 62
   134
 10
1979.351492
 20
1110.643950
 11
1980.710292
 21
1105.572840
  0
LINE
  8
0
  6
CONTINUOUS
 62
   134
 10
1980.710292
 20
1105.572840
 11
1982.069092
 21
1110.643950
  0
LINE
  8
0
  6
CONTINUOUS
 62
   134
 10
1980.710292
 20
1155.572840
 11
1980.710292
 21
1105.572840
  0
TEXT
  8
0
 62
   134
 10
1979.210292
 20
1124.572840
 40
15.000000
  1
50
 50
90.000000
 41
0.800000
  7
GOTHIC
 72
     1
 11
1979.210292
 21
1130.572840
  0
LINE
  8
0
  6
CONTINUOUS
 62
   134
 10
1950.664634
 20
1155.572840
 11
1984.460292
 21
1155.572840
  0
LINE
  8
0
  6
CONTINUOUS
 62
   134
 10
1957.664634
 20
1105.572840
 11
1984.460292
 21
1105.572840
  0
LINE
  8
0
  6
CONTINUOUS
 62
   134
 10
1982.069092
 20
1100.501729
 11
1980.710292
 21
1105.572840
  0
LINE
  8
0
  6
CONTINUOUS
 62
   134
 10
1980.710292
 20
1105.572840
 11
1979.351492
 21
1100.501729
  0
LINE
  8
0
  6
CONTINUOUS
 62
   134
 10
1979.351492
 20
1090.643950
 11
1980.710292
 21
1085.572840
  0
LINE
  8
0
  6
CONTINUOUS
 62
   134
 10
1980.710292
 20
1085.572840
 11
1982.069092
 21
1090.643950
  0
LINE
  8
0
  6
CONTINUOUS
 62
   134
 10
1980.710292
 20
1105.572840
 11
1980.710292
 21
1085.572840
  0
TEXT
  8
0
 62
   134
 10
1979.210292
 20
1089.572840
 40
15.000000
  1
20
 50
90.000000
 41
0.800000
  7
GOTHIC
 72
     1
 11
1979.210292
 21
1095.572840
  0
LINE
  8
0
  6
CONTINUOUS
 62
   134
 10
1871.853523
 20
991.342742
 11
1876.924634
 21
992.701542
  0
LINE
  8
0
  6
CONTINUOUS
 62
   134
 10
1876.924634
 20
992.701542
 11
1871.853523
 21
994.060342
  0
LINE
  8
0
  6
CONTINUOUS
 62
   134
 10
1864.995744
 20
994.060342
 11
1859.924634
 21
992.701542
  0
LINE
  8
0
  6
CONTINUOUS
 62
   134
 10
1859.924634
 20
992.701542
 11
1864.995744
 21
991.342742
  0
LINE
  8
0
  6
CONTINUOUS
 62
   134
 10
1876.924634
 20
992.701542
 11
1859.924634
 21
992.701542
  0
TEXT
  8
0
 62
   134
 10
1862.424634
 20
994.201542
 40
15.000000
  1
17
 41
0.800000
  7
GOTHIC
 72
     1
 11
1868.424634
 21
994.201542
  0
LINE
  8
0
  6
CONTINUOUS
 62
   134
 10
1876.924634
 20
1043.822840
 11
1876.924634
 21
988.951542
  0
LINE
  8
0
  6
CONTINUOUS
 62
   134
 10
1859.924634
 20
1052.822840
 11
1859.924634
 21
988.951542
  0
LINE
  8
0
  6
CONTINUOUS
 62
   134
 10
2102.843523
 20
991.342742
 11
2107.914634
 21
992.701542
  0
LINE
  8
0
  6
CONTINUOUS
 62
   134
 10
2107.914634
 20
992.701542
 11
2102.843523
 21
994.060342
  0
LINE
  8
0
  6
CONTINUOUS
 62
   134
 10
2095.985744
 20
994.060342
 11
2090.914634
 21
992.701542
  0
LINE
  8
0
  6
CONTINUOUS
 62
   134
 10
2090.914634
 20
992.701542
 11
2095.985744
 21
991.342742
  0
LINE
  8
0
  6
CONTINUOUS
 62
   134
 10
2107.914634
 20
992.701542
 11
2090.914634
 21
992.701542
  0
TEXT
  8
0
 62
   134
 10
2093.414634
 20
994.201542
 40
15.000000
  1
17
 41
0.800000
  7
GOTHIC
 72
     1
 11
2099.414634
 21
994.201542
  0
LINE
  8
0
  6
CONTINUOUS
 62
   134
 10
2107.914634
 20
1052.822840
 11
2107.914634
 21
988.951542
  0
LINE
  8
0
  6
CONTINUOUS
 62
   134
 10
2090.914634
 20
1043.822840
 11
2090.914634
 21
988.951542
  0
LINE
  8
0
  6
CONTINUOUS
 62
   134
 10
2064.146284
 20
1135.501729
 11
2062.787484
 21
1140.572840
  0
LINE
  8
0
  6
CONTINUOUS
 62
   134
 10
2062.787484
 20
1140.572840
 11
2061.428684
 21
1135.501729
  0
LINE
  8
0
  6
CONTINUOUS
 62
   134
 10
2061.428684
 20
1090.643950
 11
2062.787484
 21
1085.572840
  0
LINE
  8
0
  6
CONTINUOUS
 62
   134
 10
2062.787484
 20
1085.572840
 11
2064.146284
 21
1090.643950
  0
LINE
  8
0
  6
CONTINUOUS
 62
   134
 10
2062.787484
 20
1140.572840
 11
2062.787484
 21
1085.572840
  0
TEXT
  8
0
 62
   134
 10
2061.287484
 20
1107.072840
 40
15.000000
  1
55
 50
90.000000
 41
0.800000
  7
GOTHIC
 72
     1
 11
2061.287484
 21
1113.072840
  0
LINE
  8
0
  6
CONTINUOUS
 62
   134
 10
2061.428684
 20
1052.643950
 11
2062.787484
 21
1047.572840
  0
LINE
  8
0
  6
CONTINUOUS
 62
   134
 10
2062.787484
 20
1047.572840
 11
2064.146284
 21
1052.643950
  0
LINE
  8
0
  6
CONTINUOUS
 62
   134
 10
2064.146284
 20
1080.501729
 11
2062.787484
 21
1085.572840
  0
LINE
  8
0
  6
CONTINUOUS
 62
   134
 10
2062.787484
 20
1085.572840
 11
2061.428684
 21
1080.501729
  0
LINE
  8
0
  6
CONTINUOUS
 62
   134
 10
2062.787484
 20
1047.572840
 11
2062.787484
 21
1085.572840
  0
TEXT
  8
0
 62
   134
 10
2061.287484
 20
1060.572840
 40
15.000000
  1
38
 50
90.000000
 41
0.800000
  7
GOTHIC
 72
     1
 11
2061.287484
 21
1066.572840
  0
LINE
  8
0
  6
CONTINUOUS
 62
   134
 10
1840.795702
 20
1057.643950
 11
1842.154502
 21
1052.572840
  0
LINE
  8
0
  6
CONTINUOUS
 62
   134
 10
1842.154502
 20
1052.572840
 11
1843.513302
 21
1057.643950
  0
LINE
  8
0
  6
CONTINUOUS
 62
   134
 10
1843.513302
 20
1067.501729
 11
1842.154502
 21
1072.572840
  0
LINE
  8
0
  6
CONTINUOUS
 62
   134
 10
1842.154502
 20
1072.572840
 11
1840.795702
 21
1067.501729
  0
LINE
  8
0
  6
CONTINUOUS
 62
   134
 10
1842.154502
 20
1052.572840
 11
1842.154502
 21
1072.572840
  0
TEXT
  8
0
 62
   134
 10
1840.654502
 20
1056.572840
 40
15.000000
  1
20
 50
90.000000
 41
0.800000
  7
GOTHIC
 72
     1
 11
1840.654502
 21
1062.572840
  0
LINE
  8
0
  6
CONTINUOUS
 62
   134
 10
1856.174634
 20
1052.572840
 11
1838.404502
 21
1052.572840
  0
LINE
  8
0
  6
CONTINUOUS
 62
   134
 10
1856.174634
 20
1072.572840
 11
1838.404502
 21
1072.572840
  0
LINE
  8
0
  6
CONTINUOUS
 62
     2
 10
1953.924634
 20
1100.572840
 11
1876.924634
 21
1100.572840
  0
LINE
  8
0
  6
CONTINUOUS
 62
     2
 10
1896.924634
 20
1085.572840
 11
1896.924634
 21
1047.572840
  0
LINE
  8
0
  6
CONTINUOUS
 62
     2
 10
1876.924634
 20
1047.572840
 11
1876.924634
 21
1100.572840
  0
LINE
  8
0
  6
CONTINUOUS
 62
     2
 10
1896.924634
 20
1047.572840
 11
1876.924634
 21
1047.572840
  0
LINE
  8
0
  6
CONTINUOUS
 62
     2
 10
2107.914634
 20
1052.572840
 11
2107.914634
 21
1072.572840
  0
LINE
  8
0
  6
CONTINUOUS
 62
     2
 10
2107.914634
 20
1072.572840
 11
2090.914634
 21
1072.572840
  0
LINE
  8
0
  6
CONTINUOUS
 62
     2
 10
2107.914634
 20
1052.572840
 11
2090.914634
 21
1052.572840
  0
LINE
  8
0
  6
CONTINUOUS
 62
     2
 10
2013.914634
 20
1100.572840
 11
2090.914634
 21
1100.572840
  0
LINE
  8
0
  6
CONTINUOUS
 62
     2
 10
2070.914634
 20
1085.572840
 11
2070.914634
 21
1047.572840
  0
LINE
  8
0
  6
CONTINUOUS
 62
     2
 10
2090.914634
 20
1047.572840
 11
2090.914634
 21
1100.572840
  0
LINE
  8
0
  6
CONTINUOUS
 62
     2
 10
2070.914634
 20
1047.572840
 11
2090.914634
 21
1047.572840
  0
LINE
  8
0
  6
CONTINUOUS
 62
   134
 10
1948.843523
 20
1022.765645
 11
1953.914634
 21
1024.124445
  0
LINE
  8
0
  6
CONTINUOUS
 62
   134
 10
1953.914634
 20
1024.124445
 11
1948.843523
 21
1025.483245
  0
LINE
  8
0
  6
CONTINUOUS
 62
   134
 10
1901.995744
 20
1025.483245
 11
1896.924634
 21
1024.124445
  0
LINE
  8
0
  6
CONTINUOUS
 62
   134
 10
1896.924634
 20
1024.124445
 11
1901.995744
 21
1022.765645
  0
LINE
  8
0
  6
CONTINUOUS
 62
   134
 10
1953.914634
 20
1024.124445
 11
1896.924634
 21
1024.124445
  0
TEXT
  8
0
 62
   134
 10
1919.419634
 20
1025.624445
 40
15.000000
  1
57
 41
0.800000
  7
GOTHIC
 72
     1
 11
1925.419634
 21
1025.624445
  0
LINE
  8
0
  6
CONTINUOUS
 62
   134
 10
1896.924634
 20
1043.822840
 11
1896.924634
 21
1020.374445
  0
LINE
  8
0
  6
CONTINUOUS
 62
   134
 10
1891.853523
 20
1022.765645
 11
1896.924634
 21
1024.124445
  0
LINE
  8
0
  6
CONTINUOUS
 62
   134
 10
1896.924634
 20
1024.124445
 11
1891.853523
 21
1025.483245
  0
LINE
  8
0
  6
CONTINUOUS
 62
   134
 10
1881.995744
 20
1025.483245
 11
1876.924634
 21
1024.124445
  0
LINE
  8
0
  6
CONTINUOUS
 62
   134
 10
1876.924634
 20
1024.124445
 11
1881.995744
 21
1022.765645
  0
LINE
  8
0
  6
CONTINUOUS
 62
   134
 10
1896.924634
 20
1024.124445
 11
1876.924634
 21
1024.124445
  0
TEXT
  8
0
 62
   134
 10
1880.924634
 20
1025.624445
 40
15.000000
  1
20
 41
0.800000
  7
GOTHIC
 72
     1
 11
1886.924634
 21
1025.624445
  0
LINE
  8
0
  6
CONTINUOUS
 62
   134
 10
1896.924634
 20
1043.822840
 11
1896.924634
 21
1020.374445
  0
LINE
  8
0
  6
CONTINUOUS
 62
   134
 10
1876.924634
 20
1043.822840
 11
1876.924634
 21
1020.374445
  0
LINE
  8
0
  6
CONTINUOUS
 62
   134
 10
1988.985744
 20
1258.454022
 11
1983.914634
 21
1257.095222
  0
LINE
  8
0
  6
CONTINUOUS
 62
   134
 10
1983.914634
 20
1257.095222
 11
1988.985744
 21
1255.736422
  0
LINE
  8
0
  6
CONTINUOUS
 62
   134
 10
2025.843523
 20
1255.736422
 11
2030.914634
 21
1257.095222
  0
LINE
  8
0
  6
CONTINUOUS
 62
   134
 10
2030.914634
 20
1257.095222
 11
2025.843523
 21
1258.454022
  0
LINE
  8
0
  6
CONTINUOUS
 62
   134
 10
1983.914634
 20
1257.095222
 11
2030.914634
 21
1257.095222
  0
TEXT
  8
0
 62
   134
 10
2001.414634
 20
1258.595222
 40
15.000000
  1
47
 41
0.800000
  7
GOTHIC
 72
     1
 11
2007.414634
 21
1258.595222
  0
LINE
  8
0
  6
CONTINUOUS
 62
   134
 10
1983.914634
 20
1182.932840
 11
1983.914634
 21
1260.845222
  0
LINE
  8
0
  6
CONTINUOUS
 62
   134
 10
2030.914634
 20
1142.322840
 11
2030.914634
 21
1260.845222
  0
LINE
  8
0
  6
CONTINUOUS
 62
   134
 10
1988.985744
 20
1287.492881
 11
1983.914634
 21
1286.134081
  0
LINE
  8
0
  6
CONTINUOUS
 62
   134
 10
1983.914634
 20
1286.134081
 11
1988.985744
 21
1284.775281
  0
LINE
  8
0
  6
CONTINUOUS
 62
   134
 10
2102.843523
 20
1284.775281
 11
2107.914634
 21
1286.134081
  0
LINE
  8
0
  6
CONTINUOUS
 62
   134
 10
2107.914634
 20
1286.134081
 11
2102.843523
 21
1287.492881
  0
LINE
  8
0
  6
CONTINUOUS
 62
   134
 10
1983.914634
 20
1286.134081
 11
2107.914634
 21
1286.134081
  0
TEXT
  8
0
 62
   134
 10
2036.914634
 20
1287.634081
 40
15.000000
  1
124
 41
0.800000
  7
GOTHIC
 72
     1
 11
2045.914634
 21
1287.634081
  0
LINE
  8
0
  6
CONTINUOUS
 62
   134
 10
1983.914634
 20
1260.845222
 11
1983.914634
 21
1289.884081
  0
LINE
  8
0
  6
CONTINUOUS
 62
   134
 10
2107.914634
 20
1076.322840
 11
2107.914634
 21
1289.884081
  0
LINE
  8
0
  6
CONTINUOUS
 62
     2
 10
2013.914634
 20
1200.562840
 11
2001.664634
 21
1200.562840
  0
LINE
  8
0
  6
CONTINUOUS
 62
     2
 10
2001.664634
 20
1200.562840
 11
2000.854634
 21
1200.482840
  0
LINE
  8
0
  6
CONTINUOUS
 62
     2
 10
2000.854634
 20
1200.482840
 11
2000.063634
 21
1200.232840
  0
LINE
  8
0
  6
CONTINUOUS
 62
     2
 10
2000.063634
 20
1200.232840
 11
1999.334634
 21
1199.822840
  0
LINE
  8
0
  6
CONTINUOUS
 62
     2
 10
1999.334634
 20
1199.822840
 11
1998.724634
 21
1199.262840
  0
LINE
  8
0
  6
CONTINUOUS
 62
     2
 10
1998.724634
 20
1199.262840
 11
1995.904634
 21
1196.192840
  0
LINE
  8
0
  6
CONTINUOUS
 62
     2
 10
1995.904634
 20
1196.192840
 11
1995.904634
 21
1194.722840
  0
LINE
  8
0
  6
CONTINUOUS
 62
     2
 10
1995.904634
 20
1194.722840
 11
1986.124634
 21
1184.052840
  0
LINE
  8
0
  6
CONTINUOUS
 62
     2
 10
1986.124634
 20
1184.052840
 11
1985.104634
 21
1183.312840
  0
LINE
  8
0
  6
CONTINUOUS
 62
     2
 10
1985.104634
 20
1183.312840
 11
1983.914634
 21
1183.062840
  0
LINE
  8
0
  6
CONTINUOUS
 62
     2
 10
1983.914634
 20
1183.062840
 11
1982.694634
 21
1183.312840
  0
LINE
  8
0
  6
CONTINUOUS
 62
     2
 10
1982.694634
 20
1183.312840
 11
1981.704634
 21
1184.052840
  0
LINE
  8
0
  6
CONTINUOUS
 62
     2
 10
1981.704634
 20
1184.052840
 11
1971.904634
 21
1194.722840
  0
LINE
  8
0
  6
CONTINUOUS
 62
     2
 10
1971.904634
 20
1194.722840
 11
1971.904634
 21
1196.192840
  0
LINE
  8
0
  6
CONTINUOUS
 62
     2
 10
1971.904634
 20
1196.192840
 11
1969.104634
 21
1199.262840
  0
LINE
  8
0
  6
CONTINUOUS
 62
     2
 10
1969.104634
 20
1199.262840
 11
1968.474634
 21
1199.822840
  0
LINE
  8
0
  6
CONTINUOUS
 62
     2
 10
1968.474634
 20
1199.822840
 11
1967.765634
 21
1200.232840
  0
LINE
  8
0
  6
CONTINUOUS
 62
     2
 10
1967.765634
 20
1200.232840
 11
1966.974634
 21
1200.482840
  0
LINE
  8
0
  6
CONTINUOUS
 62
     2
 10
1966.974634
 20
1200.482840
 11
1966.164634
 21
1200.562840
  0
LINE
  8
0
  6
CONTINUOUS
 62
     2
 10
1966.164634
 20
1200.562840
 11
1953.914634
 21
1200.562840
  0
POINT
  8
0
 62
     5
 10
1967.918966
 20
1200.562840
  0
POINT
  8
0
 62
     5
 10
1999.918770
 20
1200.562840
  0
TEXT
  8
0
 62
     7
 10
2276.897835
 20
1349.197661
 40
130.000000
  1
V40
 41
0.800000
  7
GOTHIC
 11
2276.897835
 21
1479.197661
 73
     3
  0
TEXT
  8
0
 62
     7
 10
1872.716069
 20
1342.614988
 40
130.000000
  1
V32
 41
0.800000
  7
GOTHIC
 11
1872.716069
 21
1472.614988
 73
     3
  0
LINE
  8
0
  6
CONTINUOUS
 62
     4
 10
361.673504
 20
1239.006241
 11
360.586464
 21
1243.063130
  0
LINE
  8
0
  6
CONTINUOUS
 62
     4
 10
360.586464
 20
1243.063130
 11
359.499424
 21
1239.006241
  0
LINE
  8
0
  6
CONTINUOUS
 62
     4
 10
359.499424
 20
1150.621018
 11
360.586464
 21
1146.564130
  0
LINE
  8
0
  6
CONTINUOUS
 62
     4
 10
360.586464
 20
1146.564130
 11
361.673504
 21
1150.621018
  0
LINE
  8
0
  6
CONTINUOUS
 62
     4
 10
360.586464
 20
1243.063130
 11
360.586464
 21
1146.564130
  0
TEXT
  8
0
 62
     4
 10
359.386464
 20
1185.213630
 40
12.000000
  1
96.5
 50
90.000000
 41
0.800000
  7
GOTHIC
 72
     1
 11
359.386464
 21
1194.813630
  0
LINE
  8
0
  6
CONTINUOUS
 62
     4
 10
410.925996
 20
1243.063130
 11
357.586464
 21
1243.063130
  0
LINE
  8
0
  6
CONTINUOUS
 62
     4
 10
383.221985
 20
1146.564130
 11
357.586464
 21
1146.564130
  0
LINE
  8
0
  6
CONTINUOUS
 62
     4
 10
290.422586
 20
1239.006241
 11
289.335546
 21
1243.063130
  0
LINE
  8
0
  6
CONTINUOUS
 62
     4
 10
289.335546
 20
1243.063130
 11
288.248506
 21
1239.006241
  0
LINE
  8
0
  6
CONTINUOUS
 62
     4
 10
288.248506
 20
1060.621018
 11
289.335546
 21
1056.564130
  0
LINE
  8
0
  6
CONTINUOUS
 62
     4
 10
289.335546
 20
1056.564130
 11
290.422586
 21
1060.621018
  0
LINE
  8
0
  6
CONTINUOUS
 62
     4
 10
289.335546
 20
1243.063130
 11
289.335546
 21
1056.564130
  0
TEXT
  8
0
 62
     4
 10
288.135546
 20
1137.813630
 40
12.000000
  1
186.5
 50
90.000000
 41
0.800000
  7
GOTHIC
 72
     1
 11
288.135546
 21
1149.813630
  0
LINE
  8
0
  6
CONTINUOUS
 62
     4
 10
357.586464
 20
1243.063130
 11
286.335546
 21
1243.063130
  0
LINE
  8
0
  6
CONTINUOUS
 62
     4
 10
323.221985
 20
1056.564130
 11
286.335546
 21
1056.564130
  0
LINE
  8
0
  6
CONTINUOUS
 62
     4
 10
195.235814
 20
1239.006241
 11
194.148774
 21
1243.063130
  0
LINE
  8
0
  6
CONTINUOUS
 62
     4
 10
194.148774
 20
1243.063130
 11
193.061734
 21
1239.006241
  0
LINE
  8
0
  6
CONTINUOUS
 62
     4
 10
193.061734
 20
1010.621018
 11
194.148774
 21
1006.564130
  0
LINE
  8
0
  6
CONTINUOUS
 62
     4
 10
194.148774
 20
1006.564130
 11
195.235814
 21
1010.621018
  0
LINE
  8
0
  6
CONTINUOUS
 62
     4
 10
194.148774
 20
1243.063130
 11
194.148774
 21
1006.564130
  0
TEXT
  8
0
 62
     4
 10
192.948774
 20
1112.813630
 40
12.000000
  1
236.5
 50
90.000000
 41
0.800000
  7
GOTHIC
 72
     1
 11
192.948774
 21
1124.813630
  0
LINE
  8
0
  6
CONTINUOUS
 62
     4
 10
286.335546
 20
1243.063130
 11
191.148774
 21
1243.063130
  0
LINE
  8
0
  6
CONTINUOUS
 62
     4
 10
243.221985
 20
1006.564130
 11
191.148774
 21
1006.564130
  0
LINE
  8
0
  6
CONTINUOUS
 62
     4
 10
1069.493167
 20
1239.007241
 11
1068.406127
 21
1243.064130
  0
LINE
  8
0
  6
CONTINUOUS
 62
     4
 10
1068.406127
 20
1243.064130
 11
1067.319087
 21
1239.007241
  0
LINE
  8
0
  6
CONTINUOUS
 62
     4
 10
1067.319087
 20
1150.621018
 11
1068.406127
 21
1146.564130
  0
LINE
  8
0
  6
CONTINUOUS
 62
     4
 10
1068.406127
 20
1146.564130
 11
1069.493167
 21
1150.621018
  0
LINE
  8
0
  6
CONTINUOUS
 62
     4
 10
1068.406127
 20
1243.064130
 11
1068.406127
 21
1146.564130
  0
TEXT
  8
0
 62
     4
 10
1067.206127
 20
1185.214130
 40
12.000000
  1
96.5
 50
90.000000
 41
0.800000
  7
GOTHIC
 72
     1
 11
1067.206127
 21
1194.814130
  0
LINE
  8
0
  6
CONTINUOUS
 62
     4
 10
1151.471985
 20
1243.064130
 11
1065.406127
 21
1243.064130
  0
LINE
  8
0
  6
CONTINUOUS
 62
     4
 10
1098.221985
 20
1146.564130
 11
1065.406127
 21
1146.564130
  0
LINE
  8
0
  6
CONTINUOUS
 62
     4
 10
1006.174481
 20
1239.007241
 11
1005.087441
 21
1243.064130
  0
LINE
  8
0
  6
CONTINUOUS
 62
     4
 10
1005.087441
 20
1243.064130
 11
1004.000401
 21
1239.007241
  0
LINE
  8
0
  6
CONTINUOUS
 62
     4
 10
1004.000401
 20
1060.621018
 11
1005.087441
 21
1056.564130
  0
LINE
  8
0
  6
CONTINUOUS
 62
     4
 10
1005.087441
 20
1056.564130
 11
1006.174481
 21
1060.621018
  0
LINE
  8
0
  6
CONTINUOUS
 62
     4
 10
1005.087441
 20
1243.064130
 11
1005.087441
 21
1056.564130
  0
TEXT
  8
0
 62
     4
 10
1003.887441
 20
1137.814130
 40
12.000000
  1
186.5
 50
90.000000
 41
0.800000
  7
GOTHIC
 72
     1
 11
1003.887441
 21
1149.814130
  0
LINE
  8
0
  6
CONTINUOUS
 62
     4
 10
1065.406127
 20
1243.064130
 11
1002.087441
 21
1243.064130
  0
LINE
  8
0
  6
CONTINUOUS
 62
     4
 10
1038.221985
 20
1056.564130
 11
1002.087441
 21
1056.564130
  0
LINE
  8
0
  6
CONTINUOUS
 62
     4
 10
898.184809
 20
1239.007241
 11
897.097769
 21
1243.064130
  0
LINE
  8
0
  6
CONTINUOUS
 62
     4
 10
897.097769
 20
1243.064130
 11
896.010729
 21
1239.007241
  0
LINE
  8
0
  6
CONTINUOUS
 62
     4
 10
896.010729
 20
1010.621018
 11
897.097769
 21
1006.564130
  0
LINE
  8
0
  6
CONTINUOUS
 62
     4
 10
897.097769
 20
1006.564130
 11
898.184809
 21
1010.621018
  0
LINE
  8
0
  6
CONTINUOUS
 62
     4
 10
897.097769
 20
1243.064130
 11
897.097769
 21
1006.564130
  0
TEXT
  8
0
 62
     4
 10
895.897769
 20
1112.814130
 40
12.000000
  1
236.5
 50
90.000000
 41
0.800000
  7
GOTHIC
 72
     1
 11
895.897769
 21
1124.814130
  0
LINE
  8
0
  6
CONTINUOUS
 62
     4
 10
1002.087441
 20
1243.064130
 11
894.097769
 21
1243.064130
  0
LINE
  8
0
  6
CONTINUOUS
 62
     4
 10
958.221985
 20
1006.564130
 11
894.097769
 21
1006.564130
  0
LINE
  8
0
  6
CONTINUOUS
 62
     4
 10
1816.150913
 20
1196.505951
 11
1815.063873
 21
1200.562840
  0
LINE
  8
0
  6
CONTINUOUS
 62
     4
 10
1815.063873
 20
1200.562840
 11
1813.976833
 21
1196.505951
  0
LINE
  8
0
  6
CONTINUOUS
 62
     4
 10
1813.976833
 20
1051.629728
 11
1815.063873
 21
1047.572840
  0
LINE
  8
0
  6
CONTINUOUS
 62
     4
 10
1815.063873
 20
1047.572840
 11
1816.150913
 21
1051.629728
  0
LINE
  8
0
  6
CONTINUOUS
 62
     4
 10
1815.063873
 20
1200.562840
 11
1815.063873
 21
1047.572840
  0
TEXT
  8
0
 62
     4
 10
1813.863873
 20
1116.867840
 40
12.000000
  1
153
 50
90.000000
 41
0.800000
  7
GOTHIC
 72
     1
 11
1813.863873
 21
1124.067840
  0
LINE
  8
0
  6
CONTINUOUS
 62
     4
 10
1950.914634
 20
1200.562840
 11
1812.063873
 21
1200.562840
  0
LINE
  8
0
  6
CONTINUOUS
 62
     4
 10
1873.924634
 20
1047.572840
 11
1812.063873
 21
1047.572840
  0
LINE
  8
0
  6
CONTINUOUS
 62
     2
 10
1876.924634
 20
152.572840
 11
2090.914634
 21
152.572840
  0
LINE
  8
0
  6
CONTINUOUS
 62
     2
 10
661.221985
 20
181.564130
 11
246.221985
 21
181.564130
  0
LINE
  8
0
  6
CONTINUOUS
 62
     2
 10
1376.221985
 20
181.564130
 11
961.221985
 21
181.564130
  0
LINE
  8
0
  6
CONTINUOUS
 62
     1
 10
55.470667
 20
198.467832
 11
60.000000
 21
181.564130
  0
LINE
  8
0
  6
CONTINUOUS
 62
     1
 10
60.000000
 20
181.564130
 11
64.529333
 21
198.467832
  0
LINE
  8
0
  6
CONTINUOUS
 62
     1
 10
64.529333
 20
989.660428
 11
60.000000
 21
1006.564130
  0
LINE
  8
0
  6
CONTINUOUS
 62
     1
 10
60.000000
 20
1006.564130
 11
55.470667
 21
989.660428
  0
LINE
  8
0
  6
CONTINUOUS
 62
     1
 10
60.000000
 20
181.564130
 11
60.000000
 21
1006.564130
  0
TEXT
  8
0
 62
     1
 10
55.000000
 20
564.064130
 40
50.000000
  1
825
 50
90.000000
 41
0.800000
  7
GOTHIC
 72
     1
 11
55.000000
 21
594.064130
  0
LINE
  8
0
  6
CONTINUOUS
 62
     1
 10
233.721985
 20
181.564130
 11
47.500000
 21
181.564130
  0
LINE
  8
0
  6
CONTINUOUS
 62
     1
 10
233.721985
 20
1006.564130
 11
47.500000
 21
1006.564130
  0
LINE
  8
0
  6
CONTINUOUS
 62
     1
 10
835.481992
 20
198.467832
 11
840.011325
 21
181.564130
  0
LINE
  8
0
  6
CONTINUOUS
 62
     1
 10
840.011325
 20
181.564130
 11
844.540658
 21
198.467832
  0
LINE
  8
0
  6
CONTINUOUS
 62
     1
 10
844.540658
 20
989.660428
 11
840.011325
 21
1006.564130
  0
LINE
  8
0
  6
CONTINUOUS
 62
     1
 10
840.011325
 20
1006.564130
 11
835.481992
 21
989.660428
  0
LINE
  8
0
  6
CONTINUOUS
 62
     1
 10
840.011325
 20
181.564130
 11
840.011325
 21
1006.564130
  0
TEXT
  8
0
 62
     1
 10
835.011325
 20
564.064130
 40
50.000000
  1
825
 50
90.000000
 41
0.800000
  7
GOTHIC
 72
     1
 11
835.011325
 21
594.064130
  0
LINE
  8
0
  6
CONTINUOUS
 62
     1
 10
948.721985
 20
181.564130
 11
827.511325
 21
181.564130
  0
LINE
  8
0
  6
CONTINUOUS
 62
     1
 10
948.721985
 20
1006.564130
 11
827.511325
 21
1006.564130
  0
LINE
  8
0
  6
CONTINUOUS
 62
     2
 10
1876.924634
 20
1047.572840
 11
1876.924634
 21
152.572840
  0
LINE
  8
0
  6
CONTINUOUS
 62
     2
 10
2090.914634
 20
1047.572840
 11
2090.914634
 21
152.572840
  0
LINE
  8
0
  6
CONTINUOUS
 62
     1
 10
1705.132586
 20
1035.669138
 11
1700.603252
 21
1052.572840
  0
LINE
  8
0
  6
CONTINUOUS
 62
     1
 10
1700.603252
 20
1052.572840
 11
1696.073919
 21
1035.669138
  0
LINE
  8
0
  6
CONTINUOUS
 62
     1
 10
1696.073919
 20
169.476541
 11
1700.603252
 21
152.572840
  0
LINE
  8
0
  6
CONTINUOUS
 62
     1
 10
1700.603252
 20
152.572840
 11
1705.132586
 21
169.476541
  0
LINE
  8
0
  6
CONTINUOUS
 62
     1
 10
1700.603252
 20
1052.572840
 11
1700.603252
 21
152.572840
  0
TEXT
  8
0
 62
     1
 10
1695.603252
 20
572.572840
 40
50.000000
  1
900
 50
90.000000
 41
0.800000
  7
GOTHIC
 72
     1
 11
1695.603252
 21
602.572840
  0
LINE
  8
0
  6
CONTINUOUS
 62
     1
 10
1847.424634
 20
1052.572840
 11
1688.103252
 21
1052.572840
  0
LINE
  8
0
  6
CONTINUOUS
 62
     1
 10
1864.424634
 20
152.572840
 11
1688.103252
 21
152.572840
  0
LINE
  8
0
  6
CONTINUOUS
 62
     2
 10
2357.587148
 20
151.227992
 11
2571.577148
 21
151.227992
  0
LINE
  8
0
  6
CONTINUOUS
 62
     2
 10
2357.587148
 20
1046.227992
 11
2357.587148
 21
151.227992
  0
LINE
  8
0
  6
CONTINUOUS
 62
     2
 10
2571.577148
 20
1046.227992
 11
2571.577148
 21
151.227992
  0
TEXT
  8
0
 62
     7
 10
179.748779
 20
35.390713
 40
130.000000
  1
’n–Ê
 41
0.800000
  7
GOTHIC
 11
179.748779
 21
165.390713
 73
     3
  0
TEXT
  8
0
 62
     7
 10
907.027941
 20
21.234428
 40
130.000000
  1
’n–Ê
 41
0.800000
  7
GOTHIC
 11
907.027941
 21
151.234428
 73
     3
  0
TEXT
  8
0
 62
     7
 10
1798.873921
 20
5.308607
 40
130.000000
  1
’n–Ê
 41
0.800000
  7
GOTHIC
 11
1798.873921
 21
135.308607
 73
     3
  0
TEXT
  8
0
 62
     7
 10
2289.035302
 20
0.000000
 40
130.000000
  1
’n–Ê
 41
0.800000
  7
GOTHIC
 11
2289.035302
 21
130.000000
 73
     3
  0
ENDSEC
  0
EOF
