  0
SECTION
  2
HEADER
  9
$ACADVER
  1
AC1009
  9
$DWGCODEPAGE
  3
dos932
  9
$EXTMIN
 10
0.000000
 20
0.000000
  9
$EXTMAX
 10
481.473206
 20
1446.513543
  9
$LIMMIN
 10
0.000000
 20
0.000000
  9
$LIMMAX
 10
481.473206
 20
1446.513543
  9
$LTSCALE
 40
1.000000
  0
ENDSEC
  0
SECTION
  2
TABLES
  0
TABLE
  2
VPORT
 70
     1
  0
VPORT
  2
*ACTIVE
 70
     0
 10
0.000000
 20
0.000000
 11
1.000000
 21
1.000000
 12
240.736603
 22
723.256772
 13
0.000000
 23
0.000000
 14
1.000000
 24
1.000000
 15
0.000000
 25
0.000000
 16
0.000000
 26
0.000000
 36
1.000000
 17
0.000000
 27
0.000000
 37
0.000000
 40
1446.513543
 41
0.332851
 42
50.000000
 43
0.000000
 44
0.000000
 50
0.000000
 51
0.000000
 71
     0
 72
   100
 73
     1
 74
     1
 75
     0
 76
     0
 77
     0
 78
     0
  0
ENDTAB
  0
TABLE
  2
LTYPE
 70
     5
  0
LTYPE
  2
CONTINUOUS
 70
    64
  3
CONTINUOUS
 72
    65
 73
     0
 40
0.000000
  0
LTYPE
  2
DASHED
 70
    64
  3
DASHED
 72
    65
 73
     2
 40
0.750000
 49
0.500000
 49
-0.250000
  0
LTYPE
  2
HIDDEN
 70
    64
  3
HIDDEN
 72
    65
 73
     2
 40
0.375000
 49
0.250000
 49
-0.125000
  0
LTYPE
  2
CENTER
 70
    64
  3
CENTER
 72
    65
 73
     4
 40
2.000000
 49
1.250000
 49
-0.250000
 49
0.250000
 49
-0.250000
  0
LTYPE
  2
PHANTOM
 70
    64
  3
PHANTOM
 72
    65
 73
     6
 40
2.500000
 49
1.250000
 49
-0.250000
 49
0.250000
 49
-0.250000
 49
0.250000
 49
-0.250000
  0
ENDTAB
  0
TABLE
  2
LAYER
 70
     1
  0
LAYER
  2
0
 70
     0
 62
     7
  6
CONTINUOUS
  0
ENDTAB
  0
TABLE
  2
STYLE
 70
     6
  0
STYLE
  2
STANDARD
 70
     0
 40
0.000000
 41
1.000000
 50
0.000000
 71
     0
 42
0.200000
  3
TXT
  4
BIGFONT
  0
STYLE
  2
TATEGAKI
 70
     4
 40
0.000000
 41
1.000000
 50
0.000000
 71
     0
 42
0.200000
  3
TXT
  4
BIGFONT
  0
STYLE
  2
MINCHO
 70
     0
 40
0.000000
 41
1.000000
 50
0.000000
 71
     0
 42
0.200000
  3
‚l‚r –¾’©
  4

  0
STYLE
  2
MINCHOV
 70
     0
 40
0.000000
 41
1.000000
 50
0.000000
 71
     0
 42
0.200000
  3
@‚l‚r –¾’©
  4

  0
STYLE
  2
GOTHIC
 70
     0
 40
0.000000
 41
1.000000
 50
0.000000
 71
     0
 42
0.200000
  3
‚l‚r ƒSƒVƒbƒN
  4

  0
STYLE
  2
GOTHICV
 70
     0
 40
0.000000
 41
1.000000
 50
0.000000
 71
     0
 42
0.200000
  3
@‚l‚r ƒSƒVƒbƒN
  4

  0
ENDTAB
  0
ENDSEC
  0
SECTION
  2
BLOCKS
  0
ENDSEC
  0
SECTION
  2
ENTITIES
  0
LINE
  8
0
  6
CONTINUOUS
 62
     3
 10
274.631209
 20
1198.791141
 11
280.778209
 21
1205.383141
  0
LINE
  8
0
  6
CONTINUOUS
 62
     3
 10
280.778209
 20
1205.383141
 11
276.897209
 21
1210.528141
  0
LINE
  8
0
  6
CONTINUOUS
 62
     3
 10
276.897209
 20
1210.528141
 11
274.462209
 21
1216.493141
  0
LINE
  8
0
  6
CONTINUOUS
 62
     3
 10
274.462209
 20
1216.493141
 11
273.631209
 21
1222.884141
  0
LINE
  8
0
  6
CONTINUOUS
 62
     3
 10
273.631209
 20
1222.884141
 11
273.631209
 21
1289.884141
  0
LINE
  8
0
  6
CONTINUOUS
 62
     3
 10
273.631209
 20
1289.884141
 11
274.566209
 21
1296.657141
  0
LINE
  8
0
  6
CONTINUOUS
 62
     3
 10
274.566209
 20
1296.657141
 11
277.300209
 21
1302.923141
  0
LINE
  8
0
  6
CONTINUOUS
 62
     3
 10
277.300209
 20
1302.923141
 11
281.631209
 21
1308.214141
  0
LINE
  8
0
  6
CONTINUOUS
 62
     3
 10
281.631209
 20
1308.214141
 11
281.631209
 21
1318.884141
  0
LINE
  8
0
  6
CONTINUOUS
 62
     3
 10
281.631209
 20
1318.884141
 11
267.631209
 21
1318.884141
  0
LINE
  8
0
  6
CONTINUOUS
 62
     3
 10
267.631209
 20
1318.884141
 11
267.631209
 21
1348.884141
  0
LINE
  8
0
  6
CONTINUOUS
 62
     3
 10
267.631209
 20
1348.884141
 11
257.245209
 21
1348.884141
  0
LINE
  8
0
  6
CONTINUOUS
 62
     3
 10
257.245209
 20
1348.884141
 11
254.473209
 21
1331.384141
  0
LINE
  8
0
  6
CONTINUOUS
 62
     3
 10
254.473209
 20
1331.384141
 11
257.631209
 21
1331.384141
  0
LINE
  8
0
  6
CONTINUOUS
 62
     3
 10
257.631209
 20
1331.384141
 11
257.631209
 21
1323.384141
  0
LINE
  8
0
  6
CONTINUOUS
 62
     3
 10
257.631209
 20
1323.384141
 11
254.631209
 21
1323.384141
  0
LINE
  8
0
  6
CONTINUOUS
 62
     3
 10
254.631209
 20
1323.384141
 11
254.631209
 21
1222.437141
  0
LINE
  8
0
  6
CONTINUOUS
 62
     3
 10
254.631209
 20
1222.437141
 11
269.591209
 21
1206.396141
  0
LINE
  8
0
  6
CONTINUOUS
 62
     3
 10
269.591209
 20
1206.396141
 11
268.494209
 21
1205.373141
  0
LINE
  8
0
  6
CONTINUOUS
 62
     3
 10
268.494209
 20
1205.373141
 11
274.631209
 21
1198.791141
  0
LINE
  8
0
  6
CONTINUOUS
 62
     2
 10
300.647990
 20
1391.098120
 11
300.647990
 21
1343.602777
  0
LINE
  8
0
  6
CONTINUOUS
 62
     2
 10
300.647990
 20
1343.602777
 11
296.426966
 21
1327.641748
  0
LINE
  8
0
  6
CONTINUOUS
 62
     2
 10
288.085067
 20
1327.641748
 11
288.085067
 21
1348.884141
  0
LINE
  8
0
  6
CONTINUOUS
 62
     2
 10
288.085067
 20
1348.884141
 11
277.452565
 21
1348.884141
  0
LINE
  8
0
  6
CONTINUOUS
 62
     2
 10
277.452565
 20
1348.884141
 11
277.452565
 21
1323.772558
  0
LINE
  8
0
  6
CONTINUOUS
 62
     2
 10
277.452565
 20
1323.772558
 11
267.631209
 21
1323.772558
  0
LINE
  8
0
  6
CONTINUOUS
 62
     2
 10
267.631209
 20
1323.772558
 11
267.631209
 21
1348.884141
  0
LINE
  8
0
  6
CONTINUOUS
 62
     2
 10
267.631209
 20
1348.884141
 11
254.630277
 21
1348.884141
  0
LINE
  8
0
  6
CONTINUOUS
 62
     2
 10
254.630277
 20
1348.884141
 11
254.630277
 21
1328.223964
  0
LINE
  8
0
  6
CONTINUOUS
 62
     2
 10
254.630277
 20
1328.223964
 11
247.635211
 21
1328.223964
  0
LINE
  8
0
  6
CONTINUOUS
 62
     2
 10
247.635211
 20
1328.223964
 11
242.265261
 21
1341.790154
  0
LINE
  8
0
  6
CONTINUOUS
 62
     2
 10
242.265261
 20
1341.790154
 11
242.265261
 21
1371.127039
  0
LINE
  8
0
  6
CONTINUOUS
 62
     2
 10
242.265261
 20
1371.127039
 11
233.076287
 21
1371.127039
  0
LINE
  8
0
  6
CONTINUOUS
 62
     2
 10
233.076287
 20
1371.127039
 11
233.076287
 21
1396.284549
  0
LINE
  8
0
  6
CONTINUOUS
 62
     2
 10
233.076287
 20
1396.284549
 11
222.350518
 21
1403.463324
  0
LINE
  8
0
  6
CONTINUOUS
 62
     2
 10
222.350518
 20
1403.463324
 11
222.350518
 21
1419.007917
  0
LINE
  8
0
  6
CONTINUOUS
 62
     2
 10
222.350518
 20
1419.007917
 11
226.329934
 21
1419.007917
  0
LINE
  8
0
  6
CONTINUOUS
 62
     2
 10
226.329934
 20
1419.007917
 11
226.329934
 21
1416.848632
  0
LINE
  8
0
  6
CONTINUOUS
 62
     2
 10
226.329934
 20
1416.848632
 11
235.430586
 21
1411.196053
  0
LINE
  8
0
  6
CONTINUOUS
 62
     2
 10
235.430586
 20
1411.196053
 11
239.726546
 21
1403.825089
  0
LINE
  8
0
  6
CONTINUOUS
 62
     2
 10
239.726546
 20
1403.825089
 11
245.333904
 21
1403.825089
  0
LINE
  8
0
  6
CONTINUOUS
 62
     2
 10
245.333904
 20
1403.825089
 11
245.333904
 21
1446.513543
  0
LINE
  8
0
  6
CONTINUOUS
 62
     2
 10
245.333904
 20
1446.513543
 11
254.440209
 21
1446.513543
  0
LINE
  8
0
  6
CONTINUOUS
 62
     2
 10
254.440209
 20
1446.513543
 11
254.440209
 21
1420.441022
  0
LINE
  8
0
  6
CONTINUOUS
 62
     2
 10
254.440209
 20
1420.441022
 11
287.250560
 21
1420.441022
  0
LINE
  8
0
  6
CONTINUOUS
 62
     2
 10
287.250560
 20
1420.441022
 11
287.250560
 21
1391.098120
  0
LINE
  8
0
  6
CONTINUOUS
 62
     2
 10
287.250560
 20
1391.098120
 11
300.647990
 21
1391.098120
  0
LINE
  8
0
  6
CONTINUOUS
 62
     2
 10
288.085067
 20
1327.641748
 11
296.426966
 21
1327.641748
  0
LINE
  8
0
  6
CONTINUOUS
 62
     2
 10
267.473206
 20
1147.673416
 11
281.473206
 21
1147.673416
  0
LINE
  8
0
  6
CONTINUOUS
 62
     2
 10
281.473206
 20
1147.673416
 11
281.473206
 21
1162.673416
  0
LINE
  8
0
  6
CONTINUOUS
 62
     2
 10
281.473206
 20
1162.673416
 11
289.223206
 21
1162.673416
  0
LINE
  8
0
  6
CONTINUOUS
 62
     2
 10
289.223206
 20
1162.673416
 11
289.223206
 21
1207.673416
  0
LINE
  8
0
  6
CONTINUOUS
 62
     2
 10
289.223206
 20
1207.673416
 11
286.973206
 21
1207.673416
  0
LINE
  8
0
  6
CONTINUOUS
 62
     2
 10
286.973206
 20
1207.673416
 11
274.473206
 21
1194.268416
  0
LINE
  8
0
  6
CONTINUOUS
 62
     2
 10
274.473206
 20
1194.268416
 11
261.973206
 21
1207.673416
  0
LINE
  8
0
  6
CONTINUOUS
 62
     2
 10
261.973206
 20
1207.673416
 11
259.723206
 21
1207.673416
  0
LINE
  8
0
  6
CONTINUOUS
 62
     2
 10
259.723206
 20
1207.673416
 11
259.723206
 21
1162.673416
  0
LINE
  8
0
  6
CONTINUOUS
 62
     2
 10
259.723206
 20
1162.673416
 11
267.473206
 21
1162.673416
  0
LINE
  8
0
  6
CONTINUOUS
 62
     2
 10
267.473206
 20
1162.673416
 11
267.473206
 21
1147.673416
  0
LINE
  8
0
  6
CONTINUOUS
 62
     2
 10
341.473206
 20
1111.173416
 11
286.973206
 21
1111.173416
  0
LINE
  8
0
  6
CONTINUOUS
 62
     2
 10
401.473206
 20
1021.173416
 11
341.473206
 21
1021.173416
  0
LINE
  8
0
  6
CONTINUOUS
 62
     2
 10
401.473206
 20
1021.173416
 11
401.473206
 21
971.173416
  0
LINE
  8
0
  6
CONTINUOUS
 62
     2
 10
341.473206
 20
1111.173416
 11
341.473206
 21
1021.173416
  0
LINE
  8
0
  6
CONTINUOUS
 62
     2
 10
481.473206
 20
146.173416
 11
481.473206
 21
971.173416
  0
LINE
  8
0
  6
CONTINUOUS
 62
     2
 10
401.473206
 20
971.173416
 11
481.473206
 21
971.173416
  0
LINE
  8
0
  6
CONTINUOUS
 62
     2
 10
206.473206
 20
1111.173416
 11
261.973206
 21
1111.173416
  0
LINE
  8
0
  6
CONTINUOUS
 62
     2
 10
146.473206
 20
1021.173416
 11
206.473206
 21
1021.173416
  0
LINE
  8
0
  6
CONTINUOUS
 62
     2
 10
146.473206
 20
1021.173416
 11
146.473206
 21
971.173416
  0
LINE
  8
0
  6
CONTINUOUS
 62
     2
 10
206.473206
 20
1111.173416
 11
206.473206
 21
1021.173416
  0
LINE
  8
0
  6
CONTINUOUS
 62
     2
 10
66.473206
 20
146.173416
 11
66.473206
 21
971.173416
  0
LINE
  8
0
  6
CONTINUOUS
 62
     2
 10
146.473206
 20
971.173416
 11
66.473206
 21
971.173416
  0
LINE
  8
0
  6
CONTINUOUS
 62
     3
 10
244.473206
 20
1096.173416
 11
304.473206
 21
1096.173416
  0
LINE
  8
0
  6
CONTINUOUS
 62
     3
 10
304.473206
 20
1096.173416
 11
304.473206
 21
1111.173416
  0
LINE
  8
0
  6
CONTINUOUS
 62
     3
 10
304.473206
 20
1111.173416
 11
286.973206
 21
1111.173416
  0
LINE
  8
0
  6
CONTINUOUS
 62
     3
 10
286.973206
 20
1111.173416
 11
286.973206
 21
1157.673416
  0
LINE
  8
0
  6
CONTINUOUS
 62
     3
 10
286.973206
 20
1157.673416
 11
281.473206
 21
1157.673416
  0
LINE
  8
0
  6
CONTINUOUS
 62
     3
 10
281.473206
 20
1157.673416
 11
281.473206
 21
1147.673416
  0
LINE
  8
0
  6
CONTINUOUS
 62
     3
 10
267.473206
 20
1147.673416
 11
267.473206
 21
1157.673416
  0
LINE
  8
0
  6
CONTINUOUS
 62
     3
 10
267.473206
 20
1157.673416
 11
259.973206
 21
1157.673416
  0
LINE
  8
0
  6
CONTINUOUS
 62
     3
 10
259.973206
 20
1157.673416
 11
259.973206
 21
1145.173416
  0
LINE
  8
0
  6
CONTINUOUS
 62
     3
 10
259.973206
 20
1145.173416
 11
255.973206
 21
1145.173416
  0
LINE
  8
0
  6
CONTINUOUS
 62
     3
 10
255.973206
 20
1145.173416
 11
255.973206
 21
1135.173416
  0
LINE
  8
0
  6
CONTINUOUS
 62
     3
 10
255.973206
 20
1135.173416
 11
259.973206
 21
1135.173416
  0
LINE
  8
0
  6
CONTINUOUS
 62
     3
 10
259.973206
 20
1135.173416
 11
259.973206
 21
1130.173416
  0
LINE
  8
0
  6
CONTINUOUS
 62
     3
 10
259.973206
 20
1130.173416
 11
261.973206
 21
1130.173416
  0
LINE
  8
0
  6
CONTINUOUS
 62
     3
 10
261.973206
 20
1130.173416
 11
261.973206
 21
1111.173416
  0
LINE
  8
0
  6
CONTINUOUS
 62
     3
 10
261.973206
 20
1111.173416
 11
244.473206
 21
1111.173416
  0
LINE
  8
0
  6
CONTINUOUS
 62
     3
 10
244.473206
 20
1111.173416
 11
244.473206
 21
1096.173416
  0
LINE
  8
0
  6
CONTINUOUS
 62
     2
 10
267.473206
 20
1147.673416
 11
281.473206
 21
1147.673416
  0
LINE
  8
0
  6
CONTINUOUS
 62
     2
 10
481.473206
 20
146.173416
 11
66.473206
 21
146.173416
  0
TEXT
  8
0
 62
     7
 10
0.000000
 20
0.000000
 40
130.000000
  1
’n–Ê
 41
0.800000
  7
GOTHIC
 11
0.000000
 21
130.000000
 73
     3
  0
LINE
  8
0
  6
CONTINUOUS
 62
     1
 10
206.274435
 20
1267.404779
 11
274.473206
 21
1194.268416
  0
LINE
  8
0
  6
CONTINUOUS
 62
     1
 10
274.473206
 20
1194.268416
 11
347.609569
 21
1262.467188
  0
LINE
  8
0
  6
CONTINUOUS
 62
     1
 10
347.609569
 20
1262.467188
 11
279.410797
 21
1335.603551
  0
LINE
  8
0
  6
CONTINUOUS
 62
     1
 10
208.614798
 20
1269.587140
 11
274.631209
 21
1198.791141
  0
LINE
  8
0
  6
CONTINUOUS
 62
     1
 10
274.631209
 20
1198.791141
 11
343.086845
 21
1262.625191
  0
LINE
  8
0
  6
CONTINUOUS
 62
     1
 10
343.086845
 20
1262.625191
 11
277.070434
 21
1333.421190
  0
LINE
  8
0
  6
CONTINUOUS
 62
     1
 10
208.614798
 20
1269.587140
 11
206.274435
 21
1267.404779
  0
LINE
  8
0
  6
CONTINUOUS
 62
     1
 10
279.410797
 20
1335.603551
 11
277.070434
 21
1333.421190
  0
LINE
  8
0
  6
CONTINUOUS
 62
   134
 10
183.005101
 20
1236.461375
 11
177.068818
 21
1240.170896
  0
LINE
  8
0
  6
CONTINUOUS
 62
   134
 10
177.068818
 20
1240.170896
 11
180.355029
 21
1233.990215
  0
LINE
  8
0
  6
CONTINUOUS
 62
   134
 10
239.331307
 20
1170.744054
 11
245.267590
 21
1167.034533
  0
LINE
  8
0
  6
CONTINUOUS
 62
   134
 10
245.267590
 20
1167.034533
 11
241.981379
 21
1173.215214
  0
LINE
  8
0
  6
CONTINUOUS
 62
   134
 10
177.068818
 20
1240.170896
 11
245.267590
 21
1167.034533
  0
TEXT
  8
0
 62
   134
 10
204.447079
 20
1213.743053
 40
20.000000
  1
100
 50
312.999166
 41
0.800000
  7
GOTHIC
 72
     1
 11
212.630931
 21
1204.966690
  0
LINE
  8
0
  6
CONTINUOUS
 62
   134
 10
202.617617
 20
1263.994840
 11
173.412000
 21
1236.760957
  0
LINE
  8
0
  6
CONTINUOUS
 62
   134
 10
270.816388
 20
1190.858478
 11
241.610772
 21
1163.624595
  0
LINE
  8
0
  6
CONTINUOUS
 62
   134
 10
308.891350
 20
1167.272772
 11
305.181829
 21
1161.336489
  0
LINE
  8
0
  6
CONTINUOUS
 62
   134
 10
305.181829
 20
1161.336489
 11
311.362510
 21
1164.622700
  0
LINE
  8
0
  6
CONTINUOUS
 62
   134
 10
374.608670
 20
1223.598978
 11
378.318192
 21
1229.535261
  0
LINE
  8
0
  6
CONTINUOUS
 62
   134
 10
378.318192
 20
1229.535261
 11
372.137511
 21
1226.249050
  0
LINE
  8
0
  6
CONTINUOUS
 62
   134
 10
305.181829
 20
1161.336489
 11
378.318192
 21
1229.535261
  0
TEXT
  8
0
 62
   134
 10
331.609671
 20
1188.714750
 40
20.000000
  1
100
 50
42.999166
 41
0.800000
  7
GOTHIC
 72
     1
 11
340.386035
 21
1196.898603
  0
LINE
  8
0
  6
CONTINUOUS
 62
   134
 10
277.883145
 20
1190.611598
 11
308.591767
 21
1157.679671
  0
LINE
  8
0
  6
CONTINUOUS
 62
   134
 10
351.019508
 20
1258.810370
 11
381.728130
 21
1225.878443
  0
LINE
  8
0
  6
CONTINUOUS
 62
   134
 10
385.645223
 20
1307.180007
 11
391.581505
 21
1303.470486
  0
LINE
  8
0
  6
CONTINUOUS
 62
   134
 10
391.581505
 20
1303.470486
 11
388.295294
 21
1309.651167
  0
LINE
  8
0
  6
CONTINUOUS
 62
   134
 10
329.319016
 20
1372.897327
 11
323.382734
 21
1376.606848
  0
LINE
  8
0
  6
CONTINUOUS
 62
   134
 10
323.382734
 20
1376.606848
 11
326.668945
 21
1370.426167
  0
LINE
  8
0
  6
CONTINUOUS
 62
   134
 10
391.581505
 20
1303.470486
 11
323.382734
 21
1376.606848
  0
TEXT
  8
0
 62
   134
 10
350.760994
 20
1350.179006
 40
20.000000
  1
100
 50
312.999166
 41
0.800000
  7
GOTHIC
 72
     1
 11
358.944847
 21
1341.402642
  0
LINE
  8
0
  6
CONTINUOUS
 62
   134
 10
351.266387
 20
1265.877127
 11
395.238324
 21
1306.880424
  0
LINE
  8
0
  6
CONTINUOUS
 62
   134
 10
283.067615
 20
1339.013489
 11
327.039552
 21
1380.016787
  0
ENDSEC
  0
EOF
