  0
SECTION
  2
HEADER
  9
$ACADVER
  1
AC1009
  9
$DWGCODEPAGE
  3
dos932
  9
$EXTMIN
 10
0.000000
 20
0.000000
  9
$EXTMAX
 10
366.103383
 20
348.571445
  9
$LIMMIN
 10
0.000000
 20
0.000000
  9
$LIMMAX
 10
366.103383
 20
348.571445
  9
$LTSCALE
 40
1.000000
  0
ENDSEC
  0
SECTION
  2
TABLES
  0
TABLE
  2
VPORT
 70
     1
  0
VPORT
  2
*ACTIVE
 70
     0
 10
0.000000
 20
0.000000
 11
1.000000
 21
1.000000
 12
183.051691
 22
174.285723
 13
0.000000
 23
0.000000
 14
1.000000
 24
1.000000
 15
0.000000
 25
0.000000
 16
0.000000
 26
0.000000
 36
1.000000
 17
0.000000
 27
0.000000
 37
0.000000
 40
348.571445
 41
1.050297
 42
50.000000
 43
0.000000
 44
0.000000
 50
0.000000
 51
0.000000
 71
     0
 72
   100
 73
     1
 74
     1
 75
     0
 76
     0
 77
     0
 78
     0
  0
ENDTAB
  0
TABLE
  2
LTYPE
 70
     5
  0
LTYPE
  2
CONTINUOUS
 70
    64
  3
CONTINUOUS
 72
    65
 73
     0
 40
0.000000
  0
LTYPE
  2
DASHED
 70
    64
  3
DASHED
 72
    65
 73
     2
 40
0.750000
 49
0.500000
 49
-0.250000
  0
LTYPE
  2
HIDDEN
 70
    64
  3
HIDDEN
 72
    65
 73
     2
 40
0.375000
 49
0.250000
 49
-0.125000
  0
LTYPE
  2
CENTER
 70
    64
  3
CENTER
 72
    65
 73
     4
 40
2.000000
 49
1.250000
 49
-0.250000
 49
0.250000
 49
-0.250000
  0
LTYPE
  2
PHANTOM
 70
    64
  3
PHANTOM
 72
    65
 73
     6
 40
2.500000
 49
1.250000
 49
-0.250000
 49
0.250000
 49
-0.250000
 49
0.250000
 49
-0.250000
  0
ENDTAB
  0
TABLE
  2
LAYER
 70
     1
  0
LAYER
  2
0
 70
     0
 62
     7
  6
CONTINUOUS
  0
ENDTAB
  0
TABLE
  2
STYLE
 70
     6
  0
STYLE
  2
STANDARD
 70
     0
 40
0.000000
 41
1.000000
 50
0.000000
 71
     0
 42
0.200000
  3
TXT
  4
BIGFONT
  0
STYLE
  2
TATEGAKI
 70
     4
 40
0.000000
 41
1.000000
 50
0.000000
 71
     0
 42
0.200000
  3
TXT
  4
BIGFONT
  0
STYLE
  2
MINCHO
 70
     0
 40
0.000000
 41
1.000000
 50
0.000000
 71
     0
 42
0.200000
  3
ÇlÇr ñæí©
  4

  0
STYLE
  2
MINCHOV
 70
     0
 40
0.000000
 41
1.000000
 50
0.000000
 71
     0
 42
0.200000
  3
@ÇlÇr ñæí©
  4

  0
STYLE
  2
GOTHIC
 70
     0
 40
0.000000
 41
1.000000
 50
0.000000
 71
     0
 42
0.200000
  3
ÇlÇr ÉSÉVÉbÉN
  4

  0
STYLE
  2
GOTHICV
 70
     0
 40
0.000000
 41
1.000000
 50
0.000000
 71
     0
 42
0.200000
  3
@ÇlÇr ÉSÉVÉbÉN
  4

  0
ENDTAB
  0
ENDSEC
  0
SECTION
  2
BLOCKS
  0
ENDSEC
  0
SECTION
  2
ENTITIES
  0
LINE
  8
0
  6
CONTINUOUS
 62
     5
 10
172.962809
 20
150.356816
 11
172.962809
 21
30.356816
  0
LINE
  8
0
  6
CONTINUOUS
 62
     5
 10
172.962809
 20
30.356816
 11
219.462809
 21
30.356816
  0
LINE
  8
0
  6
CONTINUOUS
 62
     5
 10
219.462809
 20
30.356816
 11
219.462809
 21
150.356816
  0
LINE
  8
0
  6
CONTINUOUS
 62
     2
 10
220.662809
 20
29.156816
 11
220.662809
 21
150.356816
  0
LINE
  8
0
  6
CONTINUOUS
 62
     2
 10
171.762809
 20
29.156816
 11
220.662809
 21
29.156816
  0
LINE
  8
0
  6
CONTINUOUS
 62
     2
 10
171.762809
 20
150.356816
 11
171.762809
 21
29.156816
  0
LINE
  8
0
  6
CONTINUOUS
 62
     2
 10
172.762809
 20
150.356816
 11
172.762809
 21
30.156816
  0
LINE
  8
0
  6
CONTINUOUS
 62
     2
 10
172.762809
 20
30.156816
 11
219.662809
 21
30.156816
  0
LINE
  8
0
  6
CONTINUOUS
 62
     2
 10
219.662809
 20
30.156816
 11
219.662809
 21
150.356816
  0
LINE
  8
0
  6
CONTINUOUS
 62
     2
 10
55.868206
 20
216.444675
 11
343.168206
 21
216.444675
  0
LINE
  8
0
  6
CONTINUOUS
 62
     2
 10
343.168206
 20
216.444675
 11
343.168206
 21
316.444675
  0
LINE
  8
0
  6
CONTINUOUS
 62
     2
 10
343.168206
 20
316.444675
 11
55.868206
 21
316.444675
  0
LINE
  8
0
  6
CONTINUOUS
 62
     2
 10
55.868206
 20
316.444675
 11
55.868206
 21
216.444675
  0
LINE
  8
0
  6
CONTINUOUS
 62
     1
 10
171.762809
 20
90.356816
 11
220.662809
 21
90.356816
  0
LINE
  8
0
  6
CONTINUOUS
 62
     1
 10
171.762809
 20
65.356816
 11
220.662809
 21
65.356816
  0
LINE
  8
0
  6
CONTINUOUS
 62
     1
 10
171.762809
 20
115.356816
 11
220.662809
 21
115.356816
  0
LINE
  8
0
  6
HIDDEN
 62
     7
 10
176.068206
 20
316.444675
 11
176.068206
 21
216.444675
  0
LINE
  8
0
  6
HIDDEN
 62
     7
 10
222.968206
 20
216.444675
 11
222.968206
 21
316.444675
  0
CIRCLE
  8
0
  6
CONTINUOUS
 62
     4
 10
283.168206
 20
286.444675
 40
25.000000
  0
CIRCLE
  8
0
  6
CONTINUOUS
 62
     4
 10
115.868206
 20
286.444675
 40
25.000000
  0
LINE
  8
0
  6
CONTINUOUS
 62
   134
 10
59.248947
 20
188.746759
 11
55.868206
 21
187.840892
  0
LINE
  8
0
  6
CONTINUOUS
 62
   134
 10
55.868206
 20
187.840892
 11
59.248947
 21
186.935026
  0
LINE
  8
0
  6
CONTINUOUS
 62
   134
 10
172.687466
 20
186.935026
 11
176.068206
 21
187.840892
  0
LINE
  8
0
  6
CONTINUOUS
 62
   134
 10
176.068206
 20
187.840892
 11
172.687466
 21
188.746759
  0
LINE
  8
0
  6
CONTINUOUS
 62
   134
 10
55.868206
 20
187.840892
 11
176.068206
 21
187.840892
  0
TEXT
  8
0
 62
   134
 10
105.968206
 20
188.840892
 40
10.000000
  1
120.2
 41
0.800000
  7
GOTHIC
 72
     1
 11
115.968206
 21
188.840892
  0
LINE
  8
0
  6
CONTINUOUS
 62
   134
 10
55.868206
 20
213.944675
 11
55.868206
 21
185.340892
  0
LINE
  8
0
  6
CONTINUOUS
 62
   134
 10
176.068206
 20
213.944675
 11
176.068206
 21
185.340892
  0
LINE
  8
0
  6
CONTINUOUS
 62
   134
 10
179.448947
 20
188.746759
 11
176.068206
 21
187.840892
  0
LINE
  8
0
  6
CONTINUOUS
 62
   134
 10
176.068206
 20
187.840892
 11
179.448947
 21
186.935026
  0
LINE
  8
0
  6
CONTINUOUS
 62
   134
 10
219.587466
 20
186.935026
 11
222.968206
 21
187.840892
  0
LINE
  8
0
  6
CONTINUOUS
 62
   134
 10
222.968206
 20
187.840892
 11
219.587466
 21
188.746759
  0
LINE
  8
0
  6
CONTINUOUS
 62
   134
 10
176.068206
 20
187.840892
 11
222.968206
 21
187.840892
  0
TEXT
  8
0
 62
   134
 10
191.518206
 20
188.840892
 40
10.000000
  1
46.9
 41
0.800000
  7
GOTHIC
 72
     1
 11
199.518206
 21
188.840892
  0
LINE
  8
0
  6
CONTINUOUS
 62
   134
 10
176.068206
 20
213.944675
 11
176.068206
 21
185.340892
  0
LINE
  8
0
  6
CONTINUOUS
 62
   134
 10
222.968206
 20
213.944675
 11
222.968206
 21
185.340892
  0
LINE
  8
0
  6
CONTINUOUS
 62
   134
 10
226.348947
 20
188.746759
 11
222.968206
 21
187.840892
  0
LINE
  8
0
  6
CONTINUOUS
 62
   134
 10
222.968206
 20
187.840892
 11
226.348947
 21
186.935026
  0
LINE
  8
0
  6
CONTINUOUS
 62
   134
 10
339.787466
 20
186.935026
 11
343.168206
 21
187.840892
  0
LINE
  8
0
  6
CONTINUOUS
 62
   134
 10
343.168206
 20
187.840892
 11
339.787466
 21
188.746759
  0
LINE
  8
0
  6
CONTINUOUS
 62
   134
 10
222.968206
 20
187.840892
 11
343.168206
 21
187.840892
  0
TEXT
  8
0
 62
   134
 10
273.068206
 20
188.840892
 40
10.000000
  1
120.2
 41
0.800000
  7
GOTHIC
 72
     1
 11
283.068206
 21
188.840892
  0
LINE
  8
0
  6
CONTINUOUS
 62
   134
 10
222.968206
 20
213.944675
 11
222.968206
 21
185.340892
  0
LINE
  8
0
  6
CONTINUOUS
 62
   134
 10
343.168206
 20
213.944675
 11
343.168206
 21
185.340892
  0
LINE
  8
0
  6
CONTINUOUS
 62
   134
 10
33.023547
 20
313.063934
 11
32.117680
 21
316.444675
  0
LINE
  8
0
  6
CONTINUOUS
 62
   134
 10
32.117680
 20
316.444675
 11
31.211814
 21
313.063934
  0
LINE
  8
0
  6
CONTINUOUS
 62
   134
 10
31.211814
 20
219.825415
 11
32.117680
 21
216.444675
  0
LINE
  8
0
  6
CONTINUOUS
 62
   134
 10
32.117680
 20
216.444675
 11
33.023547
 21
219.825415
  0
LINE
  8
0
  6
CONTINUOUS
 62
   134
 10
32.117680
 20
316.444675
 11
32.117680
 21
216.444675
  0
TEXT
  8
0
 62
   134
 10
31.117680
 20
260.444675
 40
10.000000
  1
100
 50
90.000000
 41
0.800000
  7
GOTHIC
 72
     1
 11
31.117680
 21
266.444675
  0
LINE
  8
0
  6
CONTINUOUS
 62
   134
 10
53.368206
 20
316.444675
 11
29.617680
 21
316.444675
  0
LINE
  8
0
  6
CONTINUOUS
 62
   134
 10
53.368206
 20
216.444675
 11
29.617680
 21
216.444675
  0
TEXT
  8
0
 62
     7
 10
146.753270
 20
220.651465
 40
10.769139
  1
è„90Åã
 41
0.800000
  7
GOTHIC
 11
146.753270
 21
231.420604
 73
     3
  0
TEXT
  8
0
 62
     7
 10
228.778235
 20
220.651465
 40
10.769139
  1
è„90Åã
 41
0.800000
  7
GOTHIC
 11
228.778235
 21
231.420604
 73
     3
  0
LINE
  8
0
  6
CONTINUOUS
 62
   134
 10
263.762311
 20
276.872622
 11
261.230002
 21
274.456548
  0
LINE
  8
0
  6
CONTINUOUS
 62
   134
 10
261.230002
 20
274.456548
 11
264.631082
 21
275.282775
  0
LINE
  8
0
  6
CONTINUOUS
 62
   134
 10
302.574102
 20
296.016728
 11
305.106411
 21
298.432801
  0
LINE
  8
0
  6
CONTINUOUS
 62
   134
 10
305.106411
 20
298.432801
 11
301.705330
 21
297.606575
  0
LINE
  8
0
  6
CONTINUOUS
 62
   134
 10
261.230002
 20
274.456548
 11
305.106411
 21
298.432801
  0
TEXT
  8
0
 62
   134
 10
275.668456
 20
283.486003
 40
10.000000
  1
É”50
 50
28.654387
 41
0.800000
  7
GOTHIC
 72
     1
 11
282.688681
 21
287.322203
  0
LINE
  8
0
  6
CONTINUOUS
 62
   134
 10
95.915377
 20
278.072244
 11
93.240626
 21
275.814877
  0
LINE
  8
0
  6
CONTINUOUS
 62
   134
 10
93.240626
 20
275.814877
 11
96.685712
 21
276.432438
  0
LINE
  8
0
  6
CONTINUOUS
 62
   134
 10
135.821035
 20
294.817106
 11
138.495787
 21
297.074472
  0
LINE
  8
0
  6
CONTINUOUS
 62
   134
 10
138.495787
 20
297.074472
 11
135.050701
 21
296.456912
  0
LINE
  8
0
  6
CONTINUOUS
 62
   134
 10
93.240626
 20
275.814877
 11
138.495787
 21
297.074472
  0
TEXT
  8
0
 62
   134
 10
108.202189
 20
283.948243
 40
10.000000
  1
É”50
 50
25.162811
 41
0.800000
  7
GOTHIC
 72
     1
 11
115.443014
 21
287.349778
  0
TEXT
  8
0
 62
     7
 10
81.211553
 20
237.457494
 40
20.000000
  1
çÇã¥ìSçHèä
 41
0.800000
  7
GOTHIC
 11
81.211553
 21
257.457494
 73
     3
  0
TEXT
  8
0
 62
     7
 10
228.930225
 20
239.623924
 40
20.000000
  1
É{ÉìÉfPL1.2 
 41
0.800000
  7
GOTHIC
 11
228.930225
 21
259.623924
 73
     3
  0
LINE
  8
0
  6
CONTINUOUS
 62
   134
 10
364.190423
 20
312.387786
 11
363.103383
 21
316.444675
  0
LINE
  8
0
  6
CONTINUOUS
 62
   134
 10
363.103383
 20
316.444675
 11
362.016343
 21
312.387786
  0
LINE
  8
0
  6
CONTINUOUS
 62
   134
 10
362.016343
 20
290.501563
 11
363.103383
 21
286.444675
  0
LINE
  8
0
  6
CONTINUOUS
 62
   134
 10
363.103383
 20
286.444675
 11
364.190423
 21
290.501563
  0
LINE
  8
0
  6
CONTINUOUS
 62
   134
 10
363.103383
 20
316.444675
 11
363.103383
 21
286.444675
  0
TEXT
  8
0
 62
   134
 10
361.903383
 20
296.644675
 40
12.000000
  1
30
 50
90.000000
 41
0.800000
  7
GOTHIC
 72
     1
 11
361.903383
 21
301.444675
  0
LINE
  8
0
  6
CONTINUOUS
 62
   134
 10
346.168206
 20
316.444675
 11
366.103383
 21
316.444675
  0
LINE
  8
0
  6
CONTINUOUS
 62
   134
 10
346.168206
 20
286.444675
 11
366.103383
 21
286.444675
  0
LINE
  8
0
  6
CONTINUOUS
 62
   134
 10
364.190423
 20
282.387786
 11
363.103383
 21
286.444675
  0
LINE
  8
0
  6
CONTINUOUS
 62
   134
 10
363.103383
 20
286.444675
 11
362.016343
 21
282.387786
  0
LINE
  8
0
  6
CONTINUOUS
 62
   134
 10
362.016343
 20
220.501563
 11
363.103383
 21
216.444675
  0
LINE
  8
0
  6
CONTINUOUS
 62
   134
 10
363.103383
 20
216.444675
 11
364.190423
 21
220.501563
  0
LINE
  8
0
  6
CONTINUOUS
 62
   134
 10
363.103383
 20
286.444675
 11
363.103383
 21
216.444675
  0
TEXT
  8
0
 62
   134
 10
361.903383
 20
246.644675
 40
12.000000
  1
70
 50
90.000000
 41
0.800000
  7
GOTHIC
 72
     1
 11
361.903383
 21
251.444675
  0
LINE
  8
0
  6
CONTINUOUS
 62
   134
 10
346.168206
 20
286.444675
 11
366.103383
 21
286.444675
  0
LINE
  8
0
  6
CONTINUOUS
 62
   134
 10
346.168206
 20
216.444675
 11
366.103383
 21
216.444675
  0
LINE
  8
0
  6
CONTINUOUS
 62
   134
 10
59.925095
 20
335.258485
 11
55.868206
 21
334.171445
  0
LINE
  8
0
  6
CONTINUOUS
 62
   134
 10
55.868206
 20
334.171445
 11
59.925095
 21
333.084405
  0
LINE
  8
0
  6
CONTINUOUS
 62
   134
 10
111.811318
 20
333.084405
 11
115.868206
 21
334.171445
  0
LINE
  8
0
  6
CONTINUOUS
 62
   134
 10
115.868206
 20
334.171445
 11
111.811318
 21
335.258485
  0
LINE
  8
0
  6
CONTINUOUS
 62
   134
 10
55.868206
 20
334.171445
 11
115.868206
 21
334.171445
  0
TEXT
  8
0
 62
   134
 10
81.068206
 20
335.371445
 40
12.000000
  1
60
 41
0.800000
  7
GOTHIC
 72
     1
 11
85.868206
 21
335.371445
  0
LINE
  8
0
  6
CONTINUOUS
 62
   134
 10
55.868206
 20
319.444675
 11
55.868206
 21
337.171445
  0
LINE
  8
0
  6
CONTINUOUS
 62
   134
 10
115.868206
 20
319.444675
 11
115.868206
 21
337.171445
  0
LINE
  8
0
  6
CONTINUOUS
 62
   134
 10
339.111318
 20
331.849973
 11
343.168206
 21
332.937013
  0
LINE
  8
0
  6
CONTINUOUS
 62
   134
 10
343.168206
 20
332.937013
 11
339.111318
 21
334.024053
  0
LINE
  8
0
  6
CONTINUOUS
 62
   134
 10
287.225095
 20
334.024053
 11
283.168206
 21
332.937013
  0
LINE
  8
0
  6
CONTINUOUS
 62
   134
 10
283.168206
 20
332.937013
 11
287.225095
 21
331.849973
  0
LINE
  8
0
  6
CONTINUOUS
 62
   134
 10
343.168206
 20
332.937013
 11
283.168206
 21
332.937013
  0
TEXT
  8
0
 62
   134
 10
308.368206
 20
334.137013
 40
12.000000
  1
60
 41
0.800000
  7
GOTHIC
 72
     1
 11
313.168206
 21
334.137013
  0
LINE
  8
0
  6
CONTINUOUS
 62
   134
 10
343.168206
 20
319.444675
 11
343.168206
 21
335.937013
  0
LINE
  8
0
  6
CONTINUOUS
 62
   134
 10
283.168206
 20
319.444675
 11
283.168206
 21
335.937013
  0
LINE
  8
0
  6
CONTINUOUS
 62
   134
 10
172.011318
 20
333.084405
 11
176.068206
 21
334.171445
  0
LINE
  8
0
  6
CONTINUOUS
 62
   134
 10
176.068206
 20
334.171445
 11
172.011318
 21
335.258485
  0
LINE
  8
0
  6
CONTINUOUS
 62
   134
 10
119.925095
 20
335.258485
 11
115.868206
 21
334.171445
  0
LINE
  8
0
  6
CONTINUOUS
 62
   134
 10
115.868206
 20
334.171445
 11
119.925095
 21
333.084405
  0
LINE
  8
0
  6
CONTINUOUS
 62
   134
 10
176.068206
 20
334.171445
 11
115.868206
 21
334.171445
  0
TEXT
  8
0
 62
   134
 10
136.368206
 20
335.371445
 40
12.000000
  1
60.2
 41
0.800000
  7
GOTHIC
 72
     1
 11
145.968206
 21
335.371445
  0
LINE
  8
0
  6
CONTINUOUS
 62
   134
 10
176.068206
 20
319.444675
 11
176.068206
 21
337.171445
  0
LINE
  8
0
  6
CONTINUOUS
 62
   134
 10
227.025095
 20
334.024053
 11
222.968206
 21
332.937013
  0
LINE
  8
0
  6
CONTINUOUS
 62
   134
 10
222.968206
 20
332.937013
 11
227.025095
 21
331.849973
  0
LINE
  8
0
  6
CONTINUOUS
 62
   134
 10
279.111318
 20
331.849973
 11
283.168206
 21
332.937013
  0
LINE
  8
0
  6
CONTINUOUS
 62
   134
 10
283.168206
 20
332.937013
 11
279.111318
 21
334.024053
  0
LINE
  8
0
  6
CONTINUOUS
 62
   134
 10
222.968206
 20
332.937013
 11
283.168206
 21
332.937013
  0
TEXT
  8
0
 62
   134
 10
243.468206
 20
334.137013
 40
12.000000
  1
60.2
 41
0.800000
  7
GOTHIC
 72
     1
 11
253.068206
 21
334.137013
  0
LINE
  8
0
  6
CONTINUOUS
 62
   134
 10
222.968206
 20
319.444675
 11
222.968206
 21
335.937013
  0
LINE
  8
0
  6
CONTINUOUS
 62
     2
 10
43.668056
 20
139.993614
 11
43.668056
 21
109.993614
  0
LINE
  8
0
  6
CONTINUOUS
 62
     2
 10
43.668056
 20
109.993614
 11
73.668056
 21
109.993614
  0
TEXT
  8
0
 62
     7
 10
0.000000
 20
114.438667
 40
20.000000
  1
-1.0
 41
0.800000
  7
GOTHIC
 11
0.000000
 21
134.438667
 73
     3
  0
TEXT
  8
0
 62
     7
 10
44.439576
 20
79.874553
 40
20.000000
  1
-1.0
 41
0.800000
  7
GOTHIC
 11
44.439576
 21
99.874553
 73
     3
  0
LINE
  8
0
  6
CONTINUOUS
 62
   134
 10
158.061907
 20
145.285706
 11
156.703107
 21
150.356816
  0
LINE
  8
0
  6
CONTINUOUS
 62
   134
 10
156.703107
 20
150.356816
 11
155.344307
 21
145.285706
  0
LINE
  8
0
  6
CONTINUOUS
 62
   134
 10
155.344307
 20
35.427927
 11
156.703107
 21
30.356816
  0
LINE
  8
0
  6
CONTINUOUS
 62
   134
 10
156.703107
 20
30.356816
 11
158.061907
 21
35.427927
  0
LINE
  8
0
  6
CONTINUOUS
 62
   134
 10
156.703107
 20
150.356816
 11
156.703107
 21
30.356816
  0
TEXT
  8
0
 62
   134
 10
155.203107
 20
81.356816
 40
15.000000
  1
120
 50
90.000000
 41
0.800000
  7
GOTHIC
 72
     1
 11
155.203107
 21
90.356816
  0
LINE
  8
0
  6
CONTINUOUS
 62
   134
 10
169.212809
 20
150.356816
 11
152.953107
 21
150.356816
  0
LINE
  8
0
  6
CONTINUOUS
 62
   134
 10
169.212809
 20
30.356816
 11
152.953107
 21
30.356816
  0
LINE
  8
0
  6
CONTINUOUS
 62
   134
 10
178.033920
 20
5.108800
 11
172.962809
 21
3.750000
  0
LINE
  8
0
  6
CONTINUOUS
 62
   134
 10
172.962809
 20
3.750000
 11
178.033920
 21
2.391200
  0
LINE
  8
0
  6
CONTINUOUS
 62
   134
 10
214.391699
 20
2.391200
 11
219.462809
 21
3.750000
  0
LINE
  8
0
  6
CONTINUOUS
 62
   134
 10
219.462809
 20
3.750000
 11
214.391699
 21
5.108800
  0
LINE
  8
0
  6
CONTINUOUS
 62
   134
 10
172.962809
 20
3.750000
 11
219.462809
 21
3.750000
  0
TEXT
  8
0
 62
   134
 10
184.212809
 20
5.250000
 40
15.000000
  1
46.5
 41
0.800000
  7
GOTHIC
 72
     1
 11
196.212809
 21
5.250000
  0
LINE
  8
0
  6
CONTINUOUS
 62
   134
 10
172.962809
 20
26.606816
 11
172.962809
 21
0.000000
  0
LINE
  8
0
  6
CONTINUOUS
 62
   134
 10
219.462809
 20
26.606816
 11
219.462809
 21
0.000000
  0
LINE
  8
0
  6
CONTINUOUS
 62
   134
 10
259.001636
 20
35.427927
 11
260.360436
 21
30.356816
  0
LINE
  8
0
  6
CONTINUOUS
 62
   134
 10
260.360436
 20
30.356816
 11
261.719236
 21
35.427927
  0
LINE
  8
0
  6
CONTINUOUS
 62
   134
 10
261.719236
 20
145.285706
 11
260.360436
 21
150.356816
  0
LINE
  8
0
  6
CONTINUOUS
 62
   134
 10
260.360436
 20
150.356816
 11
259.001636
 21
145.285706
  0
LINE
  8
0
  6
CONTINUOUS
 62
   134
 10
260.360436
 20
30.356816
 11
260.360436
 21
150.356816
  0
TEXT
  8
0
 62
   134
 10
258.860436
 20
81.356816
 40
15.000000
  1
120
 50
90.000000
 41
0.800000
  7
GOTHIC
 72
     1
 11
258.860436
 21
90.356816
  0
LINE
  8
0
  6
CONTINUOUS
 62
   134
 10
223.212809
 20
30.356816
 11
264.110436
 21
30.356816
  0
LINE
  8
0
  6
CONTINUOUS
 62
   134
 10
223.212809
 20
150.356816
 11
264.110436
 21
150.356816
  0
ENDSEC
  0
EOF
