  0
SECTION
  2
HEADER
  9
$ACADVER
  1
AC1009
  9
$DWGCODEPAGE
  3
dos932
  9
$EXTMIN
 10
0.000000
 20
0.000000
  9
$EXTMAX
 10
8207.122261
 20
4114.166831
  9
$LIMMIN
 10
0.000000
 20
0.000000
  9
$LIMMAX
 10
8207.122261
 20
4114.166831
  9
$LTSCALE
 40
1.000000
  0
ENDSEC
  0
SECTION
  2
TABLES
  0
TABLE
  2
VPORT
 70
     1
  0
VPORT
  2
*ACTIVE
 70
     0
 10
0.000000
 20
0.000000
 11
1.000000
 21
1.000000
 12
4103.561130
 22
2057.083415
 13
0.000000
 23
0.000000
 14
1.000000
 24
1.000000
 15
0.000000
 25
0.000000
 16
0.000000
 26
0.000000
 36
1.000000
 17
0.000000
 27
0.000000
 37
0.000000
 40
4114.166831
 41
1.994844
 42
50.000000
 43
0.000000
 44
0.000000
 50
0.000000
 51
0.000000
 71
     0
 72
   100
 73
     1
 74
     1
 75
     0
 76
     0
 77
     0
 78
     0
  0
ENDTAB
  0
TABLE
  2
LTYPE
 70
     5
  0
LTYPE
  2
CONTINUOUS
 70
    64
  3
CONTINUOUS
 72
    65
 73
     0
 40
0.000000
  0
LTYPE
  2
DASHED
 70
    64
  3
DASHED
 72
    65
 73
     2
 40
0.750000
 49
0.500000
 49
-0.250000
  0
LTYPE
  2
HIDDEN
 70
    64
  3
HIDDEN
 72
    65
 73
     2
 40
0.375000
 49
0.250000
 49
-0.125000
  0
LTYPE
  2
CENTER
 70
    64
  3
CENTER
 72
    65
 73
     4
 40
2.000000
 49
1.250000
 49
-0.250000
 49
0.250000
 49
-0.250000
  0
LTYPE
  2
PHANTOM
 70
    64
  3
PHANTOM
 72
    65
 73
     6
 40
2.500000
 49
1.250000
 49
-0.250000
 49
0.250000
 49
-0.250000
 49
0.250000
 49
-0.250000
  0
ENDTAB
  0
TABLE
  2
LAYER
 70
     1
  0
LAYER
  2
0
 70
     0
 62
     7
  6
CONTINUOUS
  0
ENDTAB
  0
TABLE
  2
STYLE
 70
     6
  0
STYLE
  2
STANDARD
 70
     0
 40
0.000000
 41
1.000000
 50
0.000000
 71
     0
 42
0.200000
  3
TXT
  4
BIGFONT
  0
STYLE
  2
TATEGAKI
 70
     4
 40
0.000000
 41
1.000000
 50
0.000000
 71
     0
 42
0.200000
  3
TXT
  4
BIGFONT
  0
STYLE
  2
MINCHO
 70
     0
 40
0.000000
 41
1.000000
 50
0.000000
 71
     0
 42
0.200000
  3
ÇlÇr ñæí©
  4

  0
STYLE
  2
MINCHOV
 70
     0
 40
0.000000
 41
1.000000
 50
0.000000
 71
     0
 42
0.200000
  3
@ÇlÇr ñæí©
  4

  0
STYLE
  2
GOTHIC
 70
     0
 40
0.000000
 41
1.000000
 50
0.000000
 71
     0
 42
0.200000
  3
ÇlÇr ÉSÉVÉbÉN
  4

  0
STYLE
  2
GOTHICV
 70
     0
 40
0.000000
 41
1.000000
 50
0.000000
 71
     0
 42
0.200000
  3
@ÇlÇr ÉSÉVÉbÉN
  4

  0
ENDTAB
  0
ENDSEC
  0
SECTION
  2
BLOCKS
  0
ENDSEC
  0
SECTION
  2
ENTITIES
  0
LINE
  8
0
  6
CONTINUOUS
 62
     2
 10
291.727848
 20
3646.444428
 11
291.727848
 21
3696.444428
  0
LINE
  8
0
  6
CONTINUOUS
 62
     2
 10
291.727848
 20
3696.444428
 11
290.227848
 21
3696.444428
  0
LINE
  8
0
  6
CONTINUOUS
 62
     2
 10
278.227848
 20
3696.444428
 11
276.727848
 21
3696.444428
  0
LINE
  8
0
  6
CONTINUOUS
 62
     2
 10
276.727848
 20
3696.444428
 11
276.727848
 21
3641.444428
  0
LINE
  8
0
  6
CONTINUOUS
 62
     2
 10
351.727848
 20
3601.444428
 11
298.227848
 21
3601.444428
  0
LINE
  8
0
  6
CONTINUOUS
 62
     2
 10
291.727848
 20
3646.444428
 11
298.227848
 21
3646.444428
  0
LINE
  8
0
  6
CONTINUOUS
 62
     2
 10
276.727848
 20
3646.444428
 11
270.227848
 21
3646.444428
  0
LINE
  8
0
  6
CONTINUOUS
 62
     2
 10
276.727848
 20
3641.444428
 11
291.727848
 21
3641.444428
  0
LINE
  8
0
  6
CONTINUOUS
 62
     2
 10
291.727848
 20
3641.444428
 11
291.727848
 21
3646.444428
  0
LINE
  8
0
  6
CONTINUOUS
 62
     2
 10
301.727848
 20
3623.944428
 11
301.727848
 21
3628.944428
  0
LINE
  8
0
  6
CONTINUOUS
 62
     2
 10
411.727848
 20
3511.444428
 11
351.727848
 21
3511.444428
  0
LINE
  8
0
  6
CONTINUOUS
 62
     2
 10
411.727848
 20
3511.444428
 11
411.727848
 21
3461.444428
  0
LINE
  8
0
  6
CONTINUOUS
 62
     2
 10
351.727848
 20
3601.444428
 11
351.727848
 21
3511.444428
  0
LINE
  8
0
  6
CONTINUOUS
 62
     2
 10
491.727848
 20
3339.521318
 11
491.727848
 21
3461.444428
  0
LINE
  8
0
  6
CONTINUOUS
 62
     2
 10
411.727848
 20
3461.444428
 11
491.727848
 21
3461.444428
  0
LINE
  8
0
  6
CONTINUOUS
 62
     2
 10
216.727848
 20
3601.444428
 11
270.227848
 21
3601.444428
  0
LINE
  8
0
  6
CONTINUOUS
 62
     2
 10
266.727848
 20
3623.944428
 11
266.727848
 21
3628.944428
  0
LINE
  8
0
  6
CONTINUOUS
 62
     2
 10
156.727848
 20
3511.444428
 11
216.727848
 21
3511.444428
  0
LINE
  8
0
  6
CONTINUOUS
 62
     2
 10
156.727848
 20
3511.444428
 11
156.727848
 21
3461.444428
  0
LINE
  8
0
  6
CONTINUOUS
 62
     2
 10
216.727848
 20
3601.444428
 11
216.727848
 21
3511.444428
  0
LINE
  8
0
  6
CONTINUOUS
 62
     2
 10
76.727848
 20
3339.521318
 11
76.727848
 21
3461.444428
  0
LINE
  8
0
  6
CONTINUOUS
 62
     2
 10
156.727848
 20
3461.444428
 11
76.727848
 21
3461.444428
  0
LINE
  8
0
  6
CONTINUOUS
 62
     2
 10
278.227848
 20
3696.444428
 11
284.227848
 21
3690.444428
  0
LINE
  8
0
  6
CONTINUOUS
 62
     2
 10
290.227848
 20
3696.444428
 11
284.227848
 21
3690.444428
  0
LINE
  8
0
  6
CONTINUOUS
 62
     2
 10
298.227848
 20
3646.444428
 11
298.227848
 21
3601.444428
  0
LINE
  8
0
  6
CONTINUOUS
 62
     2
 10
270.227848
 20
3646.444428
 11
270.227848
 21
3601.444428
  0
LINE
  8
0
  6
CONTINUOUS
 62
     2
 10
301.727848
 20
3628.944428
 11
298.227848
 21
3628.944428
  0
LINE
  8
0
  6
CONTINUOUS
 62
     2
 10
270.227848
 20
3628.944428
 11
266.727848
 21
3628.944428
  0
LINE
  8
0
  6
CONTINUOUS
 62
     2
 10
301.727848
 20
3623.944428
 11
298.227848
 21
3623.944428
  0
LINE
  8
0
  6
CONTINUOUS
 62
     2
 10
270.227848
 20
3623.944428
 11
266.727848
 21
3623.944428
  0
LINE
  8
0
  6
CONTINUOUS
 62
     3
 10
284.227848
 20
3866.444428
 11
290.374848
 21
3873.036428
  0
LINE
  8
0
  6
CONTINUOUS
 62
     3
 10
290.374848
 20
3873.036428
 11
286.493848
 21
3878.181428
  0
LINE
  8
0
  6
CONTINUOUS
 62
     3
 10
286.493848
 20
3878.181428
 11
284.058848
 21
3884.146428
  0
LINE
  8
0
  6
CONTINUOUS
 62
     3
 10
284.058848
 20
3884.146428
 11
283.227848
 21
3890.537428
  0
LINE
  8
0
  6
CONTINUOUS
 62
     3
 10
283.227848
 20
3890.537428
 11
283.227848
 21
3957.537428
  0
LINE
  8
0
  6
CONTINUOUS
 62
     3
 10
283.227848
 20
3957.537428
 11
284.162848
 21
3964.310428
  0
LINE
  8
0
  6
CONTINUOUS
 62
     3
 10
284.162848
 20
3964.310428
 11
286.896848
 21
3970.576428
  0
LINE
  8
0
  6
CONTINUOUS
 62
     3
 10
286.896848
 20
3970.576428
 11
291.227848
 21
3975.867428
  0
LINE
  8
0
  6
CONTINUOUS
 62
     3
 10
291.227848
 20
3975.867428
 11
291.227848
 21
3986.537428
  0
LINE
  8
0
  6
CONTINUOUS
 62
     3
 10
291.227848
 20
3986.537428
 11
277.227848
 21
3986.537428
  0
LINE
  8
0
  6
CONTINUOUS
 62
     3
 10
277.227848
 20
3986.537428
 11
277.227848
 21
4016.537428
  0
LINE
  8
0
  6
CONTINUOUS
 62
     3
 10
277.227848
 20
4016.537428
 11
266.841848
 21
4016.537428
  0
LINE
  8
0
  6
CONTINUOUS
 62
     3
 10
266.841848
 20
4016.537428
 11
264.069848
 21
3999.037428
  0
LINE
  8
0
  6
CONTINUOUS
 62
     3
 10
264.069848
 20
3999.037428
 11
267.227848
 21
3999.037428
  0
LINE
  8
0
  6
CONTINUOUS
 62
     3
 10
267.227848
 20
3999.037428
 11
267.227848
 21
3991.037428
  0
LINE
  8
0
  6
CONTINUOUS
 62
     3
 10
267.227848
 20
3991.037428
 11
264.227848
 21
3991.037428
  0
LINE
  8
0
  6
CONTINUOUS
 62
     3
 10
264.227848
 20
3991.037428
 11
264.227848
 21
3890.090428
  0
LINE
  8
0
  6
CONTINUOUS
 62
     3
 10
264.227848
 20
3890.090428
 11
279.187848
 21
3874.049428
  0
LINE
  8
0
  6
CONTINUOUS
 62
     3
 10
279.187848
 20
3874.049428
 11
278.090848
 21
3873.026428
  0
LINE
  8
0
  6
CONTINUOUS
 62
     3
 10
278.090848
 20
3873.026428
 11
284.227848
 21
3866.444428
  0
LINE
  8
0
  6
CONTINUOUS
 62
     2
 10
310.244629
 20
4058.751408
 11
310.244629
 21
4011.256065
  0
LINE
  8
0
  6
CONTINUOUS
 62
     2
 10
310.244629
 20
4011.256065
 11
306.023604
 21
3995.295036
  0
LINE
  8
0
  6
CONTINUOUS
 62
     2
 10
297.681705
 20
3995.295036
 11
297.681705
 21
4016.537428
  0
LINE
  8
0
  6
CONTINUOUS
 62
     2
 10
297.681705
 20
4016.537428
 11
287.049204
 21
4016.537428
  0
LINE
  8
0
  6
CONTINUOUS
 62
     2
 10
287.049204
 20
4016.537428
 11
287.049204
 21
3991.425846
  0
LINE
  8
0
  6
CONTINUOUS
 62
     2
 10
287.049204
 20
3991.425846
 11
277.227848
 21
3991.425846
  0
LINE
  8
0
  6
CONTINUOUS
 62
     2
 10
277.227848
 20
3991.425846
 11
277.227848
 21
4016.537428
  0
LINE
  8
0
  6
CONTINUOUS
 62
     2
 10
277.227848
 20
4016.537428
 11
264.226916
 21
4016.537428
  0
LINE
  8
0
  6
CONTINUOUS
 62
     2
 10
264.226916
 20
4016.537428
 11
264.226916
 21
3995.877252
  0
LINE
  8
0
  6
CONTINUOUS
 62
     2
 10
264.226916
 20
3995.877252
 11
257.231849
 21
3995.877252
  0
LINE
  8
0
  6
CONTINUOUS
 62
     2
 10
257.231849
 20
3995.877252
 11
251.861899
 21
4009.443441
  0
LINE
  8
0
  6
CONTINUOUS
 62
     2
 10
251.861899
 20
4009.443441
 11
251.861899
 21
4038.780327
  0
LINE
  8
0
  6
CONTINUOUS
 62
     2
 10
251.861899
 20
4038.780327
 11
242.672925
 21
4038.780327
  0
LINE
  8
0
  6
CONTINUOUS
 62
     2
 10
242.672925
 20
4038.780327
 11
242.672925
 21
4063.937837
  0
LINE
  8
0
  6
CONTINUOUS
 62
     2
 10
242.672925
 20
4063.937837
 11
231.947157
 21
4071.116612
  0
LINE
  8
0
  6
CONTINUOUS
 62
     2
 10
231.947157
 20
4071.116612
 11
231.947157
 21
4086.661204
  0
LINE
  8
0
  6
CONTINUOUS
 62
     2
 10
231.947157
 20
4086.661204
 11
235.926572
 21
4086.661204
  0
LINE
  8
0
  6
CONTINUOUS
 62
     2
 10
235.926572
 20
4086.661204
 11
235.926572
 21
4084.501919
  0
LINE
  8
0
  6
CONTINUOUS
 62
     2
 10
235.926572
 20
4084.501919
 11
245.027225
 21
4078.849340
  0
LINE
  8
0
  6
CONTINUOUS
 62
     2
 10
245.027225
 20
4078.849340
 11
249.323185
 21
4071.478377
  0
LINE
  8
0
  6
CONTINUOUS
 62
     2
 10
249.323185
 20
4071.478377
 11
254.930543
 21
4071.478377
  0
LINE
  8
0
  6
CONTINUOUS
 62
     2
 10
254.930543
 20
4071.478377
 11
254.930543
 21
4114.166831
  0
LINE
  8
0
  6
CONTINUOUS
 62
     2
 10
254.930543
 20
4114.166831
 11
264.036848
 21
4114.166831
  0
LINE
  8
0
  6
CONTINUOUS
 62
     2
 10
264.036848
 20
4114.166831
 11
264.036848
 21
4088.094310
  0
LINE
  8
0
  6
CONTINUOUS
 62
     2
 10
264.036848
 20
4088.094310
 11
296.847199
 21
4088.094310
  0
LINE
  8
0
  6
CONTINUOUS
 62
     2
 10
296.847199
 20
4088.094310
 11
296.847199
 21
4058.751408
  0
LINE
  8
0
  6
CONTINUOUS
 62
     2
 10
296.847199
 20
4058.751408
 11
310.244629
 21
4058.751408
  0
LINE
  8
0
  6
CONTINUOUS
 62
     2
 10
297.681705
 20
3995.295036
 11
306.023604
 21
3995.295036
  0
LINE
  8
0
  6
CONTINUOUS
 62
     4
 10
333.377831
 20
3694.010295
 11
332.725607
 21
3696.444428
  0
LINE
  8
0
  6
CONTINUOUS
 62
     4
 10
332.725607
 20
3696.444428
 11
332.073383
 21
3694.010295
  0
LINE
  8
0
  6
CONTINUOUS
 62
     4
 10
332.073383
 20
3648.878561
 11
332.725607
 21
3646.444428
  0
LINE
  8
0
  6
CONTINUOUS
 62
     4
 10
332.725607
 20
3646.444428
 11
333.377831
 21
3648.878561
  0
LINE
  8
0
  6
CONTINUOUS
 62
     4
 10
332.725607
 20
3696.444428
 11
332.725607
 21
3646.444428
  0
TEXT
  8
0
 62
     4
 10
331.525607
 20
3666.644428
 40
12.000000
  1
50
 50
90.000000
 41
0.800000
  7
GOTHIC
 72
     1
 11
331.525607
 21
3671.444428
  0
LINE
  8
0
  6
CONTINUOUS
 62
     4
 10
294.727848
 20
3696.444428
 11
335.725607
 21
3696.444428
  0
LINE
  8
0
  6
CONTINUOUS
 62
     4
 10
301.227848
 20
3646.444428
 11
335.725607
 21
3646.444428
  0
LINE
  8
0
  6
CONTINUOUS
 62
     4
 10
286.661981
 20
3718.130433
 11
284.227848
 21
3717.478209
  0
LINE
  8
0
  6
CONTINUOUS
 62
     4
 10
284.227848
 20
3717.478209
 11
286.661981
 21
3716.825985
  0
LINE
  8
0
  6
CONTINUOUS
 62
     4
 10
289.293715
 20
3716.825985
 11
291.727848
 21
3717.478209
  0
LINE
  8
0
  6
CONTINUOUS
 62
     4
 10
291.727848
 20
3717.478209
 11
289.293715
 21
3718.130433
  0
LINE
  8
0
  6
CONTINUOUS
 62
     4
 10
284.227848
 20
3717.478209
 11
291.727848
 21
3717.478209
  0
TEXT
  8
0
 62
     4
 10
280.777848
 20
3718.678209
 40
12.000000
  1
7.5
 41
0.800000
  7
GOTHIC
 72
     1
 11
287.977848
 21
3718.678209
  0
LINE
  8
0
  6
CONTINUOUS
 62
     4
 10
284.227848
 20
3693.444428
 11
284.227848
 21
3720.478209
  0
LINE
  8
0
  6
CONTINUOUS
 62
     4
 10
291.727848
 20
3699.444428
 11
291.727848
 21
3720.478209
  0
LINE
  8
0
  6
CONTINUOUS
 62
     4
 10
289.293715
 20
3670.695961
 11
291.727848
 21
3671.348185
  0
LINE
  8
0
  6
CONTINUOUS
 62
     4
 10
291.727848
 20
3671.348185
 11
289.293715
 21
3672.000409
  0
LINE
  8
0
  6
CONTINUOUS
 62
     4
 10
279.161981
 20
3672.000409
 11
276.727848
 21
3671.348185
  0
LINE
  8
0
  6
CONTINUOUS
 62
     4
 10
276.727848
 20
3671.348185
 11
279.161981
 21
3670.695961
  0
LINE
  8
0
  6
CONTINUOUS
 62
     4
 10
291.727848
 20
3671.348185
 11
276.727848
 21
3671.348185
  0
TEXT
  8
0
 62
     4
 10
279.427848
 20
3672.548185
 40
12.000000
  1
15
 41
0.800000
  7
GOTHIC
 72
     1
 11
284.227848
 21
3672.548185
  0
LINE
  8
0
  6
CONTINUOUS
 62
     4
 10
286.661981
 20
3745.914799
 11
284.227848
 21
3745.262575
  0
LINE
  8
0
  6
CONTINUOUS
 62
     4
 10
284.227848
 20
3745.262575
 11
286.661981
 21
3744.610351
  0
LINE
  8
0
  6
CONTINUOUS
 62
     4
 10
295.793715
 20
3744.610351
 11
298.227848
 21
3745.262575
  0
LINE
  8
0
  6
CONTINUOUS
 62
     4
 10
298.227848
 20
3745.262575
 11
295.793715
 21
3745.914799
  0
LINE
  8
0
  6
CONTINUOUS
 62
     4
 10
284.227848
 20
3745.262575
 11
298.227848
 21
3745.262575
  0
TEXT
  8
0
 62
     4
 10
286.427848
 20
3746.462575
 40
12.000000
  1
14
 41
0.800000
  7
GOTHIC
 72
     1
 11
291.227848
 21
3746.462575
  0
LINE
  8
0
  6
CONTINUOUS
 62
     4
 10
284.227848
 20
3720.478209
 11
284.227848
 21
3748.262575
  0
LINE
  8
0
  6
CONTINUOUS
 62
     4
 10
298.227848
 20
3649.444428
 11
298.227848
 21
3748.262575
  0
LINE
  8
0
  6
CONTINUOUS
 62
     4
 10
286.661981
 20
3768.470209
 11
284.227848
 21
3767.817985
  0
LINE
  8
0
  6
CONTINUOUS
 62
     4
 10
284.227848
 20
3767.817985
 11
286.661981
 21
3767.165761
  0
LINE
  8
0
  6
CONTINUOUS
 62
     4
 10
299.293715
 20
3767.165761
 11
301.727848
 21
3767.817985
  0
LINE
  8
0
  6
CONTINUOUS
 62
     4
 10
301.727848
 20
3767.817985
 11
299.293715
 21
3768.470209
  0
LINE
  8
0
  6
CONTINUOUS
 62
     4
 10
284.227848
 20
3767.817985
 11
301.727848
 21
3767.817985
  0
TEXT
  8
0
 62
     4
 10
283.377848
 20
3769.017985
 40
12.000000
  1
17.5
 41
0.800000
  7
GOTHIC
 72
     1
 11
292.977848
 21
3769.017985
  0
LINE
  8
0
  6
CONTINUOUS
 62
     4
 10
284.227848
 20
3748.262575
 11
284.227848
 21
3770.817985
  0
LINE
  8
0
  6
CONTINUOUS
 62
     4
 10
301.727848
 20
3631.944428
 11
301.727848
 21
3770.817985
  0
LINE
  8
0
  6
CONTINUOUS
 62
     4
 10
286.661981
 20
3792.644063
 11
284.227848
 21
3791.991839
  0
LINE
  8
0
  6
CONTINUOUS
 62
     4
 10
284.227848
 20
3791.991839
 11
286.661981
 21
3791.339615
  0
LINE
  8
0
  6
CONTINUOUS
 62
     4
 10
349.293715
 20
3791.339615
 11
351.727848
 21
3791.991839
  0
LINE
  8
0
  6
CONTINUOUS
 62
     4
 10
351.727848
 20
3791.991839
 11
349.293715
 21
3792.644063
  0
LINE
  8
0
  6
CONTINUOUS
 62
     4
 10
284.227848
 20
3791.991839
 11
351.727848
 21
3791.991839
  0
TEXT
  8
0
 62
     4
 10
308.377848
 20
3793.191839
 40
12.000000
  1
67.5
 41
0.800000
  7
GOTHIC
 72
     1
 11
317.977848
 21
3793.191839
  0
LINE
  8
0
  6
CONTINUOUS
 62
     4
 10
284.227848
 20
3770.817985
 11
284.227848
 21
3794.991839
  0
LINE
  8
0
  6
CONTINUOUS
 62
     4
 10
351.727848
 20
3604.444428
 11
351.727848
 21
3794.991839
  0
LINE
  8
0
  6
CONTINUOUS
 62
     4
 10
286.661981
 20
3818.785880
 11
284.227848
 21
3818.133656
  0
LINE
  8
0
  6
CONTINUOUS
 62
     4
 10
284.227848
 20
3818.133656
 11
286.661981
 21
3817.481432
  0
LINE
  8
0
  6
CONTINUOUS
 62
     4
 10
409.293715
 20
3817.481432
 11
411.727848
 21
3818.133656
  0
LINE
  8
0
  6
CONTINUOUS
 62
     4
 10
411.727848
 20
3818.133656
 11
409.293715
 21
3818.785880
  0
LINE
  8
0
  6
CONTINUOUS
 62
     4
 10
284.227848
 20
3818.133656
 11
411.727848
 21
3818.133656
  0
TEXT
  8
0
 62
     4
 10
335.977848
 20
3819.333656
 40
12.000000
  1
127.5
 41
0.800000
  7
GOTHIC
 72
     1
 11
347.977848
 21
3819.333656
  0
LINE
  8
0
  6
CONTINUOUS
 62
     4
 10
284.227848
 20
3807.127100
 11
284.227848
 21
3821.133656
  0
LINE
  8
0
  6
CONTINUOUS
 62
     4
 10
411.727848
 20
3514.444428
 11
411.727848
 21
3821.133656
  0
LINE
  8
0
  6
CONTINUOUS
 62
     4
 10
286.661981
 20
3839.734838
 11
284.227848
 21
3839.082614
  0
LINE
  8
0
  6
CONTINUOUS
 62
     4
 10
284.227848
 20
3839.082614
 11
286.661981
 21
3838.430390
  0
LINE
  8
0
  6
CONTINUOUS
 62
     4
 10
489.293715
 20
3838.430390
 11
491.727848
 21
3839.082614
  0
LINE
  8
0
  6
CONTINUOUS
 62
     4
 10
491.727848
 20
3839.082614
 11
489.293715
 21
3839.734838
  0
LINE
  8
0
  6
CONTINUOUS
 62
     4
 10
284.227848
 20
3839.082614
 11
491.727848
 21
3839.082614
  0
TEXT
  8
0
 62
     4
 10
375.977848
 20
3840.282614
 40
12.000000
  1
207.5
 41
0.800000
  7
GOTHIC
 72
     1
 11
387.977848
 21
3840.282614
  0
LINE
  8
0
  6
CONTINUOUS
 62
     4
 10
284.227848
 20
3840.270028
 11
284.227848
 21
3842.082614
  0
LINE
  8
0
  6
CONTINUOUS
 62
     4
 10
491.727848
 20
3464.444428
 11
491.727848
 21
3842.082614
  0
LINE
  8
0
  6
CONTINUOUS
 62
     2
 10
3793.730931
 20
100.347263
 11
3853.730931
 21
100.347263
  0
LINE
  8
0
  6
CONTINUOUS
 62
     2
 10
3853.730931
 20
100.347263
 11
3853.730931
 21
118.357263
  0
LINE
  8
0
  6
CONTINUOUS
 62
     2
 10
3853.730931
 20
118.357263
 11
3855.730931
 21
120.337263
  0
LINE
  8
0
  6
CONTINUOUS
 62
     2
 10
3855.730931
 20
120.337263
 11
3871.230931
 21
120.337263
  0
LINE
  8
0
  6
CONTINUOUS
 62
     2
 10
3871.230931
 20
120.337263
 11
3871.230931
 21
195.337263
  0
LINE
  8
0
  6
CONTINUOUS
 62
     2
 10
3871.230931
 20
195.337263
 11
3866.380931
 21
195.337263
  0
LINE
  8
0
  6
CONTINUOUS
 62
     2
 10
3866.380931
 20
195.337263
 11
3865.130931
 21
195.217263
  0
LINE
  8
0
  6
CONTINUOUS
 62
     2
 10
3865.130931
 20
195.217263
 11
3863.960931
 21
194.837263
  0
LINE
  8
0
  6
CONTINUOUS
 62
     2
 10
3863.960931
 20
194.837263
 11
3862.870931
 21
194.227263
  0
LINE
  8
0
  6
CONTINUOUS
 62
     2
 10
3862.870931
 20
194.227263
 11
3861.960931
 21
193.407263
  0
LINE
  8
0
  6
CONTINUOUS
 62
     2
 10
3861.960931
 20
193.407263
 11
3856.220931
 21
187.167263
  0
LINE
  8
0
  6
CONTINUOUS
 62
     2
 10
3856.220931
 20
187.167263
 11
3856.220931
 21
185.687263
  0
LINE
  8
0
  6
CONTINUOUS
 62
     2
 10
3856.220931
 20
185.687263
 11
3829.620931
 21
156.657263
  0
LINE
  8
0
  6
CONTINUOUS
 62
     2
 10
3829.620931
 20
156.657263
 11
3826.960931
 21
154.727263
  0
LINE
  8
0
  6
CONTINUOUS
 62
     2
 10
3826.960931
 20
154.727263
 11
3823.730931
 21
154.067263
  0
LINE
  8
0
  6
CONTINUOUS
 62
     2
 10
3823.730931
 20
154.067263
 11
3820.500931
 21
154.727263
  0
LINE
  8
0
  6
CONTINUOUS
 62
     2
 10
3820.500931
 20
154.727263
 11
3817.840931
 21
156.657263
  0
LINE
  8
0
  6
CONTINUOUS
 62
     2
 10
3817.840931
 20
156.657263
 11
3791.221931
 21
185.687263
  0
LINE
  8
0
  6
CONTINUOUS
 62
     2
 10
3791.221931
 20
185.687263
 11
3791.221931
 21
187.167263
  0
LINE
  8
0
  6
CONTINUOUS
 62
     2
 10
3791.221931
 20
187.167263
 11
3785.500931
 21
193.407263
  0
LINE
  8
0
  6
CONTINUOUS
 62
     2
 10
3785.500931
 20
193.407263
 11
3784.590931
 21
194.227263
  0
LINE
  8
0
  6
CONTINUOUS
 62
     2
 10
3784.590931
 20
194.227263
 11
3783.500931
 21
194.837263
  0
LINE
  8
0
  6
CONTINUOUS
 62
     2
 10
3783.500931
 20
194.837263
 11
3782.330931
 21
195.217263
  0
LINE
  8
0
  6
CONTINUOUS
 62
     2
 10
3782.330931
 20
195.217263
 11
3781.080931
 21
195.337263
  0
LINE
  8
0
  6
CONTINUOUS
 62
     2
 10
3781.080931
 20
195.337263
 11
3776.230931
 21
195.337263
  0
LINE
  8
0
  6
CONTINUOUS
 62
     2
 10
3776.230931
 20
195.337263
 11
3776.230931
 21
120.337263
  0
LINE
  8
0
  6
CONTINUOUS
 62
     2
 10
3776.230931
 20
120.337263
 11
3791.730931
 21
120.337263
  0
LINE
  8
0
  6
CONTINUOUS
 62
     2
 10
3791.730931
 20
120.337263
 11
3793.730931
 21
118.357263
  0
LINE
  8
0
  6
CONTINUOUS
 62
     2
 10
3793.730931
 20
118.357263
 11
3793.730931
 21
100.347263
  0
LINE
  8
0
  6
CONTINUOUS
 62
     2
 10
4003.730931
 20
55.337263
 11
4123.730931
 21
55.337263
  0
LINE
  8
0
  6
CONTINUOUS
 62
     2
 10
4123.730931
 20
55.337263
 11
4123.730931
 21
75.337263
  0
LINE
  8
0
  6
CONTINUOUS
 62
     2
 10
4123.730931
 20
75.337263
 11
4151.230931
 21
75.337263
  0
LINE
  8
0
  6
CONTINUOUS
 62
     2
 10
4151.230931
 20
75.337263
 11
4156.230931
 21
80.337263
  0
LINE
  8
0
  6
CONTINUOUS
 62
     2
 10
4156.230931
 20
80.337263
 11
4156.230931
 21
195.337263
  0
LINE
  8
0
  6
CONTINUOUS
 62
     2
 10
4156.230931
 20
195.337263
 11
4148.830931
 21
195.337263
  0
LINE
  8
0
  6
CONTINUOUS
 62
     2
 10
4148.830931
 20
195.337263
 11
4146.930931
 21
195.137263
  0
LINE
  8
0
  6
CONTINUOUS
 62
     2
 10
4146.930931
 20
195.137263
 11
4145.130931
 21
194.637263
  0
LINE
  8
0
  6
CONTINUOUS
 62
     2
 10
4145.130931
 20
194.637263
 11
4143.330931
 21
193.837263
  0
LINE
  8
0
  6
CONTINUOUS
 62
     2
 10
4143.330931
 20
193.837263
 11
4141.830931
 21
192.737263
  0
LINE
  8
0
  6
CONTINUOUS
 62
     2
 10
4141.830931
 20
192.737263
 11
4140.430931
 21
191.337263
  0
LINE
  8
0
  6
CONTINUOUS
 62
     2
 10
4140.430931
 20
191.337263
 11
4130.230931
 21
179.237263
  0
LINE
  8
0
  6
CONTINUOUS
 62
     2
 10
4130.230931
 20
179.237263
 11
4130.230931
 21
176.137263
  0
LINE
  8
0
  6
CONTINUOUS
 62
     2
 10
4130.230931
 20
176.137263
 11
4063.730931
 21
96.837263
  0
LINE
  8
0
  6
CONTINUOUS
 62
     2
 10
4063.730931
 20
96.837263
 11
3997.230931
 21
176.137263
  0
LINE
  8
0
  6
CONTINUOUS
 62
     2
 10
3997.230931
 20
176.137263
 11
3997.230931
 21
179.237263
  0
LINE
  8
0
  6
CONTINUOUS
 62
     2
 10
3997.230931
 20
179.237263
 11
3987.030931
 21
191.337263
  0
LINE
  8
0
  6
CONTINUOUS
 62
     2
 10
3987.030931
 20
191.337263
 11
3985.630931
 21
192.737263
  0
LINE
  8
0
  6
CONTINUOUS
 62
     2
 10
3985.630931
 20
192.737263
 11
3984.130931
 21
193.837263
  0
LINE
  8
0
  6
CONTINUOUS
 62
     2
 10
3984.130931
 20
193.837263
 11
3982.330931
 21
194.637263
  0
LINE
  8
0
  6
CONTINUOUS
 62
     2
 10
3982.330931
 20
194.637263
 11
3980.530931
 21
195.137263
  0
LINE
  8
0
  6
CONTINUOUS
 62
     2
 10
3980.530931
 20
195.137263
 11
3978.630931
 21
195.337263
  0
LINE
  8
0
  6
CONTINUOUS
 62
     2
 10
3978.630931
 20
195.337263
 11
3971.230931
 21
195.337263
  0
LINE
  8
0
  6
CONTINUOUS
 62
     2
 10
3971.230931
 20
195.337263
 11
3971.230931
 21
80.337263
  0
LINE
  8
0
  6
CONTINUOUS
 62
     2
 10
3971.230931
 20
80.337263
 11
3976.230931
 21
75.337263
  0
LINE
  8
0
  6
CONTINUOUS
 62
     2
 10
3976.230931
 20
75.337263
 11
4003.730931
 21
75.337263
  0
LINE
  8
0
  6
CONTINUOUS
 62
     2
 10
4003.730931
 20
75.337263
 11
4003.730931
 21
55.337263
  0
LINE
  8
0
  6
CONTINUOUS
 62
     2
 10
4286.220931
 20
85.337263
 11
4346.220931
 21
85.337263
  0
LINE
  8
0
  6
CONTINUOUS
 62
     2
 10
4346.220931
 20
85.337263
 11
4346.220931
 21
103.337263
  0
LINE
  8
0
  6
CONTINUOUS
 62
     2
 10
4346.220931
 20
103.337263
 11
4348.220931
 21
105.317263
  0
LINE
  8
0
  6
CONTINUOUS
 62
     2
 10
4348.220931
 20
105.317263
 11
4376.210931
 21
105.317263
  0
LINE
  8
0
  6
CONTINUOUS
 62
     2
 10
4376.210931
 20
105.317263
 11
4376.210931
 21
195.337263
  0
LINE
  8
0
  6
CONTINUOUS
 62
     2
 10
4376.210931
 20
195.337263
 11
4369.310931
 21
195.337263
  0
LINE
  8
0
  6
CONTINUOUS
 62
     2
 10
4369.310931
 20
195.337263
 11
4367.860931
 21
195.187263
  0
LINE
  8
0
  6
CONTINUOUS
 62
     2
 10
4367.860931
 20
195.187263
 11
4366.490931
 21
194.727263
  0
LINE
  8
0
  6
CONTINUOUS
 62
     2
 10
4366.490931
 20
194.727263
 11
4365.220931
 21
194.017263
  0
LINE
  8
0
  6
CONTINUOUS
 62
     2
 10
4365.220931
 20
194.017263
 11
4364.120931
 21
193.047263
  0
LINE
  8
0
  6
CONTINUOUS
 62
     2
 10
4364.120931
 20
193.047263
 11
4357.220931
 21
185.507263
  0
LINE
  8
0
  6
CONTINUOUS
 62
     2
 10
4357.220931
 20
185.507263
 11
4357.220931
 21
182.537263
  0
LINE
  8
0
  6
CONTINUOUS
 62
     2
 10
4357.220931
 20
182.537263
 11
4323.590931
 21
145.857263
  0
LINE
  8
0
  6
CONTINUOUS
 62
     2
 10
4323.590931
 20
145.857263
 11
4320.230931
 21
143.447263
  0
LINE
  8
0
  6
CONTINUOUS
 62
     2
 10
4320.230931
 20
143.447263
 11
4316.220931
 21
142.607263
  0
LINE
  8
0
  6
CONTINUOUS
 62
     2
 10
4316.220931
 20
142.607263
 11
4312.180931
 21
143.447263
  0
LINE
  8
0
  6
CONTINUOUS
 62
     2
 10
4312.180931
 20
143.447263
 11
4308.850931
 21
145.857263
  0
LINE
  8
0
  6
CONTINUOUS
 62
     2
 10
4308.850931
 20
145.857263
 11
4275.220931
 21
182.537263
  0
LINE
  8
0
  6
CONTINUOUS
 62
     2
 10
4275.220931
 20
182.537263
 11
4275.220931
 21
185.507263
  0
LINE
  8
0
  6
CONTINUOUS
 62
     2
 10
4275.220931
 20
185.507263
 11
4268.290931
 21
193.047263
  0
LINE
  8
0
  6
CONTINUOUS
 62
     2
 10
4268.290931
 20
193.047263
 11
4267.220931
 21
194.017263
  0
LINE
  8
0
  6
CONTINUOUS
 62
     2
 10
4267.220931
 20
194.017263
 11
4265.950931
 21
194.727263
  0
LINE
  8
0
  6
CONTINUOUS
 62
     2
 10
4265.950931
 20
194.727263
 11
4264.580931
 21
195.187263
  0
LINE
  8
0
  6
CONTINUOUS
 62
     2
 10
4264.580931
 20
195.187263
 11
4263.130931
 21
195.337263
  0
LINE
  8
0
  6
CONTINUOUS
 62
     2
 10
4263.130931
 20
195.337263
 11
4256.230931
 21
195.337263
  0
LINE
  8
0
  6
CONTINUOUS
 62
     2
 10
4256.230931
 20
195.337263
 11
4256.230931
 21
105.317263
  0
LINE
  8
0
  6
CONTINUOUS
 62
     2
 10
4256.230931
 20
105.317263
 11
4284.220931
 21
105.317263
  0
LINE
  8
0
  6
CONTINUOUS
 62
     2
 10
4284.220931
 20
105.317263
 11
4286.220931
 21
103.337263
  0
LINE
  8
0
  6
CONTINUOUS
 62
     2
 10
4286.220931
 20
103.337263
 11
4286.220931
 21
85.337263
  0
LINE
  8
0
  6
CONTINUOUS
 62
     2
 10
4757.063509
 20
146.433549
 11
4817.063509
 21
146.433549
  0
LINE
  8
0
  6
CONTINUOUS
 62
     2
 10
4817.063509
 20
146.433549
 11
4817.063509
 21
206.423549
  0
LINE
  8
0
  6
CONTINUOUS
 62
     2
 10
4817.063509
 20
206.423549
 11
4804.813509
 21
206.423549
  0
LINE
  8
0
  6
CONTINUOUS
 62
     2
 10
4804.813509
 20
206.423549
 11
4804.003509
 21
206.343549
  0
LINE
  8
0
  6
CONTINUOUS
 62
     2
 10
4804.003509
 20
206.343549
 11
4803.212509
 21
206.093549
  0
LINE
  8
0
  6
CONTINUOUS
 62
     2
 10
4803.212509
 20
206.093549
 11
4802.483509
 21
205.683549
  0
LINE
  8
0
  6
CONTINUOUS
 62
     2
 10
4802.483509
 20
205.683549
 11
4801.873509
 21
205.123549
  0
LINE
  8
0
  6
CONTINUOUS
 62
     2
 10
4801.873509
 20
205.123549
 11
4799.053509
 21
202.053549
  0
LINE
  8
0
  6
CONTINUOUS
 62
     2
 10
4799.053509
 20
202.053549
 11
4799.053509
 21
200.583549
  0
LINE
  8
0
  6
CONTINUOUS
 62
     2
 10
4799.053509
 20
200.583549
 11
4789.273509
 21
189.913549
  0
LINE
  8
0
  6
CONTINUOUS
 62
     2
 10
4789.273509
 20
189.913549
 11
4788.253509
 21
189.173549
  0
LINE
  8
0
  6
CONTINUOUS
 62
     2
 10
4788.253509
 20
189.173549
 11
4787.063509
 21
188.923549
  0
LINE
  8
0
  6
CONTINUOUS
 62
     2
 10
4787.063509
 20
188.923549
 11
4785.843509
 21
189.173549
  0
LINE
  8
0
  6
CONTINUOUS
 62
     2
 10
4785.843509
 20
189.173549
 11
4784.853509
 21
189.913549
  0
LINE
  8
0
  6
CONTINUOUS
 62
     2
 10
4784.853509
 20
189.913549
 11
4775.053509
 21
200.583549
  0
LINE
  8
0
  6
CONTINUOUS
 62
     2
 10
4775.053509
 20
200.583549
 11
4775.053509
 21
202.053549
  0
LINE
  8
0
  6
CONTINUOUS
 62
     2
 10
4775.053509
 20
202.053549
 11
4772.253509
 21
205.123549
  0
LINE
  8
0
  6
CONTINUOUS
 62
     2
 10
4772.253509
 20
205.123549
 11
4771.623509
 21
205.683549
  0
LINE
  8
0
  6
CONTINUOUS
 62
     2
 10
4771.623509
 20
205.683549
 11
4770.914509
 21
206.093549
  0
LINE
  8
0
  6
CONTINUOUS
 62
     2
 10
4770.914509
 20
206.093549
 11
4770.123509
 21
206.343549
  0
LINE
  8
0
  6
CONTINUOUS
 62
     2
 10
4770.123509
 20
206.343549
 11
4769.313509
 21
206.423549
  0
LINE
  8
0
  6
CONTINUOUS
 62
     2
 10
4769.313509
 20
206.423549
 11
4757.063509
 21
206.423549
  0
LINE
  8
0
  6
CONTINUOUS
 62
     2
 10
4757.063509
 20
206.423549
 11
4757.063509
 21
146.433549
  0
LINE
  8
0
  6
CONTINUOUS
 62
     2
 10
4917.063509
 20
146.423549
 11
4977.053509
 21
146.423549
  0
LINE
  8
0
  6
CONTINUOUS
 62
     2
 10
4977.053509
 20
146.423549
 11
4977.053509
 21
206.423549
  0
LINE
  8
0
  6
CONTINUOUS
 62
     2
 10
4977.053509
 20
206.423549
 11
4968.823509
 21
206.423549
  0
LINE
  8
0
  6
CONTINUOUS
 62
     2
 10
4968.823509
 20
206.423549
 11
4967.983509
 21
206.343549
  0
LINE
  8
0
  6
CONTINUOUS
 62
     2
 10
4967.983509
 20
206.343549
 11
4967.203509
 21
206.093549
  0
LINE
  8
0
  6
CONTINUOUS
 62
     2
 10
4967.203509
 20
206.093549
 11
4966.493509
 21
205.683549
  0
LINE
  8
0
  6
CONTINUOUS
 62
     2
 10
4966.493509
 20
205.683549
 11
4965.853509
 21
205.123549
  0
LINE
  8
0
  6
CONTINUOUS
 62
     2
 10
4965.853509
 20
205.123549
 11
4963.063509
 21
202.053549
  0
LINE
  8
0
  6
CONTINUOUS
 62
     2
 10
4963.063509
 20
202.053549
 11
4963.063509
 21
200.583549
  0
LINE
  8
0
  6
CONTINUOUS
 62
     2
 10
4963.063509
 20
200.583549
 11
4950.003509
 21
186.323549
  0
LINE
  8
0
  6
CONTINUOUS
 62
     2
 10
4950.003509
 20
186.323549
 11
4948.663509
 21
185.393549
  0
LINE
  8
0
  6
CONTINUOUS
 62
     2
 10
4948.663509
 20
185.393549
 11
4947.053509
 21
185.033549
  0
LINE
  8
0
  6
CONTINUOUS
 62
     2
 10
4947.053509
 20
185.033549
 11
4945.433509
 21
185.393549
  0
LINE
  8
0
  6
CONTINUOUS
 62
     2
 10
4945.433509
 20
185.393549
 11
4944.113509
 21
186.323549
  0
LINE
  8
0
  6
CONTINUOUS
 62
     2
 10
4944.113509
 20
186.323549
 11
4931.053509
 21
200.583549
  0
LINE
  8
0
  6
CONTINUOUS
 62
     2
 10
4931.053509
 20
200.583549
 11
4931.053509
 21
202.053549
  0
LINE
  8
0
  6
CONTINUOUS
 62
     2
 10
4931.053509
 20
202.053549
 11
4928.233509
 21
205.123549
  0
LINE
  8
0
  6
CONTINUOUS
 62
     2
 10
4928.233509
 20
205.123549
 11
4927.623509
 21
205.683549
  0
LINE
  8
0
  6
CONTINUOUS
 62
     2
 10
4927.623509
 20
205.683549
 11
4926.913509
 21
206.093549
  0
LINE
  8
0
  6
CONTINUOUS
 62
     2
 10
4926.913509
 20
206.093549
 11
4926.133509
 21
206.343549
  0
LINE
  8
0
  6
CONTINUOUS
 62
     2
 10
4926.133509
 20
206.343549
 11
4925.313509
 21
206.423549
  0
LINE
  8
0
  6
CONTINUOUS
 62
     2
 10
4925.313509
 20
206.423549
 11
4917.063509
 21
206.423549
  0
LINE
  8
0
  6
CONTINUOUS
 62
     2
 10
4917.063509
 20
206.423549
 11
4917.063509
 21
146.423549
  0
LINE
  8
0
  6
CONTINUOUS
 62
     2
 10
5077.053509
 20
146.433549
 11
5137.053509
 21
146.433549
  0
LINE
  8
0
  6
CONTINUOUS
 62
     2
 10
5137.053509
 20
146.433549
 11
5137.053509
 21
206.423549
  0
LINE
  8
0
  6
CONTINUOUS
 62
     2
 10
5137.053509
 20
206.423549
 11
5133.803509
 21
206.423549
  0
LINE
  8
0
  6
CONTINUOUS
 62
     2
 10
5133.803509
 20
206.423549
 11
5132.983509
 21
206.353549
  0
LINE
  8
0
  6
CONTINUOUS
 62
     2
 10
5132.983509
 20
206.353549
 11
5132.203509
 21
206.103549
  0
LINE
  8
0
  6
CONTINUOUS
 62
     2
 10
5132.203509
 20
206.103549
 11
5131.483509
 21
205.693549
  0
LINE
  8
0
  6
CONTINUOUS
 62
     2
 10
5131.483509
 20
205.693549
 11
5130.853509
 21
205.133549
  0
LINE
  8
0
  6
CONTINUOUS
 62
     2
 10
5130.853509
 20
205.133549
 11
5127.043509
 21
200.963549
  0
LINE
  8
0
  6
CONTINUOUS
 62
     2
 10
5127.043509
 20
200.963549
 11
5127.043509
 21
199.493549
  0
LINE
  8
0
  6
CONTINUOUS
 62
     2
 10
5127.043509
 20
199.493549
 11
5110.733509
 21
181.693549
  0
LINE
  8
0
  6
CONTINUOUS
 62
     2
 10
5110.733509
 20
181.693549
 11
5109.062509
 21
180.493549
  0
LINE
  8
0
  6
CONTINUOUS
 62
     2
 10
5109.062509
 20
180.493549
 11
5107.053509
 21
180.063549
  0
LINE
  8
0
  6
CONTINUOUS
 62
     2
 10
5107.053509
 20
180.063549
 11
5105.044509
 21
180.493549
  0
LINE
  8
0
  6
CONTINUOUS
 62
     2
 10
5105.044509
 20
180.493549
 11
5103.373509
 21
181.693549
  0
LINE
  8
0
  6
CONTINUOUS
 62
     2
 10
5103.373509
 20
181.693549
 11
5087.033509
 21
199.493549
  0
LINE
  8
0
  6
CONTINUOUS
 62
     2
 10
5087.033509
 20
199.493549
 11
5087.033509
 21
200.963549
  0
LINE
  8
0
  6
CONTINUOUS
 62
     2
 10
5087.033509
 20
200.963549
 11
5083.233509
 21
205.133549
  0
LINE
  8
0
  6
CONTINUOUS
 62
     2
 10
5083.233509
 20
205.133549
 11
5082.623509
 21
205.693549
  0
LINE
  8
0
  6
CONTINUOUS
 62
     2
 10
5082.623509
 20
205.693549
 11
5081.903509
 21
206.103549
  0
LINE
  8
0
  6
CONTINUOUS
 62
     2
 10
5081.903509
 20
206.103549
 11
5081.123509
 21
206.353549
  0
LINE
  8
0
  6
CONTINUOUS
 62
     2
 10
5081.123509
 20
206.353549
 11
5080.283509
 21
206.423549
  0
LINE
  8
0
  6
CONTINUOUS
 62
     2
 10
5080.283509
 20
206.423549
 11
5077.053509
 21
206.423549
  0
LINE
  8
0
  6
CONTINUOUS
 62
     2
 10
5077.053509
 20
206.423549
 11
5077.053509
 21
146.433549
  0
LINE
  8
0
  6
CONTINUOUS
 62
     2
 10
5247.063509
 20
131.423549
 11
5307.063509
 21
131.423549
  0
LINE
  8
0
  6
CONTINUOUS
 62
     2
 10
5307.063509
 20
131.423549
 11
5307.063509
 21
151.403549
  0
LINE
  8
0
  6
CONTINUOUS
 62
     2
 10
5307.063509
 20
151.403549
 11
5317.073509
 21
151.403549
  0
LINE
  8
0
  6
CONTINUOUS
 62
     2
 10
5317.073509
 20
151.403549
 11
5317.073509
 21
206.423549
  0
LINE
  8
0
  6
CONTINUOUS
 62
     2
 10
5317.073509
 20
206.423549
 11
5310.773509
 21
206.423549
  0
LINE
  8
0
  6
CONTINUOUS
 62
     2
 10
5310.773509
 20
206.423549
 11
5309.722509
 21
206.323549
  0
LINE
  8
0
  6
CONTINUOUS
 62
     2
 10
5309.722509
 20
206.323549
 11
5308.763509
 21
205.993549
  0
LINE
  8
0
  6
CONTINUOUS
 62
     2
 10
5308.763509
 20
205.993549
 11
5307.853509
 21
205.483549
  0
LINE
  8
0
  6
CONTINUOUS
 62
     2
 10
5307.853509
 20
205.483549
 11
5307.083509
 21
204.793549
  0
LINE
  8
0
  6
CONTINUOUS
 62
     2
 10
5307.083509
 20
204.793549
 11
5303.583509
 21
200.963549
  0
LINE
  8
0
  6
CONTINUOUS
 62
     2
 10
5303.583509
 20
200.963549
 11
5303.583509
 21
199.493549
  0
LINE
  8
0
  6
CONTINUOUS
 62
     2
 10
5303.583509
 20
199.493549
 11
5281.483509
 21
175.383549
  0
LINE
  8
0
  6
CONTINUOUS
 62
     2
 10
5281.483509
 20
175.383549
 11
5279.473509
 21
173.963549
  0
LINE
  8
0
  6
CONTINUOUS
 62
     2
 10
5279.473509
 20
173.963549
 11
5277.063509
 21
173.453549
  0
LINE
  8
0
  6
CONTINUOUS
 62
     2
 10
5277.063509
 20
173.453549
 11
5274.653509
 21
173.963549
  0
LINE
  8
0
  6
CONTINUOUS
 62
     2
 10
5274.653509
 20
173.963549
 11
5272.643509
 21
175.383549
  0
LINE
  8
0
  6
CONTINUOUS
 62
     2
 10
5272.643509
 20
175.383549
 11
5250.573509
 21
199.493549
  0
LINE
  8
0
  6
CONTINUOUS
 62
     2
 10
5250.573509
 20
199.493549
 11
5250.573509
 21
200.963549
  0
LINE
  8
0
  6
CONTINUOUS
 62
     2
 10
5250.573509
 20
200.963549
 11
5247.063509
 21
204.793549
  0
LINE
  8
0
  6
CONTINUOUS
 62
     2
 10
5247.063509
 20
204.793549
 11
5246.273509
 21
205.483549
  0
LINE
  8
0
  6
CONTINUOUS
 62
     2
 10
5246.273509
 20
205.483549
 11
5245.393509
 21
205.993549
  0
LINE
  8
0
  6
CONTINUOUS
 62
     2
 10
5245.393509
 20
205.993549
 11
5244.404509
 21
206.323549
  0
LINE
  8
0
  6
CONTINUOUS
 62
     2
 10
5244.404509
 20
206.323549
 11
5243.353509
 21
206.423549
  0
LINE
  8
0
  6
CONTINUOUS
 62
     2
 10
5243.353509
 20
206.423549
 11
5237.053509
 21
206.423549
  0
LINE
  8
0
  6
CONTINUOUS
 62
     2
 10
5237.053509
 20
206.423549
 11
5237.053509
 21
151.403549
  0
LINE
  8
0
  6
CONTINUOUS
 62
     2
 10
5237.053509
 20
151.403549
 11
5247.063509
 21
151.403549
  0
LINE
  8
0
  6
CONTINUOUS
 62
     2
 10
5247.063509
 20
151.403549
 11
5247.063509
 21
131.423549
  0
LINE
  8
0
  6
CONTINUOUS
 62
     2
 10
5449.073509
 20
83.423549
 11
5539.063509
 21
83.423549
  0
LINE
  8
0
  6
CONTINUOUS
 62
     2
 10
5539.063509
 20
83.423549
 11
5539.063509
 21
101.433549
  0
LINE
  8
0
  6
CONTINUOUS
 62
     2
 10
5539.063509
 20
101.433549
 11
5541.073509
 21
103.423549
  0
LINE
  8
0
  6
CONTINUOUS
 62
     2
 10
5541.073509
 20
103.423549
 11
5571.073509
 21
103.423549
  0
LINE
  8
0
  6
CONTINUOUS
 62
     2
 10
5571.073509
 20
103.423549
 11
5571.073509
 21
206.423549
  0
LINE
  8
0
  6
CONTINUOUS
 62
     2
 10
5571.073509
 20
206.423549
 11
5560.753509
 21
206.423549
  0
LINE
  8
0
  6
CONTINUOUS
 62
     2
 10
5560.753509
 20
206.423549
 11
5558.833509
 21
206.213549
  0
LINE
  8
0
  6
CONTINUOUS
 62
     2
 10
5558.833509
 20
206.213549
 11
5556.973509
 21
205.573549
  0
LINE
  8
0
  6
CONTINUOUS
 62
     2
 10
5556.973509
 20
205.573549
 11
5555.293509
 21
204.563549
  0
LINE
  8
0
  6
CONTINUOUS
 62
     2
 10
5555.293509
 20
204.563549
 11
5553.873509
 21
203.213549
  0
LINE
  8
0
  6
CONTINUOUS
 62
     2
 10
5553.873509
 20
203.213549
 11
5546.073509
 21
193.923549
  0
LINE
  8
0
  6
CONTINUOUS
 62
     2
 10
5546.073509
 20
193.923549
 11
5546.073509
 21
190.793549
  0
LINE
  8
0
  6
CONTINUOUS
 62
     2
 10
5546.073509
 20
190.793549
 11
5518.593509
 21
158.053549
  0
LINE
  8
0
  6
CONTINUOUS
 62
     2
 10
5518.593509
 20
158.053549
 11
5507.593509
 21
149.623549
  0
LINE
  8
0
  6
CONTINUOUS
 62
     2
 10
5507.593509
 20
149.623549
 11
5494.083509
 21
146.623549
  0
LINE
  8
0
  6
CONTINUOUS
 62
     2
 10
5494.083509
 20
146.623549
 11
5480.543509
 21
149.623549
  0
LINE
  8
0
  6
CONTINUOUS
 62
     2
 10
5480.543509
 20
149.623549
 11
5469.543509
 21
158.053549
  0
LINE
  8
0
  6
CONTINUOUS
 62
     2
 10
5469.543509
 20
158.053549
 11
5442.063509
 21
190.793549
  0
LINE
  8
0
  6
CONTINUOUS
 62
     2
 10
5442.063509
 20
190.793549
 11
5442.063509
 21
193.923549
  0
LINE
  8
0
  6
CONTINUOUS
 62
     2
 10
5442.063509
 20
193.923549
 11
5434.263509
 21
203.213549
  0
LINE
  8
0
  6
CONTINUOUS
 62
     2
 10
5434.263509
 20
203.213549
 11
5432.843509
 21
204.563549
  0
LINE
  8
0
  6
CONTINUOUS
 62
     2
 10
5432.843509
 20
204.563549
 11
5431.163509
 21
205.573549
  0
LINE
  8
0
  6
CONTINUOUS
 62
     2
 10
5431.163509
 20
205.573549
 11
5429.314509
 21
206.213549
  0
LINE
  8
0
  6
CONTINUOUS
 62
     2
 10
5429.314509
 20
206.213549
 11
5427.383509
 21
206.423549
  0
LINE
  8
0
  6
CONTINUOUS
 62
     2
 10
5427.383509
 20
206.423549
 11
5417.073509
 21
206.423549
  0
LINE
  8
0
  6
CONTINUOUS
 62
     2
 10
5417.073509
 20
206.423549
 11
5417.073509
 21
103.423549
  0
LINE
  8
0
  6
CONTINUOUS
 62
     2
 10
5417.073509
 20
103.423549
 11
5447.063509
 21
103.423549
  0
LINE
  8
0
  6
CONTINUOUS
 62
     2
 10
5447.063509
 20
103.423549
 11
5449.073509
 21
101.433549
  0
LINE
  8
0
  6
CONTINUOUS
 62
     2
 10
5449.073509
 20
101.433549
 11
5449.073509
 21
83.423549
  0
LINE
  8
0
  6
CONTINUOUS
 62
     2
 10
7112.278842
 20
130.549124
 11
7172.278842
 21
130.549124
  0
LINE
  8
0
  6
CONTINUOUS
 62
     2
 10
7172.278842
 20
130.549124
 11
7172.278842
 21
145.549124
  0
LINE
  8
0
  6
CONTINUOUS
 62
     2
 10
7172.278842
 20
145.549124
 11
7154.778842
 21
145.549124
  0
LINE
  8
0
  6
CONTINUOUS
 62
     2
 10
7154.778842
 20
145.549124
 11
7154.778842
 21
192.049124
  0
LINE
  8
0
  6
CONTINUOUS
 62
     2
 10
7154.778842
 20
192.049124
 11
7149.278842
 21
192.049124
  0
LINE
  8
0
  6
CONTINUOUS
 62
     2
 10
7149.278842
 20
192.049124
 11
7149.278842
 21
182.049124
  0
LINE
  8
0
  6
CONTINUOUS
 62
     2
 10
7149.278842
 20
182.049124
 11
7135.278842
 21
182.049124
  0
LINE
  8
0
  6
CONTINUOUS
 62
     2
 10
7135.278842
 20
182.049124
 11
7135.278842
 21
192.049124
  0
LINE
  8
0
  6
CONTINUOUS
 62
     2
 10
7135.278842
 20
192.049124
 11
7127.778842
 21
192.049124
  0
LINE
  8
0
  6
CONTINUOUS
 62
     2
 10
7127.778842
 20
192.049124
 11
7127.778842
 21
179.549124
  0
LINE
  8
0
  6
CONTINUOUS
 62
     2
 10
7127.778842
 20
179.549124
 11
7123.778842
 21
179.549124
  0
LINE
  8
0
  6
CONTINUOUS
 62
     2
 10
7123.778842
 20
179.549124
 11
7123.778842
 21
169.549124
  0
LINE
  8
0
  6
CONTINUOUS
 62
     2
 10
7123.778842
 20
169.549124
 11
7127.778842
 21
169.549124
  0
LINE
  8
0
  6
CONTINUOUS
 62
     2
 10
7127.778842
 20
169.549124
 11
7127.778842
 21
164.549124
  0
LINE
  8
0
  6
CONTINUOUS
 62
     2
 10
7127.778842
 20
164.549124
 11
7129.778842
 21
164.549124
  0
LINE
  8
0
  6
CONTINUOUS
 62
     2
 10
7129.778842
 20
164.549124
 11
7129.778842
 21
145.549124
  0
LINE
  8
0
  6
CONTINUOUS
 62
     2
 10
7129.778842
 20
145.549124
 11
7112.278842
 21
145.549124
  0
LINE
  8
0
  6
CONTINUOUS
 62
     2
 10
7112.278842
 20
145.549124
 11
7112.278842
 21
130.549124
  0
LINE
  8
0
  6
CONTINUOUS
 62
     2
 10
7632.652951
 20
164.287124
 11
7652.652951
 21
164.287124
  0
LINE
  8
0
  6
CONTINUOUS
 62
     2
 10
7652.652951
 20
164.287124
 11
7652.652951
 21
174.287124
  0
LINE
  8
0
  6
CONTINUOUS
 62
     2
 10
7652.652951
 20
174.287124
 11
7648.152951
 21
174.287124
  0
LINE
  8
0
  6
CONTINUOUS
 62
     2
 10
7648.152951
 20
174.287124
 11
7648.152951
 21
179.287124
  0
LINE
  8
0
  6
CONTINUOUS
 62
     2
 10
7648.152951
 20
179.287124
 11
7637.152951
 21
179.287124
  0
LINE
  8
0
  6
CONTINUOUS
 62
     2
 10
7637.152951
 20
179.287124
 11
7637.152951
 21
174.287124
  0
LINE
  8
0
  6
CONTINUOUS
 62
     2
 10
7637.152951
 20
174.287124
 11
7632.652951
 21
174.287124
  0
LINE
  8
0
  6
CONTINUOUS
 62
     2
 10
7632.652951
 20
174.287124
 11
7632.652951
 21
164.287124
  0
LINE
  8
0
  6
CONTINUOUS
 62
     2
 10
5680.898602
 20
125.648096
 11
5698.398602
 21
125.648096
  0
LINE
  8
0
  6
CONTINUOUS
 62
     2
 10
5698.398602
 20
125.648096
 11
5698.398602
 21
131.648096
  0
LINE
  8
0
  6
CONTINUOUS
 62
     2
 10
5698.398602
 20
131.648096
 11
5713.398602
 21
131.648096
  0
LINE
  8
0
  6
CONTINUOUS
 62
     2
 10
5713.398602
 20
131.648096
 11
5713.398602
 21
125.648096
  0
LINE
  8
0
  6
CONTINUOUS
 62
     2
 10
5713.398602
 20
125.648096
 11
5730.898602
 21
125.648096
  0
LINE
  8
0
  6
CONTINUOUS
 62
     2
 10
5730.898602
 20
125.648096
 11
5730.898602
 21
171.648096
  0
LINE
  8
0
  6
CONTINUOUS
 62
     2
 10
5730.898602
 20
171.648096
 11
5729.398602
 21
171.648096
  0
LINE
  8
0
  6
CONTINUOUS
 62
     2
 10
5729.398602
 20
171.648096
 11
5723.398602
 21
165.438096
  0
LINE
  8
0
  6
CONTINUOUS
 62
     2
 10
5723.398602
 20
165.438096
 11
5717.398602
 21
171.648096
  0
LINE
  8
0
  6
CONTINUOUS
 62
     2
 10
5717.398602
 20
171.648096
 11
5702.898602
 21
171.648096
  0
LINE
  8
0
  6
CONTINUOUS
 62
     2
 10
5702.898602
 20
171.648096
 11
5692.898602
 21
161.298096
  0
LINE
  8
0
  6
CONTINUOUS
 62
     2
 10
5692.898602
 20
161.298096
 11
5682.898602
 21
171.648096
  0
LINE
  8
0
  6
CONTINUOUS
 62
     2
 10
5682.898602
 20
171.648096
 11
5680.898602
 21
171.648096
  0
LINE
  8
0
  6
CONTINUOUS
 62
     2
 10
5680.898602
 20
171.648096
 11
5680.898602
 21
125.648096
  0
LINE
  8
0
  6
CONTINUOUS
 62
     2
 10
5830.898602
 20
125.648096
 11
5848.398602
 21
125.648096
  0
LINE
  8
0
  6
CONTINUOUS
 62
     2
 10
5848.398602
 20
125.648096
 11
5848.398602
 21
131.648096
  0
LINE
  8
0
  6
CONTINUOUS
 62
     2
 10
5848.398602
 20
131.648096
 11
5863.398602
 21
131.648096
  0
LINE
  8
0
  6
CONTINUOUS
 62
     2
 10
5863.398602
 20
131.648096
 11
5863.398602
 21
125.648096
  0
LINE
  8
0
  6
CONTINUOUS
 62
     2
 10
5863.398602
 20
125.648096
 11
5880.898602
 21
125.648096
  0
LINE
  8
0
  6
CONTINUOUS
 62
     2
 10
5880.898602
 20
125.648096
 11
5880.898602
 21
171.648096
  0
LINE
  8
0
  6
CONTINUOUS
 62
     2
 10
5880.898602
 20
171.648096
 11
5879.398602
 21
171.648096
  0
LINE
  8
0
  6
CONTINUOUS
 62
     2
 10
5879.398602
 20
171.648096
 11
5871.398602
 21
163.368096
  0
LINE
  8
0
  6
CONTINUOUS
 62
     2
 10
5871.398602
 20
163.368096
 11
5863.398602
 21
171.648096
  0
LINE
  8
0
  6
CONTINUOUS
 62
     2
 10
5863.398602
 20
171.648096
 11
5857.898602
 21
171.648096
  0
LINE
  8
0
  6
CONTINUOUS
 62
     2
 10
5857.898602
 20
171.648096
 11
5845.398602
 21
158.708096
  0
LINE
  8
0
  6
CONTINUOUS
 62
     2
 10
5845.398602
 20
158.708096
 11
5832.898602
 21
171.648096
  0
LINE
  8
0
  6
CONTINUOUS
 62
     2
 10
5832.898602
 20
171.648096
 11
5830.898602
 21
171.648096
  0
LINE
  8
0
  6
CONTINUOUS
 62
     2
 10
5830.898602
 20
171.648096
 11
5830.898602
 21
125.648096
  0
LINE
  8
0
  6
CONTINUOUS
 62
     2
 10
7241.950544
 20
117.171583
 11
7301.950544
 21
117.171583
  0
LINE
  8
0
  6
CONTINUOUS
 62
     2
 10
7301.950544
 20
117.171583
 11
7301.950544
 21
136.671583
  0
LINE
  8
0
  6
CONTINUOUS
 62
     2
 10
7301.950544
 20
136.671583
 11
7284.950544
 21
136.671583
  0
LINE
  8
0
  6
CONTINUOUS
 62
     2
 10
7284.950544
 20
136.671583
 11
7284.950544
 21
192.171583
  0
LINE
  8
0
  6
CONTINUOUS
 62
     2
 10
7284.950544
 20
192.171583
 11
7242.950544
 21
192.171583
  0
LINE
  8
0
  6
CONTINUOUS
 62
     2
 10
7242.950544
 20
192.171583
 11
7242.950544
 21
136.671583
  0
LINE
  8
0
  6
CONTINUOUS
 62
     2
 10
7242.950544
 20
136.671583
 11
7241.950544
 21
136.671583
  0
LINE
  8
0
  6
CONTINUOUS
 62
     2
 10
7241.950544
 20
136.671583
 11
7241.950544
 21
117.171583
  0
LINE
  8
0
  6
CONTINUOUS
 62
     2
 10
5972.296217
 20
110.125239
 11
6032.296217
 21
110.125239
  0
LINE
  8
0
  6
CONTINUOUS
 62
     2
 10
6032.296217
 20
110.125239
 11
6032.296217
 21
130.105239
  0
LINE
  8
0
  6
CONTINUOUS
 62
     2
 10
6032.296217
 20
130.105239
 11
6042.306217
 21
130.105239
  0
LINE
  8
0
  6
CONTINUOUS
 62
     2
 10
6042.306217
 20
130.105239
 11
6042.306217
 21
190.125239
  0
LINE
  8
0
  6
CONTINUOUS
 62
     2
 10
6042.306217
 20
190.125239
 11
6025.636217
 21
190.125239
  0
LINE
  8
0
  6
CONTINUOUS
 62
     2
 10
6025.636217
 20
190.125239
 11
6024.196217
 21
189.895239
  0
LINE
  8
0
  6
CONTINUOUS
 62
     2
 10
6024.196217
 20
189.895239
 11
6022.866217
 21
189.265239
  0
LINE
  8
0
  6
CONTINUOUS
 62
     2
 10
6022.866217
 20
189.265239
 11
6021.776217
 21
188.295239
  0
LINE
  8
0
  6
CONTINUOUS
 62
     2
 10
6021.776217
 20
188.295239
 11
6021.016217
 21
187.025239
  0
LINE
  8
0
  6
CONTINUOUS
 62
     2
 10
6021.016217
 20
187.025239
 11
6014.796217
 21
172.015239
  0
LINE
  8
0
  6
CONTINUOUS
 62
     2
 10
6014.796217
 20
172.015239
 11
6014.796217
 21
168.075239
  0
LINE
  8
0
  6
CONTINUOUS
 62
     2
 10
6014.796217
 20
168.075239
 11
6008.316217
 21
152.405239
  0
LINE
  8
0
  6
CONTINUOUS
 62
     2
 10
6008.316217
 20
152.405239
 11
6005.906217
 21
149.485239
  0
LINE
  8
0
  6
CONTINUOUS
 62
     2
 10
6005.906217
 20
149.485239
 11
6002.296217
 21
148.395239
  0
LINE
  8
0
  6
CONTINUOUS
 62
     2
 10
6002.296217
 20
148.395239
 11
5998.686217
 21
149.485239
  0
LINE
  8
0
  6
CONTINUOUS
 62
     2
 10
5998.686217
 20
149.485239
 11
5996.306217
 21
152.405239
  0
LINE
  8
0
  6
CONTINUOUS
 62
     2
 10
5996.306217
 20
152.405239
 11
5989.796217
 21
168.075239
  0
LINE
  8
0
  6
CONTINUOUS
 62
     2
 10
5989.796217
 20
168.075239
 11
5989.796217
 21
172.015239
  0
LINE
  8
0
  6
CONTINUOUS
 62
     2
 10
5989.796217
 20
172.015239
 11
5983.576217
 21
187.025239
  0
LINE
  8
0
  6
CONTINUOUS
 62
     2
 10
5983.576217
 20
187.025239
 11
5982.816217
 21
188.295239
  0
LINE
  8
0
  6
CONTINUOUS
 62
     2
 10
5982.816217
 20
188.295239
 11
5981.746217
 21
189.265239
  0
LINE
  8
0
  6
CONTINUOUS
 62
     2
 10
5981.746217
 20
189.265239
 11
5980.396217
 21
189.895239
  0
LINE
  8
0
  6
CONTINUOUS
 62
     2
 10
5980.396217
 20
189.895239
 11
5978.956217
 21
190.125239
  0
LINE
  8
0
  6
CONTINUOUS
 62
     2
 10
5978.956217
 20
190.125239
 11
5962.286217
 21
190.125239
  0
LINE
  8
0
  6
CONTINUOUS
 62
     2
 10
5962.286217
 20
190.125239
 11
5962.286217
 21
130.105239
  0
LINE
  8
0
  6
CONTINUOUS
 62
     2
 10
5962.286217
 20
130.105239
 11
5972.296217
 21
130.105239
  0
LINE
  8
0
  6
CONTINUOUS
 62
     2
 10
5972.296217
 20
130.105239
 11
5972.296217
 21
110.125239
  0
LINE
  8
0
  6
CONTINUOUS
 62
     2
 10
6337.048964
 20
115.522367
 11
6351.048964
 21
115.522367
  0
LINE
  8
0
  6
CONTINUOUS
 62
     2
 10
6351.048964
 20
115.522367
 11
6351.048964
 21
130.522367
  0
LINE
  8
0
  6
CONTINUOUS
 62
     2
 10
6351.048964
 20
130.522367
 11
6352.048964
 21
130.522367
  0
LINE
  8
0
  6
CONTINUOUS
 62
     2
 10
6352.048964
 20
130.522367
 11
6352.048964
 21
175.521367
  0
LINE
  8
0
  6
CONTINUOUS
 62
     2
 10
6352.048964
 20
175.521367
 11
6350.048964
 21
175.521367
  0
LINE
  8
0
  6
CONTINUOUS
 62
     2
 10
6350.048964
 20
175.521367
 11
6344.048964
 21
169.087367
  0
LINE
  8
0
  6
CONTINUOUS
 62
     2
 10
6344.048964
 20
169.087367
 11
6338.048964
 21
175.521367
  0
LINE
  8
0
  6
CONTINUOUS
 62
     2
 10
6338.048964
 20
175.521367
 11
6336.048964
 21
175.521367
  0
LINE
  8
0
  6
CONTINUOUS
 62
     2
 10
6336.048964
 20
175.521367
 11
6336.048964
 21
130.522367
  0
LINE
  8
0
  6
CONTINUOUS
 62
     2
 10
6336.048964
 20
130.522367
 11
6337.048964
 21
130.522367
  0
LINE
  8
0
  6
CONTINUOUS
 62
     2
 10
6337.048964
 20
130.522367
 11
6337.048964
 21
115.522367
  0
LINE
  8
0
  6
CONTINUOUS
 62
     2
 10
6455.048964
 20
115.521367
 11
6469.048964
 21
115.521367
  0
LINE
  8
0
  6
CONTINUOUS
 62
     2
 10
6469.048964
 20
115.521367
 11
6469.048964
 21
130.521367
  0
LINE
  8
0
  6
CONTINUOUS
 62
     2
 10
6469.048964
 20
130.521367
 11
6472.048964
 21
130.521367
  0
LINE
  8
0
  6
CONTINUOUS
 62
     2
 10
6472.048964
 20
130.521367
 11
6472.048964
 21
175.521367
  0
LINE
  8
0
  6
CONTINUOUS
 62
     2
 10
6472.048964
 20
175.521367
 11
6470.048964
 21
175.521367
  0
LINE
  8
0
  6
CONTINUOUS
 62
     2
 10
6470.048964
 20
175.521367
 11
6462.048964
 21
166.942367
  0
LINE
  8
0
  6
CONTINUOUS
 62
     2
 10
6462.048964
 20
166.942367
 11
6454.048964
 21
175.521367
  0
LINE
  8
0
  6
CONTINUOUS
 62
     2
 10
6454.048964
 20
175.521367
 11
6452.048964
 21
175.521367
  0
LINE
  8
0
  6
CONTINUOUS
 62
     2
 10
6452.048964
 20
175.521367
 11
6452.048964
 21
130.521367
  0
LINE
  8
0
  6
CONTINUOUS
 62
     2
 10
6452.048964
 20
130.521367
 11
6455.048964
 21
130.521367
  0
LINE
  8
0
  6
CONTINUOUS
 62
     2
 10
6455.048964
 20
130.521367
 11
6455.048964
 21
115.521367
  0
LINE
  8
0
  6
CONTINUOUS
 62
     2
 10
6577.248964
 20
115.521367
 11
6591.248964
 21
115.521367
  0
LINE
  8
0
  6
CONTINUOUS
 62
     2
 10
6591.248964
 20
115.521367
 11
6591.248964
 21
130.521367
  0
LINE
  8
0
  6
CONTINUOUS
 62
     2
 10
6591.248964
 20
130.521367
 11
6596.448964
 21
130.521367
  0
LINE
  8
0
  6
CONTINUOUS
 62
     2
 10
6596.448964
 20
130.521367
 11
6596.448964
 21
175.521367
  0
LINE
  8
0
  6
CONTINUOUS
 62
     2
 10
6596.448964
 20
175.521367
 11
6594.248964
 21
175.521367
  0
LINE
  8
0
  6
CONTINUOUS
 62
     2
 10
6594.248964
 20
175.521367
 11
6584.248964
 21
164.797367
  0
LINE
  8
0
  6
CONTINUOUS
 62
     2
 10
6584.248964
 20
164.797367
 11
6574.248964
 21
175.521367
  0
LINE
  8
0
  6
CONTINUOUS
 62
     2
 10
6574.248964
 20
175.521367
 11
6572.048964
 21
175.521367
  0
LINE
  8
0
  6
CONTINUOUS
 62
     2
 10
6572.048964
 20
175.521367
 11
6572.048964
 21
130.521367
  0
LINE
  8
0
  6
CONTINUOUS
 62
     2
 10
6572.048964
 20
130.521367
 11
6577.248964
 21
130.521367
  0
LINE
  8
0
  6
CONTINUOUS
 62
     2
 10
6577.248964
 20
130.521367
 11
6577.248964
 21
115.521367
  0
LINE
  8
0
  6
CONTINUOUS
 62
     2
 10
6704.198964
 20
115.521367
 11
6718.198964
 21
115.521367
  0
LINE
  8
0
  6
CONTINUOUS
 62
     2
 10
6718.198964
 20
115.521367
 11
6718.198964
 21
130.521367
  0
LINE
  8
0
  6
CONTINUOUS
 62
     2
 10
6718.198964
 20
130.521367
 11
6725.948964
 21
130.521367
  0
LINE
  8
0
  6
CONTINUOUS
 62
     2
 10
6725.948964
 20
130.521367
 11
6725.948964
 21
175.521367
  0
LINE
  8
0
  6
CONTINUOUS
 62
     2
 10
6725.948964
 20
175.521367
 11
6723.698964
 21
175.521367
  0
LINE
  8
0
  6
CONTINUOUS
 62
     2
 10
6723.698964
 20
175.521367
 11
6711.198964
 21
162.116367
  0
LINE
  8
0
  6
CONTINUOUS
 62
     2
 10
6711.198964
 20
162.116367
 11
6698.698964
 21
175.521367
  0
LINE
  8
0
  6
CONTINUOUS
 62
     2
 10
6698.698964
 20
175.521367
 11
6696.448964
 21
175.521367
  0
LINE
  8
0
  6
CONTINUOUS
 62
     2
 10
6696.448964
 20
175.521367
 11
6696.448964
 21
130.521367
  0
LINE
  8
0
  6
CONTINUOUS
 62
     2
 10
6696.448964
 20
130.521367
 11
6704.198964
 21
130.521367
  0
LINE
  8
0
  6
CONTINUOUS
 62
     2
 10
6704.198964
 20
130.521367
 11
6704.198964
 21
115.521367
  0
LINE
  8
0
  6
CONTINUOUS
 62
     2
 10
7898.622261
 20
87.867804
 11
7958.622261
 21
87.867804
  0
LINE
  8
0
  6
CONTINUOUS
 62
     2
 10
7958.622261
 20
87.867804
 11
7958.622261
 21
107.867804
  0
LINE
  8
0
  6
CONTINUOUS
 62
     2
 10
7958.622261
 20
107.867804
 11
7965.622261
 21
107.867804
  0
LINE
  8
0
  6
CONTINUOUS
 62
     2
 10
7965.622261
 20
107.867804
 11
7975.622261
 21
124.867804
  0
LINE
  8
0
  6
CONTINUOUS
 62
     2
 10
7975.622261
 20
124.867804
 11
7975.622261
 21
140.867804
  0
LINE
  8
0
  6
CONTINUOUS
 62
     2
 10
7975.622261
 20
140.867804
 11
7965.622261
 21
157.867804
  0
LINE
  8
0
  6
CONTINUOUS
 62
     2
 10
7965.622261
 20
157.867804
 11
7958.622261
 21
157.867804
  0
LINE
  8
0
  6
CONTINUOUS
 62
     2
 10
7958.622261
 20
157.867804
 11
7958.622261
 21
142.867804
  0
LINE
  8
0
  6
CONTINUOUS
 62
     2
 10
7958.622261
 20
142.867804
 11
7898.622261
 21
142.867804
  0
LINE
  8
0
  6
CONTINUOUS
 62
     2
 10
7898.622261
 20
142.867804
 11
7898.622261
 21
157.867804
  0
LINE
  8
0
  6
CONTINUOUS
 62
     2
 10
7898.622261
 20
157.867804
 11
7891.622261
 21
157.867804
  0
LINE
  8
0
  6
CONTINUOUS
 62
     2
 10
7891.622261
 20
157.867804
 11
7881.622261
 21
140.867804
  0
LINE
  8
0
  6
CONTINUOUS
 62
     2
 10
7881.622261
 20
140.867804
 11
7881.622261
 21
124.867804
  0
LINE
  8
0
  6
CONTINUOUS
 62
     2
 10
7881.622261
 20
124.867804
 11
7891.622261
 21
107.867804
  0
LINE
  8
0
  6
CONTINUOUS
 62
     2
 10
7891.622261
 20
107.867804
 11
7898.622261
 21
107.867804
  0
LINE
  8
0
  6
CONTINUOUS
 62
     2
 10
7898.622261
 20
107.867804
 11
7898.622261
 21
87.867804
  0
LINE
  8
0
  6
CONTINUOUS
 62
     2
 10
8075.622261
 20
142.867804
 11
8207.122261
 21
142.867804
  0
LINE
  8
0
  6
CONTINUOUS
 62
     2
 10
8207.122261
 20
142.867804
 11
8207.122261
 21
157.867804
  0
LINE
  8
0
  6
CONTINUOUS
 62
     2
 10
8207.122261
 20
157.867804
 11
8075.622261
 21
157.867804
  0
LINE
  8
0
  6
CONTINUOUS
 62
     2
 10
8075.622261
 20
157.867804
 11
8075.622261
 21
142.867804
  0
LINE
  8
0
  6
CONTINUOUS
 62
     2
 10
7509.727527
 20
171.420572
 11
7559.727527
 21
171.420572
  0
LINE
  8
0
  6
CONTINUOUS
 62
     2
 10
7559.727527
 20
171.420572
 11
7559.727527
 21
181.420572
  0
LINE
  8
0
  6
CONTINUOUS
 62
     2
 10
7559.727527
 20
181.420572
 11
7542.227527
 21
181.420572
  0
LINE
  8
0
  6
CONTINUOUS
 62
     2
 10
7542.227527
 20
181.420572
 11
7542.227527
 21
186.420572
  0
LINE
  8
0
  6
CONTINUOUS
 62
     2
 10
7542.227527
 20
186.420572
 11
7527.227527
 21
186.420572
  0
LINE
  8
0
  6
CONTINUOUS
 62
     2
 10
7527.227527
 20
186.420572
 11
7527.227527
 21
181.420572
  0
LINE
  8
0
  6
CONTINUOUS
 62
     2
 10
7527.227527
 20
181.420572
 11
7509.727527
 21
181.420572
  0
LINE
  8
0
  6
CONTINUOUS
 62
     2
 10
7509.727527
 20
181.420572
 11
7509.727527
 21
171.420572
  0
LINE
  8
0
  6
CONTINUOUS
 62
     2
 10
6996.215021
 20
129.617020
 11
7056.215021
 21
129.617020
  0
LINE
  8
0
  6
CONTINUOUS
 62
     2
 10
7056.215021
 20
129.617020
 11
7056.215021
 21
149.617020
  0
LINE
  8
0
  6
CONTINUOUS
 62
     2
 10
7056.215021
 20
149.617020
 11
7038.715021
 21
149.617020
  0
LINE
  8
0
  6
CONTINUOUS
 62
     2
 10
7038.715021
 20
149.617020
 11
7038.715021
 21
191.117020
  0
LINE
  8
0
  6
CONTINUOUS
 62
     2
 10
7038.715021
 20
191.117020
 11
7033.215021
 21
191.117020
  0
LINE
  8
0
  6
CONTINUOUS
 62
     2
 10
7033.215021
 20
191.117020
 11
7033.215021
 21
181.117020
  0
LINE
  8
0
  6
CONTINUOUS
 62
     2
 10
7033.215021
 20
181.117020
 11
7019.215021
 21
181.117020
  0
LINE
  8
0
  6
CONTINUOUS
 62
     2
 10
7019.215021
 20
181.117020
 11
7019.215021
 21
191.117020
  0
LINE
  8
0
  6
CONTINUOUS
 62
     2
 10
7019.215021
 20
191.117020
 11
7013.715021
 21
191.117020
  0
LINE
  8
0
  6
CONTINUOUS
 62
     2
 10
7013.715021
 20
191.117020
 11
7013.715021
 21
149.617020
  0
LINE
  8
0
  6
CONTINUOUS
 62
     2
 10
7013.715021
 20
149.617020
 11
6996.215021
 21
149.617020
  0
LINE
  8
0
  6
CONTINUOUS
 62
     2
 10
6996.215021
 20
149.617020
 11
6996.215021
 21
129.617020
  0
TEXT
  8
0
 62
     1
 10
3798.696926
 20
285.993002
 40
30.000000
  1
01360
 41
0.800000
  7
GOTHIC
 11
3798.696926
 21
315.993002
 73
     3
  0
TEXT
  8
0
 62
     1
 10
4053.800822
 20
288.297789
 40
30.000000
  1
01400
 41
0.800000
  7
GOTHIC
 11
4053.800822
 21
318.297789
 73
     3
  0
TEXT
  8
0
 62
     1
 10
4291.848385
 20
284.155521
 40
30.000000
  1
01860
 41
0.800000
  7
GOTHIC
 11
4291.848385
 21
314.155521
 73
     3
  0
TEXT
  8
0
 62
     1
 10
4771.084514
 20
281.612999
 40
30.000000
  1
03500
 41
0.800000
  7
GOTHIC
 11
4771.084514
 21
311.612999
 73
     3
  0
TEXT
  8
0
 62
     1
 10
4919.760970
 20
281.069032
 40
30.000000
  1
03600
 41
0.800000
  7
GOTHIC
 11
4919.760970
 21
311.069032
 73
     3
  0
TEXT
  8
0
 62
     1
 10
5084.527816
 20
283.434106
 40
30.000000
  1
03700
 41
0.800000
  7
GOTHIC
 11
5084.527816
 21
313.434106
 73
     3
  0
TEXT
  8
0
 62
     1
 10
5235.892574
 20
283.434106
 40
30.000000
  1
03800
 41
0.800000
  7
GOTHIC
 11
5235.892574
 21
313.434106
 73
     3
  0
TEXT
  8
0
 62
     1
 10
5472.400008
 20
267.666944
 40
30.000000
  1
03900
 41
0.800000
  7
GOTHIC
 11
5472.400008
 21
297.666944
 73
     3
  0
TEXT
  8
0
 62
     1
 10
7124.565182
 20
246.412674
 40
30.000000
  1
08150
 41
0.800000
  7
GOTHIC
 11
7124.565182
 21
276.412674
 73
     3
  0
TEXT
  8
0
 62
     1
 10
7605.154529
 20
256.308204
 40
30.000000
  1
3009
 41
0.800000
  7
GOTHIC
 11
7605.154529
 21
286.308204
 73
     3
  0
TEXT
  8
0
 62
     1
 10
5680.691855
 20
264.172291
 40
30.000000
  1
30540
 41
0.800000
  7
GOTHIC
 11
5680.691855
 21
294.172291
 73
     3
  0
TEXT
  8
0
 62
     1
 10
5842.147596
 20
256.604053
 40
30.000000
  1
30640
 41
0.800000
  7
GOTHIC
 11
5842.147596
 21
286.604053
 73
     3
  0
TEXT
  8
0
 62
     1
 10
7236.996149
 20
248.931742
 40
30.000000
  1
33075
 41
0.800000
  7
GOTHIC
 11
7236.996149
 21
278.931742
 73
     3
  0
TEXT
  8
0
 62
     1
 10
5975.144793
 20
271.448442
 40
30.000000
  1
34300
 41
0.800000
  7
GOTHIC
 11
5975.144793
 21
301.448442
 73
     3
  0
TEXT
  8
0
 62
     1
 10
6131.666533
 20
241.828643
 40
30.000000
  1
971561
 41
0.800000
  7
GOTHIC
 11
6131.666533
 21
271.828643
 73
     3
  0
TEXT
  8
0
 62
     1
 10
6313.458437
 20
238.195889
 40
30.000000
  1
974061
 41
0.800000
  7
GOTHIC
 11
6313.458437
 21
268.195889
 73
     3
  0
TEXT
  8
0
 62
     1
 10
6434.550243
 20
241.425004
 40
30.000000
  1
977061
 41
0.800000
  7
GOTHIC
 11
6434.550243
 21
271.425004
 73
     3
  0
TEXT
  8
0
 62
     1
 10
6549.587459
 20
243.039561
 40
30.000000
  1
979061
 41
0.800000
  7
GOTHIC
 11
6549.587459
 21
273.039561
 73
     3
  0
TEXT
  8
0
 62
     1
 10
6679.666548
 20
242.251203
 40
30.000000
  1
982061
 41
0.800000
  7
GOTHIC
 11
6679.666548
 21
272.251203
 73
     3
  0
TEXT
  8
0
 62
     1
 10
7900.589708
 20
230.379212
 40
30.000000
  1
05500
 41
0.800000
  7
GOTHIC
 11
7900.589708
 21
260.379212
 73
     3
  0
TEXT
  8
0
 62
     1
 10
8123.464937
 20
222.868331
 40
30.000000
  1
825
 41
0.800000
  7
GOTHIC
 11
8123.464937
 21
252.868331
 73
     3
  0
TEXT
  8
0
 62
     1
 10
7498.112798
 20
251.326643
 40
30.000000
  1
30000
 41
0.800000
  7
GOTHIC
 11
7498.112798
 21
281.326643
 73
     3
  0
TEXT
  8
0
 62
     1
 10
7009.156468
 20
249.981975
 40
30.000000
  1
08100
 41
0.800000
  7
GOTHIC
 11
7009.156468
 21
279.981975
 73
     3
  0
LINE
  8
0
  6
CONTINUOUS
 62
   134
 10
3742.839748
 20
103.728003
 11
3743.745615
 21
100.347263
  0
LINE
  8
0
  6
CONTINUOUS
 62
   134
 10
3743.745615
 20
100.347263
 11
3744.651481
 21
103.728003
  0
LINE
  8
0
  6
CONTINUOUS
 62
   134
 10
3744.651481
 20
191.956523
 11
3743.745615
 21
195.337263
  0
LINE
  8
0
  6
CONTINUOUS
 62
   134
 10
3743.745615
 20
195.337263
 11
3742.839748
 21
191.956523
  0
LINE
  8
0
  6
CONTINUOUS
 62
   134
 10
3743.745615
 20
100.347263
 11
3743.745615
 21
195.337263
  0
TEXT
  8
0
 62
   134
 10
3741.745615
 20
139.842263
 40
20.000000
  1
95
 50
90.000000
 41
0.800000
  7
GOTHIC
 72
     1
 11
3741.745615
 21
147.842263
  0
LINE
  8
0
  6
CONTINUOUS
 62
   134
 10
3788.730931
 20
100.347263
 11
3738.745615
 21
100.347263
  0
LINE
  8
0
  6
CONTINUOUS
 62
   134
 10
3771.230931
 20
195.337263
 11
3738.745615
 21
195.337263
  0
LINE
  8
0
  6
CONTINUOUS
 62
   134
 10
3867.850190
 20
233.847813
 11
3871.230931
 21
234.753680
  0
LINE
  8
0
  6
CONTINUOUS
 62
   134
 10
3871.230931
 20
234.753680
 11
3867.850190
 21
235.659547
  0
LINE
  8
0
  6
CONTINUOUS
 62
   134
 10
3779.611671
 20
235.659547
 11
3776.230931
 21
234.753680
  0
LINE
  8
0
  6
CONTINUOUS
 62
   134
 10
3776.230931
 20
234.753680
 11
3779.611671
 21
233.847813
  0
LINE
  8
0
  6
CONTINUOUS
 62
   134
 10
3871.230931
 20
234.753680
 11
3776.230931
 21
234.753680
  0
TEXT
  8
0
 62
   134
 10
3815.730931
 20
236.753680
 40
20.000000
  1
95
 41
0.800000
  7
GOTHIC
 72
     1
 11
3823.730931
 21
236.753680
  0
LINE
  8
0
  6
CONTINUOUS
 62
   134
 10
3871.230931
 20
200.337263
 11
3871.230931
 21
239.753680
  0
LINE
  8
0
  6
CONTINUOUS
 62
   134
 10
3776.230931
 20
200.337263
 11
3776.230931
 21
239.753680
  0
LINE
  8
0
  6
CONTINUOUS
 62
   134
 10
3925.237746
 20
58.718003
 11
3926.143613
 21
55.337263
  0
LINE
  8
0
  6
CONTINUOUS
 62
   134
 10
3926.143613
 20
55.337263
 11
3927.049480
 21
58.718003
  0
LINE
  8
0
  6
CONTINUOUS
 62
   134
 10
3927.049480
 20
191.956523
 11
3926.143613
 21
195.337263
  0
LINE
  8
0
  6
CONTINUOUS
 62
   134
 10
3926.143613
 20
195.337263
 11
3925.237746
 21
191.956523
  0
LINE
  8
0
  6
CONTINUOUS
 62
   134
 10
3926.143613
 20
55.337263
 11
3926.143613
 21
195.337263
  0
TEXT
  8
0
 62
   134
 10
3924.143613
 20
113.337263
 40
20.000000
  1
140
 50
90.000000
 41
0.800000
  7
GOTHIC
 72
     1
 11
3924.143613
 21
125.337263
  0
LINE
  8
0
  6
CONTINUOUS
 62
   134
 10
3998.730931
 20
55.337263
 11
3921.143613
 21
55.337263
  0
LINE
  8
0
  6
CONTINUOUS
 62
   134
 10
3966.230931
 20
195.337263
 11
3921.143613
 21
195.337263
  0
LINE
  8
0
  6
CONTINUOUS
 62
   134
 10
4152.850190
 20
235.938812
 11
4156.230931
 21
236.844679
  0
LINE
  8
0
  6
CONTINUOUS
 62
   134
 10
4156.230931
 20
236.844679
 11
4152.850190
 21
237.750545
  0
LINE
  8
0
  6
CONTINUOUS
 62
   134
 10
3974.611671
 20
237.750545
 11
3971.230931
 21
236.844679
  0
LINE
  8
0
  6
CONTINUOUS
 62
   134
 10
3971.230931
 20
236.844679
 11
3974.611671
 21
235.938812
  0
LINE
  8
0
  6
CONTINUOUS
 62
   134
 10
4156.230931
 20
236.844679
 11
3971.230931
 21
236.844679
  0
TEXT
  8
0
 62
   134
 10
4051.730931
 20
238.844679
 40
20.000000
  1
185
 41
0.800000
  7
GOTHIC
 72
     1
 11
4063.730931
 21
238.844679
  0
LINE
  8
0
  6
CONTINUOUS
 62
   134
 10
4156.230931
 20
200.337263
 11
4156.230931
 21
241.844679
  0
LINE
  8
0
  6
CONTINUOUS
 62
   134
 10
3971.230931
 20
200.337263
 11
3971.230931
 21
241.844679
  0
LINE
  8
0
  6
CONTINUOUS
 62
   134
 10
4230.067696
 20
88.718003
 11
4230.973562
 21
85.337263
  0
LINE
  8
0
  6
CONTINUOUS
 62
   134
 10
4230.973562
 20
85.337263
 11
4231.879429
 21
88.718003
  0
LINE
  8
0
  6
CONTINUOUS
 62
   134
 10
4231.879429
 20
191.956523
 11
4230.973562
 21
195.337263
  0
LINE
  8
0
  6
CONTINUOUS
 62
   134
 10
4230.973562
 20
195.337263
 11
4230.067696
 21
191.956523
  0
LINE
  8
0
  6
CONTINUOUS
 62
   134
 10
4230.973562
 20
85.337263
 11
4230.973562
 21
195.337263
  0
TEXT
  8
0
 62
   134
 10
4228.973562
 20
128.337263
 40
20.000000
  1
110
 50
90.000000
 41
0.800000
  7
GOTHIC
 72
     1
 11
4228.973562
 21
140.337263
  0
LINE
  8
0
  6
CONTINUOUS
 62
   134
 10
4281.220931
 20
85.337263
 11
4225.973562
 21
85.337263
  0
LINE
  8
0
  6
CONTINUOUS
 62
   134
 10
4251.230931
 20
195.337263
 11
4225.973562
 21
195.337263
  0
LINE
  8
0
  6
CONTINUOUS
 62
   134
 10
4372.830190
 20
246.877349
 11
4376.210931
 21
247.783216
  0
LINE
  8
0
  6
CONTINUOUS
 62
   134
 10
4376.210931
 20
247.783216
 11
4372.830190
 21
248.689083
  0
LINE
  8
0
  6
CONTINUOUS
 62
   134
 10
4259.611671
 20
248.689083
 11
4256.230931
 21
247.783216
  0
LINE
  8
0
  6
CONTINUOUS
 62
   134
 10
4256.230931
 20
247.783216
 11
4259.611671
 21
246.877349
  0
LINE
  8
0
  6
CONTINUOUS
 62
   134
 10
4376.210931
 20
247.783216
 11
4256.230931
 21
247.783216
  0
TEXT
  8
0
 62
   134
 10
4304.220931
 20
249.783216
 40
20.000000
  1
120
 41
0.800000
  7
GOTHIC
 72
     1
 11
4316.220931
 21
249.783216
  0
LINE
  8
0
  6
CONTINUOUS
 62
   134
 10
4376.210931
 20
200.337263
 11
4376.210931
 21
252.783216
  0
LINE
  8
0
  6
CONTINUOUS
 62
   134
 10
4256.230931
 20
200.337263
 11
4256.230931
 21
252.783216
  0
LINE
  8
0
  6
CONTINUOUS
 62
   134
 10
4714.052798
 20
149.814289
 11
4714.958665
 21
146.433549
  0
LINE
  8
0
  6
CONTINUOUS
 62
   134
 10
4714.958665
 20
146.433549
 11
4715.864531
 21
149.814289
  0
LINE
  8
0
  6
CONTINUOUS
 62
   134
 10
4715.864531
 20
203.042808
 11
4714.958665
 21
206.423549
  0
LINE
  8
0
  6
CONTINUOUS
 62
   134
 10
4714.958665
 20
206.423549
 11
4714.052798
 21
203.042808
  0
LINE
  8
0
  6
CONTINUOUS
 62
   134
 10
4714.958665
 20
146.433549
 11
4714.958665
 21
206.423549
  0
TEXT
  8
0
 62
   134
 10
4712.958665
 20
168.428549
 40
20.000000
  1
60
 50
90.000000
 41
0.800000
  7
GOTHIC
 72
     1
 11
4712.958665
 21
176.428549
  0
LINE
  8
0
  6
CONTINUOUS
 62
   134
 10
4752.063509
 20
146.433549
 11
4709.958665
 21
146.433549
  0
LINE
  8
0
  6
CONTINUOUS
 62
   134
 10
4752.063509
 20
206.423549
 11
4709.958665
 21
206.423549
  0
LINE
  8
0
  6
CONTINUOUS
 62
   134
 10
4813.682768
 20
248.817383
 11
4817.063509
 21
249.723249
  0
LINE
  8
0
  6
CONTINUOUS
 62
   134
 10
4817.063509
 20
249.723249
 11
4813.682768
 21
250.629116
  0
LINE
  8
0
  6
CONTINUOUS
 62
   134
 10
4760.444249
 20
250.629116
 11
4757.063509
 21
249.723249
  0
LINE
  8
0
  6
CONTINUOUS
 62
   134
 10
4757.063509
 20
249.723249
 11
4760.444249
 21
248.817383
  0
LINE
  8
0
  6
CONTINUOUS
 62
   134
 10
4817.063509
 20
249.723249
 11
4757.063509
 21
249.723249
  0
TEXT
  8
0
 62
   134
 10
4779.063509
 20
251.723249
 40
20.000000
  1
60
 41
0.800000
  7
GOTHIC
 72
     1
 11
4787.063509
 21
251.723249
  0
LINE
  8
0
  6
CONTINUOUS
 62
   134
 10
4817.063509
 20
211.423549
 11
4817.063509
 21
254.723249
  0
LINE
  8
0
  6
CONTINUOUS
 62
   134
 10
4757.063509
 20
211.423549
 11
4757.063509
 21
254.723249
  0
LINE
  8
0
  6
CONTINUOUS
 62
   134
 10
4920.444249
 20
240.950779
 11
4917.063509
 21
240.044912
  0
LINE
  8
0
  6
CONTINUOUS
 62
   134
 10
4917.063509
 20
240.044912
 11
4920.444249
 21
239.139046
  0
LINE
  8
0
  6
CONTINUOUS
 62
   134
 10
4973.672768
 20
239.139046
 11
4977.053509
 21
240.044912
  0
LINE
  8
0
  6
CONTINUOUS
 62
   134
 10
4977.053509
 20
240.044912
 11
4973.672768
 21
240.950779
  0
LINE
  8
0
  6
CONTINUOUS
 62
   134
 10
4917.063509
 20
240.044912
 11
4977.053509
 21
240.044912
  0
TEXT
  8
0
 62
   134
 10
4939.058509
 20
242.044912
 40
20.000000
  1
60
 41
0.800000
  7
GOTHIC
 72
     1
 11
4947.058509
 21
242.044912
  0
LINE
  8
0
  6
CONTINUOUS
 62
   134
 10
4917.063509
 20
211.423549
 11
4917.063509
 21
245.044912
  0
LINE
  8
0
  6
CONTINUOUS
 62
   134
 10
4977.053509
 20
211.423549
 11
4977.053509
 21
245.044912
  0
LINE
  8
0
  6
CONTINUOUS
 62
   134
 10
4996.147642
 20
149.804289
 11
4997.053509
 21
146.423549
  0
LINE
  8
0
  6
CONTINUOUS
 62
   134
 10
4997.053509
 20
146.423549
 11
4997.959375
 21
149.804289
  0
LINE
  8
0
  6
CONTINUOUS
 62
   134
 10
4997.959375
 20
203.042808
 11
4997.053509
 21
206.423549
  0
LINE
  8
0
  6
CONTINUOUS
 62
   134
 10
4997.053509
 20
206.423549
 11
4996.147642
 21
203.042808
  0
LINE
  8
0
  6
CONTINUOUS
 62
   134
 10
4997.053509
 20
146.423549
 11
4997.053509
 21
206.423549
  0
TEXT
  8
0
 62
   134
 10
4995.053509
 20
168.423549
 40
20.000000
  1
60
 50
90.000000
 41
0.800000
  7
GOTHIC
 72
     1
 11
4995.053509
 21
176.423549
  0
LINE
  8
0
  6
CONTINUOUS
 62
   134
 10
4982.053509
 20
146.423549
 11
5002.053509
 21
146.423549
  0
LINE
  8
0
  6
CONTINUOUS
 62
   134
 10
4982.053509
 20
206.423549
 11
5002.053509
 21
206.423549
  0
LINE
  8
0
  6
CONTINUOUS
 62
   134
 10
5056.147642
 20
149.814289
 11
5057.053509
 21
146.433549
  0
LINE
  8
0
  6
CONTINUOUS
 62
   134
 10
5057.053509
 20
146.433549
 11
5057.959375
 21
149.814289
  0
LINE
  8
0
  6
CONTINUOUS
 62
   134
 10
5057.959375
 20
203.042808
 11
5057.053509
 21
206.423549
  0
LINE
  8
0
  6
CONTINUOUS
 62
   134
 10
5057.053509
 20
206.423549
 11
5056.147642
 21
203.042808
  0
LINE
  8
0
  6
CONTINUOUS
 62
   134
 10
5057.053509
 20
146.433549
 11
5057.053509
 21
206.423549
  0
TEXT
  8
0
 62
   134
 10
5055.053509
 20
168.428549
 40
20.000000
  1
60
 50
90.000000
 41
0.800000
  7
GOTHIC
 72
     1
 11
5055.053509
 21
176.428549
  0
LINE
  8
0
  6
CONTINUOUS
 62
   134
 10
5072.053509
 20
146.433549
 11
5052.053509
 21
146.433549
  0
LINE
  8
0
  6
CONTINUOUS
 62
   134
 10
5072.053509
 20
206.423549
 11
5052.053509
 21
206.423549
  0
LINE
  8
0
  6
CONTINUOUS
 62
   134
 10
5133.672768
 20
244.329502
 11
5137.053509
 21
245.235369
  0
LINE
  8
0
  6
CONTINUOUS
 62
   134
 10
5137.053509
 20
245.235369
 11
5133.672768
 21
246.141235
  0
LINE
  8
0
  6
CONTINUOUS
 62
   134
 10
5080.434249
 20
246.141235
 11
5077.053509
 21
245.235369
  0
LINE
  8
0
  6
CONTINUOUS
 62
   134
 10
5077.053509
 20
245.235369
 11
5080.434249
 21
244.329502
  0
LINE
  8
0
  6
CONTINUOUS
 62
   134
 10
5137.053509
 20
245.235369
 11
5077.053509
 21
245.235369
  0
TEXT
  8
0
 62
   134
 10
5099.053509
 20
247.235369
 40
20.000000
  1
60
 41
0.800000
  7
GOTHIC
 72
     1
 11
5107.053509
 21
247.235369
  0
LINE
  8
0
  6
CONTINUOUS
 62
   134
 10
5137.053509
 20
211.423549
 11
5137.053509
 21
250.235369
  0
LINE
  8
0
  6
CONTINUOUS
 62
   134
 10
5077.053509
 20
211.423549
 11
5077.053509
 21
250.235369
  0
LINE
  8
0
  6
CONTINUOUS
 62
   134
 10
5216.147642
 20
134.804289
 11
5217.053509
 21
131.423549
  0
LINE
  8
0
  6
CONTINUOUS
 62
   134
 10
5217.053509
 20
131.423549
 11
5217.959375
 21
134.804289
  0
LINE
  8
0
  6
CONTINUOUS
 62
   134
 10
5217.959375
 20
203.042808
 11
5217.053509
 21
206.423549
  0
LINE
  8
0
  6
CONTINUOUS
 62
   134
 10
5217.053509
 20
206.423549
 11
5216.147642
 21
203.042808
  0
LINE
  8
0
  6
CONTINUOUS
 62
   134
 10
5217.053509
 20
131.423549
 11
5217.053509
 21
206.423549
  0
TEXT
  8
0
 62
   134
 10
5215.053509
 20
160.923549
 40
20.000000
  1
75
 50
90.000000
 41
0.800000
  7
GOTHIC
 72
     1
 11
5215.053509
 21
168.923549
  0
LINE
  8
0
  6
CONTINUOUS
 62
   134
 10
5242.063509
 20
131.423549
 11
5212.053509
 21
131.423549
  0
LINE
  8
0
  6
CONTINUOUS
 62
   134
 10
5232.053509
 20
206.423549
 11
5212.053509
 21
206.423549
  0
LINE
  8
0
  6
CONTINUOUS
 62
   134
 10
5313.692768
 20
245.146186
 11
5317.073509
 21
246.052053
  0
LINE
  8
0
  6
CONTINUOUS
 62
   134
 10
5317.073509
 20
246.052053
 11
5313.692768
 21
246.957920
  0
LINE
  8
0
  6
CONTINUOUS
 62
   134
 10
5240.434249
 20
246.957920
 11
5237.053509
 21
246.052053
  0
LINE
  8
0
  6
CONTINUOUS
 62
   134
 10
5237.053509
 20
246.052053
 11
5240.434249
 21
245.146186
  0
LINE
  8
0
  6
CONTINUOUS
 62
   134
 10
5317.073509
 20
246.052053
 11
5237.053509
 21
246.052053
  0
TEXT
  8
0
 62
   134
 10
5269.063509
 20
248.052053
 40
20.000000
  1
80
 41
0.800000
  7
GOTHIC
 72
     1
 11
5277.063509
 21
248.052053
  0
LINE
  8
0
  6
CONTINUOUS
 62
   134
 10
5317.073509
 20
211.423549
 11
5317.073509
 21
251.052053
  0
LINE
  8
0
  6
CONTINUOUS
 62
   134
 10
5237.053509
 20
211.423549
 11
5237.053509
 21
251.052053
  0
LINE
  8
0
  6
CONTINUOUS
 62
   134
 10
5396.167642
 20
86.804289
 11
5397.073509
 21
83.423549
  0
LINE
  8
0
  6
CONTINUOUS
 62
   134
 10
5397.073509
 20
83.423549
 11
5397.979375
 21
86.804289
  0
LINE
  8
0
  6
CONTINUOUS
 62
   134
 10
5397.979375
 20
203.042808
 11
5397.073509
 21
206.423549
  0
LINE
  8
0
  6
CONTINUOUS
 62
   134
 10
5397.073509
 20
206.423549
 11
5396.167642
 21
203.042808
  0
LINE
  8
0
  6
CONTINUOUS
 62
   134
 10
5397.073509
 20
83.423549
 11
5397.073509
 21
206.423549
  0
TEXT
  8
0
 62
   134
 10
5395.073509
 20
132.923549
 40
20.000000
  1
123
 50
90.000000
 41
0.800000
  7
GOTHIC
 72
     1
 11
5395.073509
 21
144.923549
  0
LINE
  8
0
  6
CONTINUOUS
 62
   134
 10
5444.073509
 20
83.423549
 11
5392.073509
 21
83.423549
  0
LINE
  8
0
  6
CONTINUOUS
 62
   134
 10
5412.073509
 20
206.423549
 11
5392.073509
 21
206.423549
  0
LINE
  8
0
  6
CONTINUOUS
 62
   134
 10
5567.692768
 20
241.098610
 11
5571.073509
 21
242.004477
  0
LINE
  8
0
  6
CONTINUOUS
 62
   134
 10
5571.073509
 20
242.004477
 11
5567.692768
 21
242.910343
  0
LINE
  8
0
  6
CONTINUOUS
 62
   134
 10
5420.454249
 20
242.910343
 11
5417.073509
 21
242.004477
  0
LINE
  8
0
  6
CONTINUOUS
 62
   134
 10
5417.073509
 20
242.004477
 11
5420.454249
 21
241.098610
  0
LINE
  8
0
  6
CONTINUOUS
 62
   134
 10
5571.073509
 20
242.004477
 11
5417.073509
 21
242.004477
  0
TEXT
  8
0
 62
   134
 10
5482.073509
 20
244.004477
 40
20.000000
  1
154
 41
0.800000
  7
GOTHIC
 72
     1
 11
5494.073509
 21
244.004477
  0
LINE
  8
0
  6
CONTINUOUS
 62
   134
 10
5571.073509
 20
211.423549
 11
5571.073509
 21
247.004477
  0
LINE
  8
0
  6
CONTINUOUS
 62
   134
 10
5417.073509
 20
211.423549
 11
5417.073509
 21
247.004477
  0
LINE
  8
0
  6
CONTINUOUS
 62
   134
 10
7115.659582
 20
212.954990
 11
7112.278842
 21
212.049124
  0
LINE
  8
0
  6
CONTINUOUS
 62
   134
 10
7112.278842
 20
212.049124
 11
7115.659582
 21
211.143257
  0
LINE
  8
0
  6
CONTINUOUS
 62
   134
 10
7168.898102
 20
211.143257
 11
7172.278842
 21
212.049124
  0
LINE
  8
0
  6
CONTINUOUS
 62
   134
 10
7172.278842
 20
212.049124
 11
7168.898102
 21
212.954990
  0
LINE
  8
0
  6
CONTINUOUS
 62
   134
 10
7112.278842
 20
212.049124
 11
7172.278842
 21
212.049124
  0
TEXT
  8
0
 62
   134
 10
7134.278842
 20
214.049124
 40
20.000000
  1
60
 41
0.800000
  7
GOTHIC
 72
     1
 11
7142.278842
 21
214.049124
  0
LINE
  8
0
  6
CONTINUOUS
 62
   134
 10
7112.278842
 20
150.549124
 11
7112.278842
 21
217.049124
  0
LINE
  8
0
  6
CONTINUOUS
 62
   134
 10
7172.278842
 20
150.549124
 11
7172.278842
 21
217.049124
  0
LINE
  8
0
  6
CONTINUOUS
 62
   134
 10
7203.974977
 20
133.929864
 11
7204.880843
 21
130.549124
  0
LINE
  8
0
  6
CONTINUOUS
 62
   134
 10
7204.880843
 20
130.549124
 11
7205.786710
 21
133.929864
  0
LINE
  8
0
  6
CONTINUOUS
 62
   134
 10
7205.786710
 20
188.668383
 11
7204.880843
 21
192.049124
  0
LINE
  8
0
  6
CONTINUOUS
 62
   134
 10
7204.880843
 20
192.049124
 11
7203.974977
 21
188.668383
  0
LINE
  8
0
  6
CONTINUOUS
 62
   134
 10
7204.880843
 20
130.549124
 11
7204.880843
 21
192.049124
  0
TEXT
  8
0
 62
   134
 10
7202.880843
 20
145.299124
 40
20.000000
  1
61.5
 50
90.000000
 41
0.800000
  7
GOTHIC
 72
     1
 11
7202.880843
 21
161.299124
  0
LINE
  8
0
  6
CONTINUOUS
 62
   134
 10
7177.278842
 20
130.549124
 11
7209.880843
 21
130.549124
  0
LINE
  8
0
  6
CONTINUOUS
 62
   134
 10
7159.778842
 20
192.049124
 11
7209.880843
 21
192.049124
  0
LINE
  8
0
  6
CONTINUOUS
 62
   134
 10
7611.747085
 20
167.667865
 11
7612.652951
 21
164.287124
  0
LINE
  8
0
  6
CONTINUOUS
 62
   134
 10
7612.652951
 20
164.287124
 11
7613.558818
 21
167.667865
  0
LINE
  8
0
  6
CONTINUOUS
 62
   134
 10
7613.558818
 20
175.906384
 11
7612.652951
 21
179.287124
  0
LINE
  8
0
  6
CONTINUOUS
 62
   134
 10
7612.652951
 20
179.287124
 11
7611.747085
 21
175.906384
  0
LINE
  8
0
  6
CONTINUOUS
 62
   134
 10
7612.652951
 20
164.287124
 11
7612.652951
 21
179.287124
  0
TEXT
  8
0
 62
   134
 10
7610.652951
 20
163.787124
 40
20.000000
  1
15
 50
90.000000
 41
0.800000
  7
GOTHIC
 72
     1
 11
7610.652951
 21
171.787124
  0
LINE
  8
0
  6
CONTINUOUS
 62
   134
 10
7627.652951
 20
164.287124
 11
7607.652951
 21
164.287124
  0
LINE
  8
0
  6
CONTINUOUS
 62
   134
 10
7632.152951
 20
179.287124
 11
7607.652951
 21
179.287124
  0
LINE
  8
0
  6
CONTINUOUS
 62
   134
 10
7649.272211
 20
198.381258
 11
7652.652951
 21
199.287124
  0
LINE
  8
0
  6
CONTINUOUS
 62
   134
 10
7652.652951
 20
199.287124
 11
7649.272211
 21
200.192991
  0
LINE
  8
0
  6
CONTINUOUS
 62
   134
 10
7636.033692
 20
200.192991
 11
7632.652951
 21
199.287124
  0
LINE
  8
0
  6
CONTINUOUS
 62
   134
 10
7632.652951
 20
199.287124
 11
7636.033692
 21
198.381258
  0
LINE
  8
0
  6
CONTINUOUS
 62
   134
 10
7652.652951
 20
199.287124
 11
7632.652951
 21
199.287124
  0
TEXT
  8
0
 62
   134
 10
7634.652951
 20
201.287124
 40
20.000000
  1
20
 41
0.800000
  7
GOTHIC
 72
     1
 11
7642.652951
 21
201.287124
  0
LINE
  8
0
  6
CONTINUOUS
 62
   134
 10
7652.652951
 20
179.287124
 11
7652.652951
 21
204.287124
  0
LINE
  8
0
  6
CONTINUOUS
 62
   134
 10
7632.652951
 20
179.287124
 11
7632.652951
 21
204.287124
  0
LINE
  8
0
  6
CONTINUOUS
 62
   134
 10
5651.007415
 20
129.028836
 11
5651.913282
 21
125.648096
  0
LINE
  8
0
  6
CONTINUOUS
 62
   134
 10
5651.913282
 20
125.648096
 11
5652.819149
 21
129.028836
  0
LINE
  8
0
  6
CONTINUOUS
 62
   134
 10
5652.819149
 20
168.267355
 11
5651.913282
 21
171.648096
  0
LINE
  8
0
  6
CONTINUOUS
 62
   134
 10
5651.913282
 20
171.648096
 11
5651.007415
 21
168.267355
  0
LINE
  8
0
  6
CONTINUOUS
 62
   134
 10
5651.913282
 20
125.648096
 11
5651.913282
 21
171.648096
  0
TEXT
  8
0
 62
   134
 10
5649.913282
 20
140.648096
 40
20.000000
  1
46
 50
90.000000
 41
0.800000
  7
GOTHIC
 72
     1
 11
5649.913282
 21
148.648096
  0
LINE
  8
0
  6
CONTINUOUS
 62
   134
 10
5675.898602
 20
125.648096
 11
5646.913282
 21
125.648096
  0
LINE
  8
0
  6
CONTINUOUS
 62
   134
 10
5675.898602
 20
171.648096
 11
5646.913282
 21
171.648096
  0
LINE
  8
0
  6
CONTINUOUS
 62
   134
 10
5727.517862
 20
201.256966
 11
5730.898602
 21
202.162832
  0
LINE
  8
0
  6
CONTINUOUS
 62
   134
 10
5730.898602
 20
202.162832
 11
5727.517862
 21
203.068699
  0
LINE
  8
0
  6
CONTINUOUS
 62
   134
 10
5684.279343
 20
203.068699
 11
5680.898602
 21
202.162832
  0
LINE
  8
0
  6
CONTINUOUS
 62
   134
 10
5680.898602
 20
202.162832
 11
5684.279343
 21
201.256966
  0
LINE
  8
0
  6
CONTINUOUS
 62
   134
 10
5730.898602
 20
202.162832
 11
5680.898602
 21
202.162832
  0
TEXT
  8
0
 62
   134
 10
5697.898602
 20
204.162832
 40
20.000000
  1
50
 41
0.800000
  7
GOTHIC
 72
     1
 11
5705.898602
 21
204.162832
  0
LINE
  8
0
  6
CONTINUOUS
 62
   134
 10
5730.898602
 20
176.648096
 11
5730.898602
 21
207.162832
  0
LINE
  8
0
  6
CONTINUOUS
 62
   134
 10
5680.898602
 20
176.648096
 11
5680.898602
 21
207.162832
  0
LINE
  8
0
  6
CONTINUOUS
 62
   134
 10
5809.992736
 20
129.028836
 11
5810.898602
 21
125.648096
  0
LINE
  8
0
  6
CONTINUOUS
 62
   134
 10
5810.898602
 20
125.648096
 11
5811.804469
 21
129.028836
  0
LINE
  8
0
  6
CONTINUOUS
 62
   134
 10
5811.804469
 20
168.267355
 11
5810.898602
 21
171.648096
  0
LINE
  8
0
  6
CONTINUOUS
 62
   134
 10
5810.898602
 20
171.648096
 11
5809.992736
 21
168.267355
  0
LINE
  8
0
  6
CONTINUOUS
 62
   134
 10
5810.898602
 20
125.648096
 11
5810.898602
 21
171.648096
  0
TEXT
  8
0
 62
   134
 10
5808.898602
 20
140.648096
 40
20.000000
  1
46
 50
90.000000
 41
0.800000
  7
GOTHIC
 72
     1
 11
5808.898602
 21
148.648096
  0
LINE
  8
0
  6
CONTINUOUS
 62
   134
 10
5825.898602
 20
125.648096
 11
5805.898602
 21
125.648096
  0
LINE
  8
0
  6
CONTINUOUS
 62
   134
 10
5825.898602
 20
171.648096
 11
5805.898602
 21
171.648096
  0
LINE
  8
0
  6
CONTINUOUS
 62
   134
 10
5877.517862
 20
190.742229
 11
5880.898602
 21
191.648096
  0
LINE
  8
0
  6
CONTINUOUS
 62
   134
 10
5880.898602
 20
191.648096
 11
5877.517862
 21
192.553962
  0
LINE
  8
0
  6
CONTINUOUS
 62
   134
 10
5834.279343
 20
192.553962
 11
5830.898602
 21
191.648096
  0
LINE
  8
0
  6
CONTINUOUS
 62
   134
 10
5830.898602
 20
191.648096
 11
5834.279343
 21
190.742229
  0
LINE
  8
0
  6
CONTINUOUS
 62
   134
 10
5880.898602
 20
191.648096
 11
5830.898602
 21
191.648096
  0
TEXT
  8
0
 62
   134
 10
5847.898602
 20
193.648096
 40
20.000000
  1
50
 41
0.800000
  7
GOTHIC
 72
     1
 11
5855.898602
 21
193.648096
  0
LINE
  8
0
  6
CONTINUOUS
 62
   134
 10
5880.898602
 20
176.648096
 11
5880.898602
 21
196.648096
  0
LINE
  8
0
  6
CONTINUOUS
 62
   134
 10
5830.898602
 20
176.648096
 11
5830.898602
 21
196.648096
  0
LINE
  8
0
  6
CONTINUOUS
 62
   134
 10
7245.331284
 20
213.077449
 11
7241.950544
 21
212.171583
  0
LINE
  8
0
  6
CONTINUOUS
 62
   134
 10
7241.950544
 20
212.171583
 11
7245.331284
 21
211.265716
  0
LINE
  8
0
  6
CONTINUOUS
 62
   134
 10
7298.569803
 20
211.265716
 11
7301.950544
 21
212.171583
  0
LINE
  8
0
  6
CONTINUOUS
 62
   134
 10
7301.950544
 20
212.171583
 11
7298.569803
 21
213.077449
  0
LINE
  8
0
  6
CONTINUOUS
 62
   134
 10
7241.950544
 20
212.171583
 11
7301.950544
 21
212.171583
  0
TEXT
  8
0
 62
   134
 10
7263.950544
 20
214.171583
 40
20.000000
  1
60
 41
0.800000
  7
GOTHIC
 72
     1
 11
7271.950544
 21
214.171583
  0
LINE
  8
0
  6
CONTINUOUS
 62
   134
 10
7241.950544
 20
141.671583
 11
7241.950544
 21
217.171583
  0
LINE
  8
0
  6
CONTINUOUS
 62
   134
 10
7301.950544
 20
141.671583
 11
7301.950544
 21
217.171583
  0
LINE
  8
0
  6
CONTINUOUS
 62
   134
 10
7328.045789
 20
120.552323
 11
7328.951656
 21
117.171583
  0
LINE
  8
0
  6
CONTINUOUS
 62
   134
 10
7328.951656
 20
117.171583
 11
7329.857522
 21
120.552323
  0
LINE
  8
0
  6
CONTINUOUS
 62
   134
 10
7329.857522
 20
188.790842
 11
7328.951656
 21
192.171583
  0
LINE
  8
0
  6
CONTINUOUS
 62
   134
 10
7328.951656
 20
192.171583
 11
7328.045789
 21
188.790842
  0
LINE
  8
0
  6
CONTINUOUS
 62
   134
 10
7328.951656
 20
117.171583
 11
7328.951656
 21
192.171583
  0
TEXT
  8
0
 62
   134
 10
7326.951656
 20
146.671583
 40
20.000000
  1
75
 50
90.000000
 41
0.800000
  7
GOTHIC
 72
     1
 11
7326.951656
 21
154.671583
  0
LINE
  8
0
  6
CONTINUOUS
 62
   134
 10
7306.950544
 20
117.171583
 11
7333.951656
 21
117.171583
  0
LINE
  8
0
  6
CONTINUOUS
 62
   134
 10
7289.950544
 20
192.171583
 11
7333.951656
 21
192.171583
  0
LINE
  8
0
  6
CONTINUOUS
 62
   134
 10
5941.380350
 20
113.505980
 11
5942.286217
 21
110.125239
  0
LINE
  8
0
  6
CONTINUOUS
 62
   134
 10
5942.286217
 20
110.125239
 11
5943.192084
 21
113.505980
  0
LINE
  8
0
  6
CONTINUOUS
 62
   134
 10
5943.192084
 20
186.744499
 11
5942.286217
 21
190.125239
  0
LINE
  8
0
  6
CONTINUOUS
 62
   134
 10
5942.286217
 20
190.125239
 11
5941.380350
 21
186.744499
  0
LINE
  8
0
  6
CONTINUOUS
 62
   134
 10
5942.286217
 20
110.125239
 11
5942.286217
 21
190.125239
  0
TEXT
  8
0
 62
   134
 10
5940.286217
 20
142.125239
 40
20.000000
  1
80
 50
90.000000
 41
0.800000
  7
GOTHIC
 72
     1
 11
5940.286217
 21
150.125239
  0
LINE
  8
0
  6
CONTINUOUS
 62
   134
 10
5967.296217
 20
110.125239
 11
5937.286217
 21
110.125239
  0
LINE
  8
0
  6
CONTINUOUS
 62
   134
 10
5957.286217
 20
190.125239
 11
5937.286217
 21
190.125239
  0
LINE
  8
0
  6
CONTINUOUS
 62
   134
 10
6038.925477
 20
229.866492
 11
6042.306217
 21
230.772358
  0
LINE
  8
0
  6
CONTINUOUS
 62
   134
 10
6042.306217
 20
230.772358
 11
6038.925477
 21
231.678225
  0
LINE
  8
0
  6
CONTINUOUS
 62
   134
 10
5965.666957
 20
231.678225
 11
5962.286217
 21
230.772358
  0
LINE
  8
0
  6
CONTINUOUS
 62
   134
 10
5962.286217
 20
230.772358
 11
5965.666957
 21
229.866492
  0
LINE
  8
0
  6
CONTINUOUS
 62
   134
 10
6042.306217
 20
230.772358
 11
5962.286217
 21
230.772358
  0
TEXT
  8
0
 62
   134
 10
5994.296217
 20
232.772358
 40
20.000000
  1
80
 41
0.800000
  7
GOTHIC
 72
     1
 11
6002.296217
 21
232.772358
  0
LINE
  8
0
  6
CONTINUOUS
 62
   134
 10
6042.306217
 20
195.125239
 11
6042.306217
 21
235.772358
  0
LINE
  8
0
  6
CONTINUOUS
 62
   134
 10
5962.286217
 20
195.125239
 11
5962.286217
 21
235.772358
  0
LINE
  8
0
  6
CONTINUOUS
 62
   134
 10
6339.429704
 20
196.427234
 11
6336.048964
 21
195.521367
  0
LINE
  8
0
  6
CONTINUOUS
 62
   134
 10
6336.048964
 20
195.521367
 11
6339.429704
 21
194.615500
  0
LINE
  8
0
  6
CONTINUOUS
 62
   134
 10
6348.668223
 20
194.615500
 11
6352.048964
 21
195.521367
  0
LINE
  8
0
  6
CONTINUOUS
 62
   134
 10
6352.048964
 20
195.521367
 11
6348.668223
 21
196.427234
  0
LINE
  8
0
  6
CONTINUOUS
 62
   134
 10
6336.048964
 20
195.521367
 11
6352.048964
 21
195.521367
  0
TEXT
  8
0
 62
   134
 10
6336.048964
 20
197.521367
 40
20.000000
  1
16
 41
0.800000
  7
GOTHIC
 72
     1
 11
6344.048964
 21
197.521367
  0
LINE
  8
0
  6
CONTINUOUS
 62
   134
 10
6336.048964
 20
180.521367
 11
6336.048964
 21
200.521367
  0
LINE
  8
0
  6
CONTINUOUS
 62
   134
 10
6352.048964
 20
180.521367
 11
6352.048964
 21
200.521367
  0
LINE
  8
0
  6
CONTINUOUS
 62
   134
 10
6379.533229
 20
118.903107
 11
6380.439096
 21
115.522367
  0
LINE
  8
0
  6
CONTINUOUS
 62
   134
 10
6380.439096
 20
115.522367
 11
6381.344963
 21
118.903107
  0
LINE
  8
0
  6
CONTINUOUS
 62
   134
 10
6381.344963
 20
172.140627
 11
6380.439096
 21
175.521367
  0
LINE
  8
0
  6
CONTINUOUS
 62
   134
 10
6380.439096
 20
175.521367
 11
6379.533229
 21
172.140627
  0
LINE
  8
0
  6
CONTINUOUS
 62
   134
 10
6380.439096
 20
115.522367
 11
6380.439096
 21
175.521367
  0
TEXT
  8
0
 62
   134
 10
6378.439096
 20
137.521867
 40
20.000000
  1
60
 50
90.000000
 41
0.800000
  7
GOTHIC
 72
     1
 11
6378.439096
 21
145.521867
  0
LINE
  8
0
  6
CONTINUOUS
 62
   134
 10
6356.048964
 20
115.522367
 11
6385.439096
 21
115.522367
  0
LINE
  8
0
  6
CONTINUOUS
 62
   134
 10
6357.048964
 20
175.521367
 11
6385.439096
 21
175.521367
  0
LINE
  8
0
  6
CONTINUOUS
 62
   134
 10
6455.429704
 20
196.427234
 11
6452.048964
 21
195.521367
  0
LINE
  8
0
  6
CONTINUOUS
 62
   134
 10
6452.048964
 20
195.521367
 11
6455.429704
 21
194.615500
  0
LINE
  8
0
  6
CONTINUOUS
 62
   134
 10
6468.668223
 20
194.615500
 11
6472.048964
 21
195.521367
  0
LINE
  8
0
  6
CONTINUOUS
 62
   134
 10
6472.048964
 20
195.521367
 11
6468.668223
 21
196.427234
  0
LINE
  8
0
  6
CONTINUOUS
 62
   134
 10
6452.048964
 20
195.521367
 11
6472.048964
 21
195.521367
  0
TEXT
  8
0
 62
   134
 10
6454.048964
 20
197.521367
 40
20.000000
  1
20
 41
0.800000
  7
GOTHIC
 72
     1
 11
6462.048964
 21
197.521367
  0
LINE
  8
0
  6
CONTINUOUS
 62
   134
 10
6452.048964
 20
180.521367
 11
6452.048964
 21
200.521367
  0
LINE
  8
0
  6
CONTINUOUS
 62
   134
 10
6472.048964
 20
180.521367
 11
6472.048964
 21
200.521367
  0
LINE
  8
0
  6
CONTINUOUS
 62
   134
 10
6502.816284
 20
118.902107
 11
6503.722151
 21
115.521367
  0
LINE
  8
0
  6
CONTINUOUS
 62
   134
 10
6503.722151
 20
115.521367
 11
6504.628018
 21
118.902107
  0
LINE
  8
0
  6
CONTINUOUS
 62
   134
 10
6504.628018
 20
172.140627
 11
6503.722151
 21
175.521367
  0
LINE
  8
0
  6
CONTINUOUS
 62
   134
 10
6503.722151
 20
175.521367
 11
6502.816284
 21
172.140627
  0
LINE
  8
0
  6
CONTINUOUS
 62
   134
 10
6503.722151
 20
115.521367
 11
6503.722151
 21
175.521367
  0
TEXT
  8
0
 62
   134
 10
6501.722151
 20
137.521367
 40
20.000000
  1
60
 50
90.000000
 41
0.800000
  7
GOTHIC
 72
     1
 11
6501.722151
 21
145.521367
  0
LINE
  8
0
  6
CONTINUOUS
 62
   134
 10
6474.048964
 20
115.521367
 11
6508.722151
 21
115.521367
  0
LINE
  8
0
  6
CONTINUOUS
 62
   134
 10
6477.048964
 20
175.521367
 11
6508.722151
 21
175.521367
  0
LINE
  8
0
  6
CONTINUOUS
 62
   134
 10
6575.429704
 20
196.427234
 11
6572.048964
 21
195.521367
  0
LINE
  8
0
  6
CONTINUOUS
 62
   134
 10
6572.048964
 20
195.521367
 11
6575.429704
 21
194.615500
  0
LINE
  8
0
  6
CONTINUOUS
 62
   134
 10
6593.068223
 20
194.615500
 11
6596.448964
 21
195.521367
  0
LINE
  8
0
  6
CONTINUOUS
 62
   134
 10
6596.448964
 20
195.521367
 11
6593.068223
 21
196.427234
  0
LINE
  8
0
  6
CONTINUOUS
 62
   134
 10
6572.048964
 20
195.521367
 11
6596.448964
 21
195.521367
  0
TEXT
  8
0
 62
   134
 10
6568.248964
 20
197.521367
 40
20.000000
  1
24.4
 41
0.800000
  7
GOTHIC
 72
     1
 11
6584.248964
 21
197.521367
  0
LINE
  8
0
  6
CONTINUOUS
 62
   134
 10
6572.048964
 20
180.521367
 11
6572.048964
 21
200.521367
  0
LINE
  8
0
  6
CONTINUOUS
 62
   134
 10
6596.448964
 20
180.521367
 11
6596.448964
 21
200.521367
  0
LINE
  8
0
  6
CONTINUOUS
 62
   134
 10
6625.381993
 20
118.902107
 11
6626.287860
 21
115.521367
  0
LINE
  8
0
  6
CONTINUOUS
 62
   134
 10
6626.287860
 20
115.521367
 11
6627.193726
 21
118.902107
  0
LINE
  8
0
  6
CONTINUOUS
 62
   134
 10
6627.193726
 20
172.140627
 11
6626.287860
 21
175.521367
  0
LINE
  8
0
  6
CONTINUOUS
 62
   134
 10
6626.287860
 20
175.521367
 11
6625.381993
 21
172.140627
  0
LINE
  8
0
  6
CONTINUOUS
 62
   134
 10
6626.287860
 20
115.521367
 11
6626.287860
 21
175.521367
  0
TEXT
  8
0
 62
   134
 10
6624.287860
 20
137.521367
 40
20.000000
  1
60
 50
90.000000
 41
0.800000
  7
GOTHIC
 72
     1
 11
6624.287860
 21
145.521367
  0
LINE
  8
0
  6
CONTINUOUS
 62
   134
 10
6596.248964
 20
115.521367
 11
6631.287860
 21
115.521367
  0
LINE
  8
0
  6
CONTINUOUS
 62
   134
 10
6601.448964
 20
175.521367
 11
6631.287860
 21
175.521367
  0
LINE
  8
0
  6
CONTINUOUS
 62
   134
 10
6699.829704
 20
200.489746
 11
6696.448964
 21
199.583879
  0
LINE
  8
0
  6
CONTINUOUS
 62
   134
 10
6696.448964
 20
199.583879
 11
6699.829704
 21
198.678012
  0
LINE
  8
0
  6
CONTINUOUS
 62
   134
 10
6722.568223
 20
198.678012
 11
6725.948964
 21
199.583879
  0
LINE
  8
0
  6
CONTINUOUS
 62
   134
 10
6725.948964
 20
199.583879
 11
6722.568223
 21
200.489746
  0
LINE
  8
0
  6
CONTINUOUS
 62
   134
 10
6696.448964
 20
199.583879
 11
6725.948964
 21
199.583879
  0
TEXT
  8
0
 62
   134
 10
6695.198964
 20
201.583879
 40
20.000000
  1
29.5
 41
0.800000
  7
GOTHIC
 72
     1
 11
6711.198964
 21
201.583879
  0
LINE
  8
0
  6
CONTINUOUS
 62
   134
 10
6696.448964
 20
180.521367
 11
6696.448964
 21
204.583879
  0
LINE
  8
0
  6
CONTINUOUS
 62
   134
 10
6725.948964
 20
180.521367
 11
6725.948964
 21
204.583879
  0
LINE
  8
0
  6
CONTINUOUS
 62
   134
 10
6754.909997
 20
118.902107
 11
6755.815864
 21
115.521367
  0
LINE
  8
0
  6
CONTINUOUS
 62
   134
 10
6755.815864
 20
115.521367
 11
6756.721731
 21
118.902107
  0
LINE
  8
0
  6
CONTINUOUS
 62
   134
 10
6756.721731
 20
172.140627
 11
6755.815864
 21
175.521367
  0
LINE
  8
0
  6
CONTINUOUS
 62
   134
 10
6755.815864
 20
175.521367
 11
6754.909997
 21
172.140627
  0
LINE
  8
0
  6
CONTINUOUS
 62
   134
 10
6755.815864
 20
115.521367
 11
6755.815864
 21
175.521367
  0
TEXT
  8
0
 62
   134
 10
6753.815864
 20
137.521367
 40
20.000000
  1
60
 50
90.000000
 41
0.800000
  7
GOTHIC
 72
     1
 11
6753.815864
 21
145.521367
  0
LINE
  8
0
  6
CONTINUOUS
 62
   134
 10
6723.198964
 20
115.521367
 11
6760.815864
 21
115.521367
  0
LINE
  8
0
  6
CONTINUOUS
 62
   134
 10
6730.948964
 20
175.521367
 11
6760.815864
 21
175.521367
  0
LINE
  8
0
  6
CONTINUOUS
 62
   134
 10
7860.716394
 20
91.248544
 11
7861.622261
 21
87.867804
  0
LINE
  8
0
  6
CONTINUOUS
 62
   134
 10
7861.622261
 20
87.867804
 11
7862.528127
 21
91.248544
  0
LINE
  8
0
  6
CONTINUOUS
 62
   134
 10
7862.528127
 20
154.487063
 11
7861.622261
 21
157.867804
  0
LINE
  8
0
  6
CONTINUOUS
 62
   134
 10
7861.622261
 20
157.867804
 11
7860.716394
 21
154.487063
  0
LINE
  8
0
  6
CONTINUOUS
 62
   134
 10
7861.622261
 20
87.867804
 11
7861.622261
 21
157.867804
  0
TEXT
  8
0
 62
   134
 10
7859.622261
 20
114.867804
 40
20.000000
  1
70
 50
90.000000
 41
0.800000
  7
GOTHIC
 72
     1
 11
7859.622261
 21
122.867804
  0
LINE
  8
0
  6
CONTINUOUS
 62
   134
 10
7893.622261
 20
87.867804
 11
7856.622261
 21
87.867804
  0
LINE
  8
0
  6
CONTINUOUS
 62
   134
 10
7886.622261
 20
157.867804
 11
7856.622261
 21
157.867804
  0
LINE
  8
0
  6
CONTINUOUS
 62
   134
 10
7972.241520
 20
176.961937
 11
7975.622261
 21
177.867804
  0
LINE
  8
0
  6
CONTINUOUS
 62
   134
 10
7975.622261
 20
177.867804
 11
7972.241520
 21
178.773671
  0
LINE
  8
0
  6
CONTINUOUS
 62
   134
 10
7885.003001
 20
178.773671
 11
7881.622261
 21
177.867804
  0
LINE
  8
0
  6
CONTINUOUS
 62
   134
 10
7881.622261
 20
177.867804
 11
7885.003001
 21
176.961937
  0
LINE
  8
0
  6
CONTINUOUS
 62
   134
 10
7975.622261
 20
177.867804
 11
7881.622261
 21
177.867804
  0
TEXT
  8
0
 62
   134
 10
7920.622261
 20
179.867804
 40
20.000000
  1
94
 41
0.800000
  7
GOTHIC
 72
     1
 11
7928.622261
 21
179.867804
  0
LINE
  8
0
  6
CONTINUOUS
 62
   134
 10
7975.622261
 20
145.867804
 11
7975.622261
 21
182.867804
  0
LINE
  8
0
  6
CONTINUOUS
 62
   134
 10
7881.622261
 20
145.867804
 11
7881.622261
 21
182.867804
  0
LINE
  8
0
  6
CONTINUOUS
 62
   134
 10
8054.716394
 20
146.248544
 11
8055.622261
 21
142.867804
  0
LINE
  8
0
  6
CONTINUOUS
 62
   134
 10
8055.622261
 20
142.867804
 11
8056.528127
 21
146.248544
  0
LINE
  8
0
  6
CONTINUOUS
 62
   134
 10
8056.528127
 20
154.487063
 11
8055.622261
 21
157.867804
  0
LINE
  8
0
  6
CONTINUOUS
 62
   134
 10
8055.622261
 20
157.867804
 11
8054.716394
 21
154.487063
  0
LINE
  8
0
  6
CONTINUOUS
 62
   134
 10
8055.622261
 20
142.867804
 11
8055.622261
 21
157.867804
  0
TEXT
  8
0
 62
   134
 10
8053.622261
 20
142.367804
 40
20.000000
  1
15
 50
90.000000
 41
0.800000
  7
GOTHIC
 72
     1
 11
8053.622261
 21
150.367804
  0
LINE
  8
0
  6
CONTINUOUS
 62
   134
 10
8070.622261
 20
142.867804
 11
8050.622261
 21
142.867804
  0
LINE
  8
0
  6
CONTINUOUS
 62
   134
 10
8070.622261
 20
157.867804
 11
8050.622261
 21
157.867804
  0
LINE
  8
0
  6
CONTINUOUS
 62
   134
 10
8203.741520
 20
176.961937
 11
8207.122261
 21
177.867804
  0
LINE
  8
0
  6
CONTINUOUS
 62
   134
 10
8207.122261
 20
177.867804
 11
8203.741520
 21
178.773671
  0
LINE
  8
0
  6
CONTINUOUS
 62
   134
 10
8079.003001
 20
178.773671
 11
8075.622261
 21
177.867804
  0
LINE
  8
0
  6
CONTINUOUS
 62
   134
 10
8075.622261
 20
177.867804
 11
8079.003001
 21
176.961937
  0
LINE
  8
0
  6
CONTINUOUS
 62
   134
 10
8207.122261
 20
177.867804
 11
8075.622261
 21
177.867804
  0
TEXT
  8
0
 62
   134
 10
8121.372261
 20
179.867804
 40
20.000000
  1
131.5
 41
0.800000
  7
GOTHIC
 72
     1
 11
8141.372261
 21
179.867804
  0
LINE
  8
0
  6
CONTINUOUS
 62
   134
 10
8207.122261
 20
162.867804
 11
8207.122261
 21
182.867804
  0
LINE
  8
0
  6
CONTINUOUS
 62
   134
 10
8075.622261
 20
162.867804
 11
8075.622261
 21
182.867804
  0
LINE
  8
0
  6
CONTINUOUS
 62
   134
 10
7488.821660
 20
174.801312
 11
7489.727527
 21
171.420572
  0
LINE
  8
0
  6
CONTINUOUS
 62
   134
 10
7489.727527
 20
171.420572
 11
7490.633394
 21
174.801312
  0
LINE
  8
0
  6
CONTINUOUS
 62
   134
 10
7490.633394
 20
183.039832
 11
7489.727527
 21
186.420572
  0
LINE
  8
0
  6
CONTINUOUS
 62
   134
 10
7489.727527
 20
186.420572
 11
7488.821660
 21
183.039832
  0
LINE
  8
0
  6
CONTINUOUS
 62
   134
 10
7489.727527
 20
171.420572
 11
7489.727527
 21
186.420572
  0
TEXT
  8
0
 62
   134
 10
7487.727527
 20
170.920572
 40
20.000000
  1
15
 50
90.000000
 41
0.800000
  7
GOTHIC
 72
     1
 11
7487.727527
 21
178.920572
  0
LINE
  8
0
  6
CONTINUOUS
 62
   134
 10
7504.727527
 20
171.420572
 11
7484.727527
 21
171.420572
  0
LINE
  8
0
  6
CONTINUOUS
 62
   134
 10
7522.227527
 20
186.420572
 11
7484.727527
 21
186.420572
  0
LINE
  8
0
  6
CONTINUOUS
 62
   134
 10
7556.346787
 20
205.514705
 11
7559.727527
 21
206.420572
  0
LINE
  8
0
  6
CONTINUOUS
 62
   134
 10
7559.727527
 20
206.420572
 11
7556.346787
 21
207.326439
  0
LINE
  8
0
  6
CONTINUOUS
 62
   134
 10
7513.108267
 20
207.326439
 11
7509.727527
 21
206.420572
  0
LINE
  8
0
  6
CONTINUOUS
 62
   134
 10
7509.727527
 20
206.420572
 11
7513.108267
 21
205.514705
  0
LINE
  8
0
  6
CONTINUOUS
 62
   134
 10
7559.727527
 20
206.420572
 11
7509.727527
 21
206.420572
  0
TEXT
  8
0
 62
   134
 10
7526.727527
 20
208.420572
 40
20.000000
  1
50
 41
0.800000
  7
GOTHIC
 72
     1
 11
7534.727527
 21
208.420572
  0
LINE
  8
0
  6
CONTINUOUS
 62
   134
 10
7559.727527
 20
186.420572
 11
7559.727527
 21
211.420572
  0
LINE
  8
0
  6
CONTINUOUS
 62
   134
 10
7509.727527
 20
186.420572
 11
7509.727527
 21
211.420572
  0
LINE
  8
0
  6
CONTINUOUS
 62
   134
 10
6999.595761
 20
212.022887
 11
6996.215021
 21
211.117020
  0
LINE
  8
0
  6
CONTINUOUS
 62
   134
 10
6996.215021
 20
211.117020
 11
6999.595761
 21
210.211154
  0
LINE
  8
0
  6
CONTINUOUS
 62
   134
 10
7052.834281
 20
210.211154
 11
7056.215021
 21
211.117020
  0
LINE
  8
0
  6
CONTINUOUS
 62
   134
 10
7056.215021
 20
211.117020
 11
7052.834281
 21
212.022887
  0
LINE
  8
0
  6
CONTINUOUS
 62
   134
 10
6996.215021
 20
211.117020
 11
7056.215021
 21
211.117020
  0
TEXT
  8
0
 62
   134
 10
7018.215021
 20
213.117020
 40
20.000000
  1
60
 41
0.800000
  7
GOTHIC
 72
     1
 11
7026.215021
 21
213.117020
  0
LINE
  8
0
  6
CONTINUOUS
 62
   134
 10
6996.215021
 20
154.617020
 11
6996.215021
 21
216.117020
  0
LINE
  8
0
  6
CONTINUOUS
 62
   134
 10
7056.215021
 20
154.617020
 11
7056.215021
 21
216.117020
  0
LINE
  8
0
  6
CONTINUOUS
 62
   134
 10
7087.911156
 20
132.997761
 11
7088.817022
 21
129.617020
  0
LINE
  8
0
  6
CONTINUOUS
 62
   134
 10
7088.817022
 20
129.617020
 11
7089.722889
 21
132.997761
  0
LINE
  8
0
  6
CONTINUOUS
 62
   134
 10
7089.722889
 20
187.736280
 11
7088.817022
 21
191.117020
  0
LINE
  8
0
  6
CONTINUOUS
 62
   134
 10
7088.817022
 20
191.117020
 11
7087.911156
 21
187.736280
  0
LINE
  8
0
  6
CONTINUOUS
 62
   134
 10
7088.817022
 20
129.617020
 11
7088.817022
 21
191.117020
  0
TEXT
  8
0
 62
   134
 10
7086.817022
 20
144.367020
 40
20.000000
  1
61.5
 50
90.000000
 41
0.800000
  7
GOTHIC
 72
     1
 11
7086.817022
 21
160.367020
  0
LINE
  8
0
  6
CONTINUOUS
 62
   134
 10
7061.215021
 20
129.617020
 11
7093.817022
 21
129.617020
  0
LINE
  8
0
  6
CONTINUOUS
 62
   134
 10
7043.715021
 20
191.117020
 11
7093.817022
 21
191.117020
  0
POINT
  8
0
 62
     5
 10
3783.731455
 20
195.337263
  0
POINT
  8
0
 62
     5
 10
3863.736283
 20
195.337263
  0
LINE
  8
0
  6
CONTINUOUS
 62
     4
 10
3787.788343
 20
207.868858
 11
3783.731455
 21
206.781818
  0
LINE
  8
0
  6
CONTINUOUS
 62
     4
 10
3783.731455
 20
206.781818
 11
3787.788343
 21
205.694778
  0
LINE
  8
0
  6
CONTINUOUS
 62
     4
 10
3859.679395
 20
205.694778
 11
3863.736283
 21
206.781818
  0
LINE
  8
0
  6
CONTINUOUS
 62
     4
 10
3863.736283
 20
206.781818
 11
3859.679395
 21
207.868858
  0
LINE
  8
0
  6
CONTINUOUS
 62
     4
 10
3783.731455
 20
206.781818
 11
3863.736283
 21
206.781818
  0
TEXT
  8
0
 62
     4
 10
3815.733869
 20
208.781818
 40
20.000000
  1
80
 41
0.800000
  7
GOTHIC
 72
     1
 11
3823.733869
 21
208.781818
  0
LINE
  8
0
  6
CONTINUOUS
 62
     4
 10
3783.731455
 20
200.337263
 11
3783.731455
 21
211.781818
  0
LINE
  8
0
  6
CONTINUOUS
 62
     4
 10
3863.736283
 20
200.337263
 11
3863.736283
 21
211.781818
  0
POINT
  8
0
 62
     5
 10
4143.802832
 20
195.337263
  0
POINT
  8
0
 62
     5
 10
3983.659030
 20
195.337263
  0
LINE
  8
0
  6
CONTINUOUS
 62
     4
 10
3987.715918
 20
211.326910
 11
3983.659030
 21
210.239870
  0
LINE
  8
0
  6
CONTINUOUS
 62
     4
 10
3983.659030
 20
210.239870
 11
3987.715918
 21
209.152830
  0
LINE
  8
0
  6
CONTINUOUS
 62
     4
 10
4139.745943
 20
209.152830
 11
4143.802832
 21
210.239870
  0
LINE
  8
0
  6
CONTINUOUS
 62
     4
 10
4143.802832
 20
210.239870
 11
4139.745943
 21
211.326910
  0
LINE
  8
0
  6
CONTINUOUS
 62
     4
 10
3983.659030
 20
210.239870
 11
4143.802832
 21
210.239870
  0
TEXT
  8
0
 62
     4
 10
4051.730931
 20
212.239870
 40
20.000000
  1
160
 41
0.800000
  7
GOTHIC
 72
     1
 11
4063.730931
 21
212.239870
  0
LINE
  8
0
  6
CONTINUOUS
 62
     4
 10
3983.659030
 20
200.337263
 11
3983.659030
 21
215.239870
  0
LINE
  8
0
  6
CONTINUOUS
 62
     4
 10
4143.802832
 20
200.337263
 11
4143.802832
 21
215.239870
  0
POINT
  8
0
 62
     5
 10
4266.186196
 20
195.337263
  0
POINT
  8
0
 62
     5
 10
4366.216554
 20
195.337263
  0
LINE
  8
0
  6
CONTINUOUS
 62
     4
 10
4270.243084
 20
208.450910
 11
4266.186196
 21
207.363870
  0
LINE
  8
0
  6
CONTINUOUS
 62
     4
 10
4266.186196
 20
207.363870
 11
4270.243084
 21
206.276830
  0
LINE
  8
0
  6
CONTINUOUS
 62
     4
 10
4362.159666
 20
206.276830
 11
4366.216554
 21
207.363870
  0
LINE
  8
0
  6
CONTINUOUS
 62
     4
 10
4366.216554
 20
207.363870
 11
4362.159666
 21
208.450910
  0
LINE
  8
0
  6
CONTINUOUS
 62
     4
 10
4266.186196
 20
207.363870
 11
4366.216554
 21
207.363870
  0
TEXT
  8
0
 62
     4
 10
4304.201375
 20
209.363870
 40
20.000000
  1
100
 41
0.800000
  7
GOTHIC
 72
     1
 11
4316.201375
 21
209.363870
  0
LINE
  8
0
  6
CONTINUOUS
 62
     4
 10
4266.186196
 20
200.337263
 11
4266.186196
 21
212.363870
  0
LINE
  8
0
  6
CONTINUOUS
 62
     4
 10
4366.216554
 20
200.337263
 11
4366.216554
 21
212.363870
  0
POINT
  8
0
 62
     5
 10
4771.067841
 20
206.423549
  0
POINT
  8
0
 62
     5
 10
4803.067646
 20
206.423549
  0
POINT
  8
0
 62
     5
 10
4927.039372
 20
206.423549
  0
POINT
  8
0
 62
     5
 10
4967.034942
 20
206.423549
  0
POINT
  8
0
 62
     5
 10
5082.057969
 20
206.423549
  0
POINT
  8
0
 62
     5
 10
5132.032142
 20
206.423549
  0
POINT
  8
0
 62
     5
 10
5245.569697
 20
206.423549
  0
POINT
  8
0
 62
     5
 10
5308.573065
 20
206.423549
  0
POINT
  8
0
 62
     5
 10
5431.568353
 20
206.423549
  0
POINT
  8
0
 62
     5
 10
5556.568665
 20
206.423549
  0
POINT
  8
0
 62
     5
 10
5982.291607
 20
190.125239
  0
POINT
  8
0
 62
     5
 10
6022.300827
 20
190.125239
  0
LINE
  8
0
  6
CONTINUOUS
 62
     4
 10
4775.124729
 20
222.147263
 11
4771.067841
 21
221.060223
  0
LINE
  8
0
  6
CONTINUOUS
 62
     4
 10
4771.067841
 20
221.060223
 11
4775.124729
 21
219.973183
  0
LINE
  8
0
  6
CONTINUOUS
 62
     4
 10
4799.010757
 20
219.973183
 11
4803.067646
 21
221.060223
  0
LINE
  8
0
  6
CONTINUOUS
 62
     4
 10
4803.067646
 20
221.060223
 11
4799.010757
 21
222.147263
  0
LINE
  8
0
  6
CONTINUOUS
 62
     4
 10
4771.067841
 20
221.060223
 11
4803.067646
 21
221.060223
  0
TEXT
  8
0
 62
     4
 10
4779.067743
 20
223.060223
 40
20.000000
  1
32
 41
0.800000
  7
GOTHIC
 72
     1
 11
4787.067743
 21
223.060223
  0
LINE
  8
0
  6
CONTINUOUS
 62
     4
 10
4771.067841
 20
211.423549
 11
4771.067841
 21
226.060223
  0
LINE
  8
0
  6
CONTINUOUS
 62
     4
 10
4803.067646
 20
211.423549
 11
4803.067646
 21
226.060223
  0
LINE
  8
0
  6
CONTINUOUS
 62
     4
 10
4931.096260
 20
216.783030
 11
4927.039372
 21
215.695990
  0
LINE
  8
0
  6
CONTINUOUS
 62
     4
 10
4927.039372
 20
215.695990
 11
4931.096260
 21
214.608950
  0
LINE
  8
0
  6
CONTINUOUS
 62
     4
 10
4962.978053
 20
214.608950
 11
4967.034942
 21
215.695990
  0
LINE
  8
0
  6
CONTINUOUS
 62
     4
 10
4967.034942
 20
215.695990
 11
4962.978053
 21
216.783030
  0
LINE
  8
0
  6
CONTINUOUS
 62
     4
 10
4927.039372
 20
215.695990
 11
4967.034942
 21
215.695990
  0
TEXT
  8
0
 62
     4
 10
4939.037157
 20
217.695990
 40
20.000000
  1
40
 41
0.800000
  7
GOTHIC
 72
     1
 11
4947.037157
 21
217.695990
  0
LINE
  8
0
  6
CONTINUOUS
 62
     4
 10
4927.039372
 20
211.423549
 11
4927.039372
 21
220.695990
  0
LINE
  8
0
  6
CONTINUOUS
 62
     4
 10
4967.034942
 20
211.423549
 11
4967.034942
 21
220.695990
  0
LINE
  8
0
  6
CONTINUOUS
 62
     4
 10
5086.114858
 20
215.256593
 11
5082.057969
 21
214.169553
  0
LINE
  8
0
  6
CONTINUOUS
 62
     4
 10
5082.057969
 20
214.169553
 11
5086.114858
 21
213.082513
  0
LINE
  8
0
  6
CONTINUOUS
 62
     4
 10
5127.975253
 20
213.082513
 11
5132.032142
 21
214.169553
  0
LINE
  8
0
  6
CONTINUOUS
 62
     4
 10
5132.032142
 20
214.169553
 11
5127.975253
 21
215.256593
  0
LINE
  8
0
  6
CONTINUOUS
 62
     4
 10
5082.057969
 20
214.169553
 11
5132.032142
 21
214.169553
  0
TEXT
  8
0
 62
     4
 10
5099.045055
 20
216.169553
 40
20.000000
  1
50
 41
0.800000
  7
GOTHIC
 72
     1
 11
5107.045055
 21
216.169553
  0
LINE
  8
0
  6
CONTINUOUS
 62
     4
 10
5082.057969
 20
211.423549
 11
5082.057969
 21
219.169553
  0
LINE
  8
0
  6
CONTINUOUS
 62
     4
 10
5132.032142
 20
211.423549
 11
5132.032142
 21
219.169553
  0
LINE
  8
0
  6
CONTINUOUS
 62
     4
 10
5249.626585
 20
219.095143
 11
5245.569697
 21
218.008103
  0
LINE
  8
0
  6
CONTINUOUS
 62
     4
 10
5245.569697
 20
218.008103
 11
5249.626585
 21
216.921063
  0
LINE
  8
0
  6
CONTINUOUS
 62
     4
 10
5304.516176
 20
216.921063
 11
5308.573065
 21
218.008103
  0
LINE
  8
0
  6
CONTINUOUS
 62
     4
 10
5308.573065
 20
218.008103
 11
5304.516176
 21
219.095143
  0
LINE
  8
0
  6
CONTINUOUS
 62
     4
 10
5245.569697
 20
218.008103
 11
5308.573065
 21
218.008103
  0
TEXT
  8
0
 62
     4
 10
5269.071381
 20
220.008103
 40
20.000000
  1
63
 41
0.800000
  7
GOTHIC
 72
     1
 11
5277.071381
 21
220.008103
  0
LINE
  8
0
  6
CONTINUOUS
 62
     4
 10
5245.569697
 20
211.423549
 11
5245.569697
 21
223.008103
  0
LINE
  8
0
  6
CONTINUOUS
 62
     4
 10
5308.573065
 20
211.423549
 11
5308.573065
 21
223.008103
  0
LINE
  8
0
  6
CONTINUOUS
 62
     4
 10
5435.625241
 20
216.102300
 11
5431.568353
 21
215.015260
  0
LINE
  8
0
  6
CONTINUOUS
 62
     4
 10
5431.568353
 20
215.015260
 11
5435.625241
 21
213.928220
  0
LINE
  8
0
  6
CONTINUOUS
 62
     4
 10
5552.511776
 20
213.928220
 11
5556.568665
 21
215.015260
  0
LINE
  8
0
  6
CONTINUOUS
 62
     4
 10
5556.568665
 20
215.015260
 11
5552.511776
 21
216.102300
  0
LINE
  8
0
  6
CONTINUOUS
 62
     4
 10
5431.568353
 20
215.015260
 11
5556.568665
 21
215.015260
  0
TEXT
  8
0
 62
     4
 10
5482.068509
 20
217.015260
 40
20.000000
  1
125
 41
0.800000
  7
GOTHIC
 72
     1
 11
5494.068509
 21
217.015260
  0
LINE
  8
0
  6
CONTINUOUS
 62
     4
 10
5431.568353
 20
211.423549
 11
5431.568353
 21
220.015260
  0
LINE
  8
0
  6
CONTINUOUS
 62
     4
 10
5556.568665
 20
211.423549
 11
5556.568665
 21
220.015260
  0
LINE
  8
0
  6
CONTINUOUS
 62
     4
 10
5684.927046
 20
181.171139
 11
5682.898602
 21
180.627619
  0
LINE
  8
0
  6
CONTINUOUS
 62
     4
 10
5682.898602
 20
180.627619
 11
5684.927046
 21
180.084099
  0
LINE
  8
0
  6
CONTINUOUS
 62
     4
 10
5700.870158
 20
180.084099
 11
5702.898602
 21
180.627619
  0
LINE
  8
0
  6
CONTINUOUS
 62
     4
 10
5702.898602
 20
180.627619
 11
5700.870158
 21
181.171139
  0
LINE
  8
0
  6
CONTINUOUS
 62
     4
 10
5682.898602
 20
180.627619
 11
5702.898602
 21
180.627619
  0
TEXT
  8
0
 62
     4
 10
5688.898602
 20
181.627619
 40
10.000000
  1
20
 41
0.800000
  7
GOTHIC
 72
     1
 11
5692.898602
 21
181.627619
  0
LINE
  8
0
  6
CONTINUOUS
 62
     4
 10
5682.898602
 20
174.148096
 11
5682.898602
 21
183.127619
  0
LINE
  8
0
  6
CONTINUOUS
 62
     4
 10
5702.898602
 20
174.148096
 11
5702.898602
 21
183.127619
  0
LINE
  8
0
  6
CONTINUOUS
 62
     4
 10
5719.427046
 20
181.171139
 11
5717.398602
 21
180.627619
  0
LINE
  8
0
  6
CONTINUOUS
 62
     4
 10
5717.398602
 20
180.627619
 11
5719.427046
 21
180.084099
  0
LINE
  8
0
  6
CONTINUOUS
 62
     4
 10
5727.370158
 20
180.084099
 11
5729.398602
 21
180.627619
  0
LINE
  8
0
  6
CONTINUOUS
 62
     4
 10
5729.398602
 20
180.627619
 11
5727.370158
 21
181.171139
  0
LINE
  8
0
  6
CONTINUOUS
 62
     4
 10
5717.398602
 20
180.627619
 11
5729.398602
 21
180.627619
  0
TEXT
  8
0
 62
     4
 10
5719.398602
 20
181.627619
 40
10.000000
  1
12
 41
0.800000
  7
GOTHIC
 72
     1
 11
5723.398602
 21
181.627619
  0
LINE
  8
0
  6
CONTINUOUS
 62
     4
 10
5717.398602
 20
174.148096
 11
5717.398602
 21
183.127619
  0
LINE
  8
0
  6
CONTINUOUS
 62
     4
 10
5729.398602
 20
174.148096
 11
5729.398602
 21
183.127619
  0
LINE
  8
0
  6
CONTINUOUS
 62
     4
 10
5834.927046
 20
175.591267
 11
5832.898602
 21
175.047747
  0
LINE
  8
0
  6
CONTINUOUS
 62
     4
 10
5832.898602
 20
175.047747
 11
5834.927046
 21
174.504227
  0
LINE
  8
0
  6
CONTINUOUS
 62
     4
 10
5855.870158
 20
174.504227
 11
5857.898602
 21
175.047747
  0
LINE
  8
0
  6
CONTINUOUS
 62
     4
 10
5857.898602
 20
175.047747
 11
5855.870158
 21
175.591267
  0
LINE
  8
0
  6
CONTINUOUS
 62
     4
 10
5832.898602
 20
175.047747
 11
5857.898602
 21
175.047747
  0
TEXT
  8
0
 62
     4
 10
5841.398602
 20
176.047747
 40
10.000000
  1
25
 41
0.800000
  7
GOTHIC
 72
     1
 11
5845.398602
 21
176.047747
  0
LINE
  8
0
  6
CONTINUOUS
 62
     4
 10
5832.898602
 20
174.148096
 11
5832.898602
 21
177.547747
  0
LINE
  8
0
  6
CONTINUOUS
 62
     4
 10
5857.898602
 20
174.148096
 11
5857.898602
 21
177.547747
  0
LINE
  8
0
  6
CONTINUOUS
 62
     4
 10
5865.427046
 20
175.591267
 11
5863.398602
 21
175.047747
  0
LINE
  8
0
  6
CONTINUOUS
 62
     4
 10
5863.398602
 20
175.047747
 11
5865.427046
 21
174.504227
  0
LINE
  8
0
  6
CONTINUOUS
 62
     4
 10
5877.370158
 20
174.504227
 11
5879.398602
 21
175.047747
  0
LINE
  8
0
  6
CONTINUOUS
 62
     4
 10
5879.398602
 20
175.047747
 11
5877.370158
 21
175.591267
  0
LINE
  8
0
  6
CONTINUOUS
 62
     4
 10
5863.398602
 20
175.047747
 11
5879.398602
 21
175.047747
  0
TEXT
  8
0
 62
     4
 10
5867.398602
 20
176.047747
 40
10.000000
  1
16
 41
0.800000
  7
GOTHIC
 72
     1
 11
5871.398602
 21
176.047747
  0
LINE
  8
0
  6
CONTINUOUS
 62
     4
 10
5863.398602
 20
174.148096
 11
5863.398602
 21
177.547747
  0
LINE
  8
0
  6
CONTINUOUS
 62
     4
 10
5879.398602
 20
174.148096
 11
5879.398602
 21
177.547747
  0
LINE
  8
0
  6
CONTINUOUS
 62
     4
 10
5986.348495
 20
204.535993
 11
5982.291607
 21
203.448953
  0
LINE
  8
0
  6
CONTINUOUS
 62
     4
 10
5982.291607
 20
203.448953
 11
5986.348495
 21
202.361913
  0
LINE
  8
0
  6
CONTINUOUS
 62
     4
 10
6018.243939
 20
202.361913
 11
6022.300827
 21
203.448953
  0
LINE
  8
0
  6
CONTINUOUS
 62
     4
 10
6022.300827
 20
203.448953
 11
6018.243939
 21
204.535993
  0
LINE
  8
0
  6
CONTINUOUS
 62
     4
 10
5982.291607
 20
203.448953
 11
6022.300827
 21
203.448953
  0
TEXT
  8
0
 62
     4
 10
5994.296217
 20
205.448953
 40
20.000000
  1
40
 41
0.800000
  7
GOTHIC
 72
     1
 11
6002.296217
 21
205.448953
  0
LINE
  8
0
  6
CONTINUOUS
 62
     4
 10
5982.291607
 20
195.125239
 11
5982.291607
 21
208.448953
  0
LINE
  8
0
  6
CONTINUOUS
 62
     4
 10
6022.300827
 20
195.125239
 11
6022.300827
 21
208.448953
  0
TEXT
  8
0
 62
     7
 10
5978.093372
 20
73.031807
 40
24.143239
  1
V40 ê[
 41
0.800000
  7
GOTHIC
 11
5978.093372
 21
97.175046
 73
     3
  0
TEXT
  8
0
 62
     7
 10
5822.388643
 20
85.727157
 40
24.143239
  1
V16 25
 41
0.800000
  7
GOTHIC
 11
5822.388643
 21
109.870395
 73
     3
  0
TEXT
  8
0
 62
     7
 10
5674.525160
 20
84.980371
 40
24.143239
  1
V12 20
 41
0.800000
  7
GOTHIC
 11
5674.525160
 21
109.123610
 73
     3
  0
TEXT
  8
0
 62
     7
 10
5470.092692
 20
45.307404
 40
24.143239
  1
V125
 41
0.800000
  7
GOTHIC
 11
5470.092692
 21
69.450643
 73
     3
  0
TEXT
  8
0
 62
     7
 10
5254.085053
 20
85.913853
 40
24.143239
  1
V63
 41
0.800000
  7
GOTHIC
 11
5254.085053
 21
110.057092
 73
     3
  0
TEXT
  8
0
 62
     7
 10
5091.192516
 20
101.316299
 40
24.143239
  1
V50
 41
0.800000
  7
GOTHIC
 11
5091.192516
 21
125.459538
 73
     3
  0
TEXT
  8
0
 62
     7
 10
4936.888010
 20
108.037367
 40
24.143239
  1
V40
 41
0.800000
  7
GOTHIC
 11
4936.888010
 21
132.180605
 73
     3
  0
TEXT
  8
0
 62
     7
 10
4763.260435
 20
96.462195
 40
24.143239
  1
V32
 41
0.800000
  7
GOTHIC
 11
4763.260435
 21
120.605434
 73
     3
  0
TEXT
  8
0
 62
     7
 10
4309.099764
 20
25.670744
 40
24.143239
  1
V100
 41
0.800000
  7
GOTHIC
 11
4309.099764
 21
49.813982
 73
     3
  0
TEXT
  8
0
 62
     7
 10
4083.663961
 20
-0.000000
 40
24.143239
  1
V160
 41
0.800000
  7
GOTHIC
 11
4083.663961
 21
24.143239
 73
     3
  0
TEXT
  8
0
 62
     7
 10
3812.283361
 20
55.454641
 40
24.143239
  1
V80
 41
0.800000
  7
GOTHIC
 11
3812.283361
 21
79.597879
 73
     3
  0
LINE
  8
0
  6
CONTINUOUS
 62
     4
 10
6340.077408
 20
180.190617
 11
6338.048964
 21
179.647097
  0
LINE
  8
0
  6
CONTINUOUS
 62
     4
 10
6338.048964
 20
179.647097
 11
6340.077408
 21
179.103577
  0
LINE
  8
0
  6
CONTINUOUS
 62
     4
 10
6348.020519
 20
179.103577
 11
6350.048964
 21
179.647097
  0
LINE
  8
0
  6
CONTINUOUS
 62
     4
 10
6350.048964
 20
179.647097
 11
6348.020519
 21
180.190617
  0
LINE
  8
0
  6
CONTINUOUS
 62
     4
 10
6338.048964
 20
179.647097
 11
6350.048964
 21
179.647097
  0
TEXT
  8
0
 62
     4
 10
6340.048964
 20
180.647097
 40
10.000000
  1
12
 41
0.800000
  7
GOTHIC
 72
     1
 11
6344.048964
 21
180.647097
  0
LINE
  8
0
  6
CONTINUOUS
 62
     4
 10
6338.048964
 20
178.021367
 11
6338.048964
 21
182.147097
  0
LINE
  8
0
  6
CONTINUOUS
 62
     4
 10
6350.048964
 20
178.021367
 11
6350.048964
 21
182.147097
  0
LINE
  8
0
  6
CONTINUOUS
 62
     4
 10
6456.077408
 20
180.034983
 11
6454.048964
 21
179.491463
  0
LINE
  8
0
  6
CONTINUOUS
 62
     4
 10
6454.048964
 20
179.491463
 11
6456.077408
 21
178.947943
  0
LINE
  8
0
  6
CONTINUOUS
 62
     4
 10
6468.020519
 20
178.947943
 11
6470.048964
 21
179.491463
  0
LINE
  8
0
  6
CONTINUOUS
 62
     4
 10
6470.048964
 20
179.491463
 11
6468.020519
 21
180.034983
  0
LINE
  8
0
  6
CONTINUOUS
 62
     4
 10
6454.048964
 20
179.491463
 11
6470.048964
 21
179.491463
  0
TEXT
  8
0
 62
     4
 10
6458.048964
 20
180.491463
 40
10.000000
  1
16
 41
0.800000
  7
GOTHIC
 72
     1
 11
6462.048964
 21
180.491463
  0
LINE
  8
0
  6
CONTINUOUS
 62
     4
 10
6454.048964
 20
178.021367
 11
6454.048964
 21
181.991463
  0
LINE
  8
0
  6
CONTINUOUS
 62
     4
 10
6470.048964
 20
178.021367
 11
6470.048964
 21
181.991463
  0
LINE
  8
0
  6
CONTINUOUS
 62
     4
 10
6576.277408
 20
180.409403
 11
6574.248964
 21
179.865884
  0
LINE
  8
0
  6
CONTINUOUS
 62
     4
 10
6574.248964
 20
179.865884
 11
6576.277408
 21
179.322364
  0
LINE
  8
0
  6
CONTINUOUS
 62
     4
 10
6592.220519
 20
179.322364
 11
6594.248964
 21
179.865884
  0
LINE
  8
0
  6
CONTINUOUS
 62
     4
 10
6594.248964
 20
179.865884
 11
6592.220519
 21
180.409403
  0
LINE
  8
0
  6
CONTINUOUS
 62
     4
 10
6574.248964
 20
179.865884
 11
6594.248964
 21
179.865884
  0
TEXT
  8
0
 62
     4
 10
6580.248964
 20
180.865884
 40
10.000000
  1
20
 41
0.800000
  7
GOTHIC
 72
     1
 11
6584.248964
 21
180.865884
  0
LINE
  8
0
  6
CONTINUOUS
 62
     4
 10
6574.248964
 20
178.021367
 11
6574.248964
 21
182.365884
  0
LINE
  8
0
  6
CONTINUOUS
 62
     4
 10
6594.248964
 20
178.021367
 11
6594.248964
 21
182.365884
  0
LINE
  8
0
  6
CONTINUOUS
 62
     4
 10
6700.727408
 20
180.744154
 11
6698.698964
 21
180.200634
  0
LINE
  8
0
  6
CONTINUOUS
 62
     4
 10
6698.698964
 20
180.200634
 11
6700.727408
 21
179.657114
  0
LINE
  8
0
  6
CONTINUOUS
 62
     4
 10
6721.670519
 20
179.657114
 11
6723.698964
 21
180.200634
  0
LINE
  8
0
  6
CONTINUOUS
 62
     4
 10
6723.698964
 20
180.200634
 11
6721.670519
 21
180.744154
  0
LINE
  8
0
  6
CONTINUOUS
 62
     4
 10
6698.698964
 20
180.200634
 11
6723.698964
 21
180.200634
  0
TEXT
  8
0
 62
     4
 10
6707.198964
 20
181.200634
 40
10.000000
  1
25
 41
0.800000
  7
GOTHIC
 72
     1
 11
6711.198964
 21
181.200634
  0
LINE
  8
0
  6
CONTINUOUS
 62
     4
 10
6698.698964
 20
178.021367
 11
6698.698964
 21
182.700634
  0
LINE
  8
0
  6
CONTINUOUS
 62
     4
 10
6723.698964
 20
178.021367
 11
6723.698964
 21
182.700634
  0
TEXT
  8
0
 62
     7
 10
6330.389323
 20
80.336300
 40
24.143239
  1
V12
 41
0.800000
  7
GOTHIC
 11
6330.389323
 21
104.479539
 73
     3
  0
TEXT
  8
0
 62
     7
 10
6453.440865
 20
76.677053
 40
24.143239
  1
V16
 41
0.800000
  7
GOTHIC
 11
6453.440865
 21
100.820291
 73
     3
  0
TEXT
  8
0
 62
     7
 10
6575.764293
 20
74.167854
 40
24.143239
  1
V20
 41
0.800000
  7
GOTHIC
 11
6575.764293
 21
98.311093
 73
     3
  0
TEXT
  8
0
 62
     7
 10
6699.446869
 20
68.398938
 40
24.143239
  1
V25
 41
0.800000
  7
GOTHIC
 11
6699.446869
 21
92.542177
 73
     3
  0
LINE
  8
0
  6
CONTINUOUS
 62
     2
 10
6155.627286
 20
115.115325
 11
6169.627286
 21
115.115325
  0
LINE
  8
0
  6
CONTINUOUS
 62
     2
 10
6169.627286
 20
115.115325
 11
6169.627286
 21
130.115325
  0
LINE
  8
0
  6
CONTINUOUS
 62
     2
 10
6169.627286
 20
130.115325
 11
6167.127286
 21
130.115325
  0
LINE
  8
0
  6
CONTINUOUS
 62
     2
 10
6167.127286
 20
130.115325
 11
6167.127286
 21
175.114325
  0
LINE
  8
0
  6
CONTINUOUS
 62
     2
 10
6167.127286
 20
175.114325
 11
6166.627286
 21
175.114325
  0
LINE
  8
0
  6
CONTINUOUS
 62
     2
 10
6166.627286
 20
175.114325
 11
6162.627286
 21
170.824992
  0
LINE
  8
0
  6
CONTINUOUS
 62
     2
 10
6162.627286
 20
170.824992
 11
6158.627286
 21
175.114325
  0
LINE
  8
0
  6
CONTINUOUS
 62
     2
 10
6158.627286
 20
175.114325
 11
6157.627286
 21
175.114325
  0
LINE
  8
0
  6
CONTINUOUS
 62
     2
 10
6157.627286
 20
175.114325
 11
6155.627286
 21
173.114325
  0
LINE
  8
0
  6
CONTINUOUS
 62
     2
 10
6155.627286
 20
173.114325
 11
6155.627286
 21
115.115325
  0
LINE
  8
0
  6
CONTINUOUS
 62
     4
 10
6160.655730
 20
182.960278
 11
6158.627286
 21
182.416758
  0
LINE
  8
0
  6
CONTINUOUS
 62
     4
 10
6158.627286
 20
182.416758
 11
6160.655730
 21
181.873238
  0
LINE
  8
0
  6
CONTINUOUS
 62
     4
 10
6164.598841
 20
181.873238
 11
6166.627286
 21
182.416758
  0
LINE
  8
0
  6
CONTINUOUS
 62
     4
 10
6166.627286
 20
182.416758
 11
6164.598841
 21
182.960278
  0
LINE
  8
0
  6
CONTINUOUS
 62
     4
 10
6158.627286
 20
182.416758
 11
6166.627286
 21
182.416758
  0
TEXT
  8
0
 62
     4
 10
6160.627286
 20
183.416758
 40
10.000000
  1
8
 41
0.800000
  7
GOTHIC
 72
     1
 11
6162.627286
 21
183.416758
  0
LINE
  8
0
  6
CONTINUOUS
 62
     4
 10
6158.627286
 20
177.614325
 11
6158.627286
 21
184.916758
  0
LINE
  8
0
  6
CONTINUOUS
 62
     4
 10
6166.627286
 20
177.614325
 11
6166.627286
 21
184.916758
  0
LINE
  8
0
  6
CONTINUOUS
 62
     4
 10
6187.484867
 20
173.085881
 11
6186.941347
 21
175.114325
  0
LINE
  8
0
  6
CONTINUOUS
 62
     4
 10
6186.941347
 20
175.114325
 11
6186.397827
 21
173.085881
  0
LINE
  8
0
  6
CONTINUOUS
 62
     4
 10
6186.397827
 20
117.143770
 11
6186.941347
 21
115.115325
  0
LINE
  8
0
  6
CONTINUOUS
 62
     4
 10
6186.941347
 20
115.115325
 11
6187.484867
 21
117.143770
  0
LINE
  8
0
  6
CONTINUOUS
 62
     4
 10
6186.941347
 20
175.114325
 11
6186.941347
 21
115.115325
  0
TEXT
  8
0
 62
     4
 10
6185.941347
 20
141.114825
 40
10.000000
  1
60
 50
90.000000
 41
0.800000
  7
GOTHIC
 72
     1
 11
6185.941347
 21
145.114825
  0
LINE
  8
0
  6
CONTINUOUS
 62
     4
 10
6169.627286
 20
175.114325
 11
6189.441347
 21
175.114325
  0
LINE
  8
0
  6
CONTINUOUS
 62
     4
 10
6172.127286
 20
115.115325
 11
6189.441347
 21
115.115325
  0
TEXT
  8
0
 62
     7
 10
6166.796675
 20
69.233704
 40
24.143239
  1
V8
 41
0.800000
  7
GOTHIC
 11
6166.796675
 21
93.376943
 73
     3
  0
LINE
  8
0
  6
CONTINUOUS
 62
   134
 10
6165.570397
 20
200.405459
 11
6169.627286
 21
201.492499
  0
LINE
  8
0
  6
CONTINUOUS
 62
   134
 10
6169.627286
 20
201.492499
 11
6165.570397
 21
202.579539
  0
LINE
  8
0
  6
CONTINUOUS
 62
   134
 10
6159.684174
 20
202.579539
 11
6155.627286
 21
201.492499
  0
LINE
  8
0
  6
CONTINUOUS
 62
   134
 10
6155.627286
 20
201.492499
 11
6159.684174
 21
200.405459
  0
LINE
  8
0
  6
CONTINUOUS
 62
   134
 10
6169.627286
 20
201.492499
 11
6155.627286
 21
201.492499
  0
TEXT
  8
0
 62
   134
 10
6154.627286
 20
203.492499
 40
20.000000
  1
14
 41
0.800000
  7
GOTHIC
 72
     1
 11
6162.627286
 21
203.492499
  0
LINE
  8
0
  6
CONTINUOUS
 62
   134
 10
6169.627286
 20
135.115325
 11
6169.627286
 21
206.492499
  0
LINE
  8
0
  6
CONTINUOUS
 62
   134
 10
6155.627286
 20
178.114325
 11
6155.627286
 21
206.492499
  0
LINE
  8
0
  6
CONTINUOUS
 62
     1
 10
125.435200
 20
3846.159986
 11
120.000000
 21
3866.444428
  0
LINE
  8
0
  6
CONTINUOUS
 62
     1
 10
120.000000
 20
3866.444428
 11
114.564800
 21
3846.159986
  0
LINE
  8
0
  6
CONTINUOUS
 62
     1
 10
114.564800
 20
3716.728871
 11
120.000000
 21
3696.444428
  0
LINE
  8
0
  6
CONTINUOUS
 62
     1
 10
120.000000
 20
3696.444428
 11
125.435200
 21
3716.728871
  0
LINE
  8
0
  6
CONTINUOUS
 62
     1
 10
120.000000
 20
3866.444428
 11
120.000000
 21
3696.444428
  0
TEXT
  8
0
 62
     1
 10
110.000000
 20
3721.444428
 40
100.000000
  1
170
 50
90.000000
 41
0.800000
  7
GOTHIC
 72
     1
 11
110.000000
 21
3781.444428
  0
LINE
  8
0
  6
CONTINUOUS
 62
     1
 10
259.227848
 20
3866.444428
 11
95.000000
 21
3866.444428
  0
LINE
  8
0
  6
CONTINUOUS
 62
     1
 10
251.727848
 20
3696.444428
 11
95.000000
 21
3696.444428
  0
LINE
  8
0
  6
CONTINUOUS
 62
     2
 10
2786.399463
 20
840.492735
 11
2846.389463
 21
840.492735
  0
LINE
  8
0
  6
CONTINUOUS
 62
     2
 10
2846.389463
 20
840.492735
 11
2846.389463
 21
900.492735
  0
LINE
  8
0
  6
CONTINUOUS
 62
     2
 10
2846.389463
 20
900.492735
 11
2838.159463
 21
900.492735
  0
LINE
  8
0
  6
CONTINUOUS
 62
     2
 10
2838.159463
 20
900.492735
 11
2837.319463
 21
900.412735
  0
LINE
  8
0
  6
CONTINUOUS
 62
     2
 10
2837.319463
 20
900.412735
 11
2836.539463
 21
900.162735
  0
LINE
  8
0
  6
CONTINUOUS
 62
     2
 10
2836.539463
 20
900.162735
 11
2835.829463
 21
899.752735
  0
LINE
  8
0
  6
CONTINUOUS
 62
     2
 10
2835.829463
 20
899.752735
 11
2835.189463
 21
899.192735
  0
LINE
  8
0
  6
CONTINUOUS
 62
     2
 10
2835.189463
 20
899.192735
 11
2832.399463
 21
896.122735
  0
LINE
  8
0
  6
CONTINUOUS
 62
     2
 10
2832.399463
 20
896.122735
 11
2832.399463
 21
894.652735
  0
LINE
  8
0
  6
CONTINUOUS
 62
     2
 10
2832.399463
 20
894.652735
 11
2819.339463
 21
880.392735
  0
LINE
  8
0
  6
CONTINUOUS
 62
     2
 10
2819.339463
 20
880.392735
 11
2817.999463
 21
879.462735
  0
LINE
  8
0
  6
CONTINUOUS
 62
     2
 10
2817.999463
 20
879.462735
 11
2816.389463
 21
879.102735
  0
LINE
  8
0
  6
CONTINUOUS
 62
     2
 10
2816.389463
 20
879.102735
 11
2814.769463
 21
879.462735
  0
LINE
  8
0
  6
CONTINUOUS
 62
     2
 10
2814.769463
 20
879.462735
 11
2813.449463
 21
880.392735
  0
LINE
  8
0
  6
CONTINUOUS
 62
     2
 10
2813.449463
 20
880.392735
 11
2800.389463
 21
894.652735
  0
LINE
  8
0
  6
CONTINUOUS
 62
     2
 10
2800.389463
 20
894.652735
 11
2800.389463
 21
896.122735
  0
LINE
  8
0
  6
CONTINUOUS
 62
     2
 10
2800.389463
 20
896.122735
 11
2797.569463
 21
899.192735
  0
LINE
  8
0
  6
CONTINUOUS
 62
     2
 10
2797.569463
 20
899.192735
 11
2796.959463
 21
899.752735
  0
LINE
  8
0
  6
CONTINUOUS
 62
     2
 10
2796.959463
 20
899.752735
 11
2796.249463
 21
900.162735
  0
LINE
  8
0
  6
CONTINUOUS
 62
     2
 10
2796.249463
 20
900.162735
 11
2795.469463
 21
900.412735
  0
LINE
  8
0
  6
CONTINUOUS
 62
     2
 10
2795.469463
 20
900.412735
 11
2794.649463
 21
900.492735
  0
LINE
  8
0
  6
CONTINUOUS
 62
     2
 10
2794.649463
 20
900.492735
 11
2786.399463
 21
900.492735
  0
LINE
  8
0
  6
CONTINUOUS
 62
     2
 10
2786.399463
 20
900.492735
 11
2786.399463
 21
840.492735
  0
LINE
  8
0
  6
CONTINUOUS
 62
     2
 10
2786.389463
 20
785.492735
 11
2846.389463
 21
785.492735
  0
LINE
  8
0
  6
CONTINUOUS
 62
     2
 10
2846.389463
 20
785.492735
 11
2846.389463
 21
805.492735
  0
LINE
  8
0
  6
CONTINUOUS
 62
     2
 10
2846.389463
 20
805.492735
 11
2853.389463
 21
805.492735
  0
LINE
  8
0
  6
CONTINUOUS
 62
     2
 10
2853.389463
 20
805.492735
 11
2863.389463
 21
822.492735
  0
LINE
  8
0
  6
CONTINUOUS
 62
     2
 10
2863.389463
 20
822.492735
 11
2863.389463
 21
838.492735
  0
LINE
  8
0
  6
CONTINUOUS
 62
     2
 10
2863.389463
 20
838.492735
 11
2853.389463
 21
855.492735
  0
LINE
  8
0
  6
CONTINUOUS
 62
     2
 10
2853.389463
 20
855.492735
 11
2846.389463
 21
855.492735
  0
LINE
  8
0
  6
CONTINUOUS
 62
     2
 10
2846.389463
 20
855.492735
 11
2846.389463
 21
840.492735
  0
LINE
  8
0
  6
CONTINUOUS
 62
     2
 10
2846.389463
 20
840.492735
 11
2786.389463
 21
840.492735
  0
LINE
  8
0
  6
CONTINUOUS
 62
     2
 10
2786.389463
 20
840.492735
 11
2786.389463
 21
855.492735
  0
LINE
  8
0
  6
CONTINUOUS
 62
     2
 10
2786.389463
 20
855.492735
 11
2779.389463
 21
855.492735
  0
LINE
  8
0
  6
CONTINUOUS
 62
     2
 10
2779.389463
 20
855.492735
 11
2769.389463
 21
838.492735
  0
LINE
  8
0
  6
CONTINUOUS
 62
     2
 10
2769.389463
 20
838.492735
 11
2769.389463
 21
822.492735
  0
LINE
  8
0
  6
CONTINUOUS
 62
     2
 10
2769.389463
 20
822.492735
 11
2779.389463
 21
805.492735
  0
LINE
  8
0
  6
CONTINUOUS
 62
     2
 10
2779.389463
 20
805.492735
 11
2786.389463
 21
805.492735
  0
LINE
  8
0
  6
CONTINUOUS
 62
     2
 10
2786.389463
 20
805.492735
 11
2786.389463
 21
785.492735
  0
LINE
  8
0
  6
CONTINUOUS
 62
   134
 10
2791.470573
 20
921.052934
 11
2786.399463
 21
919.694134
  0
LINE
  8
0
  6
CONTINUOUS
 62
   134
 10
2786.399463
 20
919.694134
 11
2791.470573
 21
918.335334
  0
LINE
  8
0
  6
CONTINUOUS
 62
   134
 10
2841.318352
 20
918.335334
 11
2846.389463
 21
919.694134
  0
LINE
  8
0
  6
CONTINUOUS
 62
   134
 10
2846.389463
 20
919.694134
 11
2841.318352
 21
921.052934
  0
LINE
  8
0
  6
CONTINUOUS
 62
   134
 10
2786.399463
 20
919.694134
 11
2846.389463
 21
919.694134
  0
TEXT
  8
0
 62
   134
 10
2810.394463
 20
921.194134
 40
15.000000
  1
60
 41
0.800000
  7
GOTHIC
 72
     1
 11
2816.394463
 21
921.194134
  0
LINE
  8
0
  6
CONTINUOUS
 62
   134
 10
2786.399463
 20
904.242735
 11
2786.399463
 21
923.444134
  0
LINE
  8
0
  6
CONTINUOUS
 62
   134
 10
2846.389463
 20
904.242735
 11
2846.389463
 21
923.444134
  0
LINE
  8
0
  6
CONTINUOUS
 62
   134
 10
2781.328352
 20
918.335334
 11
2786.399463
 21
919.694134
  0
LINE
  8
0
  6
CONTINUOUS
 62
   134
 10
2786.399463
 20
919.694134
 11
2781.328352
 21
921.052934
  0
LINE
  8
0
  6
CONTINUOUS
 62
   134
 10
2774.460573
 20
921.052934
 11
2769.389463
 21
919.694134
  0
LINE
  8
0
  6
CONTINUOUS
 62
   134
 10
2769.389463
 20
919.694134
 11
2774.460573
 21
918.335334
  0
LINE
  8
0
  6
CONTINUOUS
 62
   134
 10
2786.399463
 20
919.694134
 11
2769.389463
 21
919.694134
  0
TEXT
  8
0
 62
   134
 10
2771.894463
 20
921.194134
 40
15.000000
  1
17
 41
0.800000
  7
GOTHIC
 72
     1
 11
2777.894463
 21
921.194134
  0
LINE
  8
0
  6
CONTINUOUS
 62
   134
 10
2786.399463
 20
904.242735
 11
2786.399463
 21
923.444134
  0
LINE
  8
0
  6
CONTINUOUS
 62
   134
 10
2769.389463
 20
842.242735
 11
2769.389463
 21
923.444134
  0
LINE
  8
0
  6
CONTINUOUS
 62
   134
 10
2851.460573
 20
921.052934
 11
2846.389463
 21
919.694134
  0
LINE
  8
0
  6
CONTINUOUS
 62
   134
 10
2846.389463
 20
919.694134
 11
2851.460573
 21
918.335334
  0
LINE
  8
0
  6
CONTINUOUS
 62
   134
 10
2858.318352
 20
918.335334
 11
2863.389463
 21
919.694134
  0
LINE
  8
0
  6
CONTINUOUS
 62
   134
 10
2863.389463
 20
919.694134
 11
2858.318352
 21
921.052934
  0
LINE
  8
0
  6
CONTINUOUS
 62
   134
 10
2846.389463
 20
919.694134
 11
2863.389463
 21
919.694134
  0
TEXT
  8
0
 62
   134
 10
2848.889463
 20
921.194134
 40
15.000000
  1
17
 41
0.800000
  7
GOTHIC
 72
     1
 11
2854.889463
 21
921.194134
  0
LINE
  8
0
  6
CONTINUOUS
 62
   134
 10
2846.389463
 20
904.242735
 11
2846.389463
 21
923.444134
  0
LINE
  8
0
  6
CONTINUOUS
 62
   134
 10
2863.389463
 20
842.242735
 11
2863.389463
 21
923.444134
  0
LINE
  8
0
  6
CONTINUOUS
 62
     2
 10
2903.389463
 20
785.492735
 11
2846.389463
 21
785.492735
  0
LINE
  8
0
  6
CONTINUOUS
 62
     2
 10
2729.399463
 20
785.492735
 11
2786.399463
 21
785.492735
  0
LINE
  8
0
  6
CONTINUOUS
 62
   134
 10
2896.621113
 20
895.421624
 11
2895.262313
 21
900.492735
  0
LINE
  8
0
  6
CONTINUOUS
 62
   134
 10
2895.262313
 20
900.492735
 11
2893.903513
 21
895.421624
  0
LINE
  8
0
  6
CONTINUOUS
 62
   134
 10
2893.903513
 20
845.563845
 11
2895.262313
 21
840.492735
  0
LINE
  8
0
  6
CONTINUOUS
 62
   134
 10
2895.262313
 20
840.492735
 11
2896.621113
 21
845.563845
  0
LINE
  8
0
  6
CONTINUOUS
 62
   134
 10
2895.262313
 20
900.492735
 11
2895.262313
 21
840.492735
  0
TEXT
  8
0
 62
   134
 10
2893.762313
 20
864.492735
 40
15.000000
  1
60
 50
90.000000
 41
0.800000
  7
GOTHIC
 72
     1
 11
2893.762313
 21
870.492735
  0
LINE
  8
0
  6
CONTINUOUS
 62
   134
 10
2850.139463
 20
900.492735
 11
2899.012313
 21
900.492735
  0
LINE
  8
0
  6
CONTINUOUS
 62
   134
 10
2850.139463
 20
840.492735
 11
2899.012313
 21
840.492735
  0
LINE
  8
0
  6
CONTINUOUS
 62
     2
 10
2923.389463
 20
747.492735
 11
2729.399463
 21
747.492735
  0
LINE
  8
0
  6
CONTINUOUS
 62
   134
 10
2714.470573
 20
693.980237
 11
2709.399463
 21
692.621437
  0
LINE
  8
0
  6
CONTINUOUS
 62
   134
 10
2709.399463
 20
692.621437
 11
2714.470573
 21
691.262637
  0
LINE
  8
0
  6
CONTINUOUS
 62
   134
 10
2781.318352
 20
691.262637
 11
2786.389463
 21
692.621437
  0
LINE
  8
0
  6
CONTINUOUS
 62
   134
 10
2786.389463
 20
692.621437
 11
2781.318352
 21
693.980237
  0
LINE
  8
0
  6
CONTINUOUS
 62
   134
 10
2709.399463
 20
692.621437
 11
2786.389463
 21
692.621437
  0
TEXT
  8
0
 62
   134
 10
2741.894463
 20
694.121437
 40
15.000000
  1
77
 41
0.800000
  7
GOTHIC
 72
     1
 11
2747.894463
 21
694.121437
  0
LINE
  8
0
  6
CONTINUOUS
 62
   134
 10
2709.399463
 20
743.742735
 11
2709.399463
 21
688.871437
  0
LINE
  8
0
  6
CONTINUOUS
 62
   134
 10
2786.389463
 20
766.742735
 11
2786.389463
 21
688.871437
  0
LINE
  8
0
  6
CONTINUOUS
 62
   134
 10
2791.460573
 20
693.980237
 11
2786.389463
 21
692.621437
  0
LINE
  8
0
  6
CONTINUOUS
 62
   134
 10
2786.389463
 20
692.621437
 11
2791.460573
 21
691.262637
  0
LINE
  8
0
  6
CONTINUOUS
 62
   134
 10
2841.318352
 20
691.262637
 11
2846.389463
 21
692.621437
  0
LINE
  8
0
  6
CONTINUOUS
 62
   134
 10
2846.389463
 20
692.621437
 11
2841.318352
 21
693.980237
  0
LINE
  8
0
  6
CONTINUOUS
 62
   134
 10
2786.389463
 20
692.621437
 11
2846.389463
 21
692.621437
  0
TEXT
  8
0
 62
   134
 10
2810.389463
 20
694.121437
 40
15.000000
  1
60
 41
0.800000
  7
GOTHIC
 72
     1
 11
2816.389463
 21
694.121437
  0
LINE
  8
0
  6
CONTINUOUS
 62
   134
 10
2786.389463
 20
766.742735
 11
2786.389463
 21
688.871437
  0
LINE
  8
0
  6
CONTINUOUS
 62
   134
 10
2846.389463
 20
766.742735
 11
2846.389463
 21
688.871437
  0
LINE
  8
0
  6
CONTINUOUS
 62
   134
 10
2851.460573
 20
693.980237
 11
2846.389463
 21
692.621437
  0
LINE
  8
0
  6
CONTINUOUS
 62
   134
 10
2846.389463
 20
692.621437
 11
2851.460573
 21
691.262637
  0
LINE
  8
0
  6
CONTINUOUS
 62
   134
 10
2918.318352
 20
691.262637
 11
2923.389463
 21
692.621437
  0
LINE
  8
0
  6
CONTINUOUS
 62
   134
 10
2923.389463
 20
692.621437
 11
2918.318352
 21
693.980237
  0
LINE
  8
0
  6
CONTINUOUS
 62
   134
 10
2846.389463
 20
692.621437
 11
2923.389463
 21
692.621437
  0
TEXT
  8
0
 62
   134
 10
2878.889463
 20
694.121437
 40
15.000000
  1
77
 41
0.800000
  7
GOTHIC
 72
     1
 11
2884.889463
 21
694.121437
  0
LINE
  8
0
  6
CONTINUOUS
 62
   134
 10
2846.389463
 20
766.742735
 11
2846.389463
 21
688.871437
  0
LINE
  8
0
  6
CONTINUOUS
 62
   134
 10
2923.389463
 20
743.742735
 11
2923.389463
 21
688.871437
  0
LINE
  8
0
  6
CONTINUOUS
 62
     2
 10
2692.399463
 20
752.492735
 11
2692.399463
 21
772.492735
  0
LINE
  8
0
  6
CONTINUOUS
 62
     2
 10
2692.399463
 20
772.492735
 11
2709.399463
 21
772.492735
  0
LINE
  8
0
  6
CONTINUOUS
 62
     2
 10
2692.399463
 20
752.492735
 11
2709.399463
 21
752.492735
  0
LINE
  8
0
  6
CONTINUOUS
 62
   134
 10
2814.543921
 20
850.421624
 11
2813.185121
 21
855.492735
  0
LINE
  8
0
  6
CONTINUOUS
 62
   134
 10
2813.185121
 20
855.492735
 11
2811.826321
 21
850.421624
  0
LINE
  8
0
  6
CONTINUOUS
 62
   134
 10
2811.826321
 20
810.563845
 11
2813.185121
 21
805.492735
  0
LINE
  8
0
  6
CONTINUOUS
 62
   134
 10
2813.185121
 20
805.492735
 11
2814.543921
 21
810.563845
  0
LINE
  8
0
  6
CONTINUOUS
 62
   134
 10
2813.185121
 20
855.492735
 11
2813.185121
 21
805.492735
  0
TEXT
  8
0
 62
   134
 10
2811.685121
 20
824.492735
 40
15.000000
  1
50
 50
90.000000
 41
0.800000
  7
GOTHIC
 72
     1
 11
2811.685121
 21
830.492735
  0
LINE
  8
0
  6
CONTINUOUS
 62
   134
 10
2783.139463
 20
855.492735
 11
2816.935121
 21
855.492735
  0
LINE
  8
0
  6
CONTINUOUS
 62
   134
 10
2790.139463
 20
805.492735
 11
2816.935121
 21
805.492735
  0
LINE
  8
0
  6
CONTINUOUS
 62
   134
 10
2814.543921
 20
800.421624
 11
2813.185121
 21
805.492735
  0
LINE
  8
0
  6
CONTINUOUS
 62
   134
 10
2813.185121
 20
805.492735
 11
2811.826321
 21
800.421624
  0
LINE
  8
0
  6
CONTINUOUS
 62
   134
 10
2811.826321
 20
790.563845
 11
2813.185121
 21
785.492735
  0
LINE
  8
0
  6
CONTINUOUS
 62
   134
 10
2813.185121
 20
785.492735
 11
2814.543921
 21
790.563845
  0
LINE
  8
0
  6
CONTINUOUS
 62
   134
 10
2813.185121
 20
805.492735
 11
2813.185121
 21
785.492735
  0
TEXT
  8
0
 62
   134
 10
2811.685121
 20
789.492735
 40
15.000000
  1
20
 50
90.000000
 41
0.800000
  7
GOTHIC
 72
     1
 11
2811.685121
 21
795.492735
  0
LINE
  8
0
  6
CONTINUOUS
 62
   134
 10
2704.328352
 20
691.262637
 11
2709.399463
 21
692.621437
  0
LINE
  8
0
  6
CONTINUOUS
 62
   134
 10
2709.399463
 20
692.621437
 11
2704.328352
 21
693.980237
  0
LINE
  8
0
  6
CONTINUOUS
 62
   134
 10
2697.470573
 20
693.980237
 11
2692.399463
 21
692.621437
  0
LINE
  8
0
  6
CONTINUOUS
 62
   134
 10
2692.399463
 20
692.621437
 11
2697.470573
 21
691.262637
  0
LINE
  8
0
  6
CONTINUOUS
 62
   134
 10
2709.399463
 20
692.621437
 11
2692.399463
 21
692.621437
  0
TEXT
  8
0
 62
   134
 10
2694.899463
 20
694.121437
 40
15.000000
  1
17
 41
0.800000
  7
GOTHIC
 72
     1
 11
2700.899463
 21
694.121437
  0
LINE
  8
0
  6
CONTINUOUS
 62
   134
 10
2709.399463
 20
743.742735
 11
2709.399463
 21
688.871437
  0
LINE
  8
0
  6
CONTINUOUS
 62
   134
 10
2692.399463
 20
752.742735
 11
2692.399463
 21
688.871437
  0
LINE
  8
0
  6
CONTINUOUS
 62
   134
 10
2935.318352
 20
691.262637
 11
2940.389463
 21
692.621437
  0
LINE
  8
0
  6
CONTINUOUS
 62
   134
 10
2940.389463
 20
692.621437
 11
2935.318352
 21
693.980237
  0
LINE
  8
0
  6
CONTINUOUS
 62
   134
 10
2928.460573
 20
693.980237
 11
2923.389463
 21
692.621437
  0
LINE
  8
0
  6
CONTINUOUS
 62
   134
 10
2923.389463
 20
692.621437
 11
2928.460573
 21
691.262637
  0
LINE
  8
0
  6
CONTINUOUS
 62
   134
 10
2940.389463
 20
692.621437
 11
2923.389463
 21
692.621437
  0
TEXT
  8
0
 62
   134
 10
2925.889463
 20
694.121437
 40
15.000000
  1
17
 41
0.800000
  7
GOTHIC
 72
     1
 11
2931.889463
 21
694.121437
  0
LINE
  8
0
  6
CONTINUOUS
 62
   134
 10
2940.389463
 20
752.742735
 11
2940.389463
 21
688.871437
  0
LINE
  8
0
  6
CONTINUOUS
 62
   134
 10
2923.389463
 20
743.742735
 11
2923.389463
 21
688.871437
  0
LINE
  8
0
  6
CONTINUOUS
 62
   134
 10
2896.621113
 20
835.421624
 11
2895.262313
 21
840.492735
  0
LINE
  8
0
  6
CONTINUOUS
 62
   134
 10
2895.262313
 20
840.492735
 11
2893.903513
 21
835.421624
  0
LINE
  8
0
  6
CONTINUOUS
 62
   134
 10
2893.903513
 20
790.563845
 11
2895.262313
 21
785.492735
  0
LINE
  8
0
  6
CONTINUOUS
 62
   134
 10
2895.262313
 20
785.492735
 11
2896.621113
 21
790.563845
  0
LINE
  8
0
  6
CONTINUOUS
 62
   134
 10
2895.262313
 20
840.492735
 11
2895.262313
 21
785.492735
  0
TEXT
  8
0
 62
   134
 10
2893.762313
 20
806.992735
 40
15.000000
  1
55
 50
90.000000
 41
0.800000
  7
GOTHIC
 72
     1
 11
2893.762313
 21
812.992735
  0
LINE
  8
0
  6
CONTINUOUS
 62
   134
 10
2893.903513
 20
752.563845
 11
2895.262313
 21
747.492735
  0
LINE
  8
0
  6
CONTINUOUS
 62
   134
 10
2895.262313
 20
747.492735
 11
2896.621113
 21
752.563845
  0
LINE
  8
0
  6
CONTINUOUS
 62
   134
 10
2896.621113
 20
780.421624
 11
2895.262313
 21
785.492735
  0
LINE
  8
0
  6
CONTINUOUS
 62
   134
 10
2895.262313
 20
785.492735
 11
2893.903513
 21
780.421624
  0
LINE
  8
0
  6
CONTINUOUS
 62
   134
 10
2895.262313
 20
747.492735
 11
2895.262313
 21
785.492735
  0
TEXT
  8
0
 62
   134
 10
2893.762313
 20
760.492735
 40
15.000000
  1
38
 50
90.000000
 41
0.800000
  7
GOTHIC
 72
     1
 11
2893.762313
 21
766.492735
  0
LINE
  8
0
  6
CONTINUOUS
 62
   134
 10
2673.270531
 20
757.563845
 11
2674.629331
 21
752.492735
  0
LINE
  8
0
  6
CONTINUOUS
 62
   134
 10
2674.629331
 20
752.492735
 11
2675.988131
 21
757.563845
  0
LINE
  8
0
  6
CONTINUOUS
 62
   134
 10
2675.988131
 20
767.421624
 11
2674.629331
 21
772.492735
  0
LINE
  8
0
  6
CONTINUOUS
 62
   134
 10
2674.629331
 20
772.492735
 11
2673.270531
 21
767.421624
  0
LINE
  8
0
  6
CONTINUOUS
 62
   134
 10
2674.629331
 20
752.492735
 11
2674.629331
 21
772.492735
  0
TEXT
  8
0
 62
   134
 10
2673.129331
 20
756.492735
 40
15.000000
  1
20
 50
90.000000
 41
0.800000
  7
GOTHIC
 72
     1
 11
2673.129331
 21
762.492735
  0
LINE
  8
0
  6
CONTINUOUS
 62
   134
 10
2688.649463
 20
752.492735
 11
2670.879331
 21
752.492735
  0
LINE
  8
0
  6
CONTINUOUS
 62
   134
 10
2688.649463
 20
772.492735
 11
2670.879331
 21
772.492735
  0
LINE
  8
0
  6
CONTINUOUS
 62
     2
 10
2786.399463
 20
800.492735
 11
2709.399463
 21
800.492735
  0
LINE
  8
0
  6
CONTINUOUS
 62
     2
 10
2729.399463
 20
785.492735
 11
2729.399463
 21
747.492735
  0
LINE
  8
0
  6
CONTINUOUS
 62
     2
 10
2709.399463
 20
747.492735
 11
2709.399463
 21
800.492735
  0
LINE
  8
0
  6
CONTINUOUS
 62
     2
 10
2729.399463
 20
747.492735
 11
2709.399463
 21
747.492735
  0
LINE
  8
0
  6
CONTINUOUS
 62
     2
 10
2940.389463
 20
752.492735
 11
2940.389463
 21
772.492735
  0
LINE
  8
0
  6
CONTINUOUS
 62
     2
 10
2940.389463
 20
772.492735
 11
2923.389463
 21
772.492735
  0
LINE
  8
0
  6
CONTINUOUS
 62
     2
 10
2940.389463
 20
752.492735
 11
2923.389463
 21
752.492735
  0
LINE
  8
0
  6
CONTINUOUS
 62
     2
 10
2846.389463
 20
800.492735
 11
2923.389463
 21
800.492735
  0
LINE
  8
0
  6
CONTINUOUS
 62
     2
 10
2903.389463
 20
785.492735
 11
2903.389463
 21
747.492735
  0
LINE
  8
0
  6
CONTINUOUS
 62
     2
 10
2923.389463
 20
747.492735
 11
2923.389463
 21
800.492735
  0
LINE
  8
0
  6
CONTINUOUS
 62
     2
 10
2903.389463
 20
747.492735
 11
2923.389463
 21
747.492735
  0
LINE
  8
0
  6
CONTINUOUS
 62
   134
 10
2781.318352
 20
722.685540
 11
2786.389463
 21
724.044340
  0
LINE
  8
0
  6
CONTINUOUS
 62
   134
 10
2786.389463
 20
724.044340
 11
2781.318352
 21
725.403140
  0
LINE
  8
0
  6
CONTINUOUS
 62
   134
 10
2734.470573
 20
725.403140
 11
2729.399463
 21
724.044340
  0
LINE
  8
0
  6
CONTINUOUS
 62
   134
 10
2729.399463
 20
724.044340
 11
2734.470573
 21
722.685540
  0
LINE
  8
0
  6
CONTINUOUS
 62
   134
 10
2786.389463
 20
724.044340
 11
2729.399463
 21
724.044340
  0
TEXT
  8
0
 62
   134
 10
2751.894463
 20
725.544340
 40
15.000000
  1
57
 41
0.800000
  7
GOTHIC
 72
     1
 11
2757.894463
 21
725.544340
  0
LINE
  8
0
  6
CONTINUOUS
 62
   134
 10
2729.399463
 20
743.742735
 11
2729.399463
 21
720.294340
  0
LINE
  8
0
  6
CONTINUOUS
 62
   134
 10
2724.328352
 20
722.685540
 11
2729.399463
 21
724.044340
  0
LINE
  8
0
  6
CONTINUOUS
 62
   134
 10
2729.399463
 20
724.044340
 11
2724.328352
 21
725.403140
  0
LINE
  8
0
  6
CONTINUOUS
 62
   134
 10
2714.470573
 20
725.403140
 11
2709.399463
 21
724.044340
  0
LINE
  8
0
  6
CONTINUOUS
 62
   134
 10
2709.399463
 20
724.044340
 11
2714.470573
 21
722.685540
  0
LINE
  8
0
  6
CONTINUOUS
 62
   134
 10
2729.399463
 20
724.044340
 11
2709.399463
 21
724.044340
  0
TEXT
  8
0
 62
   134
 10
2713.399463
 20
725.544340
 40
15.000000
  1
20
 41
0.800000
  7
GOTHIC
 72
     1
 11
2719.399463
 21
725.544340
  0
LINE
  8
0
  6
CONTINUOUS
 62
   134
 10
2729.399463
 20
743.742735
 11
2729.399463
 21
720.294340
  0
LINE
  8
0
  6
CONTINUOUS
 62
   134
 10
2709.399463
 20
743.742735
 11
2709.399463
 21
720.294340
  0
LINE
  8
0
  6
CONTINUOUS
 62
   134
 10
2821.460573
 20
958.373917
 11
2816.389463
 21
957.015117
  0
LINE
  8
0
  6
CONTINUOUS
 62
   134
 10
2816.389463
 20
957.015117
 11
2821.460573
 21
955.656317
  0
LINE
  8
0
  6
CONTINUOUS
 62
   134
 10
2858.318352
 20
955.656317
 11
2863.389463
 21
957.015117
  0
LINE
  8
0
  6
CONTINUOUS
 62
   134
 10
2863.389463
 20
957.015117
 11
2858.318352
 21
958.373917
  0
LINE
  8
0
  6
CONTINUOUS
 62
   134
 10
2816.389463
 20
957.015117
 11
2863.389463
 21
957.015117
  0
TEXT
  8
0
 62
   134
 10
2833.889463
 20
958.515117
 40
15.000000
  1
47
 41
0.800000
  7
GOTHIC
 72
     1
 11
2839.889463
 21
958.515117
  0
LINE
  8
0
  6
CONTINUOUS
 62
   134
 10
2816.389463
 20
882.852735
 11
2816.389463
 21
960.765117
  0
LINE
  8
0
  6
CONTINUOUS
 62
   134
 10
2863.389463
 20
842.242735
 11
2863.389463
 21
960.765117
  0
LINE
  8
0
  6
CONTINUOUS
 62
   134
 10
2821.460573
 20
987.412776
 11
2816.389463
 21
986.053976
  0
LINE
  8
0
  6
CONTINUOUS
 62
   134
 10
2816.389463
 20
986.053976
 11
2821.460573
 21
984.695176
  0
LINE
  8
0
  6
CONTINUOUS
 62
   134
 10
2935.318352
 20
984.695176
 11
2940.389463
 21
986.053976
  0
LINE
  8
0
  6
CONTINUOUS
 62
   134
 10
2940.389463
 20
986.053976
 11
2935.318352
 21
987.412776
  0
LINE
  8
0
  6
CONTINUOUS
 62
   134
 10
2816.389463
 20
986.053976
 11
2940.389463
 21
986.053976
  0
TEXT
  8
0
 62
   134
 10
2869.389463
 20
987.553976
 40
15.000000
  1
124
 41
0.800000
  7
GOTHIC
 72
     1
 11
2878.389463
 21
987.553976
  0
LINE
  8
0
  6
CONTINUOUS
 62
   134
 10
2816.389463
 20
960.765117
 11
2816.389463
 21
989.803976
  0
LINE
  8
0
  6
CONTINUOUS
 62
   134
 10
2940.389463
 20
776.242735
 11
2940.389463
 21
989.803976
  0
ENDSEC
  0
EOF
