  0
SECTION
  2
HEADER
  9
$ACADVER
  1
AC1009
  9
$DWGCODEPAGE
  3
dos932
  9
$EXTMIN
 10
0.000000
 20
0.000000
  9
$EXTMAX
 10
861.376621
 20
709.365497
  9
$LIMMIN
 10
0.000000
 20
0.000000
  9
$LIMMAX
 10
861.376621
 20
709.365497
  9
$LTSCALE
 40
1.000000
  0
ENDSEC
  0
SECTION
  2
TABLES
  0
TABLE
  2
VPORT
 70
     1
  0
VPORT
  2
*ACTIVE
 70
     0
 10
0.000000
 20
0.000000
 11
1.000000
 21
1.000000
 12
430.688311
 22
354.682748
 13
0.000000
 23
0.000000
 14
1.000000
 24
1.000000
 15
0.000000
 25
0.000000
 16
0.000000
 26
0.000000
 36
1.000000
 17
0.000000
 27
0.000000
 37
0.000000
 40
709.365497
 41
1.214292
 42
50.000000
 43
0.000000
 44
0.000000
 50
0.000000
 51
0.000000
 71
     0
 72
   100
 73
     1
 74
     1
 75
     0
 76
     0
 77
     0
 78
     0
  0
ENDTAB
  0
TABLE
  2
LTYPE
 70
     5
  0
LTYPE
  2
CONTINUOUS
 70
    64
  3
CONTINUOUS
 72
    65
 73
     0
 40
0.000000
  0
LTYPE
  2
DASHED
 70
    64
  3
DASHED
 72
    65
 73
     2
 40
0.750000
 49
0.500000
 49
-0.250000
  0
LTYPE
  2
HIDDEN
 70
    64
  3
HIDDEN
 72
    65
 73
     2
 40
0.375000
 49
0.250000
 49
-0.125000
  0
LTYPE
  2
CENTER
 70
    64
  3
CENTER
 72
    65
 73
     4
 40
2.000000
 49
1.250000
 49
-0.250000
 49
0.250000
 49
-0.250000
  0
LTYPE
  2
PHANTOM
 70
    64
  3
PHANTOM
 72
    65
 73
     6
 40
2.500000
 49
1.250000
 49
-0.250000
 49
0.250000
 49
-0.250000
 49
0.250000
 49
-0.250000
  0
ENDTAB
  0
TABLE
  2
LAYER
 70
     1
  0
LAYER
  2
0
 70
     0
 62
     7
  6
CONTINUOUS
  0
ENDTAB
  0
TABLE
  2
STYLE
 70
     6
  0
STYLE
  2
STANDARD
 70
     0
 40
0.000000
 41
1.000000
 50
0.000000
 71
     0
 42
0.200000
  3
TXT
  4
BIGFONT
  0
STYLE
  2
TATEGAKI
 70
     4
 40
0.000000
 41
1.000000
 50
0.000000
 71
     0
 42
0.200000
  3
TXT
  4
BIGFONT
  0
STYLE
  2
MINCHO
 70
     0
 40
0.000000
 41
1.000000
 50
0.000000
 71
     0
 42
0.200000
  3
‚l‚r –¾’©
  4

  0
STYLE
  2
MINCHOV
 70
     0
 40
0.000000
 41
1.000000
 50
0.000000
 71
     0
 42
0.200000
  3
@‚l‚r –¾’©
  4

  0
STYLE
  2
GOTHIC
 70
     0
 40
0.000000
 41
1.000000
 50
0.000000
 71
     0
 42
0.200000
  3
‚l‚r ƒSƒVƒbƒN
  4

  0
STYLE
  2
GOTHICV
 70
     0
 40
0.000000
 41
1.000000
 50
0.000000
 71
     0
 42
0.200000
  3
@‚l‚r ƒSƒVƒbƒN
  4

  0
ENDTAB
  0
ENDSEC
  0
SECTION
  2
BLOCKS
  0
ENDSEC
  0
SECTION
  2
ENTITIES
  0
LINE
  8
0
  6
CONTINUOUS
 62
     2
 10
34.003044
 20
622.138508
 11
34.003044
 21
525.138508
  0
LINE
  8
0
  6
CONTINUOUS
 62
     2
 10
34.003044
 20
622.138508
 11
99.003044
 21
622.138508
  0
LINE
  8
0
  6
CONTINUOUS
 62
     2
 10
99.003044
 20
622.138508
 11
99.003044
 21
562.138508
  0
LINE
  8
0
  6
CONTINUOUS
 62
     2
 10
99.003044
 20
562.138508
 11
134.003044
 21
535.138508
  0
LINE
  8
0
  6
CONTINUOUS
 62
     2
 10
134.003044
 20
535.138508
 11
134.003044
 21
525.138508
  0
LINE
  8
0
  6
CONTINUOUS
 62
     2
 10
134.003044
 20
525.138508
 11
34.003044
 21
525.138508
  0
LINE
  8
0
  6
CONTINUOUS
 62
     2
 10
234.003044
 20
622.138508
 11
234.003044
 21
525.138508
  0
LINE
  8
0
  6
CONTINUOUS
 62
     2
 10
234.003044
 20
622.138508
 11
169.003044
 21
622.138508
  0
LINE
  8
0
  6
CONTINUOUS
 62
     2
 10
169.003044
 20
622.138508
 11
169.003044
 21
562.138508
  0
LINE
  8
0
  6
CONTINUOUS
 62
     2
 10
169.003044
 20
562.138508
 11
134.003044
 21
535.138508
  0
LINE
  8
0
  6
CONTINUOUS
 62
     2
 10
134.003044
 20
535.138508
 11
134.003044
 21
525.138508
  0
LINE
  8
0
  6
CONTINUOUS
 62
     2
 10
134.003044
 20
525.138508
 11
234.003044
 21
525.138508
  0
LINE
  8
0
  6
CONTINUOUS
 62
   134
 10
39.074154
 20
635.500692
 11
34.003044
 21
634.141892
  0
LINE
  8
0
  6
CONTINUOUS
 62
   134
 10
34.003044
 20
634.141892
 11
39.074154
 21
632.783092
  0
LINE
  8
0
  6
CONTINUOUS
 62
   134
 10
93.931933
 20
632.783092
 11
99.003044
 21
634.141892
  0
LINE
  8
0
  6
CONTINUOUS
 62
   134
 10
99.003044
 20
634.141892
 11
93.931933
 21
635.500692
  0
LINE
  8
0
  6
CONTINUOUS
 62
   134
 10
34.003044
 20
634.141892
 11
99.003044
 21
634.141892
  0
TEXT
  8
0
 62
   134
 10
60.503044
 20
635.641892
 40
15.000000
  1
65
 41
0.800000
  7
GOTHIC
 72
     1
 11
66.503044
 21
635.641892
  0
LINE
  8
0
  6
CONTINUOUS
 62
   134
 10
34.003044
 20
625.888508
 11
34.003044
 21
637.891892
  0
LINE
  8
0
  6
CONTINUOUS
 62
   134
 10
99.003044
 20
625.888508
 11
99.003044
 21
637.891892
  0
LINE
  8
0
  6
CONTINUOUS
 62
   134
 10
19.358800
 20
617.067397
 11
18.000000
 21
622.138508
  0
LINE
  8
0
  6
CONTINUOUS
 62
   134
 10
18.000000
 20
622.138508
 11
16.641200
 21
617.067397
  0
LINE
  8
0
  6
CONTINUOUS
 62
   134
 10
16.641200
 20
530.209619
 11
18.000000
 21
525.138508
  0
LINE
  8
0
  6
CONTINUOUS
 62
   134
 10
18.000000
 20
525.138508
 11
19.358800
 21
530.209619
  0
LINE
  8
0
  6
CONTINUOUS
 62
   134
 10
18.000000
 20
622.138508
 11
18.000000
 21
525.138508
  0
TEXT
  8
0
 62
   134
 10
16.500000
 20
567.638508
 40
15.000000
  1
97
 50
90.000000
 41
0.800000
  7
GOTHIC
 72
     1
 11
16.500000
 21
573.638508
  0
LINE
  8
0
  6
CONTINUOUS
 62
   134
 10
30.253044
 20
622.138508
 11
14.250000
 21
622.138508
  0
LINE
  8
0
  6
CONTINUOUS
 62
   134
 10
30.253044
 20
525.138508
 11
14.250000
 21
525.138508
  0
LINE
  8
0
  6
CONTINUOUS
 62
   134
 10
128.931933
 20
495.167622
 11
134.003044
 21
496.526422
  0
LINE
  8
0
  6
CONTINUOUS
 62
   134
 10
134.003044
 20
496.526422
 11
128.931933
 21
497.885222
  0
LINE
  8
0
  6
CONTINUOUS
 62
   134
 10
39.074154
 20
497.885222
 11
34.003044
 21
496.526422
  0
LINE
  8
0
  6
CONTINUOUS
 62
   134
 10
34.003044
 20
496.526422
 11
39.074154
 21
495.167622
  0
LINE
  8
0
  6
CONTINUOUS
 62
   134
 10
134.003044
 20
496.526422
 11
34.003044
 21
496.526422
  0
TEXT
  8
0
 62
   134
 10
75.003044
 20
498.026422
 40
15.000000
  1
100
 41
0.800000
  7
GOTHIC
 72
     1
 11
84.003044
 21
498.026422
  0
LINE
  8
0
  6
CONTINUOUS
 62
   134
 10
134.003044
 20
521.388508
 11
134.003044
 21
492.776422
  0
LINE
  8
0
  6
CONTINUOUS
 62
   134
 10
34.003044
 20
521.388508
 11
34.003044
 21
492.776422
  0
LINE
  8
0
  6
CONTINUOUS
 62
   134
 10
139.074154
 20
497.885222
 11
134.003044
 21
496.526422
  0
LINE
  8
0
  6
CONTINUOUS
 62
   134
 10
134.003044
 20
496.526422
 11
139.074154
 21
495.167622
  0
LINE
  8
0
  6
CONTINUOUS
 62
   134
 10
228.931933
 20
495.167622
 11
234.003044
 21
496.526422
  0
LINE
  8
0
  6
CONTINUOUS
 62
   134
 10
234.003044
 20
496.526422
 11
228.931933
 21
497.885222
  0
LINE
  8
0
  6
CONTINUOUS
 62
   134
 10
134.003044
 20
496.526422
 11
234.003044
 21
496.526422
  0
TEXT
  8
0
 62
   134
 10
175.003044
 20
498.026422
 40
15.000000
  1
100
 41
0.800000
  7
GOTHIC
 72
     1
 11
184.003044
 21
498.026422
  0
LINE
  8
0
  6
CONTINUOUS
 62
   134
 10
134.003044
 20
521.388508
 11
134.003044
 21
492.776422
  0
LINE
  8
0
  6
CONTINUOUS
 62
   134
 10
234.003044
 20
521.388508
 11
234.003044
 21
492.776422
  0
LINE
  8
0
  6
CONTINUOUS
 62
   134
 10
228.931933
 20
639.264981
 11
234.003044
 21
640.623781
  0
LINE
  8
0
  6
CONTINUOUS
 62
   134
 10
234.003044
 20
640.623781
 11
228.931933
 21
641.982581
  0
LINE
  8
0
  6
CONTINUOUS
 62
   134
 10
174.074154
 20
641.982581
 11
169.003044
 21
640.623781
  0
LINE
  8
0
  6
CONTINUOUS
 62
   134
 10
169.003044
 20
640.623781
 11
174.074154
 21
639.264981
  0
LINE
  8
0
  6
CONTINUOUS
 62
   134
 10
234.003044
 20
640.623781
 11
169.003044
 21
640.623781
  0
TEXT
  8
0
 62
   134
 10
195.503044
 20
642.123781
 40
15.000000
  1
65
 41
0.800000
  7
GOTHIC
 72
     1
 11
201.503044
 21
642.123781
  0
LINE
  8
0
  6
CONTINUOUS
 62
   134
 10
234.003044
 20
625.888508
 11
234.003044
 21
644.373781
  0
LINE
  8
0
  6
CONTINUOUS
 62
   134
 10
169.003044
 20
625.888508
 11
169.003044
 21
644.373781
  0
LINE
  8
0
  6
CONTINUOUS
 62
   134
 10
266.169155
 20
617.067397
 11
264.810355
 21
622.138508
  0
LINE
  8
0
  6
CONTINUOUS
 62
   134
 10
264.810355
 20
622.138508
 11
263.451555
 21
617.067397
  0
LINE
  8
0
  6
CONTINUOUS
 62
   134
 10
263.451555
 20
530.209619
 11
264.810355
 21
525.138508
  0
LINE
  8
0
  6
CONTINUOUS
 62
   134
 10
264.810355
 20
525.138508
 11
266.169155
 21
530.209619
  0
LINE
  8
0
  6
CONTINUOUS
 62
   134
 10
264.810355
 20
622.138508
 11
264.810355
 21
525.138508
  0
TEXT
  8
0
 62
   134
 10
263.310355
 20
567.638508
 40
15.000000
  1
97
 50
90.000000
 41
0.800000
  7
GOTHIC
 72
     1
 11
263.310355
 21
573.638508
  0
LINE
  8
0
  6
CONTINUOUS
 62
   134
 10
237.753044
 20
622.138508
 11
268.560355
 21
622.138508
  0
LINE
  8
0
  6
CONTINUOUS
 62
   134
 10
237.753044
 20
525.138508
 11
268.560355
 21
525.138508
  0
LINE
  8
0
  6
CONTINUOUS
 62
   134
 10
163.931933
 20
632.783092
 11
169.003044
 21
634.141892
  0
LINE
  8
0
  6
CONTINUOUS
 62
   134
 10
169.003044
 20
634.141892
 11
163.931933
 21
635.500692
  0
LINE
  8
0
  6
CONTINUOUS
 62
   134
 10
104.074154
 20
635.500692
 11
99.003044
 21
634.141892
  0
LINE
  8
0
  6
CONTINUOUS
 62
   134
 10
99.003044
 20
634.141892
 11
104.074154
 21
632.783092
  0
LINE
  8
0
  6
CONTINUOUS
 62
   134
 10
169.003044
 20
634.141892
 11
99.003044
 21
634.141892
  0
TEXT
  8
0
 62
   134
 10
128.003044
 20
635.641892
 40
15.000000
  1
70
 41
0.800000
  7
GOTHIC
 72
     1
 11
134.003044
 21
635.641892
  0
LINE
  8
0
  6
CONTINUOUS
 62
   134
 10
169.003044
 20
625.888508
 11
169.003044
 21
637.891892
  0
LINE
  8
0
  6
CONTINUOUS
 62
   134
 10
99.003044
 20
625.888508
 11
99.003044
 21
637.891892
  0
LINE
  8
0
  6
CONTINUOUS
 62
   134
 10
104.074154
 20
605.584286
 11
99.003044
 21
604.225486
  0
LINE
  8
0
  6
CONTINUOUS
 62
   134
 10
99.003044
 20
604.225486
 11
104.074154
 21
602.866686
  0
LINE
  8
0
  6
CONTINUOUS
 62
   134
 10
128.931933
 20
602.866686
 11
134.003044
 21
604.225486
  0
LINE
  8
0
  6
CONTINUOUS
 62
   134
 10
134.003044
 20
604.225486
 11
128.931933
 21
605.584286
  0
LINE
  8
0
  6
CONTINUOUS
 62
   134
 10
99.003044
 20
604.225486
 11
134.003044
 21
604.225486
  0
TEXT
  8
0
 62
   134
 10
110.503044
 20
605.725486
 40
15.000000
  1
35
 41
0.800000
  7
GOTHIC
 72
     1
 11
116.503044
 21
605.725486
  0
LINE
  8
0
  6
CONTINUOUS
 62
   134
 10
134.003044
 20
538.888508
 11
134.003044
 21
607.975486
  0
LINE
  8
0
  6
CONTINUOUS
 62
   134
 10
163.931933
 20
602.866686
 11
169.003044
 21
604.225486
  0
LINE
  8
0
  6
CONTINUOUS
 62
   134
 10
169.003044
 20
604.225486
 11
163.931933
 21
605.584286
  0
LINE
  8
0
  6
CONTINUOUS
 62
   134
 10
139.074154
 20
605.584286
 11
134.003044
 21
604.225486
  0
LINE
  8
0
  6
CONTINUOUS
 62
   134
 10
134.003044
 20
604.225486
 11
139.074154
 21
602.866686
  0
LINE
  8
0
  6
CONTINUOUS
 62
   134
 10
169.003044
 20
604.225486
 11
134.003044
 21
604.225486
  0
TEXT
  8
0
 62
   134
 10
145.503044
 20
605.725486
 40
15.000000
  1
35
 41
0.800000
  7
GOTHIC
 72
     1
 11
151.503044
 21
605.725486
  0
LINE
  8
0
  6
CONTINUOUS
 62
   134
 10
134.003044
 20
538.888508
 11
134.003044
 21
607.975486
  0
LINE
  8
0
  6
CONTINUOUS
 62
   134
 10
162.673153
 20
530.209619
 11
164.031953
 21
525.138508
  0
LINE
  8
0
  6
CONTINUOUS
 62
   134
 10
164.031953
 20
525.138508
 11
165.390753
 21
530.209619
  0
LINE
  8
0
  6
CONTINUOUS
 62
   134
 10
165.390753
 20
530.067397
 11
164.031953
 21
535.138508
  0
LINE
  8
0
  6
CONTINUOUS
 62
   134
 10
164.031953
 20
535.138508
 11
162.673153
 21
530.067397
  0
LINE
  8
0
  6
CONTINUOUS
 62
   134
 10
164.031953
 20
525.138508
 11
164.031953
 21
535.138508
  0
TEXT
  8
0
 62
   134
 10
162.531953
 20
524.138508
 40
15.000000
  1
10
 50
90.000000
 41
0.800000
  7
GOTHIC
 72
     1
 11
162.531953
 21
530.138508
  0
LINE
  8
0
  6
CONTINUOUS
 62
   134
 10
137.753044
 20
535.138508
 11
167.781953
 21
535.138508
  0
LINE
  8
0
  6
CONTINUOUS
 62
   134
 10
187.882711
 20
540.209619
 11
189.241511
 21
535.138508
  0
LINE
  8
0
  6
CONTINUOUS
 62
   134
 10
189.241511
 20
535.138508
 11
190.600311
 21
540.209619
  0
LINE
  8
0
  6
CONTINUOUS
 62
   134
 10
190.600311
 20
557.067397
 11
189.241511
 21
562.138508
  0
LINE
  8
0
  6
CONTINUOUS
 62
   134
 10
189.241511
 20
562.138508
 11
187.882711
 21
557.067397
  0
LINE
  8
0
  6
CONTINUOUS
 62
   134
 10
189.241511
 20
535.138508
 11
189.241511
 21
562.138508
  0
TEXT
  8
0
 62
   134
 10
187.741511
 20
542.638508
 40
15.000000
  1
27
 50
90.000000
 41
0.800000
  7
GOTHIC
 72
     1
 11
187.741511
 21
548.638508
  0
LINE
  8
0
  6
CONTINUOUS
 62
   134
 10
167.781953
 20
535.138508
 11
192.991511
 21
535.138508
  0
LINE
  8
0
  6
CONTINUOUS
 62
   134
 10
172.753044
 20
562.138508
 11
192.991511
 21
562.138508
  0
LINE
  8
0
  6
CONTINUOUS
 62
   134
 10
85.129827
 20
530.209619
 11
86.488627
 21
525.138508
  0
LINE
  8
0
  6
CONTINUOUS
 62
   134
 10
86.488627
 20
525.138508
 11
87.847427
 21
530.209619
  0
LINE
  8
0
  6
CONTINUOUS
 62
   134
 10
87.847427
 20
557.067397
 11
86.488627
 21
562.138508
  0
LINE
  8
0
  6
CONTINUOUS
 62
   134
 10
86.488627
 20
562.138508
 11
85.129827
 21
557.067397
  0
LINE
  8
0
  6
CONTINUOUS
 62
   134
 10
86.488627
 20
525.138508
 11
86.488627
 21
562.138508
  0
TEXT
  8
0
 62
   134
 10
84.988627
 20
537.638508
 40
15.000000
  1
37
 50
90.000000
 41
0.800000
  7
GOTHIC
 72
     1
 11
84.988627
 21
543.638508
  0
LINE
  8
0
  6
CONTINUOUS
 62
   134
 10
95.253044
 20
562.138508
 11
82.738627
 21
562.138508
  0
LINE
  8
0
  6
CONTINUOUS
 62
     2
 10
379.376621
 20
150.846715
 11
379.376621
 21
53.846715
  0
LINE
  8
0
  6
CONTINUOUS
 62
     2
 10
379.376621
 20
150.846715
 11
444.376621
 21
150.846715
  0
LINE
  8
0
  6
CONTINUOUS
 62
     2
 10
444.376621
 20
150.846715
 11
444.376621
 21
90.846715
  0
LINE
  8
0
  6
CONTINUOUS
 62
     2
 10
509.376621
 20
90.846715
 11
544.376621
 21
63.846715
  0
LINE
  8
0
  6
CONTINUOUS
 62
     2
 10
544.376621
 20
53.846715
 11
379.376621
 21
53.846715
  0
LINE
  8
0
  6
CONTINUOUS
 62
     2
 10
544.376621
 20
63.846715
 11
544.376621
 21
53.846715
  0
LINE
  8
0
  6
CONTINUOUS
 62
     2
 10
444.376621
 20
90.846715
 11
509.376621
 21
90.846715
  0
LINE
  8
0
  6
CONTINUOUS
 62
     2
 10
709.376621
 20
150.846715
 11
709.376621
 21
53.846715
  0
LINE
  8
0
  6
CONTINUOUS
 62
     2
 10
709.376621
 20
150.846715
 11
644.376621
 21
150.846715
  0
LINE
  8
0
  6
CONTINUOUS
 62
     2
 10
644.376621
 20
150.846715
 11
644.376621
 21
90.846715
  0
LINE
  8
0
  6
CONTINUOUS
 62
     2
 10
579.376621
 20
90.846715
 11
544.376621
 21
63.846715
  0
LINE
  8
0
  6
CONTINUOUS
 62
     2
 10
544.376621
 20
53.846715
 11
709.376621
 21
53.846715
  0
LINE
  8
0
  6
CONTINUOUS
 62
     2
 10
544.376621
 20
63.846715
 11
544.376621
 21
53.846715
  0
LINE
  8
0
  6
CONTINUOUS
 62
     2
 10
644.376621
 20
90.846715
 11
579.376621
 21
90.846715
  0
LINE
  8
0
  6
CONTINUOUS
 62
   134
 10
384.447732
 20
166.158789
 11
379.376621
 21
164.799989
  0
LINE
  8
0
  6
CONTINUOUS
 62
   134
 10
379.376621
 20
164.799989
 11
384.447732
 21
163.441189
  0
LINE
  8
0
  6
CONTINUOUS
 62
   134
 10
439.305511
 20
163.441189
 11
444.376621
 21
164.799989
  0
LINE
  8
0
  6
CONTINUOUS
 62
   134
 10
444.376621
 20
164.799989
 11
439.305511
 21
166.158789
  0
LINE
  8
0
  6
CONTINUOUS
 62
   134
 10
379.376621
 20
164.799989
 11
444.376621
 21
164.799989
  0
TEXT
  8
0
 62
   134
 10
405.876621
 20
166.299989
 40
15.000000
  1
65
 41
0.800000
  7
GOTHIC
 72
     1
 11
411.876621
 21
166.299989
  0
LINE
  8
0
  6
CONTINUOUS
 62
   134
 10
379.376621
 20
154.596715
 11
379.376621
 21
168.549989
  0
LINE
  8
0
  6
CONTINUOUS
 62
   134
 10
444.376621
 20
154.596715
 11
444.376621
 21
168.549989
  0
LINE
  8
0
  6
CONTINUOUS
 62
   134
 10
704.305511
 20
163.441189
 11
709.376621
 21
164.799989
  0
LINE
  8
0
  6
CONTINUOUS
 62
   134
 10
709.376621
 20
164.799989
 11
704.305511
 21
166.158789
  0
LINE
  8
0
  6
CONTINUOUS
 62
   134
 10
649.447732
 20
166.158789
 11
644.376621
 21
164.799989
  0
LINE
  8
0
  6
CONTINUOUS
 62
   134
 10
644.376621
 20
164.799989
 11
649.447732
 21
163.441189
  0
LINE
  8
0
  6
CONTINUOUS
 62
   134
 10
709.376621
 20
164.799989
 11
644.376621
 21
164.799989
  0
TEXT
  8
0
 62
   134
 10
670.876621
 20
166.299989
 40
15.000000
  1
65
 41
0.800000
  7
GOTHIC
 72
     1
 11
676.876621
 21
166.299989
  0
LINE
  8
0
  6
CONTINUOUS
 62
   134
 10
709.376621
 20
154.596715
 11
709.376621
 21
168.549989
  0
LINE
  8
0
  6
CONTINUOUS
 62
   134
 10
644.376621
 20
154.596715
 11
644.376621
 21
168.549989
  0
LINE
  8
0
  6
CONTINUOUS
 62
   134
 10
363.199960
 20
145.775605
 11
361.841160
 21
150.846715
  0
LINE
  8
0
  6
CONTINUOUS
 62
   134
 10
361.841160
 20
150.846715
 11
360.482360
 21
145.775605
  0
LINE
  8
0
  6
CONTINUOUS
 62
   134
 10
360.482360
 20
58.917826
 11
361.841160
 21
53.846715
  0
LINE
  8
0
  6
CONTINUOUS
 62
   134
 10
361.841160
 20
53.846715
 11
363.199960
 21
58.917826
  0
LINE
  8
0
  6
CONTINUOUS
 62
   134
 10
361.841160
 20
150.846715
 11
361.841160
 21
53.846715
  0
TEXT
  8
0
 62
   134
 10
360.341160
 20
96.346715
 40
15.000000
  1
97
 50
90.000000
 41
0.800000
  7
GOTHIC
 72
     1
 11
360.341160
 21
102.346715
  0
LINE
  8
0
  6
CONTINUOUS
 62
   134
 10
375.626621
 20
150.846715
 11
358.091160
 21
150.846715
  0
LINE
  8
0
  6
CONTINUOUS
 62
   134
 10
375.626621
 20
53.846715
 11
358.091160
 21
53.846715
  0
LINE
  8
0
  6
CONTINUOUS
 62
   134
 10
539.305511
 20
2.391200
 11
544.376621
 21
3.750000
  0
LINE
  8
0
  6
CONTINUOUS
 62
   134
 10
544.376621
 20
3.750000
 11
539.305511
 21
5.108800
  0
LINE
  8
0
  6
CONTINUOUS
 62
   134
 10
384.447732
 20
5.108800
 11
379.376621
 21
3.750000
  0
LINE
  8
0
  6
CONTINUOUS
 62
   134
 10
379.376621
 20
3.750000
 11
384.447732
 21
2.391200
  0
LINE
  8
0
  6
CONTINUOUS
 62
   134
 10
544.376621
 20
3.750000
 11
379.376621
 21
3.750000
  0
TEXT
  8
0
 62
   134
 10
452.876621
 20
5.250000
 40
15.000000
  1
165
 41
0.800000
  7
GOTHIC
 72
     1
 11
461.876621
 21
5.250000
  0
LINE
  8
0
  6
CONTINUOUS
 62
   134
 10
544.376621
 20
50.096715
 11
544.376621
 21
0.000000
  0
LINE
  8
0
  6
CONTINUOUS
 62
   134
 10
379.376621
 20
50.096715
 11
379.376621
 21
0.000000
  0
LINE
  8
0
  6
CONTINUOUS
 62
   134
 10
549.447732
 20
5.108800
 11
544.376621
 21
3.750000
  0
LINE
  8
0
  6
CONTINUOUS
 62
   134
 10
544.376621
 20
3.750000
 11
549.447732
 21
2.391200
  0
LINE
  8
0
  6
CONTINUOUS
 62
   134
 10
704.305511
 20
2.391200
 11
709.376621
 21
3.750000
  0
LINE
  8
0
  6
CONTINUOUS
 62
   134
 10
709.376621
 20
3.750000
 11
704.305511
 21
5.108800
  0
LINE
  8
0
  6
CONTINUOUS
 62
   134
 10
544.376621
 20
3.750000
 11
709.376621
 21
3.750000
  0
TEXT
  8
0
 62
   134
 10
617.876621
 20
5.250000
 40
15.000000
  1
165
 41
0.800000
  7
GOTHIC
 72
     1
 11
626.876621
 21
5.250000
  0
LINE
  8
0
  6
CONTINUOUS
 62
   134
 10
544.376621
 20
50.096715
 11
544.376621
 21
0.000000
  0
LINE
  8
0
  6
CONTINUOUS
 62
   134
 10
709.376621
 20
50.096715
 11
709.376621
 21
0.000000
  0
LINE
  8
0
  6
CONTINUOUS
 62
   134
 10
740.645290
 20
145.775605
 11
739.286491
 21
150.846715
  0
LINE
  8
0
  6
CONTINUOUS
 62
   134
 10
739.286491
 20
150.846715
 11
737.927691
 21
145.775605
  0
LINE
  8
0
  6
CONTINUOUS
 62
   134
 10
737.927691
 20
58.917826
 11
739.286491
 21
53.846715
  0
LINE
  8
0
  6
CONTINUOUS
 62
   134
 10
739.286491
 20
53.846715
 11
740.645290
 21
58.917826
  0
LINE
  8
0
  6
CONTINUOUS
 62
   134
 10
739.286491
 20
150.846715
 11
739.286491
 21
53.846715
  0
TEXT
  8
0
 62
   134
 10
737.786491
 20
96.346715
 40
15.000000
  1
97
 50
90.000000
 41
0.800000
  7
GOTHIC
 72
     1
 11
737.786491
 21
102.346715
  0
LINE
  8
0
  6
CONTINUOUS
 62
   134
 10
713.126621
 20
150.846715
 11
743.036491
 21
150.846715
  0
LINE
  8
0
  6
CONTINUOUS
 62
   134
 10
713.126621
 20
53.846715
 11
743.036491
 21
53.846715
  0
LINE
  8
0
  6
CONTINUOUS
 62
   134
 10
487.028760
 20
68.917826
 11
488.387560
 21
63.846715
  0
LINE
  8
0
  6
CONTINUOUS
 62
   134
 10
488.387560
 20
63.846715
 11
489.746360
 21
68.917826
  0
LINE
  8
0
  6
CONTINUOUS
 62
   134
 10
489.746360
 20
85.775605
 11
488.387560
 21
90.846715
  0
LINE
  8
0
  6
CONTINUOUS
 62
   134
 10
488.387560
 20
90.846715
 11
487.028760
 21
85.775605
  0
LINE
  8
0
  6
CONTINUOUS
 62
   134
 10
488.387560
 20
63.846715
 11
488.387560
 21
90.846715
  0
TEXT
  8
0
 62
   134
 10
486.887560
 20
71.346715
 40
15.000000
  1
27
 50
90.000000
 41
0.800000
  7
GOTHIC
 72
     1
 11
486.887560
 21
77.346715
  0
LINE
  8
0
  6
CONTINUOUS
 62
   134
 10
540.626621
 20
63.846715
 11
484.637560
 21
63.846715
  0
LINE
  8
0
  6
CONTINUOUS
 62
   134
 10
505.626621
 20
90.846715
 11
484.637560
 21
90.846715
  0
LINE
  8
0
  6
CONTINUOUS
 62
   134
 10
487.028760
 20
95.917826
 11
488.387560
 21
90.846715
  0
LINE
  8
0
  6
CONTINUOUS
 62
   134
 10
488.387560
 20
90.846715
 11
489.746360
 21
95.917826
  0
LINE
  8
0
  6
CONTINUOUS
 62
   134
 10
489.746360
 20
145.775605
 11
488.387560
 21
150.846715
  0
LINE
  8
0
  6
CONTINUOUS
 62
   134
 10
488.387560
 20
150.846715
 11
487.028760
 21
145.775605
  0
LINE
  8
0
  6
CONTINUOUS
 62
   134
 10
488.387560
 20
90.846715
 11
488.387560
 21
150.846715
  0
TEXT
  8
0
 62
   134
 10
486.887560
 20
114.846715
 40
15.000000
  1
60
 50
90.000000
 41
0.800000
  7
GOTHIC
 72
     1
 11
486.887560
 21
120.846715
  0
LINE
  8
0
  6
CONTINUOUS
 62
   134
 10
448.126621
 20
150.846715
 11
492.137560
 21
150.846715
  0
LINE
  8
0
  6
CONTINUOUS
 62
   134
 10
449.447732
 20
166.158789
 11
444.376621
 21
164.799989
  0
LINE
  8
0
  6
CONTINUOUS
 62
   134
 10
444.376621
 20
164.799989
 11
449.447732
 21
163.441189
  0
LINE
  8
0
  6
CONTINUOUS
 62
   134
 10
504.305511
 20
163.441189
 11
509.376621
 21
164.799989
  0
LINE
  8
0
  6
CONTINUOUS
 62
   134
 10
509.376621
 20
164.799989
 11
504.305511
 21
166.158789
  0
LINE
  8
0
  6
CONTINUOUS
 62
   134
 10
444.376621
 20
164.799989
 11
509.376621
 21
164.799989
  0
TEXT
  8
0
 62
   134
 10
470.876621
 20
166.299989
 40
15.000000
  1
65
 41
0.800000
  7
GOTHIC
 72
     1
 11
476.876621
 21
166.299989
  0
LINE
  8
0
  6
CONTINUOUS
 62
   134
 10
509.376621
 20
94.596715
 11
509.376621
 21
168.549989
  0
LINE
  8
0
  6
CONTINUOUS
 62
   134
 10
514.447732
 20
166.158789
 11
509.376621
 21
164.799989
  0
LINE
  8
0
  6
CONTINUOUS
 62
   134
 10
509.376621
 20
164.799989
 11
514.447732
 21
163.441189
  0
LINE
  8
0
  6
CONTINUOUS
 62
   134
 10
539.305511
 20
163.441189
 11
544.376621
 21
164.799989
  0
LINE
  8
0
  6
CONTINUOUS
 62
   134
 10
544.376621
 20
164.799989
 11
539.305511
 21
166.158789
  0
LINE
  8
0
  6
CONTINUOUS
 62
   134
 10
509.376621
 20
164.799989
 11
544.376621
 21
164.799989
  0
TEXT
  8
0
 62
   134
 10
520.876621
 20
166.299989
 40
15.000000
  1
35
 41
0.800000
  7
GOTHIC
 72
     1
 11
526.876621
 21
166.299989
  0
LINE
  8
0
  6
CONTINUOUS
 62
   134
 10
544.376621
 20
67.596715
 11
544.376621
 21
168.549989
  0
LINE
  8
0
  6
CONTINUOUS
 62
   134
 10
549.447732
 20
166.158789
 11
544.376621
 21
164.799989
  0
LINE
  8
0
  6
CONTINUOUS
 62
   134
 10
544.376621
 20
164.799989
 11
549.447732
 21
163.441189
  0
LINE
  8
0
  6
CONTINUOUS
 62
   134
 10
574.305511
 20
163.441189
 11
579.376621
 21
164.799989
  0
LINE
  8
0
  6
CONTINUOUS
 62
   134
 10
579.376621
 20
164.799989
 11
574.305511
 21
166.158789
  0
LINE
  8
0
  6
CONTINUOUS
 62
   134
 10
544.376621
 20
164.799989
 11
579.376621
 21
164.799989
  0
TEXT
  8
0
 62
   134
 10
555.876621
 20
166.299989
 40
15.000000
  1
35
 41
0.800000
  7
GOTHIC
 72
     1
 11
561.876621
 21
166.299989
  0
LINE
  8
0
  6
CONTINUOUS
 62
   134
 10
579.376621
 20
94.596715
 11
579.376621
 21
168.549989
  0
LINE
  8
0
  6
CONTINUOUS
 62
   134
 10
584.447732
 20
166.158789
 11
579.376621
 21
164.799989
  0
LINE
  8
0
  6
CONTINUOUS
 62
   134
 10
579.376621
 20
164.799989
 11
584.447732
 21
163.441189
  0
LINE
  8
0
  6
CONTINUOUS
 62
   134
 10
639.305511
 20
163.441189
 11
644.376621
 21
164.799989
  0
LINE
  8
0
  6
CONTINUOUS
 62
   134
 10
644.376621
 20
164.799989
 11
639.305511
 21
166.158789
  0
LINE
  8
0
  6
CONTINUOUS
 62
   134
 10
579.376621
 20
164.799989
 11
644.376621
 21
164.799989
  0
TEXT
  8
0
 62
   134
 10
605.876621
 20
166.299989
 40
15.000000
  1
65
 41
0.800000
  7
GOTHIC
 72
     1
 11
611.876621
 21
166.299989
  0
LINE
  8
0
  6
CONTINUOUS
 62
   134
 10
644.376621
 20
154.596715
 11
644.376621
 21
168.549989
  0
LINE
  8
0
  6
CONTINUOUS
 62
     2
 10
354.003044
 20
525.138508
 11
360.253044
 21
531.608508
  0
LINE
  8
0
  6
CONTINUOUS
 62
     2
 10
360.253044
 20
531.608508
 11
354.633044
 21
543.108508
  0
LINE
  8
0
  6
CONTINUOUS
 62
     2
 10
354.633044
 20
543.108508
 11
354.903044
 21
555.888508
  0
LINE
  8
0
  6
CONTINUOUS
 62
     2
 10
354.903044
 20
555.888508
 11
361.003044
 21
567.138508
  0
LINE
  8
0
  6
CONTINUOUS
 62
     2
 10
361.003044
 20
567.138508
 11
361.003044
 21
592.138508
  0
LINE
  8
0
  6
CONTINUOUS
 62
     2
 10
361.003044
 20
592.138508
 11
347.003044
 21
592.138508
  0
LINE
  8
0
  6
CONTINUOUS
 62
     2
 10
347.003044
 20
592.138508
 11
347.003044
 21
622.138508
  0
LINE
  8
0
  6
CONTINUOUS
 62
     2
 10
347.003044
 20
622.138508
 11
334.003044
 21
622.138508
  0
LINE
  8
0
  6
CONTINUOUS
 62
     2
 10
334.003044
 20
622.138508
 11
334.003044
 21
547.288508
  0
LINE
  8
0
  6
CONTINUOUS
 62
     2
 10
334.003044
 20
547.288508
 11
348.443044
 21
532.328508
  0
LINE
  8
0
  6
CONTINUOUS
 62
     2
 10
348.443044
 20
532.328508
 11
347.753044
 21
531.608508
  0
LINE
  8
0
  6
CONTINUOUS
 62
     2
 10
347.753044
 20
531.608508
 11
354.003044
 21
525.138508
  0
LINE
  8
0
  6
CONTINUOUS
 62
   134
 10
337.383784
 20
643.044375
 11
334.003044
 21
642.138508
  0
LINE
  8
0
  6
CONTINUOUS
 62
   134
 10
334.003044
 20
642.138508
 11
337.383784
 21
641.232641
  0
LINE
  8
0
  6
CONTINUOUS
 62
   134
 10
357.622303
 20
641.232641
 11
361.003044
 21
642.138508
  0
LINE
  8
0
  6
CONTINUOUS
 62
   134
 10
361.003044
 20
642.138508
 11
357.622303
 21
643.044375
  0
LINE
  8
0
  6
CONTINUOUS
 62
   134
 10
334.003044
 20
642.138508
 11
361.003044
 21
642.138508
  0
TEXT
  8
0
 62
   134
 10
339.503044
 20
644.138508
 40
20.000000
  1
27
 41
0.800000
  7
GOTHIC
 72
     1
 11
347.503044
 21
644.138508
  0
LINE
  8
0
  6
CONTINUOUS
 62
   134
 10
334.003044
 20
627.138508
 11
334.003044
 21
647.138508
  0
LINE
  8
0
  6
CONTINUOUS
 62
   134
 10
361.003044
 20
597.138508
 11
361.003044
 21
647.138508
  0
LINE
  8
0
  6
CONTINUOUS
 62
   134
 10
380.097177
 20
528.519248
 11
381.003044
 21
525.138508
  0
LINE
  8
0
  6
CONTINUOUS
 62
   134
 10
381.003044
 20
525.138508
 11
381.908910
 21
528.519248
  0
LINE
  8
0
  6
CONTINUOUS
 62
   134
 10
381.908910
 20
618.757768
 11
381.003044
 21
622.138508
  0
LINE
  8
0
  6
CONTINUOUS
 62
   134
 10
381.003044
 20
622.138508
 11
380.097177
 21
618.757768
  0
LINE
  8
0
  6
CONTINUOUS
 62
   134
 10
381.003044
 20
525.138508
 11
381.003044
 21
622.138508
  0
TEXT
  8
0
 62
   134
 10
379.003044
 20
565.638508
 40
20.000000
  1
97
 50
90.000000
 41
0.800000
  7
GOTHIC
 72
     1
 11
379.003044
 21
573.638508
  0
LINE
  8
0
  6
CONTINUOUS
 62
   134
 10
359.003044
 20
525.138508
 11
386.003044
 21
525.138508
  0
LINE
  8
0
  6
CONTINUOUS
 62
   134
 10
352.003044
 20
622.138508
 11
386.003044
 21
622.138508
  0
LINE
  8
0
  6
CONTINUOUS
 62
     2
 10
829.376621
 20
53.846715
 11
835.626621
 21
60.316715
  0
LINE
  8
0
  6
CONTINUOUS
 62
     2
 10
835.626621
 20
60.316715
 11
830.006621
 21
71.816715
  0
LINE
  8
0
  6
CONTINUOUS
 62
     2
 10
830.006621
 20
71.816715
 11
830.276621
 21
84.596715
  0
LINE
  8
0
  6
CONTINUOUS
 62
     2
 10
830.276621
 20
84.596715
 11
836.376621
 21
95.846715
  0
LINE
  8
0
  6
CONTINUOUS
 62
     2
 10
836.376621
 20
95.846715
 11
836.376621
 21
120.846715
  0
LINE
  8
0
  6
CONTINUOUS
 62
     2
 10
836.376621
 20
120.846715
 11
822.376621
 21
120.846715
  0
LINE
  8
0
  6
CONTINUOUS
 62
     2
 10
822.376621
 20
120.846715
 11
822.376621
 21
150.846715
  0
LINE
  8
0
  6
CONTINUOUS
 62
     2
 10
822.376621
 20
150.846715
 11
809.376621
 21
150.846715
  0
LINE
  8
0
  6
CONTINUOUS
 62
     2
 10
809.376621
 20
150.846715
 11
809.376621
 21
75.996715
  0
LINE
  8
0
  6
CONTINUOUS
 62
     2
 10
809.376621
 20
75.996715
 11
823.816621
 21
61.036715
  0
LINE
  8
0
  6
CONTINUOUS
 62
     2
 10
823.816621
 20
61.036715
 11
823.126621
 21
60.316715
  0
LINE
  8
0
  6
CONTINUOUS
 62
     2
 10
823.126621
 20
60.316715
 11
829.376621
 21
53.846715
  0
LINE
  8
0
  6
CONTINUOUS
 62
   134
 10
812.757362
 20
171.752582
 11
809.376621
 21
170.846715
  0
LINE
  8
0
  6
CONTINUOUS
 62
   134
 10
809.376621
 20
170.846715
 11
812.757362
 21
169.940849
  0
LINE
  8
0
  6
CONTINUOUS
 62
   134
 10
832.995881
 20
169.940849
 11
836.376621
 21
170.846715
  0
LINE
  8
0
  6
CONTINUOUS
 62
   134
 10
836.376621
 20
170.846715
 11
832.995881
 21
171.752582
  0
LINE
  8
0
  6
CONTINUOUS
 62
   134
 10
809.376621
 20
170.846715
 11
836.376621
 21
170.846715
  0
TEXT
  8
0
 62
   134
 10
814.876621
 20
172.846715
 40
20.000000
  1
27
 41
0.800000
  7
GOTHIC
 72
     1
 11
822.876621
 21
172.846715
  0
LINE
  8
0
  6
CONTINUOUS
 62
   134
 10
809.376621
 20
155.846715
 11
809.376621
 21
175.846715
  0
LINE
  8
0
  6
CONTINUOUS
 62
   134
 10
836.376621
 20
125.846715
 11
836.376621
 21
175.846715
  0
LINE
  8
0
  6
CONTINUOUS
 62
   134
 10
855.470755
 20
57.227456
 11
856.376621
 21
53.846715
  0
LINE
  8
0
  6
CONTINUOUS
 62
   134
 10
856.376621
 20
53.846715
 11
857.282488
 21
57.227456
  0
LINE
  8
0
  6
CONTINUOUS
 62
   134
 10
857.282488
 20
147.465975
 11
856.376621
 21
150.846715
  0
LINE
  8
0
  6
CONTINUOUS
 62
   134
 10
856.376621
 20
150.846715
 11
855.470755
 21
147.465975
  0
LINE
  8
0
  6
CONTINUOUS
 62
   134
 10
856.376621
 20
53.846715
 11
856.376621
 21
150.846715
  0
TEXT
  8
0
 62
   134
 10
854.376621
 20
94.346715
 40
20.000000
  1
97
 50
90.000000
 41
0.800000
  7
GOTHIC
 72
     1
 11
854.376621
 21
102.346715
  0
LINE
  8
0
  6
CONTINUOUS
 62
   134
 10
834.376621
 20
53.846715
 11
861.376621
 21
53.846715
  0
LINE
  8
0
  6
CONTINUOUS
 62
   134
 10
827.376621
 20
150.846715
 11
861.376621
 21
150.846715
  0
TEXT
  8
0
 62
     1
 10
317.552620
 20
679.365497
 40
30.000000
  1
00402
 41
0.800000
  7
GOTHIC
 11
317.552620
 21
709.365497
 73
     3
  0
TEXT
  8
0
 62
     1
 10
793.517585
 20
218.008152
 40
30.000000
  1
00402
 41
0.800000
  7
GOTHIC
 11
793.517585
 21
248.008152
 73
     3
  0
ENDSEC
  0
EOF
