  0
SECTION
  2
HEADER
  9
$ACADVER
  1
AC1009
  9
$DWGCODEPAGE
  3
ANSI_932
  9
$INSBASE
 10
0.0
 20
0.0
 30
0.0
  9
$EXTMIN
 10
1e+20
 20
1e+20
 30
1e+20
  9
$EXTMAX
 10
-1e+20
 20
-1e+20
 30
-1e+20
  9
$LIMMIN
 10
0.0
 20
0.0
  9
$LIMMAX
 10
420.0
 20
297.0
  9
$ORTHOMODE
 70
0
  9
$REGENMODE
 70
1
  9
$FILLMODE
 70
1
  9
$DRAGMODE
 70
2
  9
$QTEXTMODE
 70
0
  9
$MIRRTEXT
 70
1
  9
$OSMODE
 70
20583
  9
$LTSCALE
 40
1.0
  9
$ATTMODE
 70
1
  9
$TEXTSIZE
 40
2.5
  9
$TRACEWID
 40
1.0
  9
$TEXTSTYLE
  7
Standard
  9
$CLAYER
  8
0
  9
$CELTYPE
  6
ByLayer
  9
$CECOLOR
 62
256
  9
$DIMSCALE
 40
1.0
  9
$DIMASZ
 40
2.5
  9
$DIMEXO
 40
0.625
  9
$DIMDLI
 40
3.75
  9
$DIMRND
 40
0.0
  9
$DIMDLE
 40
0.0
  9
$DIMEXE
 40
1.25
  9
$DIMTP
 40
0.0
  9
$DIMTM
 40
0.0
  9
$DIMTXT
 40
2.5
  9
$DIMCEN
 40
2.5
  9
$DIMTSZ
 40
0.0
  9
$DIMTOL
 70
0
  9
$DIMLIM
 70
0
  9
$DIMTIH
 70
0
  9
$DIMTOH
 70
0
  9
$DIMSE1
 70
0
  9
$DIMSE2
 70
0
  9
$DIMTAD
 70
1
  9
$DIMZIN
 70
8
  9
$DIMBLK
  1

  9
$DIMASO
 70
1
  9
$DIMSHO
 70
1
  9
$DIMPOST
  1

  9
$DIMAPOST
  1

  9
$DIMALT
 70
0
  9
$DIMALTD
 70
3
  9
$DIMALTF
 40
0.03937007874
  9
$DIMLFAC
 40
1.0
  9
$DIMTOFL
 70
1
  9
$DIMTVP
 40
0.0
  9
$DIMTIX
 70
0
  9
$DIMSOXD
 70
0
  9
$DIMSAH
 70
0
  9
$DIMBLK1
  1

  9
$DIMBLK2
  1

  9
$DIMSTYLE
  2
ISO-25
  9
$DIMCLRD
 70
0
  9
$DIMCLRE
 70
0
  9
$DIMCLRT
 70
0
  9
$DIMTFAC
 40
1.0
  9
$DIMGAP
 40
0.625
  9
$COORDS
 70
1
  9
$ATTDIA
 70
0
  9
$ATTREQ
 70
1
  9
$HANDLING
 70
1
  9
$LUNITS
 70
2
  9
$LUPREC
 70
4
  9
$SKETCHINC
 40
1.0
  9
$FILLETRAD
 40
10.0
  9
$AUNITS
 70
0
  9
$AUPREC
 70
2
  9
$MENU
  1
.
  9
$ELEVATION
 40
0.0
  9
$PELEVATION
 40
0.0
  9
$THICKNESS
 40
0.0
  9
$LIMCHECK
 70
0
  9
$CHAMFERA
 40
0.0
  9
$CHAMFERB
 40
0.0
  9
$SKPOLY
 70
0
  9
$TDCREATE
 40
2461306.8667129627
  9
$TDUPDATE
 40
2461306.8667129627
  9
$TDINDWG
 40
0.0
  9
$TDUSRTIMER
 40
0.0
  9
$USRTIMER
 70
1
  9
$ANGBASE
 50
0.0
  9
$ANGDIR
 70
0
  9
$PDMODE
 70
0
  9
$PDSIZE
 40
0.0
  9
$PLINEWID
 40
0.0
  9
$SPLFRAME
 70
0
  9
$SPLINETYPE
 70
6
  9
$SPLINESEGS
 70
8
  9
$HANDSEED
  5
A39
  9
$SURFTAB1
 70
6
  9
$SURFTAB2
 70
6
  9
$SURFTYPE
 70
6
  9
$SURFU
 70
6
  9
$SURFV
 70
6
  9
$UCSNAME
  2

  9
$UCSORG
 10
0.0
 20
0.0
 30
0.0
  9
$UCSXDIR
 10
1.0
 20
0.0
 30
0.0
  9
$UCSYDIR
 10
0.0
 20
1.0
 30
0.0
  9
$PUCSNAME
  2

  9
$PUCSORG
 10
0.0
 20
0.0
 30
0.0
  9
$PUCSXDIR
 10
1.0
 20
0.0
 30
0.0
  9
$PUCSYDIR
 10
0.0
 20
1.0
 30
0.0
  9
$USERI1
 70
0
  9
$USERI2
 70
0
  9
$USERI3
 70
0
  9
$USERI4
 70
0
  9
$USERI5
 70
0
  9
$USERR1
 40
0.0
  9
$USERR2
 40
0.0
  9
$USERR3
 40
0.0
  9
$USERR4
 40
0.0
  9
$USERR5
 40
0.0
  9
$WORLDVIEW
 70
1
  9
$SHADEDGE
 70
3
  9
$SHADEDIF
 70
70
  9
$TILEMODE
 70
1
  9
$MAXACTVP
 70
64
  9
$PLIMCHECK
 70
0
  9
$PEXTMIN
 10
1e+20
 20
1e+20
 30
1e+20
  9
$PEXTMAX
 10
-1e+20
 20
-1e+20
 30
-1e+20
  9
$PLIMMIN
 10
0.0
 20
0.0
  9
$PLIMMAX
 10
420.0
 20
297.0
  9
$UNITMODE
 70
0
  9
$VISRETAIN
 70
1
  9
$PLINEGEN
 70
0
  9
$PSLTSCALE
 70
1
  0
ENDSEC
  0
SECTION
  2
TABLES
  0
TABLE
  2
VPORT
 70
1
  0
VPORT
  5
23
  2
*Active
 70
0
 10
0.0
 20
0.0
 11
1.0
 21
1.0
 12
0.0
 22
0.0
 13
0.0
 23
0.0
 14
0.5
 24
0.5
 15
0.5
 25
0.5
 16
0.0
 26
0.0
 36
1.0
 17
0.0
 27
0.0
 37
0.0
 40
1000.0
 41
1.34
 42
50.0
 43
0.0
 44
0.0
 50
0.0
 51
0.0
 71
0
 72
1000
 73
1
 74
3
 75
0
 76
0
 77
0
 78
0
  0
ENDTAB
  0
TABLE
  2
LTYPE
 70
3
  0
LTYPE
  5
24
  2
ByBlock
 70
0
  3

 72
65
 73
0
 40
0.0
  0
LTYPE
  5
25
  2
ByLayer
 70
0
  3

 72
65
 73
0
 40
0.0
  0
LTYPE
  5
26
  2
Continuous
 70
0
  3

 72
65
 73
0
 40
0.0
  0
ENDTAB
  0
TABLE
  2
LAYER
 70
9
  0
LAYER
  5
27
  2
0
 70
0
 62
7
  6
Continuous
  0
LAYER
  5
28
  2
Defpoints
 70
0
 62
7
  6
Continuous
  0
LAYER
  5
2D
  2
DIE
 70
0
 62
4
  6
Continuous
  0
LAYER
  5
2E
  2
BASE_MEASURED
 70
0
 62
3
  6
Continuous
  0
LAYER
  5
2F
  2
BASE_GENERIC
 70
0
 62
2
  6
Continuous
  0
LAYER
  5
30
  2
CENTER
 70
0
 62
5
  6
Continuous
  0
LAYER
  5
31
  2
TEXT
 70
0
 62
7
  6
Continuous
  0
LAYER
  5
32
  2
FRAME
 70
0
 62
8
  6
Continuous
  0
LAYER
  5
33
  2
FRAME_NOBASE
 70
0
 62
1
  6
Continuous
  0
ENDTAB
  0
TABLE
  2
STYLE
 70
1
  0
STYLE
  5
29
  2
Standard
 70
0
 40
0.0
 41
1.0
 50
0.0
 71
0
 42
2.5
  3
txt
  4

  0
ENDTAB
  0
TABLE
  2
VIEW
 70
0
  0
ENDTAB
  0
TABLE
  2
UCS
 70
0
  0
ENDTAB
  0
TABLE
  2
APPID
 70
3
  0
APPID
  5
2A
  2
ACAD
 70
0
  0
APPID
  5
A37
  2
HATCHBACKGROUNDCOLOR
 70
0
  0
APPID
  5
A38
  2
EZDXF
 70
0
  0
ENDTAB
  0
TABLE
  2
DIMSTYLE
 70
1
  0
DIMSTYLE
105
2B
  2
Standard
 70
0
  3

  4

  5

  6

  7

 40
1.0
 41
2.5
 42
0.625
 43
3.75
 44
1.25
 45
0.0
 46
0.0
 47
0.0
 48
0.0
140
2.5
141
2.5
142
0.0
143
0.03937007874
144
1.0
145
0.0
146
1.0
147
0.625
 71
0
 72
0
 73
0
 74
0
 75
0
 76
0
 77
1
 78
8
170
0
171
3
172
1
173
0
174
0
175
0
176
0
177
0
178
0
  0
ENDTAB
  0
ENDSEC
  0
SECTION
  2
BLOCKS
  0
BLOCK
  5
18
  8
0
  2
$Model_Space
 70
0
 10
0.0
 20
0.0
 30
0.0
  3
$Model_Space
  1

1001
EZDXF
1000
CREATED_BY_EZDXF
1000
1.4.4 @ 2026-09-22T11:48:04.007449+00:00
1000
WRITTEN_BY_EZDXF
1000
1.4.4 @ 2026-09-22T11:48:04.032225+00:00
  0
ENDBLK
  5
19
  8
0
  0
BLOCK
  5
1C
  8
0
  2
$Paper_Space
 70
0
 10
0.0
 20
0.0
 30
0.0
  3
$Paper_Space
  1

  0
ENDBLK
  5
1D
  8
0
  0
ENDSEC
  0
SECTION
  2
ENTITIES
  0
TEXT
  5
34
  8
TEXT
 10
-260.0
 20
260.0
 30
0.0
 40
30.0
  1
搚戜偩偗乮婡夿偛偲偵嫟捠偺偼偢偺晹暘乯
 11
-260.0
 21
260.0
 31
0.0
  0
POLYLINE
  5
35
  8
FRAME
 66
1
 10
0.0
 20
0.0
 30
0.0
 70
1
  0
VERTEX
  5
37
  8
FRAME
 10
-260.0
 20
170.0
 30
0.0
 70
0
  0
VERTEX
  5
38
  8
FRAME
 10
260.0
 20
170.0
 30
0.0
 70
0
  0
VERTEX
  5
39
  8
FRAME
 10
260.0
 20
-1230.0
 30
0.0
 70
0
  0
VERTEX
  5
3A
  8
FRAME
 10
-260.0
 20
-1230.0
 30
0.0
 70
0
  0
SEQEND
  5
36
  8
FRAME
  0
POLYLINE
  5
3B
  8
BASE_MEASURED
 66
1
 10
0.0
 20
0.0
 30
0.0
 70
1
  0
VERTEX
  5
3D
  8
BASE_MEASURED
 10
67.0
 20
-96.5
 30
0.0
 70
0
  0
VERTEX
  5
3E
  8
BASE_MEASURED
 10
30.0
 20
-96.5
 30
0.0
 70
0
  0
VERTEX
  5
3F
  8
BASE_MEASURED
 10
30.0
 20
-111.5
 30
0.0
 70
0
  0
VERTEX
  5
40
  8
BASE_MEASURED
 10
-30.0
 20
-111.5
 30
0.0
 70
0
  0
VERTEX
  5
41
  8
BASE_MEASURED
 10
-30.0
 20
-96.5
 30
0.0
 70
0
  0
VERTEX
  5
42
  8
BASE_MEASURED
 10
-68.0
 20
-96.5
 30
0.0
 70
0
  0
VERTEX
  5
43
  8
BASE_MEASURED
 10
-68.0
 20
-186.5
 30
0.0
 70
0
  0
VERTEX
  5
44
  8
BASE_MEASURED
 10
-128.0
 20
-186.5
 30
0.0
 70
0
  0
VERTEX
  5
45
  8
BASE_MEASURED
 10
-128.0
 20
-236.5
 30
0.0
 70
0
  0
VERTEX
  5
46
  8
BASE_MEASURED
 10
-208.0
 20
-236.5
 30
0.0
 70
0
  0
VERTEX
  5
47
  8
BASE_MEASURED
 10
-208.0
 20
-1061.5
 30
0.0
 70
0
  0
VERTEX
  5
48
  8
BASE_MEASURED
 10
207.0
 20
-1061.5
 30
0.0
 70
0
  0
VERTEX
  5
49
  8
BASE_MEASURED
 10
207.0
 20
-236.5
 30
0.0
 70
0
  0
VERTEX
  5
4A
  8
BASE_MEASURED
 10
127.0
 20
-236.5
 30
0.0
 70
0
  0
VERTEX
  5
4B
  8
BASE_MEASURED
 10
127.0
 20
-186.5
 30
0.0
 70
0
  0
VERTEX
  5
4C
  8
BASE_MEASURED
 10
67.0
 20
-186.5
 30
0.0
 70
0
  0
SEQEND
  5
3C
  8
BASE_MEASURED
  0
POLYLINE
  5
4D
  8
BASE_MEASURED
 66
1
 10
0.0
 20
0.0
 30
0.0
 70
1
  0
VERTEX
  5
4F
  8
BASE_MEASURED
 10
30.0
 20
-96.5
 30
0.0
 70
0
  0
VERTEX
  5
50
  8
BASE_MEASURED
 10
12.5
 20
-96.5
 30
0.0
 70
0
  0
VERTEX
  5
51
  8
BASE_MEASURED
 10
12.5
 20
-50.0
 30
0.0
 70
0
  0
VERTEX
  5
52
  8
BASE_MEASURED
 10
7.0
 20
-50.0
 30
0.0
 70
0
  0
VERTEX
  5
53
  8
BASE_MEASURED
 10
7.0
 20
-60.0
 30
0.0
 70
0
  0
VERTEX
  5
54
  8
BASE_MEASURED
 10
-7.0
 20
-60.0
 30
0.0
 70
0
  0
VERTEX
  5
55
  8
BASE_MEASURED
 10
-7.0
 20
-50.0
 30
0.0
 70
0
  0
VERTEX
  5
56
  8
BASE_MEASURED
 10
-14.5
 20
-50.0
 30
0.0
 70
0
  0
VERTEX
  5
57
  8
BASE_MEASURED
 10
-14.5
 20
-62.5
 30
0.0
 70
0
  0
VERTEX
  5
58
  8
BASE_MEASURED
 10
-18.5
 20
-62.5
 30
0.0
 70
0
  0
VERTEX
  5
59
  8
BASE_MEASURED
 10
-18.5
 20
-72.5
 30
0.0
 70
0
  0
VERTEX
  5
5A
  8
BASE_MEASURED
 10
-14.5
 20
-72.5
 30
0.0
 70
0
  0
VERTEX
  5
5B
  8
BASE_MEASURED
 10
-14.5
 20
-77.5
 30
0.0
 70
0
  0
VERTEX
  5
5C
  8
BASE_MEASURED
 10
-12.5
 20
-77.5
 30
0.0
 70
0
  0
VERTEX
  5
5D
  8
BASE_MEASURED
 10
-12.5
 20
-96.5
 30
0.0
 70
0
  0
VERTEX
  5
5E
  8
BASE_MEASURED
 10
-30.0
 20
-96.5
 30
0.0
 70
0
  0
VERTEX
  5
5F
  8
BASE_MEASURED
 10
-30.0
 20
-111.5
 30
0.0
 70
0
  0
VERTEX
  5
60
  8
BASE_MEASURED
 10
30.0
 20
-111.5
 30
0.0
 70
0
  0
SEQEND
  5
4E
  8
BASE_MEASURED
  0
LINE
  5
61
  8
CENTER
 10
0.0
 20
60.0
 30
0.0
 11
0.0
 21
-250.0
 31
0.0
  0
TEXT
  5
62
  8
TEXT
 10
-250.0
 20
150.0
 30
0.0
 40
13.0
  1
HG2203 搚戜乮V8乣V25 僀儞僒乕僩嫟捠丒V.dxf 偱妋擣乯
 11
-250.0
 21
150.0
 31
0.0
  0
TEXT
  5
63
  8
TEXT
 10
-250.0
 20
130.0
 30
0.0
 40
11.0
  1
婡夿 HG2203丂搚戜 幚應
 11
-250.0
 21
130.0
 31
0.0
  0
POLYLINE
  5
64
  8
FRAME
 66
1
 10
0.0
 20
0.0
 30
0.0
 70
1
  0
VERTEX
  5
66
  8
FRAME
 10
260.0
 20
170.0
 30
0.0
 70
0
  0
VERTEX
  5
67
  8
FRAME
 10
780.0
 20
170.0
 30
0.0
 70
0
  0
VERTEX
  5
68
  8
FRAME
 10
780.0
 20
-1230.0
 30
0.0
 70
0
  0
VERTEX
  5
69
  8
FRAME
 10
260.0
 20
-1230.0
 30
0.0
 70
0
  0
SEQEND
  5
65
  8
FRAME
  0
POLYLINE
  5
6A
  8
BASE_MEASURED
 66
1
 10
0.0
 20
0.0
 30
0.0
 70
1
  0
VERTEX
  5
6C
  8
BASE_MEASURED
 10
627.0
 20
-153.0
 30
0.0
 70
0
  0
VERTEX
  5
6D
  8
BASE_MEASURED
 10
607.0
 20
-153.0
 30
0.0
 70
0
  0
VERTEX
  5
6E
  8
BASE_MEASURED
 10
433.02
 20
-153.0
 30
0.0
 70
0
  0
VERTEX
  5
6F
  8
BASE_MEASURED
 10
413.02
 20
-153.0
 30
0.0
 70
0
  0
VERTEX
  5
70
  8
BASE_MEASURED
 10
413.02
 20
-1048.0
 30
0.0
 70
0
  0
VERTEX
  5
71
  8
BASE_MEASURED
 10
627.0
 20
-1048.0
 30
0.0
 70
0
  0
SEQEND
  5
6B
  8
BASE_MEASURED
  0
POLYLINE
  5
72
  8
BASE_MEASURED
 66
1
 10
0.0
 20
0.0
 30
0.0
 70
1
  0
VERTEX
  5
74
  8
BASE_MEASURED
 10
490.02
 20
-115.0
 30
0.0
 70
0
  0
VERTEX
  5
75
  8
BASE_MEASURED
 10
490.0
 20
-115.0
 30
0.0
 70
0
  0
VERTEX
  5
76
  8
BASE_MEASURED
 10
433.02
 20
-115.0
 30
0.0
 70
0
  0
VERTEX
  5
77
  8
BASE_MEASURED
 10
433.02
 20
-153.0
 30
0.0
 70
0
  0
VERTEX
  5
78
  8
BASE_MEASURED
 10
607.0
 20
-153.0
 30
0.0
 70
0
  0
VERTEX
  5
79
  8
BASE_MEASURED
 10
607.0
 20
-115.0
 30
0.0
 70
0
  0
VERTEX
  5
7A
  8
BASE_MEASURED
 10
550.0
 20
-115.0
 30
0.0
 70
0
  0
SEQEND
  5
73
  8
BASE_MEASURED
  0
POLYLINE
  5
7B
  8
BASE_MEASURED
 66
1
 10
0.0
 20
0.0
 30
0.0
 70
1
  0
VERTEX
  5
7D
  8
BASE_MEASURED
 10
550.0
 20
-60.0
 30
0.0
 70
0
  0
VERTEX
  5
7E
  8
BASE_MEASURED
 10
490.02
 20
-60.0
 30
0.0
 70
0
  0
VERTEX
  5
7F
  8
BASE_MEASURED
 10
490.0
 20
-60.0
 30
0.0
 70
0
  0
VERTEX
  5
80
  8
BASE_MEASURED
 10
490.0
 20
-45.0
 30
0.0
 70
0
  0
VERTEX
  5
81
  8
BASE_MEASURED
 10
483.01
 20
-45.0
 30
0.0
 70
0
  0
VERTEX
  5
82
  8
BASE_MEASURED
 10
473.01
 20
-62.0
 30
0.0
 70
0
  0
VERTEX
  5
83
  8
BASE_MEASURED
 10
473.01
 20
-78.0
 30
0.0
 70
0
  0
VERTEX
  5
84
  8
BASE_MEASURED
 10
483.01
 20
-95.0
 30
0.0
 70
0
  0
VERTEX
  5
85
  8
BASE_MEASURED
 10
490.0
 20
-95.0
 30
0.0
 70
0
  0
VERTEX
  5
86
  8
BASE_MEASURED
 10
490.0
 20
-100.0
 30
0.0
 70
0
  0
VERTEX
  5
87
  8
BASE_MEASURED
 10
490.0
 20
-115.0
 30
0.0
 70
0
  0
VERTEX
  5
88
  8
BASE_MEASURED
 10
490.02
 20
-115.0
 30
0.0
 70
0
  0
VERTEX
  5
89
  8
BASE_MEASURED
 10
550.0
 20
-115.0
 30
0.0
 70
0
  0
VERTEX
  5
8A
  8
BASE_MEASURED
 10
550.0
 20
-100.0
 30
0.0
 70
0
  0
VERTEX
  5
8B
  8
BASE_MEASURED
 10
550.0
 20
-95.0
 30
0.0
 70
0
  0
VERTEX
  5
8C
  8
BASE_MEASURED
 10
557.01
 20
-95.0
 30
0.0
 70
0
  0
VERTEX
  5
8D
  8
BASE_MEASURED
 10
567.01
 20
-78.0
 30
0.0
 70
0
  0
VERTEX
  5
8E
  8
BASE_MEASURED
 10
567.01
 20
-62.0
 30
0.0
 70
0
  0
VERTEX
  5
8F
  8
BASE_MEASURED
 10
557.01
 20
-45.0
 30
0.0
 70
0
  0
VERTEX
  5
90
  8
BASE_MEASURED
 10
550.0
 20
-45.0
 30
0.0
 70
0
  0
SEQEND
  5
7C
  8
BASE_MEASURED
  0
POLYLINE
  5
91
  8
BASE_MEASURED
 66
1
 10
0.0
 20
0.0
 30
0.0
 70
1
  0
VERTEX
  5
93
  8
BASE_MEASURED
 10
550.0
 20
-100.0
 30
0.0
 70
0
  0
VERTEX
  5
94
  8
BASE_MEASURED
 10
550.0
 20
-115.0
 30
0.0
 70
0
  0
VERTEX
  5
95
  8
BASE_MEASURED
 10
607.0
 20
-115.0
 30
0.0
 70
0
  0
VERTEX
  5
96
  8
BASE_MEASURED
 10
607.0
 20
-153.0
 30
0.0
 70
0
  0
VERTEX
  5
97
  8
BASE_MEASURED
 10
627.0
 20
-153.0
 30
0.0
 70
0
  0
VERTEX
  5
98
  8
BASE_MEASURED
 10
627.0
 20
-148.0
 30
0.0
 70
0
  0
VERTEX
  5
99
  8
BASE_MEASURED
 10
627.0
 20
-128.0
 30
0.0
 70
0
  0
VERTEX
  5
9A
  8
BASE_MEASURED
 10
627.0
 20
-100.0
 30
0.0
 70
0
  0
SEQEND
  5
92
  8
BASE_MEASURED
  0
POLYLINE
  5
9B
  8
BASE_MEASURED
 66
1
 10
0.0
 20
0.0
 30
0.0
 70
1
  0
VERTEX
  5
9D
  8
BASE_MEASURED
 10
490.0
 20
-115.0
 30
0.0
 70
0
  0
VERTEX
  5
9E
  8
BASE_MEASURED
 10
490.0
 20
-100.0
 30
0.0
 70
0
  0
VERTEX
  5
9F
  8
BASE_MEASURED
 10
413.02
 20
-100.0
 30
0.0
 70
0
  0
VERTEX
  5
A0
  8
BASE_MEASURED
 10
413.02
 20
-128.0
 30
0.0
 70
0
  0
VERTEX
  5
A1
  8
BASE_MEASURED
 10
413.02
 20
-148.0
 30
0.0
 70
0
  0
VERTEX
  5
A2
  8
BASE_MEASURED
 10
413.02
 20
-153.0
 30
0.0
 70
0
  0
VERTEX
  5
A3
  8
BASE_MEASURED
 10
433.02
 20
-153.0
 30
0.0
 70
0
  0
VERTEX
  5
A4
  8
BASE_MEASURED
 10
433.02
 20
-115.0
 30
0.0
 70
0
  0
SEQEND
  5
9C
  8
BASE_MEASURED
  0
POLYLINE
  5
A5
  8
BASE_MEASURED
 66
1
 10
0.0
 20
0.0
 30
0.0
 70
1
  0
VERTEX
  5
A7
  8
BASE_MEASURED
 10
396.02
 20
-128.0
 30
0.0
 70
0
  0
VERTEX
  5
A8
  8
BASE_MEASURED
 10
396.02
 20
-148.0
 30
0.0
 70
0
  0
VERTEX
  5
A9
  8
BASE_MEASURED
 10
413.02
 20
-148.0
 30
0.0
 70
0
  0
VERTEX
  5
AA
  8
BASE_MEASURED
 10
413.02
 20
-128.0
 30
0.0
 70
0
  0
SEQEND
  5
A6
  8
BASE_MEASURED
  0
POLYLINE
  5
AB
  8
BASE_MEASURED
 66
1
 10
0.0
 20
0.0
 30
0.0
 70
1
  0
VERTEX
  5
AD
  8
BASE_MEASURED
 10
644.0
 20
-148.0
 30
0.0
 70
0
  0
VERTEX
  5
AE
  8
BASE_MEASURED
 10
644.0
 20
-128.0
 30
0.0
 70
0
  0
VERTEX
  5
AF
  8
BASE_MEASURED
 10
627.0
 20
-128.0
 30
0.0
 70
0
  0
VERTEX
  5
B0
  8
BASE_MEASURED
 10
627.0
 20
-148.0
 30
0.0
 70
0
  0
SEQEND
  5
AC
  8
BASE_MEASURED
  0
LINE
  5
B1
  8
CENTER
 10
520.0
 20
60.0
 30
0.0
 11
520.0
 21
-250.0
 31
0.0
  0
TEXT
  5
B2
  8
TEXT
 10
270.0
 20
150.0
 30
0.0
 40
13.0
  1
HD3504NT 搚戜乮05500儂儖僟丒V.dxf 偱妋擣乯
 11
270.0
 21
150.0
 31
0.0
  0
TEXT
  5
B3
  8
TEXT
 10
270.0
 20
130.0
 30
0.0
 40
11.0
  1
婡夿 HD3504NT丂搚戜 幚應
 11
270.0
 21
130.0
 31
0.0
  0
POLYLINE
  5
B4
  8
FRAME
 66
1
 10
0.0
 20
0.0
 30
0.0
 70
1
  0
VERTEX
  5
B6
  8
FRAME
 10
780.0
 20
170.0
 30
0.0
 70
0
  0
VERTEX
  5
B7
  8
FRAME
 10
1300.0
 20
170.0
 30
0.0
 70
0
  0
VERTEX
  5
B8
  8
FRAME
 10
1300.0
 20
-1230.0
 30
0.0
 70
0
  0
VERTEX
  5
B9
  8
FRAME
 10
780.0
 20
-1230.0
 30
0.0
 70
0
  0
SEQEND
  5
B5
  8
FRAME
  0
POLYLINE
  5
BA
  8
BASE_MEASURED
 66
1
 10
0.0
 20
0.0
 30
0.0
 70
1
  0
VERTEX
  5
BC
  8
BASE_MEASURED
 10
1015.0
 20
-57.0
 30
0.0
 70
0
  0
VERTEX
  5
BD
  8
BASE_MEASURED
 10
1065.0
 20
-57.0
 30
0.0
 70
0
  0
VERTEX
  5
BE
  8
BASE_MEASURED
 10
1065.0
 20
-47.0
 30
0.0
 70
0
  0
VERTEX
  5
BF
  8
BASE_MEASURED
 10
1047.5
 20
-47.0
 30
0.0
 70
0
  0
VERTEX
  5
C0
  8
BASE_MEASURED
 10
1047.5
 20
-41.0
 30
0.0
 70
0
  0
VERTEX
  5
C1
  8
BASE_MEASURED
 10
1032.5
 20
-41.0
 30
0.0
 70
0
  0
VERTEX
  5
C2
  8
BASE_MEASURED
 10
1032.5
 20
-47.0
 30
0.0
 70
0
  0
VERTEX
  5
C3
  8
BASE_MEASURED
 10
1015.0
 20
-47.0
 30
0.0
 70
0
  0
SEQEND
  5
BB
  8
BASE_MEASURED
  0
POLYLINE
  5
C4
  8
BASE_MEASURED
 66
1
 10
0.0
 20
0.0
 30
0.0
 70
1
  0
VERTEX
  5
C6
  8
BASE_MEASURED
 10
1062.0
 20
-132.0
 30
0.0
 70
0
  0
VERTEX
  5
C7
  8
BASE_MEASURED
 10
1002.0
 20
-132.0
 30
0.0
 70
0
  0
VERTEX
  5
C8
  8
BASE_MEASURED
 10
1002.0
 20
-112.5
 30
0.0
 70
0
  0
VERTEX
  5
C9
  8
BASE_MEASURED
 10
1019.0
 20
-112.5
 30
0.0
 70
0
  0
VERTEX
  5
CA
  8
BASE_MEASURED
 10
1019.0
 20
-57.0
 30
0.0
 70
0
  0
VERTEX
  5
CB
  8
BASE_MEASURED
 10
1061.0
 20
-57.0
 30
0.0
 70
0
  0
VERTEX
  5
CC
  8
BASE_MEASURED
 10
1061.0
 20
-112.5
 30
0.0
 70
0
  0
VERTEX
  5
CD
  8
BASE_MEASURED
 10
1062.0
 20
-112.5
 30
0.0
 70
0
  0
SEQEND
  5
C5
  8
BASE_MEASURED
  0
POLYLINE
  5
CE
  8
BASE_MEASURED
 66
1
 10
0.0
 20
0.0
 30
0.0
 70
1
  0
VERTEX
  5
D0
  8
BASE_MEASURED
 10
1062.0
 20
-187.0
 30
0.0
 70
0
  0
VERTEX
  5
D1
  8
BASE_MEASURED
 10
1002.0
 20
-187.0
 30
0.0
 70
0
  0
VERTEX
  5
D2
  8
BASE_MEASURED
 10
1002.0
 20
-167.0
 30
0.0
 70
0
  0
VERTEX
  5
D3
  8
BASE_MEASURED
 10
995.0
 20
-167.0
 30
0.0
 70
0
  0
VERTEX
  5
D4
  8
BASE_MEASURED
 10
985.0
 20
-150.0
 30
0.0
 70
0
  0
VERTEX
  5
D5
  8
BASE_MEASURED
 10
985.0
 20
-134.0
 30
0.0
 70
0
  0
VERTEX
  5
D6
  8
BASE_MEASURED
 10
995.0
 20
-117.0
 30
0.0
 70
0
  0
VERTEX
  5
D7
  8
BASE_MEASURED
 10
1002.0
 20
-117.0
 30
0.0
 70
0
  0
VERTEX
  5
D8
  8
BASE_MEASURED
 10
1002.0
 20
-132.0
 30
0.0
 70
0
  0
VERTEX
  5
D9
  8
BASE_MEASURED
 10
1062.0
 20
-132.0
 30
0.0
 70
0
  0
VERTEX
  5
DA
  8
BASE_MEASURED
 10
1062.0
 20
-117.0
 30
0.0
 70
0
  0
VERTEX
  5
DB
  8
BASE_MEASURED
 10
1069.0
 20
-117.0
 30
0.0
 70
0
  0
VERTEX
  5
DC
  8
BASE_MEASURED
 10
1079.0
 20
-134.0
 30
0.0
 70
0
  0
VERTEX
  5
DD
  8
BASE_MEASURED
 10
1079.0
 20
-150.0
 30
0.0
 70
0
  0
VERTEX
  5
DE
  8
BASE_MEASURED
 10
1069.0
 20
-167.0
 30
0.0
 70
0
  0
VERTEX
  5
DF
  8
BASE_MEASURED
 10
1062.0
 20
-167.0
 30
0.0
 70
0
  0
SEQEND
  5
CF
  8
BASE_MEASURED
  0
POLYLINE
  5
E0
  8
BASE_MEASURED
 66
1
 10
0.0
 20
0.0
 30
0.0
 70
1
  0
VERTEX
  5
E2
  8
BASE_MEASURED
 10
925.0
 20
-172.0
 30
0.0
 70
0
  0
VERTEX
  5
E3
  8
BASE_MEASURED
 10
1002.0
 20
-172.0
 30
0.0
 70
0
  0
VERTEX
  5
E4
  8
BASE_MEASURED
 10
1002.0
 20
-187.0
 30
0.0
 70
0
  0
VERTEX
  5
E5
  8
BASE_MEASURED
 10
1062.0
 20
-187.0
 30
0.0
 70
0
  0
VERTEX
  5
E6
  8
BASE_MEASURED
 10
1062.0
 20
-172.0
 30
0.0
 70
0
  0
VERTEX
  5
E7
  8
BASE_MEASURED
 10
1138.99
 20
-172.0
 30
0.0
 70
0
  0
VERTEX
  5
E8
  8
BASE_MEASURED
 10
1138.99
 20
-225.0
 30
0.0
 70
0
  0
VERTEX
  5
E9
  8
BASE_MEASURED
 10
925.0
 20
-225.0
 30
0.0
 70
0
  0
SEQEND
  5
E1
  8
BASE_MEASURED
  0
POLYLINE
  5
EA
  8
BASE_MEASURED
 66
1
 10
0.0
 20
0.0
 30
0.0
 70
1
  0
VERTEX
  5
EC
  8
BASE_MEASURED
 10
925.0
 20
-225.0
 30
0.0
 70
0
  0
VERTEX
  5
ED
  8
BASE_MEASURED
 10
1138.99
 20
-225.0
 30
0.0
 70
0
  0
VERTEX
  5
EE
  8
BASE_MEASURED
 10
1138.99
 20
-1120.0
 30
0.0
 70
0
  0
VERTEX
  5
EF
  8
BASE_MEASURED
 10
925.0
 20
-1120.0
 30
0.0
 70
0
  0
SEQEND
  5
EB
  8
BASE_MEASURED
  0
POLYLINE
  5
F0
  8
BASE_MEASURED
 66
1
 10
0.0
 20
0.0
 30
0.0
 70
1
  0
VERTEX
  5
F2
  8
BASE_MEASURED
 10
908.0
 20
-220.0
 30
0.0
 70
0
  0
VERTEX
  5
F3
  8
BASE_MEASURED
 10
925.0
 20
-220.0
 30
0.0
 70
0
  0
VERTEX
  5
F4
  8
BASE_MEASURED
 10
925.0
 20
-200.0
 30
0.0
 70
0
  0
VERTEX
  5
F5
  8
BASE_MEASURED
 10
908.0
 20
-200.0
 30
0.0
 70
0
  0
SEQEND
  5
F1
  8
BASE_MEASURED
  0
POLYLINE
  5
F6
  8
BASE_MEASURED
 66
1
 10
0.0
 20
0.0
 30
0.0
 70
1
  0
VERTEX
  5
F8
  8
BASE_MEASURED
 10
1138.99
 20
-220.0
 30
0.0
 70
0
  0
VERTEX
  5
F9
  8
BASE_MEASURED
 10
1155.99
 20
-220.0
 30
0.0
 70
0
  0
VERTEX
  5
FA
  8
BASE_MEASURED
 10
1155.99
 20
-200.0
 30
0.0
 70
0
  0
VERTEX
  5
FB
  8
BASE_MEASURED
 10
1138.99
 20
-200.0
 30
0.0
 70
0
  0
SEQEND
  5
F7
  8
BASE_MEASURED
  0
LINE
  5
FC
  8
CENTER
 10
1040.0
 20
60.0
 30
0.0
 11
1040.0
 21
-250.0
 31
0.0
  0
TEXT
  5
FD
  8
TEXT
 10
790.0
 20
150.0
 30
0.0
 40
13.0
  1
HD3504NT 2峚僟僀乮30540丒30640 嫟捠乯偺戜乮僟僀V20-2.dxf 幚應乯
 11
790.0
 21
150.0
 31
0.0
  0
TEXT
  5
FE
  8
TEXT
 10
790.0
 20
130.0
 30
0.0
 40
11.0
  1
婡夿 婡夿晄柧丂搚戜 幚應
 11
790.0
 21
130.0
 31
0.0
  0
TEXT
  5
FF
  8
TEXT
 10
-260.0
 20
-1540.0
 30
0.0
 40
30.0
  1
HG2203 偵奺僟僀傪嵹偣偨忬懺乮僔儈儏儗乕僞乕偺擣幆乯
 11
-260.0
 21
-1540.0
 31
0.0
  0
POLYLINE
  5
100
  8
FRAME
 66
1
 10
0.0
 20
0.0
 30
0.0
 70
1
  0
VERTEX
  5
102
  8
FRAME
 10
-260.0
 20
-1630.0
 30
0.0
 70
0
  0
VERTEX
  5
103
  8
FRAME
 10
260.0
 20
-1630.0
 30
0.0
 70
0
  0
VERTEX
  5
104
  8
FRAME
 10
260.0
 20
-3030.0
 30
0.0
 70
0
  0
VERTEX
  5
105
  8
FRAME
 10
-260.0
 20
-3030.0
 30
0.0
 70
0
  0
SEQEND
  5
101
  8
FRAME
  0
POLYLINE
  5
106
  8
BASE_MEASURED
 66
1
 10
0.0
 20
0.0
 30
0.0
 70
1
  0
VERTEX
  5
108
  8
BASE_MEASURED
 10
-7.0
 20
-1860.0
 30
0.0
 70
0
  0
VERTEX
  5
109
  8
BASE_MEASURED
 10
7.0
 20
-1860.0
 30
0.0
 70
0
  0
VERTEX
  5
10A
  8
BASE_MEASURED
 10
7.0
 20
-1845.0
 30
0.0
 70
0
  0
VERTEX
  5
10B
  8
BASE_MEASURED
 10
6.0
 20
-1845.0
 30
0.0
 70
0
  0
VERTEX
  5
10C
  8
BASE_MEASURED
 10
6.0
 20
-1800.0
 30
0.0
 70
0
  0
VERTEX
  5
10D
  8
BASE_MEASURED
 10
4.0
 20
-1800.0
 30
0.0
 70
0
  0
VERTEX
  5
10E
  8
BASE_MEASURED
 10
0.0
 20
-1804.29
 30
0.0
 70
0
  0
VERTEX
  5
10F
  8
BASE_MEASURED
 10
-4.0
 20
-1800.0
 30
0.0
 70
0
  0
VERTEX
  5
110
  8
BASE_MEASURED
 10
-6.0
 20
-1800.0
 30
0.0
 70
0
  0
VERTEX
  5
111
  8
BASE_MEASURED
 10
-6.0
 20
-1845.0
 30
0.0
 70
0
  0
VERTEX
  5
112
  8
BASE_MEASURED
 10
-7.0
 20
-1845.0
 30
0.0
 70
0
  0
SEQEND
  5
107
  8
BASE_MEASURED
  0
POLYLINE
  5
113
  8
BASE_MEASURED
 66
1
 10
0.0
 20
0.0
 30
0.0
 70
1
  0
VERTEX
  5
115
  8
BASE_MEASURED
 10
67.0
 20
-1896.5
 30
0.0
 70
0
  0
VERTEX
  5
116
  8
BASE_MEASURED
 10
30.0
 20
-1896.5
 30
0.0
 70
0
  0
VERTEX
  5
117
  8
BASE_MEASURED
 10
30.0
 20
-1911.5
 30
0.0
 70
0
  0
VERTEX
  5
118
  8
BASE_MEASURED
 10
-30.0
 20
-1911.5
 30
0.0
 70
0
  0
VERTEX
  5
119
  8
BASE_MEASURED
 10
-30.0
 20
-1896.5
 30
0.0
 70
0
  0
VERTEX
  5
11A
  8
BASE_MEASURED
 10
-68.0
 20
-1896.5
 30
0.0
 70
0
  0
VERTEX
  5
11B
  8
BASE_MEASURED
 10
-68.0
 20
-1986.5
 30
0.0
 70
0
  0
VERTEX
  5
11C
  8
BASE_MEASURED
 10
-128.0
 20
-1986.5
 30
0.0
 70
0
  0
VERTEX
  5
11D
  8
BASE_MEASURED
 10
-128.0
 20
-2036.5
 30
0.0
 70
0
  0
VERTEX
  5
11E
  8
BASE_MEASURED
 10
-208.0
 20
-2036.5
 30
0.0
 70
0
  0
VERTEX
  5
11F
  8
BASE_MEASURED
 10
-208.0
 20
-2861.5
 30
0.0
 70
0
  0
VERTEX
  5
120
  8
BASE_MEASURED
 10
207.0
 20
-2861.5
 30
0.0
 70
0
  0
VERTEX
  5
121
  8
BASE_MEASURED
 10
207.0
 20
-2036.5
 30
0.0
 70
0
  0
VERTEX
  5
122
  8
BASE_MEASURED
 10
127.0
 20
-2036.5
 30
0.0
 70
0
  0
VERTEX
  5
123
  8
BASE_MEASURED
 10
127.0
 20
-1986.5
 30
0.0
 70
0
  0
VERTEX
  5
124
  8
BASE_MEASURED
 10
67.0
 20
-1986.5
 30
0.0
 70
0
  0
SEQEND
  5
114
  8
BASE_MEASURED
  0
POLYLINE
  5
125
  8
BASE_MEASURED
 66
1
 10
0.0
 20
0.0
 30
0.0
 70
1
  0
VERTEX
  5
127
  8
BASE_MEASURED
 10
30.0
 20
-1896.5
 30
0.0
 70
0
  0
VERTEX
  5
128
  8
BASE_MEASURED
 10
12.5
 20
-1896.5
 30
0.0
 70
0
  0
VERTEX
  5
129
  8
BASE_MEASURED
 10
12.5
 20
-1850.0
 30
0.0
 70
0
  0
VERTEX
  5
12A
  8
BASE_MEASURED
 10
7.0
 20
-1850.0
 30
0.0
 70
0
  0
VERTEX
  5
12B
  8
BASE_MEASURED
 10
7.0
 20
-1860.0
 30
0.0
 70
0
  0
VERTEX
  5
12C
  8
BASE_MEASURED
 10
-7.0
 20
-1860.0
 30
0.0
 70
0
  0
VERTEX
  5
12D
  8
BASE_MEASURED
 10
-7.0
 20
-1850.0
 30
0.0
 70
0
  0
VERTEX
  5
12E
  8
BASE_MEASURED
 10
-14.5
 20
-1850.0
 30
0.0
 70
0
  0
VERTEX
  5
12F
  8
BASE_MEASURED
 10
-14.5
 20
-1862.5
 30
0.0
 70
0
  0
VERTEX
  5
130
  8
BASE_MEASURED
 10
-18.5
 20
-1862.5
 30
0.0
 70
0
  0
VERTEX
  5
131
  8
BASE_MEASURED
 10
-18.5
 20
-1872.5
 30
0.0
 70
0
  0
VERTEX
  5
132
  8
BASE_MEASURED
 10
-14.5
 20
-1872.5
 30
0.0
 70
0
  0
VERTEX
  5
133
  8
BASE_MEASURED
 10
-14.5
 20
-1877.5
 30
0.0
 70
0
  0
VERTEX
  5
134
  8
BASE_MEASURED
 10
-12.5
 20
-1877.5
 30
0.0
 70
0
  0
VERTEX
  5
135
  8
BASE_MEASURED
 10
-12.5
 20
-1896.5
 30
0.0
 70
0
  0
VERTEX
  5
136
  8
BASE_MEASURED
 10
-30.0
 20
-1896.5
 30
0.0
 70
0
  0
VERTEX
  5
137
  8
BASE_MEASURED
 10
-30.0
 20
-1911.5
 30
0.0
 70
0
  0
VERTEX
  5
138
  8
BASE_MEASURED
 10
30.0
 20
-1911.5
 30
0.0
 70
0
  0
SEQEND
  5
126
  8
BASE_MEASURED
  0
POLYLINE
  5
139
  8
DIE
 66
1
 10
0.0
 20
0.0
 30
0.0
 70
1
  0
VERTEX
  5
13B
  8
DIE
 10
-7.0
 20
-1860.0
 30
0.0
 70
0
  0
VERTEX
  5
13C
  8
DIE
 10
7.0
 20
-1860.0
 30
0.0
 70
0
  0
VERTEX
  5
13D
  8
DIE
 10
7.0
 20
-1845.0
 30
0.0
 70
0
  0
VERTEX
  5
13E
  8
DIE
 10
6.0
 20
-1845.0
 30
0.0
 70
0
  0
VERTEX
  5
13F
  8
DIE
 10
6.0
 20
-1800.0
 30
0.0
 70
0
  0
VERTEX
  5
140
  8
DIE
 10
4.0
 20
-1800.0
 30
0.0
 70
0
  0
VERTEX
  5
141
  8
DIE
 10
0.0
 20
-1804.29
 30
0.0
 70
0
  0
VERTEX
  5
142
  8
DIE
 10
-4.0
 20
-1800.0
 30
0.0
 70
0
  0
VERTEX
  5
143
  8
DIE
 10
-6.0
 20
-1800.0
 30
0.0
 70
0
  0
VERTEX
  5
144
  8
DIE
 10
-6.0
 20
-1845.0
 30
0.0
 70
0
  0
VERTEX
  5
145
  8
DIE
 10
-7.0
 20
-1845.0
 30
0.0
 70
0
  0
SEQEND
  5
13A
  8
DIE
  0
LINE
  5
146
  8
CENTER
 10
0.0
 20
-1740.0
 30
0.0
 11
0.0
 21
-2050.0
 31
0.0
  0
TEXT
  5
147
  8
TEXT
 10
-250.0
 20
-1650.0
 30
0.0
 40
13.0
  1
971561 V8草话膩{僗僞僢僋
 11
-250.0
 21
-1650.0
 31
0.0
  0
TEXT
  5
148
  8
TEXT
 10
-250.0
 20
-1670.0
 30
0.0
 40
11.0
  1
婡夿 HG2203丂搚戜 幚應
 11
-250.0
 21
-1670.0
 31
0.0
  0
TEXT
  5
149
  8
TEXT
 10
-250.0
 20
-1690.0
 30
0.0
 40
11.0
  1
V暆 8丂怺偝 4.29
 11
-250.0
 21
-1690.0
 31
0.0
  0
TEXT
  5
14A
  8
TEXT
 10
-250.0
 20
-1710.0
 30
0.0
 40
11.0
  1
ins:971561:stack
 11
-250.0
 21
-1710.0
 31
0.0
  0
POLYLINE
  5
14B
  8
FRAME
 66
1
 10
0.0
 20
0.0
 30
0.0
 70
1
  0
VERTEX
  5
14D
  8
FRAME
 10
260.0
 20
-1630.0
 30
0.0
 70
0
  0
VERTEX
  5
14E
  8
FRAME
 10
780.0
 20
-1630.0
 30
0.0
 70
0
  0
VERTEX
  5
14F
  8
FRAME
 10
780.0
 20
-3030.0
 30
0.0
 70
0
  0
VERTEX
  5
150
  8
FRAME
 10
260.0
 20
-3030.0
 30
0.0
 70
0
  0
SEQEND
  5
14C
  8
FRAME
  0
POLYLINE
  5
151
  8
BASE_MEASURED
 66
1
 10
0.0
 20
0.0
 30
0.0
 70
1
  0
VERTEX
  5
153
  8
BASE_MEASURED
 10
513.0
 20
-1859.999
 30
0.0
 70
0
  0
VERTEX
  5
154
  8
BASE_MEASURED
 10
527.0
 20
-1859.999
 30
0.0
 70
0
  0
VERTEX
  5
155
  8
BASE_MEASURED
 10
527.0
 20
-1844.999
 30
0.0
 70
0
  0
VERTEX
  5
156
  8
BASE_MEASURED
 10
528.0
 20
-1844.999
 30
0.0
 70
0
  0
VERTEX
  5
157
  8
BASE_MEASURED
 10
528.0
 20
-1800.0
 30
0.0
 70
0
  0
VERTEX
  5
158
  8
BASE_MEASURED
 10
526.0
 20
-1800.0
 30
0.0
 70
0
  0
VERTEX
  5
159
  8
BASE_MEASURED
 10
520.0
 20
-1806.434
 30
0.0
 70
0
  0
VERTEX
  5
15A
  8
BASE_MEASURED
 10
514.0
 20
-1800.0
 30
0.0
 70
0
  0
VERTEX
  5
15B
  8
BASE_MEASURED
 10
512.0
 20
-1800.0
 30
0.0
 70
0
  0
VERTEX
  5
15C
  8
BASE_MEASURED
 10
512.0
 20
-1844.999
 30
0.0
 70
0
  0
VERTEX
  5
15D
  8
BASE_MEASURED
 10
513.0
 20
-1844.999
 30
0.0
 70
0
  0
SEQEND
  5
152
  8
BASE_MEASURED
  0
POLYLINE
  5
15E
  8
BASE_MEASURED
 66
1
 10
0.0
 20
0.0
 30
0.0
 70
1
  0
VERTEX
  5
160
  8
BASE_MEASURED
 10
587.0
 20
-1896.5
 30
0.0
 70
0
  0
VERTEX
  5
161
  8
BASE_MEASURED
 10
550.0
 20
-1896.5
 30
0.0
 70
0
  0
VERTEX
  5
162
  8
BASE_MEASURED
 10
550.0
 20
-1911.5
 30
0.0
 70
0
  0
VERTEX
  5
163
  8
BASE_MEASURED
 10
490.0
 20
-1911.5
 30
0.0
 70
0
  0
VERTEX
  5
164
  8
BASE_MEASURED
 10
490.0
 20
-1896.5
 30
0.0
 70
0
  0
VERTEX
  5
165
  8
BASE_MEASURED
 10
452.0
 20
-1896.5
 30
0.0
 70
0
  0
VERTEX
  5
166
  8
BASE_MEASURED
 10
452.0
 20
-1986.5
 30
0.0
 70
0
  0
VERTEX
  5
167
  8
BASE_MEASURED
 10
392.0
 20
-1986.5
 30
0.0
 70
0
  0
VERTEX
  5
168
  8
BASE_MEASURED
 10
392.0
 20
-2036.5
 30
0.0
 70
0
  0
VERTEX
  5
169
  8
BASE_MEASURED
 10
312.0
 20
-2036.5
 30
0.0
 70
0
  0
VERTEX
  5
16A
  8
BASE_MEASURED
 10
312.0
 20
-2861.5
 30
0.0
 70
0
  0
VERTEX
  5
16B
  8
BASE_MEASURED
 10
727.0
 20
-2861.5
 30
0.0
 70
0
  0
VERTEX
  5
16C
  8
BASE_MEASURED
 10
727.0
 20
-2036.5
 30
0.0
 70
0
  0
VERTEX
  5
16D
  8
BASE_MEASURED
 10
647.0
 20
-2036.5
 30
0.0
 70
0
  0
VERTEX
  5
16E
  8
BASE_MEASURED
 10
647.0
 20
-1986.5
 30
0.0
 70
0
  0
VERTEX
  5
16F
  8
BASE_MEASURED
 10
587.0
 20
-1986.5
 30
0.0
 70
0
  0
SEQEND
  5
15F
  8
BASE_MEASURED
  0
POLYLINE
  5
170
  8
BASE_MEASURED
 66
1
 10
0.0
 20
0.0
 30
0.0
 70
1
  0
VERTEX
  5
172
  8
BASE_MEASURED
 10
550.0
 20
-1896.5
 30
0.0
 70
0
  0
VERTEX
  5
173
  8
BASE_MEASURED
 10
532.5
 20
-1896.5
 30
0.0
 70
0
  0
VERTEX
  5
174
  8
BASE_MEASURED
 10
532.5
 20
-1850.0
 30
0.0
 70
0
  0
VERTEX
  5
175
  8
BASE_MEASURED
 10
527.0
 20
-1850.0
 30
0.0
 70
0
  0
VERTEX
  5
176
  8
BASE_MEASURED
 10
527.0
 20
-1860.0
 30
0.0
 70
0
  0
VERTEX
  5
177
  8
BASE_MEASURED
 10
513.0
 20
-1860.0
 30
0.0
 70
0
  0
VERTEX
  5
178
  8
BASE_MEASURED
 10
513.0
 20
-1850.0
 30
0.0
 70
0
  0
VERTEX
  5
179
  8
BASE_MEASURED
 10
505.5
 20
-1850.0
 30
0.0
 70
0
  0
VERTEX
  5
17A
  8
BASE_MEASURED
 10
505.5
 20
-1862.5
 30
0.0
 70
0
  0
VERTEX
  5
17B
  8
BASE_MEASURED
 10
501.5
 20
-1862.5
 30
0.0
 70
0
  0
VERTEX
  5
17C
  8
BASE_MEASURED
 10
501.5
 20
-1872.5
 30
0.0
 70
0
  0
VERTEX
  5
17D
  8
BASE_MEASURED
 10
505.5
 20
-1872.5
 30
0.0
 70
0
  0
VERTEX
  5
17E
  8
BASE_MEASURED
 10
505.5
 20
-1877.5
 30
0.0
 70
0
  0
VERTEX
  5
17F
  8
BASE_MEASURED
 10
507.5
 20
-1877.5
 30
0.0
 70
0
  0
VERTEX
  5
180
  8
BASE_MEASURED
 10
507.5
 20
-1896.5
 30
0.0
 70
0
  0
VERTEX
  5
181
  8
BASE_MEASURED
 10
490.0
 20
-1896.5
 30
0.0
 70
0
  0
VERTEX
  5
182
  8
BASE_MEASURED
 10
490.0
 20
-1911.5
 30
0.0
 70
0
  0
VERTEX
  5
183
  8
BASE_MEASURED
 10
550.0
 20
-1911.5
 30
0.0
 70
0
  0
SEQEND
  5
171
  8
BASE_MEASURED
  0
POLYLINE
  5
184
  8
DIE
 66
1
 10
0.0
 20
0.0
 30
0.0
 70
1
  0
VERTEX
  5
186
  8
DIE
 10
513.0
 20
-1859.999
 30
0.0
 70
0
  0
VERTEX
  5
187
  8
DIE
 10
527.0
 20
-1859.999
 30
0.0
 70
0
  0
VERTEX
  5
188
  8
DIE
 10
527.0
 20
-1844.999
 30
0.0
 70
0
  0
VERTEX
  5
189
  8
DIE
 10
528.0
 20
-1844.999
 30
0.0
 70
0
  0
VERTEX
  5
18A
  8
DIE
 10
528.0
 20
-1800.0
 30
0.0
 70
0
  0
VERTEX
  5
18B
  8
DIE
 10
526.0
 20
-1800.0
 30
0.0
 70
0
  0
VERTEX
  5
18C
  8
DIE
 10
520.0
 20
-1806.434
 30
0.0
 70
0
  0
VERTEX
  5
18D
  8
DIE
 10
514.0
 20
-1800.0
 30
0.0
 70
0
  0
VERTEX
  5
18E
  8
DIE
 10
512.0
 20
-1800.0
 30
0.0
 70
0
  0
VERTEX
  5
18F
  8
DIE
 10
512.0
 20
-1844.999
 30
0.0
 70
0
  0
VERTEX
  5
190
  8
DIE
 10
513.0
 20
-1844.999
 30
0.0
 70
0
  0
SEQEND
  5
185
  8
DIE
  0
LINE
  5
191
  8
CENTER
 10
520.0
 20
-1740.0
 30
0.0
 11
520.0
 21
-2050.0
 31
0.0
  0
TEXT
  5
192
  8
TEXT
 10
270.0
 20
-1650.0
 30
0.0
 40
13.0
  1
974061 V12草话膩{僗僞僢僋
 11
270.0
 21
-1650.0
 31
0.0
  0
TEXT
  5
193
  8
TEXT
 10
270.0
 20
-1670.0
 30
0.0
 40
11.0
  1
婡夿 HG2203丂搚戜 幚應
 11
270.0
 21
-1670.0
 31
0.0
  0
TEXT
  5
194
  8
TEXT
 10
270.0
 20
-1690.0
 30
0.0
 40
11.0
  1
V暆 12丂怺偝 6.43
 11
270.0
 21
-1690.0
 31
0.0
  0
TEXT
  5
195
  8
TEXT
 10
270.0
 20
-1710.0
 30
0.0
 40
11.0
  1
ins:974061:stack
 11
270.0
 21
-1710.0
 31
0.0
  0
POLYLINE
  5
196
  8
FRAME
 66
1
 10
0.0
 20
0.0
 30
0.0
 70
1
  0
VERTEX
  5
198
  8
FRAME
 10
780.0
 20
-1630.0
 30
0.0
 70
0
  0
VERTEX
  5
199
  8
FRAME
 10
1300.0
 20
-1630.0
 30
0.0
 70
0
  0
VERTEX
  5
19A
  8
FRAME
 10
1300.0
 20
-3030.0
 30
0.0
 70
0
  0
VERTEX
  5
19B
  8
FRAME
 10
780.0
 20
-3030.0
 30
0.0
 70
0
  0
SEQEND
  5
197
  8
FRAME
  0
POLYLINE
  5
19C
  8
BASE_MEASURED
 66
1
 10
0.0
 20
0.0
 30
0.0
 70
1
  0
VERTEX
  5
19E
  8
BASE_MEASURED
 10
1033.0
 20
-1860.0
 30
0.0
 70
0
  0
VERTEX
  5
19F
  8
BASE_MEASURED
 10
1047.0
 20
-1860.0
 30
0.0
 70
0
  0
VERTEX
  5
1A0
  8
BASE_MEASURED
 10
1047.0
 20
-1845.0
 30
0.0
 70
0
  0
VERTEX
  5
1A1
  8
BASE_MEASURED
 10
1050.0
 20
-1845.0
 30
0.0
 70
0
  0
VERTEX
  5
1A2
  8
BASE_MEASURED
 10
1050.0
 20
-1800.0
 30
0.0
 70
0
  0
VERTEX
  5
1A3
  8
BASE_MEASURED
 10
1048.0
 20
-1800.0
 30
0.0
 70
0
  0
VERTEX
  5
1A4
  8
BASE_MEASURED
 10
1040.0
 20
-1808.579
 30
0.0
 70
0
  0
VERTEX
  5
1A5
  8
BASE_MEASURED
 10
1032.0
 20
-1800.0
 30
0.0
 70
0
  0
VERTEX
  5
1A6
  8
BASE_MEASURED
 10
1030.0
 20
-1800.0
 30
0.0
 70
0
  0
VERTEX
  5
1A7
  8
BASE_MEASURED
 10
1030.0
 20
-1845.0
 30
0.0
 70
0
  0
VERTEX
  5
1A8
  8
BASE_MEASURED
 10
1033.0
 20
-1845.0
 30
0.0
 70
0
  0
SEQEND
  5
19D
  8
BASE_MEASURED
  0
POLYLINE
  5
1A9
  8
BASE_MEASURED
 66
1
 10
0.0
 20
0.0
 30
0.0
 70
1
  0
VERTEX
  5
1AB
  8
BASE_MEASURED
 10
1107.0
 20
-1896.5
 30
0.0
 70
0
  0
VERTEX
  5
1AC
  8
BASE_MEASURED
 10
1070.0
 20
-1896.5
 30
0.0
 70
0
  0
VERTEX
  5
1AD
  8
BASE_MEASURED
 10
1070.0
 20
-1911.5
 30
0.0
 70
0
  0
VERTEX
  5
1AE
  8
BASE_MEASURED
 10
1010.0
 20
-1911.5
 30
0.0
 70
0
  0
VERTEX
  5
1AF
  8
BASE_MEASURED
 10
1010.0
 20
-1896.5
 30
0.0
 70
0
  0
VERTEX
  5
1B0
  8
BASE_MEASURED
 10
972.0
 20
-1896.5
 30
0.0
 70
0
  0
VERTEX
  5
1B1
  8
BASE_MEASURED
 10
972.0
 20
-1986.5
 30
0.0
 70
0
  0
VERTEX
  5
1B2
  8
BASE_MEASURED
 10
912.0
 20
-1986.5
 30
0.0
 70
0
  0
VERTEX
  5
1B3
  8
BASE_MEASURED
 10
912.0
 20
-2036.5
 30
0.0
 70
0
  0
VERTEX
  5
1B4
  8
BASE_MEASURED
 10
832.0
 20
-2036.5
 30
0.0
 70
0
  0
VERTEX
  5
1B5
  8
BASE_MEASURED
 10
832.0
 20
-2861.5
 30
0.0
 70
0
  0
VERTEX
  5
1B6
  8
BASE_MEASURED
 10
1247.0
 20
-2861.5
 30
0.0
 70
0
  0
VERTEX
  5
1B7
  8
BASE_MEASURED
 10
1247.0
 20
-2036.5
 30
0.0
 70
0
  0
VERTEX
  5
1B8
  8
BASE_MEASURED
 10
1167.0
 20
-2036.5
 30
0.0
 70
0
  0
VERTEX
  5
1B9
  8
BASE_MEASURED
 10
1167.0
 20
-1986.5
 30
0.0
 70
0
  0
VERTEX
  5
1BA
  8
BASE_MEASURED
 10
1107.0
 20
-1986.5
 30
0.0
 70
0
  0
SEQEND
  5
1AA
  8
BASE_MEASURED
  0
POLYLINE
  5
1BB
  8
BASE_MEASURED
 66
1
 10
0.0
 20
0.0
 30
0.0
 70
1
  0
VERTEX
  5
1BD
  8
BASE_MEASURED
 10
1070.0
 20
-1896.5
 30
0.0
 70
0
  0
VERTEX
  5
1BE
  8
BASE_MEASURED
 10
1052.5
 20
-1896.5
 30
0.0
 70
0
  0
VERTEX
  5
1BF
  8
BASE_MEASURED
 10
1052.5
 20
-1850.0
 30
0.0
 70
0
  0
VERTEX
  5
1C0
  8
BASE_MEASURED
 10
1047.0
 20
-1850.0
 30
0.0
 70
0
  0
VERTEX
  5
1C1
  8
BASE_MEASURED
 10
1047.0
 20
-1860.0
 30
0.0
 70
0
  0
VERTEX
  5
1C2
  8
BASE_MEASURED
 10
1033.0
 20
-1860.0
 30
0.0
 70
0
  0
VERTEX
  5
1C3
  8
BASE_MEASURED
 10
1033.0
 20
-1850.0
 30
0.0
 70
0
  0
VERTEX
  5
1C4
  8
BASE_MEASURED
 10
1025.5
 20
-1850.0
 30
0.0
 70
0
  0
VERTEX
  5
1C5
  8
BASE_MEASURED
 10
1025.5
 20
-1862.5
 30
0.0
 70
0
  0
VERTEX
  5
1C6
  8
BASE_MEASURED
 10
1021.5
 20
-1862.5
 30
0.0
 70
0
  0
VERTEX
  5
1C7
  8
BASE_MEASURED
 10
1021.5
 20
-1872.5
 30
0.0
 70
0
  0
VERTEX
  5
1C8
  8
BASE_MEASURED
 10
1025.5
 20
-1872.5
 30
0.0
 70
0
  0
VERTEX
  5
1C9
  8
BASE_MEASURED
 10
1025.5
 20
-1877.5
 30
0.0
 70
0
  0
VERTEX
  5
1CA
  8
BASE_MEASURED
 10
1027.5
 20
-1877.5
 30
0.0
 70
0
  0
VERTEX
  5
1CB
  8
BASE_MEASURED
 10
1027.5
 20
-1896.5
 30
0.0
 70
0
  0
VERTEX
  5
1CC
  8
BASE_MEASURED
 10
1010.0
 20
-1896.5
 30
0.0
 70
0
  0
VERTEX
  5
1CD
  8
BASE_MEASURED
 10
1010.0
 20
-1911.5
 30
0.0
 70
0
  0
VERTEX
  5
1CE
  8
BASE_MEASURED
 10
1070.0
 20
-1911.5
 30
0.0
 70
0
  0
SEQEND
  5
1BC
  8
BASE_MEASURED
  0
POLYLINE
  5
1CF
  8
DIE
 66
1
 10
0.0
 20
0.0
 30
0.0
 70
1
  0
VERTEX
  5
1D1
  8
DIE
 10
1033.0
 20
-1860.0
 30
0.0
 70
0
  0
VERTEX
  5
1D2
  8
DIE
 10
1047.0
 20
-1860.0
 30
0.0
 70
0
  0
VERTEX
  5
1D3
  8
DIE
 10
1047.0
 20
-1845.0
 30
0.0
 70
0
  0
VERTEX
  5
1D4
  8
DIE
 10
1050.0
 20
-1845.0
 30
0.0
 70
0
  0
VERTEX
  5
1D5
  8
DIE
 10
1050.0
 20
-1800.0
 30
0.0
 70
0
  0
VERTEX
  5
1D6
  8
DIE
 10
1048.0
 20
-1800.0
 30
0.0
 70
0
  0
VERTEX
  5
1D7
  8
DIE
 10
1040.0
 20
-1808.579
 30
0.0
 70
0
  0
VERTEX
  5
1D8
  8
DIE
 10
1032.0
 20
-1800.0
 30
0.0
 70
0
  0
VERTEX
  5
1D9
  8
DIE
 10
1030.0
 20
-1800.0
 30
0.0
 70
0
  0
VERTEX
  5
1DA
  8
DIE
 10
1030.0
 20
-1845.0
 30
0.0
 70
0
  0
VERTEX
  5
1DB
  8
DIE
 10
1033.0
 20
-1845.0
 30
0.0
 70
0
  0
SEQEND
  5
1D0
  8
DIE
  0
LINE
  5
1DC
  8
CENTER
 10
1040.0
 20
-1740.0
 30
0.0
 11
1040.0
 21
-2050.0
 31
0.0
  0
TEXT
  5
1DD
  8
TEXT
 10
790.0
 20
-1650.0
 30
0.0
 40
13.0
  1
977061 V16草话膩{僗僞僢僋
 11
790.0
 21
-1650.0
 31
0.0
  0
TEXT
  5
1DE
  8
TEXT
 10
790.0
 20
-1670.0
 30
0.0
 40
11.0
  1
婡夿 HG2203丂搚戜 幚應
 11
790.0
 21
-1670.0
 31
0.0
  0
TEXT
  5
1DF
  8
TEXT
 10
790.0
 20
-1690.0
 30
0.0
 40
11.0
  1
V暆 16丂怺偝 8.58
 11
790.0
 21
-1690.0
 31
0.0
  0
TEXT
  5
1E0
  8
TEXT
 10
790.0
 20
-1710.0
 30
0.0
 40
11.0
  1
ins:977061:stack
 11
790.0
 21
-1710.0
 31
0.0
  0
POLYLINE
  5
1E1
  8
FRAME
 66
1
 10
0.0
 20
0.0
 30
0.0
 70
1
  0
VERTEX
  5
1E3
  8
FRAME
 10
1300.0
 20
-1630.0
 30
0.0
 70
0
  0
VERTEX
  5
1E4
  8
FRAME
 10
1820.0
 20
-1630.0
 30
0.0
 70
0
  0
VERTEX
  5
1E5
  8
FRAME
 10
1820.0
 20
-3030.0
 30
0.0
 70
0
  0
VERTEX
  5
1E6
  8
FRAME
 10
1300.0
 20
-3030.0
 30
0.0
 70
0
  0
SEQEND
  5
1E2
  8
FRAME
  0
POLYLINE
  5
1E7
  8
BASE_MEASURED
 66
1
 10
0.0
 20
0.0
 30
0.0
 70
1
  0
VERTEX
  5
1E9
  8
BASE_MEASURED
 10
1553.0
 20
-1860.0
 30
0.0
 70
0
  0
VERTEX
  5
1EA
  8
BASE_MEASURED
 10
1567.0
 20
-1860.0
 30
0.0
 70
0
  0
VERTEX
  5
1EB
  8
BASE_MEASURED
 10
1567.0
 20
-1845.0
 30
0.0
 70
0
  0
VERTEX
  5
1EC
  8
BASE_MEASURED
 10
1572.2
 20
-1845.0
 30
0.0
 70
0
  0
VERTEX
  5
1ED
  8
BASE_MEASURED
 10
1572.2
 20
-1800.0
 30
0.0
 70
0
  0
VERTEX
  5
1EE
  8
BASE_MEASURED
 10
1570.0
 20
-1800.0
 30
0.0
 70
0
  0
VERTEX
  5
1EF
  8
BASE_MEASURED
 10
1560.0
 20
-1810.724
 30
0.0
 70
0
  0
VERTEX
  5
1F0
  8
BASE_MEASURED
 10
1550.0
 20
-1800.0
 30
0.0
 70
0
  0
VERTEX
  5
1F1
  8
BASE_MEASURED
 10
1547.8
 20
-1800.0
 30
0.0
 70
0
  0
VERTEX
  5
1F2
  8
BASE_MEASURED
 10
1547.8
 20
-1845.0
 30
0.0
 70
0
  0
VERTEX
  5
1F3
  8
BASE_MEASURED
 10
1553.0
 20
-1845.0
 30
0.0
 70
0
  0
SEQEND
  5
1E8
  8
BASE_MEASURED
  0
POLYLINE
  5
1F4
  8
BASE_MEASURED
 66
1
 10
0.0
 20
0.0
 30
0.0
 70
1
  0
VERTEX
  5
1F6
  8
BASE_MEASURED
 10
1627.0
 20
-1896.5
 30
0.0
 70
0
  0
VERTEX
  5
1F7
  8
BASE_MEASURED
 10
1590.0
 20
-1896.5
 30
0.0
 70
0
  0
VERTEX
  5
1F8
  8
BASE_MEASURED
 10
1590.0
 20
-1911.5
 30
0.0
 70
0
  0
VERTEX
  5
1F9
  8
BASE_MEASURED
 10
1530.0
 20
-1911.5
 30
0.0
 70
0
  0
VERTEX
  5
1FA
  8
BASE_MEASURED
 10
1530.0
 20
-1896.5
 30
0.0
 70
0
  0
VERTEX
  5
1FB
  8
BASE_MEASURED
 10
1492.0
 20
-1896.5
 30
0.0
 70
0
  0
VERTEX
  5
1FC
  8
BASE_MEASURED
 10
1492.0
 20
-1986.5
 30
0.0
 70
0
  0
VERTEX
  5
1FD
  8
BASE_MEASURED
 10
1432.0
 20
-1986.5
 30
0.0
 70
0
  0
VERTEX
  5
1FE
  8
BASE_MEASURED
 10
1432.0
 20
-2036.5
 30
0.0
 70
0
  0
VERTEX
  5
1FF
  8
BASE_MEASURED
 10
1352.0
 20
-2036.5
 30
0.0
 70
0
  0
VERTEX
  5
200
  8
BASE_MEASURED
 10
1352.0
 20
-2861.5
 30
0.0
 70
0
  0
VERTEX
  5
201
  8
BASE_MEASURED
 10
1767.0
 20
-2861.5
 30
0.0
 70
0
  0
VERTEX
  5
202
  8
BASE_MEASURED
 10
1767.0
 20
-2036.5
 30
0.0
 70
0
  0
VERTEX
  5
203
  8
BASE_MEASURED
 10
1687.0
 20
-2036.5
 30
0.0
 70
0
  0
VERTEX
  5
204
  8
BASE_MEASURED
 10
1687.0
 20
-1986.5
 30
0.0
 70
0
  0
VERTEX
  5
205
  8
BASE_MEASURED
 10
1627.0
 20
-1986.5
 30
0.0
 70
0
  0
SEQEND
  5
1F5
  8
BASE_MEASURED
  0
POLYLINE
  5
206
  8
BASE_MEASURED
 66
1
 10
0.0
 20
0.0
 30
0.0
 70
1
  0
VERTEX
  5
208
  8
BASE_MEASURED
 10
1590.0
 20
-1896.5
 30
0.0
 70
0
  0
VERTEX
  5
209
  8
BASE_MEASURED
 10
1572.5
 20
-1896.5
 30
0.0
 70
0
  0
VERTEX
  5
20A
  8
BASE_MEASURED
 10
1572.5
 20
-1850.0
 30
0.0
 70
0
  0
VERTEX
  5
20B
  8
BASE_MEASURED
 10
1567.0
 20
-1850.0
 30
0.0
 70
0
  0
VERTEX
  5
20C
  8
BASE_MEASURED
 10
1567.0
 20
-1860.0
 30
0.0
 70
0
  0
VERTEX
  5
20D
  8
BASE_MEASURED
 10
1553.0
 20
-1860.0
 30
0.0
 70
0
  0
VERTEX
  5
20E
  8
BASE_MEASURED
 10
1553.0
 20
-1850.0
 30
0.0
 70
0
  0
VERTEX
  5
20F
  8
BASE_MEASURED
 10
1545.5
 20
-1850.0
 30
0.0
 70
0
  0
VERTEX
  5
210
  8
BASE_MEASURED
 10
1545.5
 20
-1862.5
 30
0.0
 70
0
  0
VERTEX
  5
211
  8
BASE_MEASURED
 10
1541.5
 20
-1862.5
 30
0.0
 70
0
  0
VERTEX
  5
212
  8
BASE_MEASURED
 10
1541.5
 20
-1872.5
 30
0.0
 70
0
  0
VERTEX
  5
213
  8
BASE_MEASURED
 10
1545.5
 20
-1872.5
 30
0.0
 70
0
  0
VERTEX
  5
214
  8
BASE_MEASURED
 10
1545.5
 20
-1877.5
 30
0.0
 70
0
  0
VERTEX
  5
215
  8
BASE_MEASURED
 10
1547.5
 20
-1877.5
 30
0.0
 70
0
  0
VERTEX
  5
216
  8
BASE_MEASURED
 10
1547.5
 20
-1896.5
 30
0.0
 70
0
  0
VERTEX
  5
217
  8
BASE_MEASURED
 10
1530.0
 20
-1896.5
 30
0.0
 70
0
  0
VERTEX
  5
218
  8
BASE_MEASURED
 10
1530.0
 20
-1911.5
 30
0.0
 70
0
  0
VERTEX
  5
219
  8
BASE_MEASURED
 10
1590.0
 20
-1911.5
 30
0.0
 70
0
  0
SEQEND
  5
207
  8
BASE_MEASURED
  0
POLYLINE
  5
21A
  8
DIE
 66
1
 10
0.0
 20
0.0
 30
0.0
 70
1
  0
VERTEX
  5
21C
  8
DIE
 10
1553.0
 20
-1860.0
 30
0.0
 70
0
  0
VERTEX
  5
21D
  8
DIE
 10
1567.0
 20
-1860.0
 30
0.0
 70
0
  0
VERTEX
  5
21E
  8
DIE
 10
1567.0
 20
-1845.0
 30
0.0
 70
0
  0
VERTEX
  5
21F
  8
DIE
 10
1572.2
 20
-1845.0
 30
0.0
 70
0
  0
VERTEX
  5
220
  8
DIE
 10
1572.2
 20
-1800.0
 30
0.0
 70
0
  0
VERTEX
  5
221
  8
DIE
 10
1570.0
 20
-1800.0
 30
0.0
 70
0
  0
VERTEX
  5
222
  8
DIE
 10
1560.0
 20
-1810.724
 30
0.0
 70
0
  0
VERTEX
  5
223
  8
DIE
 10
1550.0
 20
-1800.0
 30
0.0
 70
0
  0
VERTEX
  5
224
  8
DIE
 10
1547.8
 20
-1800.0
 30
0.0
 70
0
  0
VERTEX
  5
225
  8
DIE
 10
1547.8
 20
-1845.0
 30
0.0
 70
0
  0
VERTEX
  5
226
  8
DIE
 10
1553.0
 20
-1845.0
 30
0.0
 70
0
  0
SEQEND
  5
21B
  8
DIE
  0
LINE
  5
227
  8
CENTER
 10
1560.0
 20
-1740.0
 30
0.0
 11
1560.0
 21
-2050.0
 31
0.0
  0
TEXT
  5
228
  8
TEXT
 10
1310.0
 20
-1650.0
 30
0.0
 40
13.0
  1
979061 V20草话膩{僗僞僢僋
 11
1310.0
 21
-1650.0
 31
0.0
  0
TEXT
  5
229
  8
TEXT
 10
1310.0
 20
-1670.0
 30
0.0
 40
11.0
  1
婡夿 HG2203丂搚戜 幚應
 11
1310.0
 21
-1670.0
 31
0.0
  0
TEXT
  5
22A
  8
TEXT
 10
1310.0
 20
-1690.0
 30
0.0
 40
11.0
  1
V暆 20丂怺偝 10.72
 11
1310.0
 21
-1690.0
 31
0.0
  0
TEXT
  5
22B
  8
TEXT
 10
1310.0
 20
-1710.0
 30
0.0
 40
11.0
  1
ins:979061:stack
 11
1310.0
 21
-1710.0
 31
0.0
  0
POLYLINE
  5
22C
  8
FRAME
 66
1
 10
0.0
 20
0.0
 30
0.0
 70
1
  0
VERTEX
  5
22E
  8
FRAME
 10
1820.0
 20
-1630.0
 30
0.0
 70
0
  0
VERTEX
  5
22F
  8
FRAME
 10
2340.0
 20
-1630.0
 30
0.0
 70
0
  0
VERTEX
  5
230
  8
FRAME
 10
2340.0
 20
-3030.0
 30
0.0
 70
0
  0
VERTEX
  5
231
  8
FRAME
 10
1820.0
 20
-3030.0
 30
0.0
 70
0
  0
SEQEND
  5
22D
  8
FRAME
  0
POLYLINE
  5
232
  8
BASE_MEASURED
 66
1
 10
0.0
 20
0.0
 30
0.0
 70
1
  0
VERTEX
  5
234
  8
BASE_MEASURED
 10
2073.0
 20
-1860.0
 30
0.0
 70
0
  0
VERTEX
  5
235
  8
BASE_MEASURED
 10
2087.0
 20
-1860.0
 30
0.0
 70
0
  0
VERTEX
  5
236
  8
BASE_MEASURED
 10
2087.0
 20
-1845.0
 30
0.0
 70
0
  0
VERTEX
  5
237
  8
BASE_MEASURED
 10
2094.75
 20
-1845.0
 30
0.0
 70
0
  0
VERTEX
  5
238
  8
BASE_MEASURED
 10
2094.75
 20
-1800.0
 30
0.0
 70
0
  0
VERTEX
  5
239
  8
BASE_MEASURED
 10
2092.5
 20
-1800.0
 30
0.0
 70
0
  0
VERTEX
  5
23A
  8
BASE_MEASURED
 10
2080.0
 20
-1813.405
 30
0.0
 70
0
  0
VERTEX
  5
23B
  8
BASE_MEASURED
 10
2067.5
 20
-1800.0
 30
0.0
 70
0
  0
VERTEX
  5
23C
  8
BASE_MEASURED
 10
2065.25
 20
-1800.0
 30
0.0
 70
0
  0
VERTEX
  5
23D
  8
BASE_MEASURED
 10
2065.25
 20
-1845.0
 30
0.0
 70
0
  0
VERTEX
  5
23E
  8
BASE_MEASURED
 10
2073.0
 20
-1845.0
 30
0.0
 70
0
  0
SEQEND
  5
233
  8
BASE_MEASURED
  0
POLYLINE
  5
23F
  8
BASE_MEASURED
 66
1
 10
0.0
 20
0.0
 30
0.0
 70
1
  0
VERTEX
  5
241
  8
BASE_MEASURED
 10
2147.0
 20
-1896.5
 30
0.0
 70
0
  0
VERTEX
  5
242
  8
BASE_MEASURED
 10
2110.0
 20
-1896.5
 30
0.0
 70
0
  0
VERTEX
  5
243
  8
BASE_MEASURED
 10
2110.0
 20
-1911.5
 30
0.0
 70
0
  0
VERTEX
  5
244
  8
BASE_MEASURED
 10
2050.0
 20
-1911.5
 30
0.0
 70
0
  0
VERTEX
  5
245
  8
BASE_MEASURED
 10
2050.0
 20
-1896.5
 30
0.0
 70
0
  0
VERTEX
  5
246
  8
BASE_MEASURED
 10
2012.0
 20
-1896.5
 30
0.0
 70
0
  0
VERTEX
  5
247
  8
BASE_MEASURED
 10
2012.0
 20
-1986.5
 30
0.0
 70
0
  0
VERTEX
  5
248
  8
BASE_MEASURED
 10
1952.0
 20
-1986.5
 30
0.0
 70
0
  0
VERTEX
  5
249
  8
BASE_MEASURED
 10
1952.0
 20
-2036.5
 30
0.0
 70
0
  0
VERTEX
  5
24A
  8
BASE_MEASURED
 10
1872.0
 20
-2036.5
 30
0.0
 70
0
  0
VERTEX
  5
24B
  8
BASE_MEASURED
 10
1872.0
 20
-2861.5
 30
0.0
 70
0
  0
VERTEX
  5
24C
  8
BASE_MEASURED
 10
2287.0
 20
-2861.5
 30
0.0
 70
0
  0
VERTEX
  5
24D
  8
BASE_MEASURED
 10
2287.0
 20
-2036.5
 30
0.0
 70
0
  0
VERTEX
  5
24E
  8
BASE_MEASURED
 10
2207.0
 20
-2036.5
 30
0.0
 70
0
  0
VERTEX
  5
24F
  8
BASE_MEASURED
 10
2207.0
 20
-1986.5
 30
0.0
 70
0
  0
VERTEX
  5
250
  8
BASE_MEASURED
 10
2147.0
 20
-1986.5
 30
0.0
 70
0
  0
SEQEND
  5
240
  8
BASE_MEASURED
  0
POLYLINE
  5
251
  8
BASE_MEASURED
 66
1
 10
0.0
 20
0.0
 30
0.0
 70
1
  0
VERTEX
  5
253
  8
BASE_MEASURED
 10
2110.0
 20
-1896.5
 30
0.0
 70
0
  0
VERTEX
  5
254
  8
BASE_MEASURED
 10
2092.5
 20
-1896.5
 30
0.0
 70
0
  0
VERTEX
  5
255
  8
BASE_MEASURED
 10
2092.5
 20
-1850.0
 30
0.0
 70
0
  0
VERTEX
  5
256
  8
BASE_MEASURED
 10
2087.0
 20
-1850.0
 30
0.0
 70
0
  0
VERTEX
  5
257
  8
BASE_MEASURED
 10
2087.0
 20
-1860.0
 30
0.0
 70
0
  0
VERTEX
  5
258
  8
BASE_MEASURED
 10
2073.0
 20
-1860.0
 30
0.0
 70
0
  0
VERTEX
  5
259
  8
BASE_MEASURED
 10
2073.0
 20
-1850.0
 30
0.0
 70
0
  0
VERTEX
  5
25A
  8
BASE_MEASURED
 10
2065.5
 20
-1850.0
 30
0.0
 70
0
  0
VERTEX
  5
25B
  8
BASE_MEASURED
 10
2065.5
 20
-1862.5
 30
0.0
 70
0
  0
VERTEX
  5
25C
  8
BASE_MEASURED
 10
2061.5
 20
-1862.5
 30
0.0
 70
0
  0
VERTEX
  5
25D
  8
BASE_MEASURED
 10
2061.5
 20
-1872.5
 30
0.0
 70
0
  0
VERTEX
  5
25E
  8
BASE_MEASURED
 10
2065.5
 20
-1872.5
 30
0.0
 70
0
  0
VERTEX
  5
25F
  8
BASE_MEASURED
 10
2065.5
 20
-1877.5
 30
0.0
 70
0
  0
VERTEX
  5
260
  8
BASE_MEASURED
 10
2067.5
 20
-1877.5
 30
0.0
 70
0
  0
VERTEX
  5
261
  8
BASE_MEASURED
 10
2067.5
 20
-1896.5
 30
0.0
 70
0
  0
VERTEX
  5
262
  8
BASE_MEASURED
 10
2050.0
 20
-1896.5
 30
0.0
 70
0
  0
VERTEX
  5
263
  8
BASE_MEASURED
 10
2050.0
 20
-1911.5
 30
0.0
 70
0
  0
VERTEX
  5
264
  8
BASE_MEASURED
 10
2110.0
 20
-1911.5
 30
0.0
 70
0
  0
SEQEND
  5
252
  8
BASE_MEASURED
  0
POLYLINE
  5
265
  8
DIE
 66
1
 10
0.0
 20
0.0
 30
0.0
 70
1
  0
VERTEX
  5
267
  8
DIE
 10
2073.0
 20
-1860.0
 30
0.0
 70
0
  0
VERTEX
  5
268
  8
DIE
 10
2087.0
 20
-1860.0
 30
0.0
 70
0
  0
VERTEX
  5
269
  8
DIE
 10
2087.0
 20
-1845.0
 30
0.0
 70
0
  0
VERTEX
  5
26A
  8
DIE
 10
2094.75
 20
-1845.0
 30
0.0
 70
0
  0
VERTEX
  5
26B
  8
DIE
 10
2094.75
 20
-1800.0
 30
0.0
 70
0
  0
VERTEX
  5
26C
  8
DIE
 10
2092.5
 20
-1800.0
 30
0.0
 70
0
  0
VERTEX
  5
26D
  8
DIE
 10
2080.0
 20
-1813.405
 30
0.0
 70
0
  0
VERTEX
  5
26E
  8
DIE
 10
2067.5
 20
-1800.0
 30
0.0
 70
0
  0
VERTEX
  5
26F
  8
DIE
 10
2065.25
 20
-1800.0
 30
0.0
 70
0
  0
VERTEX
  5
270
  8
DIE
 10
2065.25
 20
-1845.0
 30
0.0
 70
0
  0
VERTEX
  5
271
  8
DIE
 10
2073.0
 20
-1845.0
 30
0.0
 70
0
  0
SEQEND
  5
266
  8
DIE
  0
LINE
  5
272
  8
CENTER
 10
2080.0
 20
-1740.0
 30
0.0
 11
2080.0
 21
-2050.0
 31
0.0
  0
TEXT
  5
273
  8
TEXT
 10
1830.0
 20
-1650.0
 30
0.0
 40
13.0
  1
982061 V25草话膩{僗僞僢僋
 11
1830.0
 21
-1650.0
 31
0.0
  0
TEXT
  5
274
  8
TEXT
 10
1830.0
 20
-1670.0
 30
0.0
 40
11.0
  1
婡夿 HG2203丂搚戜 幚應
 11
1830.0
 21
-1670.0
 31
0.0
  0
TEXT
  5
275
  8
TEXT
 10
1830.0
 20
-1690.0
 30
0.0
 40
11.0
  1
V暆 25丂怺偝 13.4
 11
1830.0
 21
-1690.0
 31
0.0
  0
TEXT
  5
276
  8
TEXT
 10
1830.0
 20
-1710.0
 30
0.0
 40
11.0
  1
ins:982061:stack
 11
1830.0
 21
-1710.0
 31
0.0
  0
TEXT
  5
277
  8
TEXT
 10
-260.0
 20
-3340.0
 30
0.0
 40
30.0
  1
HD3504NT 偵奺僟僀傪嵹偣偨忬懺乮僔儈儏儗乕僞乕偺擣幆乯
 11
-260.0
 21
-3340.0
 31
0.0
  0
POLYLINE
  5
278
  8
FRAME
 66
1
 10
0.0
 20
0.0
 30
0.0
 70
1
  0
VERTEX
  5
27A
  8
FRAME
 10
-260.0
 20
-3430.0
 30
0.0
 70
0
  0
VERTEX
  5
27B
  8
FRAME
 10
260.0
 20
-3430.0
 30
0.0
 70
0
  0
VERTEX
  5
27C
  8
FRAME
 10
260.0
 20
-4830.0
 30
0.0
 70
0
  0
VERTEX
  5
27D
  8
FRAME
 10
-260.0
 20
-4830.0
 30
0.0
 70
0
  0
SEQEND
  5
279
  8
FRAME
  0
POLYLINE
  5
27E
  8
BASE_MEASURED
 66
1
 10
0.0
 20
0.0
 30
0.0
 70
1
  0
VERTEX
  5
280
  8
BASE_MEASURED
 10
107.0
 20
-3753.0
 30
0.0
 70
0
  0
VERTEX
  5
281
  8
BASE_MEASURED
 10
87.0
 20
-3753.0
 30
0.0
 70
0
  0
VERTEX
  5
282
  8
BASE_MEASURED
 10
-86.98
 20
-3753.0
 30
0.0
 70
0
  0
VERTEX
  5
283
  8
BASE_MEASURED
 10
-106.98
 20
-3753.0
 30
0.0
 70
0
  0
VERTEX
  5
284
  8
BASE_MEASURED
 10
-106.98
 20
-4648.0
 30
0.0
 70
0
  0
VERTEX
  5
285
  8
BASE_MEASURED
 10
107.0
 20
-4648.0
 30
0.0
 70
0
  0
SEQEND
  5
27F
  8
BASE_MEASURED
  0
POLYLINE
  5
286
  8
BASE_MEASURED
 66
1
 10
0.0
 20
0.0
 30
0.0
 70
1
  0
VERTEX
  5
288
  8
BASE_MEASURED
 10
-29.98
 20
-3715.0
 30
0.0
 70
0
  0
VERTEX
  5
289
  8
BASE_MEASURED
 10
-30.0
 20
-3715.0
 30
0.0
 70
0
  0
VERTEX
  5
28A
  8
BASE_MEASURED
 10
-86.98
 20
-3715.0
 30
0.0
 70
0
  0
VERTEX
  5
28B
  8
BASE_MEASURED
 10
-86.98
 20
-3753.0
 30
0.0
 70
0
  0
VERTEX
  5
28C
  8
BASE_MEASURED
 10
87.0
 20
-3753.0
 30
0.0
 70
0
  0
VERTEX
  5
28D
  8
BASE_MEASURED
 10
87.0
 20
-3715.0
 30
0.0
 70
0
  0
VERTEX
  5
28E
  8
BASE_MEASURED
 10
30.0
 20
-3715.0
 30
0.0
 70
0
  0
SEQEND
  5
287
  8
BASE_MEASURED
  0
POLYLINE
  5
28F
  8
BASE_MEASURED
 66
1
 10
0.0
 20
0.0
 30
0.0
 70
1
  0
VERTEX
  5
291
  8
BASE_MEASURED
 10
30.0
 20
-3660.0
 30
0.0
 70
0
  0
VERTEX
  5
292
  8
BASE_MEASURED
 10
-29.98
 20
-3660.0
 30
0.0
 70
0
  0
VERTEX
  5
293
  8
BASE_MEASURED
 10
-30.0
 20
-3660.0
 30
0.0
 70
0
  0
VERTEX
  5
294
  8
BASE_MEASURED
 10
-30.0
 20
-3645.0
 30
0.0
 70
0
  0
VERTEX
  5
295
  8
BASE_MEASURED
 10
-36.99
 20
-3645.0
 30
0.0
 70
0
  0
VERTEX
  5
296
  8
BASE_MEASURED
 10
-46.99
 20
-3662.0
 30
0.0
 70
0
  0
VERTEX
  5
297
  8
BASE_MEASURED
 10
-46.99
 20
-3678.0
 30
0.0
 70
0
  0
VERTEX
  5
298
  8
BASE_MEASURED
 10
-36.99
 20
-3695.0
 30
0.0
 70
0
  0
VERTEX
  5
299
  8
BASE_MEASURED
 10
-30.0
 20
-3695.0
 30
0.0
 70
0
  0
VERTEX
  5
29A
  8
BASE_MEASURED
 10
-30.0
 20
-3700.0
 30
0.0
 70
0
  0
VERTEX
  5
29B
  8
BASE_MEASURED
 10
-30.0
 20
-3715.0
 30
0.0
 70
0
  0
VERTEX
  5
29C
  8
BASE_MEASURED
 10
-29.98
 20
-3715.0
 30
0.0
 70
0
  0
VERTEX
  5
29D
  8
BASE_MEASURED
 10
30.0
 20
-3715.0
 30
0.0
 70
0
  0
VERTEX
  5
29E
  8
BASE_MEASURED
 10
30.0
 20
-3700.0
 30
0.0
 70
0
  0
VERTEX
  5
29F
  8
BASE_MEASURED
 10
30.0
 20
-3695.0
 30
0.0
 70
0
  0
VERTEX
  5
2A0
  8
BASE_MEASURED
 10
37.01
 20
-3695.0
 30
0.0
 70
0
  0
VERTEX
  5
2A1
  8
BASE_MEASURED
 10
47.01
 20
-3678.0
 30
0.0
 70
0
  0
VERTEX
  5
2A2
  8
BASE_MEASURED
 10
47.01
 20
-3662.0
 30
0.0
 70
0
  0
VERTEX
  5
2A3
  8
BASE_MEASURED
 10
37.01
 20
-3645.0
 30
0.0
 70
0
  0
VERTEX
  5
2A4
  8
BASE_MEASURED
 10
30.0
 20
-3645.0
 30
0.0
 70
0
  0
SEQEND
  5
290
  8
BASE_MEASURED
  0
POLYLINE
  5
2A5
  8
BASE_MEASURED
 66
1
 10
0.0
 20
0.0
 30
0.0
 70
1
  0
VERTEX
  5
2A7
  8
BASE_MEASURED
 10
-29.98
 20
-3660.0
 30
0.0
 70
0
  0
VERTEX
  5
2A8
  8
BASE_MEASURED
 10
30.0
 20
-3660.0
 30
0.0
 70
0
  0
VERTEX
  5
2A9
  8
BASE_MEASURED
 10
30.0
 20
-3645.0
 30
0.0
 70
0
  0
VERTEX
  5
2AA
  8
BASE_MEASURED
 10
30.0
 20
-3600.01
 30
0.0
 70
0
  0
VERTEX
  5
2AB
  8
BASE_MEASURED
 10
17.75
 20
-3600.01
 30
0.0
 70
0
  0
VERTEX
  5
2AC
  8
BASE_MEASURED
 10
16.95
 20
-3600.09
 30
0.0
 70
0
  0
VERTEX
  5
2AD
  8
BASE_MEASURED
 10
16.15
 20
-3600.34
 30
0.0
 70
0
  0
VERTEX
  5
2AE
  8
BASE_MEASURED
 10
15.43
 20
-3600.75
 30
0.0
 70
0
  0
VERTEX
  5
2AF
  8
BASE_MEASURED
 10
14.81
 20
-3601.31
 30
0.0
 70
0
  0
VERTEX
  5
2B0
  8
BASE_MEASURED
 10
11.99
 20
-3604.38
 30
0.0
 70
0
  0
VERTEX
  5
2B1
  8
BASE_MEASURED
 10
11.99
 20
-3605.85
 30
0.0
 70
0
  0
VERTEX
  5
2B2
  8
BASE_MEASURED
 10
2.21
 20
-3616.52
 30
0.0
 70
0
  0
VERTEX
  5
2B3
  8
BASE_MEASURED
 10
1.2
 20
-3617.26
 30
0.0
 70
0
  0
VERTEX
  5
2B4
  8
BASE_MEASURED
 10
0.01
 20
-3617.51
 30
0.0
 70
0
  0
VERTEX
  5
2B5
  8
BASE_MEASURED
 10
-1.22
 20
-3617.26
 30
0.0
 70
0
  0
VERTEX
  5
2B6
  8
BASE_MEASURED
 10
-2.21
 20
-3616.52
 30
0.0
 70
0
  0
VERTEX
  5
2B7
  8
BASE_MEASURED
 10
-12.01
 20
-3605.85
 30
0.0
 70
0
  0
VERTEX
  5
2B8
  8
BASE_MEASURED
 10
-12.01
 20
-3604.38
 30
0.0
 70
0
  0
VERTEX
  5
2B9
  8
BASE_MEASURED
 10
-14.8
 20
-3601.31
 30
0.0
 70
0
  0
VERTEX
  5
2BA
  8
BASE_MEASURED
 10
-15.44
 20
-3600.75
 30
0.0
 70
0
  0
VERTEX
  5
2BB
  8
BASE_MEASURED
 10
-16.14
 20
-3600.34
 30
0.0
 70
0
  0
VERTEX
  5
2BC
  8
BASE_MEASURED
 10
-16.93
 20
-3600.09
 30
0.0
 70
0
  0
VERTEX
  5
2BD
  8
BASE_MEASURED
 10
-17.75
 20
-3600.01
 30
0.0
 70
0
  0
VERTEX
  5
2BE
  8
BASE_MEASURED
 10
-29.98
 20
-3600.01
 30
0.0
 70
0
  0
SEQEND
  5
2A6
  8
BASE_MEASURED
  0
POLYLINE
  5
2BF
  8
BASE_MEASURED
 66
1
 10
0.0
 20
0.0
 30
0.0
 70
1
  0
VERTEX
  5
2C1
  8
BASE_MEASURED
 10
30.0
 20
-3700.0
 30
0.0
 70
0
  0
VERTEX
  5
2C2
  8
BASE_MEASURED
 10
30.0
 20
-3715.0
 30
0.0
 70
0
  0
VERTEX
  5
2C3
  8
BASE_MEASURED
 10
87.0
 20
-3715.0
 30
0.0
 70
0
  0
VERTEX
  5
2C4
  8
BASE_MEASURED
 10
87.0
 20
-3753.0
 30
0.0
 70
0
  0
VERTEX
  5
2C5
  8
BASE_MEASURED
 10
107.0
 20
-3753.0
 30
0.0
 70
0
  0
VERTEX
  5
2C6
  8
BASE_MEASURED
 10
107.0
 20
-3748.0
 30
0.0
 70
0
  0
VERTEX
  5
2C7
  8
BASE_MEASURED
 10
107.0
 20
-3728.0
 30
0.0
 70
0
  0
VERTEX
  5
2C8
  8
BASE_MEASURED
 10
107.0
 20
-3700.0
 30
0.0
 70
0
  0
SEQEND
  5
2C0
  8
BASE_MEASURED
  0
POLYLINE
  5
2C9
  8
BASE_MEASURED
 66
1
 10
0.0
 20
0.0
 30
0.0
 70
1
  0
VERTEX
  5
2CB
  8
BASE_MEASURED
 10
-30.0
 20
-3715.0
 30
0.0
 70
0
  0
VERTEX
  5
2CC
  8
BASE_MEASURED
 10
-30.0
 20
-3700.0
 30
0.0
 70
0
  0
VERTEX
  5
2CD
  8
BASE_MEASURED
 10
-106.98
 20
-3700.0
 30
0.0
 70
0
  0
VERTEX
  5
2CE
  8
BASE_MEASURED
 10
-106.98
 20
-3728.0
 30
0.0
 70
0
  0
VERTEX
  5
2CF
  8
BASE_MEASURED
 10
-106.98
 20
-3748.0
 30
0.0
 70
0
  0
VERTEX
  5
2D0
  8
BASE_MEASURED
 10
-106.98
 20
-3753.0
 30
0.0
 70
0
  0
VERTEX
  5
2D1
  8
BASE_MEASURED
 10
-86.98
 20
-3753.0
 30
0.0
 70
0
  0
VERTEX
  5
2D2
  8
BASE_MEASURED
 10
-86.98
 20
-3715.0
 30
0.0
 70
0
  0
SEQEND
  5
2CA
  8
BASE_MEASURED
  0
POLYLINE
  5
2D3
  8
BASE_MEASURED
 66
1
 10
0.0
 20
0.0
 30
0.0
 70
1
  0
VERTEX
  5
2D5
  8
BASE_MEASURED
 10
-123.98
 20
-3728.0
 30
0.0
 70
0
  0
VERTEX
  5
2D6
  8
BASE_MEASURED
 10
-123.98
 20
-3748.0
 30
0.0
 70
0
  0
VERTEX
  5
2D7
  8
BASE_MEASURED
 10
-106.98
 20
-3748.0
 30
0.0
 70
0
  0
VERTEX
  5
2D8
  8
BASE_MEASURED
 10
-106.98
 20
-3728.0
 30
0.0
 70
0
  0
SEQEND
  5
2D4
  8
BASE_MEASURED
  0
POLYLINE
  5
2D9
  8
BASE_MEASURED
 66
1
 10
0.0
 20
0.0
 30
0.0
 70
1
  0
VERTEX
  5
2DB
  8
BASE_MEASURED
 10
124.0
 20
-3748.0
 30
0.0
 70
0
  0
VERTEX
  5
2DC
  8
BASE_MEASURED
 10
124.0
 20
-3728.0
 30
0.0
 70
0
  0
VERTEX
  5
2DD
  8
BASE_MEASURED
 10
107.0
 20
-3728.0
 30
0.0
 70
0
  0
VERTEX
  5
2DE
  8
BASE_MEASURED
 10
107.0
 20
-3748.0
 30
0.0
 70
0
  0
SEQEND
  5
2DA
  8
BASE_MEASURED
  0
POLYLINE
  5
2DF
  8
DIE
 66
1
 10
0.0
 20
0.0
 30
0.0
 70
1
  0
VERTEX
  5
2E1
  8
DIE
 10
-30.0
 20
-3659.99
 30
0.0
 70
0
  0
VERTEX
  5
2E2
  8
DIE
 10
30.0
 20
-3659.99
 30
0.0
 70
0
  0
VERTEX
  5
2E3
  8
DIE
 10
30.0
 20
-3600.0
 30
0.0
 70
0
  0
VERTEX
  5
2E4
  8
DIE
 10
17.75
 20
-3600.0
 30
0.0
 70
0
  0
VERTEX
  5
2E5
  8
DIE
 10
16.94
 20
-3600.08
 30
0.0
 70
0
  0
VERTEX
  5
2E6
  8
DIE
 10
16.149
 20
-3600.33
 30
0.0
 70
0
  0
VERTEX
  5
2E7
  8
DIE
 10
15.42
 20
-3600.74
 30
0.0
 70
0
  0
VERTEX
  5
2E8
  8
DIE
 10
14.81
 20
-3601.3
 30
0.0
 70
0
  0
VERTEX
  5
2E9
  8
DIE
 10
11.99
 20
-3604.37
 30
0.0
 70
0
  0
VERTEX
  5
2EA
  8
DIE
 10
11.99
 20
-3605.84
 30
0.0
 70
0
  0
VERTEX
  5
2EB
  8
DIE
 10
2.21
 20
-3616.51
 30
0.0
 70
0
  0
VERTEX
  5
2EC
  8
DIE
 10
1.19
 20
-3617.25
 30
0.0
 70
0
  0
VERTEX
  5
2ED
  8
DIE
 10
0.0
 20
-3617.5
 30
0.0
 70
0
  0
VERTEX
  5
2EE
  8
DIE
 10
-1.22
 20
-3617.25
 30
0.0
 70
0
  0
VERTEX
  5
2EF
  8
DIE
 10
-2.21
 20
-3616.51
 30
0.0
 70
0
  0
VERTEX
  5
2F0
  8
DIE
 10
-12.01
 20
-3605.84
 30
0.0
 70
0
  0
VERTEX
  5
2F1
  8
DIE
 10
-12.01
 20
-3604.37
 30
0.0
 70
0
  0
VERTEX
  5
2F2
  8
DIE
 10
-14.81
 20
-3601.3
 30
0.0
 70
0
  0
VERTEX
  5
2F3
  8
DIE
 10
-15.44
 20
-3600.74
 30
0.0
 70
0
  0
VERTEX
  5
2F4
  8
DIE
 10
-16.149
 20
-3600.33
 30
0.0
 70
0
  0
VERTEX
  5
2F5
  8
DIE
 10
-16.94
 20
-3600.08
 30
0.0
 70
0
  0
VERTEX
  5
2F6
  8
DIE
 10
-17.75
 20
-3600.0
 30
0.0
 70
0
  0
VERTEX
  5
2F7
  8
DIE
 10
-30.0
 20
-3600.0
 30
0.0
 70
0
  0
SEQEND
  5
2E0
  8
DIE
  0
LINE
  5
2F8
  8
CENTER
 10
0.0
 20
-3540.0
 30
0.0
 11
0.0
 21
-3850.0
 31
0.0
  0
TEXT
  5
2F9
  8
TEXT
 10
-250.0
 20
-3450.0
 30
0.0
 40
13.0
  1
03500 V32
 11
-250.0
 21
-3450.0
 31
0.0
  0
TEXT
  5
2FA
  8
TEXT
 10
-250.0
 20
-3470.0
 30
0.0
 40
11.0
  1
婡夿 HD3504NT丂搚戜 幚應
 11
-250.0
 21
-3470.0
 31
0.0
  0
TEXT
  5
2FB
  8
TEXT
 10
-250.0
 20
-3490.0
 30
0.0
 40
11.0
  1
V暆 32.01丂怺偝 17.5
 11
-250.0
 21
-3490.0
 31
0.0
  0
TEXT
  5
2FC
  8
TEXT
 10
-250.0
 20
-3510.0
 30
0.0
 40
11.0
  1
lib:03500:0
 11
-250.0
 21
-3510.0
 31
0.0
  0
POLYLINE
  5
2FD
  8
FRAME
 66
1
 10
0.0
 20
0.0
 30
0.0
 70
1
  0
VERTEX
  5
2FF
  8
FRAME
 10
260.0
 20
-3430.0
 30
0.0
 70
0
  0
VERTEX
  5
300
  8
FRAME
 10
780.0
 20
-3430.0
 30
0.0
 70
0
  0
VERTEX
  5
301
  8
FRAME
 10
780.0
 20
-4830.0
 30
0.0
 70
0
  0
VERTEX
  5
302
  8
FRAME
 10
260.0
 20
-4830.0
 30
0.0
 70
0
  0
SEQEND
  5
2FE
  8
FRAME
  0
POLYLINE
  5
303
  8
BASE_MEASURED
 66
1
 10
0.0
 20
0.0
 30
0.0
 70
1
  0
VERTEX
  5
305
  8
BASE_MEASURED
 10
627.0
 20
-3753.0
 30
0.0
 70
0
  0
VERTEX
  5
306
  8
BASE_MEASURED
 10
607.0
 20
-3753.0
 30
0.0
 70
0
  0
VERTEX
  5
307
  8
BASE_MEASURED
 10
433.01
 20
-3753.0
 30
0.0
 70
0
  0
VERTEX
  5
308
  8
BASE_MEASURED
 10
413.01
 20
-3753.0
 30
0.0
 70
0
  0
VERTEX
  5
309
  8
BASE_MEASURED
 10
413.01
 20
-4648.0
 30
0.0
 70
0
  0
VERTEX
  5
30A
  8
BASE_MEASURED
 10
627.0
 20
-4648.0
 30
0.0
 70
0
  0
SEQEND
  5
304
  8
BASE_MEASURED
  0
POLYLINE
  5
30B
  8
BASE_MEASURED
 66
1
 10
0.0
 20
0.0
 30
0.0
 70
1
  0
VERTEX
  5
30D
  8
BASE_MEASURED
 10
490.01
 20
-3715.0
 30
0.0
 70
0
  0
VERTEX
  5
30E
  8
BASE_MEASURED
 10
490.0
 20
-3715.0
 30
0.0
 70
0
  0
VERTEX
  5
30F
  8
BASE_MEASURED
 10
433.01
 20
-3715.0
 30
0.0
 70
0
  0
VERTEX
  5
310
  8
BASE_MEASURED
 10
433.01
 20
-3753.0
 30
0.0
 70
0
  0
VERTEX
  5
311
  8
BASE_MEASURED
 10
607.0
 20
-3753.0
 30
0.0
 70
0
  0
VERTEX
  5
312
  8
BASE_MEASURED
 10
607.0
 20
-3715.0
 30
0.0
 70
0
  0
VERTEX
  5
313
  8
BASE_MEASURED
 10
550.0
 20
-3715.0
 30
0.0
 70
0
  0
SEQEND
  5
30C
  8
BASE_MEASURED
  0
POLYLINE
  5
314
  8
BASE_MEASURED
 66
1
 10
0.0
 20
0.0
 30
0.0
 70
1
  0
VERTEX
  5
316
  8
BASE_MEASURED
 10
550.0
 20
-3660.0
 30
0.0
 70
0
  0
VERTEX
  5
317
  8
BASE_MEASURED
 10
490.01
 20
-3660.0
 30
0.0
 70
0
  0
VERTEX
  5
318
  8
BASE_MEASURED
 10
490.0
 20
-3660.0
 30
0.0
 70
0
  0
VERTEX
  5
319
  8
BASE_MEASURED
 10
490.0
 20
-3645.0
 30
0.0
 70
0
  0
VERTEX
  5
31A
  8
BASE_MEASURED
 10
483.0
 20
-3645.0
 30
0.0
 70
0
  0
VERTEX
  5
31B
  8
BASE_MEASURED
 10
473.0
 20
-3662.0
 30
0.0
 70
0
  0
VERTEX
  5
31C
  8
BASE_MEASURED
 10
473.0
 20
-3678.0
 30
0.0
 70
0
  0
VERTEX
  5
31D
  8
BASE_MEASURED
 10
483.0
 20
-3695.0
 30
0.0
 70
0
  0
VERTEX
  5
31E
  8
BASE_MEASURED
 10
490.0
 20
-3695.0
 30
0.0
 70
0
  0
VERTEX
  5
31F
  8
BASE_MEASURED
 10
490.0
 20
-3700.0
 30
0.0
 70
0
  0
VERTEX
  5
320
  8
BASE_MEASURED
 10
490.0
 20
-3715.0
 30
0.0
 70
0
  0
VERTEX
  5
321
  8
BASE_MEASURED
 10
490.01
 20
-3715.0
 30
0.0
 70
0
  0
VERTEX
  5
322
  8
BASE_MEASURED
 10
550.0
 20
-3715.0
 30
0.0
 70
0
  0
VERTEX
  5
323
  8
BASE_MEASURED
 10
550.0
 20
-3700.0
 30
0.0
 70
0
  0
VERTEX
  5
324
  8
BASE_MEASURED
 10
550.0
 20
-3695.0
 30
0.0
 70
0
  0
VERTEX
  5
325
  8
BASE_MEASURED
 10
557.0
 20
-3695.0
 30
0.0
 70
0
  0
VERTEX
  5
326
  8
BASE_MEASURED
 10
567.0
 20
-3678.0
 30
0.0
 70
0
  0
VERTEX
  5
327
  8
BASE_MEASURED
 10
567.0
 20
-3662.0
 30
0.0
 70
0
  0
VERTEX
  5
328
  8
BASE_MEASURED
 10
557.0
 20
-3645.0
 30
0.0
 70
0
  0
VERTEX
  5
329
  8
BASE_MEASURED
 10
550.0
 20
-3645.0
 30
0.0
 70
0
  0
SEQEND
  5
315
  8
BASE_MEASURED
  0
POLYLINE
  5
32A
  8
BASE_MEASURED
 66
1
 10
0.0
 20
0.0
 30
0.0
 70
1
  0
VERTEX
  5
32C
  8
BASE_MEASURED
 10
490.01
 20
-3660.0
 30
0.0
 70
0
  0
VERTEX
  5
32D
  8
BASE_MEASURED
 10
550.0
 20
-3660.0
 30
0.0
 70
0
  0
VERTEX
  5
32E
  8
BASE_MEASURED
 10
550.0
 20
-3645.0
 30
0.0
 70
0
  0
VERTEX
  5
32F
  8
BASE_MEASURED
 10
550.0
 20
-3600.0
 30
0.0
 70
0
  0
VERTEX
  5
330
  8
BASE_MEASURED
 10
541.77
 20
-3600.0
 30
0.0
 70
0
  0
VERTEX
  5
331
  8
BASE_MEASURED
 10
540.93
 20
-3600.08
 30
0.0
 70
0
  0
VERTEX
  5
332
  8
BASE_MEASURED
 10
540.15
 20
-3600.33
 30
0.0
 70
0
  0
VERTEX
  5
333
  8
BASE_MEASURED
 10
539.44
 20
-3600.74
 30
0.0
 70
0
  0
VERTEX
  5
334
  8
BASE_MEASURED
 10
538.8
 20
-3601.3
 30
0.0
 70
0
  0
VERTEX
  5
335
  8
BASE_MEASURED
 10
536.01
 20
-3604.37
 30
0.0
 70
0
  0
VERTEX
  5
336
  8
BASE_MEASURED
 10
536.01
 20
-3605.84
 30
0.0
 70
0
  0
VERTEX
  5
337
  8
BASE_MEASURED
 10
522.95
 20
-3620.1
 30
0.0
 70
0
  0
VERTEX
  5
338
  8
BASE_MEASURED
 10
521.61
 20
-3621.03
 30
0.0
 70
0
  0
VERTEX
  5
339
  8
BASE_MEASURED
 10
520.0
 20
-3621.39
 30
0.0
 70
0
  0
VERTEX
  5
33A
  8
BASE_MEASURED
 10
518.38
 20
-3621.03
 30
0.0
 70
0
  0
VERTEX
  5
33B
  8
BASE_MEASURED
 10
517.06
 20
-3620.1
 30
0.0
 70
0
  0
VERTEX
  5
33C
  8
BASE_MEASURED
 10
504.0
 20
-3605.84
 30
0.0
 70
0
  0
VERTEX
  5
33D
  8
BASE_MEASURED
 10
504.0
 20
-3604.37
 30
0.0
 70
0
  0
VERTEX
  5
33E
  8
BASE_MEASURED
 10
501.18
 20
-3601.3
 30
0.0
 70
0
  0
VERTEX
  5
33F
  8
BASE_MEASURED
 10
500.57
 20
-3600.74
 30
0.0
 70
0
  0
VERTEX
  5
340
  8
BASE_MEASURED
 10
499.86
 20
-3600.33
 30
0.0
 70
0
  0
VERTEX
  5
341
  8
BASE_MEASURED
 10
499.08
 20
-3600.08
 30
0.0
 70
0
  0
VERTEX
  5
342
  8
BASE_MEASURED
 10
498.26
 20
-3600.0
 30
0.0
 70
0
  0
VERTEX
  5
343
  8
BASE_MEASURED
 10
490.01
 20
-3600.0
 30
0.0
 70
0
  0
SEQEND
  5
32B
  8
BASE_MEASURED
  0
POLYLINE
  5
344
  8
BASE_MEASURED
 66
1
 10
0.0
 20
0.0
 30
0.0
 70
1
  0
VERTEX
  5
346
  8
BASE_MEASURED
 10
550.0
 20
-3700.0
 30
0.0
 70
0
  0
VERTEX
  5
347
  8
BASE_MEASURED
 10
550.0
 20
-3715.0
 30
0.0
 70
0
  0
VERTEX
  5
348
  8
BASE_MEASURED
 10
607.0
 20
-3715.0
 30
0.0
 70
0
  0
VERTEX
  5
349
  8
BASE_MEASURED
 10
607.0
 20
-3753.0
 30
0.0
 70
0
  0
VERTEX
  5
34A
  8
BASE_MEASURED
 10
627.0
 20
-3753.0
 30
0.0
 70
0
  0
VERTEX
  5
34B
  8
BASE_MEASURED
 10
627.0
 20
-3748.0
 30
0.0
 70
0
  0
VERTEX
  5
34C
  8
BASE_MEASURED
 10
627.0
 20
-3728.0
 30
0.0
 70
0
  0
VERTEX
  5
34D
  8
BASE_MEASURED
 10
627.0
 20
-3700.0
 30
0.0
 70
0
  0
SEQEND
  5
345
  8
BASE_MEASURED
  0
POLYLINE
  5
34E
  8
BASE_MEASURED
 66
1
 10
0.0
 20
0.0
 30
0.0
 70
1
  0
VERTEX
  5
350
  8
BASE_MEASURED
 10
490.0
 20
-3715.0
 30
0.0
 70
0
  0
VERTEX
  5
351
  8
BASE_MEASURED
 10
490.0
 20
-3700.0
 30
0.0
 70
0
  0
VERTEX
  5
352
  8
BASE_MEASURED
 10
413.01
 20
-3700.0
 30
0.0
 70
0
  0
VERTEX
  5
353
  8
BASE_MEASURED
 10
413.01
 20
-3728.0
 30
0.0
 70
0
  0
VERTEX
  5
354
  8
BASE_MEASURED
 10
413.01
 20
-3748.0
 30
0.0
 70
0
  0
VERTEX
  5
355
  8
BASE_MEASURED
 10
413.01
 20
-3753.0
 30
0.0
 70
0
  0
VERTEX
  5
356
  8
BASE_MEASURED
 10
433.01
 20
-3753.0
 30
0.0
 70
0
  0
VERTEX
  5
357
  8
BASE_MEASURED
 10
433.01
 20
-3715.0
 30
0.0
 70
0
  0
SEQEND
  5
34F
  8
BASE_MEASURED
  0
POLYLINE
  5
358
  8
BASE_MEASURED
 66
1
 10
0.0
 20
0.0
 30
0.0
 70
1
  0
VERTEX
  5
35A
  8
BASE_MEASURED
 10
396.01
 20
-3728.0
 30
0.0
 70
0
  0
VERTEX
  5
35B
  8
BASE_MEASURED
 10
396.01
 20
-3748.0
 30
0.0
 70
0
  0
VERTEX
  5
35C
  8
BASE_MEASURED
 10
413.01
 20
-3748.0
 30
0.0
 70
0
  0
VERTEX
  5
35D
  8
BASE_MEASURED
 10
413.01
 20
-3728.0
 30
0.0
 70
0
  0
SEQEND
  5
359
  8
BASE_MEASURED
  0
POLYLINE
  5
35E
  8
BASE_MEASURED
 66
1
 10
0.0
 20
0.0
 30
0.0
 70
1
  0
VERTEX
  5
360
  8
BASE_MEASURED
 10
644.0
 20
-3748.0
 30
0.0
 70
0
  0
VERTEX
  5
361
  8
BASE_MEASURED
 10
644.0
 20
-3728.0
 30
0.0
 70
0
  0
VERTEX
  5
362
  8
BASE_MEASURED
 10
627.0
 20
-3728.0
 30
0.0
 70
0
  0
VERTEX
  5
363
  8
BASE_MEASURED
 10
627.0
 20
-3748.0
 30
0.0
 70
0
  0
SEQEND
  5
35F
  8
BASE_MEASURED
  0
POLYLINE
  5
364
  8
DIE
 66
1
 10
0.0
 20
0.0
 30
0.0
 70
1
  0
VERTEX
  5
366
  8
DIE
 10
489.995
 20
-3660.0
 30
0.0
 70
0
  0
VERTEX
  5
367
  8
DIE
 10
549.985
 20
-3660.0
 30
0.0
 70
0
  0
VERTEX
  5
368
  8
DIE
 10
549.985
 20
-3600.0
 30
0.0
 70
0
  0
VERTEX
  5
369
  8
DIE
 10
541.755
 20
-3600.0
 30
0.0
 70
0
  0
VERTEX
  5
36A
  8
DIE
 10
540.915
 20
-3600.08
 30
0.0
 70
0
  0
VERTEX
  5
36B
  8
DIE
 10
540.135
 20
-3600.33
 30
0.0
 70
0
  0
VERTEX
  5
36C
  8
DIE
 10
539.425
 20
-3600.74
 30
0.0
 70
0
  0
VERTEX
  5
36D
  8
DIE
 10
538.785
 20
-3601.3
 30
0.0
 70
0
  0
VERTEX
  5
36E
  8
DIE
 10
535.995
 20
-3604.37
 30
0.0
 70
0
  0
VERTEX
  5
36F
  8
DIE
 10
535.995
 20
-3605.84
 30
0.0
 70
0
  0
VERTEX
  5
370
  8
DIE
 10
522.935
 20
-3620.1
 30
0.0
 70
0
  0
VERTEX
  5
371
  8
DIE
 10
521.595
 20
-3621.03
 30
0.0
 70
0
  0
VERTEX
  5
372
  8
DIE
 10
519.985
 20
-3621.39
 30
0.0
 70
0
  0
VERTEX
  5
373
  8
DIE
 10
518.365
 20
-3621.03
 30
0.0
 70
0
  0
VERTEX
  5
374
  8
DIE
 10
517.045
 20
-3620.1
 30
0.0
 70
0
  0
VERTEX
  5
375
  8
DIE
 10
503.985
 20
-3605.84
 30
0.0
 70
0
  0
VERTEX
  5
376
  8
DIE
 10
503.985
 20
-3604.37
 30
0.0
 70
0
  0
VERTEX
  5
377
  8
DIE
 10
501.165
 20
-3601.3
 30
0.0
 70
0
  0
VERTEX
  5
378
  8
DIE
 10
500.555
 20
-3600.74
 30
0.0
 70
0
  0
VERTEX
  5
379
  8
DIE
 10
499.845
 20
-3600.33
 30
0.0
 70
0
  0
VERTEX
  5
37A
  8
DIE
 10
499.065
 20
-3600.08
 30
0.0
 70
0
  0
VERTEX
  5
37B
  8
DIE
 10
498.245
 20
-3600.0
 30
0.0
 70
0
  0
VERTEX
  5
37C
  8
DIE
 10
489.995
 20
-3600.0
 30
0.0
 70
0
  0
SEQEND
  5
365
  8
DIE
  0
LINE
  5
37D
  8
CENTER
 10
520.0
 20
-3540.0
 30
0.0
 11
520.0
 21
-3850.0
 31
0.0
  0
TEXT
  5
37E
  8
TEXT
 10
270.0
 20
-3450.0
 30
0.0
 40
13.0
  1
03600 V40
 11
270.0
 21
-3450.0
 31
0.0
  0
TEXT
  5
37F
  8
TEXT
 10
270.0
 20
-3470.0
 30
0.0
 40
11.0
  1
婡夿 HD3504NT丂搚戜 幚應
 11
270.0
 21
-3470.0
 31
0.0
  0
TEXT
  5
380
  8
TEXT
 10
270.0
 20
-3490.0
 30
0.0
 40
11.0
  1
V暆 39.93丂怺偝 21.39
 11
270.0
 21
-3490.0
 31
0.0
  0
TEXT
  5
381
  8
TEXT
 10
270.0
 20
-3510.0
 30
0.0
 40
11.0
  1
lib:03600:0
 11
270.0
 21
-3510.0
 31
0.0
  0
POLYLINE
  5
382
  8
FRAME
 66
1
 10
0.0
 20
0.0
 30
0.0
 70
1
  0
VERTEX
  5
384
  8
FRAME
 10
780.0
 20
-3430.0
 30
0.0
 70
0
  0
VERTEX
  5
385
  8
FRAME
 10
1300.0
 20
-3430.0
 30
0.0
 70
0
  0
VERTEX
  5
386
  8
FRAME
 10
1300.0
 20
-4830.0
 30
0.0
 70
0
  0
VERTEX
  5
387
  8
FRAME
 10
780.0
 20
-4830.0
 30
0.0
 70
0
  0
SEQEND
  5
383
  8
FRAME
  0
POLYLINE
  5
388
  8
BASE_MEASURED
 66
1
 10
0.0
 20
0.0
 30
0.0
 70
1
  0
VERTEX
  5
38A
  8
BASE_MEASURED
 10
1010.01
 20
-3659.99
 30
0.0
 70
0
  0
VERTEX
  5
38B
  8
BASE_MEASURED
 10
1070.01
 20
-3659.99
 30
0.0
 70
0
  0
VERTEX
  5
38C
  8
BASE_MEASURED
 10
1070.01
 20
-3600.0
 30
0.0
 70
0
  0
VERTEX
  5
38D
  8
BASE_MEASURED
 10
1066.76
 20
-3600.0
 30
0.0
 70
0
  0
VERTEX
  5
38E
  8
BASE_MEASURED
 10
1065.94
 20
-3600.07
 30
0.0
 70
0
  0
VERTEX
  5
38F
  8
BASE_MEASURED
 10
1065.16
 20
-3600.32
 30
0.0
 70
0
  0
VERTEX
  5
390
  8
BASE_MEASURED
 10
1064.44
 20
-3600.73
 30
0.0
 70
0
  0
VERTEX
  5
391
  8
BASE_MEASURED
 10
1063.81
 20
-3601.29
 30
0.0
 70
0
  0
VERTEX
  5
392
  8
BASE_MEASURED
 10
1060.0
 20
-3605.46
 30
0.0
 70
0
  0
VERTEX
  5
393
  8
BASE_MEASURED
 10
1060.0
 20
-3606.93
 30
0.0
 70
0
  0
VERTEX
  5
394
  8
BASE_MEASURED
 10
1043.69
 20
-3624.73
 30
0.0
 70
0
  0
VERTEX
  5
395
  8
BASE_MEASURED
 10
1042.019
 20
-3625.93
 30
0.0
 70
0
  0
VERTEX
  5
396
  8
BASE_MEASURED
 10
1040.01
 20
-3626.36
 30
0.0
 70
0
  0
VERTEX
  5
397
  8
BASE_MEASURED
 10
1038.001
 20
-3625.93
 30
0.0
 70
0
  0
VERTEX
  5
398
  8
BASE_MEASURED
 10
1036.33
 20
-3624.73
 30
0.0
 70
0
  0
VERTEX
  5
399
  8
BASE_MEASURED
 10
1019.99
 20
-3606.93
 30
0.0
 70
0
  0
VERTEX
  5
39A
  8
BASE_MEASURED
 10
1019.99
 20
-3605.46
 30
0.0
 70
0
  0
VERTEX
  5
39B
  8
BASE_MEASURED
 10
1016.19
 20
-3601.29
 30
0.0
 70
0
  0
VERTEX
  5
39C
  8
BASE_MEASURED
 10
1015.58
 20
-3600.73
 30
0.0
 70
0
  0
VERTEX
  5
39D
  8
BASE_MEASURED
 10
1014.86
 20
-3600.32
 30
0.0
 70
0
  0
VERTEX
  5
39E
  8
BASE_MEASURED
 10
1014.08
 20
-3600.07
 30
0.0
 70
0
  0
VERTEX
  5
39F
  8
BASE_MEASURED
 10
1013.24
 20
-3600.0
 30
0.0
 70
0
  0
VERTEX
  5
3A0
  8
BASE_MEASURED
 10
1010.01
 20
-3600.0
 30
0.0
 70
0
  0
SEQEND
  5
389
  8
BASE_MEASURED
  0
POLYLINE
  5
3A1
  8
BASE_MEASURED
 66
1
 10
0.0
 20
0.0
 30
0.0
 70
1
  0
VERTEX
  5
3A3
  8
BASE_MEASURED
 10
1147.0
 20
-3752.99
 30
0.0
 70
0
  0
VERTEX
  5
3A4
  8
BASE_MEASURED
 10
1127.0
 20
-3752.99
 30
0.0
 70
0
  0
VERTEX
  5
3A5
  8
BASE_MEASURED
 10
953.02
 20
-3752.99
 30
0.0
 70
0
  0
VERTEX
  5
3A6
  8
BASE_MEASURED
 10
933.02
 20
-3752.99
 30
0.0
 70
0
  0
VERTEX
  5
3A7
  8
BASE_MEASURED
 10
933.02
 20
-4647.99
 30
0.0
 70
0
  0
VERTEX
  5
3A8
  8
BASE_MEASURED
 10
1147.0
 20
-4647.99
 30
0.0
 70
0
  0
SEQEND
  5
3A2
  8
BASE_MEASURED
  0
POLYLINE
  5
3A9
  8
BASE_MEASURED
 66
1
 10
0.0
 20
0.0
 30
0.0
 70
1
  0
VERTEX
  5
3AB
  8
BASE_MEASURED
 10
1010.02
 20
-3714.99
 30
0.0
 70
0
  0
VERTEX
  5
3AC
  8
BASE_MEASURED
 10
1010.0
 20
-3714.99
 30
0.0
 70
0
  0
VERTEX
  5
3AD
  8
BASE_MEASURED
 10
953.02
 20
-3714.99
 30
0.0
 70
0
  0
VERTEX
  5
3AE
  8
BASE_MEASURED
 10
953.02
 20
-3752.99
 30
0.0
 70
0
  0
VERTEX
  5
3AF
  8
BASE_MEASURED
 10
1127.0
 20
-3752.99
 30
0.0
 70
0
  0
VERTEX
  5
3B0
  8
BASE_MEASURED
 10
1127.0
 20
-3714.99
 30
0.0
 70
0
  0
VERTEX
  5
3B1
  8
BASE_MEASURED
 10
1070.0
 20
-3714.99
 30
0.0
 70
0
  0
SEQEND
  5
3AA
  8
BASE_MEASURED
  0
POLYLINE
  5
3B2
  8
BASE_MEASURED
 66
1
 10
0.0
 20
0.0
 30
0.0
 70
1
  0
VERTEX
  5
3B4
  8
BASE_MEASURED
 10
1070.0
 20
-3659.99
 30
0.0
 70
0
  0
VERTEX
  5
3B5
  8
BASE_MEASURED
 10
1010.02
 20
-3659.99
 30
0.0
 70
0
  0
VERTEX
  5
3B6
  8
BASE_MEASURED
 10
1010.0
 20
-3659.99
 30
0.0
 70
0
  0
VERTEX
  5
3B7
  8
BASE_MEASURED
 10
1010.0
 20
-3644.99
 30
0.0
 70
0
  0
VERTEX
  5
3B8
  8
BASE_MEASURED
 10
1003.01
 20
-3644.99
 30
0.0
 70
0
  0
VERTEX
  5
3B9
  8
BASE_MEASURED
 10
993.01
 20
-3661.99
 30
0.0
 70
0
  0
VERTEX
  5
3BA
  8
BASE_MEASURED
 10
993.01
 20
-3677.99
 30
0.0
 70
0
  0
VERTEX
  5
3BB
  8
BASE_MEASURED
 10
1003.01
 20
-3694.99
 30
0.0
 70
0
  0
VERTEX
  5
3BC
  8
BASE_MEASURED
 10
1010.0
 20
-3694.99
 30
0.0
 70
0
  0
VERTEX
  5
3BD
  8
BASE_MEASURED
 10
1010.0
 20
-3699.99
 30
0.0
 70
0
  0
VERTEX
  5
3BE
  8
BASE_MEASURED
 10
1010.0
 20
-3714.99
 30
0.0
 70
0
  0
VERTEX
  5
3BF
  8
BASE_MEASURED
 10
1010.02
 20
-3714.99
 30
0.0
 70
0
  0
VERTEX
  5
3C0
  8
BASE_MEASURED
 10
1070.0
 20
-3714.99
 30
0.0
 70
0
  0
VERTEX
  5
3C1
  8
BASE_MEASURED
 10
1070.0
 20
-3699.99
 30
0.0
 70
0
  0
VERTEX
  5
3C2
  8
BASE_MEASURED
 10
1070.0
 20
-3694.99
 30
0.0
 70
0
  0
VERTEX
  5
3C3
  8
BASE_MEASURED
 10
1077.01
 20
-3694.99
 30
0.0
 70
0
  0
VERTEX
  5
3C4
  8
BASE_MEASURED
 10
1087.01
 20
-3677.99
 30
0.0
 70
0
  0
VERTEX
  5
3C5
  8
BASE_MEASURED
 10
1087.01
 20
-3661.99
 30
0.0
 70
0
  0
VERTEX
  5
3C6
  8
BASE_MEASURED
 10
1077.01
 20
-3644.99
 30
0.0
 70
0
  0
VERTEX
  5
3C7
  8
BASE_MEASURED
 10
1070.0
 20
-3644.99
 30
0.0
 70
0
  0
SEQEND
  5
3B3
  8
BASE_MEASURED
  0
POLYLINE
  5
3C8
  8
BASE_MEASURED
 66
1
 10
0.0
 20
0.0
 30
0.0
 70
1
  0
VERTEX
  5
3CA
  8
BASE_MEASURED
 10
1070.0
 20
-3699.99
 30
0.0
 70
0
  0
VERTEX
  5
3CB
  8
BASE_MEASURED
 10
1070.0
 20
-3714.99
 30
0.0
 70
0
  0
VERTEX
  5
3CC
  8
BASE_MEASURED
 10
1127.0
 20
-3714.99
 30
0.0
 70
0
  0
VERTEX
  5
3CD
  8
BASE_MEASURED
 10
1127.0
 20
-3752.99
 30
0.0
 70
0
  0
VERTEX
  5
3CE
  8
BASE_MEASURED
 10
1147.0
 20
-3752.99
 30
0.0
 70
0
  0
VERTEX
  5
3CF
  8
BASE_MEASURED
 10
1147.0
 20
-3747.99
 30
0.0
 70
0
  0
VERTEX
  5
3D0
  8
BASE_MEASURED
 10
1147.0
 20
-3727.99
 30
0.0
 70
0
  0
VERTEX
  5
3D1
  8
BASE_MEASURED
 10
1147.0
 20
-3699.99
 30
0.0
 70
0
  0
SEQEND
  5
3C9
  8
BASE_MEASURED
  0
POLYLINE
  5
3D2
  8
BASE_MEASURED
 66
1
 10
0.0
 20
0.0
 30
0.0
 70
1
  0
VERTEX
  5
3D4
  8
BASE_MEASURED
 10
1010.0
 20
-3714.99
 30
0.0
 70
0
  0
VERTEX
  5
3D5
  8
BASE_MEASURED
 10
1010.0
 20
-3699.99
 30
0.0
 70
0
  0
VERTEX
  5
3D6
  8
BASE_MEASURED
 10
933.02
 20
-3699.99
 30
0.0
 70
0
  0
VERTEX
  5
3D7
  8
BASE_MEASURED
 10
933.02
 20
-3727.99
 30
0.0
 70
0
  0
VERTEX
  5
3D8
  8
BASE_MEASURED
 10
933.02
 20
-3747.99
 30
0.0
 70
0
  0
VERTEX
  5
3D9
  8
BASE_MEASURED
 10
933.02
 20
-3752.99
 30
0.0
 70
0
  0
VERTEX
  5
3DA
  8
BASE_MEASURED
 10
953.02
 20
-3752.99
 30
0.0
 70
0
  0
VERTEX
  5
3DB
  8
BASE_MEASURED
 10
953.02
 20
-3714.99
 30
0.0
 70
0
  0
SEQEND
  5
3D3
  8
BASE_MEASURED
  0
POLYLINE
  5
3DC
  8
BASE_MEASURED
 66
1
 10
0.0
 20
0.0
 30
0.0
 70
1
  0
VERTEX
  5
3DE
  8
BASE_MEASURED
 10
916.02
 20
-3727.99
 30
0.0
 70
0
  0
VERTEX
  5
3DF
  8
BASE_MEASURED
 10
916.02
 20
-3747.99
 30
0.0
 70
0
  0
VERTEX
  5
3E0
  8
BASE_MEASURED
 10
933.02
 20
-3747.99
 30
0.0
 70
0
  0
VERTEX
  5
3E1
  8
BASE_MEASURED
 10
933.02
 20
-3727.99
 30
0.0
 70
0
  0
SEQEND
  5
3DD
  8
BASE_MEASURED
  0
POLYLINE
  5
3E2
  8
BASE_MEASURED
 66
1
 10
0.0
 20
0.0
 30
0.0
 70
1
  0
VERTEX
  5
3E4
  8
BASE_MEASURED
 10
1164.0
 20
-3747.99
 30
0.0
 70
0
  0
VERTEX
  5
3E5
  8
BASE_MEASURED
 10
1164.0
 20
-3727.99
 30
0.0
 70
0
  0
VERTEX
  5
3E6
  8
BASE_MEASURED
 10
1147.0
 20
-3727.99
 30
0.0
 70
0
  0
VERTEX
  5
3E7
  8
BASE_MEASURED
 10
1147.0
 20
-3747.99
 30
0.0
 70
0
  0
SEQEND
  5
3E3
  8
BASE_MEASURED
  0
POLYLINE
  5
3E8
  8
DIE
 66
1
 10
0.0
 20
0.0
 30
0.0
 70
1
  0
VERTEX
  5
3EA
  8
DIE
 10
1010.01
 20
-3659.99
 30
0.0
 70
0
  0
VERTEX
  5
3EB
  8
DIE
 10
1070.01
 20
-3659.99
 30
0.0
 70
0
  0
VERTEX
  5
3EC
  8
DIE
 10
1070.01
 20
-3600.0
 30
0.0
 70
0
  0
VERTEX
  5
3ED
  8
DIE
 10
1066.76
 20
-3600.0
 30
0.0
 70
0
  0
VERTEX
  5
3EE
  8
DIE
 10
1065.94
 20
-3600.07
 30
0.0
 70
0
  0
VERTEX
  5
3EF
  8
DIE
 10
1065.16
 20
-3600.32
 30
0.0
 70
0
  0
VERTEX
  5
3F0
  8
DIE
 10
1064.44
 20
-3600.73
 30
0.0
 70
0
  0
VERTEX
  5
3F1
  8
DIE
 10
1063.81
 20
-3601.29
 30
0.0
 70
0
  0
VERTEX
  5
3F2
  8
DIE
 10
1060.0
 20
-3605.46
 30
0.0
 70
0
  0
VERTEX
  5
3F3
  8
DIE
 10
1060.0
 20
-3606.93
 30
0.0
 70
0
  0
VERTEX
  5
3F4
  8
DIE
 10
1043.69
 20
-3624.73
 30
0.0
 70
0
  0
VERTEX
  5
3F5
  8
DIE
 10
1042.019
 20
-3625.93
 30
0.0
 70
0
  0
VERTEX
  5
3F6
  8
DIE
 10
1040.01
 20
-3626.36
 30
0.0
 70
0
  0
VERTEX
  5
3F7
  8
DIE
 10
1038.001
 20
-3625.93
 30
0.0
 70
0
  0
VERTEX
  5
3F8
  8
DIE
 10
1036.33
 20
-3624.73
 30
0.0
 70
0
  0
VERTEX
  5
3F9
  8
DIE
 10
1019.99
 20
-3606.93
 30
0.0
 70
0
  0
VERTEX
  5
3FA
  8
DIE
 10
1019.99
 20
-3605.46
 30
0.0
 70
0
  0
VERTEX
  5
3FB
  8
DIE
 10
1016.19
 20
-3601.29
 30
0.0
 70
0
  0
VERTEX
  5
3FC
  8
DIE
 10
1015.58
 20
-3600.73
 30
0.0
 70
0
  0
VERTEX
  5
3FD
  8
DIE
 10
1014.86
 20
-3600.32
 30
0.0
 70
0
  0
VERTEX
  5
3FE
  8
DIE
 10
1014.08
 20
-3600.07
 30
0.0
 70
0
  0
VERTEX
  5
3FF
  8
DIE
 10
1013.24
 20
-3600.0
 30
0.0
 70
0
  0
VERTEX
  5
400
  8
DIE
 10
1010.01
 20
-3600.0
 30
0.0
 70
0
  0
SEQEND
  5
3E9
  8
DIE
  0
LINE
  5
401
  8
CENTER
 10
1040.0
 20
-3540.0
 30
0.0
 11
1040.0
 21
-3850.0
 31
0.0
  0
TEXT
  5
402
  8
TEXT
 10
790.0
 20
-3450.0
 30
0.0
 40
13.0
  1
03700 V50
 11
790.0
 21
-3450.0
 31
0.0
  0
TEXT
  5
403
  8
TEXT
 10
790.0
 20
-3470.0
 30
0.0
 40
11.0
  1
婡夿 HD3504NT丂搚戜 幚應
 11
790.0
 21
-3470.0
 31
0.0
  0
TEXT
  5
404
  8
TEXT
 10
790.0
 20
-3490.0
 30
0.0
 40
11.0
  1
V暆 49.98丂怺偝 26.36
 11
790.0
 21
-3490.0
 31
0.0
  0
TEXT
  5
405
  8
TEXT
 10
790.0
 20
-3510.0
 30
0.0
 40
11.0
  1
lib:03700:0
 11
790.0
 21
-3510.0
 31
0.0
  0
POLYLINE
  5
406
  8
FRAME
 66
1
 10
0.0
 20
0.0
 30
0.0
 70
1
  0
VERTEX
  5
408
  8
FRAME
 10
1300.0
 20
-3430.0
 30
0.0
 70
0
  0
VERTEX
  5
409
  8
FRAME
 10
1820.0
 20
-3430.0
 30
0.0
 70
0
  0
VERTEX
  5
40A
  8
FRAME
 10
1820.0
 20
-4830.0
 30
0.0
 70
0
  0
VERTEX
  5
40B
  8
FRAME
 10
1300.0
 20
-4830.0
 30
0.0
 70
0
  0
SEQEND
  5
407
  8
FRAME
  0
POLYLINE
  5
40C
  8
BASE_MEASURED
 66
1
 10
0.0
 20
0.0
 30
0.0
 70
1
  0
VERTEX
  5
40E
  8
BASE_MEASURED
 10
1530.0
 20
-3675.0
 30
0.0
 70
0
  0
VERTEX
  5
40F
  8
BASE_MEASURED
 10
1590.0
 20
-3675.0
 30
0.0
 70
0
  0
VERTEX
  5
410
  8
BASE_MEASURED
 10
1590.0
 20
-3655.02
 30
0.0
 70
0
  0
VERTEX
  5
411
  8
BASE_MEASURED
 10
1600.01
 20
-3655.02
 30
0.0
 70
0
  0
VERTEX
  5
412
  8
BASE_MEASURED
 10
1600.01
 20
-3600.0
 30
0.0
 70
0
  0
VERTEX
  5
413
  8
BASE_MEASURED
 10
1593.71
 20
-3600.0
 30
0.0
 70
0
  0
VERTEX
  5
414
  8
BASE_MEASURED
 10
1592.659
 20
-3600.1
 30
0.0
 70
0
  0
VERTEX
  5
415
  8
BASE_MEASURED
 10
1591.7
 20
-3600.43
 30
0.0
 70
0
  0
VERTEX
  5
416
  8
BASE_MEASURED
 10
1590.79
 20
-3600.94
 30
0.0
 70
0
  0
VERTEX
  5
417
  8
BASE_MEASURED
 10
1590.02
 20
-3601.63
 30
0.0
 70
0
  0
VERTEX
  5
418
  8
BASE_MEASURED
 10
1586.52
 20
-3605.46
 30
0.0
 70
0
  0
VERTEX
  5
419
  8
BASE_MEASURED
 10
1586.52
 20
-3606.93
 30
0.0
 70
0
  0
VERTEX
  5
41A
  8
BASE_MEASURED
 10
1564.42
 20
-3631.04
 30
0.0
 70
0
  0
VERTEX
  5
41B
  8
BASE_MEASURED
 10
1562.41
 20
-3632.46
 30
0.0
 70
0
  0
VERTEX
  5
41C
  8
BASE_MEASURED
 10
1560.0
 20
-3632.97
 30
0.0
 70
0
  0
VERTEX
  5
41D
  8
BASE_MEASURED
 10
1557.59
 20
-3632.46
 30
0.0
 70
0
  0
VERTEX
  5
41E
  8
BASE_MEASURED
 10
1555.58
 20
-3631.04
 30
0.0
 70
0
  0
VERTEX
  5
41F
  8
BASE_MEASURED
 10
1533.51
 20
-3606.93
 30
0.0
 70
0
  0
VERTEX
  5
420
  8
BASE_MEASURED
 10
1533.51
 20
-3605.46
 30
0.0
 70
0
  0
VERTEX
  5
421
  8
BASE_MEASURED
 10
1530.0
 20
-3601.63
 30
0.0
 70
0
  0
VERTEX
  5
422
  8
BASE_MEASURED
 10
1529.21
 20
-3600.94
 30
0.0
 70
0
  0
VERTEX
  5
423
  8
BASE_MEASURED
 10
1528.33
 20
-3600.43
 30
0.0
 70
0
  0
VERTEX
  5
424
  8
BASE_MEASURED
 10
1527.341
 20
-3600.1
 30
0.0
 70
0
  0
VERTEX
  5
425
  8
BASE_MEASURED
 10
1526.29
 20
-3600.0
 30
0.0
 70
0
  0
VERTEX
  5
426
  8
BASE_MEASURED
 10
1519.99
 20
-3600.0
 30
0.0
 70
0
  0
VERTEX
  5
427
  8
BASE_MEASURED
 10
1519.99
 20
-3655.02
 30
0.0
 70
0
  0
VERTEX
  5
428
  8
BASE_MEASURED
 10
1530.0
 20
-3655.02
 30
0.0
 70
0
  0
SEQEND
  5
40D
  8
BASE_MEASURED
  0
POLYLINE
  5
429
  8
BASE_MEASURED
 66
1
 10
0.0
 20
0.0
 30
0.0
 70
1
  0
VERTEX
  5
42B
  8
BASE_MEASURED
 10
1667.0
 20
-3768.0
 30
0.0
 70
0
  0
VERTEX
  5
42C
  8
BASE_MEASURED
 10
1647.0
 20
-3768.0
 30
0.0
 70
0
  0
VERTEX
  5
42D
  8
BASE_MEASURED
 10
1473.02
 20
-3768.0
 30
0.0
 70
0
  0
VERTEX
  5
42E
  8
BASE_MEASURED
 10
1453.02
 20
-3768.0
 30
0.0
 70
0
  0
VERTEX
  5
42F
  8
BASE_MEASURED
 10
1453.02
 20
-4663.0
 30
0.0
 70
0
  0
VERTEX
  5
430
  8
BASE_MEASURED
 10
1667.0
 20
-4663.0
 30
0.0
 70
0
  0
SEQEND
  5
42A
  8
BASE_MEASURED
  0
POLYLINE
  5
431
  8
BASE_MEASURED
 66
1
 10
0.0
 20
0.0
 30
0.0
 70
1
  0
VERTEX
  5
433
  8
BASE_MEASURED
 10
1530.02
 20
-3730.0
 30
0.0
 70
0
  0
VERTEX
  5
434
  8
BASE_MEASURED
 10
1530.0
 20
-3730.0
 30
0.0
 70
0
  0
VERTEX
  5
435
  8
BASE_MEASURED
 10
1473.02
 20
-3730.0
 30
0.0
 70
0
  0
VERTEX
  5
436
  8
BASE_MEASURED
 10
1473.02
 20
-3768.0
 30
0.0
 70
0
  0
VERTEX
  5
437
  8
BASE_MEASURED
 10
1647.0
 20
-3768.0
 30
0.0
 70
0
  0
VERTEX
  5
438
  8
BASE_MEASURED
 10
1647.0
 20
-3730.0
 30
0.0
 70
0
  0
VERTEX
  5
439
  8
BASE_MEASURED
 10
1590.0
 20
-3730.0
 30
0.0
 70
0
  0
SEQEND
  5
432
  8
BASE_MEASURED
  0
POLYLINE
  5
43A
  8
BASE_MEASURED
 66
1
 10
0.0
 20
0.0
 30
0.0
 70
1
  0
VERTEX
  5
43C
  8
BASE_MEASURED
 10
1590.0
 20
-3675.0
 30
0.0
 70
0
  0
VERTEX
  5
43D
  8
BASE_MEASURED
 10
1530.02
 20
-3675.0
 30
0.0
 70
0
  0
VERTEX
  5
43E
  8
BASE_MEASURED
 10
1530.0
 20
-3675.0
 30
0.0
 70
0
  0
VERTEX
  5
43F
  8
BASE_MEASURED
 10
1530.0
 20
-3660.0
 30
0.0
 70
0
  0
VERTEX
  5
440
  8
BASE_MEASURED
 10
1523.01
 20
-3660.0
 30
0.0
 70
0
  0
VERTEX
  5
441
  8
BASE_MEASURED
 10
1513.01
 20
-3677.0
 30
0.0
 70
0
  0
VERTEX
  5
442
  8
BASE_MEASURED
 10
1513.01
 20
-3693.0
 30
0.0
 70
0
  0
VERTEX
  5
443
  8
BASE_MEASURED
 10
1523.01
 20
-3710.0
 30
0.0
 70
0
  0
VERTEX
  5
444
  8
BASE_MEASURED
 10
1530.0
 20
-3710.0
 30
0.0
 70
0
  0
VERTEX
  5
445
  8
BASE_MEASURED
 10
1530.0
 20
-3715.0
 30
0.0
 70
0
  0
VERTEX
  5
446
  8
BASE_MEASURED
 10
1530.0
 20
-3730.0
 30
0.0
 70
0
  0
VERTEX
  5
447
  8
BASE_MEASURED
 10
1530.02
 20
-3730.0
 30
0.0
 70
0
  0
VERTEX
  5
448
  8
BASE_MEASURED
 10
1590.0
 20
-3730.0
 30
0.0
 70
0
  0
VERTEX
  5
449
  8
BASE_MEASURED
 10
1590.0
 20
-3715.0
 30
0.0
 70
0
  0
VERTEX
  5
44A
  8
BASE_MEASURED
 10
1590.0
 20
-3710.0
 30
0.0
 70
0
  0
VERTEX
  5
44B
  8
BASE_MEASURED
 10
1597.01
 20
-3710.0
 30
0.0
 70
0
  0
VERTEX
  5
44C
  8
BASE_MEASURED
 10
1607.01
 20
-3693.0
 30
0.0
 70
0
  0
VERTEX
  5
44D
  8
BASE_MEASURED
 10
1607.01
 20
-3677.0
 30
0.0
 70
0
  0
VERTEX
  5
44E
  8
BASE_MEASURED
 10
1597.01
 20
-3660.0
 30
0.0
 70
0
  0
VERTEX
  5
44F
  8
BASE_MEASURED
 10
1590.0
 20
-3660.0
 30
0.0
 70
0
  0
SEQEND
  5
43B
  8
BASE_MEASURED
  0
POLYLINE
  5
450
  8
BASE_MEASURED
 66
1
 10
0.0
 20
0.0
 30
0.0
 70
1
  0
VERTEX
  5
452
  8
BASE_MEASURED
 10
1590.0
 20
-3715.0
 30
0.0
 70
0
  0
VERTEX
  5
453
  8
BASE_MEASURED
 10
1590.0
 20
-3730.0
 30
0.0
 70
0
  0
VERTEX
  5
454
  8
BASE_MEASURED
 10
1647.0
 20
-3730.0
 30
0.0
 70
0
  0
VERTEX
  5
455
  8
BASE_MEASURED
 10
1647.0
 20
-3768.0
 30
0.0
 70
0
  0
VERTEX
  5
456
  8
BASE_MEASURED
 10
1667.0
 20
-3768.0
 30
0.0
 70
0
  0
VERTEX
  5
457
  8
BASE_MEASURED
 10
1667.0
 20
-3763.0
 30
0.0
 70
0
  0
VERTEX
  5
458
  8
BASE_MEASURED
 10
1667.0
 20
-3743.0
 30
0.0
 70
0
  0
VERTEX
  5
459
  8
BASE_MEASURED
 10
1667.0
 20
-3715.0
 30
0.0
 70
0
  0
SEQEND
  5
451
  8
BASE_MEASURED
  0
POLYLINE
  5
45A
  8
BASE_MEASURED
 66
1
 10
0.0
 20
0.0
 30
0.0
 70
1
  0
VERTEX
  5
45C
  8
BASE_MEASURED
 10
1530.0
 20
-3730.0
 30
0.0
 70
0
  0
VERTEX
  5
45D
  8
BASE_MEASURED
 10
1530.0
 20
-3715.0
 30
0.0
 70
0
  0
VERTEX
  5
45E
  8
BASE_MEASURED
 10
1453.02
 20
-3715.0
 30
0.0
 70
0
  0
VERTEX
  5
45F
  8
BASE_MEASURED
 10
1453.02
 20
-3743.0
 30
0.0
 70
0
  0
VERTEX
  5
460
  8
BASE_MEASURED
 10
1453.02
 20
-3763.0
 30
0.0
 70
0
  0
VERTEX
  5
461
  8
BASE_MEASURED
 10
1453.02
 20
-3768.0
 30
0.0
 70
0
  0
VERTEX
  5
462
  8
BASE_MEASURED
 10
1473.02
 20
-3768.0
 30
0.0
 70
0
  0
VERTEX
  5
463
  8
BASE_MEASURED
 10
1473.02
 20
-3730.0
 30
0.0
 70
0
  0
SEQEND
  5
45B
  8
BASE_MEASURED
  0
POLYLINE
  5
464
  8
BASE_MEASURED
 66
1
 10
0.0
 20
0.0
 30
0.0
 70
1
  0
VERTEX
  5
466
  8
BASE_MEASURED
 10
1436.02
 20
-3743.0
 30
0.0
 70
0
  0
VERTEX
  5
467
  8
BASE_MEASURED
 10
1436.02
 20
-3763.0
 30
0.0
 70
0
  0
VERTEX
  5
468
  8
BASE_MEASURED
 10
1453.02
 20
-3763.0
 30
0.0
 70
0
  0
VERTEX
  5
469
  8
BASE_MEASURED
 10
1453.02
 20
-3743.0
 30
0.0
 70
0
  0
SEQEND
  5
465
  8
BASE_MEASURED
  0
POLYLINE
  5
46A
  8
BASE_MEASURED
 66
1
 10
0.0
 20
0.0
 30
0.0
 70
1
  0
VERTEX
  5
46C
  8
BASE_MEASURED
 10
1684.0
 20
-3763.0
 30
0.0
 70
0
  0
VERTEX
  5
46D
  8
BASE_MEASURED
 10
1684.0
 20
-3743.0
 30
0.0
 70
0
  0
VERTEX
  5
46E
  8
BASE_MEASURED
 10
1667.0
 20
-3743.0
 30
0.0
 70
0
  0
VERTEX
  5
46F
  8
BASE_MEASURED
 10
1667.0
 20
-3763.0
 30
0.0
 70
0
  0
SEQEND
  5
46B
  8
BASE_MEASURED
  0
POLYLINE
  5
470
  8
DIE
 66
1
 10
0.0
 20
0.0
 30
0.0
 70
1
  0
VERTEX
  5
472
  8
DIE
 10
1530.0
 20
-3675.0
 30
0.0
 70
0
  0
VERTEX
  5
473
  8
DIE
 10
1590.0
 20
-3675.0
 30
0.0
 70
0
  0
VERTEX
  5
474
  8
DIE
 10
1590.0
 20
-3655.02
 30
0.0
 70
0
  0
VERTEX
  5
475
  8
DIE
 10
1600.01
 20
-3655.02
 30
0.0
 70
0
  0
VERTEX
  5
476
  8
DIE
 10
1600.01
 20
-3600.0
 30
0.0
 70
0
  0
VERTEX
  5
477
  8
DIE
 10
1593.71
 20
-3600.0
 30
0.0
 70
0
  0
VERTEX
  5
478
  8
DIE
 10
1592.659
 20
-3600.1
 30
0.0
 70
0
  0
VERTEX
  5
479
  8
DIE
 10
1591.7
 20
-3600.43
 30
0.0
 70
0
  0
VERTEX
  5
47A
  8
DIE
 10
1590.79
 20
-3600.94
 30
0.0
 70
0
  0
VERTEX
  5
47B
  8
DIE
 10
1590.02
 20
-3601.63
 30
0.0
 70
0
  0
VERTEX
  5
47C
  8
DIE
 10
1586.52
 20
-3605.46
 30
0.0
 70
0
  0
VERTEX
  5
47D
  8
DIE
 10
1586.52
 20
-3606.93
 30
0.0
 70
0
  0
VERTEX
  5
47E
  8
DIE
 10
1564.42
 20
-3631.04
 30
0.0
 70
0
  0
VERTEX
  5
47F
  8
DIE
 10
1562.41
 20
-3632.46
 30
0.0
 70
0
  0
VERTEX
  5
480
  8
DIE
 10
1560.0
 20
-3632.97
 30
0.0
 70
0
  0
VERTEX
  5
481
  8
DIE
 10
1557.59
 20
-3632.46
 30
0.0
 70
0
  0
VERTEX
  5
482
  8
DIE
 10
1555.58
 20
-3631.04
 30
0.0
 70
0
  0
VERTEX
  5
483
  8
DIE
 10
1533.51
 20
-3606.93
 30
0.0
 70
0
  0
VERTEX
  5
484
  8
DIE
 10
1533.51
 20
-3605.46
 30
0.0
 70
0
  0
VERTEX
  5
485
  8
DIE
 10
1530.0
 20
-3601.63
 30
0.0
 70
0
  0
VERTEX
  5
486
  8
DIE
 10
1529.21
 20
-3600.94
 30
0.0
 70
0
  0
VERTEX
  5
487
  8
DIE
 10
1528.33
 20
-3600.43
 30
0.0
 70
0
  0
VERTEX
  5
488
  8
DIE
 10
1527.341
 20
-3600.1
 30
0.0
 70
0
  0
VERTEX
  5
489
  8
DIE
 10
1526.29
 20
-3600.0
 30
0.0
 70
0
  0
VERTEX
  5
48A
  8
DIE
 10
1519.99
 20
-3600.0
 30
0.0
 70
0
  0
VERTEX
  5
48B
  8
DIE
 10
1519.99
 20
-3655.02
 30
0.0
 70
0
  0
VERTEX
  5
48C
  8
DIE
 10
1530.0
 20
-3655.02
 30
0.0
 70
0
  0
SEQEND
  5
471
  8
DIE
  0
LINE
  5
48D
  8
CENTER
 10
1560.0
 20
-3540.0
 30
0.0
 11
1560.0
 21
-3850.0
 31
0.0
  0
TEXT
  5
48E
  8
TEXT
 10
1310.0
 20
-3450.0
 30
0.0
 40
13.0
  1
03800 V63
 11
1310.0
 21
-3450.0
 31
0.0
  0
TEXT
  5
48F
  8
TEXT
 10
1310.0
 20
-3470.0
 30
0.0
 40
11.0
  1
婡夿 HD3504NT丂搚戜 幚應
 11
1310.0
 21
-3470.0
 31
0.0
  0
TEXT
  5
490
  8
TEXT
 10
1310.0
 20
-3490.0
 30
0.0
 40
11.0
  1
V暆 63.02丂怺偝 32.97
 11
1310.0
 21
-3490.0
 31
0.0
  0
TEXT
  5
491
  8
TEXT
 10
1310.0
 20
-3510.0
 30
0.0
 40
11.0
  1
lib:03800:0
 11
1310.0
 21
-3510.0
 31
0.0
  0
POLYLINE
  5
492
  8
FRAME
 66
1
 10
0.0
 20
0.0
 30
0.0
 70
1
  0
VERTEX
  5
494
  8
FRAME
 10
1820.0
 20
-3430.0
 30
0.0
 70
0
  0
VERTEX
  5
495
  8
FRAME
 10
2340.0
 20
-3430.0
 30
0.0
 70
0
  0
VERTEX
  5
496
  8
FRAME
 10
2340.0
 20
-4830.0
 30
0.0
 70
0
  0
VERTEX
  5
497
  8
FRAME
 10
1820.0
 20
-4830.0
 30
0.0
 70
0
  0
SEQEND
  5
493
  8
FRAME
  0
POLYLINE
  5
498
  8
BASE_MEASURED
 66
1
 10
0.0
 20
0.0
 30
0.0
 70
1
  0
VERTEX
  5
49A
  8
BASE_MEASURED
 10
2050.0
 20
-3694.99
 30
0.0
 70
0
  0
VERTEX
  5
49B
  8
BASE_MEASURED
 10
2110.0
 20
-3694.99
 30
0.0
 70
0
  0
VERTEX
  5
49C
  8
BASE_MEASURED
 10
2110.0
 20
-3676.98
 30
0.0
 70
0
  0
VERTEX
  5
49D
  8
BASE_MEASURED
 10
2112.0
 20
-3675.0
 30
0.0
 70
0
  0
VERTEX
  5
49E
  8
BASE_MEASURED
 10
2127.5
 20
-3675.0
 30
0.0
 70
0
  0
VERTEX
  5
49F
  8
BASE_MEASURED
 10
2127.5
 20
-3600.0
 30
0.0
 70
0
  0
VERTEX
  5
4A0
  8
BASE_MEASURED
 10
2122.65
 20
-3600.0
 30
0.0
 70
0
  0
VERTEX
  5
4A1
  8
BASE_MEASURED
 10
2121.4
 20
-3600.12
 30
0.0
 70
0
  0
VERTEX
  5
4A2
  8
BASE_MEASURED
 10
2120.23
 20
-3600.5
 30
0.0
 70
0
  0
VERTEX
  5
4A3
  8
BASE_MEASURED
 10
2119.14
 20
-3601.11
 30
0.0
 70
0
  0
VERTEX
  5
4A4
  8
BASE_MEASURED
 10
2118.23
 20
-3601.93
 30
0.0
 70
0
  0
VERTEX
  5
4A5
  8
BASE_MEASURED
 10
2112.49
 20
-3608.17
 30
0.0
 70
0
  0
VERTEX
  5
4A6
  8
BASE_MEASURED
 10
2112.49
 20
-3609.65
 30
0.0
 70
0
  0
VERTEX
  5
4A7
  8
BASE_MEASURED
 10
2085.89
 20
-3638.68
 30
0.0
 70
0
  0
VERTEX
  5
4A8
  8
BASE_MEASURED
 10
2083.23
 20
-3640.61
 30
0.0
 70
0
  0
VERTEX
  5
4A9
  8
BASE_MEASURED
 10
2080.0
 20
-3641.27
 30
0.0
 70
0
  0
VERTEX
  5
4AA
  8
BASE_MEASURED
 10
2076.77
 20
-3640.61
 30
0.0
 70
0
  0
VERTEX
  5
4AB
  8
BASE_MEASURED
 10
2074.11
 20
-3638.68
 30
0.0
 70
0
  0
VERTEX
  5
4AC
  8
BASE_MEASURED
 10
2047.491
 20
-3609.65
 30
0.0
 70
0
  0
VERTEX
  5
4AD
  8
BASE_MEASURED
 10
2047.491
 20
-3608.17
 30
0.0
 70
0
  0
VERTEX
  5
4AE
  8
BASE_MEASURED
 10
2041.77
 20
-3601.93
 30
0.0
 70
0
  0
VERTEX
  5
4AF
  8
BASE_MEASURED
 10
2040.86
 20
-3601.11
 30
0.0
 70
0
  0
VERTEX
  5
4B0
  8
BASE_MEASURED
 10
2039.77
 20
-3600.5
 30
0.0
 70
0
  0
VERTEX
  5
4B1
  8
BASE_MEASURED
 10
2038.6
 20
-3600.12
 30
0.0
 70
0
  0
VERTEX
  5
4B2
  8
BASE_MEASURED
 10
2037.35
 20
-3600.0
 30
0.0
 70
0
  0
VERTEX
  5
4B3
  8
BASE_MEASURED
 10
2032.5
 20
-3600.0
 30
0.0
 70
0
  0
VERTEX
  5
4B4
  8
BASE_MEASURED
 10
2032.5
 20
-3675.0
 30
0.0
 70
0
  0
VERTEX
  5
4B5
  8
BASE_MEASURED
 10
2048.0
 20
-3675.0
 30
0.0
 70
0
  0
VERTEX
  5
4B6
  8
BASE_MEASURED
 10
2050.0
 20
-3676.98
 30
0.0
 70
0
  0
SEQEND
  5
499
  8
BASE_MEASURED
  0
POLYLINE
  5
4B7
  8
BASE_MEASURED
 66
1
 10
0.0
 20
0.0
 30
0.0
 70
1
  0
VERTEX
  5
4B9
  8
BASE_MEASURED
 10
2187.0
 20
-3787.99
 30
0.0
 70
0
  0
VERTEX
  5
4BA
  8
BASE_MEASURED
 10
2167.0
 20
-3787.99
 30
0.0
 70
0
  0
VERTEX
  5
4BB
  8
BASE_MEASURED
 10
1993.02
 20
-3787.99
 30
0.0
 70
0
  0
VERTEX
  5
4BC
  8
BASE_MEASURED
 10
1973.02
 20
-3787.99
 30
0.0
 70
0
  0
VERTEX
  5
4BD
  8
BASE_MEASURED
 10
1973.02
 20
-4682.99
 30
0.0
 70
0
  0
VERTEX
  5
4BE
  8
BASE_MEASURED
 10
2187.0
 20
-4682.99
 30
0.0
 70
0
  0
SEQEND
  5
4B8
  8
BASE_MEASURED
  0
POLYLINE
  5
4BF
  8
BASE_MEASURED
 66
1
 10
0.0
 20
0.0
 30
0.0
 70
1
  0
VERTEX
  5
4C1
  8
BASE_MEASURED
 10
2050.02
 20
-3749.99
 30
0.0
 70
0
  0
VERTEX
  5
4C2
  8
BASE_MEASURED
 10
2050.0
 20
-3749.99
 30
0.0
 70
0
  0
VERTEX
  5
4C3
  8
BASE_MEASURED
 10
1993.02
 20
-3749.99
 30
0.0
 70
0
  0
VERTEX
  5
4C4
  8
BASE_MEASURED
 10
1993.02
 20
-3787.99
 30
0.0
 70
0
  0
VERTEX
  5
4C5
  8
BASE_MEASURED
 10
2167.0
 20
-3787.99
 30
0.0
 70
0
  0
VERTEX
  5
4C6
  8
BASE_MEASURED
 10
2167.0
 20
-3749.99
 30
0.0
 70
0
  0
VERTEX
  5
4C7
  8
BASE_MEASURED
 10
2110.0
 20
-3749.99
 30
0.0
 70
0
  0
SEQEND
  5
4C0
  8
BASE_MEASURED
  0
POLYLINE
  5
4C8
  8
BASE_MEASURED
 66
1
 10
0.0
 20
0.0
 30
0.0
 70
1
  0
VERTEX
  5
4CA
  8
BASE_MEASURED
 10
2110.0
 20
-3694.99
 30
0.0
 70
0
  0
VERTEX
  5
4CB
  8
BASE_MEASURED
 10
2050.02
 20
-3694.99
 30
0.0
 70
0
  0
VERTEX
  5
4CC
  8
BASE_MEASURED
 10
2050.0
 20
-3694.99
 30
0.0
 70
0
  0
VERTEX
  5
4CD
  8
BASE_MEASURED
 10
2050.0
 20
-3679.99
 30
0.0
 70
0
  0
VERTEX
  5
4CE
  8
BASE_MEASURED
 10
2043.01
 20
-3679.99
 30
0.0
 70
0
  0
VERTEX
  5
4CF
  8
BASE_MEASURED
 10
2033.01
 20
-3696.99
 30
0.0
 70
0
  0
VERTEX
  5
4D0
  8
BASE_MEASURED
 10
2033.01
 20
-3712.99
 30
0.0
 70
0
  0
VERTEX
  5
4D1
  8
BASE_MEASURED
 10
2043.01
 20
-3729.99
 30
0.0
 70
0
  0
VERTEX
  5
4D2
  8
BASE_MEASURED
 10
2050.0
 20
-3729.99
 30
0.0
 70
0
  0
VERTEX
  5
4D3
  8
BASE_MEASURED
 10
2050.0
 20
-3734.99
 30
0.0
 70
0
  0
VERTEX
  5
4D4
  8
BASE_MEASURED
 10
2050.0
 20
-3749.99
 30
0.0
 70
0
  0
VERTEX
  5
4D5
  8
BASE_MEASURED
 10
2050.02
 20
-3749.99
 30
0.0
 70
0
  0
VERTEX
  5
4D6
  8
BASE_MEASURED
 10
2110.0
 20
-3749.99
 30
0.0
 70
0
  0
VERTEX
  5
4D7
  8
BASE_MEASURED
 10
2110.0
 20
-3734.99
 30
0.0
 70
0
  0
VERTEX
  5
4D8
  8
BASE_MEASURED
 10
2110.0
 20
-3729.99
 30
0.0
 70
0
  0
VERTEX
  5
4D9
  8
BASE_MEASURED
 10
2117.01
 20
-3729.99
 30
0.0
 70
0
  0
VERTEX
  5
4DA
  8
BASE_MEASURED
 10
2127.01
 20
-3712.99
 30
0.0
 70
0
  0
VERTEX
  5
4DB
  8
BASE_MEASURED
 10
2127.01
 20
-3696.99
 30
0.0
 70
0
  0
VERTEX
  5
4DC
  8
BASE_MEASURED
 10
2117.01
 20
-3679.99
 30
0.0
 70
0
  0
VERTEX
  5
4DD
  8
BASE_MEASURED
 10
2110.0
 20
-3679.99
 30
0.0
 70
0
  0
SEQEND
  5
4C9
  8
BASE_MEASURED
  0
POLYLINE
  5
4DE
  8
BASE_MEASURED
 66
1
 10
0.0
 20
0.0
 30
0.0
 70
1
  0
VERTEX
  5
4E0
  8
BASE_MEASURED
 10
2110.0
 20
-3734.99
 30
0.0
 70
0
  0
VERTEX
  5
4E1
  8
BASE_MEASURED
 10
2110.0
 20
-3749.99
 30
0.0
 70
0
  0
VERTEX
  5
4E2
  8
BASE_MEASURED
 10
2167.0
 20
-3749.99
 30
0.0
 70
0
  0
VERTEX
  5
4E3
  8
BASE_MEASURED
 10
2167.0
 20
-3787.99
 30
0.0
 70
0
  0
VERTEX
  5
4E4
  8
BASE_MEASURED
 10
2187.0
 20
-3787.99
 30
0.0
 70
0
  0
VERTEX
  5
4E5
  8
BASE_MEASURED
 10
2187.0
 20
-3782.99
 30
0.0
 70
0
  0
VERTEX
  5
4E6
  8
BASE_MEASURED
 10
2187.0
 20
-3762.99
 30
0.0
 70
0
  0
VERTEX
  5
4E7
  8
BASE_MEASURED
 10
2187.0
 20
-3734.99
 30
0.0
 70
0
  0
SEQEND
  5
4DF
  8
BASE_MEASURED
  0
POLYLINE
  5
4E8
  8
BASE_MEASURED
 66
1
 10
0.0
 20
0.0
 30
0.0
 70
1
  0
VERTEX
  5
4EA
  8
BASE_MEASURED
 10
2050.0
 20
-3749.99
 30
0.0
 70
0
  0
VERTEX
  5
4EB
  8
BASE_MEASURED
 10
2050.0
 20
-3734.99
 30
0.0
 70
0
  0
VERTEX
  5
4EC
  8
BASE_MEASURED
 10
1973.02
 20
-3734.99
 30
0.0
 70
0
  0
VERTEX
  5
4ED
  8
BASE_MEASURED
 10
1973.02
 20
-3762.99
 30
0.0
 70
0
  0
VERTEX
  5
4EE
  8
BASE_MEASURED
 10
1973.02
 20
-3782.99
 30
0.0
 70
0
  0
VERTEX
  5
4EF
  8
BASE_MEASURED
 10
1973.02
 20
-3787.99
 30
0.0
 70
0
  0
VERTEX
  5
4F0
  8
BASE_MEASURED
 10
1993.02
 20
-3787.99
 30
0.0
 70
0
  0
VERTEX
  5
4F1
  8
BASE_MEASURED
 10
1993.02
 20
-3749.99
 30
0.0
 70
0
  0
SEQEND
  5
4E9
  8
BASE_MEASURED
  0
POLYLINE
  5
4F2
  8
BASE_MEASURED
 66
1
 10
0.0
 20
0.0
 30
0.0
 70
1
  0
VERTEX
  5
4F4
  8
BASE_MEASURED
 10
1956.02
 20
-3762.99
 30
0.0
 70
0
  0
VERTEX
  5
4F5
  8
BASE_MEASURED
 10
1956.02
 20
-3782.99
 30
0.0
 70
0
  0
VERTEX
  5
4F6
  8
BASE_MEASURED
 10
1973.02
 20
-3782.99
 30
0.0
 70
0
  0
VERTEX
  5
4F7
  8
BASE_MEASURED
 10
1973.02
 20
-3762.99
 30
0.0
 70
0
  0
SEQEND
  5
4F3
  8
BASE_MEASURED
  0
POLYLINE
  5
4F8
  8
BASE_MEASURED
 66
1
 10
0.0
 20
0.0
 30
0.0
 70
1
  0
VERTEX
  5
4FA
  8
BASE_MEASURED
 10
2204.0
 20
-3782.99
 30
0.0
 70
0
  0
VERTEX
  5
4FB
  8
BASE_MEASURED
 10
2204.0
 20
-3762.99
 30
0.0
 70
0
  0
VERTEX
  5
4FC
  8
BASE_MEASURED
 10
2187.0
 20
-3762.99
 30
0.0
 70
0
  0
VERTEX
  5
4FD
  8
BASE_MEASURED
 10
2187.0
 20
-3782.99
 30
0.0
 70
0
  0
SEQEND
  5
4F9
  8
BASE_MEASURED
  0
POLYLINE
  5
4FE
  8
DIE
 66
1
 10
0.0
 20
0.0
 30
0.0
 70
1
  0
VERTEX
  5
500
  8
DIE
 10
2050.0
 20
-3694.99
 30
0.0
 70
0
  0
VERTEX
  5
501
  8
DIE
 10
2110.0
 20
-3694.99
 30
0.0
 70
0
  0
VERTEX
  5
502
  8
DIE
 10
2110.0
 20
-3676.98
 30
0.0
 70
0
  0
VERTEX
  5
503
  8
DIE
 10
2112.0
 20
-3675.0
 30
0.0
 70
0
  0
VERTEX
  5
504
  8
DIE
 10
2127.5
 20
-3675.0
 30
0.0
 70
0
  0
VERTEX
  5
505
  8
DIE
 10
2127.5
 20
-3600.0
 30
0.0
 70
0
  0
VERTEX
  5
506
  8
DIE
 10
2122.65
 20
-3600.0
 30
0.0
 70
0
  0
VERTEX
  5
507
  8
DIE
 10
2121.4
 20
-3600.12
 30
0.0
 70
0
  0
VERTEX
  5
508
  8
DIE
 10
2120.23
 20
-3600.5
 30
0.0
 70
0
  0
VERTEX
  5
509
  8
DIE
 10
2119.14
 20
-3601.11
 30
0.0
 70
0
  0
VERTEX
  5
50A
  8
DIE
 10
2118.23
 20
-3601.93
 30
0.0
 70
0
  0
VERTEX
  5
50B
  8
DIE
 10
2112.49
 20
-3608.17
 30
0.0
 70
0
  0
VERTEX
  5
50C
  8
DIE
 10
2112.49
 20
-3609.65
 30
0.0
 70
0
  0
VERTEX
  5
50D
  8
DIE
 10
2085.89
 20
-3638.68
 30
0.0
 70
0
  0
VERTEX
  5
50E
  8
DIE
 10
2083.23
 20
-3640.61
 30
0.0
 70
0
  0
VERTEX
  5
50F
  8
DIE
 10
2080.0
 20
-3641.27
 30
0.0
 70
0
  0
VERTEX
  5
510
  8
DIE
 10
2076.77
 20
-3640.61
 30
0.0
 70
0
  0
VERTEX
  5
511
  8
DIE
 10
2074.11
 20
-3638.68
 30
0.0
 70
0
  0
VERTEX
  5
512
  8
DIE
 10
2047.491
 20
-3609.65
 30
0.0
 70
0
  0
VERTEX
  5
513
  8
DIE
 10
2047.491
 20
-3608.17
 30
0.0
 70
0
  0
VERTEX
  5
514
  8
DIE
 10
2041.77
 20
-3601.93
 30
0.0
 70
0
  0
VERTEX
  5
515
  8
DIE
 10
2040.86
 20
-3601.11
 30
0.0
 70
0
  0
VERTEX
  5
516
  8
DIE
 10
2039.77
 20
-3600.5
 30
0.0
 70
0
  0
VERTEX
  5
517
  8
DIE
 10
2038.6
 20
-3600.12
 30
0.0
 70
0
  0
VERTEX
  5
518
  8
DIE
 10
2037.35
 20
-3600.0
 30
0.0
 70
0
  0
VERTEX
  5
519
  8
DIE
 10
2032.5
 20
-3600.0
 30
0.0
 70
0
  0
VERTEX
  5
51A
  8
DIE
 10
2032.5
 20
-3675.0
 30
0.0
 70
0
  0
VERTEX
  5
51B
  8
DIE
 10
2048.0
 20
-3675.0
 30
0.0
 70
0
  0
VERTEX
  5
51C
  8
DIE
 10
2050.0
 20
-3676.98
 30
0.0
 70
0
  0
SEQEND
  5
4FF
  8
DIE
  0
LINE
  5
51D
  8
CENTER
 10
2080.0
 20
-3540.0
 30
0.0
 11
2080.0
 21
-3850.0
 31
0.0
  0
TEXT
  5
51E
  8
TEXT
 10
1830.0
 20
-3450.0
 30
0.0
 40
13.0
  1
01360 V80
 11
1830.0
 21
-3450.0
 31
0.0
  0
TEXT
  5
51F
  8
TEXT
 10
1830.0
 20
-3470.0
 30
0.0
 40
11.0
  1
婡夿 HD3504NT丂搚戜 幚應
 11
1830.0
 21
-3470.0
 31
0.0
  0
TEXT
  5
520
  8
TEXT
 10
1830.0
 20
-3490.0
 30
0.0
 40
11.0
  1
V暆 80.01丂怺偝 41.27
 11
1830.0
 21
-3490.0
 31
0.0
  0
TEXT
  5
521
  8
TEXT
 10
1830.0
 20
-3510.0
 30
0.0
 40
11.0
  1
lib:01360:0
 11
1830.0
 21
-3510.0
 31
0.0
  0
POLYLINE
  5
522
  8
FRAME
 66
1
 10
0.0
 20
0.0
 30
0.0
 70
1
  0
VERTEX
  5
524
  8
FRAME
 10
2340.0
 20
-3430.0
 30
0.0
 70
0
  0
VERTEX
  5
525
  8
FRAME
 10
2860.0
 20
-3430.0
 30
0.0
 70
0
  0
VERTEX
  5
526
  8
FRAME
 10
2860.0
 20
-4830.0
 30
0.0
 70
0
  0
VERTEX
  5
527
  8
FRAME
 10
2340.0
 20
-4830.0
 30
0.0
 70
0
  0
SEQEND
  5
523
  8
FRAME
  0
POLYLINE
  5
528
  8
BASE_MEASURED
 66
1
 10
0.0
 20
0.0
 30
0.0
 70
1
  0
VERTEX
  5
52A
  8
BASE_MEASURED
 10
2570.0
 20
-3710.0
 30
0.0
 70
0
  0
VERTEX
  5
52B
  8
BASE_MEASURED
 10
2630.0
 20
-3710.0
 30
0.0
 70
0
  0
VERTEX
  5
52C
  8
BASE_MEASURED
 10
2630.0
 20
-3692.0
 30
0.0
 70
0
  0
VERTEX
  5
52D
  8
BASE_MEASURED
 10
2632.0
 20
-3690.02
 30
0.0
 70
0
  0
VERTEX
  5
52E
  8
BASE_MEASURED
 10
2659.99
 20
-3690.02
 30
0.0
 70
0
  0
VERTEX
  5
52F
  8
BASE_MEASURED
 10
2659.99
 20
-3600.0
 30
0.0
 70
0
  0
VERTEX
  5
530
  8
BASE_MEASURED
 10
2653.09
 20
-3600.0
 30
0.0
 70
0
  0
VERTEX
  5
531
  8
BASE_MEASURED
 10
2651.64
 20
-3600.15
 30
0.0
 70
0
  0
VERTEX
  5
532
  8
BASE_MEASURED
 10
2650.27
 20
-3600.61
 30
0.0
 70
0
  0
VERTEX
  5
533
  8
BASE_MEASURED
 10
2649.0
 20
-3601.32
 30
0.0
 70
0
  0
VERTEX
  5
534
  8
BASE_MEASURED
 10
2647.9
 20
-3602.29
 30
0.0
 70
0
  0
VERTEX
  5
535
  8
BASE_MEASURED
 10
2641.0
 20
-3609.83
 30
0.0
 70
0
  0
VERTEX
  5
536
  8
BASE_MEASURED
 10
2641.0
 20
-3612.8
 30
0.0
 70
0
  0
VERTEX
  5
537
  8
BASE_MEASURED
 10
2607.37
 20
-3649.48
 30
0.0
 70
0
  0
VERTEX
  5
538
  8
BASE_MEASURED
 10
2604.01
 20
-3651.89
 30
0.0
 70
0
  0
VERTEX
  5
539
  8
BASE_MEASURED
 10
2600.0
 20
-3652.73
 30
0.0
 70
0
  0
VERTEX
  5
53A
  8
BASE_MEASURED
 10
2595.96
 20
-3651.89
 30
0.0
 70
0
  0
VERTEX
  5
53B
  8
BASE_MEASURED
 10
2592.63
 20
-3649.48
 30
0.0
 70
0
  0
VERTEX
  5
53C
  8
BASE_MEASURED
 10
2559.0
 20
-3612.8
 30
0.0
 70
0
  0
VERTEX
  5
53D
  8
BASE_MEASURED
 10
2559.0
 20
-3609.83
 30
0.0
 70
0
  0
VERTEX
  5
53E
  8
BASE_MEASURED
 10
2552.07
 20
-3602.29
 30
0.0
 70
0
  0
VERTEX
  5
53F
  8
BASE_MEASURED
 10
2551.0
 20
-3601.32
 30
0.0
 70
0
  0
VERTEX
  5
540
  8
BASE_MEASURED
 10
2549.73
 20
-3600.61
 30
0.0
 70
0
  0
VERTEX
  5
541
  8
BASE_MEASURED
 10
2548.36
 20
-3600.15
 30
0.0
 70
0
  0
VERTEX
  5
542
  8
BASE_MEASURED
 10
2546.91
 20
-3600.0
 30
0.0
 70
0
  0
VERTEX
  5
543
  8
BASE_MEASURED
 10
2540.01
 20
-3600.0
 30
0.0
 70
0
  0
VERTEX
  5
544
  8
BASE_MEASURED
 10
2540.01
 20
-3690.02
 30
0.0
 70
0
  0
VERTEX
  5
545
  8
BASE_MEASURED
 10
2568.0
 20
-3690.02
 30
0.0
 70
0
  0
VERTEX
  5
546
  8
BASE_MEASURED
 10
2570.0
 20
-3692.0
 30
0.0
 70
0
  0
SEQEND
  5
529
  8
BASE_MEASURED
  0
POLYLINE
  5
547
  8
BASE_MEASURED
 66
1
 10
0.0
 20
0.0
 30
0.0
 70
1
  0
VERTEX
  5
549
  8
BASE_MEASURED
 10
2707.0
 20
-3803.0
 30
0.0
 70
0
  0
VERTEX
  5
54A
  8
BASE_MEASURED
 10
2687.0
 20
-3803.0
 30
0.0
 70
0
  0
VERTEX
  5
54B
  8
BASE_MEASURED
 10
2513.02
 20
-3803.0
 30
0.0
 70
0
  0
VERTEX
  5
54C
  8
BASE_MEASURED
 10
2493.02
 20
-3803.0
 30
0.0
 70
0
  0
VERTEX
  5
54D
  8
BASE_MEASURED
 10
2493.02
 20
-4698.0
 30
0.0
 70
0
  0
VERTEX
  5
54E
  8
BASE_MEASURED
 10
2707.0
 20
-4698.0
 30
0.0
 70
0
  0
SEQEND
  5
548
  8
BASE_MEASURED
  0
POLYLINE
  5
54F
  8
BASE_MEASURED
 66
1
 10
0.0
 20
0.0
 30
0.0
 70
1
  0
VERTEX
  5
551
  8
BASE_MEASURED
 10
2570.02
 20
-3765.0
 30
0.0
 70
0
  0
VERTEX
  5
552
  8
BASE_MEASURED
 10
2570.0
 20
-3765.0
 30
0.0
 70
0
  0
VERTEX
  5
553
  8
BASE_MEASURED
 10
2513.02
 20
-3765.0
 30
0.0
 70
0
  0
VERTEX
  5
554
  8
BASE_MEASURED
 10
2513.02
 20
-3803.0
 30
0.0
 70
0
  0
VERTEX
  5
555
  8
BASE_MEASURED
 10
2687.0
 20
-3803.0
 30
0.0
 70
0
  0
VERTEX
  5
556
  8
BASE_MEASURED
 10
2687.0
 20
-3765.0
 30
0.0
 70
0
  0
VERTEX
  5
557
  8
BASE_MEASURED
 10
2630.0
 20
-3765.0
 30
0.0
 70
0
  0
SEQEND
  5
550
  8
BASE_MEASURED
  0
POLYLINE
  5
558
  8
BASE_MEASURED
 66
1
 10
0.0
 20
0.0
 30
0.0
 70
1
  0
VERTEX
  5
55A
  8
BASE_MEASURED
 10
2630.0
 20
-3710.0
 30
0.0
 70
0
  0
VERTEX
  5
55B
  8
BASE_MEASURED
 10
2570.02
 20
-3710.0
 30
0.0
 70
0
  0
VERTEX
  5
55C
  8
BASE_MEASURED
 10
2570.0
 20
-3710.0
 30
0.0
 70
0
  0
VERTEX
  5
55D
  8
BASE_MEASURED
 10
2570.0
 20
-3695.0
 30
0.0
 70
0
  0
VERTEX
  5
55E
  8
BASE_MEASURED
 10
2563.01
 20
-3695.0
 30
0.0
 70
0
  0
VERTEX
  5
55F
  8
BASE_MEASURED
 10
2553.01
 20
-3712.0
 30
0.0
 70
0
  0
VERTEX
  5
560
  8
BASE_MEASURED
 10
2553.01
 20
-3728.0
 30
0.0
 70
0
  0
VERTEX
  5
561
  8
BASE_MEASURED
 10
2563.01
 20
-3745.0
 30
0.0
 70
0
  0
VERTEX
  5
562
  8
BASE_MEASURED
 10
2570.0
 20
-3745.0
 30
0.0
 70
0
  0
VERTEX
  5
563
  8
BASE_MEASURED
 10
2570.0
 20
-3750.0
 30
0.0
 70
0
  0
VERTEX
  5
564
  8
BASE_MEASURED
 10
2570.0
 20
-3765.0
 30
0.0
 70
0
  0
VERTEX
  5
565
  8
BASE_MEASURED
 10
2570.02
 20
-3765.0
 30
0.0
 70
0
  0
VERTEX
  5
566
  8
BASE_MEASURED
 10
2630.0
 20
-3765.0
 30
0.0
 70
0
  0
VERTEX
  5
567
  8
BASE_MEASURED
 10
2630.0
 20
-3750.0
 30
0.0
 70
0
  0
VERTEX
  5
568
  8
BASE_MEASURED
 10
2630.0
 20
-3745.0
 30
0.0
 70
0
  0
VERTEX
  5
569
  8
BASE_MEASURED
 10
2637.01
 20
-3745.0
 30
0.0
 70
0
  0
VERTEX
  5
56A
  8
BASE_MEASURED
 10
2647.01
 20
-3728.0
 30
0.0
 70
0
  0
VERTEX
  5
56B
  8
BASE_MEASURED
 10
2647.01
 20
-3712.0
 30
0.0
 70
0
  0
VERTEX
  5
56C
  8
BASE_MEASURED
 10
2637.01
 20
-3695.0
 30
0.0
 70
0
  0
VERTEX
  5
56D
  8
BASE_MEASURED
 10
2630.0
 20
-3695.0
 30
0.0
 70
0
  0
SEQEND
  5
559
  8
BASE_MEASURED
  0
POLYLINE
  5
56E
  8
BASE_MEASURED
 66
1
 10
0.0
 20
0.0
 30
0.0
 70
1
  0
VERTEX
  5
570
  8
BASE_MEASURED
 10
2630.0
 20
-3750.0
 30
0.0
 70
0
  0
VERTEX
  5
571
  8
BASE_MEASURED
 10
2630.0
 20
-3765.0
 30
0.0
 70
0
  0
VERTEX
  5
572
  8
BASE_MEASURED
 10
2687.0
 20
-3765.0
 30
0.0
 70
0
  0
VERTEX
  5
573
  8
BASE_MEASURED
 10
2687.0
 20
-3803.0
 30
0.0
 70
0
  0
VERTEX
  5
574
  8
BASE_MEASURED
 10
2707.0
 20
-3803.0
 30
0.0
 70
0
  0
VERTEX
  5
575
  8
BASE_MEASURED
 10
2707.0
 20
-3798.0
 30
0.0
 70
0
  0
VERTEX
  5
576
  8
BASE_MEASURED
 10
2707.0
 20
-3778.0
 30
0.0
 70
0
  0
VERTEX
  5
577
  8
BASE_MEASURED
 10
2707.0
 20
-3750.0
 30
0.0
 70
0
  0
SEQEND
  5
56F
  8
BASE_MEASURED
  0
POLYLINE
  5
578
  8
BASE_MEASURED
 66
1
 10
0.0
 20
0.0
 30
0.0
 70
1
  0
VERTEX
  5
57A
  8
BASE_MEASURED
 10
2570.0
 20
-3765.0
 30
0.0
 70
0
  0
VERTEX
  5
57B
  8
BASE_MEASURED
 10
2570.0
 20
-3750.0
 30
0.0
 70
0
  0
VERTEX
  5
57C
  8
BASE_MEASURED
 10
2493.02
 20
-3750.0
 30
0.0
 70
0
  0
VERTEX
  5
57D
  8
BASE_MEASURED
 10
2493.02
 20
-3778.0
 30
0.0
 70
0
  0
VERTEX
  5
57E
  8
BASE_MEASURED
 10
2493.02
 20
-3798.0
 30
0.0
 70
0
  0
VERTEX
  5
57F
  8
BASE_MEASURED
 10
2493.02
 20
-3803.0
 30
0.0
 70
0
  0
VERTEX
  5
580
  8
BASE_MEASURED
 10
2513.02
 20
-3803.0
 30
0.0
 70
0
  0
VERTEX
  5
581
  8
BASE_MEASURED
 10
2513.02
 20
-3765.0
 30
0.0
 70
0
  0
SEQEND
  5
579
  8
BASE_MEASURED
  0
POLYLINE
  5
582
  8
BASE_MEASURED
 66
1
 10
0.0
 20
0.0
 30
0.0
 70
1
  0
VERTEX
  5
584
  8
BASE_MEASURED
 10
2476.02
 20
-3778.0
 30
0.0
 70
0
  0
VERTEX
  5
585
  8
BASE_MEASURED
 10
2476.02
 20
-3798.0
 30
0.0
 70
0
  0
VERTEX
  5
586
  8
BASE_MEASURED
 10
2493.02
 20
-3798.0
 30
0.0
 70
0
  0
VERTEX
  5
587
  8
BASE_MEASURED
 10
2493.02
 20
-3778.0
 30
0.0
 70
0
  0
SEQEND
  5
583
  8
BASE_MEASURED
  0
POLYLINE
  5
588
  8
BASE_MEASURED
 66
1
 10
0.0
 20
0.0
 30
0.0
 70
1
  0
VERTEX
  5
58A
  8
BASE_MEASURED
 10
2724.0
 20
-3798.0
 30
0.0
 70
0
  0
VERTEX
  5
58B
  8
BASE_MEASURED
 10
2724.0
 20
-3778.0
 30
0.0
 70
0
  0
VERTEX
  5
58C
  8
BASE_MEASURED
 10
2707.0
 20
-3778.0
 30
0.0
 70
0
  0
VERTEX
  5
58D
  8
BASE_MEASURED
 10
2707.0
 20
-3798.0
 30
0.0
 70
0
  0
SEQEND
  5
589
  8
BASE_MEASURED
  0
POLYLINE
  5
58E
  8
DIE
 66
1
 10
0.0
 20
0.0
 30
0.0
 70
1
  0
VERTEX
  5
590
  8
DIE
 10
2570.0
 20
-3710.0
 30
0.0
 70
0
  0
VERTEX
  5
591
  8
DIE
 10
2630.0
 20
-3710.0
 30
0.0
 70
0
  0
VERTEX
  5
592
  8
DIE
 10
2630.0
 20
-3692.0
 30
0.0
 70
0
  0
VERTEX
  5
593
  8
DIE
 10
2632.0
 20
-3690.02
 30
0.0
 70
0
  0
VERTEX
  5
594
  8
DIE
 10
2659.99
 20
-3690.02
 30
0.0
 70
0
  0
VERTEX
  5
595
  8
DIE
 10
2659.99
 20
-3600.0
 30
0.0
 70
0
  0
VERTEX
  5
596
  8
DIE
 10
2653.09
 20
-3600.0
 30
0.0
 70
0
  0
VERTEX
  5
597
  8
DIE
 10
2651.64
 20
-3600.15
 30
0.0
 70
0
  0
VERTEX
  5
598
  8
DIE
 10
2650.27
 20
-3600.61
 30
0.0
 70
0
  0
VERTEX
  5
599
  8
DIE
 10
2649.0
 20
-3601.32
 30
0.0
 70
0
  0
VERTEX
  5
59A
  8
DIE
 10
2647.9
 20
-3602.29
 30
0.0
 70
0
  0
VERTEX
  5
59B
  8
DIE
 10
2641.0
 20
-3609.83
 30
0.0
 70
0
  0
VERTEX
  5
59C
  8
DIE
 10
2641.0
 20
-3612.8
 30
0.0
 70
0
  0
VERTEX
  5
59D
  8
DIE
 10
2607.37
 20
-3649.48
 30
0.0
 70
0
  0
VERTEX
  5
59E
  8
DIE
 10
2604.01
 20
-3651.89
 30
0.0
 70
0
  0
VERTEX
  5
59F
  8
DIE
 10
2600.0
 20
-3652.73
 30
0.0
 70
0
  0
VERTEX
  5
5A0
  8
DIE
 10
2595.96
 20
-3651.89
 30
0.0
 70
0
  0
VERTEX
  5
5A1
  8
DIE
 10
2592.63
 20
-3649.48
 30
0.0
 70
0
  0
VERTEX
  5
5A2
  8
DIE
 10
2559.0
 20
-3612.8
 30
0.0
 70
0
  0
VERTEX
  5
5A3
  8
DIE
 10
2559.0
 20
-3609.83
 30
0.0
 70
0
  0
VERTEX
  5
5A4
  8
DIE
 10
2552.07
 20
-3602.29
 30
0.0
 70
0
  0
VERTEX
  5
5A5
  8
DIE
 10
2551.0
 20
-3601.32
 30
0.0
 70
0
  0
VERTEX
  5
5A6
  8
DIE
 10
2549.73
 20
-3600.61
 30
0.0
 70
0
  0
VERTEX
  5
5A7
  8
DIE
 10
2548.36
 20
-3600.15
 30
0.0
 70
0
  0
VERTEX
  5
5A8
  8
DIE
 10
2546.91
 20
-3600.0
 30
0.0
 70
0
  0
VERTEX
  5
5A9
  8
DIE
 10
2540.01
 20
-3600.0
 30
0.0
 70
0
  0
VERTEX
  5
5AA
  8
DIE
 10
2540.01
 20
-3690.02
 30
0.0
 70
0
  0
VERTEX
  5
5AB
  8
DIE
 10
2568.0
 20
-3690.02
 30
0.0
 70
0
  0
VERTEX
  5
5AC
  8
DIE
 10
2570.0
 20
-3692.0
 30
0.0
 70
0
  0
SEQEND
  5
58F
  8
DIE
  0
LINE
  5
5AD
  8
CENTER
 10
2600.0
 20
-3540.0
 30
0.0
 11
2600.0
 21
-3850.0
 31
0.0
  0
TEXT
  5
5AE
  8
TEXT
 10
2350.0
 20
-3450.0
 30
0.0
 40
13.0
  1
01860 V100
 11
2350.0
 21
-3450.0
 31
0.0
  0
TEXT
  5
5AF
  8
TEXT
 10
2350.0
 20
-3470.0
 30
0.0
 40
11.0
  1
婡夿 HD3504NT丂搚戜 幚應
 11
2350.0
 21
-3470.0
 31
0.0
  0
TEXT
  5
5B0
  8
TEXT
 10
2350.0
 20
-3490.0
 30
0.0
 40
11.0
  1
V暆 99.99丂怺偝 52.73
 11
2350.0
 21
-3490.0
 31
0.0
  0
TEXT
  5
5B1
  8
TEXT
 10
2350.0
 20
-3510.0
 30
0.0
 40
11.0
  1
lib:01860:0
 11
2350.0
 21
-3510.0
 31
0.0
  0
POLYLINE
  5
5B2
  8
FRAME
 66
1
 10
0.0
 20
0.0
 30
0.0
 70
1
  0
VERTEX
  5
5B4
  8
FRAME
 10
2860.0
 20
-3430.0
 30
0.0
 70
0
  0
VERTEX
  5
5B5
  8
FRAME
 10
3380.0
 20
-3430.0
 30
0.0
 70
0
  0
VERTEX
  5
5B6
  8
FRAME
 10
3380.0
 20
-4830.0
 30
0.0
 70
0
  0
VERTEX
  5
5B7
  8
FRAME
 10
2860.0
 20
-4830.0
 30
0.0
 70
0
  0
SEQEND
  5
5B3
  8
FRAME
  0
POLYLINE
  5
5B8
  8
BASE_MEASURED
 66
1
 10
0.0
 20
0.0
 30
0.0
 70
1
  0
VERTEX
  5
5BA
  8
BASE_MEASURED
 10
3075.0
 20
-3723.0
 30
0.0
 70
0
  0
VERTEX
  5
5BB
  8
BASE_MEASURED
 10
3164.99
 20
-3723.0
 30
0.0
 70
0
  0
VERTEX
  5
5BC
  8
BASE_MEASURED
 10
3164.99
 20
-3704.99
 30
0.0
 70
0
  0
VERTEX
  5
5BD
  8
BASE_MEASURED
 10
3167.0
 20
-3703.0
 30
0.0
 70
0
  0
VERTEX
  5
5BE
  8
BASE_MEASURED
 10
3197.0
 20
-3703.0
 30
0.0
 70
0
  0
VERTEX
  5
5BF
  8
BASE_MEASURED
 10
3197.0
 20
-3600.0
 30
0.0
 70
0
  0
VERTEX
  5
5C0
  8
BASE_MEASURED
 10
3186.68
 20
-3600.0
 30
0.0
 70
0
  0
VERTEX
  5
5C1
  8
BASE_MEASURED
 10
3184.76
 20
-3600.21
 30
0.0
 70
0
  0
VERTEX
  5
5C2
  8
BASE_MEASURED
 10
3182.9
 20
-3600.85
 30
0.0
 70
0
  0
VERTEX
  5
5C3
  8
BASE_MEASURED
 10
3181.22
 20
-3601.86
 30
0.0
 70
0
  0
VERTEX
  5
5C4
  8
BASE_MEASURED
 10
3179.8
 20
-3603.21
 30
0.0
 70
0
  0
VERTEX
  5
5C5
  8
BASE_MEASURED
 10
3172.0
 20
-3612.5
 30
0.0
 70
0
  0
VERTEX
  5
5C6
  8
BASE_MEASURED
 10
3172.0
 20
-3615.63
 30
0.0
 70
0
  0
VERTEX
  5
5C7
  8
BASE_MEASURED
 10
3144.52
 20
-3648.37
 30
0.0
 70
0
  0
VERTEX
  5
5C8
  8
BASE_MEASURED
 10
3133.52
 20
-3656.8
 30
0.0
 70
0
  0
VERTEX
  5
5C9
  8
BASE_MEASURED
 10
3120.01
 20
-3659.8
 30
0.0
 70
0
  0
VERTEX
  5
5CA
  8
BASE_MEASURED
 10
3106.47
 20
-3656.8
 30
0.0
 70
0
  0
VERTEX
  5
5CB
  8
BASE_MEASURED
 10
3095.47
 20
-3648.37
 30
0.0
 70
0
  0
VERTEX
  5
5CC
  8
BASE_MEASURED
 10
3067.99
 20
-3615.63
 30
0.0
 70
0
  0
VERTEX
  5
5CD
  8
BASE_MEASURED
 10
3067.99
 20
-3612.5
 30
0.0
 70
0
  0
VERTEX
  5
5CE
  8
BASE_MEASURED
 10
3060.19
 20
-3603.21
 30
0.0
 70
0
  0
VERTEX
  5
5CF
  8
BASE_MEASURED
 10
3058.77
 20
-3601.86
 30
0.0
 70
0
  0
VERTEX
  5
5D0
  8
BASE_MEASURED
 10
3057.09
 20
-3600.85
 30
0.0
 70
0
  0
VERTEX
  5
5D1
  8
BASE_MEASURED
 10
3055.241
 20
-3600.21
 30
0.0
 70
0
  0
VERTEX
  5
5D2
  8
BASE_MEASURED
 10
3053.31
 20
-3600.0
 30
0.0
 70
0
  0
VERTEX
  5
5D3
  8
BASE_MEASURED
 10
3043.0
 20
-3600.0
 30
0.0
 70
0
  0
VERTEX
  5
5D4
  8
BASE_MEASURED
 10
3043.0
 20
-3703.0
 30
0.0
 70
0
  0
VERTEX
  5
5D5
  8
BASE_MEASURED
 10
3072.99
 20
-3703.0
 30
0.0
 70
0
  0
VERTEX
  5
5D6
  8
BASE_MEASURED
 10
3075.0
 20
-3704.99
 30
0.0
 70
0
  0
SEQEND
  5
5B9
  8
BASE_MEASURED
  0
POLYLINE
  5
5D7
  8
BASE_MEASURED
 66
1
 10
0.0
 20
0.0
 30
0.0
 70
1
  0
VERTEX
  5
5D9
  8
BASE_MEASURED
 10
3227.0
 20
-3816.0
 30
0.0
 70
0
  0
VERTEX
  5
5DA
  8
BASE_MEASURED
 10
3207.0
 20
-3816.0
 30
0.0
 70
0
  0
VERTEX
  5
5DB
  8
BASE_MEASURED
 10
3033.02
 20
-3816.0
 30
0.0
 70
0
  0
VERTEX
  5
5DC
  8
BASE_MEASURED
 10
3013.02
 20
-3816.0
 30
0.0
 70
0
  0
VERTEX
  5
5DD
  8
BASE_MEASURED
 10
3013.02
 20
-4711.0
 30
0.0
 70
0
  0
VERTEX
  5
5DE
  8
BASE_MEASURED
 10
3227.0
 20
-4711.0
 30
0.0
 70
0
  0
SEQEND
  5
5D8
  8
BASE_MEASURED
  0
POLYLINE
  5
5DF
  8
BASE_MEASURED
 66
1
 10
0.0
 20
0.0
 30
0.0
 70
1
  0
VERTEX
  5
5E1
  8
BASE_MEASURED
 10
3090.02
 20
-3778.0
 30
0.0
 70
0
  0
VERTEX
  5
5E2
  8
BASE_MEASURED
 10
3090.0
 20
-3778.0
 30
0.0
 70
0
  0
VERTEX
  5
5E3
  8
BASE_MEASURED
 10
3033.02
 20
-3778.0
 30
0.0
 70
0
  0
VERTEX
  5
5E4
  8
BASE_MEASURED
 10
3033.02
 20
-3816.0
 30
0.0
 70
0
  0
VERTEX
  5
5E5
  8
BASE_MEASURED
 10
3207.0
 20
-3816.0
 30
0.0
 70
0
  0
VERTEX
  5
5E6
  8
BASE_MEASURED
 10
3207.0
 20
-3778.0
 30
0.0
 70
0
  0
VERTEX
  5
5E7
  8
BASE_MEASURED
 10
3150.0
 20
-3778.0
 30
0.0
 70
0
  0
SEQEND
  5
5E0
  8
BASE_MEASURED
  0
POLYLINE
  5
5E8
  8
BASE_MEASURED
 66
1
 10
0.0
 20
0.0
 30
0.0
 70
1
  0
VERTEX
  5
5EA
  8
BASE_MEASURED
 10
3150.0
 20
-3723.0
 30
0.0
 70
0
  0
VERTEX
  5
5EB
  8
BASE_MEASURED
 10
3090.02
 20
-3723.0
 30
0.0
 70
0
  0
VERTEX
  5
5EC
  8
BASE_MEASURED
 10
3090.0
 20
-3723.0
 30
0.0
 70
0
  0
VERTEX
  5
5ED
  8
BASE_MEASURED
 10
3090.0
 20
-3708.0
 30
0.0
 70
0
  0
VERTEX
  5
5EE
  8
BASE_MEASURED
 10
3083.01
 20
-3708.0
 30
0.0
 70
0
  0
VERTEX
  5
5EF
  8
BASE_MEASURED
 10
3073.01
 20
-3725.0
 30
0.0
 70
0
  0
VERTEX
  5
5F0
  8
BASE_MEASURED
 10
3073.01
 20
-3741.0
 30
0.0
 70
0
  0
VERTEX
  5
5F1
  8
BASE_MEASURED
 10
3083.01
 20
-3758.0
 30
0.0
 70
0
  0
VERTEX
  5
5F2
  8
BASE_MEASURED
 10
3090.0
 20
-3758.0
 30
0.0
 70
0
  0
VERTEX
  5
5F3
  8
BASE_MEASURED
 10
3090.0
 20
-3763.0
 30
0.0
 70
0
  0
VERTEX
  5
5F4
  8
BASE_MEASURED
 10
3090.0
 20
-3778.0
 30
0.0
 70
0
  0
VERTEX
  5
5F5
  8
BASE_MEASURED
 10
3090.02
 20
-3778.0
 30
0.0
 70
0
  0
VERTEX
  5
5F6
  8
BASE_MEASURED
 10
3150.0
 20
-3778.0
 30
0.0
 70
0
  0
VERTEX
  5
5F7
  8
BASE_MEASURED
 10
3150.0
 20
-3763.0
 30
0.0
 70
0
  0
VERTEX
  5
5F8
  8
BASE_MEASURED
 10
3150.0
 20
-3758.0
 30
0.0
 70
0
  0
VERTEX
  5
5F9
  8
BASE_MEASURED
 10
3157.01
 20
-3758.0
 30
0.0
 70
0
  0
VERTEX
  5
5FA
  8
BASE_MEASURED
 10
3167.01
 20
-3741.0
 30
0.0
 70
0
  0
VERTEX
  5
5FB
  8
BASE_MEASURED
 10
3167.01
 20
-3725.0
 30
0.0
 70
0
  0
VERTEX
  5
5FC
  8
BASE_MEASURED
 10
3157.01
 20
-3708.0
 30
0.0
 70
0
  0
VERTEX
  5
5FD
  8
BASE_MEASURED
 10
3150.0
 20
-3708.0
 30
0.0
 70
0
  0
SEQEND
  5
5E9
  8
BASE_MEASURED
  0
POLYLINE
  5
5FE
  8
BASE_MEASURED
 66
1
 10
0.0
 20
0.0
 30
0.0
 70
1
  0
VERTEX
  5
600
  8
BASE_MEASURED
 10
3150.0
 20
-3763.0
 30
0.0
 70
0
  0
VERTEX
  5
601
  8
BASE_MEASURED
 10
3150.0
 20
-3778.0
 30
0.0
 70
0
  0
VERTEX
  5
602
  8
BASE_MEASURED
 10
3207.0
 20
-3778.0
 30
0.0
 70
0
  0
VERTEX
  5
603
  8
BASE_MEASURED
 10
3207.0
 20
-3816.0
 30
0.0
 70
0
  0
VERTEX
  5
604
  8
BASE_MEASURED
 10
3227.0
 20
-3816.0
 30
0.0
 70
0
  0
VERTEX
  5
605
  8
BASE_MEASURED
 10
3227.0
 20
-3811.0
 30
0.0
 70
0
  0
VERTEX
  5
606
  8
BASE_MEASURED
 10
3227.0
 20
-3791.0
 30
0.0
 70
0
  0
VERTEX
  5
607
  8
BASE_MEASURED
 10
3227.0
 20
-3763.0
 30
0.0
 70
0
  0
SEQEND
  5
5FF
  8
BASE_MEASURED
  0
POLYLINE
  5
608
  8
BASE_MEASURED
 66
1
 10
0.0
 20
0.0
 30
0.0
 70
1
  0
VERTEX
  5
60A
  8
BASE_MEASURED
 10
3090.0
 20
-3778.0
 30
0.0
 70
0
  0
VERTEX
  5
60B
  8
BASE_MEASURED
 10
3090.0
 20
-3763.0
 30
0.0
 70
0
  0
VERTEX
  5
60C
  8
BASE_MEASURED
 10
3013.02
 20
-3763.0
 30
0.0
 70
0
  0
VERTEX
  5
60D
  8
BASE_MEASURED
 10
3013.02
 20
-3791.0
 30
0.0
 70
0
  0
VERTEX
  5
60E
  8
BASE_MEASURED
 10
3013.02
 20
-3811.0
 30
0.0
 70
0
  0
VERTEX
  5
60F
  8
BASE_MEASURED
 10
3013.02
 20
-3816.0
 30
0.0
 70
0
  0
VERTEX
  5
610
  8
BASE_MEASURED
 10
3033.02
 20
-3816.0
 30
0.0
 70
0
  0
VERTEX
  5
611
  8
BASE_MEASURED
 10
3033.02
 20
-3778.0
 30
0.0
 70
0
  0
SEQEND
  5
609
  8
BASE_MEASURED
  0
POLYLINE
  5
612
  8
BASE_MEASURED
 66
1
 10
0.0
 20
0.0
 30
0.0
 70
1
  0
VERTEX
  5
614
  8
BASE_MEASURED
 10
2996.02
 20
-3791.0
 30
0.0
 70
0
  0
VERTEX
  5
615
  8
BASE_MEASURED
 10
2996.02
 20
-3811.0
 30
0.0
 70
0
  0
VERTEX
  5
616
  8
BASE_MEASURED
 10
3013.02
 20
-3811.0
 30
0.0
 70
0
  0
VERTEX
  5
617
  8
BASE_MEASURED
 10
3013.02
 20
-3791.0
 30
0.0
 70
0
  0
SEQEND
  5
613
  8
BASE_MEASURED
  0
POLYLINE
  5
618
  8
BASE_MEASURED
 66
1
 10
0.0
 20
0.0
 30
0.0
 70
1
  0
VERTEX
  5
61A
  8
BASE_MEASURED
 10
3244.0
 20
-3811.0
 30
0.0
 70
0
  0
VERTEX
  5
61B
  8
BASE_MEASURED
 10
3244.0
 20
-3791.0
 30
0.0
 70
0
  0
VERTEX
  5
61C
  8
BASE_MEASURED
 10
3227.0
 20
-3791.0
 30
0.0
 70
0
  0
VERTEX
  5
61D
  8
BASE_MEASURED
 10
3227.0
 20
-3811.0
 30
0.0
 70
0
  0
SEQEND
  5
619
  8
BASE_MEASURED
  0
POLYLINE
  5
61E
  8
DIE
 66
1
 10
0.0
 20
0.0
 30
0.0
 70
1
  0
VERTEX
  5
620
  8
DIE
 10
3075.0
 20
-3723.0
 30
0.0
 70
0
  0
VERTEX
  5
621
  8
DIE
 10
3164.99
 20
-3723.0
 30
0.0
 70
0
  0
VERTEX
  5
622
  8
DIE
 10
3164.99
 20
-3704.99
 30
0.0
 70
0
  0
VERTEX
  5
623
  8
DIE
 10
3167.0
 20
-3703.0
 30
0.0
 70
0
  0
VERTEX
  5
624
  8
DIE
 10
3197.0
 20
-3703.0
 30
0.0
 70
0
  0
VERTEX
  5
625
  8
DIE
 10
3197.0
 20
-3600.0
 30
0.0
 70
0
  0
VERTEX
  5
626
  8
DIE
 10
3186.68
 20
-3600.0
 30
0.0
 70
0
  0
VERTEX
  5
627
  8
DIE
 10
3184.76
 20
-3600.21
 30
0.0
 70
0
  0
VERTEX
  5
628
  8
DIE
 10
3182.9
 20
-3600.85
 30
0.0
 70
0
  0
VERTEX
  5
629
  8
DIE
 10
3181.22
 20
-3601.86
 30
0.0
 70
0
  0
VERTEX
  5
62A
  8
DIE
 10
3179.8
 20
-3603.21
 30
0.0
 70
0
  0
VERTEX
  5
62B
  8
DIE
 10
3172.0
 20
-3612.5
 30
0.0
 70
0
  0
VERTEX
  5
62C
  8
DIE
 10
3172.0
 20
-3615.63
 30
0.0
 70
0
  0
VERTEX
  5
62D
  8
DIE
 10
3144.52
 20
-3648.37
 30
0.0
 70
0
  0
VERTEX
  5
62E
  8
DIE
 10
3133.52
 20
-3656.8
 30
0.0
 70
0
  0
VERTEX
  5
62F
  8
DIE
 10
3120.01
 20
-3659.8
 30
0.0
 70
0
  0
VERTEX
  5
630
  8
DIE
 10
3106.47
 20
-3656.8
 30
0.0
 70
0
  0
VERTEX
  5
631
  8
DIE
 10
3095.47
 20
-3648.37
 30
0.0
 70
0
  0
VERTEX
  5
632
  8
DIE
 10
3067.99
 20
-3615.63
 30
0.0
 70
0
  0
VERTEX
  5
633
  8
DIE
 10
3067.99
 20
-3612.5
 30
0.0
 70
0
  0
VERTEX
  5
634
  8
DIE
 10
3060.19
 20
-3603.21
 30
0.0
 70
0
  0
VERTEX
  5
635
  8
DIE
 10
3058.77
 20
-3601.86
 30
0.0
 70
0
  0
VERTEX
  5
636
  8
DIE
 10
3057.09
 20
-3600.85
 30
0.0
 70
0
  0
VERTEX
  5
637
  8
DIE
 10
3055.241
 20
-3600.21
 30
0.0
 70
0
  0
VERTEX
  5
638
  8
DIE
 10
3053.31
 20
-3600.0
 30
0.0
 70
0
  0
VERTEX
  5
639
  8
DIE
 10
3043.0
 20
-3600.0
 30
0.0
 70
0
  0
VERTEX
  5
63A
  8
DIE
 10
3043.0
 20
-3703.0
 30
0.0
 70
0
  0
VERTEX
  5
63B
  8
DIE
 10
3072.99
 20
-3703.0
 30
0.0
 70
0
  0
VERTEX
  5
63C
  8
DIE
 10
3075.0
 20
-3704.99
 30
0.0
 70
0
  0
SEQEND
  5
61F
  8
DIE
  0
LINE
  5
63D
  8
CENTER
 10
3120.0
 20
-3540.0
 30
0.0
 11
3120.0
 21
-3850.0
 31
0.0
  0
TEXT
  5
63E
  8
TEXT
 10
2870.0
 20
-3450.0
 30
0.0
 40
13.0
  1
03900 V125
 11
2870.0
 21
-3450.0
 31
0.0
  0
TEXT
  5
63F
  8
TEXT
 10
2870.0
 20
-3470.0
 30
0.0
 40
11.0
  1
婡夿 HD3504NT丂搚戜 幚應
 11
2870.0
 21
-3470.0
 31
0.0
  0
TEXT
  5
640
  8
TEXT
 10
2870.0
 20
-3490.0
 30
0.0
 40
11.0
  1
V暆 124.99丂怺偝 59.8
 11
2870.0
 21
-3490.0
 31
0.0
  0
TEXT
  5
641
  8
TEXT
 10
2870.0
 20
-3510.0
 30
0.0
 40
11.0
  1
lib:03900:0
 11
2870.0
 21
-3510.0
 31
0.0
  0
POLYLINE
  5
642
  8
FRAME
 66
1
 10
0.0
 20
0.0
 30
0.0
 70
1
  0
VERTEX
  5
644
  8
FRAME
 10
3380.0
 20
-3430.0
 30
0.0
 70
0
  0
VERTEX
  5
645
  8
FRAME
 10
3900.0
 20
-3430.0
 30
0.0
 70
0
  0
VERTEX
  5
646
  8
FRAME
 10
3900.0
 20
-4830.0
 30
0.0
 70
0
  0
VERTEX
  5
647
  8
FRAME
 10
3380.0
 20
-4830.0
 30
0.0
 70
0
  0
SEQEND
  5
643
  8
FRAME
  0
POLYLINE
  5
648
  8
BASE_MEASURED
 66
1
 10
0.0
 20
0.0
 30
0.0
 70
1
  0
VERTEX
  5
64A
  8
BASE_MEASURED
 10
3580.0
 20
-3740.0
 30
0.0
 70
0
  0
VERTEX
  5
64B
  8
BASE_MEASURED
 10
3700.0
 20
-3740.0
 30
0.0
 70
0
  0
VERTEX
  5
64C
  8
BASE_MEASURED
 10
3700.0
 20
-3720.0
 30
0.0
 70
0
  0
VERTEX
  5
64D
  8
BASE_MEASURED
 10
3727.5
 20
-3720.0
 30
0.0
 70
0
  0
VERTEX
  5
64E
  8
BASE_MEASURED
 10
3732.5
 20
-3715.0
 30
0.0
 70
0
  0
VERTEX
  5
64F
  8
BASE_MEASURED
 10
3732.5
 20
-3600.0
 30
0.0
 70
0
  0
VERTEX
  5
650
  8
BASE_MEASURED
 10
3725.1
 20
-3600.0
 30
0.0
 70
0
  0
VERTEX
  5
651
  8
BASE_MEASURED
 10
3723.2
 20
-3600.2
 30
0.0
 70
0
  0
VERTEX
  5
652
  8
BASE_MEASURED
 10
3721.4
 20
-3600.7
 30
0.0
 70
0
  0
VERTEX
  5
653
  8
BASE_MEASURED
 10
3719.6
 20
-3601.5
 30
0.0
 70
0
  0
VERTEX
  5
654
  8
BASE_MEASURED
 10
3718.1
 20
-3602.6
 30
0.0
 70
0
  0
VERTEX
  5
655
  8
BASE_MEASURED
 10
3716.7
 20
-3604.0
 30
0.0
 70
0
  0
VERTEX
  5
656
  8
BASE_MEASURED
 10
3706.5
 20
-3616.1
 30
0.0
 70
0
  0
VERTEX
  5
657
  8
BASE_MEASURED
 10
3706.5
 20
-3619.2
 30
0.0
 70
0
  0
VERTEX
  5
658
  8
BASE_MEASURED
 10
3640.0
 20
-3698.5
 30
0.0
 70
0
  0
VERTEX
  5
659
  8
BASE_MEASURED
 10
3573.5
 20
-3619.2
 30
0.0
 70
0
  0
VERTEX
  5
65A
  8
BASE_MEASURED
 10
3573.5
 20
-3616.1
 30
0.0
 70
0
  0
VERTEX
  5
65B
  8
BASE_MEASURED
 10
3563.3
 20
-3604.0
 30
0.0
 70
0
  0
VERTEX
  5
65C
  8
BASE_MEASURED
 10
3561.9
 20
-3602.6
 30
0.0
 70
0
  0
VERTEX
  5
65D
  8
BASE_MEASURED
 10
3560.4
 20
-3601.5
 30
0.0
 70
0
  0
VERTEX
  5
65E
  8
BASE_MEASURED
 10
3558.6
 20
-3600.7
 30
0.0
 70
0
  0
VERTEX
  5
65F
  8
BASE_MEASURED
 10
3556.8
 20
-3600.2
 30
0.0
 70
0
  0
VERTEX
  5
660
  8
BASE_MEASURED
 10
3554.9
 20
-3600.0
 30
0.0
 70
0
  0
VERTEX
  5
661
  8
BASE_MEASURED
 10
3547.5
 20
-3600.0
 30
0.0
 70
0
  0
VERTEX
  5
662
  8
BASE_MEASURED
 10
3547.5
 20
-3715.0
 30
0.0
 70
0
  0
VERTEX
  5
663
  8
BASE_MEASURED
 10
3552.5
 20
-3720.0
 30
0.0
 70
0
  0
VERTEX
  5
664
  8
BASE_MEASURED
 10
3580.0
 20
-3720.0
 30
0.0
 70
0
  0
SEQEND
  5
649
  8
BASE_MEASURED
  0
POLYLINE
  5
665
  8
BASE_MEASURED
 66
1
 10
0.0
 20
0.0
 30
0.0
 70
1
  0
VERTEX
  5
667
  8
BASE_MEASURED
 10
3747.0
 20
-3833.0
 30
0.0
 70
0
  0
VERTEX
  5
668
  8
BASE_MEASURED
 10
3727.0
 20
-3833.0
 30
0.0
 70
0
  0
VERTEX
  5
669
  8
BASE_MEASURED
 10
3553.02
 20
-3833.0
 30
0.0
 70
0
  0
VERTEX
  5
66A
  8
BASE_MEASURED
 10
3533.02
 20
-3833.0
 30
0.0
 70
0
  0
VERTEX
  5
66B
  8
BASE_MEASURED
 10
3533.02
 20
-4728.0
 30
0.0
 70
0
  0
VERTEX
  5
66C
  8
BASE_MEASURED
 10
3747.0
 20
-4728.0
 30
0.0
 70
0
  0
SEQEND
  5
666
  8
BASE_MEASURED
  0
POLYLINE
  5
66D
  8
BASE_MEASURED
 66
1
 10
0.0
 20
0.0
 30
0.0
 70
1
  0
VERTEX
  5
66F
  8
BASE_MEASURED
 10
3610.02
 20
-3795.0
 30
0.0
 70
0
  0
VERTEX
  5
670
  8
BASE_MEASURED
 10
3610.0
 20
-3795.0
 30
0.0
 70
0
  0
VERTEX
  5
671
  8
BASE_MEASURED
 10
3553.02
 20
-3795.0
 30
0.0
 70
0
  0
VERTEX
  5
672
  8
BASE_MEASURED
 10
3553.02
 20
-3833.0
 30
0.0
 70
0
  0
VERTEX
  5
673
  8
BASE_MEASURED
 10
3727.0
 20
-3833.0
 30
0.0
 70
0
  0
VERTEX
  5
674
  8
BASE_MEASURED
 10
3727.0
 20
-3795.0
 30
0.0
 70
0
  0
VERTEX
  5
675
  8
BASE_MEASURED
 10
3670.0
 20
-3795.0
 30
0.0
 70
0
  0
SEQEND
  5
66E
  8
BASE_MEASURED
  0
POLYLINE
  5
676
  8
BASE_MEASURED
 66
1
 10
0.0
 20
0.0
 30
0.0
 70
1
  0
VERTEX
  5
678
  8
BASE_MEASURED
 10
3670.0
 20
-3740.0
 30
0.0
 70
0
  0
VERTEX
  5
679
  8
BASE_MEASURED
 10
3610.02
 20
-3740.0
 30
0.0
 70
0
  0
VERTEX
  5
67A
  8
BASE_MEASURED
 10
3610.0
 20
-3740.0
 30
0.0
 70
0
  0
VERTEX
  5
67B
  8
BASE_MEASURED
 10
3610.0
 20
-3725.0
 30
0.0
 70
0
  0
VERTEX
  5
67C
  8
BASE_MEASURED
 10
3603.01
 20
-3725.0
 30
0.0
 70
0
  0
VERTEX
  5
67D
  8
BASE_MEASURED
 10
3593.01
 20
-3742.0
 30
0.0
 70
0
  0
VERTEX
  5
67E
  8
BASE_MEASURED
 10
3593.01
 20
-3758.0
 30
0.0
 70
0
  0
VERTEX
  5
67F
  8
BASE_MEASURED
 10
3603.01
 20
-3775.0
 30
0.0
 70
0
  0
VERTEX
  5
680
  8
BASE_MEASURED
 10
3610.0
 20
-3775.0
 30
0.0
 70
0
  0
VERTEX
  5
681
  8
BASE_MEASURED
 10
3610.0
 20
-3780.0
 30
0.0
 70
0
  0
VERTEX
  5
682
  8
BASE_MEASURED
 10
3610.0
 20
-3795.0
 30
0.0
 70
0
  0
VERTEX
  5
683
  8
BASE_MEASURED
 10
3610.02
 20
-3795.0
 30
0.0
 70
0
  0
VERTEX
  5
684
  8
BASE_MEASURED
 10
3670.0
 20
-3795.0
 30
0.0
 70
0
  0
VERTEX
  5
685
  8
BASE_MEASURED
 10
3670.0
 20
-3780.0
 30
0.0
 70
0
  0
VERTEX
  5
686
  8
BASE_MEASURED
 10
3670.0
 20
-3775.0
 30
0.0
 70
0
  0
VERTEX
  5
687
  8
BASE_MEASURED
 10
3677.01
 20
-3775.0
 30
0.0
 70
0
  0
VERTEX
  5
688
  8
BASE_MEASURED
 10
3687.01
 20
-3758.0
 30
0.0
 70
0
  0
VERTEX
  5
689
  8
BASE_MEASURED
 10
3687.01
 20
-3742.0
 30
0.0
 70
0
  0
VERTEX
  5
68A
  8
BASE_MEASURED
 10
3677.01
 20
-3725.0
 30
0.0
 70
0
  0
VERTEX
  5
68B
  8
BASE_MEASURED
 10
3670.0
 20
-3725.0
 30
0.0
 70
0
  0
SEQEND
  5
677
  8
BASE_MEASURED
  0
POLYLINE
  5
68C
  8
BASE_MEASURED
 66
1
 10
0.0
 20
0.0
 30
0.0
 70
1
  0
VERTEX
  5
68E
  8
BASE_MEASURED
 10
3670.0
 20
-3780.0
 30
0.0
 70
0
  0
VERTEX
  5
68F
  8
BASE_MEASURED
 10
3670.0
 20
-3795.0
 30
0.0
 70
0
  0
VERTEX
  5
690
  8
BASE_MEASURED
 10
3727.0
 20
-3795.0
 30
0.0
 70
0
  0
VERTEX
  5
691
  8
BASE_MEASURED
 10
3727.0
 20
-3833.0
 30
0.0
 70
0
  0
VERTEX
  5
692
  8
BASE_MEASURED
 10
3747.0
 20
-3833.0
 30
0.0
 70
0
  0
VERTEX
  5
693
  8
BASE_MEASURED
 10
3747.0
 20
-3828.0
 30
0.0
 70
0
  0
VERTEX
  5
694
  8
BASE_MEASURED
 10
3747.0
 20
-3808.0
 30
0.0
 70
0
  0
VERTEX
  5
695
  8
BASE_MEASURED
 10
3747.0
 20
-3780.0
 30
0.0
 70
0
  0
SEQEND
  5
68D
  8
BASE_MEASURED
  0
POLYLINE
  5
696
  8
BASE_MEASURED
 66
1
 10
0.0
 20
0.0
 30
0.0
 70
1
  0
VERTEX
  5
698
  8
BASE_MEASURED
 10
3610.0
 20
-3795.0
 30
0.0
 70
0
  0
VERTEX
  5
699
  8
BASE_MEASURED
 10
3610.0
 20
-3780.0
 30
0.0
 70
0
  0
VERTEX
  5
69A
  8
BASE_MEASURED
 10
3533.02
 20
-3780.0
 30
0.0
 70
0
  0
VERTEX
  5
69B
  8
BASE_MEASURED
 10
3533.02
 20
-3808.0
 30
0.0
 70
0
  0
VERTEX
  5
69C
  8
BASE_MEASURED
 10
3533.02
 20
-3828.0
 30
0.0
 70
0
  0
VERTEX
  5
69D
  8
BASE_MEASURED
 10
3533.02
 20
-3833.0
 30
0.0
 70
0
  0
VERTEX
  5
69E
  8
BASE_MEASURED
 10
3553.02
 20
-3833.0
 30
0.0
 70
0
  0
VERTEX
  5
69F
  8
BASE_MEASURED
 10
3553.02
 20
-3795.0
 30
0.0
 70
0
  0
SEQEND
  5
697
  8
BASE_MEASURED
  0
POLYLINE
  5
6A0
  8
BASE_MEASURED
 66
1
 10
0.0
 20
0.0
 30
0.0
 70
1
  0
VERTEX
  5
6A2
  8
BASE_MEASURED
 10
3516.02
 20
-3808.0
 30
0.0
 70
0
  0
VERTEX
  5
6A3
  8
BASE_MEASURED
 10
3516.02
 20
-3828.0
 30
0.0
 70
0
  0
VERTEX
  5
6A4
  8
BASE_MEASURED
 10
3533.02
 20
-3828.0
 30
0.0
 70
0
  0
VERTEX
  5
6A5
  8
BASE_MEASURED
 10
3533.02
 20
-3808.0
 30
0.0
 70
0
  0
SEQEND
  5
6A1
  8
BASE_MEASURED
  0
POLYLINE
  5
6A6
  8
BASE_MEASURED
 66
1
 10
0.0
 20
0.0
 30
0.0
 70
1
  0
VERTEX
  5
6A8
  8
BASE_MEASURED
 10
3764.0
 20
-3828.0
 30
0.0
 70
0
  0
VERTEX
  5
6A9
  8
BASE_MEASURED
 10
3764.0
 20
-3808.0
 30
0.0
 70
0
  0
VERTEX
  5
6AA
  8
BASE_MEASURED
 10
3747.0
 20
-3808.0
 30
0.0
 70
0
  0
VERTEX
  5
6AB
  8
BASE_MEASURED
 10
3747.0
 20
-3828.0
 30
0.0
 70
0
  0
SEQEND
  5
6A7
  8
BASE_MEASURED
  0
POLYLINE
  5
6AC
  8
DIE
 66
1
 10
0.0
 20
0.0
 30
0.0
 70
1
  0
VERTEX
  5
6AE
  8
DIE
 10
3580.0
 20
-3740.0
 30
0.0
 70
0
  0
VERTEX
  5
6AF
  8
DIE
 10
3700.0
 20
-3740.0
 30
0.0
 70
0
  0
VERTEX
  5
6B0
  8
DIE
 10
3700.0
 20
-3720.0
 30
0.0
 70
0
  0
VERTEX
  5
6B1
  8
DIE
 10
3727.5
 20
-3720.0
 30
0.0
 70
0
  0
VERTEX
  5
6B2
  8
DIE
 10
3732.5
 20
-3715.0
 30
0.0
 70
0
  0
VERTEX
  5
6B3
  8
DIE
 10
3732.5
 20
-3600.0
 30
0.0
 70
0
  0
VERTEX
  5
6B4
  8
DIE
 10
3725.1
 20
-3600.0
 30
0.0
 70
0
  0
VERTEX
  5
6B5
  8
DIE
 10
3723.2
 20
-3600.2
 30
0.0
 70
0
  0
VERTEX
  5
6B6
  8
DIE
 10
3721.4
 20
-3600.7
 30
0.0
 70
0
  0
VERTEX
  5
6B7
  8
DIE
 10
3719.6
 20
-3601.5
 30
0.0
 70
0
  0
VERTEX
  5
6B8
  8
DIE
 10
3718.1
 20
-3602.6
 30
0.0
 70
0
  0
VERTEX
  5
6B9
  8
DIE
 10
3716.7
 20
-3604.0
 30
0.0
 70
0
  0
VERTEX
  5
6BA
  8
DIE
 10
3706.5
 20
-3616.1
 30
0.0
 70
0
  0
VERTEX
  5
6BB
  8
DIE
 10
3706.5
 20
-3619.2
 30
0.0
 70
0
  0
VERTEX
  5
6BC
  8
DIE
 10
3640.0
 20
-3698.5
 30
0.0
 70
0
  0
VERTEX
  5
6BD
  8
DIE
 10
3573.5
 20
-3619.2
 30
0.0
 70
0
  0
VERTEX
  5
6BE
  8
DIE
 10
3573.5
 20
-3616.1
 30
0.0
 70
0
  0
VERTEX
  5
6BF
  8
DIE
 10
3563.3
 20
-3604.0
 30
0.0
 70
0
  0
VERTEX
  5
6C0
  8
DIE
 10
3561.9
 20
-3602.6
 30
0.0
 70
0
  0
VERTEX
  5
6C1
  8
DIE
 10
3560.4
 20
-3601.5
 30
0.0
 70
0
  0
VERTEX
  5
6C2
  8
DIE
 10
3558.6
 20
-3600.7
 30
0.0
 70
0
  0
VERTEX
  5
6C3
  8
DIE
 10
3556.8
 20
-3600.2
 30
0.0
 70
0
  0
VERTEX
  5
6C4
  8
DIE
 10
3554.9
 20
-3600.0
 30
0.0
 70
0
  0
VERTEX
  5
6C5
  8
DIE
 10
3547.5
 20
-3600.0
 30
0.0
 70
0
  0
VERTEX
  5
6C6
  8
DIE
 10
3547.5
 20
-3715.0
 30
0.0
 70
0
  0
VERTEX
  5
6C7
  8
DIE
 10
3552.5
 20
-3720.0
 30
0.0
 70
0
  0
VERTEX
  5
6C8
  8
DIE
 10
3580.0
 20
-3720.0
 30
0.0
 70
0
  0
SEQEND
  5
6AD
  8
DIE
  0
LINE
  5
6C9
  8
CENTER
 10
3640.0
 20
-3540.0
 30
0.0
 11
3640.0
 21
-3850.0
 31
0.0
  0
TEXT
  5
6CA
  8
TEXT
 10
3390.0
 20
-3450.0
 30
0.0
 40
13.0
  1
01400 V160
 11
3390.0
 21
-3450.0
 31
0.0
  0
TEXT
  5
6CB
  8
TEXT
 10
3390.0
 20
-3470.0
 30
0.0
 40
11.0
  1
婡夿 HD3504NT丂搚戜 幚應
 11
3390.0
 21
-3470.0
 31
0.0
  0
TEXT
  5
6CC
  8
TEXT
 10
3390.0
 20
-3490.0
 30
0.0
 40
11.0
  1
V暆 160.14丂怺偝 98.5
 11
3390.0
 21
-3490.0
 31
0.0
  0
TEXT
  5
6CD
  8
TEXT
 10
3390.0
 20
-3510.0
 30
0.0
 40
11.0
  1
lib:01400:0
 11
3390.0
 21
-3510.0
 31
0.0
  0
POLYLINE
  5
6CE
  8
FRAME
 66
1
 10
0.0
 20
0.0
 30
0.0
 70
1
  0
VERTEX
  5
6D0
  8
FRAME
 10
-260.0
 20
-4830.0
 30
0.0
 70
0
  0
VERTEX
  5
6D1
  8
FRAME
 10
260.0
 20
-4830.0
 30
0.0
 70
0
  0
VERTEX
  5
6D2
  8
FRAME
 10
260.0
 20
-6230.0
 30
0.0
 70
0
  0
VERTEX
  5
6D3
  8
FRAME
 10
-260.0
 20
-6230.0
 30
0.0
 70
0
  0
SEQEND
  5
6CF
  8
FRAME
  0
POLYLINE
  5
6D4
  8
BASE_MEASURED
 66
1
 10
0.0
 20
0.0
 30
0.0
 70
1
  0
VERTEX
  5
6D6
  8
BASE_MEASURED
 10
-42.5
 20
-5046.0
 30
0.0
 70
0
  0
VERTEX
  5
6D7
  8
BASE_MEASURED
 10
-25.0
 20
-5046.0
 30
0.0
 70
0
  0
VERTEX
  5
6D8
  8
BASE_MEASURED
 10
-25.0
 20
-5040.0
 30
0.0
 70
0
  0
VERTEX
  5
6D9
  8
BASE_MEASURED
 10
-10.0
 20
-5040.0
 30
0.0
 70
0
  0
VERTEX
  5
6DA
  8
BASE_MEASURED
 10
-10.0
 20
-5046.0
 30
0.0
 70
0
  0
VERTEX
  5
6DB
  8
BASE_MEASURED
 10
7.5
 20
-5046.0
 30
0.0
 70
0
  0
VERTEX
  5
6DC
  8
BASE_MEASURED
 10
7.5
 20
-5000.0
 30
0.0
 70
0
  0
VERTEX
  5
6DD
  8
BASE_MEASURED
 10
6.0
 20
-5000.0
 30
0.0
 70
0
  0
VERTEX
  5
6DE
  8
BASE_MEASURED
 10
0.0
 20
-5006.21
 30
0.0
 70
0
  0
VERTEX
  5
6DF
  8
BASE_MEASURED
 10
-6.0
 20
-5000.0
 30
0.0
 70
0
  0
VERTEX
  5
6E0
  8
BASE_MEASURED
 10
-20.5
 20
-5000.0
 30
0.0
 70
0
  0
VERTEX
  5
6E1
  8
BASE_MEASURED
 10
-30.5
 20
-5010.35
 30
0.0
 70
0
  0
VERTEX
  5
6E2
  8
BASE_MEASURED
 10
-40.5
 20
-5000.0
 30
0.0
 70
0
  0
VERTEX
  5
6E3
  8
BASE_MEASURED
 10
-42.5
 20
-5000.0
 30
0.0
 70
0
  0
SEQEND
  5
6D5
  8
BASE_MEASURED
  0
POLYLINE
  5
6E4
  8
BASE_MEASURED
 66
1
 10
0.0
 20
0.0
 30
0.0
 70
1
  0
VERTEX
  5
6E6
  8
BASE_MEASURED
 10
-42.5
 20
-5057.0
 30
0.0
 70
0
  0
VERTEX
  5
6E7
  8
BASE_MEASURED
 10
7.5
 20
-5057.0
 30
0.0
 70
0
  0
VERTEX
  5
6E8
  8
BASE_MEASURED
 10
7.5
 20
-5047.0
 30
0.0
 70
0
  0
VERTEX
  5
6E9
  8
BASE_MEASURED
 10
-10.0
 20
-5047.0
 30
0.0
 70
0
  0
VERTEX
  5
6EA
  8
BASE_MEASURED
 10
-10.0
 20
-5041.0
 30
0.0
 70
0
  0
VERTEX
  5
6EB
  8
BASE_MEASURED
 10
-25.0
 20
-5041.0
 30
0.0
 70
0
  0
VERTEX
  5
6EC
  8
BASE_MEASURED
 10
-25.0
 20
-5047.0
 30
0.0
 70
0
  0
VERTEX
  5
6ED
  8
BASE_MEASURED
 10
-42.5
 20
-5047.0
 30
0.0
 70
0
  0
SEQEND
  5
6E5
  8
BASE_MEASURED
  0
POLYLINE
  5
6EE
  8
BASE_MEASURED
 66
1
 10
0.0
 20
0.0
 30
0.0
 70
1
  0
VERTEX
  5
6F0
  8
BASE_MEASURED
 10
4.5
 20
-5132.0
 30
0.0
 70
0
  0
VERTEX
  5
6F1
  8
BASE_MEASURED
 10
-55.5
 20
-5132.0
 30
0.0
 70
0
  0
VERTEX
  5
6F2
  8
BASE_MEASURED
 10
-55.5
 20
-5112.5
 30
0.0
 70
0
  0
VERTEX
  5
6F3
  8
BASE_MEASURED
 10
-38.5
 20
-5112.5
 30
0.0
 70
0
  0
VERTEX
  5
6F4
  8
BASE_MEASURED
 10
-38.5
 20
-5057.0
 30
0.0
 70
0
  0
VERTEX
  5
6F5
  8
BASE_MEASURED
 10
3.5
 20
-5057.0
 30
0.0
 70
0
  0
VERTEX
  5
6F6
  8
BASE_MEASURED
 10
3.5
 20
-5112.5
 30
0.0
 70
0
  0
VERTEX
  5
6F7
  8
BASE_MEASURED
 10
4.5
 20
-5112.5
 30
0.0
 70
0
  0
SEQEND
  5
6EF
  8
BASE_MEASURED
  0
POLYLINE
  5
6F8
  8
BASE_MEASURED
 66
1
 10
0.0
 20
0.0
 30
0.0
 70
1
  0
VERTEX
  5
6FA
  8
BASE_MEASURED
 10
4.5
 20
-5187.0
 30
0.0
 70
0
  0
VERTEX
  5
6FB
  8
BASE_MEASURED
 10
-55.5
 20
-5187.0
 30
0.0
 70
0
  0
VERTEX
  5
6FC
  8
BASE_MEASURED
 10
-55.5
 20
-5167.0
 30
0.0
 70
0
  0
VERTEX
  5
6FD
  8
BASE_MEASURED
 10
-62.5
 20
-5167.0
 30
0.0
 70
0
  0
VERTEX
  5
6FE
  8
BASE_MEASURED
 10
-72.5
 20
-5150.0
 30
0.0
 70
0
  0
VERTEX
  5
6FF
  8
BASE_MEASURED
 10
-72.5
 20
-5134.0
 30
0.0
 70
0
  0
VERTEX
  5
700
  8
BASE_MEASURED
 10
-62.5
 20
-5117.0
 30
0.0
 70
0
  0
VERTEX
  5
701
  8
BASE_MEASURED
 10
-55.5
 20
-5117.0
 30
0.0
 70
0
  0
VERTEX
  5
702
  8
BASE_MEASURED
 10
-55.5
 20
-5132.0
 30
0.0
 70
0
  0
VERTEX
  5
703
  8
BASE_MEASURED
 10
4.5
 20
-5132.0
 30
0.0
 70
0
  0
VERTEX
  5
704
  8
BASE_MEASURED
 10
4.5
 20
-5117.0
 30
0.0
 70
0
  0
VERTEX
  5
705
  8
BASE_MEASURED
 10
11.5
 20
-5117.0
 30
0.0
 70
0
  0
VERTEX
  5
706
  8
BASE_MEASURED
 10
21.5
 20
-5134.0
 30
0.0
 70
0
  0
VERTEX
  5
707
  8
BASE_MEASURED
 10
21.5
 20
-5150.0
 30
0.0
 70
0
  0
VERTEX
  5
708
  8
BASE_MEASURED
 10
11.5
 20
-5167.0
 30
0.0
 70
0
  0
VERTEX
  5
709
  8
BASE_MEASURED
 10
4.5
 20
-5167.0
 30
0.0
 70
0
  0
SEQEND
  5
6F9
  8
BASE_MEASURED
  0
POLYLINE
  5
70A
  8
BASE_MEASURED
 66
1
 10
0.0
 20
0.0
 30
0.0
 70
1
  0
VERTEX
  5
70C
  8
BASE_MEASURED
 10
-132.5
 20
-5172.0
 30
0.0
 70
0
  0
VERTEX
  5
70D
  8
BASE_MEASURED
 10
-55.5
 20
-5172.0
 30
0.0
 70
0
  0
VERTEX
  5
70E
  8
BASE_MEASURED
 10
-55.5
 20
-5187.0
 30
0.0
 70
0
  0
VERTEX
  5
70F
  8
BASE_MEASURED
 10
4.5
 20
-5187.0
 30
0.0
 70
0
  0
VERTEX
  5
710
  8
BASE_MEASURED
 10
4.5
 20
-5172.0
 30
0.0
 70
0
  0
VERTEX
  5
711
  8
BASE_MEASURED
 10
81.49
 20
-5172.0
 30
0.0
 70
0
  0
VERTEX
  5
712
  8
BASE_MEASURED
 10
81.49
 20
-5225.0
 30
0.0
 70
0
  0
VERTEX
  5
713
  8
BASE_MEASURED
 10
-132.5
 20
-5225.0
 30
0.0
 70
0
  0
SEQEND
  5
70B
  8
BASE_MEASURED
  0
POLYLINE
  5
714
  8
BASE_MEASURED
 66
1
 10
0.0
 20
0.0
 30
0.0
 70
1
  0
VERTEX
  5
716
  8
BASE_MEASURED
 10
-132.5
 20
-5225.0
 30
0.0
 70
0
  0
VERTEX
  5
717
  8
BASE_MEASURED
 10
81.49
 20
-5225.0
 30
0.0
 70
0
  0
VERTEX
  5
718
  8
BASE_MEASURED
 10
81.49
 20
-6120.0
 30
0.0
 70
0
  0
VERTEX
  5
719
  8
BASE_MEASURED
 10
-132.5
 20
-6120.0
 30
0.0
 70
0
  0
SEQEND
  5
715
  8
BASE_MEASURED
  0
POLYLINE
  5
71A
  8
BASE_MEASURED
 66
1
 10
0.0
 20
0.0
 30
0.0
 70
1
  0
VERTEX
  5
71C
  8
BASE_MEASURED
 10
-149.5
 20
-5220.0
 30
0.0
 70
0
  0
VERTEX
  5
71D
  8
BASE_MEASURED
 10
-132.5
 20
-5220.0
 30
0.0
 70
0
  0
VERTEX
  5
71E
  8
BASE_MEASURED
 10
-132.5
 20
-5200.0
 30
0.0
 70
0
  0
VERTEX
  5
71F
  8
BASE_MEASURED
 10
-149.5
 20
-5200.0
 30
0.0
 70
0
  0
SEQEND
  5
71B
  8
BASE_MEASURED
  0
POLYLINE
  5
720
  8
BASE_MEASURED
 66
1
 10
0.0
 20
0.0
 30
0.0
 70
1
  0
VERTEX
  5
722
  8
BASE_MEASURED
 10
81.49
 20
-5220.0
 30
0.0
 70
0
  0
VERTEX
  5
723
  8
BASE_MEASURED
 10
98.49
 20
-5220.0
 30
0.0
 70
0
  0
VERTEX
  5
724
  8
BASE_MEASURED
 10
98.49
 20
-5200.0
 30
0.0
 70
0
  0
VERTEX
  5
725
  8
BASE_MEASURED
 10
81.49
 20
-5200.0
 30
0.0
 70
0
  0
SEQEND
  5
721
  8
BASE_MEASURED
  0
POLYLINE
  5
726
  8
DIE
 66
1
 10
0.0
 20
0.0
 30
0.0
 70
1
  0
VERTEX
  5
728
  8
DIE
 10
-42.5
 20
-5046.0
 30
0.0
 70
0
  0
VERTEX
  5
729
  8
DIE
 10
-25.0
 20
-5046.0
 30
0.0
 70
0
  0
VERTEX
  5
72A
  8
DIE
 10
-25.0
 20
-5040.0
 30
0.0
 70
0
  0
VERTEX
  5
72B
  8
DIE
 10
-10.0
 20
-5040.0
 30
0.0
 70
0
  0
VERTEX
  5
72C
  8
DIE
 10
-10.0
 20
-5046.0
 30
0.0
 70
0
  0
VERTEX
  5
72D
  8
DIE
 10
7.5
 20
-5046.0
 30
0.0
 70
0
  0
VERTEX
  5
72E
  8
DIE
 10
7.5
 20
-5000.0
 30
0.0
 70
0
  0
VERTEX
  5
72F
  8
DIE
 10
6.0
 20
-5000.0
 30
0.0
 70
0
  0
VERTEX
  5
730
  8
DIE
 10
0.0
 20
-5006.21
 30
0.0
 70
0
  0
VERTEX
  5
731
  8
DIE
 10
-6.0
 20
-5000.0
 30
0.0
 70
0
  0
VERTEX
  5
732
  8
DIE
 10
-20.5
 20
-5000.0
 30
0.0
 70
0
  0
VERTEX
  5
733
  8
DIE
 10
-30.5
 20
-5010.35
 30
0.0
 70
0
  0
VERTEX
  5
734
  8
DIE
 10
-40.5
 20
-5000.0
 30
0.0
 70
0
  0
VERTEX
  5
735
  8
DIE
 10
-42.5
 20
-5000.0
 30
0.0
 70
0
  0
SEQEND
  5
727
  8
DIE
  0
LINE
  5
736
  8
CENTER
 10
0.0
 20
-4940.0
 30
0.0
 11
0.0
 21
-5250.0
 31
0.0
  0
TEXT
  5
737
  8
TEXT
 10
-250.0
 20
-4850.0
 30
0.0
 40
13.0
  1
30540 2峚 V12/V20乮V12峚乯
 11
-250.0
 21
-4850.0
 31
0.0
  0
TEXT
  5
738
  8
TEXT
 10
-250.0
 20
-4870.0
 30
0.0
 40
11.0
  1
婡夿 HD3504NT丂搚戜 幚應
 11
-250.0
 21
-4870.0
 31
0.0
  0
TEXT
  5
739
  8
TEXT
 10
-250.0
 20
-4890.0
 30
0.0
 40
11.0
  1
V暆 12丂怺偝 6.21
 11
-250.0
 21
-4890.0
 31
0.0
  0
TEXT
  5
73A
  8
TEXT
 10
-250.0
 20
-4910.0
 30
0.0
 40
11.0
  1
lib:30540:0
 11
-250.0
 21
-4910.0
 31
0.0
  0
POLYLINE
  5
73B
  8
FRAME
 66
1
 10
0.0
 20
0.0
 30
0.0
 70
1
  0
VERTEX
  5
73D
  8
FRAME
 10
260.0
 20
-4830.0
 30
0.0
 70
0
  0
VERTEX
  5
73E
  8
FRAME
 10
780.0
 20
-4830.0
 30
0.0
 70
0
  0
VERTEX
  5
73F
  8
FRAME
 10
780.0
 20
-6230.0
 30
0.0
 70
0
  0
VERTEX
  5
740
  8
FRAME
 10
260.0
 20
-6230.0
 30
0.0
 70
0
  0
SEQEND
  5
73C
  8
FRAME
  0
POLYLINE
  5
741
  8
BASE_MEASURED
 66
1
 10
0.0
 20
0.0
 30
0.0
 70
1
  0
VERTEX
  5
743
  8
BASE_MEASURED
 10
562.5
 20
-5046.0
 30
0.0
 70
0
  0
VERTEX
  5
744
  8
BASE_MEASURED
 10
545.0
 20
-5046.0
 30
0.0
 70
0
  0
VERTEX
  5
745
  8
BASE_MEASURED
 10
545.0
 20
-5040.0
 30
0.0
 70
0
  0
VERTEX
  5
746
  8
BASE_MEASURED
 10
530.0
 20
-5040.0
 30
0.0
 70
0
  0
VERTEX
  5
747
  8
BASE_MEASURED
 10
530.0
 20
-5046.0
 30
0.0
 70
0
  0
VERTEX
  5
748
  8
BASE_MEASURED
 10
512.5
 20
-5046.0
 30
0.0
 70
0
  0
VERTEX
  5
749
  8
BASE_MEASURED
 10
512.5
 20
-5000.0
 30
0.0
 70
0
  0
VERTEX
  5
74A
  8
BASE_MEASURED
 10
514.0
 20
-5000.0
 30
0.0
 70
0
  0
VERTEX
  5
74B
  8
BASE_MEASURED
 10
520.0
 20
-5006.21
 30
0.0
 70
0
  0
VERTEX
  5
74C
  8
BASE_MEASURED
 10
526.0
 20
-5000.0
 30
0.0
 70
0
  0
VERTEX
  5
74D
  8
BASE_MEASURED
 10
540.5
 20
-5000.0
 30
0.0
 70
0
  0
VERTEX
  5
74E
  8
BASE_MEASURED
 10
550.5
 20
-5010.35
 30
0.0
 70
0
  0
VERTEX
  5
74F
  8
BASE_MEASURED
 10
560.5
 20
-5000.0
 30
0.0
 70
0
  0
VERTEX
  5
750
  8
BASE_MEASURED
 10
562.5
 20
-5000.0
 30
0.0
 70
0
  0
SEQEND
  5
742
  8
BASE_MEASURED
  0
POLYLINE
  5
751
  8
BASE_MEASURED
 66
1
 10
0.0
 20
0.0
 30
0.0
 70
1
  0
VERTEX
  5
753
  8
BASE_MEASURED
 10
512.5
 20
-5056.0
 30
0.0
 70
0
  0
VERTEX
  5
754
  8
BASE_MEASURED
 10
562.5
 20
-5056.0
 30
0.0
 70
0
  0
VERTEX
  5
755
  8
BASE_MEASURED
 10
562.5
 20
-5046.0
 30
0.0
 70
0
  0
VERTEX
  5
756
  8
BASE_MEASURED
 10
545.0
 20
-5046.0
 30
0.0
 70
0
  0
VERTEX
  5
757
  8
BASE_MEASURED
 10
545.0
 20
-5040.0
 30
0.0
 70
0
  0
VERTEX
  5
758
  8
BASE_MEASURED
 10
530.0
 20
-5040.0
 30
0.0
 70
0
  0
VERTEX
  5
759
  8
BASE_MEASURED
 10
530.0
 20
-5046.0
 30
0.0
 70
0
  0
VERTEX
  5
75A
  8
BASE_MEASURED
 10
512.5
 20
-5046.0
 30
0.0
 70
0
  0
SEQEND
  5
752
  8
BASE_MEASURED
  0
POLYLINE
  5
75B
  8
BASE_MEASURED
 66
1
 10
0.0
 20
0.0
 30
0.0
 70
1
  0
VERTEX
  5
75D
  8
BASE_MEASURED
 10
559.5
 20
-5131.0
 30
0.0
 70
0
  0
VERTEX
  5
75E
  8
BASE_MEASURED
 10
499.5
 20
-5131.0
 30
0.0
 70
0
  0
VERTEX
  5
75F
  8
BASE_MEASURED
 10
499.5
 20
-5111.5
 30
0.0
 70
0
  0
VERTEX
  5
760
  8
BASE_MEASURED
 10
516.5
 20
-5111.5
 30
0.0
 70
0
  0
VERTEX
  5
761
  8
BASE_MEASURED
 10
516.5
 20
-5056.0
 30
0.0
 70
0
  0
VERTEX
  5
762
  8
BASE_MEASURED
 10
558.5
 20
-5056.0
 30
0.0
 70
0
  0
VERTEX
  5
763
  8
BASE_MEASURED
 10
558.5
 20
-5111.5
 30
0.0
 70
0
  0
VERTEX
  5
764
  8
BASE_MEASURED
 10
559.5
 20
-5111.5
 30
0.0
 70
0
  0
SEQEND
  5
75C
  8
BASE_MEASURED
  0
POLYLINE
  5
765
  8
BASE_MEASURED
 66
1
 10
0.0
 20
0.0
 30
0.0
 70
1
  0
VERTEX
  5
767
  8
BASE_MEASURED
 10
559.5
 20
-5186.0
 30
0.0
 70
0
  0
VERTEX
  5
768
  8
BASE_MEASURED
 10
499.5
 20
-5186.0
 30
0.0
 70
0
  0
VERTEX
  5
769
  8
BASE_MEASURED
 10
499.5
 20
-5166.0
 30
0.0
 70
0
  0
VERTEX
  5
76A
  8
BASE_MEASURED
 10
492.5
 20
-5166.0
 30
0.0
 70
0
  0
VERTEX
  5
76B
  8
BASE_MEASURED
 10
482.5
 20
-5149.0
 30
0.0
 70
0
  0
VERTEX
  5
76C
  8
BASE_MEASURED
 10
482.5
 20
-5133.0
 30
0.0
 70
0
  0
VERTEX
  5
76D
  8
BASE_MEASURED
 10
492.5
 20
-5116.0
 30
0.0
 70
0
  0
VERTEX
  5
76E
  8
BASE_MEASURED
 10
499.5
 20
-5116.0
 30
0.0
 70
0
  0
VERTEX
  5
76F
  8
BASE_MEASURED
 10
499.5
 20
-5131.0
 30
0.0
 70
0
  0
VERTEX
  5
770
  8
BASE_MEASURED
 10
559.5
 20
-5131.0
 30
0.0
 70
0
  0
VERTEX
  5
771
  8
BASE_MEASURED
 10
559.5
 20
-5116.0
 30
0.0
 70
0
  0
VERTEX
  5
772
  8
BASE_MEASURED
 10
566.5
 20
-5116.0
 30
0.0
 70
0
  0
VERTEX
  5
773
  8
BASE_MEASURED
 10
576.5
 20
-5133.0
 30
0.0
 70
0
  0
VERTEX
  5
774
  8
BASE_MEASURED
 10
576.5
 20
-5149.0
 30
0.0
 70
0
  0
VERTEX
  5
775
  8
BASE_MEASURED
 10
566.5
 20
-5166.0
 30
0.0
 70
0
  0
VERTEX
  5
776
  8
BASE_MEASURED
 10
559.5
 20
-5166.0
 30
0.0
 70
0
  0
SEQEND
  5
766
  8
BASE_MEASURED
  0
POLYLINE
  5
777
  8
BASE_MEASURED
 66
1
 10
0.0
 20
0.0
 30
0.0
 70
1
  0
VERTEX
  5
779
  8
BASE_MEASURED
 10
422.5
 20
-5171.0
 30
0.0
 70
0
  0
VERTEX
  5
77A
  8
BASE_MEASURED
 10
499.5
 20
-5171.0
 30
0.0
 70
0
  0
VERTEX
  5
77B
  8
BASE_MEASURED
 10
499.5
 20
-5186.0
 30
0.0
 70
0
  0
VERTEX
  5
77C
  8
BASE_MEASURED
 10
559.5
 20
-5186.0
 30
0.0
 70
0
  0
VERTEX
  5
77D
  8
BASE_MEASURED
 10
559.5
 20
-5171.0
 30
0.0
 70
0
  0
VERTEX
  5
77E
  8
BASE_MEASURED
 10
636.49
 20
-5171.0
 30
0.0
 70
0
  0
VERTEX
  5
77F
  8
BASE_MEASURED
 10
636.49
 20
-5224.0
 30
0.0
 70
0
  0
VERTEX
  5
780
  8
BASE_MEASURED
 10
422.5
 20
-5224.0
 30
0.0
 70
0
  0
SEQEND
  5
778
  8
BASE_MEASURED
  0
POLYLINE
  5
781
  8
BASE_MEASURED
 66
1
 10
0.0
 20
0.0
 30
0.0
 70
1
  0
VERTEX
  5
783
  8
BASE_MEASURED
 10
422.5
 20
-5224.0
 30
0.0
 70
0
  0
VERTEX
  5
784
  8
BASE_MEASURED
 10
636.49
 20
-5224.0
 30
0.0
 70
0
  0
VERTEX
  5
785
  8
BASE_MEASURED
 10
636.49
 20
-6119.0
 30
0.0
 70
0
  0
VERTEX
  5
786
  8
BASE_MEASURED
 10
422.5
 20
-6119.0
 30
0.0
 70
0
  0
SEQEND
  5
782
  8
BASE_MEASURED
  0
POLYLINE
  5
787
  8
BASE_MEASURED
 66
1
 10
0.0
 20
0.0
 30
0.0
 70
1
  0
VERTEX
  5
789
  8
BASE_MEASURED
 10
405.5
 20
-5219.0
 30
0.0
 70
0
  0
VERTEX
  5
78A
  8
BASE_MEASURED
 10
422.5
 20
-5219.0
 30
0.0
 70
0
  0
VERTEX
  5
78B
  8
BASE_MEASURED
 10
422.5
 20
-5199.0
 30
0.0
 70
0
  0
VERTEX
  5
78C
  8
BASE_MEASURED
 10
405.5
 20
-5199.0
 30
0.0
 70
0
  0
SEQEND
  5
788
  8
BASE_MEASURED
  0
POLYLINE
  5
78D
  8
BASE_MEASURED
 66
1
 10
0.0
 20
0.0
 30
0.0
 70
1
  0
VERTEX
  5
78F
  8
BASE_MEASURED
 10
636.49
 20
-5219.0
 30
0.0
 70
0
  0
VERTEX
  5
790
  8
BASE_MEASURED
 10
653.49
 20
-5219.0
 30
0.0
 70
0
  0
VERTEX
  5
791
  8
BASE_MEASURED
 10
653.49
 20
-5199.0
 30
0.0
 70
0
  0
VERTEX
  5
792
  8
BASE_MEASURED
 10
636.49
 20
-5199.0
 30
0.0
 70
0
  0
SEQEND
  5
78E
  8
BASE_MEASURED
  0
POLYLINE
  5
793
  8
DIE
 66
1
 10
0.0
 20
0.0
 30
0.0
 70
1
  0
VERTEX
  5
795
  8
DIE
 10
562.5
 20
-5046.0
 30
0.0
 70
0
  0
VERTEX
  5
796
  8
DIE
 10
545.0
 20
-5046.0
 30
0.0
 70
0
  0
VERTEX
  5
797
  8
DIE
 10
545.0
 20
-5040.0
 30
0.0
 70
0
  0
VERTEX
  5
798
  8
DIE
 10
530.0
 20
-5040.0
 30
0.0
 70
0
  0
VERTEX
  5
799
  8
DIE
 10
530.0
 20
-5046.0
 30
0.0
 70
0
  0
VERTEX
  5
79A
  8
DIE
 10
512.5
 20
-5046.0
 30
0.0
 70
0
  0
VERTEX
  5
79B
  8
DIE
 10
512.5
 20
-5000.0
 30
0.0
 70
0
  0
VERTEX
  5
79C
  8
DIE
 10
514.0
 20
-5000.0
 30
0.0
 70
0
  0
VERTEX
  5
79D
  8
DIE
 10
520.0
 20
-5006.21
 30
0.0
 70
0
  0
VERTEX
  5
79E
  8
DIE
 10
526.0
 20
-5000.0
 30
0.0
 70
0
  0
VERTEX
  5
79F
  8
DIE
 10
540.5
 20
-5000.0
 30
0.0
 70
0
  0
VERTEX
  5
7A0
  8
DIE
 10
550.5
 20
-5010.35
 30
0.0
 70
0
  0
VERTEX
  5
7A1
  8
DIE
 10
560.5
 20
-5000.0
 30
0.0
 70
0
  0
VERTEX
  5
7A2
  8
DIE
 10
562.5
 20
-5000.0
 30
0.0
 70
0
  0
SEQEND
  5
794
  8
DIE
  0
LINE
  5
7A3
  8
CENTER
 10
520.0
 20
-4940.0
 30
0.0
 11
520.0
 21
-5250.0
 31
0.0
  0
TEXT
  5
7A4
  8
TEXT
 10
270.0
 20
-4850.0
 30
0.0
 40
13.0
  1
30540 2峚 V12/V20乮V12峚乯丒嵍塃斀揮
 11
270.0
 21
-4850.0
 31
0.0
  0
TEXT
  5
7A5
  8
TEXT
 10
270.0
 20
-4870.0
 30
0.0
 40
11.0
  1
婡夿 HD3504NT丂搚戜 幚應
 11
270.0
 21
-4870.0
 31
0.0
  0
TEXT
  5
7A6
  8
TEXT
 10
270.0
 20
-4890.0
 30
0.0
 40
11.0
  1
V暆 12丂怺偝 6.21
 11
270.0
 21
-4890.0
 31
0.0
  0
TEXT
  5
7A7
  8
TEXT
 10
270.0
 20
-4910.0
 30
0.0
 40
11.0
  1
lib:30540:0
 11
270.0
 21
-4910.0
 31
0.0
  0
POLYLINE
  5
7A8
  8
FRAME
 66
1
 10
0.0
 20
0.0
 30
0.0
 70
1
  0
VERTEX
  5
7AA
  8
FRAME
 10
780.0
 20
-4830.0
 30
0.0
 70
0
  0
VERTEX
  5
7AB
  8
FRAME
 10
1300.0
 20
-4830.0
 30
0.0
 70
0
  0
VERTEX
  5
7AC
  8
FRAME
 10
1300.0
 20
-6230.0
 30
0.0
 70
0
  0
VERTEX
  5
7AD
  8
FRAME
 10
780.0
 20
-6230.0
 30
0.0
 70
0
  0
SEQEND
  5
7A9
  8
FRAME
  0
POLYLINE
  5
7AE
  8
BASE_MEASURED
 66
1
 10
0.0
 20
0.0
 30
0.0
 70
1
  0
VERTEX
  5
7B0
  8
BASE_MEASURED
 10
1028.0
 20
-5046.0
 30
0.0
 70
0
  0
VERTEX
  5
7B1
  8
BASE_MEASURED
 10
1045.5
 20
-5046.0
 30
0.0
 70
0
  0
VERTEX
  5
7B2
  8
BASE_MEASURED
 10
1045.5
 20
-5040.0
 30
0.0
 70
0
  0
VERTEX
  5
7B3
  8
BASE_MEASURED
 10
1060.5
 20
-5040.0
 30
0.0
 70
0
  0
VERTEX
  5
7B4
  8
BASE_MEASURED
 10
1060.5
 20
-5046.0
 30
0.0
 70
0
  0
VERTEX
  5
7B5
  8
BASE_MEASURED
 10
1078.0
 20
-5046.0
 30
0.0
 70
0
  0
VERTEX
  5
7B6
  8
BASE_MEASURED
 10
1078.0
 20
-5000.0
 30
0.0
 70
0
  0
VERTEX
  5
7B7
  8
BASE_MEASURED
 10
1076.5
 20
-5000.0
 30
0.0
 70
0
  0
VERTEX
  5
7B8
  8
BASE_MEASURED
 10
1070.5
 20
-5006.21
 30
0.0
 70
0
  0
VERTEX
  5
7B9
  8
BASE_MEASURED
 10
1064.5
 20
-5000.0
 30
0.0
 70
0
  0
VERTEX
  5
7BA
  8
BASE_MEASURED
 10
1050.0
 20
-5000.0
 30
0.0
 70
0
  0
VERTEX
  5
7BB
  8
BASE_MEASURED
 10
1040.0
 20
-5010.35
 30
0.0
 70
0
  0
VERTEX
  5
7BC
  8
BASE_MEASURED
 10
1030.0
 20
-5000.0
 30
0.0
 70
0
  0
VERTEX
  5
7BD
  8
BASE_MEASURED
 10
1028.0
 20
-5000.0
 30
0.0
 70
0
  0
SEQEND
  5
7AF
  8
BASE_MEASURED
  0
POLYLINE
  5
7BE
  8
BASE_MEASURED
 66
1
 10
0.0
 20
0.0
 30
0.0
 70
1
  0
VERTEX
  5
7C0
  8
BASE_MEASURED
 10
1028.0
 20
-5057.0
 30
0.0
 70
0
  0
VERTEX
  5
7C1
  8
BASE_MEASURED
 10
1078.0
 20
-5057.0
 30
0.0
 70
0
  0
VERTEX
  5
7C2
  8
BASE_MEASURED
 10
1078.0
 20
-5047.0
 30
0.0
 70
0
  0
VERTEX
  5
7C3
  8
BASE_MEASURED
 10
1060.5
 20
-5047.0
 30
0.0
 70
0
  0
VERTEX
  5
7C4
  8
BASE_MEASURED
 10
1060.5
 20
-5041.0
 30
0.0
 70
0
  0
VERTEX
  5
7C5
  8
BASE_MEASURED
 10
1045.5
 20
-5041.0
 30
0.0
 70
0
  0
VERTEX
  5
7C6
  8
BASE_MEASURED
 10
1045.5
 20
-5047.0
 30
0.0
 70
0
  0
VERTEX
  5
7C7
  8
BASE_MEASURED
 10
1028.0
 20
-5047.0
 30
0.0
 70
0
  0
SEQEND
  5
7BF
  8
BASE_MEASURED
  0
POLYLINE
  5
7C8
  8
BASE_MEASURED
 66
1
 10
0.0
 20
0.0
 30
0.0
 70
1
  0
VERTEX
  5
7CA
  8
BASE_MEASURED
 10
1075.0
 20
-5132.0
 30
0.0
 70
0
  0
VERTEX
  5
7CB
  8
BASE_MEASURED
 10
1015.0
 20
-5132.0
 30
0.0
 70
0
  0
VERTEX
  5
7CC
  8
BASE_MEASURED
 10
1015.0
 20
-5112.5
 30
0.0
 70
0
  0
VERTEX
  5
7CD
  8
BASE_MEASURED
 10
1032.0
 20
-5112.5
 30
0.0
 70
0
  0
VERTEX
  5
7CE
  8
BASE_MEASURED
 10
1032.0
 20
-5057.0
 30
0.0
 70
0
  0
VERTEX
  5
7CF
  8
BASE_MEASURED
 10
1074.0
 20
-5057.0
 30
0.0
 70
0
  0
VERTEX
  5
7D0
  8
BASE_MEASURED
 10
1074.0
 20
-5112.5
 30
0.0
 70
0
  0
VERTEX
  5
7D1
  8
BASE_MEASURED
 10
1075.0
 20
-5112.5
 30
0.0
 70
0
  0
SEQEND
  5
7C9
  8
BASE_MEASURED
  0
POLYLINE
  5
7D2
  8
BASE_MEASURED
 66
1
 10
0.0
 20
0.0
 30
0.0
 70
1
  0
VERTEX
  5
7D4
  8
BASE_MEASURED
 10
1075.0
 20
-5187.0
 30
0.0
 70
0
  0
VERTEX
  5
7D5
  8
BASE_MEASURED
 10
1015.0
 20
-5187.0
 30
0.0
 70
0
  0
VERTEX
  5
7D6
  8
BASE_MEASURED
 10
1015.0
 20
-5167.0
 30
0.0
 70
0
  0
VERTEX
  5
7D7
  8
BASE_MEASURED
 10
1008.0
 20
-5167.0
 30
0.0
 70
0
  0
VERTEX
  5
7D8
  8
BASE_MEASURED
 10
998.0
 20
-5150.0
 30
0.0
 70
0
  0
VERTEX
  5
7D9
  8
BASE_MEASURED
 10
998.0
 20
-5134.0
 30
0.0
 70
0
  0
VERTEX
  5
7DA
  8
BASE_MEASURED
 10
1008.0
 20
-5117.0
 30
0.0
 70
0
  0
VERTEX
  5
7DB
  8
BASE_MEASURED
 10
1015.0
 20
-5117.0
 30
0.0
 70
0
  0
VERTEX
  5
7DC
  8
BASE_MEASURED
 10
1015.0
 20
-5132.0
 30
0.0
 70
0
  0
VERTEX
  5
7DD
  8
BASE_MEASURED
 10
1075.0
 20
-5132.0
 30
0.0
 70
0
  0
VERTEX
  5
7DE
  8
BASE_MEASURED
 10
1075.0
 20
-5117.0
 30
0.0
 70
0
  0
VERTEX
  5
7DF
  8
BASE_MEASURED
 10
1082.0
 20
-5117.0
 30
0.0
 70
0
  0
VERTEX
  5
7E0
  8
BASE_MEASURED
 10
1092.0
 20
-5134.0
 30
0.0
 70
0
  0
VERTEX
  5
7E1
  8
BASE_MEASURED
 10
1092.0
 20
-5150.0
 30
0.0
 70
0
  0
VERTEX
  5
7E2
  8
BASE_MEASURED
 10
1082.0
 20
-5167.0
 30
0.0
 70
0
  0
VERTEX
  5
7E3
  8
BASE_MEASURED
 10
1075.0
 20
-5167.0
 30
0.0
 70
0
  0
SEQEND
  5
7D3
  8
BASE_MEASURED
  0
POLYLINE
  5
7E4
  8
BASE_MEASURED
 66
1
 10
0.0
 20
0.0
 30
0.0
 70
1
  0
VERTEX
  5
7E6
  8
BASE_MEASURED
 10
938.0
 20
-5172.0
 30
0.0
 70
0
  0
VERTEX
  5
7E7
  8
BASE_MEASURED
 10
1015.0
 20
-5172.0
 30
0.0
 70
0
  0
VERTEX
  5
7E8
  8
BASE_MEASURED
 10
1015.0
 20
-5187.0
 30
0.0
 70
0
  0
VERTEX
  5
7E9
  8
BASE_MEASURED
 10
1075.0
 20
-5187.0
 30
0.0
 70
0
  0
VERTEX
  5
7EA
  8
BASE_MEASURED
 10
1075.0
 20
-5172.0
 30
0.0
 70
0
  0
VERTEX
  5
7EB
  8
BASE_MEASURED
 10
1151.99
 20
-5172.0
 30
0.0
 70
0
  0
VERTEX
  5
7EC
  8
BASE_MEASURED
 10
1151.99
 20
-5225.0
 30
0.0
 70
0
  0
VERTEX
  5
7ED
  8
BASE_MEASURED
 10
938.0
 20
-5225.0
 30
0.0
 70
0
  0
SEQEND
  5
7E5
  8
BASE_MEASURED
  0
POLYLINE
  5
7EE
  8
BASE_MEASURED
 66
1
 10
0.0
 20
0.0
 30
0.0
 70
1
  0
VERTEX
  5
7F0
  8
BASE_MEASURED
 10
938.0
 20
-5225.0
 30
0.0
 70
0
  0
VERTEX
  5
7F1
  8
BASE_MEASURED
 10
1151.99
 20
-5225.0
 30
0.0
 70
0
  0
VERTEX
  5
7F2
  8
BASE_MEASURED
 10
1151.99
 20
-6120.0
 30
0.0
 70
0
  0
VERTEX
  5
7F3
  8
BASE_MEASURED
 10
938.0
 20
-6120.0
 30
0.0
 70
0
  0
SEQEND
  5
7EF
  8
BASE_MEASURED
  0
POLYLINE
  5
7F4
  8
BASE_MEASURED
 66
1
 10
0.0
 20
0.0
 30
0.0
 70
1
  0
VERTEX
  5
7F6
  8
BASE_MEASURED
 10
921.0
 20
-5220.0
 30
0.0
 70
0
  0
VERTEX
  5
7F7
  8
BASE_MEASURED
 10
938.0
 20
-5220.0
 30
0.0
 70
0
  0
VERTEX
  5
7F8
  8
BASE_MEASURED
 10
938.0
 20
-5200.0
 30
0.0
 70
0
  0
VERTEX
  5
7F9
  8
BASE_MEASURED
 10
921.0
 20
-5200.0
 30
0.0
 70
0
  0
SEQEND
  5
7F5
  8
BASE_MEASURED
  0
POLYLINE
  5
7FA
  8
BASE_MEASURED
 66
1
 10
0.0
 20
0.0
 30
0.0
 70
1
  0
VERTEX
  5
7FC
  8
BASE_MEASURED
 10
1151.99
 20
-5220.0
 30
0.0
 70
0
  0
VERTEX
  5
7FD
  8
BASE_MEASURED
 10
1168.99
 20
-5220.0
 30
0.0
 70
0
  0
VERTEX
  5
7FE
  8
BASE_MEASURED
 10
1168.99
 20
-5200.0
 30
0.0
 70
0
  0
VERTEX
  5
7FF
  8
BASE_MEASURED
 10
1151.99
 20
-5200.0
 30
0.0
 70
0
  0
SEQEND
  5
7FB
  8
BASE_MEASURED
  0
POLYLINE
  5
800
  8
DIE
 66
1
 10
0.0
 20
0.0
 30
0.0
 70
1
  0
VERTEX
  5
802
  8
DIE
 10
1028.0
 20
-5046.0
 30
0.0
 70
0
  0
VERTEX
  5
803
  8
DIE
 10
1045.5
 20
-5046.0
 30
0.0
 70
0
  0
VERTEX
  5
804
  8
DIE
 10
1045.5
 20
-5040.0
 30
0.0
 70
0
  0
VERTEX
  5
805
  8
DIE
 10
1060.5
 20
-5040.0
 30
0.0
 70
0
  0
VERTEX
  5
806
  8
DIE
 10
1060.5
 20
-5046.0
 30
0.0
 70
0
  0
VERTEX
  5
807
  8
DIE
 10
1078.0
 20
-5046.0
 30
0.0
 70
0
  0
VERTEX
  5
808
  8
DIE
 10
1078.0
 20
-5000.0
 30
0.0
 70
0
  0
VERTEX
  5
809
  8
DIE
 10
1076.5
 20
-5000.0
 30
0.0
 70
0
  0
VERTEX
  5
80A
  8
DIE
 10
1070.5
 20
-5006.21
 30
0.0
 70
0
  0
VERTEX
  5
80B
  8
DIE
 10
1064.5
 20
-5000.0
 30
0.0
 70
0
  0
VERTEX
  5
80C
  8
DIE
 10
1050.0
 20
-5000.0
 30
0.0
 70
0
  0
VERTEX
  5
80D
  8
DIE
 10
1040.0
 20
-5010.35
 30
0.0
 70
0
  0
VERTEX
  5
80E
  8
DIE
 10
1030.0
 20
-5000.0
 30
0.0
 70
0
  0
VERTEX
  5
80F
  8
DIE
 10
1028.0
 20
-5000.0
 30
0.0
 70
0
  0
SEQEND
  5
801
  8
DIE
  0
LINE
  5
810
  8
CENTER
 10
1040.0
 20
-4940.0
 30
0.0
 11
1040.0
 21
-5250.0
 31
0.0
  0
TEXT
  5
811
  8
TEXT
 10
790.0
 20
-4850.0
 30
0.0
 40
13.0
  1
30540 2峚 V12/V20乮V20峚乯
 11
790.0
 21
-4850.0
 31
0.0
  0
TEXT
  5
812
  8
TEXT
 10
790.0
 20
-4870.0
 30
0.0
 40
11.0
  1
婡夿 HD3504NT丂搚戜 幚應
 11
790.0
 21
-4870.0
 31
0.0
  0
TEXT
  5
813
  8
TEXT
 10
790.0
 20
-4890.0
 30
0.0
 40
11.0
  1
V暆 20丂怺偝 10.35
 11
790.0
 21
-4890.0
 31
0.0
  0
TEXT
  5
814
  8
TEXT
 10
790.0
 20
-4910.0
 30
0.0
 40
11.0
  1
lib:30540:1
 11
790.0
 21
-4910.0
 31
0.0
  0
POLYLINE
  5
815
  8
FRAME
 66
1
 10
0.0
 20
0.0
 30
0.0
 70
1
  0
VERTEX
  5
817
  8
FRAME
 10
1300.0
 20
-4830.0
 30
0.0
 70
0
  0
VERTEX
  5
818
  8
FRAME
 10
1820.0
 20
-4830.0
 30
0.0
 70
0
  0
VERTEX
  5
819
  8
FRAME
 10
1820.0
 20
-6230.0
 30
0.0
 70
0
  0
VERTEX
  5
81A
  8
FRAME
 10
1300.0
 20
-6230.0
 30
0.0
 70
0
  0
SEQEND
  5
816
  8
FRAME
  0
POLYLINE
  5
81B
  8
BASE_MEASURED
 66
1
 10
0.0
 20
0.0
 30
0.0
 70
1
  0
VERTEX
  5
81D
  8
BASE_MEASURED
 10
1572.0
 20
-5046.0
 30
0.0
 70
0
  0
VERTEX
  5
81E
  8
BASE_MEASURED
 10
1554.5
 20
-5046.0
 30
0.0
 70
0
  0
VERTEX
  5
81F
  8
BASE_MEASURED
 10
1554.5
 20
-5040.0
 30
0.0
 70
0
  0
VERTEX
  5
820
  8
BASE_MEASURED
 10
1539.5
 20
-5040.0
 30
0.0
 70
0
  0
VERTEX
  5
821
  8
BASE_MEASURED
 10
1539.5
 20
-5046.0
 30
0.0
 70
0
  0
VERTEX
  5
822
  8
BASE_MEASURED
 10
1522.0
 20
-5046.0
 30
0.0
 70
0
  0
VERTEX
  5
823
  8
BASE_MEASURED
 10
1522.0
 20
-5000.0
 30
0.0
 70
0
  0
VERTEX
  5
824
  8
BASE_MEASURED
 10
1523.5
 20
-5000.0
 30
0.0
 70
0
  0
VERTEX
  5
825
  8
BASE_MEASURED
 10
1529.5
 20
-5006.21
 30
0.0
 70
0
  0
VERTEX
  5
826
  8
BASE_MEASURED
 10
1535.5
 20
-5000.0
 30
0.0
 70
0
  0
VERTEX
  5
827
  8
BASE_MEASURED
 10
1550.0
 20
-5000.0
 30
0.0
 70
0
  0
VERTEX
  5
828
  8
BASE_MEASURED
 10
1560.0
 20
-5010.35
 30
0.0
 70
0
  0
VERTEX
  5
829
  8
BASE_MEASURED
 10
1570.0
 20
-5000.0
 30
0.0
 70
0
  0
VERTEX
  5
82A
  8
BASE_MEASURED
 10
1572.0
 20
-5000.0
 30
0.0
 70
0
  0
SEQEND
  5
81C
  8
BASE_MEASURED
  0
POLYLINE
  5
82B
  8
BASE_MEASURED
 66
1
 10
0.0
 20
0.0
 30
0.0
 70
1
  0
VERTEX
  5
82D
  8
BASE_MEASURED
 10
1522.0
 20
-5056.0
 30
0.0
 70
0
  0
VERTEX
  5
82E
  8
BASE_MEASURED
 10
1572.0
 20
-5056.0
 30
0.0
 70
0
  0
VERTEX
  5
82F
  8
BASE_MEASURED
 10
1572.0
 20
-5046.0
 30
0.0
 70
0
  0
VERTEX
  5
830
  8
BASE_MEASURED
 10
1554.5
 20
-5046.0
 30
0.0
 70
0
  0
VERTEX
  5
831
  8
BASE_MEASURED
 10
1554.5
 20
-5040.0
 30
0.0
 70
0
  0
VERTEX
  5
832
  8
BASE_MEASURED
 10
1539.5
 20
-5040.0
 30
0.0
 70
0
  0
VERTEX
  5
833
  8
BASE_MEASURED
 10
1539.5
 20
-5046.0
 30
0.0
 70
0
  0
VERTEX
  5
834
  8
BASE_MEASURED
 10
1522.0
 20
-5046.0
 30
0.0
 70
0
  0
SEQEND
  5
82C
  8
BASE_MEASURED
  0
POLYLINE
  5
835
  8
BASE_MEASURED
 66
1
 10
0.0
 20
0.0
 30
0.0
 70
1
  0
VERTEX
  5
837
  8
BASE_MEASURED
 10
1569.0
 20
-5131.0
 30
0.0
 70
0
  0
VERTEX
  5
838
  8
BASE_MEASURED
 10
1509.0
 20
-5131.0
 30
0.0
 70
0
  0
VERTEX
  5
839
  8
BASE_MEASURED
 10
1509.0
 20
-5111.5
 30
0.0
 70
0
  0
VERTEX
  5
83A
  8
BASE_MEASURED
 10
1526.0
 20
-5111.5
 30
0.0
 70
0
  0
VERTEX
  5
83B
  8
BASE_MEASURED
 10
1526.0
 20
-5056.0
 30
0.0
 70
0
  0
VERTEX
  5
83C
  8
BASE_MEASURED
 10
1568.0
 20
-5056.0
 30
0.0
 70
0
  0
VERTEX
  5
83D
  8
BASE_MEASURED
 10
1568.0
 20
-5111.5
 30
0.0
 70
0
  0
VERTEX
  5
83E
  8
BASE_MEASURED
 10
1569.0
 20
-5111.5
 30
0.0
 70
0
  0
SEQEND
  5
836
  8
BASE_MEASURED
  0
POLYLINE
  5
83F
  8
BASE_MEASURED
 66
1
 10
0.0
 20
0.0
 30
0.0
 70
1
  0
VERTEX
  5
841
  8
BASE_MEASURED
 10
1569.0
 20
-5186.0
 30
0.0
 70
0
  0
VERTEX
  5
842
  8
BASE_MEASURED
 10
1509.0
 20
-5186.0
 30
0.0
 70
0
  0
VERTEX
  5
843
  8
BASE_MEASURED
 10
1509.0
 20
-5166.0
 30
0.0
 70
0
  0
VERTEX
  5
844
  8
BASE_MEASURED
 10
1502.0
 20
-5166.0
 30
0.0
 70
0
  0
VERTEX
  5
845
  8
BASE_MEASURED
 10
1492.0
 20
-5149.0
 30
0.0
 70
0
  0
VERTEX
  5
846
  8
BASE_MEASURED
 10
1492.0
 20
-5133.0
 30
0.0
 70
0
  0
VERTEX
  5
847
  8
BASE_MEASURED
 10
1502.0
 20
-5116.0
 30
0.0
 70
0
  0
VERTEX
  5
848
  8
BASE_MEASURED
 10
1509.0
 20
-5116.0
 30
0.0
 70
0
  0
VERTEX
  5
849
  8
BASE_MEASURED
 10
1509.0
 20
-5131.0
 30
0.0
 70
0
  0
VERTEX
  5
84A
  8
BASE_MEASURED
 10
1569.0
 20
-5131.0
 30
0.0
 70
0
  0
VERTEX
  5
84B
  8
BASE_MEASURED
 10
1569.0
 20
-5116.0
 30
0.0
 70
0
  0
VERTEX
  5
84C
  8
BASE_MEASURED
 10
1576.0
 20
-5116.0
 30
0.0
 70
0
  0
VERTEX
  5
84D
  8
BASE_MEASURED
 10
1586.0
 20
-5133.0
 30
0.0
 70
0
  0
VERTEX
  5
84E
  8
BASE_MEASURED
 10
1586.0
 20
-5149.0
 30
0.0
 70
0
  0
VERTEX
  5
84F
  8
BASE_MEASURED
 10
1576.0
 20
-5166.0
 30
0.0
 70
0
  0
VERTEX
  5
850
  8
BASE_MEASURED
 10
1569.0
 20
-5166.0
 30
0.0
 70
0
  0
SEQEND
  5
840
  8
BASE_MEASURED
  0
POLYLINE
  5
851
  8
BASE_MEASURED
 66
1
 10
0.0
 20
0.0
 30
0.0
 70
1
  0
VERTEX
  5
853
  8
BASE_MEASURED
 10
1432.0
 20
-5171.0
 30
0.0
 70
0
  0
VERTEX
  5
854
  8
BASE_MEASURED
 10
1509.0
 20
-5171.0
 30
0.0
 70
0
  0
VERTEX
  5
855
  8
BASE_MEASURED
 10
1509.0
 20
-5186.0
 30
0.0
 70
0
  0
VERTEX
  5
856
  8
BASE_MEASURED
 10
1569.0
 20
-5186.0
 30
0.0
 70
0
  0
VERTEX
  5
857
  8
BASE_MEASURED
 10
1569.0
 20
-5171.0
 30
0.0
 70
0
  0
VERTEX
  5
858
  8
BASE_MEASURED
 10
1645.99
 20
-5171.0
 30
0.0
 70
0
  0
VERTEX
  5
859
  8
BASE_MEASURED
 10
1645.99
 20
-5224.0
 30
0.0
 70
0
  0
VERTEX
  5
85A
  8
BASE_MEASURED
 10
1432.0
 20
-5224.0
 30
0.0
 70
0
  0
SEQEND
  5
852
  8
BASE_MEASURED
  0
POLYLINE
  5
85B
  8
BASE_MEASURED
 66
1
 10
0.0
 20
0.0
 30
0.0
 70
1
  0
VERTEX
  5
85D
  8
BASE_MEASURED
 10
1432.0
 20
-5224.0
 30
0.0
 70
0
  0
VERTEX
  5
85E
  8
BASE_MEASURED
 10
1645.99
 20
-5224.0
 30
0.0
 70
0
  0
VERTEX
  5
85F
  8
BASE_MEASURED
 10
1645.99
 20
-6119.0
 30
0.0
 70
0
  0
VERTEX
  5
860
  8
BASE_MEASURED
 10
1432.0
 20
-6119.0
 30
0.0
 70
0
  0
SEQEND
  5
85C
  8
BASE_MEASURED
  0
POLYLINE
  5
861
  8
BASE_MEASURED
 66
1
 10
0.0
 20
0.0
 30
0.0
 70
1
  0
VERTEX
  5
863
  8
BASE_MEASURED
 10
1415.0
 20
-5219.0
 30
0.0
 70
0
  0
VERTEX
  5
864
  8
BASE_MEASURED
 10
1432.0
 20
-5219.0
 30
0.0
 70
0
  0
VERTEX
  5
865
  8
BASE_MEASURED
 10
1432.0
 20
-5199.0
 30
0.0
 70
0
  0
VERTEX
  5
866
  8
BASE_MEASURED
 10
1415.0
 20
-5199.0
 30
0.0
 70
0
  0
SEQEND
  5
862
  8
BASE_MEASURED
  0
POLYLINE
  5
867
  8
BASE_MEASURED
 66
1
 10
0.0
 20
0.0
 30
0.0
 70
1
  0
VERTEX
  5
869
  8
BASE_MEASURED
 10
1645.99
 20
-5219.0
 30
0.0
 70
0
  0
VERTEX
  5
86A
  8
BASE_MEASURED
 10
1662.99
 20
-5219.0
 30
0.0
 70
0
  0
VERTEX
  5
86B
  8
BASE_MEASURED
 10
1662.99
 20
-5199.0
 30
0.0
 70
0
  0
VERTEX
  5
86C
  8
BASE_MEASURED
 10
1645.99
 20
-5199.0
 30
0.0
 70
0
  0
SEQEND
  5
868
  8
BASE_MEASURED
  0
POLYLINE
  5
86D
  8
DIE
 66
1
 10
0.0
 20
0.0
 30
0.0
 70
1
  0
VERTEX
  5
86F
  8
DIE
 10
1572.0
 20
-5046.0
 30
0.0
 70
0
  0
VERTEX
  5
870
  8
DIE
 10
1554.5
 20
-5046.0
 30
0.0
 70
0
  0
VERTEX
  5
871
  8
DIE
 10
1554.5
 20
-5040.0
 30
0.0
 70
0
  0
VERTEX
  5
872
  8
DIE
 10
1539.5
 20
-5040.0
 30
0.0
 70
0
  0
VERTEX
  5
873
  8
DIE
 10
1539.5
 20
-5046.0
 30
0.0
 70
0
  0
VERTEX
  5
874
  8
DIE
 10
1522.0
 20
-5046.0
 30
0.0
 70
0
  0
VERTEX
  5
875
  8
DIE
 10
1522.0
 20
-5000.0
 30
0.0
 70
0
  0
VERTEX
  5
876
  8
DIE
 10
1523.5
 20
-5000.0
 30
0.0
 70
0
  0
VERTEX
  5
877
  8
DIE
 10
1529.5
 20
-5006.21
 30
0.0
 70
0
  0
VERTEX
  5
878
  8
DIE
 10
1535.5
 20
-5000.0
 30
0.0
 70
0
  0
VERTEX
  5
879
  8
DIE
 10
1550.0
 20
-5000.0
 30
0.0
 70
0
  0
VERTEX
  5
87A
  8
DIE
 10
1560.0
 20
-5010.35
 30
0.0
 70
0
  0
VERTEX
  5
87B
  8
DIE
 10
1570.0
 20
-5000.0
 30
0.0
 70
0
  0
VERTEX
  5
87C
  8
DIE
 10
1572.0
 20
-5000.0
 30
0.0
 70
0
  0
SEQEND
  5
86E
  8
DIE
  0
LINE
  5
87D
  8
CENTER
 10
1560.0
 20
-4940.0
 30
0.0
 11
1560.0
 21
-5250.0
 31
0.0
  0
TEXT
  5
87E
  8
TEXT
 10
1310.0
 20
-4850.0
 30
0.0
 40
13.0
  1
30540 2峚 V12/V20乮V20峚乯丒嵍塃斀揮
 11
1310.0
 21
-4850.0
 31
0.0
  0
TEXT
  5
87F
  8
TEXT
 10
1310.0
 20
-4870.0
 30
0.0
 40
11.0
  1
婡夿 HD3504NT丂搚戜 幚應
 11
1310.0
 21
-4870.0
 31
0.0
  0
TEXT
  5
880
  8
TEXT
 10
1310.0
 20
-4890.0
 30
0.0
 40
11.0
  1
V暆 20丂怺偝 10.35
 11
1310.0
 21
-4890.0
 31
0.0
  0
TEXT
  5
881
  8
TEXT
 10
1310.0
 20
-4910.0
 30
0.0
 40
11.0
  1
lib:30540:1
 11
1310.0
 21
-4910.0
 31
0.0
  0
POLYLINE
  5
882
  8
FRAME
 66
1
 10
0.0
 20
0.0
 30
0.0
 70
1
  0
VERTEX
  5
884
  8
FRAME
 10
1820.0
 20
-4830.0
 30
0.0
 70
0
  0
VERTEX
  5
885
  8
FRAME
 10
2340.0
 20
-4830.0
 30
0.0
 70
0
  0
VERTEX
  5
886
  8
FRAME
 10
2340.0
 20
-6230.0
 30
0.0
 70
0
  0
VERTEX
  5
887
  8
FRAME
 10
1820.0
 20
-6230.0
 30
0.0
 70
0
  0
SEQEND
  5
883
  8
FRAME
  0
POLYLINE
  5
888
  8
BASE_MEASURED
 66
1
 10
0.0
 20
0.0
 30
0.0
 70
1
  0
VERTEX
  5
88A
  8
BASE_MEASURED
 10
2039.5
 20
-5046.0
 30
0.0
 70
0
  0
VERTEX
  5
88B
  8
BASE_MEASURED
 10
2057.0
 20
-5046.0
 30
0.0
 70
0
  0
VERTEX
  5
88C
  8
BASE_MEASURED
 10
2057.0
 20
-5040.0
 30
0.0
 70
0
  0
VERTEX
  5
88D
  8
BASE_MEASURED
 10
2072.0
 20
-5040.0
 30
0.0
 70
0
  0
VERTEX
  5
88E
  8
BASE_MEASURED
 10
2072.0
 20
-5046.0
 30
0.0
 70
0
  0
VERTEX
  5
88F
  8
BASE_MEASURED
 10
2089.5
 20
-5046.0
 30
0.0
 70
0
  0
VERTEX
  5
890
  8
BASE_MEASURED
 10
2089.5
 20
-5000.0
 30
0.0
 70
0
  0
VERTEX
  5
891
  8
BASE_MEASURED
 10
2088.0
 20
-5000.0
 30
0.0
 70
0
  0
VERTEX
  5
892
  8
BASE_MEASURED
 10
2080.0
 20
-5008.28
 30
0.0
 70
0
  0
VERTEX
  5
893
  8
BASE_MEASURED
 10
2072.0
 20
-5000.0
 30
0.0
 70
0
  0
VERTEX
  5
894
  8
BASE_MEASURED
 10
2066.5
 20
-5000.0
 30
0.0
 70
0
  0
VERTEX
  5
895
  8
BASE_MEASURED
 10
2054.0
 20
-5012.94
 30
0.0
 70
0
  0
VERTEX
  5
896
  8
BASE_MEASURED
 10
2041.5
 20
-5000.0
 30
0.0
 70
0
  0
VERTEX
  5
897
  8
BASE_MEASURED
 10
2039.5
 20
-5000.0
 30
0.0
 70
0
  0
SEQEND
  5
889
  8
BASE_MEASURED
  0
POLYLINE
  5
898
  8
BASE_MEASURED
 66
1
 10
0.0
 20
0.0
 30
0.0
 70
1
  0
VERTEX
  5
89A
  8
BASE_MEASURED
 10
2039.5
 20
-5057.0
 30
0.0
 70
0
  0
VERTEX
  5
89B
  8
BASE_MEASURED
 10
2089.5
 20
-5057.0
 30
0.0
 70
0
  0
VERTEX
  5
89C
  8
BASE_MEASURED
 10
2089.5
 20
-5047.0
 30
0.0
 70
0
  0
VERTEX
  5
89D
  8
BASE_MEASURED
 10
2072.0
 20
-5047.0
 30
0.0
 70
0
  0
VERTEX
  5
89E
  8
BASE_MEASURED
 10
2072.0
 20
-5041.0
 30
0.0
 70
0
  0
VERTEX
  5
89F
  8
BASE_MEASURED
 10
2057.0
 20
-5041.0
 30
0.0
 70
0
  0
VERTEX
  5
8A0
  8
BASE_MEASURED
 10
2057.0
 20
-5047.0
 30
0.0
 70
0
  0
VERTEX
  5
8A1
  8
BASE_MEASURED
 10
2039.5
 20
-5047.0
 30
0.0
 70
0
  0
SEQEND
  5
899
  8
BASE_MEASURED
  0
POLYLINE
  5
8A2
  8
BASE_MEASURED
 66
1
 10
0.0
 20
0.0
 30
0.0
 70
1
  0
VERTEX
  5
8A4
  8
BASE_MEASURED
 10
2086.5
 20
-5132.0
 30
0.0
 70
0
  0
VERTEX
  5
8A5
  8
BASE_MEASURED
 10
2026.5
 20
-5132.0
 30
0.0
 70
0
  0
VERTEX
  5
8A6
  8
BASE_MEASURED
 10
2026.5
 20
-5112.5
 30
0.0
 70
0
  0
VERTEX
  5
8A7
  8
BASE_MEASURED
 10
2043.5
 20
-5112.5
 30
0.0
 70
0
  0
VERTEX
  5
8A8
  8
BASE_MEASURED
 10
2043.5
 20
-5057.0
 30
0.0
 70
0
  0
VERTEX
  5
8A9
  8
BASE_MEASURED
 10
2085.5
 20
-5057.0
 30
0.0
 70
0
  0
VERTEX
  5
8AA
  8
BASE_MEASURED
 10
2085.5
 20
-5112.5
 30
0.0
 70
0
  0
VERTEX
  5
8AB
  8
BASE_MEASURED
 10
2086.5
 20
-5112.5
 30
0.0
 70
0
  0
SEQEND
  5
8A3
  8
BASE_MEASURED
  0
POLYLINE
  5
8AC
  8
BASE_MEASURED
 66
1
 10
0.0
 20
0.0
 30
0.0
 70
1
  0
VERTEX
  5
8AE
  8
BASE_MEASURED
 10
2086.5
 20
-5187.0
 30
0.0
 70
0
  0
VERTEX
  5
8AF
  8
BASE_MEASURED
 10
2026.5
 20
-5187.0
 30
0.0
 70
0
  0
VERTEX
  5
8B0
  8
BASE_MEASURED
 10
2026.5
 20
-5167.0
 30
0.0
 70
0
  0
VERTEX
  5
8B1
  8
BASE_MEASURED
 10
2019.5
 20
-5167.0
 30
0.0
 70
0
  0
VERTEX
  5
8B2
  8
BASE_MEASURED
 10
2009.5
 20
-5150.0
 30
0.0
 70
0
  0
VERTEX
  5
8B3
  8
BASE_MEASURED
 10
2009.5
 20
-5134.0
 30
0.0
 70
0
  0
VERTEX
  5
8B4
  8
BASE_MEASURED
 10
2019.5
 20
-5117.0
 30
0.0
 70
0
  0
VERTEX
  5
8B5
  8
BASE_MEASURED
 10
2026.5
 20
-5117.0
 30
0.0
 70
0
  0
VERTEX
  5
8B6
  8
BASE_MEASURED
 10
2026.5
 20
-5132.0
 30
0.0
 70
0
  0
VERTEX
  5
8B7
  8
BASE_MEASURED
 10
2086.5
 20
-5132.0
 30
0.0
 70
0
  0
VERTEX
  5
8B8
  8
BASE_MEASURED
 10
2086.5
 20
-5117.0
 30
0.0
 70
0
  0
VERTEX
  5
8B9
  8
BASE_MEASURED
 10
2093.5
 20
-5117.0
 30
0.0
 70
0
  0
VERTEX
  5
8BA
  8
BASE_MEASURED
 10
2103.5
 20
-5134.0
 30
0.0
 70
0
  0
VERTEX
  5
8BB
  8
BASE_MEASURED
 10
2103.5
 20
-5150.0
 30
0.0
 70
0
  0
VERTEX
  5
8BC
  8
BASE_MEASURED
 10
2093.5
 20
-5167.0
 30
0.0
 70
0
  0
VERTEX
  5
8BD
  8
BASE_MEASURED
 10
2086.5
 20
-5167.0
 30
0.0
 70
0
  0
SEQEND
  5
8AD
  8
BASE_MEASURED
  0
POLYLINE
  5
8BE
  8
BASE_MEASURED
 66
1
 10
0.0
 20
0.0
 30
0.0
 70
1
  0
VERTEX
  5
8C0
  8
BASE_MEASURED
 10
1949.5
 20
-5172.0
 30
0.0
 70
0
  0
VERTEX
  5
8C1
  8
BASE_MEASURED
 10
2026.5
 20
-5172.0
 30
0.0
 70
0
  0
VERTEX
  5
8C2
  8
BASE_MEASURED
 10
2026.5
 20
-5187.0
 30
0.0
 70
0
  0
VERTEX
  5
8C3
  8
BASE_MEASURED
 10
2086.5
 20
-5187.0
 30
0.0
 70
0
  0
VERTEX
  5
8C4
  8
BASE_MEASURED
 10
2086.5
 20
-5172.0
 30
0.0
 70
0
  0
VERTEX
  5
8C5
  8
BASE_MEASURED
 10
2163.49
 20
-5172.0
 30
0.0
 70
0
  0
VERTEX
  5
8C6
  8
BASE_MEASURED
 10
2163.49
 20
-5225.0
 30
0.0
 70
0
  0
VERTEX
  5
8C7
  8
BASE_MEASURED
 10
1949.5
 20
-5225.0
 30
0.0
 70
0
  0
SEQEND
  5
8BF
  8
BASE_MEASURED
  0
POLYLINE
  5
8C8
  8
BASE_MEASURED
 66
1
 10
0.0
 20
0.0
 30
0.0
 70
1
  0
VERTEX
  5
8CA
  8
BASE_MEASURED
 10
1949.5
 20
-5225.0
 30
0.0
 70
0
  0
VERTEX
  5
8CB
  8
BASE_MEASURED
 10
2163.49
 20
-5225.0
 30
0.0
 70
0
  0
VERTEX
  5
8CC
  8
BASE_MEASURED
 10
2163.49
 20
-6120.0
 30
0.0
 70
0
  0
VERTEX
  5
8CD
  8
BASE_MEASURED
 10
1949.5
 20
-6120.0
 30
0.0
 70
0
  0
SEQEND
  5
8C9
  8
BASE_MEASURED
  0
POLYLINE
  5
8CE
  8
BASE_MEASURED
 66
1
 10
0.0
 20
0.0
 30
0.0
 70
1
  0
VERTEX
  5
8D0
  8
BASE_MEASURED
 10
1932.5
 20
-5220.0
 30
0.0
 70
0
  0
VERTEX
  5
8D1
  8
BASE_MEASURED
 10
1949.5
 20
-5220.0
 30
0.0
 70
0
  0
VERTEX
  5
8D2
  8
BASE_MEASURED
 10
1949.5
 20
-5200.0
 30
0.0
 70
0
  0
VERTEX
  5
8D3
  8
BASE_MEASURED
 10
1932.5
 20
-5200.0
 30
0.0
 70
0
  0
SEQEND
  5
8CF
  8
BASE_MEASURED
  0
POLYLINE
  5
8D4
  8
BASE_MEASURED
 66
1
 10
0.0
 20
0.0
 30
0.0
 70
1
  0
VERTEX
  5
8D6
  8
BASE_MEASURED
 10
2163.49
 20
-5220.0
 30
0.0
 70
0
  0
VERTEX
  5
8D7
  8
BASE_MEASURED
 10
2180.49
 20
-5220.0
 30
0.0
 70
0
  0
VERTEX
  5
8D8
  8
BASE_MEASURED
 10
2180.49
 20
-5200.0
 30
0.0
 70
0
  0
VERTEX
  5
8D9
  8
BASE_MEASURED
 10
2163.49
 20
-5200.0
 30
0.0
 70
0
  0
SEQEND
  5
8D5
  8
BASE_MEASURED
  0
POLYLINE
  5
8DA
  8
DIE
 66
1
 10
0.0
 20
0.0
 30
0.0
 70
1
  0
VERTEX
  5
8DC
  8
DIE
 10
2039.5
 20
-5046.0
 30
0.0
 70
0
  0
VERTEX
  5
8DD
  8
DIE
 10
2057.0
 20
-5046.0
 30
0.0
 70
0
  0
VERTEX
  5
8DE
  8
DIE
 10
2057.0
 20
-5040.0
 30
0.0
 70
0
  0
VERTEX
  5
8DF
  8
DIE
 10
2072.0
 20
-5040.0
 30
0.0
 70
0
  0
VERTEX
  5
8E0
  8
DIE
 10
2072.0
 20
-5046.0
 30
0.0
 70
0
  0
VERTEX
  5
8E1
  8
DIE
 10
2089.5
 20
-5046.0
 30
0.0
 70
0
  0
VERTEX
  5
8E2
  8
DIE
 10
2089.5
 20
-5000.0
 30
0.0
 70
0
  0
VERTEX
  5
8E3
  8
DIE
 10
2088.0
 20
-5000.0
 30
0.0
 70
0
  0
VERTEX
  5
8E4
  8
DIE
 10
2080.0
 20
-5008.28
 30
0.0
 70
0
  0
VERTEX
  5
8E5
  8
DIE
 10
2072.0
 20
-5000.0
 30
0.0
 70
0
  0
VERTEX
  5
8E6
  8
DIE
 10
2066.5
 20
-5000.0
 30
0.0
 70
0
  0
VERTEX
  5
8E7
  8
DIE
 10
2054.0
 20
-5012.94
 30
0.0
 70
0
  0
VERTEX
  5
8E8
  8
DIE
 10
2041.5
 20
-5000.0
 30
0.0
 70
0
  0
VERTEX
  5
8E9
  8
DIE
 10
2039.5
 20
-5000.0
 30
0.0
 70
0
  0
SEQEND
  5
8DB
  8
DIE
  0
LINE
  5
8EA
  8
CENTER
 10
2080.0
 20
-4940.0
 30
0.0
 11
2080.0
 21
-5250.0
 31
0.0
  0
TEXT
  5
8EB
  8
TEXT
 10
1830.0
 20
-4850.0
 30
0.0
 40
13.0
  1
30640 2峚 V16/V25乮V16峚乯
 11
1830.0
 21
-4850.0
 31
0.0
  0
TEXT
  5
8EC
  8
TEXT
 10
1830.0
 20
-4870.0
 30
0.0
 40
11.0
  1
婡夿 HD3504NT丂搚戜 幚應
 11
1830.0
 21
-4870.0
 31
0.0
  0
TEXT
  5
8ED
  8
TEXT
 10
1830.0
 20
-4890.0
 30
0.0
 40
11.0
  1
V暆 16丂怺偝 8.28
 11
1830.0
 21
-4890.0
 31
0.0
  0
TEXT
  5
8EE
  8
TEXT
 10
1830.0
 20
-4910.0
 30
0.0
 40
11.0
  1
lib:30640:0
 11
1830.0
 21
-4910.0
 31
0.0
  0
POLYLINE
  5
8EF
  8
FRAME
 66
1
 10
0.0
 20
0.0
 30
0.0
 70
1
  0
VERTEX
  5
8F1
  8
FRAME
 10
2340.0
 20
-4830.0
 30
0.0
 70
0
  0
VERTEX
  5
8F2
  8
FRAME
 10
2860.0
 20
-4830.0
 30
0.0
 70
0
  0
VERTEX
  5
8F3
  8
FRAME
 10
2860.0
 20
-6230.0
 30
0.0
 70
0
  0
VERTEX
  5
8F4
  8
FRAME
 10
2340.0
 20
-6230.0
 30
0.0
 70
0
  0
SEQEND
  5
8F0
  8
FRAME
  0
POLYLINE
  5
8F5
  8
BASE_MEASURED
 66
1
 10
0.0
 20
0.0
 30
0.0
 70
1
  0
VERTEX
  5
8F7
  8
BASE_MEASURED
 10
2640.5
 20
-5046.0
 30
0.0
 70
0
  0
VERTEX
  5
8F8
  8
BASE_MEASURED
 10
2623.0
 20
-5046.0
 30
0.0
 70
0
  0
VERTEX
  5
8F9
  8
BASE_MEASURED
 10
2623.0
 20
-5040.0
 30
0.0
 70
0
  0
VERTEX
  5
8FA
  8
BASE_MEASURED
 10
2608.0
 20
-5040.0
 30
0.0
 70
0
  0
VERTEX
  5
8FB
  8
BASE_MEASURED
 10
2608.0
 20
-5046.0
 30
0.0
 70
0
  0
VERTEX
  5
8FC
  8
BASE_MEASURED
 10
2590.5
 20
-5046.0
 30
0.0
 70
0
  0
VERTEX
  5
8FD
  8
BASE_MEASURED
 10
2590.5
 20
-5000.0
 30
0.0
 70
0
  0
VERTEX
  5
8FE
  8
BASE_MEASURED
 10
2592.0
 20
-5000.0
 30
0.0
 70
0
  0
VERTEX
  5
8FF
  8
BASE_MEASURED
 10
2600.0
 20
-5008.28
 30
0.0
 70
0
  0
VERTEX
  5
900
  8
BASE_MEASURED
 10
2608.0
 20
-5000.0
 30
0.0
 70
0
  0
VERTEX
  5
901
  8
BASE_MEASURED
 10
2613.5
 20
-5000.0
 30
0.0
 70
0
  0
VERTEX
  5
902
  8
BASE_MEASURED
 10
2626.0
 20
-5012.94
 30
0.0
 70
0
  0
VERTEX
  5
903
  8
BASE_MEASURED
 10
2638.5
 20
-5000.0
 30
0.0
 70
0
  0
VERTEX
  5
904
  8
BASE_MEASURED
 10
2640.5
 20
-5000.0
 30
0.0
 70
0
  0
SEQEND
  5
8F6
  8
BASE_MEASURED
  0
POLYLINE
  5
905
  8
BASE_MEASURED
 66
1
 10
0.0
 20
0.0
 30
0.0
 70
1
  0
VERTEX
  5
907
  8
BASE_MEASURED
 10
2590.5
 20
-5056.0
 30
0.0
 70
0
  0
VERTEX
  5
908
  8
BASE_MEASURED
 10
2640.5
 20
-5056.0
 30
0.0
 70
0
  0
VERTEX
  5
909
  8
BASE_MEASURED
 10
2640.5
 20
-5046.0
 30
0.0
 70
0
  0
VERTEX
  5
90A
  8
BASE_MEASURED
 10
2623.0
 20
-5046.0
 30
0.0
 70
0
  0
VERTEX
  5
90B
  8
BASE_MEASURED
 10
2623.0
 20
-5040.0
 30
0.0
 70
0
  0
VERTEX
  5
90C
  8
BASE_MEASURED
 10
2608.0
 20
-5040.0
 30
0.0
 70
0
  0
VERTEX
  5
90D
  8
BASE_MEASURED
 10
2608.0
 20
-5046.0
 30
0.0
 70
0
  0
VERTEX
  5
90E
  8
BASE_MEASURED
 10
2590.5
 20
-5046.0
 30
0.0
 70
0
  0
SEQEND
  5
906
  8
BASE_MEASURED
  0
POLYLINE
  5
90F
  8
BASE_MEASURED
 66
1
 10
0.0
 20
0.0
 30
0.0
 70
1
  0
VERTEX
  5
911
  8
BASE_MEASURED
 10
2637.5
 20
-5131.0
 30
0.0
 70
0
  0
VERTEX
  5
912
  8
BASE_MEASURED
 10
2577.5
 20
-5131.0
 30
0.0
 70
0
  0
VERTEX
  5
913
  8
BASE_MEASURED
 10
2577.5
 20
-5111.5
 30
0.0
 70
0
  0
VERTEX
  5
914
  8
BASE_MEASURED
 10
2594.5
 20
-5111.5
 30
0.0
 70
0
  0
VERTEX
  5
915
  8
BASE_MEASURED
 10
2594.5
 20
-5056.0
 30
0.0
 70
0
  0
VERTEX
  5
916
  8
BASE_MEASURED
 10
2636.5
 20
-5056.0
 30
0.0
 70
0
  0
VERTEX
  5
917
  8
BASE_MEASURED
 10
2636.5
 20
-5111.5
 30
0.0
 70
0
  0
VERTEX
  5
918
  8
BASE_MEASURED
 10
2637.5
 20
-5111.5
 30
0.0
 70
0
  0
SEQEND
  5
910
  8
BASE_MEASURED
  0
POLYLINE
  5
919
  8
BASE_MEASURED
 66
1
 10
0.0
 20
0.0
 30
0.0
 70
1
  0
VERTEX
  5
91B
  8
BASE_MEASURED
 10
2637.5
 20
-5186.0
 30
0.0
 70
0
  0
VERTEX
  5
91C
  8
BASE_MEASURED
 10
2577.5
 20
-5186.0
 30
0.0
 70
0
  0
VERTEX
  5
91D
  8
BASE_MEASURED
 10
2577.5
 20
-5166.0
 30
0.0
 70
0
  0
VERTEX
  5
91E
  8
BASE_MEASURED
 10
2570.5
 20
-5166.0
 30
0.0
 70
0
  0
VERTEX
  5
91F
  8
BASE_MEASURED
 10
2560.5
 20
-5149.0
 30
0.0
 70
0
  0
VERTEX
  5
920
  8
BASE_MEASURED
 10
2560.5
 20
-5133.0
 30
0.0
 70
0
  0
VERTEX
  5
921
  8
BASE_MEASURED
 10
2570.5
 20
-5116.0
 30
0.0
 70
0
  0
VERTEX
  5
922
  8
BASE_MEASURED
 10
2577.5
 20
-5116.0
 30
0.0
 70
0
  0
VERTEX
  5
923
  8
BASE_MEASURED
 10
2577.5
 20
-5131.0
 30
0.0
 70
0
  0
VERTEX
  5
924
  8
BASE_MEASURED
 10
2637.5
 20
-5131.0
 30
0.0
 70
0
  0
VERTEX
  5
925
  8
BASE_MEASURED
 10
2637.5
 20
-5116.0
 30
0.0
 70
0
  0
VERTEX
  5
926
  8
BASE_MEASURED
 10
2644.5
 20
-5116.0
 30
0.0
 70
0
  0
VERTEX
  5
927
  8
BASE_MEASURED
 10
2654.5
 20
-5133.0
 30
0.0
 70
0
  0
VERTEX
  5
928
  8
BASE_MEASURED
 10
2654.5
 20
-5149.0
 30
0.0
 70
0
  0
VERTEX
  5
929
  8
BASE_MEASURED
 10
2644.5
 20
-5166.0
 30
0.0
 70
0
  0
VERTEX
  5
92A
  8
BASE_MEASURED
 10
2637.5
 20
-5166.0
 30
0.0
 70
0
  0
SEQEND
  5
91A
  8
BASE_MEASURED
  0
POLYLINE
  5
92B
  8
BASE_MEASURED
 66
1
 10
0.0
 20
0.0
 30
0.0
 70
1
  0
VERTEX
  5
92D
  8
BASE_MEASURED
 10
2500.5
 20
-5171.0
 30
0.0
 70
0
  0
VERTEX
  5
92E
  8
BASE_MEASURED
 10
2577.5
 20
-5171.0
 30
0.0
 70
0
  0
VERTEX
  5
92F
  8
BASE_MEASURED
 10
2577.5
 20
-5186.0
 30
0.0
 70
0
  0
VERTEX
  5
930
  8
BASE_MEASURED
 10
2637.5
 20
-5186.0
 30
0.0
 70
0
  0
VERTEX
  5
931
  8
BASE_MEASURED
 10
2637.5
 20
-5171.0
 30
0.0
 70
0
  0
VERTEX
  5
932
  8
BASE_MEASURED
 10
2714.49
 20
-5171.0
 30
0.0
 70
0
  0
VERTEX
  5
933
  8
BASE_MEASURED
 10
2714.49
 20
-5224.0
 30
0.0
 70
0
  0
VERTEX
  5
934
  8
BASE_MEASURED
 10
2500.5
 20
-5224.0
 30
0.0
 70
0
  0
SEQEND
  5
92C
  8
BASE_MEASURED
  0
POLYLINE
  5
935
  8
BASE_MEASURED
 66
1
 10
0.0
 20
0.0
 30
0.0
 70
1
  0
VERTEX
  5
937
  8
BASE_MEASURED
 10
2500.5
 20
-5224.0
 30
0.0
 70
0
  0
VERTEX
  5
938
  8
BASE_MEASURED
 10
2714.49
 20
-5224.0
 30
0.0
 70
0
  0
VERTEX
  5
939
  8
BASE_MEASURED
 10
2714.49
 20
-6119.0
 30
0.0
 70
0
  0
VERTEX
  5
93A
  8
BASE_MEASURED
 10
2500.5
 20
-6119.0
 30
0.0
 70
0
  0
SEQEND
  5
936
  8
BASE_MEASURED
  0
POLYLINE
  5
93B
  8
BASE_MEASURED
 66
1
 10
0.0
 20
0.0
 30
0.0
 70
1
  0
VERTEX
  5
93D
  8
BASE_MEASURED
 10
2483.5
 20
-5219.0
 30
0.0
 70
0
  0
VERTEX
  5
93E
  8
BASE_MEASURED
 10
2500.5
 20
-5219.0
 30
0.0
 70
0
  0
VERTEX
  5
93F
  8
BASE_MEASURED
 10
2500.5
 20
-5199.0
 30
0.0
 70
0
  0
VERTEX
  5
940
  8
BASE_MEASURED
 10
2483.5
 20
-5199.0
 30
0.0
 70
0
  0
SEQEND
  5
93C
  8
BASE_MEASURED
  0
POLYLINE
  5
941
  8
BASE_MEASURED
 66
1
 10
0.0
 20
0.0
 30
0.0
 70
1
  0
VERTEX
  5
943
  8
BASE_MEASURED
 10
2714.49
 20
-5219.0
 30
0.0
 70
0
  0
VERTEX
  5
944
  8
BASE_MEASURED
 10
2731.49
 20
-5219.0
 30
0.0
 70
0
  0
VERTEX
  5
945
  8
BASE_MEASURED
 10
2731.49
 20
-5199.0
 30
0.0
 70
0
  0
VERTEX
  5
946
  8
BASE_MEASURED
 10
2714.49
 20
-5199.0
 30
0.0
 70
0
  0
SEQEND
  5
942
  8
BASE_MEASURED
  0
POLYLINE
  5
947
  8
DIE
 66
1
 10
0.0
 20
0.0
 30
0.0
 70
1
  0
VERTEX
  5
949
  8
DIE
 10
2640.5
 20
-5046.0
 30
0.0
 70
0
  0
VERTEX
  5
94A
  8
DIE
 10
2623.0
 20
-5046.0
 30
0.0
 70
0
  0
VERTEX
  5
94B
  8
DIE
 10
2623.0
 20
-5040.0
 30
0.0
 70
0
  0
VERTEX
  5
94C
  8
DIE
 10
2608.0
 20
-5040.0
 30
0.0
 70
0
  0
VERTEX
  5
94D
  8
DIE
 10
2608.0
 20
-5046.0
 30
0.0
 70
0
  0
VERTEX
  5
94E
  8
DIE
 10
2590.5
 20
-5046.0
 30
0.0
 70
0
  0
VERTEX
  5
94F
  8
DIE
 10
2590.5
 20
-5000.0
 30
0.0
 70
0
  0
VERTEX
  5
950
  8
DIE
 10
2592.0
 20
-5000.0
 30
0.0
 70
0
  0
VERTEX
  5
951
  8
DIE
 10
2600.0
 20
-5008.28
 30
0.0
 70
0
  0
VERTEX
  5
952
  8
DIE
 10
2608.0
 20
-5000.0
 30
0.0
 70
0
  0
VERTEX
  5
953
  8
DIE
 10
2613.5
 20
-5000.0
 30
0.0
 70
0
  0
VERTEX
  5
954
  8
DIE
 10
2626.0
 20
-5012.94
 30
0.0
 70
0
  0
VERTEX
  5
955
  8
DIE
 10
2638.5
 20
-5000.0
 30
0.0
 70
0
  0
VERTEX
  5
956
  8
DIE
 10
2640.5
 20
-5000.0
 30
0.0
 70
0
  0
SEQEND
  5
948
  8
DIE
  0
LINE
  5
957
  8
CENTER
 10
2600.0
 20
-4940.0
 30
0.0
 11
2600.0
 21
-5250.0
 31
0.0
  0
TEXT
  5
958
  8
TEXT
 10
2350.0
 20
-4850.0
 30
0.0
 40
13.0
  1
30640 2峚 V16/V25乮V16峚乯丒嵍塃斀揮
 11
2350.0
 21
-4850.0
 31
0.0
  0
TEXT
  5
959
  8
TEXT
 10
2350.0
 20
-4870.0
 30
0.0
 40
11.0
  1
婡夿 HD3504NT丂搚戜 幚應
 11
2350.0
 21
-4870.0
 31
0.0
  0
TEXT
  5
95A
  8
TEXT
 10
2350.0
 20
-4890.0
 30
0.0
 40
11.0
  1
V暆 16丂怺偝 8.28
 11
2350.0
 21
-4890.0
 31
0.0
  0
TEXT
  5
95B
  8
TEXT
 10
2350.0
 20
-4910.0
 30
0.0
 40
11.0
  1
lib:30640:0
 11
2350.0
 21
-4910.0
 31
0.0
  0
POLYLINE
  5
95C
  8
FRAME
 66
1
 10
0.0
 20
0.0
 30
0.0
 70
1
  0
VERTEX
  5
95E
  8
FRAME
 10
2860.0
 20
-4830.0
 30
0.0
 70
0
  0
VERTEX
  5
95F
  8
FRAME
 10
3380.0
 20
-4830.0
 30
0.0
 70
0
  0
VERTEX
  5
960
  8
FRAME
 10
3380.0
 20
-6230.0
 30
0.0
 70
0
  0
VERTEX
  5
961
  8
FRAME
 10
2860.0
 20
-6230.0
 30
0.0
 70
0
  0
SEQEND
  5
95D
  8
FRAME
  0
POLYLINE
  5
962
  8
BASE_MEASURED
 66
1
 10
0.0
 20
0.0
 30
0.0
 70
1
  0
VERTEX
  5
964
  8
BASE_MEASURED
 10
3105.5
 20
-5046.0
 30
0.0
 70
0
  0
VERTEX
  5
965
  8
BASE_MEASURED
 10
3123.0
 20
-5046.0
 30
0.0
 70
0
  0
VERTEX
  5
966
  8
BASE_MEASURED
 10
3123.0
 20
-5040.0
 30
0.0
 70
0
  0
VERTEX
  5
967
  8
BASE_MEASURED
 10
3138.0
 20
-5040.0
 30
0.0
 70
0
  0
VERTEX
  5
968
  8
BASE_MEASURED
 10
3138.0
 20
-5046.0
 30
0.0
 70
0
  0
VERTEX
  5
969
  8
BASE_MEASURED
 10
3155.5
 20
-5046.0
 30
0.0
 70
0
  0
VERTEX
  5
96A
  8
BASE_MEASURED
 10
3155.5
 20
-5000.0
 30
0.0
 70
0
  0
VERTEX
  5
96B
  8
BASE_MEASURED
 10
3154.0
 20
-5000.0
 30
0.0
 70
0
  0
VERTEX
  5
96C
  8
BASE_MEASURED
 10
3146.0
 20
-5008.28
 30
0.0
 70
0
  0
VERTEX
  5
96D
  8
BASE_MEASURED
 10
3138.0
 20
-5000.0
 30
0.0
 70
0
  0
VERTEX
  5
96E
  8
BASE_MEASURED
 10
3132.5
 20
-5000.0
 30
0.0
 70
0
  0
VERTEX
  5
96F
  8
BASE_MEASURED
 10
3120.0
 20
-5012.94
 30
0.0
 70
0
  0
VERTEX
  5
970
  8
BASE_MEASURED
 10
3107.5
 20
-5000.0
 30
0.0
 70
0
  0
VERTEX
  5
971
  8
BASE_MEASURED
 10
3105.5
 20
-5000.0
 30
0.0
 70
0
  0
SEQEND
  5
963
  8
BASE_MEASURED
  0
POLYLINE
  5
972
  8
BASE_MEASURED
 66
1
 10
0.0
 20
0.0
 30
0.0
 70
1
  0
VERTEX
  5
974
  8
BASE_MEASURED
 10
3105.5
 20
-5057.0
 30
0.0
 70
0
  0
VERTEX
  5
975
  8
BASE_MEASURED
 10
3155.5
 20
-5057.0
 30
0.0
 70
0
  0
VERTEX
  5
976
  8
BASE_MEASURED
 10
3155.5
 20
-5047.0
 30
0.0
 70
0
  0
VERTEX
  5
977
  8
BASE_MEASURED
 10
3138.0
 20
-5047.0
 30
0.0
 70
0
  0
VERTEX
  5
978
  8
BASE_MEASURED
 10
3138.0
 20
-5041.0
 30
0.0
 70
0
  0
VERTEX
  5
979
  8
BASE_MEASURED
 10
3123.0
 20
-5041.0
 30
0.0
 70
0
  0
VERTEX
  5
97A
  8
BASE_MEASURED
 10
3123.0
 20
-5047.0
 30
0.0
 70
0
  0
VERTEX
  5
97B
  8
BASE_MEASURED
 10
3105.5
 20
-5047.0
 30
0.0
 70
0
  0
SEQEND
  5
973
  8
BASE_MEASURED
  0
POLYLINE
  5
97C
  8
BASE_MEASURED
 66
1
 10
0.0
 20
0.0
 30
0.0
 70
1
  0
VERTEX
  5
97E
  8
BASE_MEASURED
 10
3152.5
 20
-5132.0
 30
0.0
 70
0
  0
VERTEX
  5
97F
  8
BASE_MEASURED
 10
3092.5
 20
-5132.0
 30
0.0
 70
0
  0
VERTEX
  5
980
  8
BASE_MEASURED
 10
3092.5
 20
-5112.5
 30
0.0
 70
0
  0
VERTEX
  5
981
  8
BASE_MEASURED
 10
3109.5
 20
-5112.5
 30
0.0
 70
0
  0
VERTEX
  5
982
  8
BASE_MEASURED
 10
3109.5
 20
-5057.0
 30
0.0
 70
0
  0
VERTEX
  5
983
  8
BASE_MEASURED
 10
3151.5
 20
-5057.0
 30
0.0
 70
0
  0
VERTEX
  5
984
  8
BASE_MEASURED
 10
3151.5
 20
-5112.5
 30
0.0
 70
0
  0
VERTEX
  5
985
  8
BASE_MEASURED
 10
3152.5
 20
-5112.5
 30
0.0
 70
0
  0
SEQEND
  5
97D
  8
BASE_MEASURED
  0
POLYLINE
  5
986
  8
BASE_MEASURED
 66
1
 10
0.0
 20
0.0
 30
0.0
 70
1
  0
VERTEX
  5
988
  8
BASE_MEASURED
 10
3152.5
 20
-5187.0
 30
0.0
 70
0
  0
VERTEX
  5
989
  8
BASE_MEASURED
 10
3092.5
 20
-5187.0
 30
0.0
 70
0
  0
VERTEX
  5
98A
  8
BASE_MEASURED
 10
3092.5
 20
-5167.0
 30
0.0
 70
0
  0
VERTEX
  5
98B
  8
BASE_MEASURED
 10
3085.5
 20
-5167.0
 30
0.0
 70
0
  0
VERTEX
  5
98C
  8
BASE_MEASURED
 10
3075.5
 20
-5150.0
 30
0.0
 70
0
  0
VERTEX
  5
98D
  8
BASE_MEASURED
 10
3075.5
 20
-5134.0
 30
0.0
 70
0
  0
VERTEX
  5
98E
  8
BASE_MEASURED
 10
3085.5
 20
-5117.0
 30
0.0
 70
0
  0
VERTEX
  5
98F
  8
BASE_MEASURED
 10
3092.5
 20
-5117.0
 30
0.0
 70
0
  0
VERTEX
  5
990
  8
BASE_MEASURED
 10
3092.5
 20
-5132.0
 30
0.0
 70
0
  0
VERTEX
  5
991
  8
BASE_MEASURED
 10
3152.5
 20
-5132.0
 30
0.0
 70
0
  0
VERTEX
  5
992
  8
BASE_MEASURED
 10
3152.5
 20
-5117.0
 30
0.0
 70
0
  0
VERTEX
  5
993
  8
BASE_MEASURED
 10
3159.5
 20
-5117.0
 30
0.0
 70
0
  0
VERTEX
  5
994
  8
BASE_MEASURED
 10
3169.5
 20
-5134.0
 30
0.0
 70
0
  0
VERTEX
  5
995
  8
BASE_MEASURED
 10
3169.5
 20
-5150.0
 30
0.0
 70
0
  0
VERTEX
  5
996
  8
BASE_MEASURED
 10
3159.5
 20
-5167.0
 30
0.0
 70
0
  0
VERTEX
  5
997
  8
BASE_MEASURED
 10
3152.5
 20
-5167.0
 30
0.0
 70
0
  0
SEQEND
  5
987
  8
BASE_MEASURED
  0
POLYLINE
  5
998
  8
BASE_MEASURED
 66
1
 10
0.0
 20
0.0
 30
0.0
 70
1
  0
VERTEX
  5
99A
  8
BASE_MEASURED
 10
3015.5
 20
-5172.0
 30
0.0
 70
0
  0
VERTEX
  5
99B
  8
BASE_MEASURED
 10
3092.5
 20
-5172.0
 30
0.0
 70
0
  0
VERTEX
  5
99C
  8
BASE_MEASURED
 10
3092.5
 20
-5187.0
 30
0.0
 70
0
  0
VERTEX
  5
99D
  8
BASE_MEASURED
 10
3152.5
 20
-5187.0
 30
0.0
 70
0
  0
VERTEX
  5
99E
  8
BASE_MEASURED
 10
3152.5
 20
-5172.0
 30
0.0
 70
0
  0
VERTEX
  5
99F
  8
BASE_MEASURED
 10
3229.49
 20
-5172.0
 30
0.0
 70
0
  0
VERTEX
  5
9A0
  8
BASE_MEASURED
 10
3229.49
 20
-5225.0
 30
0.0
 70
0
  0
VERTEX
  5
9A1
  8
BASE_MEASURED
 10
3015.5
 20
-5225.0
 30
0.0
 70
0
  0
SEQEND
  5
999
  8
BASE_MEASURED
  0
POLYLINE
  5
9A2
  8
BASE_MEASURED
 66
1
 10
0.0
 20
0.0
 30
0.0
 70
1
  0
VERTEX
  5
9A4
  8
BASE_MEASURED
 10
3015.5
 20
-5225.0
 30
0.0
 70
0
  0
VERTEX
  5
9A5
  8
BASE_MEASURED
 10
3229.49
 20
-5225.0
 30
0.0
 70
0
  0
VERTEX
  5
9A6
  8
BASE_MEASURED
 10
3229.49
 20
-6120.0
 30
0.0
 70
0
  0
VERTEX
  5
9A7
  8
BASE_MEASURED
 10
3015.5
 20
-6120.0
 30
0.0
 70
0
  0
SEQEND
  5
9A3
  8
BASE_MEASURED
  0
POLYLINE
  5
9A8
  8
BASE_MEASURED
 66
1
 10
0.0
 20
0.0
 30
0.0
 70
1
  0
VERTEX
  5
9AA
  8
BASE_MEASURED
 10
2998.5
 20
-5220.0
 30
0.0
 70
0
  0
VERTEX
  5
9AB
  8
BASE_MEASURED
 10
3015.5
 20
-5220.0
 30
0.0
 70
0
  0
VERTEX
  5
9AC
  8
BASE_MEASURED
 10
3015.5
 20
-5200.0
 30
0.0
 70
0
  0
VERTEX
  5
9AD
  8
BASE_MEASURED
 10
2998.5
 20
-5200.0
 30
0.0
 70
0
  0
SEQEND
  5
9A9
  8
BASE_MEASURED
  0
POLYLINE
  5
9AE
  8
BASE_MEASURED
 66
1
 10
0.0
 20
0.0
 30
0.0
 70
1
  0
VERTEX
  5
9B0
  8
BASE_MEASURED
 10
3229.49
 20
-5220.0
 30
0.0
 70
0
  0
VERTEX
  5
9B1
  8
BASE_MEASURED
 10
3246.49
 20
-5220.0
 30
0.0
 70
0
  0
VERTEX
  5
9B2
  8
BASE_MEASURED
 10
3246.49
 20
-5200.0
 30
0.0
 70
0
  0
VERTEX
  5
9B3
  8
BASE_MEASURED
 10
3229.49
 20
-5200.0
 30
0.0
 70
0
  0
SEQEND
  5
9AF
  8
BASE_MEASURED
  0
POLYLINE
  5
9B4
  8
DIE
 66
1
 10
0.0
 20
0.0
 30
0.0
 70
1
  0
VERTEX
  5
9B6
  8
DIE
 10
3105.5
 20
-5046.0
 30
0.0
 70
0
  0
VERTEX
  5
9B7
  8
DIE
 10
3123.0
 20
-5046.0
 30
0.0
 70
0
  0
VERTEX
  5
9B8
  8
DIE
 10
3123.0
 20
-5040.0
 30
0.0
 70
0
  0
VERTEX
  5
9B9
  8
DIE
 10
3138.0
 20
-5040.0
 30
0.0
 70
0
  0
VERTEX
  5
9BA
  8
DIE
 10
3138.0
 20
-5046.0
 30
0.0
 70
0
  0
VERTEX
  5
9BB
  8
DIE
 10
3155.5
 20
-5046.0
 30
0.0
 70
0
  0
VERTEX
  5
9BC
  8
DIE
 10
3155.5
 20
-5000.0
 30
0.0
 70
0
  0
VERTEX
  5
9BD
  8
DIE
 10
3154.0
 20
-5000.0
 30
0.0
 70
0
  0
VERTEX
  5
9BE
  8
DIE
 10
3146.0
 20
-5008.28
 30
0.0
 70
0
  0
VERTEX
  5
9BF
  8
DIE
 10
3138.0
 20
-5000.0
 30
0.0
 70
0
  0
VERTEX
  5
9C0
  8
DIE
 10
3132.5
 20
-5000.0
 30
0.0
 70
0
  0
VERTEX
  5
9C1
  8
DIE
 10
3120.0
 20
-5012.94
 30
0.0
 70
0
  0
VERTEX
  5
9C2
  8
DIE
 10
3107.5
 20
-5000.0
 30
0.0
 70
0
  0
VERTEX
  5
9C3
  8
DIE
 10
3105.5
 20
-5000.0
 30
0.0
 70
0
  0
SEQEND
  5
9B5
  8
DIE
  0
LINE
  5
9C4
  8
CENTER
 10
3120.0
 20
-4940.0
 30
0.0
 11
3120.0
 21
-5250.0
 31
0.0
  0
TEXT
  5
9C5
  8
TEXT
 10
2870.0
 20
-4850.0
 30
0.0
 40
13.0
  1
30640 2峚 V16/V25乮V25峚乯
 11
2870.0
 21
-4850.0
 31
0.0
  0
TEXT
  5
9C6
  8
TEXT
 10
2870.0
 20
-4870.0
 30
0.0
 40
11.0
  1
婡夿 HD3504NT丂搚戜 幚應
 11
2870.0
 21
-4870.0
 31
0.0
  0
TEXT
  5
9C7
  8
TEXT
 10
2870.0
 20
-4890.0
 30
0.0
 40
11.0
  1
V暆 25丂怺偝 12.94
 11
2870.0
 21
-4890.0
 31
0.0
  0
TEXT
  5
9C8
  8
TEXT
 10
2870.0
 20
-4910.0
 30
0.0
 40
11.0
  1
lib:30640:1
 11
2870.0
 21
-4910.0
 31
0.0
  0
POLYLINE
  5
9C9
  8
FRAME
 66
1
 10
0.0
 20
0.0
 30
0.0
 70
1
  0
VERTEX
  5
9CB
  8
FRAME
 10
3380.0
 20
-4830.0
 30
0.0
 70
0
  0
VERTEX
  5
9CC
  8
FRAME
 10
3900.0
 20
-4830.0
 30
0.0
 70
0
  0
VERTEX
  5
9CD
  8
FRAME
 10
3900.0
 20
-6230.0
 30
0.0
 70
0
  0
VERTEX
  5
9CE
  8
FRAME
 10
3380.0
 20
-6230.0
 30
0.0
 70
0
  0
SEQEND
  5
9CA
  8
FRAME
  0
POLYLINE
  5
9CF
  8
BASE_MEASURED
 66
1
 10
0.0
 20
0.0
 30
0.0
 70
1
  0
VERTEX
  5
9D1
  8
BASE_MEASURED
 10
3654.5
 20
-5046.0
 30
0.0
 70
0
  0
VERTEX
  5
9D2
  8
BASE_MEASURED
 10
3637.0
 20
-5046.0
 30
0.0
 70
0
  0
VERTEX
  5
9D3
  8
BASE_MEASURED
 10
3637.0
 20
-5040.0
 30
0.0
 70
0
  0
VERTEX
  5
9D4
  8
BASE_MEASURED
 10
3622.0
 20
-5040.0
 30
0.0
 70
0
  0
VERTEX
  5
9D5
  8
BASE_MEASURED
 10
3622.0
 20
-5046.0
 30
0.0
 70
0
  0
VERTEX
  5
9D6
  8
BASE_MEASURED
 10
3604.5
 20
-5046.0
 30
0.0
 70
0
  0
VERTEX
  5
9D7
  8
BASE_MEASURED
 10
3604.5
 20
-5000.0
 30
0.0
 70
0
  0
VERTEX
  5
9D8
  8
BASE_MEASURED
 10
3606.0
 20
-5000.0
 30
0.0
 70
0
  0
VERTEX
  5
9D9
  8
BASE_MEASURED
 10
3614.0
 20
-5008.28
 30
0.0
 70
0
  0
VERTEX
  5
9DA
  8
BASE_MEASURED
 10
3622.0
 20
-5000.0
 30
0.0
 70
0
  0
VERTEX
  5
9DB
  8
BASE_MEASURED
 10
3627.5
 20
-5000.0
 30
0.0
 70
0
  0
VERTEX
  5
9DC
  8
BASE_MEASURED
 10
3640.0
 20
-5012.94
 30
0.0
 70
0
  0
VERTEX
  5
9DD
  8
BASE_MEASURED
 10
3652.5
 20
-5000.0
 30
0.0
 70
0
  0
VERTEX
  5
9DE
  8
BASE_MEASURED
 10
3654.5
 20
-5000.0
 30
0.0
 70
0
  0
SEQEND
  5
9D0
  8
BASE_MEASURED
  0
POLYLINE
  5
9DF
  8
BASE_MEASURED
 66
1
 10
0.0
 20
0.0
 30
0.0
 70
1
  0
VERTEX
  5
9E1
  8
BASE_MEASURED
 10
3604.5
 20
-5056.0
 30
0.0
 70
0
  0
VERTEX
  5
9E2
  8
BASE_MEASURED
 10
3654.5
 20
-5056.0
 30
0.0
 70
0
  0
VERTEX
  5
9E3
  8
BASE_MEASURED
 10
3654.5
 20
-5046.0
 30
0.0
 70
0
  0
VERTEX
  5
9E4
  8
BASE_MEASURED
 10
3637.0
 20
-5046.0
 30
0.0
 70
0
  0
VERTEX
  5
9E5
  8
BASE_MEASURED
 10
3637.0
 20
-5040.0
 30
0.0
 70
0
  0
VERTEX
  5
9E6
  8
BASE_MEASURED
 10
3622.0
 20
-5040.0
 30
0.0
 70
0
  0
VERTEX
  5
9E7
  8
BASE_MEASURED
 10
3622.0
 20
-5046.0
 30
0.0
 70
0
  0
VERTEX
  5
9E8
  8
BASE_MEASURED
 10
3604.5
 20
-5046.0
 30
0.0
 70
0
  0
SEQEND
  5
9E0
  8
BASE_MEASURED
  0
POLYLINE
  5
9E9
  8
BASE_MEASURED
 66
1
 10
0.0
 20
0.0
 30
0.0
 70
1
  0
VERTEX
  5
9EB
  8
BASE_MEASURED
 10
3651.5
 20
-5131.0
 30
0.0
 70
0
  0
VERTEX
  5
9EC
  8
BASE_MEASURED
 10
3591.5
 20
-5131.0
 30
0.0
 70
0
  0
VERTEX
  5
9ED
  8
BASE_MEASURED
 10
3591.5
 20
-5111.5
 30
0.0
 70
0
  0
VERTEX
  5
9EE
  8
BASE_MEASURED
 10
3608.5
 20
-5111.5
 30
0.0
 70
0
  0
VERTEX
  5
9EF
  8
BASE_MEASURED
 10
3608.5
 20
-5056.0
 30
0.0
 70
0
  0
VERTEX
  5
9F0
  8
BASE_MEASURED
 10
3650.5
 20
-5056.0
 30
0.0
 70
0
  0
VERTEX
  5
9F1
  8
BASE_MEASURED
 10
3650.5
 20
-5111.5
 30
0.0
 70
0
  0
VERTEX
  5
9F2
  8
BASE_MEASURED
 10
3651.5
 20
-5111.5
 30
0.0
 70
0
  0
SEQEND
  5
9EA
  8
BASE_MEASURED
  0
POLYLINE
  5
9F3
  8
BASE_MEASURED
 66
1
 10
0.0
 20
0.0
 30
0.0
 70
1
  0
VERTEX
  5
9F5
  8
BASE_MEASURED
 10
3651.5
 20
-5186.0
 30
0.0
 70
0
  0
VERTEX
  5
9F6
  8
BASE_MEASURED
 10
3591.5
 20
-5186.0
 30
0.0
 70
0
  0
VERTEX
  5
9F7
  8
BASE_MEASURED
 10
3591.5
 20
-5166.0
 30
0.0
 70
0
  0
VERTEX
  5
9F8
  8
BASE_MEASURED
 10
3584.5
 20
-5166.0
 30
0.0
 70
0
  0
VERTEX
  5
9F9
  8
BASE_MEASURED
 10
3574.5
 20
-5149.0
 30
0.0
 70
0
  0
VERTEX
  5
9FA
  8
BASE_MEASURED
 10
3574.5
 20
-5133.0
 30
0.0
 70
0
  0
VERTEX
  5
9FB
  8
BASE_MEASURED
 10
3584.5
 20
-5116.0
 30
0.0
 70
0
  0
VERTEX
  5
9FC
  8
BASE_MEASURED
 10
3591.5
 20
-5116.0
 30
0.0
 70
0
  0
VERTEX
  5
9FD
  8
BASE_MEASURED
 10
3591.5
 20
-5131.0
 30
0.0
 70
0
  0
VERTEX
  5
9FE
  8
BASE_MEASURED
 10
3651.5
 20
-5131.0
 30
0.0
 70
0
  0
VERTEX
  5
9FF
  8
BASE_MEASURED
 10
3651.5
 20
-5116.0
 30
0.0
 70
0
  0
VERTEX
  5
A00
  8
BASE_MEASURED
 10
3658.5
 20
-5116.0
 30
0.0
 70
0
  0
VERTEX
  5
A01
  8
BASE_MEASURED
 10
3668.5
 20
-5133.0
 30
0.0
 70
0
  0
VERTEX
  5
A02
  8
BASE_MEASURED
 10
3668.5
 20
-5149.0
 30
0.0
 70
0
  0
VERTEX
  5
A03
  8
BASE_MEASURED
 10
3658.5
 20
-5166.0
 30
0.0
 70
0
  0
VERTEX
  5
A04
  8
BASE_MEASURED
 10
3651.5
 20
-5166.0
 30
0.0
 70
0
  0
SEQEND
  5
9F4
  8
BASE_MEASURED
  0
POLYLINE
  5
A05
  8
BASE_MEASURED
 66
1
 10
0.0
 20
0.0
 30
0.0
 70
1
  0
VERTEX
  5
A07
  8
BASE_MEASURED
 10
3514.5
 20
-5171.0
 30
0.0
 70
0
  0
VERTEX
  5
A08
  8
BASE_MEASURED
 10
3591.5
 20
-5171.0
 30
0.0
 70
0
  0
VERTEX
  5
A09
  8
BASE_MEASURED
 10
3591.5
 20
-5186.0
 30
0.0
 70
0
  0
VERTEX
  5
A0A
  8
BASE_MEASURED
 10
3651.5
 20
-5186.0
 30
0.0
 70
0
  0
VERTEX
  5
A0B
  8
BASE_MEASURED
 10
3651.5
 20
-5171.0
 30
0.0
 70
0
  0
VERTEX
  5
A0C
  8
BASE_MEASURED
 10
3728.49
 20
-5171.0
 30
0.0
 70
0
  0
VERTEX
  5
A0D
  8
BASE_MEASURED
 10
3728.49
 20
-5224.0
 30
0.0
 70
0
  0
VERTEX
  5
A0E
  8
BASE_MEASURED
 10
3514.5
 20
-5224.0
 30
0.0
 70
0
  0
SEQEND
  5
A06
  8
BASE_MEASURED
  0
POLYLINE
  5
A0F
  8
BASE_MEASURED
 66
1
 10
0.0
 20
0.0
 30
0.0
 70
1
  0
VERTEX
  5
A11
  8
BASE_MEASURED
 10
3514.5
 20
-5224.0
 30
0.0
 70
0
  0
VERTEX
  5
A12
  8
BASE_MEASURED
 10
3728.49
 20
-5224.0
 30
0.0
 70
0
  0
VERTEX
  5
A13
  8
BASE_MEASURED
 10
3728.49
 20
-6119.0
 30
0.0
 70
0
  0
VERTEX
  5
A14
  8
BASE_MEASURED
 10
3514.5
 20
-6119.0
 30
0.0
 70
0
  0
SEQEND
  5
A10
  8
BASE_MEASURED
  0
POLYLINE
  5
A15
  8
BASE_MEASURED
 66
1
 10
0.0
 20
0.0
 30
0.0
 70
1
  0
VERTEX
  5
A17
  8
BASE_MEASURED
 10
3497.5
 20
-5219.0
 30
0.0
 70
0
  0
VERTEX
  5
A18
  8
BASE_MEASURED
 10
3514.5
 20
-5219.0
 30
0.0
 70
0
  0
VERTEX
  5
A19
  8
BASE_MEASURED
 10
3514.5
 20
-5199.0
 30
0.0
 70
0
  0
VERTEX
  5
A1A
  8
BASE_MEASURED
 10
3497.5
 20
-5199.0
 30
0.0
 70
0
  0
SEQEND
  5
A16
  8
BASE_MEASURED
  0
POLYLINE
  5
A1B
  8
BASE_MEASURED
 66
1
 10
0.0
 20
0.0
 30
0.0
 70
1
  0
VERTEX
  5
A1D
  8
BASE_MEASURED
 10
3728.49
 20
-5219.0
 30
0.0
 70
0
  0
VERTEX
  5
A1E
  8
BASE_MEASURED
 10
3745.49
 20
-5219.0
 30
0.0
 70
0
  0
VERTEX
  5
A1F
  8
BASE_MEASURED
 10
3745.49
 20
-5199.0
 30
0.0
 70
0
  0
VERTEX
  5
A20
  8
BASE_MEASURED
 10
3728.49
 20
-5199.0
 30
0.0
 70
0
  0
SEQEND
  5
A1C
  8
BASE_MEASURED
  0
POLYLINE
  5
A21
  8
DIE
 66
1
 10
0.0
 20
0.0
 30
0.0
 70
1
  0
VERTEX
  5
A23
  8
DIE
 10
3654.5
 20
-5046.0
 30
0.0
 70
0
  0
VERTEX
  5
A24
  8
DIE
 10
3637.0
 20
-5046.0
 30
0.0
 70
0
  0
VERTEX
  5
A25
  8
DIE
 10
3637.0
 20
-5040.0
 30
0.0
 70
0
  0
VERTEX
  5
A26
  8
DIE
 10
3622.0
 20
-5040.0
 30
0.0
 70
0
  0
VERTEX
  5
A27
  8
DIE
 10
3622.0
 20
-5046.0
 30
0.0
 70
0
  0
VERTEX
  5
A28
  8
DIE
 10
3604.5
 20
-5046.0
 30
0.0
 70
0
  0
VERTEX
  5
A29
  8
DIE
 10
3604.5
 20
-5000.0
 30
0.0
 70
0
  0
VERTEX
  5
A2A
  8
DIE
 10
3606.0
 20
-5000.0
 30
0.0
 70
0
  0
VERTEX
  5
A2B
  8
DIE
 10
3614.0
 20
-5008.28
 30
0.0
 70
0
  0
VERTEX
  5
A2C
  8
DIE
 10
3622.0
 20
-5000.0
 30
0.0
 70
0
  0
VERTEX
  5
A2D
  8
DIE
 10
3627.5
 20
-5000.0
 30
0.0
 70
0
  0
VERTEX
  5
A2E
  8
DIE
 10
3640.0
 20
-5012.94
 30
0.0
 70
0
  0
VERTEX
  5
A2F
  8
DIE
 10
3652.5
 20
-5000.0
 30
0.0
 70
0
  0
VERTEX
  5
A30
  8
DIE
 10
3654.5
 20
-5000.0
 30
0.0
 70
0
  0
SEQEND
  5
A22
  8
DIE
  0
LINE
  5
A31
  8
CENTER
 10
3640.0
 20
-4940.0
 30
0.0
 11
3640.0
 21
-5250.0
 31
0.0
  0
TEXT
  5
A32
  8
TEXT
 10
3390.0
 20
-4850.0
 30
0.0
 40
13.0
  1
30640 2峚 V16/V25乮V25峚乯丒嵍塃斀揮
 11
3390.0
 21
-4850.0
 31
0.0
  0
TEXT
  5
A33
  8
TEXT
 10
3390.0
 20
-4870.0
 30
0.0
 40
11.0
  1
婡夿 HD3504NT丂搚戜 幚應
 11
3390.0
 21
-4870.0
 31
0.0
  0
TEXT
  5
A34
  8
TEXT
 10
3390.0
 20
-4890.0
 30
0.0
 40
11.0
  1
V暆 25丂怺偝 12.94
 11
3390.0
 21
-4890.0
 31
0.0
  0
TEXT
  5
A35
  8
TEXT
 10
3390.0
 20
-4910.0
 30
0.0
 40
11.0
  1
lib:30640:1
 11
3390.0
 21
-4910.0
 31
0.0
  0
TEXT
  5
A36
  8
TEXT
 10
-260.0
 20
480.0
 30
0.0
 40
22.0
  1
杴椺丗悈怓=僟僀丂椢=搚戜乮庢晅恾偺幚應乯丂墿=搚戜乮戙梡丒悇應乯丂愒榞=搚戜側偟丂惵=V拞怱丂扨埵mm丒1:1
 11
-260.0
 21
480.0
 31
0.0
  0
ENDSEC
  0
EOF
